%TF.GenerationSoftware,Altium Limited,Altium Designer,24.2.2 (26)*%
G04 Layer_Color=16711935*
%FSLAX45Y45*%
%MOMM*%
%TF.SameCoordinates,B61E387C-C652-4A73-A4A4-6DD95E315EF5*%
%TF.FilePolarity,Negative*%
%TF.FileFunction,Soldermask,Bot*%
%TF.Part,Single*%
G01*
G75*
%TA.AperFunction,ComponentPad*%
%ADD83C,1.42240*%
%ADD84R,1.42240X1.42240*%
%ADD85C,1.30000*%
%ADD86R,1.30000X1.30000*%
%ADD89R,1.42240X1.42240*%
%TA.AperFunction,SMDPad,CuDef*%
%ADD114R,9.91000X8.30000*%
%TA.AperFunction,NonConductor*%
%ADD125R,2.70000X10.70000*%
%ADD126R,23.80000X23.30000*%
%TA.AperFunction,ComponentPad*%
%ADD173C,1.70320*%
%ADD174C,1.40320*%
%ADD175R,1.70320X1.70320*%
%ADD176C,1.77820*%
%ADD177C,1.71120*%
%ADD178R,1.71120X1.71120*%
%ADD179C,4.36920*%
%TA.AperFunction,ViaPad*%
%ADD180C,4.20320*%
%ADD181C,8.20320*%
%ADD182C,0.65320*%
%TA.AperFunction,SMDPad,CuDef*%
G04:AMPARAMS|DCode=183|XSize=4.1332mm|YSize=1.2632mm|CornerRadius=0.3666mm|HoleSize=0mm|Usage=FLASHONLY|Rotation=180.000|XOffset=0mm|YOffset=0mm|HoleType=Round|Shape=RoundedRectangle|*
%AMROUNDEDRECTD183*
21,1,4.13320,0.53000,0,0,180.0*
21,1,3.40000,1.26320,0,0,180.0*
1,1,0.73320,-1.70000,0.26500*
1,1,0.73320,1.70000,0.26500*
1,1,0.73320,1.70000,-0.26500*
1,1,0.73320,-1.70000,-0.26500*
%
%ADD183ROUNDEDRECTD183*%
%ADD184R,6.80720X10.68320*%
%ADD185R,3.60320X1.10320*%
G36*
X12336252Y5596541D02*
X12352631Y5589757D01*
X12367371Y5579907D01*
X12379907Y5567371D01*
X12389757Y5552631D01*
X12396541Y5536252D01*
X12400000Y5518864D01*
Y5510000D01*
Y4440000D01*
Y4432121D01*
X12396925Y4416665D01*
X12390895Y4402106D01*
X12382140Y4389003D01*
X12370997Y4377860D01*
X12357894Y4369105D01*
X12343335Y4363074D01*
X12327879Y4360000D01*
X11352121D01*
X11336665Y4363074D01*
X11322106Y4369105D01*
X11309003Y4377860D01*
X11297860Y4389003D01*
X11289105Y4402106D01*
X11283074Y4416665D01*
X11280000Y4432121D01*
Y4440000D01*
Y5520000D01*
Y5527879D01*
X11283074Y5543335D01*
X11289105Y5557894D01*
X11297860Y5570997D01*
X11309003Y5582140D01*
X11322106Y5590895D01*
X11336665Y5596926D01*
X11352121Y5600000D01*
X12318864D01*
X12336252Y5596541D01*
D02*
G37*
G36*
X9657466Y5587754D02*
X9673845Y5580969D01*
X9688585Y5571120D01*
X9701121Y5558584D01*
X9710971Y5543843D01*
X9717755Y5527464D01*
X9721214Y5510076D01*
Y5501212D01*
Y4431212D01*
Y4423333D01*
X9718139Y4407877D01*
X9712109Y4393318D01*
X9703354Y4380215D01*
X9692210Y4369072D01*
X9679108Y4360317D01*
X9664549Y4354286D01*
X9649093Y4351212D01*
X8673334D01*
X8657879Y4354286D01*
X8643320Y4360317D01*
X8630217Y4369072D01*
X8619073Y4380215D01*
X8610319Y4393318D01*
X8604288Y4407877D01*
X8601214Y4423333D01*
Y4431212D01*
Y5511212D01*
Y5519091D01*
X8604288Y5534547D01*
X8610319Y5549106D01*
X8619073Y5562209D01*
X8630217Y5573352D01*
X8643320Y5582107D01*
X8657879Y5588138D01*
X8673334Y5591212D01*
X9640078D01*
X9657466Y5587754D01*
D02*
G37*
G36*
X11903987Y4240865D02*
X11920865Y4223987D01*
X11930000Y4201935D01*
Y4190000D01*
Y3130000D01*
Y3124032D01*
X11925432Y3113006D01*
X11916993Y3104567D01*
X11905967Y3100000D01*
X11213105D01*
X11199582Y3102690D01*
X11186842Y3107967D01*
X11175377Y3115627D01*
X11165627Y3125377D01*
X11157967Y3136842D01*
X11152690Y3149582D01*
X11150000Y3163105D01*
Y3170000D01*
Y4210000D01*
Y4217956D01*
X11156089Y4232658D01*
X11167341Y4243910D01*
X11182043Y4250000D01*
X11881935D01*
X11903987Y4240865D01*
D02*
G37*
G36*
X9225201Y4232078D02*
X9242079Y4215199D01*
X9251214Y4193147D01*
Y4181212D01*
Y3121212D01*
Y3115245D01*
X9246646Y3104219D01*
X9238207Y3095779D01*
X9227181Y3091212D01*
X8534319D01*
X8520796Y3093902D01*
X8508056Y3099179D01*
X8496591Y3106840D01*
X8486841Y3116590D01*
X8479180Y3128055D01*
X8473904Y3140794D01*
X8471214Y3154318D01*
Y3161212D01*
Y4201212D01*
Y4209169D01*
X8477303Y4223870D01*
X8488555Y4235123D01*
X8503257Y4241212D01*
X9203148D01*
X9225201Y4232078D01*
D02*
G37*
G36*
X17325117Y12593095D02*
X17368211Y12581549D01*
X17409431Y12564474D01*
X17448067Y12542168D01*
X17483463Y12515009D01*
X17515009Y12483461D01*
X17542169Y12448066D01*
X17564474Y12409431D01*
X17581549Y12368212D01*
X17593095Y12325118D01*
X17598920Y12280886D01*
Y12258578D01*
Y2941421D01*
Y2919115D01*
X17593095Y2874881D01*
X17581549Y2831788D01*
X17564474Y2790568D01*
X17542169Y2751932D01*
X17515009Y2716538D01*
X17483463Y2684990D01*
X17448067Y2657830D01*
X17409431Y2635525D01*
X17368211Y2618451D01*
X17325117Y2606904D01*
X17280885Y2601081D01*
X2919115D01*
X2874883Y2606904D01*
X2831788Y2618451D01*
X2790568Y2635525D01*
X2751932Y2657831D01*
X2716538Y2684990D01*
X2684990Y2716538D01*
X2657830Y2751934D01*
X2635525Y2790569D01*
X2618451Y2831788D01*
X2606904Y2874881D01*
X2601081Y2919115D01*
Y2941421D01*
Y12199999D01*
X2783322D01*
X2787405Y12199997D01*
X2796717Y12197886D01*
X2800480Y12196573D01*
X2801647Y12195764D01*
X2800941Y12196412D01*
X2801747Y12196131D01*
X2805184Y12193312D01*
X2810335Y12184681D01*
X2814184Y12175390D01*
X2814183Y12156125D01*
X2807719Y12140523D01*
X2799999Y12131519D01*
X2799997Y12131517D01*
X2799998Y12131516D01*
X2800000Y3054000D01*
X2801223Y3029103D01*
X2810937Y2980268D01*
X2829992Y2934265D01*
X2857655Y2892864D01*
X2892864Y2857655D01*
X2934265Y2829992D01*
X2980268Y2810937D01*
X3029103Y2801223D01*
X3054000Y2800000D01*
X17146001D01*
X17170895Y2801223D01*
X17219733Y2810937D01*
X17265735Y2829992D01*
X17307137Y2857655D01*
X17342345Y2892864D01*
X17370007Y2934265D01*
X17389062Y2980268D01*
X17398776Y3029103D01*
X17400000Y3054000D01*
Y12146000D01*
X17398776Y12170896D01*
X17389062Y12219732D01*
X17370007Y12265735D01*
X17342345Y12307136D01*
X17307137Y12342345D01*
X17265735Y12370008D01*
X17219733Y12389063D01*
X17170895Y12398777D01*
X17146001Y12400000D01*
X3000000D01*
X2980397Y12399037D01*
X2941943Y12391388D01*
X2905721Y12376384D01*
X2873121Y12354602D01*
X2845398Y12326879D01*
X2823616Y12294279D01*
X2808612Y12258057D01*
X2800963Y12219603D01*
X2800552Y12211240D01*
X2799926Y12209242D01*
X2794179Y12202864D01*
X2787855Y12200000D01*
X2601081D01*
X2601081Y12212699D01*
Y12280885D01*
X2606904Y12325117D01*
X2618451Y12368212D01*
X2635525Y12409431D01*
X2657831Y12448067D01*
X2684990Y12483461D01*
X2716538Y12515009D01*
X2751934Y12542169D01*
X2790569Y12564475D01*
X2831788Y12581549D01*
X2874881Y12593095D01*
X2919113Y12598919D01*
X17280885D01*
X17325117Y12593095D01*
D02*
G37*
%LPC*%
G36*
X2801647Y12195764D02*
X2806232Y12191557D01*
X2805184Y12193312D01*
X2801647Y12195764D01*
D02*
G37*
%LPD*%
D83*
X4300000Y11700000D02*
D03*
X10220000Y6100000D02*
D03*
X8648021Y7594002D02*
D03*
Y8084002D02*
D03*
X10218021Y6604002D02*
D03*
Y7094002D02*
D03*
X10218021Y8574002D02*
D03*
X11320000Y8850000D02*
D03*
X14910001Y8860000D02*
D03*
X12889999Y9340000D02*
D03*
X14910001Y9350000D02*
D03*
X11320000Y8360000D02*
D03*
X14720000Y8370000D02*
D03*
D84*
X4300000Y10130000D02*
D03*
D85*
X6182000Y11401000D02*
D03*
Y10893000D02*
D03*
X5928000Y11147000D02*
D03*
X6002395Y11326605D02*
D03*
X6361605D02*
D03*
X6002395Y10967395D02*
D03*
X6361605D02*
D03*
D86*
X6436000Y11147000D02*
D03*
D89*
X8650000Y6100000D02*
D03*
X10218021Y7594002D02*
D03*
Y8084002D02*
D03*
X8648021Y6604002D02*
D03*
Y7094002D02*
D03*
X8648021Y8574002D02*
D03*
X12889999Y8850000D02*
D03*
X13339999Y8860000D02*
D03*
X11320000Y9340000D02*
D03*
X13339999Y9350000D02*
D03*
X12889999Y8360000D02*
D03*
X13150000Y8370000D02*
D03*
D114*
X11816000Y4830000D02*
D03*
X9137214Y4821213D02*
D03*
D125*
X3025000Y10775000D02*
D03*
D126*
X6200000Y11145000D02*
D03*
D173*
X10091246Y10538397D02*
D03*
X9911246Y10407620D02*
D03*
X9688754D02*
D03*
X9508754Y10538397D02*
D03*
Y10961603D02*
D03*
X9688754Y11092380D02*
D03*
X10091246Y10961603D02*
D03*
X9911246Y11092380D02*
D03*
X9800000Y10900000D02*
D03*
Y10600000D02*
D03*
X9650000Y10750000D02*
D03*
X9440000D02*
D03*
X10160000D02*
D03*
X9950000D02*
D03*
X3704000Y8114400D02*
D03*
Y7885800D02*
D03*
Y7657200D02*
D03*
Y7428600D02*
D03*
Y7200000D02*
D03*
Y6971400D02*
D03*
Y6742800D02*
D03*
Y6514000D02*
D03*
X3902000Y8457300D02*
D03*
Y8228700D02*
D03*
Y8000100D02*
D03*
Y7771500D02*
D03*
Y7542900D02*
D03*
Y7314300D02*
D03*
Y7085700D02*
D03*
Y6857100D02*
D03*
Y6628500D02*
D03*
X4100000Y8343000D02*
D03*
Y8114400D02*
D03*
Y7885800D02*
D03*
Y7657200D02*
D03*
Y7428600D02*
D03*
Y7200000D02*
D03*
Y6971400D02*
D03*
Y6742800D02*
D03*
D174*
X5748021Y5684003D02*
D03*
Y7374003D02*
D03*
X8038021Y5614002D02*
D03*
X6348021D02*
D03*
X7135997Y7660000D02*
D03*
X5445997D02*
D03*
X5445998Y7960000D02*
D03*
X7135998D02*
D03*
X5445998Y8230001D02*
D03*
X7135998D02*
D03*
X5478021Y5684003D02*
D03*
Y7374003D02*
D03*
X8358021Y7094002D02*
D03*
Y5404002D02*
D03*
X6348021Y6174002D02*
D03*
X8038021D02*
D03*
Y5344002D02*
D03*
X6348021D02*
D03*
X8038021Y5884002D02*
D03*
X6348021D02*
D03*
X12190000Y6220000D02*
D03*
X13880000D02*
D03*
X12190000Y5950000D02*
D03*
X13880000D02*
D03*
X11320000Y6290000D02*
D03*
Y7980000D02*
D03*
X12190000Y6780000D02*
D03*
X13880000D02*
D03*
X14200000Y7700000D02*
D03*
Y6010000D02*
D03*
X11590000Y6290000D02*
D03*
Y7980000D02*
D03*
X10770000Y8890000D02*
D03*
Y7200000D02*
D03*
X11040000Y8890000D02*
D03*
Y7200000D02*
D03*
X10470000Y7200000D02*
D03*
Y8890000D02*
D03*
X13880000Y6490000D02*
D03*
X12190000D02*
D03*
D175*
X3704000Y8343000D02*
D03*
D176*
X3902000Y9145000D02*
D03*
Y5813000D02*
D03*
D177*
X16158000Y7911000D02*
D03*
Y7637000D02*
D03*
Y7363000D02*
D03*
Y7089000D02*
D03*
X16442000Y8048000D02*
D03*
Y7774000D02*
D03*
Y7500000D02*
D03*
Y7226000D02*
D03*
D178*
Y6952000D02*
D03*
D179*
X16300000Y8749500D02*
D03*
Y6250500D02*
D03*
D180*
X6978470Y10353194D02*
D03*
X5382000Y11947000D02*
D03*
D181*
X17100000Y12100000D02*
D03*
Y3100000D02*
D03*
X3100000D02*
D03*
Y12100000D02*
D03*
D182*
X7470000Y3840000D02*
D03*
X8850000Y12060000D02*
D03*
X13200000Y9930000D02*
D03*
X4586600Y4261100D02*
D03*
Y4191100D02*
D03*
X4556600Y4131100D02*
D03*
X4486600D02*
D03*
X4426600D02*
D03*
X4366600D02*
D03*
X4306600D02*
D03*
X4246600D02*
D03*
X4186600D02*
D03*
X4126600D02*
D03*
X4076600Y4161100D02*
D03*
X4056600Y4221100D02*
D03*
Y4281100D02*
D03*
Y4341100D02*
D03*
Y4401100D02*
D03*
Y4461100D02*
D03*
Y4521100D02*
D03*
X4106600Y4561100D02*
D03*
X4156600Y4601100D02*
D03*
X4206600Y4641100D02*
D03*
X4236600Y4691100D02*
D03*
Y4751099D02*
D03*
Y4811100D02*
D03*
Y4871099D02*
D03*
Y4931100D02*
D03*
Y4991099D02*
D03*
Y5051100D02*
D03*
X4266600Y5101100D02*
D03*
X4316600Y5131099D02*
D03*
X4376600D02*
D03*
X4436600D02*
D03*
X4496600D02*
D03*
X4556600D02*
D03*
X4586600Y5091100D02*
D03*
Y5031100D02*
D03*
Y4971100D02*
D03*
Y4911100D02*
D03*
Y4851100D02*
D03*
Y4791100D02*
D03*
Y4731100D02*
D03*
Y4671100D02*
D03*
Y4611099D02*
D03*
Y4551100D02*
D03*
Y4491099D02*
D03*
Y4431100D02*
D03*
Y4371099D02*
D03*
Y4311100D02*
D03*
X12672544Y2753116D02*
D03*
X12547544D02*
D03*
X17032022Y12446883D02*
D03*
X16907022D02*
D03*
X16782022D02*
D03*
X16657022D02*
D03*
X16532022D02*
D03*
X16407022D02*
D03*
X16282022D02*
D03*
X16157022D02*
D03*
X16032022D02*
D03*
X15907022D02*
D03*
X15782022D02*
D03*
X15657022D02*
D03*
X15532022D02*
D03*
X15407022D02*
D03*
X15282022D02*
D03*
X15157022D02*
D03*
X15032022D02*
D03*
X14907022D02*
D03*
X14782022D02*
D03*
X14657022D02*
D03*
X14532022D02*
D03*
X14407022D02*
D03*
X14282022D02*
D03*
X14157022D02*
D03*
X14032022D02*
D03*
X13907022D02*
D03*
X13782022D02*
D03*
X13657022D02*
D03*
X13532022D02*
D03*
X13407022D02*
D03*
X13282022D02*
D03*
X13157022D02*
D03*
X13032022D02*
D03*
X12907022D02*
D03*
X12782022D02*
D03*
X12657022D02*
D03*
X12532022D02*
D03*
X12407022D02*
D03*
X12282022D02*
D03*
X12157022D02*
D03*
X12032022D02*
D03*
X11907022D02*
D03*
X11782022D02*
D03*
X11657022D02*
D03*
X11532022D02*
D03*
X11407022D02*
D03*
X11282022D02*
D03*
X11157022D02*
D03*
X11032022D02*
D03*
X10907022D02*
D03*
X10782022D02*
D03*
X10657022D02*
D03*
X10532022D02*
D03*
X10407022D02*
D03*
X10282022D02*
D03*
X10157022D02*
D03*
X10032022D02*
D03*
X9907022D02*
D03*
X9782022D02*
D03*
X9657022D02*
D03*
X9532022D02*
D03*
X9407022D02*
D03*
X9282022D02*
D03*
X9157022D02*
D03*
X9032022D02*
D03*
X8907022D02*
D03*
X8782022D02*
D03*
X8657022D02*
D03*
X8532022D02*
D03*
X8407022D02*
D03*
X8282022D02*
D03*
X8157022D02*
D03*
X8032022D02*
D03*
X7907022D02*
D03*
X7782022D02*
D03*
X7657022D02*
D03*
X7532022D02*
D03*
X7407022D02*
D03*
X7282022D02*
D03*
X7157022D02*
D03*
X7032021D02*
D03*
X6907021D02*
D03*
X6782021D02*
D03*
X6657021D02*
D03*
X6532021D02*
D03*
X6407021D02*
D03*
X6282021D02*
D03*
X6157021D02*
D03*
X6032021D02*
D03*
X5907021D02*
D03*
X5782021D02*
D03*
X5657021D02*
D03*
X5532021D02*
D03*
X5407021D02*
D03*
X5282021D02*
D03*
X5157021D02*
D03*
X5032021D02*
D03*
X4907021D02*
D03*
X4782021D02*
D03*
X4657021D02*
D03*
X4532021D02*
D03*
X4407021D02*
D03*
X4282021D02*
D03*
X4157021D02*
D03*
X4032021D02*
D03*
X3907021D02*
D03*
X3782021D02*
D03*
X3657021D02*
D03*
X3532021D02*
D03*
X3407021D02*
D03*
X3282021D02*
D03*
X3157021D02*
D03*
X3032035Y12445035D02*
D03*
X2911881Y12410566D02*
D03*
X2816573Y12329688D02*
D03*
X2762667Y12216909D02*
D03*
X2753117Y12092274D02*
D03*
Y11967274D02*
D03*
Y11842274D02*
D03*
Y11717274D02*
D03*
Y11592274D02*
D03*
Y11467274D02*
D03*
Y11342274D02*
D03*
Y11217274D02*
D03*
Y11092274D02*
D03*
Y10967274D02*
D03*
Y10842274D02*
D03*
Y10717274D02*
D03*
Y10592274D02*
D03*
Y10467274D02*
D03*
Y10342274D02*
D03*
Y10217274D02*
D03*
Y10092274D02*
D03*
Y9967274D02*
D03*
Y9842274D02*
D03*
Y9717274D02*
D03*
Y9592274D02*
D03*
Y9467274D02*
D03*
Y9342274D02*
D03*
Y9217274D02*
D03*
Y9092274D02*
D03*
Y8967274D02*
D03*
Y8842274D02*
D03*
Y8717274D02*
D03*
Y8592274D02*
D03*
Y8467274D02*
D03*
Y8342274D02*
D03*
Y8217274D02*
D03*
Y8092274D02*
D03*
Y7967274D02*
D03*
Y7842274D02*
D03*
Y7717274D02*
D03*
Y7592274D02*
D03*
Y7467274D02*
D03*
Y7342274D02*
D03*
Y7217274D02*
D03*
Y7092274D02*
D03*
Y6967274D02*
D03*
Y6842274D02*
D03*
Y6717274D02*
D03*
Y6592274D02*
D03*
Y6467274D02*
D03*
Y6342274D02*
D03*
Y6217274D02*
D03*
Y6092274D02*
D03*
Y5967274D02*
D03*
Y5842274D02*
D03*
Y5717274D02*
D03*
Y5592274D02*
D03*
Y5467274D02*
D03*
Y5342274D02*
D03*
Y5217274D02*
D03*
Y5092274D02*
D03*
Y4967274D02*
D03*
Y4842274D02*
D03*
Y4717274D02*
D03*
Y4592274D02*
D03*
Y4467274D02*
D03*
Y4342274D02*
D03*
Y4217274D02*
D03*
Y4092274D02*
D03*
Y3967274D02*
D03*
Y3842274D02*
D03*
Y3717274D02*
D03*
Y3592274D02*
D03*
Y3467274D02*
D03*
Y3342274D02*
D03*
Y3217274D02*
D03*
Y3092274D02*
D03*
X2766297Y2967971D02*
D03*
X2826653Y2858508D02*
D03*
X2925903Y2782517D02*
D03*
X3047546Y2753743D02*
D03*
X3172544Y2753116D02*
D03*
X3297544D02*
D03*
X3422544D02*
D03*
X3547544D02*
D03*
X3672544D02*
D03*
X3797544D02*
D03*
X3922544D02*
D03*
X4047544D02*
D03*
X4172544D02*
D03*
X4297544D02*
D03*
X4422544D02*
D03*
X4547544D02*
D03*
X4672544D02*
D03*
X4797544D02*
D03*
X4922544D02*
D03*
X5047544D02*
D03*
X5172544D02*
D03*
X5297544D02*
D03*
X5422544D02*
D03*
X5547544D02*
D03*
X5672544D02*
D03*
X5797544D02*
D03*
X5922544D02*
D03*
X6047544D02*
D03*
X6172544Y2753116D02*
D03*
X6297544D02*
D03*
X6422544D02*
D03*
X6547544D02*
D03*
X6672544D02*
D03*
X6797544D02*
D03*
X6922544D02*
D03*
X7047544D02*
D03*
X7172544D02*
D03*
X7297544D02*
D03*
X7422544D02*
D03*
X7547544D02*
D03*
X7672544D02*
D03*
X7797544D02*
D03*
X7922544D02*
D03*
X8047544D02*
D03*
X8172544D02*
D03*
X8297544D02*
D03*
X8422544D02*
D03*
X8547544D02*
D03*
X8672544D02*
D03*
X8797544D02*
D03*
X8922544D02*
D03*
X9047544Y2753116D02*
D03*
X9172544D02*
D03*
X9297544D02*
D03*
X9422544D02*
D03*
X9547544D02*
D03*
X9672544D02*
D03*
X9797544D02*
D03*
X9922544D02*
D03*
X10047544D02*
D03*
X10172544D02*
D03*
X10297544D02*
D03*
X10422544D02*
D03*
X10547544D02*
D03*
X10672544D02*
D03*
X10797544D02*
D03*
X10922544D02*
D03*
X11047544D02*
D03*
X11172544D02*
D03*
X11297544D02*
D03*
X11422544D02*
D03*
X11547544D02*
D03*
X11672544D02*
D03*
X11797544D02*
D03*
X11922544Y2753116D02*
D03*
X12047544D02*
D03*
X12172544D02*
D03*
X12297544D02*
D03*
X12422544D02*
D03*
X12797544D02*
D03*
X12922543D02*
D03*
X13047543D02*
D03*
X13172543D02*
D03*
X13297543D02*
D03*
X13422543D02*
D03*
X13547543D02*
D03*
X13672543D02*
D03*
X13797543D02*
D03*
X13922543D02*
D03*
X14047543D02*
D03*
X14172543D02*
D03*
X14297543D02*
D03*
X14422543D02*
D03*
X14547543D02*
D03*
X14672543D02*
D03*
X14797543Y2753117D02*
D03*
X14922543D02*
D03*
X15047543D02*
D03*
X15172543D02*
D03*
X15297543D02*
D03*
X15422543D02*
D03*
X15547543D02*
D03*
X15672543D02*
D03*
X15797543D02*
D03*
X15922543D02*
D03*
X16047543D02*
D03*
X16172543D02*
D03*
X16297543D02*
D03*
X16422543D02*
D03*
X16547545D02*
D03*
X16672545D02*
D03*
X16797545D02*
D03*
X16922545D02*
D03*
X17047545D02*
D03*
X17172525Y2755324D02*
D03*
X17292068Y2791854D02*
D03*
X17386433Y2873831D02*
D03*
X17438396Y2987519D02*
D03*
X17446883Y3112231D02*
D03*
Y3237231D02*
D03*
Y3362231D02*
D03*
Y3487231D02*
D03*
Y3612231D02*
D03*
Y3737231D02*
D03*
Y3862231D02*
D03*
Y3987231D02*
D03*
Y4112231D02*
D03*
Y4237231D02*
D03*
Y4362231D02*
D03*
Y4487231D02*
D03*
Y4612231D02*
D03*
Y4737231D02*
D03*
Y4862231D02*
D03*
Y4987231D02*
D03*
Y5112231D02*
D03*
Y5237231D02*
D03*
Y5362231D02*
D03*
Y5487231D02*
D03*
Y5612231D02*
D03*
Y5737231D02*
D03*
Y5862231D02*
D03*
Y5987231D02*
D03*
Y6112231D02*
D03*
Y6237231D02*
D03*
Y6362231D02*
D03*
Y6487231D02*
D03*
Y6612231D02*
D03*
Y6737231D02*
D03*
Y6862231D02*
D03*
Y6987231D02*
D03*
Y7112231D02*
D03*
Y7237231D02*
D03*
Y7362231D02*
D03*
Y7487231D02*
D03*
Y7612231D02*
D03*
Y7737231D02*
D03*
Y7862231D02*
D03*
Y7987231D02*
D03*
Y8112231D02*
D03*
Y8237231D02*
D03*
Y8362231D02*
D03*
Y8487231D02*
D03*
Y8612231D02*
D03*
Y8737231D02*
D03*
Y8862231D02*
D03*
Y8987231D02*
D03*
Y9112231D02*
D03*
Y9237231D02*
D03*
Y9362231D02*
D03*
Y9487231D02*
D03*
Y9612231D02*
D03*
Y9737231D02*
D03*
Y9862231D02*
D03*
Y9987231D02*
D03*
Y10112231D02*
D03*
Y10237231D02*
D03*
Y10362231D02*
D03*
Y10487231D02*
D03*
Y10612231D02*
D03*
Y10737231D02*
D03*
Y10862231D02*
D03*
Y10987231D02*
D03*
Y11112231D02*
D03*
Y11237231D02*
D03*
Y11362231D02*
D03*
Y11487231D02*
D03*
Y11612231D02*
D03*
Y11737231D02*
D03*
Y11862231D02*
D03*
Y11987231D02*
D03*
Y12112231D02*
D03*
X17432646Y12236417D02*
D03*
X17370471Y12344857D02*
D03*
X17269974Y12419189D02*
D03*
X17147990Y12446487D02*
D03*
D183*
X12783000Y4576000D02*
D03*
Y5084000D02*
D03*
X10104214Y4567213D02*
D03*
Y5075213D02*
D03*
D184*
X11580100Y3630001D02*
D03*
X8901314Y3621213D02*
D03*
D185*
X12768500Y4011001D02*
D03*
Y3884001D02*
D03*
Y3757001D02*
D03*
Y3630001D02*
D03*
Y3503001D02*
D03*
Y3376001D02*
D03*
Y3249001D02*
D03*
X10089714Y3240213D02*
D03*
Y3367213D02*
D03*
Y3494213D02*
D03*
Y3621213D02*
D03*
Y3748213D02*
D03*
Y3875213D02*
D03*
Y4002213D02*
D03*
%TF.MD5,09f5cdf310237c0917ab975e6c252242*%
M02*
