%TF.GenerationSoftware,Altium Limited,Altium Designer,24.2.2 (26)*%
G04 Layer_Color=255*
%FSLAX45Y45*%
%MOMM*%
%TF.SameCoordinates,2C43E8B5-FC8E-40A2-A425-C8743FE8A27F*%
%TF.FilePolarity,Positive*%
%TF.FileFunction,Pads,Bot*%
%TF.Part,Single*%
G01*
G75*
%TA.AperFunction,ComponentPad*%
%ADD84C,1.42240*%
%ADD85R,1.42240X1.42240*%
%ADD86C,1.30000*%
%ADD87R,1.30000X1.30000*%
%ADD88C,1.50000*%
%ADD89C,1.20000*%
%ADD90R,1.42240X1.42240*%
%ADD91R,1.50000X1.50000*%
%ADD92C,1.57500*%
%ADD93C,1.50800*%
%ADD94R,1.50800X1.50800*%
%ADD95C,4.16600*%
%TA.AperFunction,ViaPad*%
%ADD96C,4.00000*%
%ADD97C,8.00000*%
%TA.AperFunction,SMDPad,CuDef*%
%ADD115R,9.91000X8.30000*%
G04:AMPARAMS|DCode=116|XSize=3.93mm|YSize=1.06mm|CornerRadius=0.265mm|HoleSize=0mm|Usage=FLASHONLY|Rotation=180.000|XOffset=0mm|YOffset=0mm|HoleType=Round|Shape=RoundedRectangle|*
%AMROUNDEDRECTD116*
21,1,3.93000,0.53000,0,0,180.0*
21,1,3.40000,1.06000,0,0,180.0*
1,1,0.53000,-1.70000,0.26500*
1,1,0.53000,1.70000,0.26500*
1,1,0.53000,1.70000,-0.26500*
1,1,0.53000,-1.70000,-0.26500*
%
%ADD116ROUNDEDRECTD116*%
%ADD117R,6.60400X10.48000*%
%ADD118R,3.40000X0.90000*%
D84*
X4300000Y11700000D02*
D03*
X10220000Y6100000D02*
D03*
X8648021Y7594002D02*
D03*
Y8084002D02*
D03*
X10218021Y6604002D02*
D03*
Y7094002D02*
D03*
X10218021Y8574002D02*
D03*
X11320000Y8850000D02*
D03*
X14910001Y8860000D02*
D03*
X12889999Y9340000D02*
D03*
X14910001Y9350000D02*
D03*
X11320000Y8360000D02*
D03*
X14720000Y8370000D02*
D03*
D85*
X4300000Y10130000D02*
D03*
D86*
X6182000Y11401000D02*
D03*
Y10893000D02*
D03*
X5928000Y11147000D02*
D03*
X6002395Y11326605D02*
D03*
X6361605D02*
D03*
X6002395Y10967395D02*
D03*
X6361605D02*
D03*
D87*
X6436000Y11147000D02*
D03*
D88*
X10091246Y10538397D02*
D03*
X9911246Y10407620D02*
D03*
X9688754D02*
D03*
X9508754Y10538397D02*
D03*
Y10961603D02*
D03*
X9688754Y11092380D02*
D03*
X10091246Y10961603D02*
D03*
X9911246Y11092380D02*
D03*
X9800000Y10900000D02*
D03*
Y10600000D02*
D03*
X9650000Y10750000D02*
D03*
X9440000D02*
D03*
X10160000D02*
D03*
X9950000D02*
D03*
X3704000Y8114400D02*
D03*
Y7885800D02*
D03*
Y7657200D02*
D03*
Y7428600D02*
D03*
Y7200000D02*
D03*
Y6971400D02*
D03*
Y6742800D02*
D03*
Y6514000D02*
D03*
X3902000Y8457300D02*
D03*
Y8228700D02*
D03*
Y8000100D02*
D03*
Y7771500D02*
D03*
Y7542900D02*
D03*
Y7314300D02*
D03*
Y7085700D02*
D03*
Y6857100D02*
D03*
Y6628500D02*
D03*
X4100000Y8343000D02*
D03*
Y8114400D02*
D03*
Y7885800D02*
D03*
Y7657200D02*
D03*
Y7428600D02*
D03*
Y7200000D02*
D03*
Y6971400D02*
D03*
Y6742800D02*
D03*
D89*
X5748021Y5684003D02*
D03*
Y7374003D02*
D03*
X8038021Y5614002D02*
D03*
X6348021D02*
D03*
X7135997Y7660000D02*
D03*
X5445997D02*
D03*
X5445998Y7960000D02*
D03*
X7135998D02*
D03*
X5445998Y8230001D02*
D03*
X7135998D02*
D03*
X5478021Y5684003D02*
D03*
Y7374003D02*
D03*
X8358021Y7094002D02*
D03*
Y5404002D02*
D03*
X6348021Y6174002D02*
D03*
X8038021D02*
D03*
Y5344002D02*
D03*
X6348021D02*
D03*
X8038021Y5884002D02*
D03*
X6348021D02*
D03*
X12190000Y6220000D02*
D03*
X13880000D02*
D03*
X12190000Y5950000D02*
D03*
X13880000D02*
D03*
X11320000Y6290000D02*
D03*
Y7980000D02*
D03*
X12190000Y6780000D02*
D03*
X13880000D02*
D03*
X14200000Y7700000D02*
D03*
Y6010000D02*
D03*
X11590000Y6290000D02*
D03*
Y7980000D02*
D03*
X10770000Y8890000D02*
D03*
Y7200000D02*
D03*
X11040000Y8890000D02*
D03*
Y7200000D02*
D03*
X10470000Y7200000D02*
D03*
Y8890000D02*
D03*
X13880000Y6490000D02*
D03*
X12190000D02*
D03*
D90*
X8650000Y6100000D02*
D03*
X10218021Y7594002D02*
D03*
Y8084002D02*
D03*
X8648021Y6604002D02*
D03*
Y7094002D02*
D03*
X8648021Y8574002D02*
D03*
X12889999Y8850000D02*
D03*
X13339999Y8860000D02*
D03*
X11320000Y9340000D02*
D03*
X13339999Y9350000D02*
D03*
X12889999Y8360000D02*
D03*
X13150000Y8370000D02*
D03*
D91*
X3704000Y8343000D02*
D03*
D92*
X3902000Y9145000D02*
D03*
Y5813000D02*
D03*
D93*
X16158000Y7911000D02*
D03*
Y7637000D02*
D03*
Y7363000D02*
D03*
Y7089000D02*
D03*
X16442000Y8048000D02*
D03*
Y7774000D02*
D03*
Y7500000D02*
D03*
Y7226000D02*
D03*
D94*
Y6952000D02*
D03*
D95*
X16300000Y8749500D02*
D03*
Y6250500D02*
D03*
D96*
X6978470Y10353194D02*
D03*
X5382000Y11947000D02*
D03*
D97*
X17100000Y12100000D02*
D03*
Y3100000D02*
D03*
X3100000D02*
D03*
Y12100000D02*
D03*
D115*
X11816000Y4830000D02*
D03*
X9137214Y4821213D02*
D03*
D116*
X12783000Y4576000D02*
D03*
Y5084000D02*
D03*
X10104214Y4567213D02*
D03*
Y5075213D02*
D03*
D117*
X11580100Y3630001D02*
D03*
X8901314Y3621213D02*
D03*
D118*
X12768500Y4011001D02*
D03*
Y3884001D02*
D03*
Y3757001D02*
D03*
Y3630001D02*
D03*
Y3503001D02*
D03*
Y3376001D02*
D03*
Y3249001D02*
D03*
X10089714Y3240213D02*
D03*
Y3367213D02*
D03*
Y3494213D02*
D03*
Y3621213D02*
D03*
Y3748213D02*
D03*
Y3875213D02*
D03*
Y4002213D02*
D03*
%TF.MD5,c608067c95fbedc5fd0299642ed21855*%
M02*
