%TF.GenerationSoftware,Altium Limited,Altium Designer,24.2.2 (26)*%
G04 Layer_Color=2752767*
%FSLAX45Y45*%
%MOMM*%
%TF.SameCoordinates,2C43E8B5-FC8E-40A2-A425-C8743FE8A27F*%
%TF.FilePolarity,Positive*%
%TF.FileFunction,Drawing*%
%TF.Part,Single*%
G01*
G75*
%TA.AperFunction,NonConductor*%
%ADD124C,0.12700*%
%ADD210C,0.16933*%
D124*
X4274600Y11674600D02*
Y11649200D01*
X4325400D01*
Y11674600D01*
X4350800D01*
Y11725400D01*
X4325400D01*
Y11750800D01*
X4274600D01*
Y11725400D01*
X4249200D01*
Y11674600D01*
X4274600D01*
Y10104600D02*
Y10079200D01*
X4325400D01*
Y10104600D01*
X4350800D01*
Y10155400D01*
X4325400D01*
Y10180800D01*
X4274600D01*
Y10155400D01*
X4249200D01*
Y10104600D01*
X4274600D01*
X6182000Y11350200D02*
X6207400Y11375600D01*
X6232800D01*
X6207400Y11401000D01*
X6232800Y11426400D01*
X6207400D01*
X6182000Y11451800D01*
X6156600Y11426400D01*
X6131200D01*
X6156600Y11401000D01*
X6131200Y11375600D01*
X6156600D01*
X6182000Y11350200D01*
Y10842200D02*
X6207400Y10867600D01*
X6232800D01*
X6207400Y10893000D01*
X6232800Y10918400D01*
X6207400D01*
X6182000Y10943800D01*
X6156600Y10918400D01*
X6131200D01*
X6156600Y10893000D01*
X6131200Y10867600D01*
X6156600D01*
X6182000Y10842200D01*
X5928000Y11096200D02*
X5953400Y11121600D01*
X5978800D01*
X5953400Y11147000D01*
X5978800Y11172400D01*
X5953400D01*
X5928000Y11197800D01*
X5902600Y11172400D01*
X5877200D01*
X5902600Y11147000D01*
X5877200Y11121600D01*
X5902600D01*
X5928000Y11096200D01*
X6436000D02*
X6461400Y11121600D01*
X6486800D01*
X6461400Y11147000D01*
X6486800Y11172400D01*
X6461400D01*
X6436000Y11197800D01*
X6410600Y11172400D01*
X6385200D01*
X6410600Y11147000D01*
X6385200Y11121600D01*
X6410600D01*
X6436000Y11096200D01*
X6002395Y11275805D02*
X6027795Y11301205D01*
X6053195D01*
X6027795Y11326605D01*
X6053195Y11352005D01*
X6027795D01*
X6002395Y11377405D01*
X5976995Y11352005D01*
X5951595D01*
X5976995Y11326605D01*
X5951595Y11301205D01*
X5976995D01*
X6002395Y11275805D01*
X6361605D02*
X6387005Y11301205D01*
X6412405D01*
X6387005Y11326605D01*
X6412405Y11352005D01*
X6387005D01*
X6361605Y11377405D01*
X6336205Y11352005D01*
X6310805D01*
X6336205Y11326605D01*
X6310805Y11301205D01*
X6336205D01*
X6361605Y11275805D01*
X6002395Y10916595D02*
X6027795Y10941995D01*
X6053195D01*
X6027795Y10967395D01*
X6053195Y10992795D01*
X6027795D01*
X6002395Y11018195D01*
X5976995Y10992795D01*
X5951595D01*
X5976995Y10967395D01*
X5951595Y10941995D01*
X5976995D01*
X6002395Y10916595D01*
X6361605D02*
X6387005Y10941995D01*
X6412405D01*
X6387005Y10967395D01*
X6412405Y10992795D01*
X6387005D01*
X6361605Y11018195D01*
X6336205Y10992795D01*
X6310805D01*
X6336205Y10967395D01*
X6310805Y10941995D01*
X6336205D01*
X6361605Y10916595D01*
X10040446Y10487597D02*
Y10589197D01*
X10142046D01*
Y10487597D01*
X10040446D01*
X9860446Y10356820D02*
Y10458420D01*
X9962046D01*
Y10356820D01*
X9860446D01*
X9637954D02*
Y10458420D01*
X9739554D01*
Y10356820D01*
X9637954D01*
X9457954Y10487597D02*
Y10589197D01*
X9559554D01*
Y10487597D01*
X9457954D01*
Y10910803D02*
Y11012403D01*
X9559554D01*
Y10910803D01*
X9457954D01*
X9637954Y11041580D02*
Y11143180D01*
X9739554D01*
Y11041580D01*
X9637954D01*
X10040446Y10910803D02*
Y11012403D01*
X10142046D01*
Y10910803D01*
X10040446D01*
X9860446Y11041580D02*
Y11143180D01*
X9962046D01*
Y11041580D01*
X9860446D01*
X9749200Y10849200D02*
Y10950800D01*
X9850800D01*
Y10849200D01*
X9749200D01*
Y10549200D02*
Y10650800D01*
X9850800D01*
Y10549200D01*
X9749200D01*
X9599200Y10699200D02*
Y10800800D01*
X9700800D01*
Y10699200D01*
X9599200D01*
X9389200D02*
Y10800800D01*
X9490800D01*
Y10699200D01*
X9389200D01*
X10109200D02*
Y10800800D01*
X10210800D01*
Y10699200D01*
X10109200D01*
X9899200D02*
Y10800800D01*
X10000800D01*
Y10699200D01*
X9899200D01*
X5748021Y5633203D02*
X5773421Y5658603D01*
X5798821D01*
X5773421Y5684003D01*
X5798821Y5709403D01*
X5773421D01*
X5748021Y5734803D01*
X5722621Y5709403D01*
X5697221D01*
X5722621Y5684003D01*
X5697221Y5658603D01*
X5722621D01*
X5748021Y5633203D01*
Y7323203D02*
X5773421Y7348603D01*
X5798821D01*
X5773421Y7374003D01*
X5798821Y7399403D01*
X5773421D01*
X5748021Y7424803D01*
X5722621Y7399403D01*
X5697221D01*
X5722621Y7374003D01*
X5697221Y7348603D01*
X5722621D01*
X5748021Y7323203D01*
X8038021Y5563202D02*
X8063421Y5588602D01*
X8088821D01*
X8063421Y5614002D01*
X8088821Y5639402D01*
X8063421D01*
X8038021Y5664802D01*
X8012621Y5639402D01*
X7987221D01*
X8012621Y5614002D01*
X7987221Y5588602D01*
X8012621D01*
X8038021Y5563202D01*
X6348021D02*
X6373421Y5588602D01*
X6398821D01*
X6373421Y5614002D01*
X6398821Y5639402D01*
X6373421D01*
X6348021Y5664802D01*
X6322621Y5639402D01*
X6297221D01*
X6322621Y5614002D01*
X6297221Y5588602D01*
X6322621D01*
X6348021Y5563202D01*
X10194600Y6074600D02*
Y6049200D01*
X10245400D01*
Y6074600D01*
X10270800D01*
Y6125400D01*
X10245400D01*
Y6150800D01*
X10194600D01*
Y6125400D01*
X10169200D01*
Y6074600D01*
X10194600D01*
X8624600D02*
Y6049200D01*
X8675400D01*
Y6074600D01*
X8700800D01*
Y6125400D01*
X8675400D01*
Y6150800D01*
X8624600D01*
Y6125400D01*
X8599200D01*
Y6074600D01*
X8624600D01*
X8622621Y7568602D02*
Y7543202D01*
X8673421D01*
Y7568602D01*
X8698821D01*
Y7619402D01*
X8673421D01*
Y7644802D01*
X8622621D01*
Y7619402D01*
X8597221D01*
Y7568602D01*
X8622621D01*
X10192621D02*
Y7543202D01*
X10243421D01*
Y7568602D01*
X10268821D01*
Y7619402D01*
X10243421D01*
Y7644802D01*
X10192621D01*
Y7619402D01*
X10167221D01*
Y7568602D01*
X10192621D01*
X8622621Y8058602D02*
Y8033202D01*
X8673421D01*
Y8058602D01*
X8698821D01*
Y8109402D01*
X8673421D01*
Y8134802D01*
X8622621D01*
Y8109402D01*
X8597221D01*
Y8058602D01*
X8622621D01*
X10192621D02*
Y8033202D01*
X10243421D01*
Y8058602D01*
X10268821D01*
Y8109402D01*
X10243421D01*
Y8134802D01*
X10192621D01*
Y8109402D01*
X10167221D01*
Y8058602D01*
X10192621D01*
X10192621Y6578602D02*
Y6553202D01*
X10243421D01*
Y6578602D01*
X10268821D01*
Y6629402D01*
X10243421D01*
Y6654802D01*
X10192621D01*
Y6629402D01*
X10167221D01*
Y6578602D01*
X10192621D01*
X8622621D02*
Y6553202D01*
X8673421D01*
Y6578602D01*
X8698821D01*
Y6629402D01*
X8673421D01*
Y6654802D01*
X8622621D01*
Y6629402D01*
X8597221D01*
Y6578602D01*
X8622621D01*
X10192621Y7068602D02*
Y7043202D01*
X10243421D01*
Y7068602D01*
X10268821D01*
Y7119402D01*
X10243421D01*
Y7144802D01*
X10192621D01*
Y7119402D01*
X10167221D01*
Y7068602D01*
X10192621D01*
X8622621D02*
Y7043202D01*
X8673421D01*
Y7068602D01*
X8698821D01*
Y7119402D01*
X8673421D01*
Y7144802D01*
X8622621D01*
Y7119402D01*
X8597221D01*
Y7068602D01*
X8622621D01*
X10192621Y8548602D02*
Y8523202D01*
X10243421D01*
Y8548602D01*
X10268821D01*
Y8599402D01*
X10243421D01*
Y8624802D01*
X10192621D01*
Y8599402D01*
X10167221D01*
Y8548602D01*
X10192621D01*
X8622621D02*
Y8523202D01*
X8673421D01*
Y8548602D01*
X8698821D01*
Y8599402D01*
X8673421D01*
Y8624802D01*
X8622621D01*
Y8599402D01*
X8597221D01*
Y8548602D01*
X8622621D01*
X7135997Y7609200D02*
X7161397Y7634600D01*
X7186797D01*
X7161397Y7660000D01*
X7186797Y7685400D01*
X7161397D01*
X7135997Y7710800D01*
X7110597Y7685400D01*
X7085197D01*
X7110597Y7660000D01*
X7085197Y7634600D01*
X7110597D01*
X7135997Y7609200D01*
X5445997D02*
X5471397Y7634600D01*
X5496797D01*
X5471397Y7660000D01*
X5496797Y7685400D01*
X5471397D01*
X5445997Y7710800D01*
X5420597Y7685400D01*
X5395197D01*
X5420597Y7660000D01*
X5395197Y7634600D01*
X5420597D01*
X5445997Y7609200D01*
X5445998Y7909200D02*
X5471398Y7934600D01*
X5496798D01*
X5471398Y7960000D01*
X5496798Y7985400D01*
X5471398D01*
X5445998Y8010800D01*
X5420598Y7985400D01*
X5395198D01*
X5420598Y7960000D01*
X5395198Y7934600D01*
X5420598D01*
X5445998Y7909200D01*
X7135998D02*
X7161398Y7934600D01*
X7186798D01*
X7161398Y7960000D01*
X7186798Y7985400D01*
X7161398D01*
X7135998Y8010800D01*
X7110598Y7985400D01*
X7085198D01*
X7110598Y7960000D01*
X7085198Y7934600D01*
X7110598D01*
X7135998Y7909200D01*
X5445998Y8179201D02*
X5471398Y8204601D01*
X5496798D01*
X5471398Y8230001D01*
X5496798Y8255401D01*
X5471398D01*
X5445998Y8280801D01*
X5420598Y8255401D01*
X5395198D01*
X5420598Y8230001D01*
X5395198Y8204601D01*
X5420598D01*
X5445998Y8179201D01*
X7135998D02*
X7161398Y8204601D01*
X7186798D01*
X7161398Y8230001D01*
X7186798Y8255401D01*
X7161398D01*
X7135998Y8280801D01*
X7110598Y8255401D01*
X7085198D01*
X7110598Y8230001D01*
X7085198Y8204601D01*
X7110598D01*
X7135998Y8179201D01*
X5478021Y5633203D02*
X5503421Y5658603D01*
X5528821D01*
X5503421Y5684003D01*
X5528821Y5709403D01*
X5503421D01*
X5478021Y5734803D01*
X5452621Y5709403D01*
X5427221D01*
X5452621Y5684003D01*
X5427221Y5658603D01*
X5452621D01*
X5478021Y5633203D01*
Y7323203D02*
X5503421Y7348603D01*
X5528821D01*
X5503421Y7374003D01*
X5528821Y7399403D01*
X5503421D01*
X5478021Y7424803D01*
X5452621Y7399403D01*
X5427221D01*
X5452621Y7374003D01*
X5427221Y7348603D01*
X5452621D01*
X5478021Y7323203D01*
X8358021Y7043202D02*
X8383421Y7068602D01*
X8408821D01*
X8383421Y7094002D01*
X8408821Y7119402D01*
X8383421D01*
X8358021Y7144802D01*
X8332621Y7119402D01*
X8307221D01*
X8332621Y7094002D01*
X8307221Y7068602D01*
X8332621D01*
X8358021Y7043202D01*
Y5353202D02*
X8383421Y5378602D01*
X8408821D01*
X8383421Y5404002D01*
X8408821Y5429402D01*
X8383421D01*
X8358021Y5454802D01*
X8332621Y5429402D01*
X8307221D01*
X8332621Y5404002D01*
X8307221Y5378602D01*
X8332621D01*
X8358021Y5353202D01*
X6348021Y6123202D02*
X6373421Y6148602D01*
X6398821D01*
X6373421Y6174002D01*
X6398821Y6199402D01*
X6373421D01*
X6348021Y6224802D01*
X6322621Y6199402D01*
X6297221D01*
X6322621Y6174002D01*
X6297221Y6148602D01*
X6322621D01*
X6348021Y6123202D01*
X8038021D02*
X8063421Y6148602D01*
X8088821D01*
X8063421Y6174002D01*
X8088821Y6199402D01*
X8063421D01*
X8038021Y6224802D01*
X8012621Y6199402D01*
X7987221D01*
X8012621Y6174002D01*
X7987221Y6148602D01*
X8012621D01*
X8038021Y6123202D01*
Y5293202D02*
X8063421Y5318602D01*
X8088821D01*
X8063421Y5344002D01*
X8088821Y5369402D01*
X8063421D01*
X8038021Y5394802D01*
X8012621Y5369402D01*
X7987221D01*
X8012621Y5344002D01*
X7987221Y5318602D01*
X8012621D01*
X8038021Y5293202D01*
X6348021D02*
X6373421Y5318602D01*
X6398821D01*
X6373421Y5344002D01*
X6398821Y5369402D01*
X6373421D01*
X6348021Y5394802D01*
X6322621Y5369402D01*
X6297221D01*
X6322621Y5344002D01*
X6297221Y5318602D01*
X6322621D01*
X6348021Y5293202D01*
X8038021Y5833202D02*
X8063421Y5858602D01*
X8088821D01*
X8063421Y5884002D01*
X8088821Y5909402D01*
X8063421D01*
X8038021Y5934802D01*
X8012621Y5909402D01*
X7987221D01*
X8012621Y5884002D01*
X7987221Y5858602D01*
X8012621D01*
X8038021Y5833202D01*
X6348021D02*
X6373421Y5858602D01*
X6398821D01*
X6373421Y5884002D01*
X6398821Y5909402D01*
X6373421D01*
X6348021Y5934802D01*
X6322621Y5909402D01*
X6297221D01*
X6322621Y5884002D01*
X6297221Y5858602D01*
X6322621D01*
X6348021Y5833202D01*
X12190000Y6169200D02*
X12215400Y6194600D01*
X12240800D01*
X12215400Y6220000D01*
X12240800Y6245400D01*
X12215400D01*
X12190000Y6270800D01*
X12164600Y6245400D01*
X12139200D01*
X12164600Y6220000D01*
X12139200Y6194600D01*
X12164600D01*
X12190000Y6169200D01*
X13880000D02*
X13905400Y6194600D01*
X13930800D01*
X13905400Y6220000D01*
X13930800Y6245400D01*
X13905400D01*
X13880000Y6270800D01*
X13854601Y6245400D01*
X13829201D01*
X13854601Y6220000D01*
X13829201Y6194600D01*
X13854601D01*
X13880000Y6169200D01*
X12190000Y5899200D02*
X12215400Y5924600D01*
X12240800D01*
X12215400Y5950000D01*
X12240800Y5975400D01*
X12215400D01*
X12190000Y6000800D01*
X12164600Y5975400D01*
X12139200D01*
X12164600Y5950000D01*
X12139200Y5924600D01*
X12164600D01*
X12190000Y5899200D01*
X13880000D02*
X13905400Y5924600D01*
X13930800D01*
X13905400Y5950000D01*
X13930800Y5975400D01*
X13905400D01*
X13880000Y6000800D01*
X13854601Y5975400D01*
X13829201D01*
X13854601Y5950000D01*
X13829201Y5924600D01*
X13854601D01*
X13880000Y5899200D01*
X3653200Y8292200D02*
Y8393800D01*
X3754800D01*
Y8292200D01*
X3653200D01*
Y8063600D02*
Y8165200D01*
X3754800D01*
Y8063600D01*
X3653200D01*
Y7835000D02*
Y7936600D01*
X3754800D01*
Y7835000D01*
X3653200D01*
Y7606400D02*
Y7708000D01*
X3754800D01*
Y7606400D01*
X3653200D01*
Y7377800D02*
Y7479400D01*
X3754800D01*
Y7377800D01*
X3653200D01*
Y7149200D02*
Y7250800D01*
X3754800D01*
Y7149200D01*
X3653200D01*
Y6920600D02*
Y7022200D01*
X3754800D01*
Y6920600D01*
X3653200D01*
Y6692000D02*
Y6793600D01*
X3754800D01*
Y6692000D01*
X3653200D01*
Y6463200D02*
Y6564800D01*
X3754800D01*
Y6463200D01*
X3653200D01*
X3851200Y8406500D02*
Y8508100D01*
X3952800D01*
Y8406500D01*
X3851200D01*
Y8177900D02*
Y8279500D01*
X3952800D01*
Y8177900D01*
X3851200D01*
Y7949300D02*
Y8050900D01*
X3952800D01*
Y7949300D01*
X3851200D01*
Y7720700D02*
Y7822300D01*
X3952800D01*
Y7720700D01*
X3851200D01*
Y7492100D02*
Y7593700D01*
X3952800D01*
Y7492100D01*
X3851200D01*
Y7263500D02*
Y7365100D01*
X3952800D01*
Y7263500D01*
X3851200D01*
Y7034900D02*
Y7136500D01*
X3952800D01*
Y7034900D01*
X3851200D01*
Y6806300D02*
Y6907900D01*
X3952800D01*
Y6806300D01*
X3851200D01*
Y6577700D02*
Y6679300D01*
X3952800D01*
Y6577700D01*
X3851200D01*
X4049200Y8292200D02*
Y8393800D01*
X4150800D01*
Y8292200D01*
X4049200D01*
Y8063600D02*
Y8165200D01*
X4150800D01*
Y8063600D01*
X4049200D01*
Y7835000D02*
Y7936600D01*
X4150800D01*
Y7835000D01*
X4049200D01*
Y7606400D02*
Y7708000D01*
X4150800D01*
Y7606400D01*
X4049200D01*
Y7377800D02*
Y7479400D01*
X4150800D01*
Y7377800D01*
X4049200D01*
Y7149200D02*
Y7250800D01*
X4150800D01*
Y7149200D01*
X4049200D01*
Y6920600D02*
Y7022200D01*
X4150800D01*
Y6920600D01*
X4049200D01*
Y6692000D02*
Y6793600D01*
X4150800D01*
Y6692000D01*
X4049200D01*
X11320000Y6239200D02*
X11345400Y6264600D01*
X11370800D01*
X11345400Y6290000D01*
X11370800Y6315400D01*
X11345400D01*
X11320000Y6340800D01*
X11294600Y6315400D01*
X11269200D01*
X11294600Y6290000D01*
X11269200Y6264600D01*
X11294600D01*
X11320000Y6239200D01*
Y7929200D02*
X11345400Y7954600D01*
X11370800D01*
X11345400Y7980000D01*
X11370800Y8005400D01*
X11345400D01*
X11320000Y8030800D01*
X11294600Y8005400D01*
X11269200D01*
X11294600Y7980000D01*
X11269200Y7954600D01*
X11294600D01*
X11320000Y7929200D01*
X11294600Y8824600D02*
Y8799200D01*
X11345400D01*
Y8824600D01*
X11370800D01*
Y8875400D01*
X11345400D01*
Y8900800D01*
X11294600D01*
Y8875400D01*
X11269200D01*
Y8824600D01*
X11294600D01*
X12864600D02*
Y8799200D01*
X12915401D01*
Y8824600D01*
X12940800D01*
Y8875400D01*
X12915401D01*
Y8900800D01*
X12864600D01*
Y8875400D01*
X12839200D01*
Y8824600D01*
X12864600D01*
X12190000Y6729200D02*
X12215400Y6754600D01*
X12240800D01*
X12215400Y6780000D01*
X12240800Y6805400D01*
X12215400D01*
X12190000Y6830800D01*
X12164600Y6805400D01*
X12139200D01*
X12164600Y6780000D01*
X12139200Y6754600D01*
X12164600D01*
X12190000Y6729200D01*
X13880000D02*
X13905400Y6754600D01*
X13930800D01*
X13905400Y6780000D01*
X13930800Y6805400D01*
X13905400D01*
X13880000Y6830800D01*
X13854601Y6805400D01*
X13829201D01*
X13854601Y6780000D01*
X13829201Y6754600D01*
X13854601D01*
X13880000Y6729200D01*
X14884599Y8834600D02*
Y8809200D01*
X14935400D01*
Y8834600D01*
X14960800D01*
Y8885400D01*
X14935400D01*
Y8910800D01*
X14884599D01*
Y8885400D01*
X14859200D01*
Y8834600D01*
X14884599D01*
X13314600D02*
Y8809200D01*
X13365401D01*
Y8834600D01*
X13390800D01*
Y8885400D01*
X13365401D01*
Y8910800D01*
X13314600D01*
Y8885400D01*
X13289200D01*
Y8834600D01*
X13314600D01*
X12864600Y9314600D02*
Y9289200D01*
X12915401D01*
Y9314600D01*
X12940800D01*
Y9365400D01*
X12915401D01*
Y9390800D01*
X12864600D01*
Y9365400D01*
X12839200D01*
Y9314600D01*
X12864600D01*
X11294600D02*
Y9289200D01*
X11345400D01*
Y9314600D01*
X11370800D01*
Y9365400D01*
X11345400D01*
Y9390800D01*
X11294600D01*
Y9365400D01*
X11269200D01*
Y9314600D01*
X11294600D01*
X14884599Y9324600D02*
Y9299200D01*
X14935400D01*
Y9324600D01*
X14960800D01*
Y9375400D01*
X14935400D01*
Y9400800D01*
X14884599D01*
Y9375400D01*
X14859200D01*
Y9324600D01*
X14884599D01*
X13314600D02*
Y9299200D01*
X13365401D01*
Y9324600D01*
X13390800D01*
Y9375400D01*
X13365401D01*
Y9400800D01*
X13314600D01*
Y9375400D01*
X13289200D01*
Y9324600D01*
X13314600D01*
X14200000Y7649200D02*
X14225400Y7674600D01*
X14250800D01*
X14225400Y7700000D01*
X14250800Y7725400D01*
X14225400D01*
X14200000Y7750800D01*
X14174600Y7725400D01*
X14149200D01*
X14174600Y7700000D01*
X14149200Y7674600D01*
X14174600D01*
X14200000Y7649200D01*
Y5959200D02*
X14225400Y5984600D01*
X14250800D01*
X14225400Y6010000D01*
X14250800Y6035400D01*
X14225400D01*
X14200000Y6060800D01*
X14174600Y6035400D01*
X14149200D01*
X14174600Y6010000D01*
X14149200Y5984600D01*
X14174600D01*
X14200000Y5959200D01*
X11590000Y6239200D02*
X11615400Y6264600D01*
X11640800D01*
X11615400Y6290000D01*
X11640800Y6315400D01*
X11615400D01*
X11590000Y6340800D01*
X11564600Y6315400D01*
X11539200D01*
X11564600Y6290000D01*
X11539200Y6264600D01*
X11564600D01*
X11590000Y6239200D01*
Y7929200D02*
X11615400Y7954600D01*
X11640800D01*
X11615400Y7980000D01*
X11640800Y8005400D01*
X11615400D01*
X11590000Y8030800D01*
X11564600Y8005400D01*
X11539200D01*
X11564600Y7980000D01*
X11539200Y7954600D01*
X11564600D01*
X11590000Y7929200D01*
X10770000Y8839200D02*
X10795400Y8864600D01*
X10820800D01*
X10795400Y8890000D01*
X10820800Y8915400D01*
X10795400D01*
X10770000Y8940800D01*
X10744600Y8915400D01*
X10719200D01*
X10744600Y8890000D01*
X10719200Y8864600D01*
X10744600D01*
X10770000Y8839200D01*
Y7149200D02*
X10795400Y7174600D01*
X10820800D01*
X10795400Y7200000D01*
X10820800Y7225400D01*
X10795400D01*
X10770000Y7250800D01*
X10744600Y7225400D01*
X10719200D01*
X10744600Y7200000D01*
X10719200Y7174600D01*
X10744600D01*
X10770000Y7149200D01*
X11040000Y8839200D02*
X11065400Y8864600D01*
X11090800D01*
X11065400Y8890000D01*
X11090800Y8915400D01*
X11065400D01*
X11040000Y8940800D01*
X11014600Y8915400D01*
X10989200D01*
X11014600Y8890000D01*
X10989200Y8864600D01*
X11014600D01*
X11040000Y8839200D01*
Y7149200D02*
X11065400Y7174600D01*
X11090800D01*
X11065400Y7200000D01*
X11090800Y7225400D01*
X11065400D01*
X11040000Y7250800D01*
X11014600Y7225400D01*
X10989200D01*
X11014600Y7200000D01*
X10989200Y7174600D01*
X11014600D01*
X11040000Y7149200D01*
X11294600Y8334600D02*
Y8309200D01*
X11345400D01*
Y8334600D01*
X11370800D01*
Y8385400D01*
X11345400D01*
Y8410800D01*
X11294600D01*
Y8385400D01*
X11269200D01*
Y8334600D01*
X11294600D01*
X12864600D02*
Y8309200D01*
X12915401D01*
Y8334600D01*
X12940800D01*
Y8385400D01*
X12915401D01*
Y8410800D01*
X12864600D01*
Y8385400D01*
X12839200D01*
Y8334600D01*
X12864600D01*
X10470000Y7149200D02*
X10495400Y7174600D01*
X10520800D01*
X10495400Y7200000D01*
X10520800Y7225400D01*
X10495400D01*
X10470000Y7250800D01*
X10444600Y7225400D01*
X10419200D01*
X10444600Y7200000D01*
X10419200Y7174600D01*
X10444600D01*
X10470000Y7149200D01*
Y8839200D02*
X10495400Y8864600D01*
X10520800D01*
X10495400Y8890000D01*
X10520800Y8915400D01*
X10495400D01*
X10470000Y8940800D01*
X10444600Y8915400D01*
X10419200D01*
X10444600Y8890000D01*
X10419200Y8864600D01*
X10444600D01*
X10470000Y8839200D01*
X14694600Y8344600D02*
Y8319200D01*
X14745399D01*
Y8344600D01*
X14770799D01*
Y8395400D01*
X14745399D01*
Y8420800D01*
X14694600D01*
Y8395400D01*
X14669200D01*
Y8344600D01*
X14694600D01*
X13124600D02*
Y8319200D01*
X13175400D01*
Y8344600D01*
X13200800D01*
Y8395400D01*
X13175400D01*
Y8420800D01*
X13124600D01*
Y8395400D01*
X13099200D01*
Y8344600D01*
X13124600D01*
X13880000Y6439200D02*
X13905400Y6464600D01*
X13930800D01*
X13905400Y6490000D01*
X13930800Y6515400D01*
X13905400D01*
X13880000Y6540800D01*
X13854601Y6515400D01*
X13829201D01*
X13854601Y6490000D01*
X13829201Y6464600D01*
X13854601D01*
X13880000Y6439200D01*
X12190000D02*
X12215400Y6464600D01*
X12240800D01*
X12215400Y6490000D01*
X12240800Y6515400D01*
X12215400D01*
X12190000Y6540800D01*
X12164600Y6515400D01*
X12139200D01*
X12164600Y6490000D01*
X12139200Y6464600D01*
X12164600D01*
X12190000Y6439200D01*
X16107201Y7860200D02*
Y7961800D01*
X16208800D01*
Y7860200D01*
X16107201D01*
Y7586200D02*
Y7687800D01*
X16208800D01*
Y7586200D01*
X16107201D01*
Y7312200D02*
Y7413800D01*
X16208800D01*
Y7312200D01*
X16107201D01*
Y7038200D02*
Y7139800D01*
X16208800D01*
Y7038200D01*
X16107201D01*
X16391200Y7997200D02*
Y8098800D01*
X16492799D01*
Y7997200D01*
X16391200D01*
Y7723200D02*
Y7824800D01*
X16492799D01*
Y7723200D01*
X16391200D01*
Y7449200D02*
Y7550800D01*
X16492799D01*
Y7449200D01*
X16391200D01*
Y7175200D02*
Y7276800D01*
X16492799D01*
Y7175200D01*
X16391200D01*
Y6901200D02*
Y7002800D01*
X16492799D01*
Y6901200D01*
X16391200D01*
X16249200Y8698700D02*
X16274600Y8749500D01*
X16249200Y8800300D01*
X16300000Y8774900D01*
X16350800Y8800300D01*
X16325400Y8749500D01*
X16350800Y8698700D01*
X16300000Y8724100D01*
X16249200Y8698700D01*
Y6199700D02*
X16274600Y6250500D01*
X16249200Y6301300D01*
X16300000Y6275900D01*
X16350800Y6301300D01*
X16325400Y6250500D01*
X16350800Y6199700D01*
X16300000Y6225100D01*
X16249200Y6199700D01*
X6927670Y10302394D02*
X6953070D01*
X6978470Y10327794D01*
X7003870Y10302394D01*
X7029270D01*
Y10327794D01*
X7003870Y10353194D01*
X7029270Y10378594D01*
Y10403994D01*
X7003870D01*
X6978470Y10378594D01*
X6953070Y10403994D01*
X6927670D01*
Y10378594D01*
X6953070Y10353194D01*
X6927670Y10327794D01*
Y10302394D01*
X5331200Y11896200D02*
X5356600D01*
X5382000Y11921600D01*
X5407400Y11896200D01*
X5432800D01*
Y11921600D01*
X5407400Y11947000D01*
X5432800Y11972400D01*
Y11997800D01*
X5407400D01*
X5382000Y11972400D01*
X5356600Y11997800D01*
X5331200D01*
Y11972400D01*
X5356600Y11947000D01*
X5331200Y11921600D01*
Y11896200D01*
X17049200Y12100000D02*
X17100000Y12150800D01*
X17150800Y12100000D01*
X17100000Y12049200D01*
X17049200Y12100000D01*
Y3100000D02*
X17100000Y3150800D01*
X17150800Y3100000D01*
X17100000Y3049200D01*
X17049200Y3100000D01*
X3049200D02*
X3100000Y3150800D01*
X3150800Y3100000D01*
X3100000Y3049200D01*
X3049200Y3100000D01*
Y12100000D02*
X3100000Y12150800D01*
X3150800Y12100000D01*
X3100000Y12049200D01*
X3049200Y12100000D01*
X11340000Y11459200D02*
X11289200Y11560800D01*
X11390800D01*
X11340000Y11459200D01*
X11540000D02*
X11489200Y11560800D01*
X11590800D01*
X11540000Y11459200D01*
X11640000D02*
X11589200Y11560800D01*
X11690800D01*
X11640000Y11459200D01*
X11440000D02*
X11389200Y11560800D01*
X11490800D01*
X11440000Y11459200D01*
X11340000Y11379200D02*
X11289200Y11480800D01*
X11390800D01*
X11340000Y11379200D01*
X11440000D02*
X11389200Y11480800D01*
X11490800D01*
X11440000Y11379200D01*
X11540000D02*
X11489200Y11480800D01*
X11590800D01*
X11540000Y11379200D01*
X11640000D02*
X11589200Y11480800D01*
X11690800D01*
X11640000Y11379200D01*
X8850000Y12009200D02*
X8799200Y12110800D01*
X8900800D01*
X8850000Y12009200D01*
X13200000Y9879200D02*
X13149200Y9980800D01*
X13250800D01*
X13200000Y9879200D01*
X14400008Y3849202D02*
X14349208Y3950802D01*
X14450809D01*
X14400008Y3849202D01*
X14450008Y3749202D02*
X14399208Y3850802D01*
X14500809D01*
X14450008Y3749202D01*
X14400008Y3649202D02*
X14349208Y3750802D01*
X14450809D01*
X14400008Y3649202D01*
X14450008Y3549202D02*
X14399208Y3650802D01*
X14500809D01*
X14450008Y3549202D01*
X14400008Y3449202D02*
X14349208Y3550802D01*
X14450809D01*
X14400008Y3449202D01*
X14450008Y3349202D02*
X14399208Y3450802D01*
X14500809D01*
X14450008Y3349202D01*
X14300008Y3849202D02*
X14249208Y3950802D01*
X14350809D01*
X14300008Y3849202D01*
X14350008Y3749202D02*
X14299208Y3850802D01*
X14400809D01*
X14350008Y3749202D01*
X14300008Y3649202D02*
X14249208Y3750802D01*
X14350809D01*
X14300008Y3649202D01*
X14350008Y3549202D02*
X14299208Y3650802D01*
X14400809D01*
X14350008Y3549202D01*
X14300008Y3449202D02*
X14249208Y3550802D01*
X14350809D01*
X14300008Y3449202D01*
X14350008Y3349202D02*
X14299208Y3450802D01*
X14400809D01*
X14350008Y3349202D01*
X14200008Y3849202D02*
X14149208Y3950802D01*
X14250809D01*
X14200008Y3849202D01*
X14250008Y3749202D02*
X14199208Y3850802D01*
X14300809D01*
X14250008Y3749202D01*
X14200008Y3649202D02*
X14149208Y3750802D01*
X14250809D01*
X14200008Y3649202D01*
X14250008Y3549202D02*
X14199208Y3650802D01*
X14300809D01*
X14250008Y3549202D01*
X14200008Y3449202D02*
X14149208Y3550802D01*
X14250809D01*
X14200008Y3449202D01*
X14250008Y3349202D02*
X14199208Y3450802D01*
X14300809D01*
X14250008Y3349202D01*
X14200008Y3249202D02*
X14149208Y3350802D01*
X14250809D01*
X14200008Y3249202D01*
Y3049202D02*
X14149208Y3150802D01*
X14250809D01*
X14200008Y3049202D01*
X14100008Y4249202D02*
X14049208Y4350802D01*
X14150809D01*
X14100008Y4249202D01*
X14150008Y4149202D02*
X14099208Y4250802D01*
X14200809D01*
X14150008Y4149202D01*
X14100008Y4049202D02*
X14049208Y4150802D01*
X14150809D01*
X14100008Y4049202D01*
X14150008Y3949202D02*
X14099208Y4050802D01*
X14200809D01*
X14150008Y3949202D01*
X14100008Y3849202D02*
X14049208Y3950802D01*
X14150809D01*
X14100008Y3849202D01*
X14150008Y3749202D02*
X14099208Y3850802D01*
X14200809D01*
X14150008Y3749202D01*
X14100008Y3649202D02*
X14049208Y3750802D01*
X14150809D01*
X14100008Y3649202D01*
X14150008Y3549202D02*
X14099208Y3650802D01*
X14200809D01*
X14150008Y3549202D01*
X14100008Y3449202D02*
X14049208Y3550802D01*
X14150809D01*
X14100008Y3449202D01*
X14150008Y3349202D02*
X14099208Y3450802D01*
X14200809D01*
X14150008Y3349202D01*
X14100008Y3249202D02*
X14049208Y3350802D01*
X14150809D01*
X14100008Y3249202D01*
X14150008Y3149202D02*
X14099208Y3250802D01*
X14200809D01*
X14150008Y3149202D01*
X14100008Y3049202D02*
X14049208Y3150802D01*
X14150809D01*
X14100008Y3049202D01*
X14050008Y4349202D02*
X13999207Y4450802D01*
X14100807D01*
X14050008Y4349202D01*
X14000008Y4249202D02*
X13949208Y4350802D01*
X14050809D01*
X14000008Y4249202D01*
X14050008Y4149202D02*
X13999207Y4250802D01*
X14100807D01*
X14050008Y4149202D01*
X14000008Y4049202D02*
X13949208Y4150802D01*
X14050809D01*
X14000008Y4049202D01*
X14050008Y3949202D02*
X13999207Y4050802D01*
X14100807D01*
X14050008Y3949202D01*
X14000008Y3849202D02*
X13949208Y3950802D01*
X14050809D01*
X14000008Y3849202D01*
X14050008Y3749202D02*
X13999207Y3850802D01*
X14100807D01*
X14050008Y3749202D01*
X14000008Y3649202D02*
X13949208Y3750802D01*
X14050809D01*
X14000008Y3649202D01*
X14050008Y3549202D02*
X13999207Y3650802D01*
X14100807D01*
X14050008Y3549202D01*
X14000008Y3449202D02*
X13949208Y3550802D01*
X14050809D01*
X14000008Y3449202D01*
X14050008Y3349202D02*
X13999207Y3450802D01*
X14100807D01*
X14050008Y3349202D01*
X14000008Y3249202D02*
X13949208Y3350802D01*
X14050809D01*
X14000008Y3249202D01*
X14050008Y3149202D02*
X13999207Y3250802D01*
X14100807D01*
X14050008Y3149202D01*
X14000008Y3049202D02*
X13949208Y3150802D01*
X14050809D01*
X14000008Y3049202D01*
X13950008Y4349202D02*
X13899207Y4450802D01*
X14000807D01*
X13950008Y4349202D01*
X13900008Y4249202D02*
X13849208Y4350802D01*
X13950809D01*
X13900008Y4249202D01*
X13950008Y4149202D02*
X13899207Y4250802D01*
X14000807D01*
X13950008Y4149202D01*
X13900008Y4049202D02*
X13849208Y4150802D01*
X13950809D01*
X13900008Y4049202D01*
X13950008Y3949202D02*
X13899207Y4050802D01*
X14000807D01*
X13950008Y3949202D01*
X13900008Y3849202D02*
X13849208Y3950802D01*
X13950809D01*
X13900008Y3849202D01*
X13950008Y3749202D02*
X13899207Y3850802D01*
X14000807D01*
X13950008Y3749202D01*
X13900008Y3649202D02*
X13849208Y3750802D01*
X13950809D01*
X13900008Y3649202D01*
X13950008Y3549202D02*
X13899207Y3650802D01*
X14000807D01*
X13950008Y3549202D01*
X13900008Y3449202D02*
X13849208Y3550802D01*
X13950809D01*
X13900008Y3449202D01*
X13950008Y3349202D02*
X13899207Y3450802D01*
X14000807D01*
X13950008Y3349202D01*
X13900008Y3249202D02*
X13849208Y3350802D01*
X13950809D01*
X13900008Y3249202D01*
X13950008Y3149202D02*
X13899207Y3250802D01*
X14000807D01*
X13950008Y3149202D01*
X13900008Y3049202D02*
X13849208Y3150802D01*
X13950809D01*
X13900008Y3049202D01*
X13850008Y4349202D02*
X13799207Y4450802D01*
X13900807D01*
X13850008Y4349202D01*
X13800008Y4249202D02*
X13749207Y4350802D01*
X13850807D01*
X13800008Y4249202D01*
X13850008Y4149202D02*
X13799207Y4250802D01*
X13900807D01*
X13850008Y4149202D01*
X13800008Y4049202D02*
X13749207Y4150802D01*
X13850807D01*
X13800008Y4049202D01*
X13850008Y3949202D02*
X13799207Y4050802D01*
X13900807D01*
X13850008Y3949202D01*
X13800008Y3849202D02*
X13749207Y3950802D01*
X13850807D01*
X13800008Y3849202D01*
X13850008Y3749202D02*
X13799207Y3850802D01*
X13900807D01*
X13850008Y3749202D01*
X13800008Y3649202D02*
X13749207Y3750802D01*
X13850807D01*
X13800008Y3649202D01*
X13850008Y3549202D02*
X13799207Y3650802D01*
X13900807D01*
X13850008Y3549202D01*
X13800008Y3449202D02*
X13749207Y3550802D01*
X13850807D01*
X13800008Y3449202D01*
X13850008Y3349202D02*
X13799207Y3450802D01*
X13900807D01*
X13850008Y3349202D01*
X13800008Y3249202D02*
X13749207Y3350802D01*
X13850807D01*
X13800008Y3249202D01*
X13850008Y3149202D02*
X13799207Y3250802D01*
X13900807D01*
X13850008Y3149202D01*
X13800008Y3049202D02*
X13749207Y3150802D01*
X13850807D01*
X13800008Y3049202D01*
X13750008Y4149202D02*
X13699207Y4250802D01*
X13800807D01*
X13750008Y4149202D01*
Y3949202D02*
X13699207Y4050802D01*
X13800807D01*
X13750008Y3949202D01*
Y3749202D02*
X13699207Y3850802D01*
X13800807D01*
X13750008Y3749202D01*
Y3549202D02*
X13699207Y3650802D01*
X13800807D01*
X13750008Y3549202D01*
Y3349202D02*
X13699207Y3450802D01*
X13800807D01*
X13750008Y3349202D01*
X13700008Y3249202D02*
X13649207Y3350802D01*
X13750807D01*
X13700008Y3249202D01*
X13750008Y3149202D02*
X13699207Y3250802D01*
X13800807D01*
X13750008Y3149202D01*
X13700008Y3049202D02*
X13649207Y3150802D01*
X13750807D01*
X13700008Y3049202D01*
X13600008Y3249202D02*
X13549207Y3350802D01*
X13650807D01*
X13600008Y3249202D01*
X13650008Y3149202D02*
X13599207Y3250802D01*
X13700807D01*
X13650008Y3149202D01*
X13600008Y3049202D02*
X13549207Y3150802D01*
X13650807D01*
X13600008Y3049202D01*
X13500008Y3249202D02*
X13449207Y3350802D01*
X13550807D01*
X13500008Y3249202D01*
X13550008Y3149202D02*
X13499207Y3250802D01*
X13600807D01*
X13550008Y3149202D01*
X13500008Y3049202D02*
X13449207Y3150802D01*
X13550807D01*
X13500008Y3049202D01*
X13400008Y3249202D02*
X13349207Y3350802D01*
X13450807D01*
X13400008Y3249202D01*
X13450008Y3149202D02*
X13399207Y3250802D01*
X13500807D01*
X13450008Y3149202D01*
X13400008Y3049202D02*
X13349207Y3150802D01*
X13450807D01*
X13400008Y3049202D01*
X4586600Y4210300D02*
X4535800Y4311900D01*
X4637400D01*
X4586600Y4210300D01*
Y4140300D02*
X4535800Y4241900D01*
X4637400D01*
X4586600Y4140300D01*
X4556600Y4080300D02*
X4505800Y4181900D01*
X4607400D01*
X4556600Y4080300D01*
X4486600D02*
X4435800Y4181900D01*
X4537400D01*
X4486600Y4080300D01*
X4426600D02*
X4375800Y4181900D01*
X4477400D01*
X4426600Y4080300D01*
X4366600D02*
X4315800Y4181900D01*
X4417400D01*
X4366600Y4080300D01*
X4306600D02*
X4255800Y4181900D01*
X4357400D01*
X4306600Y4080300D01*
X4246600D02*
X4195800Y4181900D01*
X4297400D01*
X4246600Y4080300D01*
X4186600D02*
X4135800Y4181900D01*
X4237400D01*
X4186600Y4080300D01*
X4126600D02*
X4075800Y4181900D01*
X4177400D01*
X4126600Y4080300D01*
X4076600Y4110300D02*
X4025800Y4211900D01*
X4127400D01*
X4076600Y4110300D01*
X4056600Y4170300D02*
X4005800Y4271900D01*
X4107400D01*
X4056600Y4170300D01*
Y4230300D02*
X4005800Y4331900D01*
X4107400D01*
X4056600Y4230300D01*
Y4290300D02*
X4005800Y4391900D01*
X4107400D01*
X4056600Y4290300D01*
Y4350300D02*
X4005800Y4451900D01*
X4107400D01*
X4056600Y4350300D01*
Y4410300D02*
X4005800Y4511900D01*
X4107400D01*
X4056600Y4410300D01*
Y4470300D02*
X4005800Y4571900D01*
X4107400D01*
X4056600Y4470300D01*
X4106600Y4510300D02*
X4055800Y4611900D01*
X4157400D01*
X4106600Y4510300D01*
X4156600Y4550300D02*
X4105800Y4651900D01*
X4207400D01*
X4156600Y4550300D01*
X4206600Y4590300D02*
X4155800Y4691900D01*
X4257400D01*
X4206600Y4590300D01*
X4236600Y4640300D02*
X4185800Y4741900D01*
X4287400D01*
X4236600Y4640300D01*
Y4700299D02*
X4185800Y4801899D01*
X4287400D01*
X4236600Y4700299D01*
Y4760300D02*
X4185800Y4861900D01*
X4287400D01*
X4236600Y4760300D01*
Y4820299D02*
X4185800Y4921899D01*
X4287400D01*
X4236600Y4820299D01*
Y4880300D02*
X4185800Y4981900D01*
X4287400D01*
X4236600Y4880300D01*
Y4940299D02*
X4185800Y5041899D01*
X4287400D01*
X4236600Y4940299D01*
Y5000300D02*
X4185800Y5101900D01*
X4287400D01*
X4236600Y5000300D01*
X4266600Y5050300D02*
X4215800Y5151900D01*
X4317400D01*
X4266600Y5050300D01*
X4316600Y5080299D02*
X4265800Y5181899D01*
X4367400D01*
X4316600Y5080299D01*
X4376600D02*
X4325800Y5181899D01*
X4427400D01*
X4376600Y5080299D01*
X4436600D02*
X4385800Y5181899D01*
X4487400D01*
X4436600Y5080299D01*
X4496600D02*
X4445800Y5181899D01*
X4547400D01*
X4496600Y5080299D01*
X4556600D02*
X4505800Y5181899D01*
X4607400D01*
X4556600Y5080299D01*
X4586600Y5040300D02*
X4535800Y5141900D01*
X4637400D01*
X4586600Y5040300D01*
Y4980300D02*
X4535800Y5081900D01*
X4637400D01*
X4586600Y4980300D01*
Y4920300D02*
X4535800Y5021900D01*
X4637400D01*
X4586600Y4920300D01*
Y4860300D02*
X4535800Y4961900D01*
X4637400D01*
X4586600Y4860300D01*
Y4800300D02*
X4535800Y4901900D01*
X4637400D01*
X4586600Y4800300D01*
Y4740300D02*
X4535800Y4841900D01*
X4637400D01*
X4586600Y4740300D01*
Y4680300D02*
X4535800Y4781900D01*
X4637400D01*
X4586600Y4680300D01*
Y4620300D02*
X4535800Y4721900D01*
X4637400D01*
X4586600Y4620300D01*
Y4560299D02*
X4535800Y4661899D01*
X4637400D01*
X4586600Y4560299D01*
Y4500300D02*
X4535800Y4601900D01*
X4637400D01*
X4586600Y4500300D01*
Y4440299D02*
X4535800Y4541899D01*
X4637400D01*
X4586600Y4440299D01*
Y4380300D02*
X4535800Y4481900D01*
X4637400D01*
X4586600Y4380300D01*
Y4320299D02*
X4535800Y4421899D01*
X4637400D01*
X4586600Y4320299D01*
Y4260300D02*
X4535800Y4361900D01*
X4637400D01*
X4586600Y4260300D01*
X12500000Y3239200D02*
X12449200Y3340800D01*
X12550800D01*
X12500000Y3239200D01*
X13330000Y7049200D02*
X13279201Y7150800D01*
X13380800D01*
X13330000Y7049200D01*
X12214261Y7073300D02*
X12163461Y7174900D01*
X12265061D01*
X12214261Y7073300D01*
X12080000Y7069200D02*
X12029200Y7170800D01*
X12130800D01*
X12080000Y7069200D01*
X8121000Y11131100D02*
X8070200Y11232700D01*
X8171800D01*
X8121000Y11131100D01*
X10604002Y6506179D02*
X10553202Y6607779D01*
X10654802D01*
X10604002Y6506179D01*
Y6696179D02*
X10553202Y6797779D01*
X10654802D01*
X10604002Y6696179D01*
X11900000Y7049200D02*
X11849200Y7150800D01*
X11950800D01*
X11900000Y7049200D01*
X3800000Y5389200D02*
X3749200Y5490800D01*
X3850800D01*
X3800000Y5389200D01*
X3960000D02*
X3909200Y5490800D01*
X4010800D01*
X3960000Y5389200D01*
X4480000D02*
X4429200Y5490800D01*
X4530800D01*
X4480000Y5389200D01*
X5000000D02*
X4949200Y5490800D01*
X5050800D01*
X5000000Y5389200D01*
X5080000D02*
X5029200Y5490800D01*
X5130800D01*
X5080000Y5389200D01*
X4400000D02*
X4349200Y5490800D01*
X4450800D01*
X4400000Y5389200D01*
X4560000D02*
X4509200Y5490800D01*
X4610800D01*
X4560000Y5389200D01*
X12500000Y3319200D02*
X12449200Y3420800D01*
X12550800D01*
X12500000Y3319200D01*
X12672544Y2702316D02*
X12621744Y2803916D01*
X12723344D01*
X12672544Y2702316D01*
X12547544D02*
X12496744Y2803916D01*
X12598344D01*
X12547544Y2702316D01*
X12340000Y3539200D02*
X12289200Y3640800D01*
X12390800D01*
X12340000Y3539200D01*
X12240000Y3589200D02*
X12189200Y3690800D01*
X12290800D01*
X12240000Y3589200D01*
X12500000Y3999200D02*
X12449200Y4100800D01*
X12550800D01*
X12500000Y3999200D01*
Y3919200D02*
X12449200Y4020800D01*
X12550800D01*
X12500000Y3919200D01*
Y4719200D02*
X12449200Y4820800D01*
X12550800D01*
X12500000Y4719200D01*
X12650000Y4159200D02*
X12599200Y4260800D01*
X12700800D01*
X12650000Y4159200D01*
Y4319200D02*
X12599200Y4420800D01*
X12700800D01*
X12650000Y4319200D01*
Y4239200D02*
X12599200Y4340800D01*
X12700800D01*
X12650000Y4239200D01*
Y4079200D02*
X12599200Y4180800D01*
X12700800D01*
X12650000Y4079200D01*
X12930000Y5039200D02*
X12879201Y5140800D01*
X12980800D01*
X12930000Y5039200D01*
X12850000D02*
X12799200Y5140800D01*
X12900800D01*
X12850000Y5039200D01*
X12500000Y5419200D02*
X12449200Y5520800D01*
X12550800D01*
X12500000Y5419200D01*
Y5339200D02*
X12449200Y5440800D01*
X12550800D01*
X12500000Y5339200D01*
X12290000Y5389200D02*
X12239200Y5490800D01*
X12340800D01*
X12290000Y5389200D01*
X9661214Y5480412D02*
X9610414Y5582012D01*
X9712014D01*
X9661214Y5480412D01*
X10450000Y5469200D02*
X10399200Y5570800D01*
X10500800D01*
X10450000Y5469200D01*
X10631214Y4300413D02*
X10580414Y4402013D01*
X10682014D01*
X10631214Y4300413D01*
Y4380412D02*
X10580414Y4482012D01*
X10682014D01*
X10631214Y4380412D01*
Y4460412D02*
X10580414Y4562012D01*
X10682014D01*
X10631214Y4460412D01*
Y4540412D02*
X10580414Y4642012D01*
X10682014D01*
X10631214Y4540412D01*
X10531214Y4300413D02*
X10480414Y4402013D01*
X10582014D01*
X10531214Y4300413D01*
Y4380412D02*
X10480414Y4482012D01*
X10582014D01*
X10531214Y4380412D01*
Y4460412D02*
X10480414Y4562012D01*
X10582014D01*
X10531214Y4460412D01*
Y4540412D02*
X10480414Y4642012D01*
X10582014D01*
X10531214Y4540412D01*
X13130000Y5499200D02*
X13079201Y5600800D01*
X13180800D01*
X13130000Y5499200D01*
X6310000Y3979200D02*
X6259200Y4080800D01*
X6360800D01*
X6310000Y3979200D01*
X6085200Y8989200D02*
X6034400Y9090800D01*
X6136000D01*
X6085200Y8989200D01*
X6940000Y9749200D02*
X6889200Y9850800D01*
X6990800D01*
X6940000Y9749200D01*
X6880000Y4089200D02*
X6829200Y4190800D01*
X6930800D01*
X6880000Y4089200D01*
X11200000Y4379200D02*
X11149200Y4480800D01*
X11250800D01*
X11200000Y4379200D01*
X11160000Y4099200D02*
X11109200Y4200800D01*
X11210800D01*
X11160000Y4099200D01*
X6632900Y4089200D02*
X6582100Y4190800D01*
X6683700D01*
X6632900Y4089200D01*
X7360000Y6439200D02*
X7309200Y6540800D01*
X7410800D01*
X7360000Y6439200D01*
X16139999Y3489200D02*
X16089200Y3590800D01*
X16190800D01*
X16139999Y3489200D01*
X16039999D02*
X15989200Y3590800D01*
X16090800D01*
X16039999Y3489200D01*
X16239999Y3409200D02*
X16189200Y3510800D01*
X16290800D01*
X16239999Y3409200D01*
X16139999D02*
X16089200Y3510800D01*
X16190800D01*
X16139999Y3409200D01*
X16039999D02*
X15989200Y3510800D01*
X16090800D01*
X16039999Y3409200D01*
X16239999Y3489200D02*
X16189200Y3590800D01*
X16290800D01*
X16239999Y3489200D01*
X15939999D02*
X15889200Y3590800D01*
X15990800D01*
X15939999Y3489200D01*
Y3409200D02*
X15889200Y3510800D01*
X15990800D01*
X15939999Y3409200D01*
X16239999Y3649200D02*
X16189200Y3750800D01*
X16290800D01*
X16239999Y3649200D01*
X16039999D02*
X15989200Y3750800D01*
X16090800D01*
X16039999Y3649200D01*
X16239999Y3569200D02*
X16189200Y3670800D01*
X16290800D01*
X16239999Y3569200D01*
X16139999D02*
X16089200Y3670800D01*
X16190800D01*
X16139999Y3569200D01*
Y3649200D02*
X16089200Y3750800D01*
X16190800D01*
X16139999Y3649200D01*
X15939999D02*
X15889200Y3750800D01*
X15990800D01*
X15939999Y3649200D01*
X16039999Y3569200D02*
X15989200Y3670800D01*
X16090800D01*
X16039999Y3569200D01*
X15939999D02*
X15889200Y3670800D01*
X15990800D01*
X15939999Y3569200D01*
X5898000Y5389200D02*
X5847200Y5490800D01*
X5948800D01*
X5898000Y5389200D01*
X2982000D02*
X2931200Y5490800D01*
X3032800D01*
X2982000Y5389200D01*
Y3559200D02*
X2931200Y3660800D01*
X3032800D01*
X2982000Y3559200D01*
X5898000D02*
X5847200Y3660800D01*
X5948800D01*
X5898000Y3559200D01*
X10080000Y9019200D02*
X10029200Y9120800D01*
X10130800D01*
X10080000Y9019200D01*
X7970000Y8949200D02*
X7919200Y9050800D01*
X8020800D01*
X7970000Y8949200D01*
X9358021Y9023202D02*
X9307221Y9124802D01*
X9408821D01*
X9358021Y9023202D01*
X7960000Y4349200D02*
X7909200Y4450800D01*
X8010800D01*
X7960000Y4349200D01*
X12590000Y7069200D02*
X12539200Y7170800D01*
X12640800D01*
X12590000Y7069200D01*
X10171214Y5030412D02*
X10120414Y5132012D01*
X10222014D01*
X10171214Y5030412D01*
X10251214D02*
X10200414Y5132012D01*
X10302014D01*
X10251214Y5030412D01*
X10011214D02*
X9960414Y5132012D01*
X10062014D01*
X10011214Y5030412D01*
X10831214Y4540412D02*
X10780414Y4642012D01*
X10882014D01*
X10831214Y4540412D01*
X10731214Y4460412D02*
X10680414Y4562012D01*
X10782014D01*
X10731214Y4460412D01*
Y4380412D02*
X10680414Y4482012D01*
X10782014D01*
X10731214Y4380412D01*
X10831214Y4300413D02*
X10780414Y4402013D01*
X10882014D01*
X10831214Y4300413D01*
X10731214D02*
X10680414Y4402013D01*
X10782014D01*
X10731214Y4300413D01*
X9971214Y4310412D02*
X9920414Y4412012D01*
X10022014D01*
X9971214Y4310412D01*
Y4070412D02*
X9920414Y4172012D01*
X10022014D01*
X9971214Y4070412D01*
Y4150412D02*
X9920414Y4252012D01*
X10022014D01*
X9971214Y4150412D01*
Y4230412D02*
X9920414Y4332012D01*
X10022014D01*
X9971214Y4230412D01*
X8571214Y2940412D02*
X8520414Y3042012D01*
X8622014D01*
X8571214Y2940412D01*
X8671214D02*
X8620414Y3042012D01*
X8722014D01*
X8671214Y2940412D01*
X8871214D02*
X8820414Y3042012D01*
X8922014D01*
X8871214Y2940412D01*
X9071214D02*
X9020414Y3042012D01*
X9122014D01*
X9071214Y2940412D01*
X8971214D02*
X8920414Y3042012D01*
X9022014D01*
X8971214Y2940412D01*
X8571214Y2860412D02*
X8520414Y2962012D01*
X8622014D01*
X8571214Y2860412D01*
X8671214D02*
X8620414Y2962012D01*
X8722014D01*
X8671214Y2860412D01*
X8871214D02*
X8820414Y2962012D01*
X8922014D01*
X8871214Y2860412D01*
X8771214D02*
X8720414Y2962012D01*
X8822014D01*
X8771214Y2860412D01*
X9071214D02*
X9020414Y2962012D01*
X9122014D01*
X9071214Y2860412D01*
X8971214D02*
X8920414Y2962012D01*
X9022014D01*
X8971214Y2860412D01*
X10571214Y3270412D02*
X10520414Y3372012D01*
X10622014D01*
X10571214Y3270412D01*
X9821214Y5410412D02*
X9770414Y5512012D01*
X9872014D01*
X9821214Y5410412D01*
Y5330412D02*
X9770414Y5432012D01*
X9872014D01*
X9821214Y5330412D01*
Y4710412D02*
X9770414Y4812012D01*
X9872014D01*
X9821214Y4710412D01*
Y4630412D02*
X9770414Y4732012D01*
X9872014D01*
X9821214Y4630412D01*
Y3910412D02*
X9770414Y4012012D01*
X9872014D01*
X9821214Y3910412D01*
Y3990412D02*
X9770414Y4092012D01*
X9872014D01*
X9821214Y3990412D01*
Y3230412D02*
X9770414Y3332012D01*
X9872014D01*
X9821214Y3230412D01*
Y3310412D02*
X9770414Y3412012D01*
X9872014D01*
X9821214Y3310412D01*
X8881214Y3440412D02*
X8830414Y3542012D01*
X8932014D01*
X8881214Y3440412D01*
Y3940412D02*
X8830414Y4042012D01*
X8932014D01*
X8881214Y3940412D01*
Y3840412D02*
X8830414Y3942012D01*
X8932014D01*
X8881214Y3840412D01*
Y3740412D02*
X8830414Y3842012D01*
X8932014D01*
X8881214Y3740412D01*
Y3540412D02*
X8830414Y3642012D01*
X8932014D01*
X8881214Y3540412D01*
Y3640412D02*
X8830414Y3742012D01*
X8932014D01*
X8881214Y3640412D01*
Y3340412D02*
X8830414Y3442012D01*
X8932014D01*
X8881214Y3340412D01*
Y3140412D02*
X8830414Y3242012D01*
X8932014D01*
X8881214Y3140412D01*
Y4040412D02*
X8830414Y4142012D01*
X8932014D01*
X8881214Y4040412D01*
Y4140412D02*
X8830414Y4242012D01*
X8932014D01*
X8881214Y4140412D01*
X8561214Y3490412D02*
X8510414Y3592012D01*
X8612014D01*
X8561214Y3490412D01*
Y3790413D02*
X8510414Y3892013D01*
X8612014D01*
X8561214Y3790413D01*
Y3690412D02*
X8510414Y3792012D01*
X8612014D01*
X8561214Y3690412D01*
Y3590412D02*
X8510414Y3692012D01*
X8612014D01*
X8561214Y3590412D01*
Y3390412D02*
X8510414Y3492012D01*
X8612014D01*
X8561214Y3390412D01*
Y3290412D02*
X8510414Y3392012D01*
X8612014D01*
X8561214Y3290412D01*
Y3190412D02*
X8510414Y3292012D01*
X8612014D01*
X8561214Y3190412D01*
Y3890413D02*
X8510414Y3992013D01*
X8612014D01*
X8561214Y3890413D01*
X8761214Y3790413D02*
X8710414Y3892013D01*
X8812014D01*
X8761214Y3790413D01*
Y3590412D02*
X8710414Y3692012D01*
X8812014D01*
X8761214Y3590412D01*
X8661214Y3840413D02*
X8610414Y3942013D01*
X8712014D01*
X8661214Y3840413D01*
Y3640413D02*
X8610414Y3742013D01*
X8712014D01*
X8661214Y3640413D01*
X8761214Y3490412D02*
X8710414Y3592012D01*
X8812014D01*
X8761214Y3490412D01*
X8661214Y3540413D02*
X8610414Y3642013D01*
X8712014D01*
X8661214Y3540413D01*
X8761214Y3690412D02*
X8710414Y3792012D01*
X8812014D01*
X8761214Y3690412D01*
X8661214Y3740413D02*
X8610414Y3842013D01*
X8712014D01*
X8661214Y3740413D01*
X8761214Y3390412D02*
X8710414Y3492012D01*
X8812014D01*
X8761214Y3390412D01*
X8661214Y3140412D02*
X8610414Y3242012D01*
X8712014D01*
X8661214Y3140412D01*
Y3340412D02*
X8610414Y3442012D01*
X8712014D01*
X8661214Y3340412D01*
X8761214Y3290412D02*
X8710414Y3392012D01*
X8812014D01*
X8761214Y3290412D01*
X8661214Y3440412D02*
X8610414Y3542012D01*
X8712014D01*
X8661214Y3440412D01*
X8761214Y3190412D02*
X8710414Y3292012D01*
X8812014D01*
X8761214Y3190412D01*
X8661214Y3240412D02*
X8610414Y3342012D01*
X8712014D01*
X8661214Y3240412D01*
X8761214Y3890413D02*
X8710414Y3992013D01*
X8812014D01*
X8761214Y3890413D01*
Y3990413D02*
X8710414Y4092013D01*
X8812014D01*
X8761214Y3990413D01*
X8661214Y3940413D02*
X8610414Y4042013D01*
X8712014D01*
X8661214Y3940413D01*
X8981214Y3580412D02*
X8930414Y3682012D01*
X9032014D01*
X8981214Y3580412D01*
Y3880413D02*
X8930414Y3982013D01*
X9032014D01*
X8981214Y3880413D01*
Y3380412D02*
X8930414Y3482012D01*
X9032014D01*
X8981214Y3380412D01*
Y3780413D02*
X8930414Y3882013D01*
X9032014D01*
X8981214Y3780413D01*
Y3980413D02*
X8930414Y4082013D01*
X9032014D01*
X8981214Y3980413D01*
Y3480412D02*
X8930414Y3582012D01*
X9032014D01*
X8981214Y3480412D01*
Y4080413D02*
X8930414Y4182013D01*
X9032014D01*
X8981214Y4080413D01*
Y3680413D02*
X8930414Y3782013D01*
X9032014D01*
X8981214Y3680413D01*
X9181214Y4080413D02*
X9130414Y4182013D01*
X9232014D01*
X9181214Y4080413D01*
Y3980413D02*
X9130414Y4082013D01*
X9232014D01*
X9181214Y3980413D01*
X9081214Y3730413D02*
X9030414Y3832013D01*
X9132014D01*
X9081214Y3730413D01*
Y3830413D02*
X9030414Y3932013D01*
X9132014D01*
X9081214Y3830413D01*
Y3930413D02*
X9030414Y4032013D01*
X9132014D01*
X9081214Y3930413D01*
Y4130413D02*
X9030414Y4232013D01*
X9132014D01*
X9081214Y4130413D01*
Y4030413D02*
X9030414Y4132013D01*
X9132014D01*
X9081214Y4030413D01*
Y3430412D02*
X9030414Y3532012D01*
X9132014D01*
X9081214Y3430412D01*
Y3530413D02*
X9030414Y3632013D01*
X9132014D01*
X9081214Y3530413D01*
Y3630413D02*
X9030414Y3732013D01*
X9132014D01*
X9081214Y3630413D01*
X9181214Y3180412D02*
X9130414Y3282012D01*
X9232014D01*
X9181214Y3180412D01*
Y3280412D02*
X9130414Y3382012D01*
X9232014D01*
X9181214Y3280412D01*
X9081214Y3330412D02*
X9030414Y3432012D01*
X9132014D01*
X9081214Y3330412D01*
Y3130412D02*
X9030414Y3232012D01*
X9132014D01*
X9081214Y3130412D01*
Y3230412D02*
X9030414Y3332012D01*
X9132014D01*
X9081214Y3230412D01*
X8981214Y3280412D02*
X8930414Y3382012D01*
X9032014D01*
X8981214Y3280412D01*
Y3180412D02*
X8930414Y3282012D01*
X9032014D01*
X8981214Y3180412D01*
X9181214Y3680413D02*
X9130414Y3782013D01*
X9232014D01*
X9181214Y3680413D01*
Y3380412D02*
X9130414Y3482012D01*
X9232014D01*
X9181214Y3380412D01*
Y3780413D02*
X9130414Y3882013D01*
X9232014D01*
X9181214Y3780413D01*
Y3580412D02*
X9130414Y3682012D01*
X9232014D01*
X9181214Y3580412D01*
Y3880413D02*
X9130414Y3982013D01*
X9232014D01*
X9181214Y3880413D01*
Y3480412D02*
X9130414Y3582012D01*
X9232014D01*
X9181214Y3480412D01*
X9661214Y3730412D02*
X9610414Y3832012D01*
X9712014D01*
X9661214Y3730412D01*
Y4030412D02*
X9610414Y4132012D01*
X9712014D01*
X9661214Y4030412D01*
Y3930412D02*
X9610414Y4032012D01*
X9712014D01*
X9661214Y3930412D01*
Y3830412D02*
X9610414Y3932012D01*
X9712014D01*
X9661214Y3830412D01*
Y3630412D02*
X9610414Y3732012D01*
X9712014D01*
X9661214Y3630412D01*
Y3330412D02*
X9610414Y3432012D01*
X9712014D01*
X9661214Y3330412D01*
Y3530412D02*
X9610414Y3632012D01*
X9712014D01*
X9661214Y3530412D01*
Y3430412D02*
X9610414Y3532012D01*
X9712014D01*
X9661214Y3430412D01*
X9461214Y3330412D02*
X9410414Y3432012D01*
X9512014D01*
X9461214Y3330412D01*
X9361214Y3680412D02*
X9310414Y3782012D01*
X9412014D01*
X9361214Y3680412D01*
X9561214Y3480412D02*
X9510414Y3582012D01*
X9612014D01*
X9561214Y3480412D01*
Y3380412D02*
X9510414Y3482012D01*
X9612014D01*
X9561214Y3380412D01*
X9461214Y3630412D02*
X9410414Y3732012D01*
X9512014D01*
X9461214Y3630412D01*
X9361214Y3580412D02*
X9310414Y3682012D01*
X9412014D01*
X9361214Y3580412D01*
Y3480412D02*
X9310414Y3582012D01*
X9412014D01*
X9361214Y3480412D01*
Y3380412D02*
X9310414Y3482012D01*
X9412014D01*
X9361214Y3380412D01*
X9561214Y3680412D02*
X9510414Y3782012D01*
X9612014D01*
X9561214Y3680412D01*
Y3580412D02*
X9510414Y3682012D01*
X9612014D01*
X9561214Y3580412D01*
X9461214Y3430412D02*
X9410414Y3532012D01*
X9512014D01*
X9461214Y3430412D01*
Y3530412D02*
X9410414Y3632012D01*
X9512014D01*
X9461214Y3530412D01*
X9361214Y3980412D02*
X9310414Y4082012D01*
X9412014D01*
X9361214Y3980412D01*
X9561214D02*
X9510414Y4082012D01*
X9612014D01*
X9561214Y3980412D01*
X9461214Y3930412D02*
X9410414Y4032012D01*
X9512014D01*
X9461214Y3930412D01*
Y3730412D02*
X9410414Y3832012D01*
X9512014D01*
X9461214Y3730412D01*
Y4030412D02*
X9410414Y4132012D01*
X9512014D01*
X9461214Y4030412D01*
X9361214Y3880412D02*
X9310414Y3982012D01*
X9412014D01*
X9361214Y3880412D01*
X9561214D02*
X9510414Y3982012D01*
X9612014D01*
X9561214Y3880412D01*
X9361214Y3780412D02*
X9310414Y3882012D01*
X9412014D01*
X9361214Y3780412D01*
X9461214Y3830412D02*
X9410414Y3932012D01*
X9512014D01*
X9461214Y3830412D01*
X9561214Y3780412D02*
X9510414Y3882012D01*
X9612014D01*
X9561214Y3780412D01*
X9461214Y5480412D02*
X9410414Y5582012D01*
X9512014D01*
X9461214Y5480412D01*
X9561214D02*
X9510414Y5582012D01*
X9612014D01*
X9561214Y5480412D01*
X8961214D02*
X8910414Y5582012D01*
X9012014D01*
X8961214Y5480412D01*
X9061214D02*
X9010414Y5582012D01*
X9112014D01*
X9061214Y5480412D01*
X9261214D02*
X9210414Y5582012D01*
X9312014D01*
X9261214Y5480412D01*
X9361214D02*
X9310414Y5582012D01*
X9412014D01*
X9361214Y5480412D01*
X9161214D02*
X9110414Y5582012D01*
X9212014D01*
X9161214Y5480412D01*
X8861214D02*
X8810414Y5582012D01*
X8912014D01*
X8861214Y5480412D01*
X8661214D02*
X8610414Y5582012D01*
X8712014D01*
X8661214Y5480412D01*
X8761214D02*
X8710414Y5582012D01*
X8812014D01*
X8761214Y5480412D01*
X9611214Y5380412D02*
X9560414Y5482012D01*
X9662014D01*
X9611214Y5380412D01*
X8811214D02*
X8760414Y5482012D01*
X8862014D01*
X8811214Y5380412D01*
X9311214D02*
X9260414Y5482012D01*
X9362014D01*
X9311214Y5380412D01*
X9511214D02*
X9460414Y5482012D01*
X9562014D01*
X9511214Y5380412D01*
X8711214D02*
X8660414Y5482012D01*
X8762014D01*
X8711214Y5380412D01*
X9211214D02*
X9160414Y5482012D01*
X9262014D01*
X9211214Y5380412D01*
X9011214D02*
X8960414Y5482012D01*
X9062014D01*
X9011214Y5380412D01*
X9111214D02*
X9060414Y5482012D01*
X9162014D01*
X9111214Y5380412D01*
X8911214D02*
X8860414Y5482012D01*
X8962014D01*
X8911214Y5380412D01*
X9411214D02*
X9360414Y5482012D01*
X9462014D01*
X9411214Y5380412D01*
X9611214Y5010412D02*
X9560414Y5112012D01*
X9662014D01*
X9611214Y5010412D01*
X8811214D02*
X8760414Y5112012D01*
X8862014D01*
X8811214Y5010412D01*
X8911214D02*
X8860414Y5112012D01*
X8962014D01*
X8911214Y5010412D01*
X8711214D02*
X8660414Y5112012D01*
X8762014D01*
X8711214Y5010412D01*
X9011214D02*
X8960414Y5112012D01*
X9062014D01*
X9011214Y5010412D01*
X9611214Y4810412D02*
X9560414Y4912012D01*
X9662014D01*
X9611214Y4810412D01*
X9661214Y4910412D02*
X9610414Y5012012D01*
X9712014D01*
X9661214Y4910412D01*
X9011214Y4810412D02*
X8960414Y4912012D01*
X9062014D01*
X9011214Y4810412D01*
X8761214Y4910412D02*
X8710414Y5012012D01*
X8812014D01*
X8761214Y4910412D01*
X8911214Y4810412D02*
X8860414Y4912012D01*
X8962014D01*
X8911214Y4810412D01*
X8711214D02*
X8660414Y4912012D01*
X8762014D01*
X8711214Y4810412D01*
X8661214Y4910412D02*
X8610414Y5012012D01*
X8712014D01*
X8661214Y4910412D01*
X8861214D02*
X8810414Y5012012D01*
X8912014D01*
X8861214Y4910412D01*
X8961214D02*
X8910414Y5012012D01*
X9012014D01*
X8961214Y4910412D01*
X8811214Y4810412D02*
X8760414Y4912012D01*
X8862014D01*
X8811214Y4810412D01*
X9061214Y4910412D02*
X9010414Y5012012D01*
X9112014D01*
X9061214Y4910412D01*
X9311214Y4810412D02*
X9260414Y4912012D01*
X9362014D01*
X9311214Y4810412D01*
X9261214Y4910412D02*
X9210414Y5012012D01*
X9312014D01*
X9261214Y4910412D01*
X9161214D02*
X9110414Y5012012D01*
X9212014D01*
X9161214Y4910412D01*
X9211214Y4810412D02*
X9160414Y4912012D01*
X9262014D01*
X9211214Y4810412D01*
X9111214D02*
X9060414Y4912012D01*
X9162014D01*
X9111214Y4810412D01*
Y5010412D02*
X9060414Y5112012D01*
X9162014D01*
X9111214Y5010412D01*
X9211214D02*
X9160414Y5112012D01*
X9262014D01*
X9211214Y5010412D01*
X9311214D02*
X9260414Y5112012D01*
X9362014D01*
X9311214Y5010412D01*
X9561214Y4910412D02*
X9510414Y5012012D01*
X9612014D01*
X9561214Y4910412D01*
X9511214Y5010412D02*
X9460414Y5112012D01*
X9562014D01*
X9511214Y5010412D01*
Y4810412D02*
X9460414Y4912012D01*
X9562014D01*
X9511214Y4810412D01*
X9461214Y4910412D02*
X9410414Y5012012D01*
X9512014D01*
X9461214Y4910412D01*
X9361214D02*
X9310414Y5012012D01*
X9412014D01*
X9361214Y4910412D01*
X9411214Y5010412D02*
X9360414Y5112012D01*
X9462014D01*
X9411214Y5010412D01*
Y4810412D02*
X9360414Y4912012D01*
X9462014D01*
X9411214Y4810412D01*
X9611214Y4520412D02*
X9560414Y4622012D01*
X9662014D01*
X9611214Y4520412D01*
X9661214Y4620412D02*
X9610414Y4722012D01*
X9712014D01*
X9661214Y4620412D01*
X9611214Y4720412D02*
X9560414Y4822012D01*
X9662014D01*
X9611214Y4720412D01*
X9011214Y4520412D02*
X8960414Y4622012D01*
X9062014D01*
X9011214Y4520412D01*
X8661214Y4620412D02*
X8610414Y4722012D01*
X8712014D01*
X8661214Y4620412D01*
X8711214Y4520412D02*
X8660414Y4622012D01*
X8762014D01*
X8711214Y4520412D01*
X8811214D02*
X8760414Y4622012D01*
X8862014D01*
X8811214Y4520412D01*
X8761214Y4620412D02*
X8710414Y4722012D01*
X8812014D01*
X8761214Y4620412D01*
X8861214D02*
X8810414Y4722012D01*
X8912014D01*
X8861214Y4620412D01*
X8911214Y4520412D02*
X8860414Y4622012D01*
X8962014D01*
X8911214Y4520412D01*
X8961214Y4620412D02*
X8910414Y4722012D01*
X9012014D01*
X8961214Y4620412D01*
X9061214D02*
X9010414Y4722012D01*
X9112014D01*
X9061214Y4620412D01*
X8711214Y4720412D02*
X8660414Y4822012D01*
X8762014D01*
X8711214Y4720412D01*
X8911214D02*
X8860414Y4822012D01*
X8962014D01*
X8911214Y4720412D01*
X9011214D02*
X8960414Y4822012D01*
X9062014D01*
X9011214Y4720412D01*
X8811214D02*
X8760414Y4822012D01*
X8862014D01*
X8811214Y4720412D01*
X9311214D02*
X9260414Y4822012D01*
X9362014D01*
X9311214Y4720412D01*
Y4520412D02*
X9260414Y4622012D01*
X9362014D01*
X9311214Y4520412D01*
X9161214Y4620412D02*
X9110414Y4722012D01*
X9212014D01*
X9161214Y4620412D01*
X9111214Y4720412D02*
X9060414Y4822012D01*
X9162014D01*
X9111214Y4720412D01*
X9261214Y4620412D02*
X9210414Y4722012D01*
X9312014D01*
X9261214Y4620412D01*
X9211214Y4520412D02*
X9160414Y4622012D01*
X9262014D01*
X9211214Y4520412D01*
X9111214D02*
X9060414Y4622012D01*
X9162014D01*
X9111214Y4520412D01*
X9211214Y4720412D02*
X9160414Y4822012D01*
X9262014D01*
X9211214Y4720412D01*
X9411214Y4520412D02*
X9360414Y4622012D01*
X9462014D01*
X9411214Y4520412D01*
X9511214Y4720412D02*
X9460414Y4822012D01*
X9562014D01*
X9511214Y4720412D01*
Y4520412D02*
X9460414Y4622012D01*
X9562014D01*
X9511214Y4520412D01*
X9461214Y4620412D02*
X9410414Y4722012D01*
X9512014D01*
X9461214Y4620412D01*
X9561214D02*
X9510414Y4722012D01*
X9612014D01*
X9561214Y4620412D01*
X9361214D02*
X9310414Y4722012D01*
X9412014D01*
X9361214Y4620412D01*
X9411214Y4720412D02*
X9360414Y4822012D01*
X9462014D01*
X9411214Y4720412D01*
X9011214Y5300412D02*
X8960414Y5402012D01*
X9062014D01*
X9011214Y5300412D01*
X9061214Y5200412D02*
X9010414Y5302012D01*
X9112014D01*
X9061214Y5200412D01*
X8811214Y5300412D02*
X8760414Y5402012D01*
X8862014D01*
X8811214Y5300412D01*
X8911214D02*
X8860414Y5402012D01*
X8962014D01*
X8911214Y5300412D01*
X8961214Y5200412D02*
X8910414Y5302012D01*
X9012014D01*
X8961214Y5200412D01*
X8711214Y5300412D02*
X8660414Y5402012D01*
X8762014D01*
X8711214Y5300412D01*
X8761214Y5200412D02*
X8710414Y5302012D01*
X8812014D01*
X8761214Y5200412D01*
X8861214D02*
X8810414Y5302012D01*
X8912014D01*
X8861214Y5200412D01*
X8661214D02*
X8610414Y5302012D01*
X8712014D01*
X8661214Y5200412D01*
X9611214Y5300412D02*
X9560414Y5402012D01*
X9662014D01*
X9611214Y5300412D01*
X9661214Y5200412D02*
X9610414Y5302012D01*
X9712014D01*
X9661214Y5200412D01*
X9611214Y5100412D02*
X9560414Y5202012D01*
X9662014D01*
X9611214Y5100412D01*
X8911214D02*
X8860414Y5202012D01*
X8962014D01*
X8911214Y5100412D01*
X9011214D02*
X8960414Y5202012D01*
X9062014D01*
X9011214Y5100412D01*
X8811214D02*
X8760414Y5202012D01*
X8862014D01*
X8811214Y5100412D01*
X8711214D02*
X8660414Y5202012D01*
X8762014D01*
X8711214Y5100412D01*
X9111214Y5300412D02*
X9060414Y5402012D01*
X9162014D01*
X9111214Y5300412D01*
X9261214Y5200412D02*
X9210414Y5302012D01*
X9312014D01*
X9261214Y5200412D01*
X9111214Y5100412D02*
X9060414Y5202012D01*
X9162014D01*
X9111214Y5100412D01*
X9161214Y5200412D02*
X9110414Y5302012D01*
X9212014D01*
X9161214Y5200412D01*
X9211214Y5300412D02*
X9160414Y5402012D01*
X9262014D01*
X9211214Y5300412D01*
Y5100412D02*
X9160414Y5202012D01*
X9262014D01*
X9211214Y5100412D01*
X9411214Y5300412D02*
X9360414Y5402012D01*
X9462014D01*
X9411214Y5300412D01*
X9311214Y5100412D02*
X9260414Y5202012D01*
X9362014D01*
X9311214Y5100412D01*
X9561214Y5200412D02*
X9510414Y5302012D01*
X9612014D01*
X9561214Y5200412D01*
X9511214Y5100412D02*
X9460414Y5202012D01*
X9562014D01*
X9511214Y5100412D01*
X9411214D02*
X9360414Y5202012D01*
X9462014D01*
X9411214Y5100412D01*
X9461214Y5200412D02*
X9410414Y5302012D01*
X9512014D01*
X9461214Y5200412D01*
X9511214Y5300412D02*
X9460414Y5402012D01*
X9562014D01*
X9511214Y5300412D01*
X9361214Y5200412D02*
X9310414Y5302012D01*
X9412014D01*
X9361214Y5200412D01*
X9311214Y5300412D02*
X9260414Y5402012D01*
X9362014D01*
X9311214Y5300412D01*
X10091214Y5030412D02*
X10040414Y5132012D01*
X10142014D01*
X10091214Y5030412D01*
X8881214Y3240412D02*
X8830414Y3342012D01*
X8932014D01*
X8881214Y3240412D01*
X10471214Y3750412D02*
X10420414Y3852012D01*
X10522014D01*
X10471214Y3750412D01*
X10604002Y6031179D02*
X10553202Y6132779D01*
X10654802D01*
X10604002Y6031179D01*
X6498021Y7393202D02*
X6447221Y7494802D01*
X6548821D01*
X6498021Y7393202D01*
X6240521Y7088809D02*
X6189721Y7190409D01*
X6291321D01*
X6240521Y7088809D01*
X6113521D02*
X6062721Y7190409D01*
X6164321D01*
X6113521Y7088809D01*
X6748021Y7253202D02*
X6697221Y7354802D01*
X6798821D01*
X6748021Y7253202D01*
X7058021Y7323203D02*
X7007221Y7424803D01*
X7108821D01*
X7058021Y7323203D01*
X6598021Y7393202D02*
X6547221Y7494802D01*
X6648821D01*
X6598021Y7393202D01*
X7058021Y7023202D02*
X7007221Y7124802D01*
X7108821D01*
X7058021Y7023202D01*
X7738021Y7343202D02*
X7687221Y7444802D01*
X7788821D01*
X7738021Y7343202D01*
X7868021Y6923203D02*
X7817221Y7024803D01*
X7918821D01*
X7868021Y6923203D01*
X7628021Y6333202D02*
X7577221Y6434802D01*
X7678821D01*
X7628021Y6333202D01*
X7838021Y7343202D02*
X7787221Y7444802D01*
X7888821D01*
X7838021Y7343202D01*
X7738021Y6333202D02*
X7687221Y6434802D01*
X7788821D01*
X7738021Y6333202D01*
X6113521Y6615596D02*
X6062721Y6717196D01*
X6164321D01*
X6113521Y6615596D01*
X7058021Y6413203D02*
X7007221Y6514803D01*
X7108821D01*
X7058021Y6413203D01*
X6748021Y6463202D02*
X6697221Y6564802D01*
X6798821D01*
X6748021Y6463202D01*
X6498021D02*
X6447221Y6564802D01*
X6548821D01*
X6498021Y6463202D01*
X6368021D02*
X6317221Y6564802D01*
X6418821D01*
X6368021Y6463202D01*
X6058021Y6443203D02*
X6007221Y6544803D01*
X6108821D01*
X6058021Y6443203D01*
X7058021Y6713202D02*
X7007221Y6814802D01*
X7108821D01*
X7058021Y6713202D01*
X6238021Y6463202D02*
X6187221Y6564802D01*
X6288821D01*
X6238021Y6463202D01*
X13580000Y6939200D02*
X13529201Y7040800D01*
X13630800D01*
X13580000Y6939200D01*
X13470000D02*
X13419200Y7040800D01*
X13520799D01*
X13470000Y6939200D01*
X8070000Y10039200D02*
X8019200Y10140800D01*
X8120800D01*
X8070000Y10039200D01*
X5632500Y9686700D02*
X5581700Y9788300D01*
X5683300D01*
X5632500Y9686700D01*
X6300000Y9356700D02*
X6325400Y9382100D01*
X6350800D01*
X6325400Y9407500D01*
X6350800Y9432900D01*
X6325400D01*
X6300000Y9458300D01*
X6274600Y9432900D01*
X6249200D01*
X6274600Y9407500D01*
X6249200Y9382100D01*
X6274600D01*
X6300000Y9356700D01*
X6170000Y9119200D02*
X6119200Y9220800D01*
X6220800D01*
X6170000Y9119200D01*
X5630000Y8939200D02*
X5579200Y9040800D01*
X5680800D01*
X5630000Y8939200D01*
X5297500Y8944079D02*
X5246700Y9045679D01*
X5348300D01*
X5297500Y8944079D01*
X6560000Y8969200D02*
X6509200Y9070800D01*
X6610800D01*
X6560000Y8969200D01*
X6040000Y9729200D02*
X5989200Y9830800D01*
X6090800D01*
X6040000Y9729200D01*
X13460001Y10609200D02*
X13409200Y10710800D01*
X13510800D01*
X13460001Y10609200D01*
Y10689200D02*
X13409200Y10790800D01*
X13510800D01*
X13460001Y10689200D01*
X13660001D02*
X13609200Y10790800D01*
X13710800D01*
X13660001Y10689200D01*
X13560001D02*
X13509200Y10790800D01*
X13610800D01*
X13560001Y10689200D01*
Y10609200D02*
X13509200Y10710800D01*
X13610800D01*
X13560001Y10609200D01*
X13660001D02*
X13609200Y10710800D01*
X13710800D01*
X13660001Y10609200D01*
X13760001D02*
X13709200Y10710800D01*
X13810800D01*
X13760001Y10609200D01*
Y10689200D02*
X13709200Y10790800D01*
X13810800D01*
X13760001Y10689200D01*
X13210001Y7359200D02*
X13159200Y7460800D01*
X13260800D01*
X13210001Y7359200D01*
Y4389200D02*
X13159200Y4490800D01*
X13260800D01*
X13210001Y4389200D01*
Y4469200D02*
X13159200Y4570800D01*
X13260800D01*
X13210001Y4469200D01*
X13310001Y4389200D02*
X13259200Y4490800D01*
X13360800D01*
X13310001Y4389200D01*
Y4309200D02*
X13259200Y4410800D01*
X13360800D01*
X13310001Y4309200D01*
Y4469200D02*
X13259200Y4570800D01*
X13360800D01*
X13310001Y4469200D01*
X13250000Y3279200D02*
X13199200Y3380800D01*
X13300800D01*
X13250000Y3279200D01*
X7850000Y3749200D02*
X7799200Y3850800D01*
X7900800D01*
X7850000Y3749200D01*
X10731214Y4540412D02*
X10680414Y4642012D01*
X10782014D01*
X10731214Y4540412D01*
X10831214Y4460412D02*
X10780414Y4562012D01*
X10882014D01*
X10831214Y4460412D01*
Y4380412D02*
X10780414Y4482012D01*
X10882014D01*
X10831214Y4380412D01*
X13410001Y4389200D02*
X13359200Y4490800D01*
X13460800D01*
X13410001Y4389200D01*
X13510001Y4309200D02*
X13459200Y4410800D01*
X13560800D01*
X13510001Y4309200D01*
X13410001D02*
X13359200Y4410800D01*
X13460800D01*
X13410001Y4309200D01*
X13510001Y4389200D02*
X13459200Y4490800D01*
X13560800D01*
X13510001Y4389200D01*
X13210001Y4309200D02*
X13159200Y4410800D01*
X13260800D01*
X13210001Y4309200D01*
X13510001Y4549200D02*
X13459200Y4650800D01*
X13560800D01*
X13510001Y4549200D01*
X13310001D02*
X13259200Y4650800D01*
X13360800D01*
X13310001Y4549200D01*
X13510001Y4469200D02*
X13459200Y4570800D01*
X13560800D01*
X13510001Y4469200D01*
X13410001D02*
X13359200Y4570800D01*
X13460800D01*
X13410001Y4469200D01*
Y4549200D02*
X13359200Y4650800D01*
X13460800D01*
X13410001Y4549200D01*
X13210001D02*
X13159200Y4650800D01*
X13260800D01*
X13210001Y4549200D01*
X14870000Y6229200D02*
X14819200Y6330800D01*
X14920799D01*
X14870000Y6229200D01*
X14770000D02*
X14719200Y6330800D01*
X14820799D01*
X14770000Y6229200D01*
X14970000Y6149200D02*
X14919200Y6250800D01*
X15020799D01*
X14970000Y6149200D01*
X14870000D02*
X14819200Y6250800D01*
X14920799D01*
X14870000Y6149200D01*
X14770000D02*
X14719200Y6250800D01*
X14820799D01*
X14770000Y6149200D01*
X14970000Y6229200D02*
X14919200Y6330800D01*
X15020799D01*
X14970000Y6229200D01*
X14670000D02*
X14619200Y6330800D01*
X14720799D01*
X14670000Y6229200D01*
Y6149200D02*
X14619200Y6250800D01*
X14720799D01*
X14670000Y6149200D01*
X14970000Y6389200D02*
X14919200Y6490800D01*
X15020799D01*
X14970000Y6389200D01*
X14770000D02*
X14719200Y6490800D01*
X14820799D01*
X14770000Y6389200D01*
X14970000Y6309200D02*
X14919200Y6410800D01*
X15020799D01*
X14970000Y6309200D01*
X14870000D02*
X14819200Y6410800D01*
X14920799D01*
X14870000Y6309200D01*
Y6389200D02*
X14819200Y6490800D01*
X14920799D01*
X14870000Y6389200D01*
X14670000D02*
X14619200Y6490800D01*
X14720799D01*
X14670000Y6389200D01*
X14770000Y6309200D02*
X14719200Y6410800D01*
X14820799D01*
X14770000Y6309200D01*
X14670000D02*
X14619200Y6410800D01*
X14720799D01*
X14670000Y6309200D01*
X15600000Y8909200D02*
X15549200Y9010800D01*
X15650800D01*
X15600000Y8909200D01*
X15500000D02*
X15449200Y9010800D01*
X15550800D01*
X15500000Y8909200D01*
X15700000Y8829200D02*
X15649200Y8930800D01*
X15750800D01*
X15700000Y8829200D01*
X15600000D02*
X15549200Y8930800D01*
X15650800D01*
X15600000Y8829200D01*
X15500000D02*
X15449200Y8930800D01*
X15550800D01*
X15500000Y8829200D01*
X15700000Y8909200D02*
X15649200Y9010800D01*
X15750800D01*
X15700000Y8909200D01*
X15400000D02*
X15349200Y9010800D01*
X15450800D01*
X15400000Y8909200D01*
Y8829200D02*
X15349200Y8930800D01*
X15450800D01*
X15400000Y8829200D01*
X15700000Y9069200D02*
X15649200Y9170800D01*
X15750800D01*
X15700000Y9069200D01*
X15500000D02*
X15449200Y9170800D01*
X15550800D01*
X15500000Y9069200D01*
X15700000Y8989200D02*
X15649200Y9090800D01*
X15750800D01*
X15700000Y8989200D01*
X15600000D02*
X15549200Y9090800D01*
X15650800D01*
X15600000Y8989200D01*
Y9069200D02*
X15549200Y9170800D01*
X15650800D01*
X15600000Y9069200D01*
X15400000D02*
X15349200Y9170800D01*
X15450800D01*
X15400000Y9069200D01*
X15500000Y8989200D02*
X15449200Y9090800D01*
X15550800D01*
X15500000Y8989200D01*
X15400000D02*
X15349200Y9090800D01*
X15450800D01*
X15400000Y8989200D01*
X12920000Y5659200D02*
X12869200Y5760800D01*
X12970799D01*
X12920000Y5659200D01*
X10250000Y5669200D02*
X10199200Y5770800D01*
X10300800D01*
X10250000Y5669200D01*
X14839999Y9769200D02*
X14789200Y9870800D01*
X14890800D01*
X14839999Y9769200D01*
X12900000Y7629200D02*
X12849200Y7730800D01*
X12950800D01*
X12900000Y7629200D01*
Y7929200D02*
X12849200Y8030800D01*
X12950800D01*
X12900000Y7929200D01*
Y7019200D02*
X12849200Y7120800D01*
X12950800D01*
X12900000Y7019200D01*
Y7319200D02*
X12849200Y7420800D01*
X12950800D01*
X12900000Y7319200D01*
X13710001Y7529200D02*
X13659200Y7630800D01*
X13760800D01*
X13710001Y7529200D01*
X13680000Y7949200D02*
X13629201Y8050800D01*
X13730800D01*
X13680000Y7949200D01*
X13580000D02*
X13529201Y8050800D01*
X13630800D01*
X13580000Y7949200D01*
X12082501Y7694807D02*
X12031701Y7796407D01*
X12133301D01*
X12082501Y7694807D01*
X11955501Y7221593D02*
X11904701Y7323193D01*
X12006301D01*
X11955501Y7221593D01*
X14480000Y12069200D02*
X14429201Y12170800D01*
X14530800D01*
X14480000Y12069200D01*
Y12149200D02*
X14429201Y12250800D01*
X14530800D01*
X14480000Y12149200D01*
X14780000D02*
X14729201Y12250800D01*
X14830800D01*
X14780000Y12149200D01*
X14680000Y12069200D02*
X14629201Y12170800D01*
X14730800D01*
X14680000Y12069200D01*
X14580000D02*
X14529201Y12170800D01*
X14630800D01*
X14580000Y12069200D01*
X14780000D02*
X14729201Y12170800D01*
X14830800D01*
X14780000Y12069200D01*
X14580000Y12149200D02*
X14529201Y12250800D01*
X14630800D01*
X14580000Y12149200D01*
X14680000D02*
X14629201Y12250800D01*
X14730800D01*
X14680000Y12149200D01*
X15550000Y11839200D02*
X15499200Y11940800D01*
X15600800D01*
X15550000Y11839200D01*
X15250000D02*
X15199200Y11940800D01*
X15300800D01*
X15250000Y11839200D01*
X15550000Y11759200D02*
X15499200Y11860800D01*
X15600800D01*
X15550000Y11759200D01*
X15450000D02*
X15399200Y11860800D01*
X15500800D01*
X15450000Y11759200D01*
X15350000D02*
X15299200Y11860800D01*
X15400800D01*
X15350000Y11759200D01*
X15450000Y11839200D02*
X15399200Y11940800D01*
X15500800D01*
X15450000Y11839200D01*
X15350000D02*
X15299200Y11940800D01*
X15400800D01*
X15350000Y11839200D01*
X15250000Y11759200D02*
X15199200Y11860800D01*
X15300800D01*
X15250000Y11759200D01*
X12380000Y11949200D02*
X12329200Y12050800D01*
X12430800D01*
X12380000Y11949200D01*
Y12049200D02*
X12329200Y12150800D01*
X12430800D01*
X12380000Y12049200D01*
X12300000Y11949200D02*
X12249200Y12050800D01*
X12350800D01*
X12300000Y11949200D01*
Y12049200D02*
X12249200Y12150800D01*
X12350800D01*
X12300000Y12049200D01*
Y12149200D02*
X12249200Y12250800D01*
X12350800D01*
X12300000Y12149200D01*
X12380000D02*
X12329200Y12250800D01*
X12430800D01*
X12380000Y12149200D01*
Y12249200D02*
X12329200Y12350800D01*
X12430800D01*
X12380000Y12249200D01*
X12300000D02*
X12249200Y12350800D01*
X12350800D01*
X12300000Y12249200D01*
X12080000Y11939200D02*
X12029200Y12040800D01*
X12130800D01*
X12080000Y11939200D01*
X12000000D02*
X11949200Y12040800D01*
X12050800D01*
X12000000Y11939200D01*
Y12039200D02*
X11949200Y12140800D01*
X12050800D01*
X12000000Y12039200D01*
Y12139200D02*
X11949200Y12240800D01*
X12050800D01*
X12000000Y12139200D01*
X12080000D02*
X12029200Y12240800D01*
X12130800D01*
X12080000Y12139200D01*
Y12039200D02*
X12029200Y12140800D01*
X12130800D01*
X12080000Y12039200D01*
Y12239200D02*
X12029200Y12340800D01*
X12130800D01*
X12080000Y12239200D01*
X12000000D02*
X11949200Y12340800D01*
X12050800D01*
X12000000Y12239200D01*
X10310000Y12159200D02*
X10259200Y12260800D01*
X10360800D01*
X10310000Y12159200D01*
Y12239200D02*
X10259200Y12340800D01*
X10360800D01*
X10310000Y12239200D01*
X10410000D02*
X10359200Y12340800D01*
X10460800D01*
X10410000Y12239200D01*
X10510000Y12159200D02*
X10459200Y12260800D01*
X10560800D01*
X10510000Y12159200D01*
X10610000D02*
X10559200Y12260800D01*
X10660800D01*
X10610000Y12159200D01*
X10410000D02*
X10359200Y12260800D01*
X10460800D01*
X10410000Y12159200D01*
X10510000Y12239200D02*
X10459200Y12340800D01*
X10560800D01*
X10510000Y12239200D01*
X10610000D02*
X10559200Y12340800D01*
X10660800D01*
X10610000Y12239200D01*
X10990000Y10399200D02*
X10939200Y10500800D01*
X11040800D01*
X10990000Y10399200D01*
Y10299200D02*
X10939200Y10400800D01*
X11040800D01*
X10990000Y10299200D01*
Y10199200D02*
X10939200Y10300800D01*
X11040800D01*
X10990000Y10199200D01*
Y10099200D02*
X10939200Y10200800D01*
X11040800D01*
X10990000Y10099200D01*
X11070000Y10399200D02*
X11019200Y10500800D01*
X11120800D01*
X11070000Y10399200D01*
Y10299200D02*
X11019200Y10400800D01*
X11120800D01*
X11070000Y10299200D01*
Y10199200D02*
X11019200Y10300800D01*
X11120800D01*
X11070000Y10199200D01*
Y10099200D02*
X11019200Y10200800D01*
X11120800D01*
X11070000Y10099200D01*
X11180000Y10399200D02*
X11129200Y10500800D01*
X11230800D01*
X11180000Y10399200D01*
Y10099200D02*
X11129200Y10200800D01*
X11230800D01*
X11180000Y10099200D01*
X11260000Y10399200D02*
X11209200Y10500800D01*
X11310800D01*
X11260000Y10399200D01*
Y10299200D02*
X11209200Y10400800D01*
X11310800D01*
X11260000Y10299200D01*
Y10199200D02*
X11209200Y10300800D01*
X11310800D01*
X11260000Y10199200D01*
Y10099200D02*
X11209200Y10200800D01*
X11310800D01*
X11260000Y10099200D01*
X11180000Y10299200D02*
X11129200Y10400800D01*
X11230800D01*
X11180000Y10299200D01*
Y10199200D02*
X11129200Y10300800D01*
X11230800D01*
X11180000Y10199200D01*
X13900000Y10179200D02*
X13849200Y10280800D01*
X13950800D01*
X13900000Y10179200D01*
X13800000D02*
X13749200Y10280800D01*
X13850800D01*
X13800000Y10179200D01*
X13900000Y10099200D02*
X13849200Y10200800D01*
X13950800D01*
X13900000Y10099200D01*
X13700000D02*
X13649200Y10200800D01*
X13750800D01*
X13700000Y10099200D01*
X13600000D02*
X13549200Y10200800D01*
X13650800D01*
X13600000Y10099200D01*
X13700000Y10179200D02*
X13649200Y10280800D01*
X13750800D01*
X13700000Y10179200D01*
X13600000D02*
X13549200Y10280800D01*
X13650800D01*
X13600000Y10179200D01*
X13800000Y10099200D02*
X13749200Y10200800D01*
X13850800D01*
X13800000Y10099200D01*
X13520000Y10179200D02*
X13469200Y10280800D01*
X13570799D01*
X13520000Y10179200D01*
X13420000D02*
X13369200Y10280800D01*
X13470799D01*
X13420000Y10179200D01*
X13520000Y10099200D02*
X13469200Y10200800D01*
X13570799D01*
X13520000Y10099200D01*
X13420000D02*
X13369200Y10200800D01*
X13470799D01*
X13420000Y10099200D01*
X13320000D02*
X13269200Y10200800D01*
X13370799D01*
X13320000Y10099200D01*
X13220000D02*
X13169200Y10200800D01*
X13270799D01*
X13220000Y10099200D01*
X13320000Y10179200D02*
X13269200Y10280800D01*
X13370799D01*
X13320000Y10179200D01*
X13220000D02*
X13169200Y10280800D01*
X13270799D01*
X13220000Y10179200D01*
X12700000Y10279200D02*
X12649200Y10380800D01*
X12750800D01*
X12700000Y10279200D01*
X12600000D02*
X12549200Y10380800D01*
X12650800D01*
X12600000Y10279200D01*
X12500000D02*
X12449200Y10380800D01*
X12550800D01*
X12500000Y10279200D01*
X12400000D02*
X12349200Y10380800D01*
X12450800D01*
X12400000Y10279200D01*
X12700000Y10199200D02*
X12649200Y10300800D01*
X12750800D01*
X12700000Y10199200D01*
X12600000D02*
X12549200Y10300800D01*
X12650800D01*
X12600000Y10199200D01*
X12400000D02*
X12349200Y10300800D01*
X12450800D01*
X12400000Y10199200D01*
X12500000D02*
X12449200Y10300800D01*
X12550800D01*
X12500000Y10199200D01*
X13220000Y11539200D02*
X13169200Y11640800D01*
X13270799D01*
X13220000Y11539200D01*
Y11459200D02*
X13169200Y11560800D01*
X13270799D01*
X13220000Y11459200D01*
X12920000Y11539200D02*
X12869200Y11640800D01*
X12970799D01*
X12920000Y11539200D01*
X13120000D02*
X13069200Y11640800D01*
X13170799D01*
X13120000Y11539200D01*
X13020000D02*
X12969200Y11640800D01*
X13070799D01*
X13020000Y11539200D01*
X13120000Y11459200D02*
X13069200Y11560800D01*
X13170799D01*
X13120000Y11459200D01*
X13020000D02*
X12969200Y11560800D01*
X13070799D01*
X13020000Y11459200D01*
X12920000D02*
X12869200Y11560800D01*
X12970799D01*
X12920000Y11459200D01*
X13370000Y12109200D02*
X13319200Y12210800D01*
X13420799D01*
X13370000Y12109200D01*
X13470000D02*
X13419200Y12210800D01*
X13520799D01*
X13470000Y12109200D01*
X13370000Y12189200D02*
X13319200Y12290800D01*
X13420799D01*
X13370000Y12189200D01*
X13570000D02*
X13519200Y12290800D01*
X13620799D01*
X13570000Y12189200D01*
Y12109200D02*
X13519200Y12210800D01*
X13620799D01*
X13570000Y12109200D01*
X13670000D02*
X13619200Y12210800D01*
X13720799D01*
X13670000Y12109200D01*
X13470000Y12189200D02*
X13419200Y12290800D01*
X13520799D01*
X13470000Y12189200D01*
X13670000D02*
X13619200Y12290800D01*
X13720799D01*
X13670000Y12189200D01*
X13370000Y11949200D02*
X13319200Y12050800D01*
X13420799D01*
X13370000Y11949200D01*
Y12029200D02*
X13319200Y12130800D01*
X13420799D01*
X13370000Y12029200D01*
X13670000D02*
X13619200Y12130800D01*
X13720799D01*
X13670000Y12029200D01*
X13470000Y11949200D02*
X13419200Y12050800D01*
X13520799D01*
X13470000Y11949200D01*
X13570000D02*
X13519200Y12050800D01*
X13620799D01*
X13570000Y11949200D01*
X13670000D02*
X13619200Y12050800D01*
X13720799D01*
X13670000Y11949200D01*
X13470000Y12029200D02*
X13419200Y12130800D01*
X13520799D01*
X13470000Y12029200D01*
X13570000D02*
X13519200Y12130800D01*
X13620799D01*
X13570000Y12029200D01*
X13470000Y11009200D02*
X13419200Y11110800D01*
X13520799D01*
X13470000Y11009200D01*
X13670000D02*
X13619200Y11110800D01*
X13720799D01*
X13670000Y11009200D01*
X13770000D02*
X13719200Y11110800D01*
X13820799D01*
X13770000Y11009200D01*
X13470000Y11089200D02*
X13419200Y11190800D01*
X13520799D01*
X13470000Y11089200D01*
X13570000D02*
X13519200Y11190800D01*
X13620799D01*
X13570000Y11089200D01*
X13670000D02*
X13619200Y11190800D01*
X13720799D01*
X13670000Y11089200D01*
X13770000D02*
X13719200Y11190800D01*
X13820799D01*
X13770000Y11089200D01*
X13570000Y11009200D02*
X13519200Y11110800D01*
X13620799D01*
X13570000Y11009200D01*
X13470000Y11169200D02*
X13419200Y11270800D01*
X13520799D01*
X13470000Y11169200D01*
X13770000D02*
X13719200Y11270800D01*
X13820799D01*
X13770000Y11169200D01*
X13470000Y11249200D02*
X13419200Y11350800D01*
X13520799D01*
X13470000Y11249200D01*
X13570000D02*
X13519200Y11350800D01*
X13620799D01*
X13570000Y11249200D01*
X13670000D02*
X13619200Y11350800D01*
X13720799D01*
X13670000Y11249200D01*
X13770000D02*
X13719200Y11350800D01*
X13820799D01*
X13770000Y11249200D01*
X13570000Y11169200D02*
X13519200Y11270800D01*
X13620799D01*
X13570000Y11169200D01*
X13670000D02*
X13619200Y11270800D01*
X13720799D01*
X13670000Y11169200D01*
X13070000D02*
X13019200Y11270800D01*
X13120799D01*
X13070000Y11169200D01*
Y11249200D02*
X13019200Y11350800D01*
X13120799D01*
X13070000Y11249200D01*
X13170000D02*
X13119200Y11350800D01*
X13220799D01*
X13170000Y11249200D01*
X13270000D02*
X13219200Y11350800D01*
X13320799D01*
X13270000Y11249200D01*
X13370000D02*
X13319200Y11350800D01*
X13420799D01*
X13370000Y11249200D01*
X13170000Y11169200D02*
X13119200Y11270800D01*
X13220799D01*
X13170000Y11169200D01*
X13270000D02*
X13219200Y11270800D01*
X13320799D01*
X13270000Y11169200D01*
X13370000D02*
X13319200Y11270800D01*
X13420799D01*
X13370000Y11169200D01*
X13180000Y10709200D02*
X13129201Y10810800D01*
X13230800D01*
X13180000Y10709200D01*
X13260001D02*
X13209200Y10810800D01*
X13310800D01*
X13260001Y10709200D01*
X13180000Y10609200D02*
X13129201Y10710800D01*
X13230800D01*
X13180000Y10609200D01*
Y10509200D02*
X13129201Y10610800D01*
X13230800D01*
X13180000Y10509200D01*
Y10409200D02*
X13129201Y10510800D01*
X13230800D01*
X13180000Y10409200D01*
X13260001Y10609200D02*
X13209200Y10710800D01*
X13310800D01*
X13260001Y10609200D01*
Y10509200D02*
X13209200Y10610800D01*
X13310800D01*
X13260001Y10509200D01*
Y10409200D02*
X13209200Y10510800D01*
X13310800D01*
X13260001Y10409200D01*
X13470000Y11829200D02*
X13419200Y11930800D01*
X13520799D01*
X13470000Y11829200D01*
Y11629200D02*
X13419200Y11730800D01*
X13520799D01*
X13470000Y11629200D01*
X13550000Y11829200D02*
X13499200Y11930800D01*
X13600800D01*
X13550000Y11829200D01*
Y11529200D02*
X13499200Y11630800D01*
X13600800D01*
X13550000Y11529200D01*
X13470000D02*
X13419200Y11630800D01*
X13520799D01*
X13470000Y11529200D01*
Y11729200D02*
X13419200Y11830800D01*
X13520799D01*
X13470000Y11729200D01*
X13550000D02*
X13499200Y11830800D01*
X13600800D01*
X13550000Y11729200D01*
Y11629200D02*
X13499200Y11730800D01*
X13600800D01*
X13550000Y11629200D01*
X15870000Y9969200D02*
X15819200Y10070800D01*
X15920799D01*
X15870000Y9969200D01*
X15670000D02*
X15619200Y10070800D01*
X15720799D01*
X15670000Y9969200D01*
X15870000Y9889200D02*
X15819200Y9990800D01*
X15920799D01*
X15870000Y9889200D01*
X15670000D02*
X15619200Y9990800D01*
X15720799D01*
X15670000Y9889200D01*
X15570000Y9969200D02*
X15519200Y10070800D01*
X15620799D01*
X15570000Y9969200D01*
X15770000D02*
X15719200Y10070800D01*
X15820799D01*
X15770000Y9969200D01*
Y9889200D02*
X15719200Y9990800D01*
X15820799D01*
X15770000Y9889200D01*
X15570000D02*
X15519200Y9990800D01*
X15620799D01*
X15570000Y9889200D01*
X16670000Y9719200D02*
X16619200Y9820800D01*
X16720799D01*
X16670000Y9719200D01*
X16370000D02*
X16319200Y9820800D01*
X16420799D01*
X16370000Y9719200D01*
X16670000Y9639200D02*
X16619200Y9740800D01*
X16720799D01*
X16670000Y9639200D01*
X16570000D02*
X16519200Y9740800D01*
X16620799D01*
X16570000Y9639200D01*
X16370000D02*
X16319200Y9740800D01*
X16420799D01*
X16370000Y9639200D01*
X16570000Y9719200D02*
X16519200Y9820800D01*
X16620799D01*
X16570000Y9719200D01*
X16470000D02*
X16419200Y9820800D01*
X16520799D01*
X16470000Y9719200D01*
Y9639200D02*
X16419200Y9740800D01*
X16520799D01*
X16470000Y9639200D01*
X16670000Y9959200D02*
X16619200Y10060800D01*
X16720799D01*
X16670000Y9959200D01*
X16470000D02*
X16419200Y10060800D01*
X16520799D01*
X16470000Y9959200D01*
X16370000D02*
X16319200Y10060800D01*
X16420799D01*
X16370000Y9959200D01*
X16670000Y9879200D02*
X16619200Y9980800D01*
X16720799D01*
X16670000Y9879200D01*
X16570000D02*
X16519200Y9980800D01*
X16620799D01*
X16570000Y9879200D01*
X16370000D02*
X16319200Y9980800D01*
X16420799D01*
X16370000Y9879200D01*
X16570000Y9959200D02*
X16519200Y10060800D01*
X16620799D01*
X16570000Y9959200D01*
X16470000Y9879200D02*
X16419200Y9980800D01*
X16520799D01*
X16470000Y9879200D01*
X16669000Y10237200D02*
X16618201Y10338800D01*
X16719800D01*
X16669000Y10237200D01*
X16469000D02*
X16418201Y10338800D01*
X16519800D01*
X16469000Y10237200D01*
X16369000D02*
X16318201Y10338800D01*
X16419800D01*
X16369000Y10237200D01*
X16670000Y10161200D02*
X16619200Y10262800D01*
X16720799D01*
X16670000Y10161200D01*
X16569000Y10237200D02*
X16518201Y10338800D01*
X16619800D01*
X16569000Y10237200D01*
X16570000Y10161200D02*
X16519200Y10262800D01*
X16620799D01*
X16570000Y10161200D01*
X16470000D02*
X16419200Y10262800D01*
X16520799D01*
X16470000Y10161200D01*
X16370000D02*
X16319200Y10262800D01*
X16420799D01*
X16370000Y10161200D01*
X15030000Y9769200D02*
X14979201Y9870800D01*
X15080800D01*
X15030000Y9769200D01*
X14370000Y9779200D02*
X14319200Y9880800D01*
X14420799D01*
X14370000Y9779200D01*
X13480000D02*
X13429201Y9880800D01*
X13530800D01*
X13480000Y9779200D01*
X12760000D02*
X12709200Y9880800D01*
X12810800D01*
X12760000Y9779200D01*
X12340000Y7999200D02*
X12289200Y8100800D01*
X12390800D01*
X12340000Y7999200D01*
X12440000D02*
X12389200Y8100800D01*
X12490800D01*
X12440000Y7999200D01*
X12590000Y7859200D02*
X12539200Y7960800D01*
X12640800D01*
X12590000Y7859200D01*
X12340000Y7069200D02*
X12289200Y7170800D01*
X12390800D01*
X12340000Y7069200D01*
X11955501Y7694807D02*
X11904701Y7796407D01*
X12006301D01*
X11955501Y7694807D01*
X12290000Y5109200D02*
X12239200Y5210800D01*
X12340800D01*
X12290000Y5109200D01*
X12340000Y5209200D02*
X12289200Y5310800D01*
X12390800D01*
X12340000Y5209200D01*
X12290000Y5309200D02*
X12239200Y5410800D01*
X12340800D01*
X12290000Y5309200D01*
X12240000Y5209200D02*
X12189200Y5310800D01*
X12290800D01*
X12240000Y5209200D01*
X12190000Y5309200D02*
X12139200Y5410800D01*
X12240800D01*
X12190000Y5309200D01*
X12140000Y5209200D02*
X12089200Y5310800D01*
X12190800D01*
X12140000Y5209200D01*
X12190000Y5109200D02*
X12139200Y5210800D01*
X12240800D01*
X12190000Y5109200D01*
X12090000Y5309200D02*
X12039200Y5410800D01*
X12140800D01*
X12090000Y5309200D01*
X12040000Y5209200D02*
X11989200Y5310800D01*
X12090800D01*
X12040000Y5209200D01*
X12090000Y5109200D02*
X12039200Y5210800D01*
X12140800D01*
X12090000Y5109200D01*
X11990000D02*
X11939200Y5210800D01*
X12040800D01*
X11990000Y5109200D01*
X11440000Y5489200D02*
X11389200Y5590800D01*
X11490800D01*
X11440000Y5489200D01*
X11640000D02*
X11589200Y5590800D01*
X11690800D01*
X11640000Y5489200D01*
X11490000Y5389200D02*
X11439200Y5490800D01*
X11540800D01*
X11490000Y5389200D01*
X11540000Y5489200D02*
X11489200Y5590800D01*
X11590800D01*
X11540000Y5489200D01*
X11590000Y5389200D02*
X11539200Y5490800D01*
X11640800D01*
X11590000Y5389200D01*
X11690000D02*
X11639200Y5490800D01*
X11740800D01*
X11690000Y5389200D01*
X11740000Y5489200D02*
X11689200Y5590800D01*
X11790800D01*
X11740000Y5489200D01*
X11940000D02*
X11889200Y5590800D01*
X11990800D01*
X11940000Y5489200D01*
X11790000Y5389200D02*
X11739200Y5490800D01*
X11840800D01*
X11790000Y5389200D01*
X11840000Y5489200D02*
X11789200Y5590800D01*
X11890800D01*
X11840000Y5489200D01*
X11890000Y5389200D02*
X11839200Y5490800D01*
X11940800D01*
X11890000Y5389200D01*
X12340000Y5489200D02*
X12289200Y5590800D01*
X12390800D01*
X12340000Y5489200D01*
X12040000D02*
X11989200Y5590800D01*
X12090800D01*
X12040000Y5489200D01*
X12240000D02*
X12189200Y5590800D01*
X12290800D01*
X12240000Y5489200D01*
X12090000Y5389200D02*
X12039200Y5490800D01*
X12140800D01*
X12090000Y5389200D01*
X12140000Y5489200D02*
X12089200Y5590800D01*
X12190800D01*
X12140000Y5489200D01*
X12190000Y5389200D02*
X12139200Y5490800D01*
X12240800D01*
X12190000Y5389200D01*
X11990000D02*
X11939200Y5490800D01*
X12040800D01*
X11990000Y5389200D01*
X12240000Y4629200D02*
X12189200Y4730800D01*
X12290800D01*
X12240000Y4629200D01*
X12290000Y4729200D02*
X12239200Y4830800D01*
X12340800D01*
X12290000Y4729200D01*
Y4529200D02*
X12239200Y4630800D01*
X12340800D01*
X12290000Y4529200D01*
X12190000Y4729200D02*
X12139200Y4830800D01*
X12240800D01*
X12190000Y4729200D01*
X12140000Y4629200D02*
X12089200Y4730800D01*
X12190800D01*
X12140000Y4629200D01*
X12190000Y4529200D02*
X12139200Y4630800D01*
X12240800D01*
X12190000Y4529200D01*
X12090000Y4729200D02*
X12039200Y4830800D01*
X12140800D01*
X12090000Y4729200D01*
X12040000Y4629200D02*
X11989200Y4730800D01*
X12090800D01*
X12040000Y4629200D01*
X12090000Y4529200D02*
X12039200Y4630800D01*
X12140800D01*
X12090000Y4529200D01*
X11990000Y4729200D02*
X11939200Y4830800D01*
X12040800D01*
X11990000Y4729200D01*
Y4529200D02*
X11939200Y4630800D01*
X12040800D01*
X11990000Y4529200D01*
X12500000Y4639200D02*
X12449200Y4740800D01*
X12550800D01*
X12500000Y4639200D01*
X12340000Y4629200D02*
X12289200Y4730800D01*
X12390800D01*
X12340000Y4629200D01*
X11890000Y4729200D02*
X11839200Y4830800D01*
X11940800D01*
X11890000Y4729200D01*
X11790000Y4529200D02*
X11739200Y4630800D01*
X11840800D01*
X11790000Y4529200D01*
X11840000Y4629200D02*
X11789200Y4730800D01*
X11890800D01*
X11840000Y4629200D01*
X11890000Y4529200D02*
X11839200Y4630800D01*
X11940800D01*
X11890000Y4529200D01*
X11790000Y4729200D02*
X11739200Y4830800D01*
X11840800D01*
X11790000Y4729200D01*
X11740000Y4629200D02*
X11689200Y4730800D01*
X11790800D01*
X11740000Y4629200D01*
X11690000Y4729200D02*
X11639200Y4830800D01*
X11740800D01*
X11690000Y4729200D01*
X11640000Y4629200D02*
X11589200Y4730800D01*
X11690800D01*
X11640000Y4629200D01*
X11690000Y4529200D02*
X11639200Y4630800D01*
X11740800D01*
X11690000Y4529200D01*
X11340000Y4629200D02*
X11289200Y4730800D01*
X11390800D01*
X11340000Y4629200D01*
X11540000D02*
X11489200Y4730800D01*
X11590800D01*
X11540000Y4629200D01*
X11590000Y4529200D02*
X11539200Y4630800D01*
X11640800D01*
X11590000Y4529200D01*
X11440000Y4629200D02*
X11389200Y4730800D01*
X11490800D01*
X11440000Y4629200D01*
X11490000Y4529200D02*
X11439200Y4630800D01*
X11540800D01*
X11490000Y4529200D01*
X11390000Y4729200D02*
X11339200Y4830800D01*
X11440800D01*
X11390000Y4729200D01*
Y4529200D02*
X11339200Y4630800D01*
X11440800D01*
X11390000Y4529200D01*
X11490000Y4729200D02*
X11439200Y4830800D01*
X11540800D01*
X11490000Y4729200D01*
X11590000D02*
X11539200Y4830800D01*
X11640800D01*
X11590000Y4729200D01*
X11560000Y4149200D02*
X11509200Y4250800D01*
X11610800D01*
X11560000Y4149200D01*
X11990000Y5019200D02*
X11939200Y5120800D01*
X12040800D01*
X11990000Y5019200D01*
X11940000Y4919200D02*
X11889200Y5020800D01*
X11990800D01*
X11940000Y4919200D01*
X11990000Y4819200D02*
X11939200Y4920800D01*
X12040800D01*
X11990000Y4819200D01*
X11890000D02*
X11839200Y4920800D01*
X11940800D01*
X11890000Y4819200D01*
X11940000Y4629200D02*
X11889200Y4730800D01*
X11990800D01*
X11940000Y4629200D01*
X11890000Y5019200D02*
X11839200Y5120800D01*
X11940800D01*
X11890000Y5019200D01*
X11490000D02*
X11439200Y5120800D01*
X11540800D01*
X11490000Y5019200D01*
X11790000D02*
X11739200Y5120800D01*
X11840800D01*
X11790000Y5019200D01*
X11690000D02*
X11639200Y5120800D01*
X11740800D01*
X11690000Y5019200D01*
X11590000D02*
X11539200Y5120800D01*
X11640800D01*
X11590000Y5019200D01*
X11390000D02*
X11339200Y5120800D01*
X11440800D01*
X11390000Y5019200D01*
X11340000Y4919200D02*
X11289200Y5020800D01*
X11390800D01*
X11340000Y4919200D01*
X11840000D02*
X11789200Y5020800D01*
X11890800D01*
X11840000Y4919200D01*
X11740000D02*
X11689200Y5020800D01*
X11790800D01*
X11740000Y4919200D01*
X11790000Y4819200D02*
X11739200Y4920800D01*
X11840800D01*
X11790000Y4819200D01*
X11640000Y4919200D02*
X11589200Y5020800D01*
X11690800D01*
X11640000Y4919200D01*
X11690000Y4819200D02*
X11639200Y4920800D01*
X11740800D01*
X11690000Y4819200D01*
X11540000Y4919200D02*
X11489200Y5020800D01*
X11590800D01*
X11540000Y4919200D01*
X11590000Y4819200D02*
X11539200Y4920800D01*
X11640800D01*
X11590000Y4819200D01*
X11440000Y4919200D02*
X11389200Y5020800D01*
X11490800D01*
X11440000Y4919200D01*
X11490000Y4819200D02*
X11439200Y4920800D01*
X11540800D01*
X11490000Y4819200D01*
X11390000D02*
X11339200Y4920800D01*
X11440800D01*
X11390000Y4819200D01*
X12290000D02*
X12239200Y4920800D01*
X12340800D01*
X12290000Y4819200D01*
X12690000Y5039200D02*
X12639200Y5140800D01*
X12740800D01*
X12690000Y5039200D01*
X12770000D02*
X12719200Y5140800D01*
X12820799D01*
X12770000Y5039200D01*
X12340000Y4919200D02*
X12289200Y5020800D01*
X12390800D01*
X12340000Y4919200D01*
X12290000Y5019200D02*
X12239200Y5120800D01*
X12340800D01*
X12290000Y5019200D01*
X12240000Y4919200D02*
X12189200Y5020800D01*
X12290800D01*
X12240000Y4919200D01*
X12190000Y5019200D02*
X12139200Y5120800D01*
X12240800D01*
X12190000Y5019200D01*
X12140000Y4919200D02*
X12089200Y5020800D01*
X12190800D01*
X12140000Y4919200D01*
X12190000Y4819200D02*
X12139200Y4920800D01*
X12240800D01*
X12190000Y4819200D01*
X12090000Y5019200D02*
X12039200Y5120800D01*
X12140800D01*
X12090000Y5019200D01*
X12040000Y4919200D02*
X11989200Y5020800D01*
X12090800D01*
X12040000Y4919200D01*
X12090000Y4819200D02*
X12039200Y4920800D01*
X12140800D01*
X12090000Y4819200D01*
X11990000Y5309200D02*
X11939200Y5410800D01*
X12040800D01*
X11990000Y5309200D01*
X11790000D02*
X11739200Y5410800D01*
X11840800D01*
X11790000Y5309200D01*
X11940000Y5209200D02*
X11889200Y5310800D01*
X11990800D01*
X11940000Y5209200D01*
X11890000Y5309200D02*
X11839200Y5410800D01*
X11940800D01*
X11890000Y5309200D01*
X11840000Y5209200D02*
X11789200Y5310800D01*
X11890800D01*
X11840000Y5209200D01*
X11890000Y5109200D02*
X11839200Y5210800D01*
X11940800D01*
X11890000Y5109200D01*
X11740000Y5209200D02*
X11689200Y5310800D01*
X11790800D01*
X11740000Y5209200D01*
X11790000Y5109200D02*
X11739200Y5210800D01*
X11840800D01*
X11790000Y5109200D01*
X11690000Y5309200D02*
X11639200Y5410800D01*
X11740800D01*
X11690000Y5309200D01*
Y5109200D02*
X11639200Y5210800D01*
X11740800D01*
X11690000Y5109200D01*
X11440000Y5209200D02*
X11389200Y5310800D01*
X11490800D01*
X11440000Y5209200D01*
X11640000D02*
X11589200Y5310800D01*
X11690800D01*
X11640000Y5209200D01*
X11590000Y5309200D02*
X11539200Y5410800D01*
X11640800D01*
X11590000Y5309200D01*
X11540000Y5209200D02*
X11489200Y5310800D01*
X11590800D01*
X11540000Y5209200D01*
X11590000Y5109200D02*
X11539200Y5210800D01*
X11640800D01*
X11590000Y5109200D01*
X11490000Y5309200D02*
X11439200Y5410800D01*
X11540800D01*
X11490000Y5309200D01*
Y5109200D02*
X11439200Y5210800D01*
X11540800D01*
X11490000Y5109200D01*
X11390000Y5309200D02*
X11339200Y5410800D01*
X11440800D01*
X11390000Y5309200D01*
X11340000Y5209200D02*
X11289200Y5310800D01*
X11390800D01*
X11340000Y5209200D01*
X11390000Y5109200D02*
X11339200Y5210800D01*
X11440800D01*
X11390000Y5109200D01*
Y5389200D02*
X11339200Y5490800D01*
X11440800D01*
X11390000Y5389200D01*
X11340000Y5489200D02*
X11289200Y5590800D01*
X11390800D01*
X11340000Y5489200D01*
X12340000Y4039200D02*
X12289200Y4140800D01*
X12390800D01*
X12340000Y4039200D01*
X12140000D02*
X12089200Y4140800D01*
X12190800D01*
X12140000Y4039200D01*
X11240000Y3699200D02*
X11189200Y3800800D01*
X11290800D01*
X11240000Y3699200D01*
Y3899200D02*
X11189200Y4000800D01*
X11290800D01*
X11240000Y3899200D01*
Y3799200D02*
X11189200Y3900800D01*
X11290800D01*
X11240000Y3799200D01*
Y3599200D02*
X11189200Y3700800D01*
X11290800D01*
X11240000Y3599200D01*
Y3499200D02*
X11189200Y3600800D01*
X11290800D01*
X11240000Y3499200D01*
Y3399200D02*
X11189200Y3500800D01*
X11290800D01*
X11240000Y3399200D01*
X11250000Y2869200D02*
X11199200Y2970800D01*
X11300800D01*
X11250000Y2869200D01*
X11350000Y2949200D02*
X11299200Y3050800D01*
X11400800D01*
X11350000Y2949200D01*
X11250000D02*
X11199200Y3050800D01*
X11300800D01*
X11250000Y2949200D01*
X11240000Y3199200D02*
X11189200Y3300800D01*
X11290800D01*
X11240000Y3199200D01*
X11350000Y2869200D02*
X11299200Y2970800D01*
X11400800D01*
X11350000Y2869200D01*
X11240000Y3299200D02*
X11189200Y3400800D01*
X11290800D01*
X11240000Y3299200D01*
X11860000Y3189200D02*
X11809200Y3290800D01*
X11910800D01*
X11860000Y3189200D01*
X11760000Y3139200D02*
X11709200Y3240800D01*
X11810800D01*
X11760000Y3139200D01*
X11660000Y3189200D02*
X11609200Y3290800D01*
X11710800D01*
X11660000Y3189200D01*
X11760000Y3239200D02*
X11709200Y3340800D01*
X11810800D01*
X11760000Y3239200D01*
X11660000Y3289200D02*
X11609200Y3390800D01*
X11710800D01*
X11660000Y3289200D01*
X11760000Y3339200D02*
X11709200Y3440800D01*
X11810800D01*
X11760000Y3339200D01*
X11660000Y3389200D02*
X11609200Y3490800D01*
X11710800D01*
X11660000Y3389200D01*
X11760000Y3439200D02*
X11709200Y3540800D01*
X11810800D01*
X11760000Y3439200D01*
X11660000Y3489200D02*
X11609200Y3590800D01*
X11710800D01*
X11660000Y3489200D01*
X11760000Y3539200D02*
X11709200Y3640800D01*
X11810800D01*
X11760000Y3539200D01*
X11660000Y3589200D02*
X11609200Y3690800D01*
X11710800D01*
X11660000Y3589200D01*
X11760000Y3639200D02*
X11709200Y3740800D01*
X11810800D01*
X11760000Y3639200D01*
X11860000Y3689200D02*
X11809200Y3790800D01*
X11910800D01*
X11860000Y3689200D01*
Y3289200D02*
X11809200Y3390800D01*
X11910800D01*
X11860000Y3289200D01*
Y3389200D02*
X11809200Y3490800D01*
X11910800D01*
X11860000Y3389200D01*
Y3489200D02*
X11809200Y3590800D01*
X11910800D01*
X11860000Y3489200D01*
Y3589200D02*
X11809200Y3690800D01*
X11910800D01*
X11860000Y3589200D01*
Y3789200D02*
X11809200Y3890800D01*
X11910800D01*
X11860000Y3789200D01*
Y3889200D02*
X11809200Y3990800D01*
X11910800D01*
X11860000Y3889200D01*
Y3989200D02*
X11809200Y4090800D01*
X11910800D01*
X11860000Y3989200D01*
Y4089200D02*
X11809200Y4190800D01*
X11910800D01*
X11860000Y4089200D01*
X11660000Y3889200D02*
X11609200Y3990800D01*
X11710800D01*
X11660000Y3889200D01*
Y3689200D02*
X11609200Y3790800D01*
X11710800D01*
X11660000Y3689200D01*
X11760000Y3739200D02*
X11709200Y3840800D01*
X11810800D01*
X11760000Y3739200D01*
X11660000Y3789200D02*
X11609200Y3890800D01*
X11710800D01*
X11660000Y3789200D01*
X11760000Y3839200D02*
X11709200Y3940800D01*
X11810800D01*
X11760000Y3839200D01*
Y3939200D02*
X11709200Y4040800D01*
X11810800D01*
X11760000Y3939200D01*
X11660000Y3989200D02*
X11609200Y4090800D01*
X11710800D01*
X11660000Y3989200D01*
X11760000Y4039200D02*
X11709200Y4140800D01*
X11810800D01*
X11760000Y4039200D01*
X11660000Y4089200D02*
X11609200Y4190800D01*
X11710800D01*
X11660000Y4089200D01*
X11760000Y4139201D02*
X11709200Y4240801D01*
X11810800D01*
X11760000Y4139201D01*
X11560000Y3449200D02*
X11509200Y3550800D01*
X11610800D01*
X11560000Y3449200D01*
Y3349200D02*
X11509200Y3450800D01*
X11610800D01*
X11560000Y3349200D01*
Y3149199D02*
X11509200Y3250799D01*
X11610800D01*
X11560000Y3149199D01*
Y3249199D02*
X11509200Y3350799D01*
X11610800D01*
X11560000Y3249199D01*
Y4049200D02*
X11509200Y4150800D01*
X11610800D01*
X11560000Y4049200D01*
Y3949200D02*
X11509200Y4050800D01*
X11610800D01*
X11560000Y3949200D01*
Y3849200D02*
X11509200Y3950800D01*
X11610800D01*
X11560000Y3849200D01*
Y3749200D02*
X11509200Y3850800D01*
X11610800D01*
X11560000Y3749200D01*
Y3649200D02*
X11509200Y3750800D01*
X11610800D01*
X11560000Y3649200D01*
Y3549200D02*
X11509200Y3650800D01*
X11610800D01*
X11560000Y3549200D01*
X11440000Y3999200D02*
X11389200Y4100800D01*
X11490800D01*
X11440000Y3999200D01*
Y3499200D02*
X11389200Y3600800D01*
X11490800D01*
X11440000Y3499200D01*
Y3599200D02*
X11389200Y3700800D01*
X11490800D01*
X11440000Y3599200D01*
Y3699200D02*
X11389200Y3800800D01*
X11490800D01*
X11440000Y3699200D01*
Y3799200D02*
X11389200Y3900800D01*
X11490800D01*
X11440000Y3799200D01*
Y3899200D02*
X11389200Y4000800D01*
X11490800D01*
X11440000Y3899200D01*
Y3399200D02*
X11389200Y3500800D01*
X11490800D01*
X11440000Y3399200D01*
Y3299200D02*
X11389200Y3400800D01*
X11490800D01*
X11440000Y3299200D01*
Y3199200D02*
X11389200Y3300800D01*
X11490800D01*
X11440000Y3199200D01*
X11340000Y3149200D02*
X11289200Y3250800D01*
X11390800D01*
X11340000Y3149200D01*
Y3349200D02*
X11289200Y3450800D01*
X11390800D01*
X11340000Y3349200D01*
Y3449200D02*
X11289200Y3550800D01*
X11390800D01*
X11340000Y3449200D01*
Y3549200D02*
X11289200Y3650800D01*
X11390800D01*
X11340000Y3549200D01*
Y3649200D02*
X11289200Y3750800D01*
X11390800D01*
X11340000Y3649200D01*
Y3749200D02*
X11289200Y3850800D01*
X11390800D01*
X11340000Y3749200D01*
Y3849200D02*
X11289200Y3950800D01*
X11390800D01*
X11340000Y3849200D01*
Y3949200D02*
X11289200Y4050800D01*
X11390800D01*
X11340000Y3949200D01*
Y3249200D02*
X11289200Y3350800D01*
X11390800D01*
X11340000Y3249200D01*
X13150000Y3759200D02*
X13099200Y3860800D01*
X13200800D01*
X13150000Y3759200D01*
X12340000Y3639200D02*
X12289200Y3740800D01*
X12390800D01*
X12340000Y3639200D01*
Y3939200D02*
X12289200Y4040800D01*
X12390800D01*
X12340000Y3939200D01*
Y3839200D02*
X12289200Y3940800D01*
X12390800D01*
X12340000Y3839200D01*
Y3739200D02*
X12289200Y3840800D01*
X12390800D01*
X12340000Y3739200D01*
X12040000Y3989200D02*
X11989200Y4090800D01*
X12090800D01*
X12040000Y3989200D01*
X12140000Y3939200D02*
X12089200Y4040800D01*
X12190800D01*
X12140000Y3939200D01*
X12240000Y3989200D02*
X12189200Y4090800D01*
X12290800D01*
X12240000Y3989200D01*
X12040000Y3889200D02*
X11989200Y3990800D01*
X12090800D01*
X12040000Y3889200D01*
X12140000Y3839200D02*
X12089200Y3940800D01*
X12190800D01*
X12140000Y3839200D01*
X12240000Y3889200D02*
X12189200Y3990800D01*
X12290800D01*
X12240000Y3889200D01*
X12040000Y3789200D02*
X11989200Y3890800D01*
X12090800D01*
X12040000Y3789200D01*
X12140000Y3739200D02*
X12089200Y3840800D01*
X12190800D01*
X12140000Y3739200D01*
X12240000Y3789200D02*
X12189200Y3890800D01*
X12290800D01*
X12240000Y3789200D01*
X12040000Y3689200D02*
X11989200Y3790800D01*
X12090800D01*
X12040000Y3689200D01*
X12140000Y3639200D02*
X12089200Y3740800D01*
X12190800D01*
X12140000Y3639200D01*
X12240000Y3689200D02*
X12189200Y3790800D01*
X12290800D01*
X12240000Y3689200D01*
X12040000Y3589200D02*
X11989200Y3690800D01*
X12090800D01*
X12040000Y3589200D01*
X12340000Y3339200D02*
X12289200Y3440800D01*
X12390800D01*
X12340000Y3339200D01*
Y3439200D02*
X12289200Y3540800D01*
X12390800D01*
X12340000Y3439200D01*
X12140000Y3539200D02*
X12089200Y3640800D01*
X12190800D01*
X12140000Y3539200D01*
Y3439200D02*
X12089200Y3540800D01*
X12190800D01*
X12140000Y3439200D01*
X12240000Y3489200D02*
X12189200Y3590800D01*
X12290800D01*
X12240000Y3489200D01*
X12140000Y3339200D02*
X12089200Y3440800D01*
X12190800D01*
X12140000Y3339200D01*
X12240000Y3389199D02*
X12189200Y3490799D01*
X12290800D01*
X12240000Y3389199D01*
X12040000D02*
X11989200Y3490799D01*
X12090800D01*
X12040000Y3389199D01*
Y3489200D02*
X11989200Y3590800D01*
X12090800D01*
X12040000Y3489200D01*
X11450000Y2949200D02*
X11399200Y3050800D01*
X11500800D01*
X11450000Y2949200D01*
X11550000D02*
X11499200Y3050800D01*
X11600800D01*
X11550000Y2949200D01*
X11650000D02*
X11599200Y3050800D01*
X11700800D01*
X11650000Y2949200D01*
X11750000D02*
X11699200Y3050800D01*
X11800800D01*
X11750000Y2949200D01*
X11850000D02*
X11799200Y3050800D01*
X11900800D01*
X11850000Y2949200D01*
X11450000Y2869200D02*
X11399200Y2970800D01*
X11500800D01*
X11450000Y2869200D01*
X11550000D02*
X11499200Y2970800D01*
X11600800D01*
X11550000Y2869200D01*
X11650000D02*
X11599200Y2970800D01*
X11700800D01*
X11650000Y2869200D01*
X11750000D02*
X11699200Y2970800D01*
X11800800D01*
X11750000Y2869200D01*
X11850000D02*
X11799200Y2970800D01*
X11900800D01*
X11850000Y2869200D01*
X15880000Y11979200D02*
X15829201Y12080800D01*
X15930800D01*
X15880000Y11979200D01*
X15800000Y12179200D02*
X15749200Y12280800D01*
X15850800D01*
X15800000Y12179200D01*
Y12079200D02*
X15749200Y12180800D01*
X15850800D01*
X15800000Y12079200D01*
Y11979200D02*
X15749200Y12080800D01*
X15850800D01*
X15800000Y11979200D01*
Y11879200D02*
X15749200Y11980800D01*
X15850800D01*
X15800000Y11879200D01*
X15880000Y12179200D02*
X15829201Y12280800D01*
X15930800D01*
X15880000Y12179200D01*
Y12079200D02*
X15829201Y12180800D01*
X15930800D01*
X15880000Y12079200D01*
Y11879200D02*
X15829201Y11980800D01*
X15930800D01*
X15880000Y11879200D01*
X8771214Y2940412D02*
X8720414Y3042012D01*
X8822014D01*
X8771214Y2940412D01*
X9171214Y2860412D02*
X9120414Y2962012D01*
X9222014D01*
X9171214Y2860412D01*
Y2940412D02*
X9120414Y3042012D01*
X9222014D01*
X9171214Y2940412D01*
X7720000Y11219200D02*
X7669200Y11320800D01*
X7770800D01*
X7720000Y11219200D01*
X7800000D02*
X7749200Y11320800D01*
X7850800D01*
X7800000Y11219200D01*
X6300000Y9849200D02*
X6249200Y9950800D01*
X6350800D01*
X6300000Y9849200D01*
X5780000Y9569200D02*
X5729200Y9670800D01*
X5830800D01*
X5780000Y9569200D01*
X6400000Y9719200D02*
X6349200Y9820800D01*
X6450800D01*
X6400000Y9719200D01*
X3800000Y3559200D02*
X3749200Y3660800D01*
X3850800D01*
X3800000Y3559200D01*
X3719999D02*
X3669199Y3660800D01*
X3770799D01*
X3719999Y3559200D01*
X3959999D02*
X3909199Y3660800D01*
X4010799D01*
X3959999Y3559200D01*
X3879999D02*
X3829199Y3660800D01*
X3930799D01*
X3879999Y3559200D01*
X4400000D02*
X4349200Y3660800D01*
X4450800D01*
X4400000Y3559200D01*
X4319999D02*
X4269199Y3660800D01*
X4370799D01*
X4319999Y3559200D01*
X4560000D02*
X4509200Y3660800D01*
X4610800D01*
X4560000Y3559200D01*
X4479999D02*
X4429199Y3660800D01*
X4530799D01*
X4479999Y3559200D01*
X5000000D02*
X4949200Y3660800D01*
X5050800D01*
X5000000Y3559200D01*
X4920000D02*
X4869200Y3660800D01*
X4970800D01*
X4920000Y3559200D01*
X5160000D02*
X5109200Y3660800D01*
X5210800D01*
X5160000Y3559200D01*
X5079999D02*
X5029199Y3660800D01*
X5130799D01*
X5079999Y3559200D01*
X5898000Y4514200D02*
X5847200Y4615800D01*
X5948800D01*
X5898000Y4514200D01*
Y4594200D02*
X5847200Y4695800D01*
X5948800D01*
X5898000Y4594200D01*
Y4354200D02*
X5847200Y4455800D01*
X5948800D01*
X5898000Y4354200D01*
Y4434200D02*
X5847200Y4535800D01*
X5948800D01*
X5898000Y4434200D01*
X5160000Y5389200D02*
X5109200Y5490800D01*
X5210800D01*
X5160000Y5389200D01*
X4920000D02*
X4869200Y5490800D01*
X4970800D01*
X4920000Y5389200D01*
X4320000D02*
X4269200Y5490800D01*
X4370800D01*
X4320000Y5389200D01*
X3880000D02*
X3829200Y5490800D01*
X3930800D01*
X3880000Y5389200D01*
X3720000D02*
X3669200Y5490800D01*
X3770800D01*
X3720000Y5389200D01*
X2982000Y4434200D02*
X2931200Y4535800D01*
X3032800D01*
X2982000Y4434200D01*
Y4354200D02*
X2931200Y4455800D01*
X3032800D01*
X2982000Y4354200D01*
Y4594200D02*
X2931200Y4695800D01*
X3032800D01*
X2982000Y4594200D01*
Y4514200D02*
X2931200Y4615800D01*
X3032800D01*
X2982000Y4514200D01*
X3542500Y4289200D02*
X3491700Y4390800D01*
X3593300D01*
X3542500Y4289200D01*
X3622500D02*
X3571700Y4390800D01*
X3673300D01*
X3622500Y4289200D01*
X3582500Y4329200D02*
X3531700Y4430800D01*
X3633300D01*
X3582500Y4329200D01*
Y4249200D02*
X3531700Y4350800D01*
X3633300D01*
X3582500Y4249200D01*
X5040000Y3929200D02*
X4989200Y4030800D01*
X5090800D01*
X5040000Y3929200D01*
Y4049200D02*
X4989200Y4150800D01*
X5090800D01*
X5040000Y4049200D01*
X4463000Y3824200D02*
X4412200Y3925800D01*
X4513800D01*
X4463000Y3824200D01*
Y3744200D02*
X4412200Y3845800D01*
X4513800D01*
X4463000Y3744200D01*
X5490000Y4289200D02*
X5439200Y4390800D01*
X5540800D01*
X5490000Y4289200D01*
X5510000Y3789200D02*
X5459200Y3890800D01*
X5560800D01*
X5510000Y3789200D01*
X6410000Y4329200D02*
X6359200Y4430800D01*
X6460800D01*
X6410000Y4329200D01*
Y4249200D02*
X6359200Y4350800D01*
X6460800D01*
X6410000Y4249200D01*
X7050000Y4089200D02*
X6999200Y4190800D01*
X7100800D01*
X7050000Y4089200D01*
X6810000Y3529200D02*
X6759200Y3630800D01*
X6860800D01*
X6810000Y3529200D01*
X8080000Y3189200D02*
X8029200Y3290800D01*
X8130800D01*
X8080000Y3189200D01*
X8040000Y2989200D02*
X7989200Y3090800D01*
X8090800D01*
X8040000Y2989200D01*
X7550000Y4239200D02*
X7499200Y4340800D01*
X7600800D01*
X7550000Y4239200D01*
X7470000D02*
X7419200Y4340800D01*
X7520800D01*
X7470000Y4239200D01*
X7460000Y3639200D02*
X7409200Y3740800D01*
X7510800D01*
X7460000Y3639200D01*
X7540000D02*
X7489200Y3740800D01*
X7590800D01*
X7540000Y3639200D01*
X6690000Y3109200D02*
X6639200Y3210800D01*
X6740800D01*
X6690000Y3109200D01*
X6530000D02*
X6479200Y3210800D01*
X6580800D01*
X6530000Y3109200D01*
X13510001Y10519200D02*
X13459200Y10620800D01*
X13560800D01*
X13510001Y10519200D01*
X6170000Y9719200D02*
X6119200Y9820800D01*
X6220800D01*
X6170000Y9719200D01*
X5430000Y9569200D02*
X5379200Y9670800D01*
X5480800D01*
X5430000Y9569200D01*
X5300000Y9729200D02*
X5249200Y9830800D01*
X5350800D01*
X5300000Y9729200D01*
X7030000Y9699200D02*
X6979200Y9800800D01*
X7080800D01*
X7030000Y9699200D01*
X8121000Y11051100D02*
X8070200Y11152700D01*
X8171800D01*
X8121000Y11051100D01*
X5230000Y9009200D02*
X5179200Y9110800D01*
X5280800D01*
X5230000Y9009200D01*
X17032022Y12396083D02*
X16981223Y12497683D01*
X17082822D01*
X17032022Y12396083D01*
X16907022D02*
X16856223Y12497683D01*
X16957822D01*
X16907022Y12396083D01*
X16782022D02*
X16731223Y12497683D01*
X16832822D01*
X16782022Y12396083D01*
X16657022D02*
X16606223Y12497683D01*
X16707822D01*
X16657022Y12396083D01*
X16532022D02*
X16481223Y12497683D01*
X16582822D01*
X16532022Y12396083D01*
X16407022D02*
X16356223Y12497683D01*
X16457822D01*
X16407022Y12396083D01*
X16282022D02*
X16231223Y12497683D01*
X16332822D01*
X16282022Y12396083D01*
X16157022D02*
X16106223Y12497683D01*
X16207822D01*
X16157022Y12396083D01*
X16032022D02*
X15981223Y12497683D01*
X16082822D01*
X16032022Y12396083D01*
X15907022D02*
X15856223Y12497683D01*
X15957822D01*
X15907022Y12396083D01*
X15782022D02*
X15731223Y12497683D01*
X15832822D01*
X15782022Y12396083D01*
X15657022D02*
X15606223Y12497683D01*
X15707822D01*
X15657022Y12396083D01*
X15532022D02*
X15481223Y12497683D01*
X15582822D01*
X15532022Y12396083D01*
X15407022D02*
X15356223Y12497683D01*
X15457822D01*
X15407022Y12396083D01*
X15282022D02*
X15231223Y12497683D01*
X15332822D01*
X15282022Y12396083D01*
X15157022D02*
X15106223Y12497683D01*
X15207822D01*
X15157022Y12396083D01*
X15032022D02*
X14981223Y12497683D01*
X15082822D01*
X15032022Y12396083D01*
X14907022D02*
X14856223Y12497683D01*
X14957822D01*
X14907022Y12396083D01*
X14782022D02*
X14731223Y12497683D01*
X14832822D01*
X14782022Y12396083D01*
X14657022D02*
X14606223Y12497683D01*
X14707822D01*
X14657022Y12396083D01*
X14532022D02*
X14481223Y12497683D01*
X14582822D01*
X14532022Y12396083D01*
X14407022D02*
X14356223Y12497683D01*
X14457822D01*
X14407022Y12396083D01*
X14282022D02*
X14231223Y12497683D01*
X14332822D01*
X14282022Y12396083D01*
X14157022D02*
X14106223Y12497683D01*
X14207822D01*
X14157022Y12396083D01*
X14032022D02*
X13981223Y12497683D01*
X14082822D01*
X14032022Y12396083D01*
X13907022D02*
X13856223Y12497683D01*
X13957822D01*
X13907022Y12396083D01*
X13782022D02*
X13731223Y12497683D01*
X13832822D01*
X13782022Y12396083D01*
X13657022D02*
X13606223Y12497683D01*
X13707822D01*
X13657022Y12396083D01*
X13532022D02*
X13481223Y12497683D01*
X13582822D01*
X13532022Y12396083D01*
X13407022D02*
X13356223Y12497683D01*
X13457822D01*
X13407022Y12396083D01*
X13282022D02*
X13231223Y12497683D01*
X13332822D01*
X13282022Y12396083D01*
X13157022D02*
X13106223Y12497683D01*
X13207822D01*
X13157022Y12396083D01*
X13032022D02*
X12981223Y12497683D01*
X13082822D01*
X13032022Y12396083D01*
X12907022D02*
X12856223Y12497683D01*
X12957822D01*
X12907022Y12396083D01*
X12782022D02*
X12731222Y12497683D01*
X12832822D01*
X12782022Y12396083D01*
X12657022D02*
X12606222Y12497683D01*
X12707822D01*
X12657022Y12396083D01*
X12532022D02*
X12481222Y12497683D01*
X12582822D01*
X12532022Y12396083D01*
X12407022D02*
X12356222Y12497683D01*
X12457822D01*
X12407022Y12396083D01*
X12282022D02*
X12231222Y12497683D01*
X12332822D01*
X12282022Y12396083D01*
X12157022D02*
X12106222Y12497683D01*
X12207822D01*
X12157022Y12396083D01*
X12032022D02*
X11981222Y12497683D01*
X12082822D01*
X12032022Y12396083D01*
X11907022D02*
X11856222Y12497683D01*
X11957822D01*
X11907022Y12396083D01*
X11782022D02*
X11731222Y12497683D01*
X11832822D01*
X11782022Y12396083D01*
X11657022D02*
X11606222Y12497683D01*
X11707822D01*
X11657022Y12396083D01*
X11532022D02*
X11481222Y12497683D01*
X11582822D01*
X11532022Y12396083D01*
X11407022D02*
X11356222Y12497683D01*
X11457822D01*
X11407022Y12396083D01*
X11282022D02*
X11231222Y12497683D01*
X11332822D01*
X11282022Y12396083D01*
X11157022D02*
X11106222Y12497683D01*
X11207822D01*
X11157022Y12396083D01*
X11032022D02*
X10981222Y12497683D01*
X11082822D01*
X11032022Y12396083D01*
X10907022D02*
X10856222Y12497683D01*
X10957822D01*
X10907022Y12396083D01*
X10782022D02*
X10731222Y12497683D01*
X10832822D01*
X10782022Y12396083D01*
X10657022D02*
X10606222Y12497683D01*
X10707822D01*
X10657022Y12396083D01*
X10532022D02*
X10481222Y12497683D01*
X10582822D01*
X10532022Y12396083D01*
X10407022D02*
X10356222Y12497683D01*
X10457822D01*
X10407022Y12396083D01*
X10282022D02*
X10231222Y12497683D01*
X10332822D01*
X10282022Y12396083D01*
X10157022D02*
X10106222Y12497683D01*
X10207822D01*
X10157022Y12396083D01*
X10032022D02*
X9981222Y12497683D01*
X10082822D01*
X10032022Y12396083D01*
X9907022D02*
X9856222Y12497683D01*
X9957822D01*
X9907022Y12396083D01*
X9782022D02*
X9731222Y12497683D01*
X9832822D01*
X9782022Y12396083D01*
X9657022D02*
X9606222Y12497683D01*
X9707822D01*
X9657022Y12396083D01*
X9532022D02*
X9481222Y12497683D01*
X9582822D01*
X9532022Y12396083D01*
X9407022D02*
X9356222Y12497683D01*
X9457822D01*
X9407022Y12396083D01*
X9282022D02*
X9231222Y12497683D01*
X9332822D01*
X9282022Y12396083D01*
X9157022D02*
X9106222Y12497683D01*
X9207822D01*
X9157022Y12396083D01*
X9032022D02*
X8981222Y12497683D01*
X9082822D01*
X9032022Y12396083D01*
X8907022D02*
X8856222Y12497683D01*
X8957822D01*
X8907022Y12396083D01*
X8782022D02*
X8731222Y12497683D01*
X8832822D01*
X8782022Y12396083D01*
X8657022D02*
X8606222Y12497683D01*
X8707822D01*
X8657022Y12396083D01*
X8532022D02*
X8481222Y12497683D01*
X8582822D01*
X8532022Y12396083D01*
X8407022D02*
X8356222Y12497683D01*
X8457822D01*
X8407022Y12396083D01*
X8282022D02*
X8231222Y12497683D01*
X8332822D01*
X8282022Y12396083D01*
X8157022D02*
X8106222Y12497683D01*
X8207822D01*
X8157022Y12396083D01*
X8032022D02*
X7981222Y12497683D01*
X8082822D01*
X8032022Y12396083D01*
X7907022D02*
X7856222Y12497683D01*
X7957822D01*
X7907022Y12396083D01*
X7782022D02*
X7731222Y12497683D01*
X7832822D01*
X7782022Y12396083D01*
X7657022D02*
X7606222Y12497683D01*
X7707822D01*
X7657022Y12396083D01*
X7532022D02*
X7481222Y12497683D01*
X7582822D01*
X7532022Y12396083D01*
X7407022D02*
X7356222Y12497683D01*
X7457822D01*
X7407022Y12396083D01*
X7282022D02*
X7231222Y12497683D01*
X7332822D01*
X7282022Y12396083D01*
X7157022D02*
X7106222Y12497683D01*
X7207822D01*
X7157022Y12396083D01*
X7032021D02*
X6981221Y12497683D01*
X7082821D01*
X7032021Y12396083D01*
X6907021D02*
X6856221Y12497683D01*
X6957821D01*
X6907021Y12396083D01*
X6782021D02*
X6731221Y12497683D01*
X6832821D01*
X6782021Y12396083D01*
X6657021D02*
X6606221Y12497683D01*
X6707821D01*
X6657021Y12396083D01*
X6532021D02*
X6481221Y12497683D01*
X6582821D01*
X6532021Y12396083D01*
X6407021D02*
X6356221Y12497683D01*
X6457821D01*
X6407021Y12396083D01*
X6282021D02*
X6231221Y12497683D01*
X6332821D01*
X6282021Y12396083D01*
X6157021D02*
X6106221Y12497683D01*
X6207821D01*
X6157021Y12396083D01*
X6032021D02*
X5981221Y12497683D01*
X6082821D01*
X6032021Y12396083D01*
X5907021D02*
X5856221Y12497683D01*
X5957821D01*
X5907021Y12396083D01*
X5782021D02*
X5731221Y12497683D01*
X5832821D01*
X5782021Y12396083D01*
X5657021D02*
X5606221Y12497683D01*
X5707821D01*
X5657021Y12396083D01*
X5532021D02*
X5481221Y12497683D01*
X5582821D01*
X5532021Y12396083D01*
X5407021D02*
X5356221Y12497683D01*
X5457821D01*
X5407021Y12396083D01*
X5282021D02*
X5231221Y12497683D01*
X5332821D01*
X5282021Y12396083D01*
X5157021D02*
X5106221Y12497683D01*
X5207821D01*
X5157021Y12396083D01*
X5032021D02*
X4981221Y12497683D01*
X5082821D01*
X5032021Y12396083D01*
X4907021D02*
X4856221Y12497683D01*
X4957821D01*
X4907021Y12396083D01*
X4782021D02*
X4731221Y12497683D01*
X4832821D01*
X4782021Y12396083D01*
X4657021D02*
X4606221Y12497683D01*
X4707821D01*
X4657021Y12396083D01*
X4532021D02*
X4481221Y12497683D01*
X4582821D01*
X4532021Y12396083D01*
X4407021D02*
X4356221Y12497683D01*
X4457821D01*
X4407021Y12396083D01*
X4282021D02*
X4231221Y12497683D01*
X4332821D01*
X4282021Y12396083D01*
X4157021D02*
X4106221Y12497683D01*
X4207821D01*
X4157021Y12396083D01*
X4032021D02*
X3981221Y12497683D01*
X4082821D01*
X4032021Y12396083D01*
X3907021D02*
X3856221Y12497683D01*
X3957821D01*
X3907021Y12396083D01*
X3782021D02*
X3731221Y12497683D01*
X3832821D01*
X3782021Y12396083D01*
X3657021D02*
X3606221Y12497683D01*
X3707821D01*
X3657021Y12396083D01*
X3532021D02*
X3481221Y12497683D01*
X3582821D01*
X3532021Y12396083D01*
X3407021D02*
X3356221Y12497683D01*
X3457821D01*
X3407021Y12396083D01*
X3282021D02*
X3231221Y12497683D01*
X3332821D01*
X3282021Y12396083D01*
X3157021D02*
X3106221Y12497683D01*
X3207821D01*
X3157021Y12396083D01*
X3032035Y12394235D02*
X2981235Y12495835D01*
X3082835D01*
X3032035Y12394235D01*
X2911881Y12359766D02*
X2861081Y12461366D01*
X2962681D01*
X2911881Y12359766D01*
X2816573Y12278888D02*
X2765773Y12380488D01*
X2867373D01*
X2816573Y12278888D01*
X2762667Y12166109D02*
X2711867Y12267709D01*
X2813467D01*
X2762667Y12166109D01*
X2753117Y12041474D02*
X2702317Y12143074D01*
X2803917D01*
X2753117Y12041474D01*
Y11916474D02*
X2702317Y12018074D01*
X2803917D01*
X2753117Y11916474D01*
Y11791474D02*
X2702317Y11893074D01*
X2803917D01*
X2753117Y11791474D01*
Y11666474D02*
X2702317Y11768074D01*
X2803917D01*
X2753117Y11666474D01*
Y11541474D02*
X2702317Y11643074D01*
X2803917D01*
X2753117Y11541474D01*
Y11416474D02*
X2702317Y11518074D01*
X2803917D01*
X2753117Y11416474D01*
Y11291474D02*
X2702317Y11393074D01*
X2803917D01*
X2753117Y11291474D01*
Y11166474D02*
X2702317Y11268074D01*
X2803917D01*
X2753117Y11166474D01*
Y11041474D02*
X2702317Y11143074D01*
X2803917D01*
X2753117Y11041474D01*
Y10916474D02*
X2702317Y11018074D01*
X2803917D01*
X2753117Y10916474D01*
Y10791474D02*
X2702317Y10893074D01*
X2803917D01*
X2753117Y10791474D01*
Y10666474D02*
X2702317Y10768074D01*
X2803917D01*
X2753117Y10666474D01*
Y10541474D02*
X2702317Y10643074D01*
X2803917D01*
X2753117Y10541474D01*
Y10416474D02*
X2702317Y10518074D01*
X2803917D01*
X2753117Y10416474D01*
Y10291474D02*
X2702317Y10393074D01*
X2803917D01*
X2753117Y10291474D01*
Y10166474D02*
X2702317Y10268074D01*
X2803917D01*
X2753117Y10166474D01*
Y10041474D02*
X2702317Y10143074D01*
X2803917D01*
X2753117Y10041474D01*
Y9916474D02*
X2702317Y10018074D01*
X2803917D01*
X2753117Y9916474D01*
Y9791474D02*
X2702317Y9893074D01*
X2803917D01*
X2753117Y9791474D01*
Y9666474D02*
X2702317Y9768074D01*
X2803917D01*
X2753117Y9666474D01*
Y9541474D02*
X2702317Y9643074D01*
X2803917D01*
X2753117Y9541474D01*
Y9416474D02*
X2702317Y9518074D01*
X2803917D01*
X2753117Y9416474D01*
Y9291474D02*
X2702317Y9393074D01*
X2803917D01*
X2753117Y9291474D01*
Y9166474D02*
X2702317Y9268074D01*
X2803917D01*
X2753117Y9166474D01*
Y9041474D02*
X2702317Y9143074D01*
X2803917D01*
X2753117Y9041474D01*
Y8916474D02*
X2702317Y9018074D01*
X2803917D01*
X2753117Y8916474D01*
Y8791474D02*
X2702317Y8893074D01*
X2803917D01*
X2753117Y8791474D01*
Y8666474D02*
X2702317Y8768074D01*
X2803917D01*
X2753117Y8666474D01*
Y8541474D02*
X2702317Y8643074D01*
X2803917D01*
X2753117Y8541474D01*
Y8416474D02*
X2702317Y8518074D01*
X2803917D01*
X2753117Y8416474D01*
Y8291474D02*
X2702317Y8393074D01*
X2803917D01*
X2753117Y8291474D01*
Y8166474D02*
X2702317Y8268074D01*
X2803917D01*
X2753117Y8166474D01*
Y8041474D02*
X2702317Y8143074D01*
X2803917D01*
X2753117Y8041474D01*
Y7916474D02*
X2702317Y8018074D01*
X2803917D01*
X2753117Y7916474D01*
Y7791474D02*
X2702317Y7893074D01*
X2803917D01*
X2753117Y7791474D01*
Y7666474D02*
X2702317Y7768074D01*
X2803917D01*
X2753117Y7666474D01*
Y7541474D02*
X2702317Y7643074D01*
X2803917D01*
X2753117Y7541474D01*
Y7416474D02*
X2702317Y7518074D01*
X2803917D01*
X2753117Y7416474D01*
Y7291474D02*
X2702317Y7393074D01*
X2803917D01*
X2753117Y7291474D01*
Y7166474D02*
X2702317Y7268074D01*
X2803917D01*
X2753117Y7166474D01*
Y7041474D02*
X2702317Y7143074D01*
X2803917D01*
X2753117Y7041474D01*
Y6916474D02*
X2702317Y7018074D01*
X2803917D01*
X2753117Y6916474D01*
Y6791474D02*
X2702317Y6893074D01*
X2803917D01*
X2753117Y6791474D01*
Y6666474D02*
X2702317Y6768074D01*
X2803917D01*
X2753117Y6666474D01*
Y6541474D02*
X2702317Y6643074D01*
X2803917D01*
X2753117Y6541474D01*
Y6416474D02*
X2702317Y6518074D01*
X2803917D01*
X2753117Y6416474D01*
Y6291474D02*
X2702317Y6393074D01*
X2803917D01*
X2753117Y6291474D01*
Y6166474D02*
X2702317Y6268074D01*
X2803917D01*
X2753117Y6166474D01*
Y6041474D02*
X2702317Y6143074D01*
X2803917D01*
X2753117Y6041474D01*
Y5916474D02*
X2702317Y6018074D01*
X2803917D01*
X2753117Y5916474D01*
Y5791474D02*
X2702317Y5893074D01*
X2803917D01*
X2753117Y5791474D01*
Y5666474D02*
X2702317Y5768074D01*
X2803917D01*
X2753117Y5666474D01*
Y5541474D02*
X2702317Y5643074D01*
X2803917D01*
X2753117Y5541474D01*
Y5416474D02*
X2702317Y5518074D01*
X2803917D01*
X2753117Y5416474D01*
Y5291474D02*
X2702317Y5393074D01*
X2803917D01*
X2753117Y5291474D01*
Y5166474D02*
X2702317Y5268074D01*
X2803917D01*
X2753117Y5166474D01*
Y5041474D02*
X2702317Y5143074D01*
X2803917D01*
X2753117Y5041474D01*
Y4916474D02*
X2702317Y5018074D01*
X2803917D01*
X2753117Y4916474D01*
Y4791474D02*
X2702317Y4893074D01*
X2803917D01*
X2753117Y4791474D01*
Y4666474D02*
X2702317Y4768074D01*
X2803917D01*
X2753117Y4666474D01*
Y4541474D02*
X2702317Y4643074D01*
X2803917D01*
X2753117Y4541474D01*
Y4416474D02*
X2702317Y4518074D01*
X2803917D01*
X2753117Y4416474D01*
Y4291474D02*
X2702317Y4393074D01*
X2803917D01*
X2753117Y4291474D01*
Y4166474D02*
X2702317Y4268074D01*
X2803917D01*
X2753117Y4166474D01*
Y4041474D02*
X2702317Y4143074D01*
X2803917D01*
X2753117Y4041474D01*
Y3916474D02*
X2702317Y4018074D01*
X2803917D01*
X2753117Y3916474D01*
Y3791474D02*
X2702317Y3893074D01*
X2803917D01*
X2753117Y3791474D01*
Y3666474D02*
X2702317Y3768074D01*
X2803917D01*
X2753117Y3666474D01*
Y3541474D02*
X2702317Y3643074D01*
X2803917D01*
X2753117Y3541474D01*
Y3416474D02*
X2702317Y3518074D01*
X2803917D01*
X2753117Y3416474D01*
Y3291474D02*
X2702317Y3393074D01*
X2803917D01*
X2753117Y3291474D01*
Y3166474D02*
X2702317Y3268074D01*
X2803917D01*
X2753117Y3166474D01*
Y3041474D02*
X2702317Y3143074D01*
X2803917D01*
X2753117Y3041474D01*
X2766297Y2917171D02*
X2715497Y3018771D01*
X2817097D01*
X2766297Y2917171D01*
X2826653Y2807708D02*
X2775853Y2909308D01*
X2877453D01*
X2826653Y2807708D01*
X2925903Y2731717D02*
X2875103Y2833317D01*
X2976703D01*
X2925903Y2731717D01*
X3047546Y2702943D02*
X2996746Y2804543D01*
X3098346D01*
X3047546Y2702943D01*
X3172544Y2702316D02*
X3121744Y2803916D01*
X3223344D01*
X3172544Y2702316D01*
X3297544D02*
X3246744Y2803916D01*
X3348344D01*
X3297544Y2702316D01*
X3422544D02*
X3371744Y2803916D01*
X3473344D01*
X3422544Y2702316D01*
X3547544D02*
X3496744Y2803916D01*
X3598344D01*
X3547544Y2702316D01*
X3672544D02*
X3621744Y2803916D01*
X3723344D01*
X3672544Y2702316D01*
X3797544D02*
X3746744Y2803916D01*
X3848344D01*
X3797544Y2702316D01*
X3922544D02*
X3871744Y2803916D01*
X3973344D01*
X3922544Y2702316D01*
X4047544D02*
X3996744Y2803916D01*
X4098344D01*
X4047544Y2702316D01*
X4172544D02*
X4121744Y2803916D01*
X4223344D01*
X4172544Y2702316D01*
X4297544D02*
X4246744Y2803916D01*
X4348344D01*
X4297544Y2702316D01*
X4422544D02*
X4371744Y2803916D01*
X4473344D01*
X4422544Y2702316D01*
X4547544D02*
X4496744Y2803916D01*
X4598344D01*
X4547544Y2702316D01*
X4672544D02*
X4621744Y2803916D01*
X4723344D01*
X4672544Y2702316D01*
X4797544D02*
X4746744Y2803916D01*
X4848344D01*
X4797544Y2702316D01*
X4922544D02*
X4871744Y2803916D01*
X4973344D01*
X4922544Y2702316D01*
X5047544D02*
X4996744Y2803916D01*
X5098344D01*
X5047544Y2702316D01*
X5172544D02*
X5121744Y2803916D01*
X5223344D01*
X5172544Y2702316D01*
X5297544D02*
X5246744Y2803916D01*
X5348344D01*
X5297544Y2702316D01*
X5422544D02*
X5371744Y2803916D01*
X5473344D01*
X5422544Y2702316D01*
X5547544D02*
X5496744Y2803916D01*
X5598344D01*
X5547544Y2702316D01*
X5672544D02*
X5621744Y2803916D01*
X5723344D01*
X5672544Y2702316D01*
X5797544D02*
X5746744Y2803916D01*
X5848344D01*
X5797544Y2702316D01*
X5922544D02*
X5871744Y2803916D01*
X5973344D01*
X5922544Y2702316D01*
X6047544D02*
X5996744Y2803916D01*
X6098344D01*
X6047544Y2702316D01*
X6172544Y2702316D02*
X6121744Y2803916D01*
X6223344D01*
X6172544Y2702316D01*
X6297544D02*
X6246744Y2803916D01*
X6348344D01*
X6297544Y2702316D01*
X6422544D02*
X6371744Y2803916D01*
X6473344D01*
X6422544Y2702316D01*
X6547544D02*
X6496744Y2803916D01*
X6598344D01*
X6547544Y2702316D01*
X6672544D02*
X6621744Y2803916D01*
X6723344D01*
X6672544Y2702316D01*
X6797544D02*
X6746744Y2803916D01*
X6848344D01*
X6797544Y2702316D01*
X6922544D02*
X6871744Y2803916D01*
X6973344D01*
X6922544Y2702316D01*
X7047544D02*
X6996744Y2803916D01*
X7098344D01*
X7047544Y2702316D01*
X7172544D02*
X7121744Y2803916D01*
X7223344D01*
X7172544Y2702316D01*
X7297544D02*
X7246744Y2803916D01*
X7348344D01*
X7297544Y2702316D01*
X7422544D02*
X7371744Y2803916D01*
X7473344D01*
X7422544Y2702316D01*
X7547544D02*
X7496744Y2803916D01*
X7598344D01*
X7547544Y2702316D01*
X7672544D02*
X7621744Y2803916D01*
X7723344D01*
X7672544Y2702316D01*
X7797544D02*
X7746744Y2803916D01*
X7848344D01*
X7797544Y2702316D01*
X7922544D02*
X7871744Y2803916D01*
X7973344D01*
X7922544Y2702316D01*
X8047544D02*
X7996744Y2803916D01*
X8098344D01*
X8047544Y2702316D01*
X8172544D02*
X8121744Y2803916D01*
X8223344D01*
X8172544Y2702316D01*
X8297544D02*
X8246744Y2803916D01*
X8348344D01*
X8297544Y2702316D01*
X8422544D02*
X8371744Y2803916D01*
X8473344D01*
X8422544Y2702316D01*
X8547544D02*
X8496744Y2803916D01*
X8598344D01*
X8547544Y2702316D01*
X8672544D02*
X8621744Y2803916D01*
X8723344D01*
X8672544Y2702316D01*
X8797544D02*
X8746744Y2803916D01*
X8848344D01*
X8797544Y2702316D01*
X8922544D02*
X8871744Y2803916D01*
X8973344D01*
X8922544Y2702316D01*
X9047544Y2702316D02*
X8996744Y2803916D01*
X9098344D01*
X9047544Y2702316D01*
X9172544D02*
X9121744Y2803916D01*
X9223344D01*
X9172544Y2702316D01*
X9297544D02*
X9246744Y2803916D01*
X9348344D01*
X9297544Y2702316D01*
X9422544D02*
X9371744Y2803916D01*
X9473344D01*
X9422544Y2702316D01*
X9547544D02*
X9496744Y2803916D01*
X9598344D01*
X9547544Y2702316D01*
X9672544D02*
X9621744Y2803916D01*
X9723344D01*
X9672544Y2702316D01*
X9797544D02*
X9746744Y2803916D01*
X9848344D01*
X9797544Y2702316D01*
X9922544D02*
X9871744Y2803916D01*
X9973344D01*
X9922544Y2702316D01*
X10047544D02*
X9996744Y2803916D01*
X10098344D01*
X10047544Y2702316D01*
X10172544D02*
X10121744Y2803916D01*
X10223344D01*
X10172544Y2702316D01*
X10297544D02*
X10246744Y2803916D01*
X10348344D01*
X10297544Y2702316D01*
X10422544D02*
X10371744Y2803916D01*
X10473344D01*
X10422544Y2702316D01*
X10547544D02*
X10496744Y2803916D01*
X10598344D01*
X10547544Y2702316D01*
X10672544D02*
X10621744Y2803916D01*
X10723344D01*
X10672544Y2702316D01*
X10797544D02*
X10746744Y2803916D01*
X10848344D01*
X10797544Y2702316D01*
X10922544D02*
X10871744Y2803916D01*
X10973344D01*
X10922544Y2702316D01*
X11047544D02*
X10996744Y2803916D01*
X11098344D01*
X11047544Y2702316D01*
X11172544D02*
X11121744Y2803916D01*
X11223344D01*
X11172544Y2702316D01*
X11297544D02*
X11246744Y2803916D01*
X11348344D01*
X11297544Y2702316D01*
X11422544D02*
X11371744Y2803916D01*
X11473344D01*
X11422544Y2702316D01*
X11547544D02*
X11496744Y2803916D01*
X11598344D01*
X11547544Y2702316D01*
X11672544D02*
X11621744Y2803916D01*
X11723344D01*
X11672544Y2702316D01*
X11797544D02*
X11746744Y2803916D01*
X11848344D01*
X11797544Y2702316D01*
X11922544Y2702316D02*
X11871744Y2803916D01*
X11973344D01*
X11922544Y2702316D01*
X12047544D02*
X11996744Y2803916D01*
X12098344D01*
X12047544Y2702316D01*
X12172544D02*
X12121744Y2803916D01*
X12223344D01*
X12172544Y2702316D01*
X12297544D02*
X12246744Y2803916D01*
X12348344D01*
X12297544Y2702316D01*
X12422544D02*
X12371744Y2803916D01*
X12473344D01*
X12422544Y2702316D01*
X12797544D02*
X12746744Y2803916D01*
X12848344D01*
X12797544Y2702316D01*
X12922543D02*
X12871744Y2803916D01*
X12973344D01*
X12922543Y2702316D01*
X13047543D02*
X12996744Y2803916D01*
X13098344D01*
X13047543Y2702316D01*
X13172543D02*
X13121744Y2803916D01*
X13223344D01*
X13172543Y2702316D01*
X13297543D02*
X13246744Y2803916D01*
X13348344D01*
X13297543Y2702316D01*
X13422543D02*
X13371744Y2803916D01*
X13473344D01*
X13422543Y2702316D01*
X13547543D02*
X13496744Y2803916D01*
X13598344D01*
X13547543Y2702316D01*
X13672543D02*
X13621744Y2803916D01*
X13723344D01*
X13672543Y2702316D01*
X13797543D02*
X13746744Y2803916D01*
X13848344D01*
X13797543Y2702316D01*
X13922543D02*
X13871744Y2803916D01*
X13973344D01*
X13922543Y2702316D01*
X14047543D02*
X13996744Y2803916D01*
X14098344D01*
X14047543Y2702316D01*
X14172543D02*
X14121744Y2803916D01*
X14223344D01*
X14172543Y2702316D01*
X14297543D02*
X14246744Y2803916D01*
X14348344D01*
X14297543Y2702316D01*
X14422543D02*
X14371744Y2803916D01*
X14473344D01*
X14422543Y2702316D01*
X14547543D02*
X14496744Y2803916D01*
X14598344D01*
X14547543Y2702316D01*
X14672543D02*
X14621744Y2803916D01*
X14723344D01*
X14672543Y2702316D01*
X14797543Y2702317D02*
X14746744Y2803917D01*
X14848344D01*
X14797543Y2702317D01*
X14922543D02*
X14871744Y2803917D01*
X14973344D01*
X14922543Y2702317D01*
X15047543D02*
X14996744Y2803917D01*
X15098344D01*
X15047543Y2702317D01*
X15172543D02*
X15121744Y2803917D01*
X15223344D01*
X15172543Y2702317D01*
X15297543D02*
X15246744Y2803917D01*
X15348344D01*
X15297543Y2702317D01*
X15422543D02*
X15371744Y2803917D01*
X15473344D01*
X15422543Y2702317D01*
X15547543D02*
X15496744Y2803917D01*
X15598344D01*
X15547543Y2702317D01*
X15672543D02*
X15621744Y2803917D01*
X15723344D01*
X15672543Y2702317D01*
X15797543D02*
X15746744Y2803917D01*
X15848344D01*
X15797543Y2702317D01*
X15922543D02*
X15871744Y2803917D01*
X15973344D01*
X15922543Y2702317D01*
X16047543D02*
X15996744Y2803917D01*
X16098344D01*
X16047543Y2702317D01*
X16172543D02*
X16121744Y2803917D01*
X16223344D01*
X16172543Y2702317D01*
X16297543D02*
X16246744Y2803917D01*
X16348344D01*
X16297543Y2702317D01*
X16422543D02*
X16371744Y2803917D01*
X16473344D01*
X16422543Y2702317D01*
X16547545D02*
X16496745Y2803917D01*
X16598344D01*
X16547545Y2702317D01*
X16672545D02*
X16621745Y2803917D01*
X16723344D01*
X16672545Y2702317D01*
X16797545D02*
X16746745Y2803917D01*
X16848344D01*
X16797545Y2702317D01*
X16922545D02*
X16871745Y2803917D01*
X16973344D01*
X16922545Y2702317D01*
X17047545D02*
X16996745Y2803917D01*
X17098344D01*
X17047545Y2702317D01*
X17172525Y2704524D02*
X17121725Y2806124D01*
X17223325D01*
X17172525Y2704524D01*
X17292068Y2741054D02*
X17241267Y2842654D01*
X17342868D01*
X17292068Y2741054D01*
X17386433Y2823031D02*
X17335632Y2924631D01*
X17437233D01*
X17386433Y2823031D01*
X17438396Y2936719D02*
X17387596Y3038319D01*
X17489195D01*
X17438396Y2936719D01*
X17446883Y3061431D02*
X17396083Y3163031D01*
X17497684D01*
X17446883Y3061431D01*
Y3186431D02*
X17396083Y3288031D01*
X17497684D01*
X17446883Y3186431D01*
Y3311431D02*
X17396083Y3413031D01*
X17497684D01*
X17446883Y3311431D01*
Y3436431D02*
X17396083Y3538031D01*
X17497684D01*
X17446883Y3436431D01*
Y3561431D02*
X17396083Y3663031D01*
X17497684D01*
X17446883Y3561431D01*
Y3686431D02*
X17396083Y3788031D01*
X17497684D01*
X17446883Y3686431D01*
Y3811431D02*
X17396083Y3913031D01*
X17497684D01*
X17446883Y3811431D01*
Y3936431D02*
X17396083Y4038031D01*
X17497684D01*
X17446883Y3936431D01*
Y4061431D02*
X17396083Y4163031D01*
X17497684D01*
X17446883Y4061431D01*
Y4186431D02*
X17396083Y4288031D01*
X17497684D01*
X17446883Y4186431D01*
Y4311431D02*
X17396083Y4413031D01*
X17497684D01*
X17446883Y4311431D01*
Y4436431D02*
X17396083Y4538031D01*
X17497684D01*
X17446883Y4436431D01*
Y4561431D02*
X17396083Y4663031D01*
X17497684D01*
X17446883Y4561431D01*
Y4686431D02*
X17396083Y4788031D01*
X17497684D01*
X17446883Y4686431D01*
Y4811431D02*
X17396083Y4913031D01*
X17497684D01*
X17446883Y4811431D01*
Y4936431D02*
X17396083Y5038031D01*
X17497684D01*
X17446883Y4936431D01*
Y5061431D02*
X17396083Y5163031D01*
X17497684D01*
X17446883Y5061431D01*
Y5186431D02*
X17396083Y5288031D01*
X17497684D01*
X17446883Y5186431D01*
Y5311431D02*
X17396083Y5413031D01*
X17497684D01*
X17446883Y5311431D01*
Y5436431D02*
X17396083Y5538031D01*
X17497684D01*
X17446883Y5436431D01*
Y5561431D02*
X17396083Y5663031D01*
X17497684D01*
X17446883Y5561431D01*
Y5686431D02*
X17396083Y5788031D01*
X17497684D01*
X17446883Y5686431D01*
Y5811431D02*
X17396083Y5913031D01*
X17497684D01*
X17446883Y5811431D01*
Y5936431D02*
X17396083Y6038031D01*
X17497684D01*
X17446883Y5936431D01*
Y6061431D02*
X17396083Y6163031D01*
X17497684D01*
X17446883Y6061431D01*
Y6186431D02*
X17396083Y6288031D01*
X17497684D01*
X17446883Y6186431D01*
Y6311431D02*
X17396083Y6413031D01*
X17497684D01*
X17446883Y6311431D01*
Y6436431D02*
X17396083Y6538031D01*
X17497684D01*
X17446883Y6436431D01*
Y6561431D02*
X17396083Y6663031D01*
X17497684D01*
X17446883Y6561431D01*
Y6686431D02*
X17396083Y6788031D01*
X17497684D01*
X17446883Y6686431D01*
Y6811431D02*
X17396083Y6913031D01*
X17497684D01*
X17446883Y6811431D01*
Y6936431D02*
X17396083Y7038031D01*
X17497684D01*
X17446883Y6936431D01*
Y7061431D02*
X17396083Y7163031D01*
X17497684D01*
X17446883Y7061431D01*
Y7186431D02*
X17396083Y7288031D01*
X17497684D01*
X17446883Y7186431D01*
Y7311431D02*
X17396083Y7413031D01*
X17497684D01*
X17446883Y7311431D01*
Y7436431D02*
X17396083Y7538031D01*
X17497684D01*
X17446883Y7436431D01*
Y7561431D02*
X17396083Y7663031D01*
X17497684D01*
X17446883Y7561431D01*
Y7686431D02*
X17396083Y7788031D01*
X17497684D01*
X17446883Y7686431D01*
Y7811431D02*
X17396083Y7913031D01*
X17497684D01*
X17446883Y7811431D01*
Y7936431D02*
X17396083Y8038031D01*
X17497684D01*
X17446883Y7936431D01*
Y8061431D02*
X17396083Y8163031D01*
X17497684D01*
X17446883Y8061431D01*
Y8186431D02*
X17396083Y8288031D01*
X17497684D01*
X17446883Y8186431D01*
Y8311431D02*
X17396083Y8413031D01*
X17497684D01*
X17446883Y8311431D01*
Y8436431D02*
X17396083Y8538031D01*
X17497684D01*
X17446883Y8436431D01*
Y8561431D02*
X17396083Y8663031D01*
X17497684D01*
X17446883Y8561431D01*
Y8686431D02*
X17396083Y8788031D01*
X17497684D01*
X17446883Y8686431D01*
Y8811431D02*
X17396083Y8913031D01*
X17497684D01*
X17446883Y8811431D01*
Y8936431D02*
X17396083Y9038031D01*
X17497684D01*
X17446883Y8936431D01*
Y9061431D02*
X17396083Y9163031D01*
X17497684D01*
X17446883Y9061431D01*
Y9186431D02*
X17396083Y9288031D01*
X17497684D01*
X17446883Y9186431D01*
Y9311431D02*
X17396083Y9413031D01*
X17497684D01*
X17446883Y9311431D01*
Y9436431D02*
X17396083Y9538031D01*
X17497684D01*
X17446883Y9436431D01*
Y9561431D02*
X17396083Y9663031D01*
X17497684D01*
X17446883Y9561431D01*
Y9686431D02*
X17396083Y9788031D01*
X17497684D01*
X17446883Y9686431D01*
Y9811431D02*
X17396083Y9913031D01*
X17497684D01*
X17446883Y9811431D01*
Y9936431D02*
X17396083Y10038031D01*
X17497684D01*
X17446883Y9936431D01*
Y10061431D02*
X17396083Y10163031D01*
X17497684D01*
X17446883Y10061431D01*
Y10186431D02*
X17396083Y10288031D01*
X17497684D01*
X17446883Y10186431D01*
Y10311431D02*
X17396083Y10413031D01*
X17497684D01*
X17446883Y10311431D01*
Y10436431D02*
X17396083Y10538031D01*
X17497684D01*
X17446883Y10436431D01*
Y10561431D02*
X17396083Y10663031D01*
X17497684D01*
X17446883Y10561431D01*
Y10686431D02*
X17396083Y10788031D01*
X17497684D01*
X17446883Y10686431D01*
Y10811431D02*
X17396083Y10913031D01*
X17497684D01*
X17446883Y10811431D01*
Y10936431D02*
X17396083Y11038031D01*
X17497684D01*
X17446883Y10936431D01*
Y11061431D02*
X17396083Y11163031D01*
X17497684D01*
X17446883Y11061431D01*
Y11186431D02*
X17396083Y11288031D01*
X17497684D01*
X17446883Y11186431D01*
Y11311431D02*
X17396083Y11413031D01*
X17497684D01*
X17446883Y11311431D01*
Y11436431D02*
X17396083Y11538031D01*
X17497684D01*
X17446883Y11436431D01*
Y11561431D02*
X17396083Y11663031D01*
X17497684D01*
X17446883Y11561431D01*
Y11686431D02*
X17396083Y11788031D01*
X17497684D01*
X17446883Y11686431D01*
Y11811431D02*
X17396083Y11913031D01*
X17497684D01*
X17446883Y11811431D01*
Y11936431D02*
X17396083Y12038031D01*
X17497684D01*
X17446883Y11936431D01*
Y12061431D02*
X17396083Y12163031D01*
X17497684D01*
X17446883Y12061431D01*
X17432646Y12185617D02*
X17381847Y12287217D01*
X17483446D01*
X17432646Y12185617D01*
X17370471Y12294057D02*
X17319672Y12395657D01*
X17421271D01*
X17370471Y12294057D01*
X17269974Y12368389D02*
X17219173Y12469989D01*
X17320773D01*
X17269974Y12368389D01*
X17147990Y12395687D02*
X17097191Y12497287D01*
X17198792D01*
X17147990Y12395687D01*
D210*
X3952800Y9145000D02*
G03*
X3952800Y9145000I-50800J0D01*
G01*
Y5813000D02*
G03*
X3952800Y5813000I-50800J0D01*
G01*
%TF.MD5,3e7aa9719b483bccab44d1b632eefb1f*%
M02*
