%TF.GenerationSoftware,Altium Limited,Altium Designer,24.2.2 (26)*%
G04 Layer_Color=128*
%FSLAX45Y45*%
%MOMM*%
%TF.SameCoordinates,B61E387C-C652-4A73-A4A4-6DD95E315EF5*%
%TF.FilePolarity,Positive*%
%TF.FileFunction,Paste,Bot*%
%TF.Part,Single*%
G01*
G75*
%TA.AperFunction,SMDPad,CuDef*%
G04:AMPARAMS|DCode=115|XSize=3.93mm|YSize=1.06mm|CornerRadius=0.265mm|HoleSize=0mm|Usage=FLASHONLY|Rotation=180.000|XOffset=0mm|YOffset=0mm|HoleType=Round|Shape=RoundedRectangle|*
%AMROUNDEDRECTD115*
21,1,3.93000,0.53000,0,0,180.0*
21,1,3.40000,1.06000,0,0,180.0*
1,1,0.53000,-1.70000,0.26500*
1,1,0.53000,1.70000,0.26500*
1,1,0.53000,1.70000,-0.26500*
1,1,0.53000,-1.70000,-0.26500*
%
%ADD115ROUNDEDRECTD115*%
%ADD116R,6.60400X10.48000*%
%ADD117R,3.40000X0.90000*%
D115*
X12783000Y4576000D02*
D03*
Y5084000D02*
D03*
X10104214Y4567213D02*
D03*
Y5075213D02*
D03*
D116*
X11580100Y3630001D02*
D03*
X8901314Y3621213D02*
D03*
D117*
X12768500Y4011001D02*
D03*
Y3884001D02*
D03*
Y3757001D02*
D03*
Y3630001D02*
D03*
Y3503001D02*
D03*
Y3376001D02*
D03*
Y3249001D02*
D03*
X10089714Y3240213D02*
D03*
Y3367213D02*
D03*
Y3494213D02*
D03*
Y3621213D02*
D03*
Y3748213D02*
D03*
Y3875213D02*
D03*
Y4002213D02*
D03*
%TF.MD5,41b0ddd867c39478341636b6e02f435d*%
M02*
