%TF.GenerationSoftware,Altium Limited,Altium Designer,24.2.2 (26)*%
G04 Layer_Color=0*
%FSLAX45Y45*%
%MOMM*%
%TF.SameCoordinates,B61E387C-C652-4A73-A4A4-6DD95E315EF5*%
%TF.FilePolarity,Positive*%
%TF.FileFunction,Other,Top_Component_Center*%
%TF.Part,Single*%
G01*
G75*
%TA.AperFunction,NonConductor*%
%ADD122C,0.10000*%
D122*
X6132000Y11147000D02*
X6232000D01*
X6182000Y11097000D02*
Y11197000D01*
X6910000Y4490000D02*
Y4590000D01*
X6860000Y4540000D02*
X6960000D01*
X5290000Y3840000D02*
X5390000D01*
X5340000Y3790000D02*
Y3890000D01*
X5290000Y4340000D02*
X5390000D01*
X5340000Y4290000D02*
Y4390000D01*
X5040000Y3790000D02*
Y3890000D01*
X4990000Y3840000D02*
X5090000D01*
X5040000Y4190000D02*
Y4290000D01*
X4990000Y4240000D02*
X5090000D01*
X6250000Y9400001D02*
X6350000D01*
X6300000Y9350001D02*
Y9450000D01*
X6431021Y6853003D02*
Y6953002D01*
X6381022Y6903002D02*
X6481021D01*
X6498021Y7364003D02*
X6598021D01*
X6548021Y7314003D02*
Y7414002D01*
X7738021Y6834003D02*
Y6934002D01*
X7688021Y6884002D02*
X7788021D01*
X7628021Y6464003D02*
X7728021D01*
X7678021Y6414003D02*
Y6514002D01*
X7738021Y7324003D02*
X7838021D01*
X7788021Y7274003D02*
Y7374003D01*
X12340000Y7970000D02*
X12440000D01*
X12390000Y7920000D02*
Y8020000D01*
X13580000Y7440000D02*
Y7540000D01*
X13530000Y7490000D02*
X13630000D01*
X13470000Y7070000D02*
X13570000D01*
X13520000Y7020000D02*
Y7120000D01*
X12273001Y7459000D02*
Y7559000D01*
X12223001Y7509000D02*
X12323001D01*
X13580000Y7930000D02*
X13680000D01*
X13630000Y7880000D02*
Y7980000D01*
X6410000Y4090000D02*
Y4190000D01*
X6360000Y4140000D02*
X6460000D01*
X6610000Y3190000D02*
Y3290000D01*
X6560000Y3240000D02*
X6660000D01*
X6633000Y3671607D02*
X6733000D01*
X6683000Y3621607D02*
Y3721606D01*
X13200000Y10550000D02*
Y10650000D01*
X13150000Y10600000D02*
X13250000D01*
X13510983Y11647500D02*
Y11747500D01*
X13460985Y11697500D02*
X13560983D01*
X13550000Y10847500D02*
X13650000D01*
X13600000Y10797500D02*
Y10897500D01*
X13739999Y10312500D02*
X13839999D01*
X13789999Y10262500D02*
Y10362500D01*
X12881979Y11973498D02*
X12981979D01*
X12931979Y11923498D02*
Y12023498D01*
X13050000Y11452500D02*
X13150000D01*
X13100000Y11402500D02*
Y11502500D01*
X6380000Y9850000D02*
Y9950000D01*
X6330000Y9900000D02*
X6430000D01*
X7900000Y9050000D02*
Y9150000D01*
X7850000Y9100000D02*
X7950000D01*
X7900000Y9450000D02*
Y9550000D01*
X7850000Y9500000D02*
X7950000D01*
X7899994Y9250011D02*
Y9350011D01*
X7849994Y9300011D02*
X7949994D01*
X7900000Y9650000D02*
Y9750000D01*
X7850000Y9700000D02*
X7950000D01*
X7900000Y9850000D02*
Y9950000D01*
X7850000Y9900000D02*
X7950000D01*
%TF.MD5,843f563bb5449e90ccd401a530399703*%
M02*
