%TF.GenerationSoftware,Altium Limited,Altium Designer,24.2.2 (26)*%
G04 Layer_Physical_Order=1*
G04 Layer_Color=255*
%FSLAX45Y45*%
%MOMM*%
%TF.SameCoordinates,2C43E8B5-FC8E-40A2-A425-C8743FE8A27F*%
%TF.FilePolarity,Positive*%
%TF.FileFunction,Copper,L1,Top,Signal*%
%TF.Part,Single*%
G01*
G75*
%TA.AperFunction,Conductor*%
%ADD10C,0.25400*%
%ADD11C,0.10000*%
%ADD12C,0.15000*%
%ADD13C,0.50000*%
%ADD14C,0.15400*%
%TA.AperFunction,SMDPad,CuDef*%
%ADD15R,3.80000X2.03000*%
%ADD16R,2.03000X3.80000*%
G04:AMPARAMS|DCode=17|XSize=1.97mm|YSize=0.6mm|CornerRadius=0.075mm|HoleSize=0mm|Usage=FLASHONLY|Rotation=90.000|XOffset=0mm|YOffset=0mm|HoleType=Round|Shape=RoundedRectangle|*
%AMROUNDEDRECTD17*
21,1,1.97000,0.45000,0,0,90.0*
21,1,1.82000,0.60000,0,0,90.0*
1,1,0.15000,0.22500,0.91000*
1,1,0.15000,0.22500,-0.91000*
1,1,0.15000,-0.22500,-0.91000*
1,1,0.15000,-0.22500,0.91000*
%
%ADD17ROUNDEDRECTD17*%
%ADD18R,4.69900X1.39700*%
%ADD19R,0.90000X0.80000*%
%ADD20R,0.70000X0.70000*%
%ADD21R,0.50000X0.50000*%
%ADD22R,3.80000X1.00000*%
%ADD23R,1.00000X3.80000*%
G04:AMPARAMS|DCode=24|XSize=1.87407mm|YSize=0.54213mm|CornerRadius=0.27107mm|HoleSize=0mm|Usage=FLASHONLY|Rotation=270.000|XOffset=0mm|YOffset=0mm|HoleType=Round|Shape=RoundedRectangle|*
%AMROUNDEDRECTD24*
21,1,1.87407,0.00000,0,0,270.0*
21,1,1.33193,0.54213,0,0,270.0*
1,1,0.54213,0.00000,-0.66597*
1,1,0.54213,0.00000,0.66597*
1,1,0.54213,0.00000,0.66597*
1,1,0.54213,0.00000,-0.66597*
%
%ADD24ROUNDEDRECTD24*%
%ADD25R,0.54213X1.87407*%
%ADD26R,0.58213X2.17406*%
G04:AMPARAMS|DCode=27|XSize=2.17406mm|YSize=0.58213mm|CornerRadius=0.29107mm|HoleSize=0mm|Usage=FLASHONLY|Rotation=90.000|XOffset=0mm|YOffset=0mm|HoleType=Round|Shape=RoundedRectangle|*
%AMROUNDEDRECTD27*
21,1,2.17406,0.00000,0,0,90.0*
21,1,1.59193,0.58213,0,0,90.0*
1,1,0.58213,0.00000,0.79597*
1,1,0.58213,0.00000,-0.79597*
1,1,0.58213,0.00000,-0.79597*
1,1,0.58213,0.00000,0.79597*
%
%ADD27ROUNDEDRECTD27*%
%ADD28R,0.80000X1.10000*%
%ADD29R,2.00000X1.10000*%
%ADD30R,1.10000X0.80000*%
%ADD31R,1.10000X2.00000*%
%ADD32R,0.98000X0.81000*%
%ADD33R,0.81000X0.98000*%
%ADD34R,1.79000X1.75000*%
%ADD35R,2.50000X3.80000*%
%ADD36R,1.00000X1.50000*%
%ADD37R,1.00000X1.70000*%
%ADD38R,1.45000X1.05000*%
%ADD39R,1.10000X1.70000*%
%ADD40R,1.60020X0.71120*%
%ADD41R,1.40000X2.10000*%
%ADD42R,1.50000X1.00000*%
%ADD43R,1.70000X1.00000*%
%ADD44R,3.80000X2.50000*%
%ADD45R,2.50000X4.44500*%
%ADD46R,4.80000X4.72000*%
%ADD47R,1.40000X1.27000*%
%ADD48R,2.10000X1.40000*%
%ADD49R,1.75000X1.79000*%
%ADD50R,2.50000X2.55000*%
%ADD51R,2.20000X2.00000*%
%ADD52R,1.10000X1.65000*%
%ADD53R,0.80000X0.90000*%
%ADD54R,0.75000X0.60000*%
%ADD55R,0.95000X0.95000*%
%ADD56R,0.80000X0.80000*%
%ADD57R,0.50000X0.60000*%
%ADD58R,1.30000X1.60000*%
%ADD59R,2.00000X1.60000*%
%ADD60R,1.39700X4.69900*%
%ADD61R,2.00000X2.20000*%
%ADD62R,2.55000X2.50000*%
%ADD63R,1.65100X2.84500*%
%ADD64R,0.88900X0.42000*%
%ADD65R,1.75300X2.94700*%
G04:AMPARAMS|DCode=66|XSize=1.54042mm|YSize=0.45493mm|CornerRadius=0.22746mm|HoleSize=0mm|Usage=FLASHONLY|Rotation=180.000|XOffset=0mm|YOffset=0mm|HoleType=Round|Shape=RoundedRectangle|*
%AMROUNDEDRECTD66*
21,1,1.54042,0.00000,0,0,180.0*
21,1,1.08549,0.45493,0,0,180.0*
1,1,0.45493,-0.54275,0.00000*
1,1,0.45493,0.54275,0.00000*
1,1,0.45493,0.54275,0.00000*
1,1,0.45493,-0.54275,0.00000*
%
%ADD66ROUNDEDRECTD66*%
%ADD67R,1.54042X0.45493*%
%ADD68R,1.60000X1.05000*%
%ADD69R,0.98000X0.85000*%
%ADD70R,1.27000X1.40000*%
%ADD71R,4.72000X4.80000*%
%ADD72R,0.80000X0.75000*%
G04:AMPARAMS|DCode=73|XSize=1.45mm|YSize=0.48mm|CornerRadius=0.06mm|HoleSize=0mm|Usage=FLASHONLY|Rotation=270.000|XOffset=0mm|YOffset=0mm|HoleType=Round|Shape=RoundedRectangle|*
%AMROUNDEDRECTD73*
21,1,1.45000,0.36000,0,0,270.0*
21,1,1.33000,0.48000,0,0,270.0*
1,1,0.12000,-0.18000,-0.66500*
1,1,0.12000,-0.18000,0.66500*
1,1,0.12000,0.18000,0.66500*
1,1,0.12000,0.18000,-0.66500*
%
%ADD73ROUNDEDRECTD73*%
%ADD74R,1.88000X1.68000*%
%ADD75R,0.50000X0.55000*%
%ADD76R,1.70000X1.15000*%
%ADD77R,0.45000X0.25000*%
%ADD78R,0.70000X0.95000*%
%ADD79R,1.17000X1.47000*%
%ADD80R,0.83820X1.75260*%
%ADD81R,1.75000X1.80000*%
%ADD82R,1.16000X1.82000*%
%TA.AperFunction,NonConductor*%
%ADD83C,0.25400*%
%TA.AperFunction,ComponentPad*%
%ADD84C,1.42240*%
%ADD85R,1.42240X1.42240*%
%ADD86C,1.30000*%
%ADD87R,1.30000X1.30000*%
%ADD88C,1.50000*%
%ADD89C,1.20000*%
%ADD90R,1.42240X1.42240*%
%ADD91R,1.50000X1.50000*%
%ADD92C,1.57500*%
%ADD93C,1.50800*%
%ADD94R,1.50800X1.50800*%
%ADD95C,4.16600*%
%TA.AperFunction,ViaPad*%
%ADD96C,4.00000*%
%ADD97C,8.00000*%
%ADD98C,0.45000*%
%ADD99C,1.50000*%
G36*
X7360000Y12171421D02*
X7349969Y12165221D01*
X7347300Y12164633D01*
X7346792Y12164972D01*
X7337456Y12168840D01*
X7329653Y12170392D01*
X7270347D01*
X7262544Y12168840D01*
X7262543Y12168839D01*
X7253208Y12164972D01*
X7246593Y12160552D01*
X7239448Y12153407D01*
X7235027Y12146791D01*
X7231160Y12137456D01*
X7229608Y12129652D01*
Y12124600D01*
Y11225400D01*
Y11220347D01*
X7231160Y11212544D01*
X7235027Y11203208D01*
X7236677Y11200739D01*
X7231709Y11189363D01*
X7230291Y11188039D01*
X6980000D01*
Y11960000D01*
X5611016Y11948863D01*
X5602000Y11957807D01*
Y11968668D01*
X5593545Y12011171D01*
X5576961Y12051209D01*
X5552885Y12087242D01*
X5522242Y12117885D01*
X5486209Y12141961D01*
X5446171Y12158545D01*
X5403668Y12167000D01*
X5360332D01*
X5317828Y12158545D01*
X5277791Y12141961D01*
X5241758Y12117885D01*
X5211115Y12087242D01*
X5187039Y12051209D01*
X5170454Y12011171D01*
X5162000Y11968668D01*
Y11925332D01*
X5170454Y11882828D01*
X5187039Y11842791D01*
X5211115Y11806758D01*
X5241758Y11776115D01*
X5277791Y11752038D01*
X5317828Y11735454D01*
X5360332Y11727000D01*
X5382000D01*
Y11184389D01*
X5373914Y11175489D01*
X5342654D01*
X5342652Y11175490D01*
X5105377D01*
X5101524Y11188190D01*
X5103407Y11189448D01*
X5110552Y11196593D01*
X5114972Y11203208D01*
X5118840Y11212544D01*
X5120392Y11220347D01*
Y11225400D01*
Y12124600D01*
Y12129652D01*
X5118840Y12137456D01*
X5118839Y12137457D01*
X5114972Y12146792D01*
X5110552Y12153407D01*
X5103407Y12160552D01*
X5096792Y12164972D01*
X5087456Y12168840D01*
X5079653Y12170392D01*
X5020347D01*
X5012544Y12168840D01*
X5012543Y12168839D01*
X5003208Y12164973D01*
X4996592Y12160552D01*
X4992700Y12156660D01*
X4980000Y12161260D01*
Y12320000D01*
X5130307D01*
X5131796Y12318600D01*
X5136703Y12307300D01*
X5135027Y12304791D01*
X5131160Y12295456D01*
X5129608Y12287652D01*
Y12228347D01*
X5131160Y12220544D01*
X5135027Y12211208D01*
X5139448Y12204593D01*
X5146593Y12197448D01*
X5153208Y12193027D01*
X5162544Y12189160D01*
X5170348Y12187608D01*
X6079652D01*
X6087456Y12189160D01*
X6096791Y12193027D01*
X6103407Y12197448D01*
X6110552Y12204593D01*
X6114972Y12211208D01*
X6118840Y12220544D01*
X6120392Y12228347D01*
Y12287652D01*
X6118840Y12295456D01*
X6118839Y12295456D01*
X6114973Y12304791D01*
X6113297Y12307300D01*
X6118203Y12318600D01*
X6119693Y12320000D01*
X6231080D01*
X6233862Y12316811D01*
X6237372Y12307300D01*
X6235027Y12303791D01*
X6231161Y12294456D01*
X6229608Y12286652D01*
Y12227347D01*
X6231161Y12219544D01*
X6235027Y12210208D01*
X6239448Y12203593D01*
X6246593Y12196448D01*
X6253208Y12192027D01*
X6262544Y12188160D01*
X6270348Y12186608D01*
X7179652D01*
X7187456Y12188160D01*
X7196792Y12192027D01*
X7203407Y12196448D01*
X7210552Y12203593D01*
X7214972Y12210208D01*
X7218840Y12219544D01*
X7220392Y12227347D01*
Y12286652D01*
X7218840Y12294456D01*
X7218839Y12294456D01*
X7214973Y12303791D01*
X7212628Y12307300D01*
X7216138Y12316811D01*
X7218920Y12320000D01*
X7360000D01*
Y12171421D01*
D02*
G37*
G36*
X15920609Y11859000D02*
Y11849452D01*
X15922160Y11841648D01*
X15926257Y11831756D01*
X15917381Y11820000D01*
X15746022D01*
X15738670Y11823045D01*
X15733392Y11828324D01*
Y12286175D01*
X15733000Y12288145D01*
Y12290153D01*
X15730000Y12305234D01*
Y12333978D01*
X15733044Y12341329D01*
X15738670Y12346955D01*
X15746022Y12350000D01*
X15920609D01*
Y11859000D01*
D02*
G37*
G36*
X14848190Y11876693D02*
X14861691Y11863190D01*
X14869000Y11845548D01*
Y11836000D01*
Y11291105D01*
X14866310Y11277582D01*
X14861034Y11264842D01*
X14853372Y11253377D01*
X14843622Y11243627D01*
X14832156Y11235967D01*
X14819418Y11230690D01*
X14805894Y11228000D01*
X14631000D01*
Y11228000D01*
X14621440Y11227058D01*
X14603777Y11219742D01*
X14590257Y11206223D01*
X14582942Y11188559D01*
X14582001Y11179000D01*
X14582001Y10716000D01*
X14582001D01*
Y10708043D01*
X14575909Y10693342D01*
X14564658Y10682090D01*
X14549956Y10676000D01*
X14067120Y10676000D01*
X14051665Y10679074D01*
X14037106Y10685105D01*
X14024004Y10693860D01*
X14012860Y10705003D01*
X14004105Y10718106D01*
X13998074Y10732665D01*
X13995000Y10748121D01*
Y10756000D01*
Y11434000D01*
X13995000D01*
X13995000Y11434000D01*
X13995000Y11434007D01*
X13994069Y11444447D01*
X13993579Y11445662D01*
X13986261Y11463807D01*
X13971638Y11478706D01*
X13952428Y11486874D01*
X13942000Y11487999D01*
X13661000Y11488000D01*
Y11488000D01*
X13656892D01*
X13649301Y11491144D01*
X13643491Y11496954D01*
X13640346Y11504545D01*
X13640346Y11586488D01*
X13640346Y11586488D01*
X13639999Y11599045D01*
Y11746820D01*
X13648521Y11752942D01*
X13652699Y11754399D01*
X13667696Y11751416D01*
X13776244D01*
X13792921Y11754734D01*
X13803674Y11761918D01*
X13896001Y11763000D01*
X13936000D01*
Y11763000D01*
X13948291Y11764211D01*
X13971001Y11773618D01*
X13988382Y11790999D01*
X13997789Y11813709D01*
X13999001Y11826000D01*
X13999001D01*
Y11837537D01*
X14007829Y11858854D01*
X14024146Y11875170D01*
X14045464Y11884000D01*
X14057001D01*
X14821001Y11884000D01*
X14830548D01*
X14848190Y11876693D01*
D02*
G37*
G36*
X13181329Y11716955D02*
X13186955Y11711329D01*
X13189999Y11703978D01*
Y11700000D01*
X13190192Y11698049D01*
X13191685Y11694444D01*
X13194444Y11691685D01*
X13198048Y11690192D01*
X13200000Y11690000D01*
X13228648D01*
X13229047Y11689734D01*
X13245724Y11686417D01*
X13354274D01*
X13368018Y11689150D01*
X13376993Y11685433D01*
X13385432Y11676993D01*
X13389999Y11665967D01*
Y11660000D01*
Y11480000D01*
Y11476021D01*
X13386955Y11468671D01*
X13381329Y11463045D01*
X13373978Y11460000D01*
X12920055D01*
X12901677Y11467612D01*
X12887611Y11481677D01*
X12884392Y11489451D01*
Y11537000D01*
Y11545963D01*
X12884000Y11547933D01*
Y11549941D01*
X12880502Y11567522D01*
X12880000Y11568736D01*
Y11710000D01*
Y11711989D01*
X12881522Y11715664D01*
X12884335Y11718477D01*
X12888011Y11720000D01*
X13173978D01*
X13181329Y11716955D01*
D02*
G37*
G36*
X15654210Y12357810D02*
X15669315Y12351553D01*
X15682909Y12342470D01*
X15694470Y12330909D01*
X15703554Y12317315D01*
X15709810Y12302210D01*
X15713000Y12286175D01*
Y12278000D01*
Y11492000D01*
Y11484242D01*
X15707063Y11469908D01*
X15696092Y11458937D01*
X15681758Y11453000D01*
X15010909D01*
X14996999Y11455767D01*
X14983894Y11461194D01*
X14972102Y11469074D01*
X14962074Y11479103D01*
X14954195Y11490895D01*
X14948767Y11503998D01*
X14946001Y11517908D01*
Y11890000D01*
X14945663Y11896861D01*
X14942986Y11910320D01*
X14937733Y11922998D01*
X14930112Y11934407D01*
X14920409Y11944110D01*
X14908998Y11951734D01*
X14896320Y11956986D01*
X14882861Y11959663D01*
X14875999Y11960000D01*
X13687000D01*
X13687000Y11959999D01*
X13679845Y11959648D01*
X13665810Y11956856D01*
X13652588Y11951380D01*
X13640689Y11943430D01*
X13630569Y11933310D01*
X13622620Y11921412D01*
X13617143Y11908190D01*
X13614351Y11894155D01*
X13614000Y11887000D01*
Y11493000D01*
X13614346Y11485942D01*
X13617101Y11472099D01*
X13622501Y11459059D01*
X13630344Y11447323D01*
X13640323Y11437343D01*
X13652058Y11429501D01*
X13665099Y11424100D01*
X13678941Y11421346D01*
X13686000Y11421000D01*
X13910999D01*
X13911000Y11420999D01*
X13911000Y11421000D01*
X13923132Y11421000D01*
X13945554Y11411713D01*
X13962714Y11394554D01*
X13972000Y11372133D01*
X13971999Y11360000D01*
X13972000Y10965000D01*
X13971999Y10965000D01*
X13972000Y10953860D01*
X13963474Y10933278D01*
X13947720Y10917525D01*
X13927139Y10909000D01*
X13916000Y10909000D01*
X13462000D01*
X13450662Y10909000D01*
X13429712Y10917677D01*
X13413678Y10933712D01*
X13405000Y10954662D01*
X13405000Y10966000D01*
Y11093000D01*
X13405000D01*
X13405000Y11093000D01*
X13403828Y11104900D01*
X13394720Y11126890D01*
X13377890Y11143720D01*
X13355901Y11152828D01*
X13344000Y11154000D01*
X13032001Y11154000D01*
X13022452Y11154000D01*
X13004810Y11161307D01*
X12991307Y11174810D01*
X12984000Y11192452D01*
X12984000Y11202000D01*
Y11350746D01*
X12991460Y11368756D01*
X13005243Y11382540D01*
X13023253Y11390000D01*
X13371001D01*
X13378999Y11390788D01*
X13393777Y11396910D01*
X13405090Y11408222D01*
X13411212Y11423001D01*
X13412000Y11431000D01*
Y11895000D01*
X13412000D01*
X13412000Y11895000D01*
X13412000Y11895002D01*
X13411346Y11901633D01*
X13409302Y11906571D01*
X13406270Y11913889D01*
X13396889Y11923270D01*
X13384633Y11928346D01*
X13378000Y11929000D01*
X12610000Y11929000D01*
X12590000Y11920000D01*
Y11920000D01*
X12578295Y11918847D01*
X12556666Y11909888D01*
X12540112Y11893334D01*
X12531153Y11871705D01*
X12530000Y11860000D01*
Y11850054D01*
X12522388Y11831677D01*
X12508323Y11817612D01*
X12489946Y11810000D01*
X10283105D01*
X10269582Y11812690D01*
X10256842Y11817967D01*
X10245377Y11825627D01*
X10235627Y11835377D01*
X10227967Y11846842D01*
X10222690Y11859582D01*
X10220000Y11873106D01*
Y12270000D01*
X10220000D01*
Y12278963D01*
X10223497Y12296544D01*
X10230357Y12313104D01*
X10240316Y12328009D01*
X10252991Y12340684D01*
X10267895Y12350643D01*
X10284456Y12357503D01*
X10302037Y12361000D01*
X10311000D01*
X15630000Y12361000D01*
X15638174D01*
X15654210Y12357810D01*
D02*
G37*
G36*
X16584525Y12350215D02*
X16595215Y12339525D01*
X16600999Y12325558D01*
Y12318000D01*
Y11273000D01*
Y11264844D01*
X16594759Y11249775D01*
X16583224Y11238242D01*
X16568155Y11232000D01*
X16373303D01*
X16360165Y11234613D01*
X16347791Y11239739D01*
X16336652Y11247181D01*
X16327180Y11256652D01*
X16319739Y11267790D01*
X16314613Y11280165D01*
X16312000Y11293303D01*
Y11300000D01*
Y11741000D01*
X16311662Y11747861D01*
X16308986Y11761320D01*
X16303734Y11773998D01*
X16296111Y11785407D01*
X16286407Y11795111D01*
X16274997Y11802734D01*
X16262320Y11807986D01*
X16248862Y11810663D01*
X16242000Y11811000D01*
X15979453D01*
X15961810Y11818307D01*
X15948306Y11831810D01*
X15941000Y11849452D01*
Y11859000D01*
Y12352000D01*
X16563000Y12356000D01*
X16570558D01*
X16584525Y12350215D01*
D02*
G37*
G36*
X13928323Y10852388D02*
X13942387Y10838323D01*
X13950000Y10819946D01*
Y10810000D01*
Y10640000D01*
Y10634033D01*
X13945433Y10623006D01*
X13936993Y10614567D01*
X13925967Y10610000D01*
X13524487D01*
X13518454Y10612500D01*
X13501546D01*
X13495511Y10610000D01*
X13376022D01*
X13368671Y10613045D01*
X13363045Y10618671D01*
X13360393Y10625076D01*
Y10820892D01*
X13367612Y10838323D01*
X13381677Y10852388D01*
X13400053Y10860000D01*
X13909946D01*
X13928323Y10852388D01*
D02*
G37*
G36*
X16249490Y11754149D02*
X16262149Y11741490D01*
X16269000Y11724951D01*
Y11716000D01*
Y11222000D01*
X16269356Y11214746D01*
X16272186Y11200519D01*
X16277737Y11187117D01*
X16285797Y11175055D01*
X16296056Y11164797D01*
X16308116Y11156738D01*
X16321519Y11151186D01*
X16335745Y11148356D01*
X16342999Y11148000D01*
X16676939D01*
X16697156Y11139627D01*
X16712627Y11124155D01*
X16721001Y11103940D01*
Y11093000D01*
Y10853000D01*
Y10844628D01*
X16717732Y10828206D01*
X16711327Y10812737D01*
X16702023Y10798816D01*
X16690184Y10786976D01*
X16676263Y10777674D01*
X16660794Y10771266D01*
X16644373Y10768000D01*
X16072000D01*
X16063177Y10767566D01*
X16045874Y10764125D01*
X16029575Y10757373D01*
X16014903Y10747571D01*
X16002429Y10735095D01*
X15992627Y10720426D01*
X15985875Y10704125D01*
X15982433Y10686821D01*
X15982001Y10678000D01*
Y10527000D01*
Y10515662D01*
X15973322Y10494712D01*
X15957288Y10478678D01*
X15936337Y10470000D01*
X15484711D01*
X15470415Y10472843D01*
X15456947Y10478422D01*
X15444827Y10486520D01*
X15434520Y10496828D01*
X15426422Y10508948D01*
X15420844Y10522415D01*
X15417999Y10536711D01*
Y10544000D01*
X15417664Y10550861D01*
X15414986Y10564320D01*
X15409734Y10576998D01*
X15402110Y10588408D01*
X15392407Y10598111D01*
X15380997Y10605734D01*
X15368320Y10610986D01*
X15354861Y10613663D01*
X15348000Y10614000D01*
X14718234D01*
X14701039Y10617420D01*
X14684843Y10624129D01*
X14670267Y10633869D01*
X14657869Y10646266D01*
X14648129Y10660843D01*
X14641420Y10677040D01*
X14638000Y10694234D01*
Y10703000D01*
Y11110000D01*
Y11113978D01*
X14641045Y11121329D01*
X14646671Y11126955D01*
X14654022Y11130000D01*
X15567000D01*
X15584154Y11130843D01*
X15617799Y11137536D01*
X15649493Y11150664D01*
X15678020Y11169723D01*
X15702277Y11193981D01*
X15721336Y11222505D01*
X15734464Y11254200D01*
X15741158Y11287847D01*
X15742000Y11305000D01*
Y11729000D01*
Y11735365D01*
X15746872Y11747126D01*
X15755873Y11756128D01*
X15767635Y11761000D01*
X16232951D01*
X16249490Y11754149D01*
D02*
G37*
G36*
X12799544Y11624503D02*
X12816106Y11617643D01*
X12831009Y11607684D01*
X12843684Y11595009D01*
X12853642Y11580105D01*
X12860503Y11563544D01*
X12864000Y11545963D01*
Y11537000D01*
Y11202000D01*
X12864346Y11194943D01*
X12867101Y11181099D01*
X12872502Y11168059D01*
X12880344Y11156324D01*
X12890323Y11146343D01*
X12902058Y11138502D01*
X12915099Y11133100D01*
X12928941Y11130347D01*
X12936000Y11130000D01*
X13275092D01*
X13289001Y11127233D01*
X13302106Y11121806D01*
X13313898Y11113926D01*
X13323926Y11103897D01*
X13331805Y11092105D01*
X13337233Y11079001D01*
X13339999Y11065091D01*
Y11058000D01*
Y10376000D01*
Y10372419D01*
X13337260Y10365804D01*
X13332196Y10360740D01*
X13325580Y10358000D01*
X13121646D01*
X13106209Y10364394D01*
X13094394Y10376209D01*
X13088000Y10391646D01*
Y10400000D01*
Y10567000D01*
X13087366Y10573438D01*
X13082439Y10585334D01*
X13073334Y10594438D01*
X13061438Y10599366D01*
X13055000Y10600000D01*
X13053751D01*
Y10608499D01*
X12924850D01*
Y10600000D01*
X12721500D01*
X12708749Y10602536D01*
X12696737Y10607511D01*
X12685927Y10614734D01*
X12676734Y10623927D01*
X12669512Y10634737D01*
X12664536Y10646748D01*
X12662000Y10659499D01*
Y10666000D01*
Y10921000D01*
X12661135Y10929779D01*
X12654416Y10946000D01*
X12642001Y10958416D01*
X12625779Y10965135D01*
X12617000Y10966000D01*
X12162303D01*
X12149165Y10968613D01*
X12136790Y10973739D01*
X12125652Y10981181D01*
X12116181Y10990652D01*
X12108739Y11001790D01*
X12103613Y11014165D01*
X12101000Y11027303D01*
Y11034000D01*
X12100571Y11042723D01*
X12097168Y11059835D01*
X12090491Y11075954D01*
X12080798Y11090461D01*
X12068461Y11102798D01*
X12053954Y11112491D01*
X12037835Y11119168D01*
X12020723Y11122571D01*
X12012000Y11123000D01*
X11700640D01*
X11687041Y11128633D01*
X11676633Y11139041D01*
X11671000Y11152640D01*
Y11160000D01*
Y11285000D01*
X11670135Y11293779D01*
X11663416Y11310000D01*
X11651001Y11322416D01*
X11634779Y11329135D01*
X11626000Y11330000D01*
X11548676D01*
X11546667D01*
X11544697Y11330392D01*
X11538000D01*
X11213301Y11330392D01*
X11198076Y11336698D01*
X11185698Y11349076D01*
X11179000Y11365248D01*
Y11374000D01*
Y11611000D01*
Y11614381D01*
X11181588Y11620630D01*
X11186370Y11625412D01*
X11192618Y11628000D01*
X12781963D01*
X12799544Y11624503D01*
D02*
G37*
G36*
X11054210Y11751810D02*
X11069315Y11745554D01*
X11082910Y11736470D01*
X11094470Y11724909D01*
X11103554Y11711315D01*
X11109810Y11696210D01*
X11113000Y11680175D01*
Y11672000D01*
Y11370000D01*
X11113000D01*
X11114153Y11358295D01*
X11123112Y11336666D01*
X11139666Y11320112D01*
X11161295Y11311153D01*
X11173000Y11310000D01*
X11538000Y11310000D01*
X11544697D01*
X11557835Y11307387D01*
X11570210Y11302261D01*
X11581347Y11294819D01*
X11590819Y11285348D01*
X11598261Y11274210D01*
X11603386Y11261835D01*
X11606000Y11248697D01*
Y11242000D01*
Y11142000D01*
X11606000D01*
X11607057Y11131270D01*
X11615269Y11111444D01*
X11630444Y11096269D01*
X11650270Y11088057D01*
X11661000Y11087000D01*
X11918000Y11087000D01*
Y11087000D01*
X11927652D01*
X11946585Y11083233D01*
X11964420Y11075846D01*
X11980471Y11065121D01*
X11994121Y11051471D01*
X12004846Y11035420D01*
X12012234Y11017585D01*
X12016000Y10998652D01*
Y10989000D01*
X12016000Y10245000D01*
X12016000D01*
Y10235651D01*
X12008844Y10218377D01*
X11995623Y10205155D01*
X11978349Y10198000D01*
X11969000D01*
X11491000Y10198000D01*
Y10198000D01*
X11483121D01*
X11467665Y10201074D01*
X11453106Y10207105D01*
X11440003Y10215860D01*
X11428860Y10227003D01*
X11420105Y10240106D01*
X11414074Y10254665D01*
X11411000Y10270120D01*
Y10278000D01*
X11411000Y10597000D01*
X11411000D01*
X11410039Y10606754D01*
X11402573Y10624778D01*
X11388778Y10638573D01*
X11370754Y10646039D01*
X11361000Y10647000D01*
X11354302D01*
X11341165Y10649613D01*
X11328790Y10654739D01*
X11317652Y10662181D01*
X11308181Y10671652D01*
X11300739Y10682790D01*
X11295613Y10695165D01*
X11293000Y10708302D01*
Y10715000D01*
Y11138000D01*
X11293000D01*
X11292135Y11146779D01*
X11285416Y11163001D01*
X11273001Y11175416D01*
X11256779Y11182135D01*
X11248000Y11183000D01*
X11023000Y11183000D01*
X10253000Y11184000D01*
Y11184000D01*
X10247231D01*
X10236573Y11188415D01*
X10228415Y11196573D01*
X10224000Y11207231D01*
Y11213000D01*
X10224000Y11682000D01*
Y11689190D01*
X10226805Y11703293D01*
X10232308Y11716578D01*
X10240297Y11728535D01*
X10250465Y11738703D01*
X10262422Y11746692D01*
X10275707Y11752195D01*
X10289810Y11755000D01*
X11038175D01*
X11054210Y11751810D01*
D02*
G37*
G36*
X7244532Y11064616D02*
X7245302Y11059261D01*
X7239448Y11053407D01*
X7235027Y11046791D01*
X7231160Y11037456D01*
X7229608Y11029652D01*
Y11024600D01*
Y10125400D01*
Y10120348D01*
X7231160Y10112544D01*
X7235027Y10103208D01*
X7239448Y10096593D01*
X7246593Y10089448D01*
X7253208Y10085027D01*
X7262544Y10081160D01*
X7270347Y10079608D01*
X7329652D01*
X7337456Y10081160D01*
X7346792Y10085027D01*
X7347300Y10085367D01*
X7360000Y10078579D01*
Y9990000D01*
X7221421D01*
X7215221Y10000030D01*
X7214633Y10002700D01*
X7214972Y10003208D01*
X7218840Y10012544D01*
X7220392Y10020347D01*
Y10079652D01*
X7218840Y10087456D01*
X7218839Y10087456D01*
X7214972Y10096791D01*
X7210552Y10103407D01*
X7203407Y10110552D01*
X7196792Y10114972D01*
X7187456Y10118840D01*
X7179653Y10120392D01*
X6270347D01*
X6262544Y10118840D01*
X6262543Y10118839D01*
X6253208Y10114972D01*
X6250739Y10113322D01*
X6239363Y10118291D01*
X6238039Y10119709D01*
Y10353194D01*
X6758471D01*
Y10331526D01*
X6766925Y10289023D01*
X6783509Y10248985D01*
X6807585Y10212952D01*
X6838229Y10182309D01*
X6874261Y10158233D01*
X6914299Y10141649D01*
X6956802Y10133194D01*
X7000138D01*
X7042642Y10141649D01*
X7082680Y10158233D01*
X7118712Y10182309D01*
X7149356Y10212952D01*
X7173432Y10248985D01*
X7190016Y10289023D01*
X7198470Y10331526D01*
Y10374862D01*
X7190016Y10417366D01*
X7173432Y10457403D01*
X7149356Y10493436D01*
X7118712Y10524079D01*
X7082680Y10548155D01*
X7042642Y10564740D01*
X7000138Y10573194D01*
X6980000D01*
Y11071961D01*
X7240808D01*
X7244532Y11064616D01*
D02*
G37*
G36*
X12573987Y10820865D02*
X12590865Y10803987D01*
X12600000Y10781935D01*
Y10770000D01*
X12600000Y10570000D01*
X12600530Y10559218D01*
X12604737Y10538069D01*
X12612989Y10518146D01*
X12624969Y10500217D01*
X12640217Y10484969D01*
X12658146Y10472989D01*
X12678069Y10464736D01*
X12699218Y10460530D01*
X12710000Y10460000D01*
Y10460000D01*
X13020000Y10460000D01*
X13023978D01*
X13031329Y10456955D01*
X13036955Y10451329D01*
X13039999Y10443978D01*
Y10440000D01*
X13039999D01*
X13039999Y10350000D01*
X13040384Y10346098D01*
X13043372Y10338888D01*
X13048889Y10333370D01*
X13056097Y10330384D01*
X13060001Y10330000D01*
Y10330000D01*
X13489999D01*
X13495853Y10330576D01*
X13506667Y10335056D01*
X13514944Y10343333D01*
X13519423Y10354147D01*
X13520000Y10360000D01*
X13520000Y10360000D01*
Y10365967D01*
X13524567Y10376993D01*
X13533006Y10385433D01*
X13544032Y10390000D01*
X13689999D01*
Y10387500D01*
X13889999D01*
Y10390000D01*
X13907956D01*
X13922658Y10383910D01*
X13933910Y10372658D01*
X13939999Y10357956D01*
Y10350000D01*
Y10120000D01*
Y10112044D01*
X13933910Y10097342D01*
X13922658Y10086090D01*
X13907956Y10080000D01*
X13900000D01*
X12271135Y10080000D01*
X12256269Y10080023D01*
X12227117Y10085870D01*
X12199665Y10097291D01*
X12174970Y10113849D01*
X12153979Y10134906D01*
X12137499Y10159654D01*
X12126164Y10187141D01*
X12120410Y10216312D01*
X12120433Y10231178D01*
X12120325Y10232277D01*
X12120162Y10234480D01*
X12120054Y10236687D01*
X12120000Y10238895D01*
X12120000Y10240000D01*
Y10240000D01*
X12120000Y10810000D01*
Y10813978D01*
X12123045Y10821329D01*
X12128671Y10826955D01*
X12136021Y10830000D01*
X12140000D01*
Y10830000D01*
X12551935D01*
X12573987Y10820865D01*
D02*
G37*
G36*
X11237728Y11149042D02*
X11245042Y11141728D01*
X11249000Y11132172D01*
Y11127000D01*
Y10646000D01*
Y10637248D01*
X11242301Y10621076D01*
X11229924Y10608698D01*
X11213752Y10602000D01*
X10857000D01*
X10849781Y10601289D01*
X10836444Y10595764D01*
X10826235Y10585556D01*
X10820711Y10572218D01*
X10820000Y10565000D01*
Y10101000D01*
Y10092844D01*
X10813758Y10077775D01*
X10802224Y10066242D01*
X10787155Y10060000D01*
X10590646D01*
X10575209Y10066394D01*
X10563394Y10078209D01*
X10557000Y10093646D01*
Y10102000D01*
Y10458000D01*
X10554000Y11090000D01*
Y11102531D01*
X10563591Y11125686D01*
X10581313Y11143409D01*
X10604469Y11153000D01*
X11228172D01*
X11237728Y11149042D01*
D02*
G37*
G36*
X5382000Y10353194D02*
X6181961D01*
Y9990000D01*
X6121422D01*
X6115221Y10000030D01*
X6114633Y10002700D01*
X6114972Y10003208D01*
X6118840Y10012544D01*
X6120392Y10020347D01*
Y10079652D01*
X6118840Y10087456D01*
X6118839Y10087456D01*
X6114973Y10096791D01*
X6110552Y10103407D01*
X6103407Y10110552D01*
X6096792Y10114972D01*
X6087456Y10118840D01*
X6079653Y10120392D01*
X5170348D01*
X5162544Y10118840D01*
X5162543Y10118839D01*
X5153208Y10114972D01*
X5146593Y10110552D01*
X5139448Y10103407D01*
X5135027Y10096791D01*
X5131160Y10087456D01*
X5129608Y10079652D01*
Y10020347D01*
X5131160Y10012544D01*
X5135027Y10003208D01*
X5135367Y10002700D01*
X5128578Y9990000D01*
X4980000D01*
Y10088741D01*
X4992700Y10093340D01*
X4996592Y10089448D01*
X5003208Y10085028D01*
X5012544Y10081161D01*
X5020347Y10079608D01*
X5079652D01*
X5087456Y10081161D01*
X5096791Y10085028D01*
X5103407Y10089448D01*
X5110552Y10096593D01*
X5114972Y10103208D01*
X5118840Y10112544D01*
X5120392Y10120347D01*
Y10125400D01*
Y11024600D01*
Y11029653D01*
X5118840Y11037456D01*
X5118839Y11037457D01*
X5114972Y11046792D01*
X5110552Y11053407D01*
X5103407Y11060552D01*
X5101525Y11061810D01*
X5105377Y11074510D01*
X5382000D01*
Y10353194D01*
D02*
G37*
G36*
X16746252Y10556541D02*
X16762631Y10549757D01*
X16777373Y10539908D01*
X16789906Y10527372D01*
X16799757Y10512631D01*
X16806541Y10496252D01*
X16810001Y10478864D01*
Y10470000D01*
Y9684000D01*
Y9658983D01*
X16800240Y9609911D01*
X16781091Y9563686D01*
X16753294Y9522084D01*
X16717915Y9486705D01*
X16676314Y9458908D01*
X16630089Y9439761D01*
X16581017Y9430000D01*
X15310152D01*
X15290831Y9433843D01*
X15272632Y9441381D01*
X15256255Y9452325D01*
X15242325Y9466254D01*
X15231381Y9482632D01*
X15223843Y9500831D01*
X15220000Y9520151D01*
Y9530000D01*
Y10370000D01*
Y10379945D01*
X15227612Y10398323D01*
X15241676Y10412388D01*
X15260054Y10420000D01*
X16020000D01*
X16029755Y10420961D01*
X16047778Y10428426D01*
X16061572Y10442221D01*
X16069038Y10460246D01*
X16070000Y10470000D01*
Y10500000D01*
Y10511935D01*
X16079134Y10533987D01*
X16096013Y10550865D01*
X16118065Y10560000D01*
X16728864D01*
X16746252Y10556541D01*
D02*
G37*
G36*
X15848000Y9348999D02*
D01*
X15859785Y9347990D01*
X15874623Y9341844D01*
X15887843Y9328623D01*
X15895000Y9311349D01*
X15895000Y9302000D01*
X15895000Y8645000D01*
X15895000Y8645000D01*
X15895721Y8630297D01*
X15901459Y8601457D01*
X15912712Y8574290D01*
X15929048Y8549841D01*
X15949841Y8529048D01*
X15974290Y8512712D01*
X16001457Y8501459D01*
X16030296Y8495722D01*
X16045000Y8495000D01*
X16589531D01*
X16612688Y8485409D01*
X16630409Y8467687D01*
X16639999Y8444531D01*
Y8432000D01*
Y7970000D01*
Y7957866D01*
X16630713Y7935446D01*
X16613554Y7918286D01*
X16591133Y7909000D01*
X16377219D01*
X16361955Y7912036D01*
X16347578Y7917991D01*
X16334641Y7926636D01*
X16323636Y7937640D01*
X16314992Y7950579D01*
X16309036Y7964956D01*
X16306000Y7980219D01*
Y8075000D01*
X16306000D01*
X16306000Y8075000D01*
X16305998Y8075017D01*
X16305524Y8084703D01*
X16305099Y8086827D01*
X16301736Y8103738D01*
X16294310Y8121668D01*
X16283528Y8137805D01*
X16269804Y8151528D01*
X16253668Y8162310D01*
X16235738Y8169737D01*
X16216702Y8173523D01*
X16207001Y8173999D01*
X15219000Y8174000D01*
X15219000Y8174000D01*
X15208560Y8174000D01*
X15188081Y8178074D01*
X15168790Y8186064D01*
X15151430Y8197664D01*
X15136664Y8212429D01*
X15125064Y8229790D01*
X15117073Y8249081D01*
X15113000Y8269560D01*
X15113000Y8280000D01*
Y9293000D01*
X15112000Y9294000D01*
Y9304940D01*
X15120374Y9325155D01*
X15135844Y9340627D01*
X15156059Y9349000D01*
X15836223D01*
X15848000Y9348999D01*
D02*
G37*
G36*
X17318588Y7083779D02*
X17333778Y7068588D01*
X17342000Y7048741D01*
Y7038000D01*
Y6331000D01*
Y6325629D01*
X17337889Y6315706D01*
X17330293Y6308111D01*
X17320370Y6304000D01*
X16735104D01*
X16721582Y6306690D01*
X16708842Y6311967D01*
X16697377Y6319627D01*
X16687627Y6329377D01*
X16679967Y6340843D01*
X16674690Y6353582D01*
X16672000Y6367106D01*
Y6374000D01*
Y6454000D01*
X16671350Y6467232D01*
X16666187Y6493188D01*
X16656059Y6517638D01*
X16641356Y6539643D01*
X16622643Y6558356D01*
X16600638Y6573059D01*
X16576189Y6583187D01*
X16550232Y6588350D01*
X16537000Y6589000D01*
X16425703D01*
X16399622Y6594188D01*
X16375053Y6604364D01*
X16352942Y6619139D01*
X16334138Y6637943D01*
X16319363Y6660053D01*
X16309187Y6684622D01*
X16303999Y6710704D01*
Y6724000D01*
Y7041000D01*
Y7051144D01*
X16311765Y7069889D01*
X16326111Y7084236D01*
X16344855Y7092000D01*
X17298741D01*
X17318588Y7083779D01*
D02*
G37*
G36*
X17332924Y6255301D02*
X17345300Y6242924D01*
X17352000Y6226752D01*
Y6218000D01*
Y5543000D01*
Y5532855D01*
X17344237Y5514111D01*
X17329889Y5499764D01*
X17311143Y5492000D01*
X16751659D01*
X16731372Y5496035D01*
X16712263Y5503950D01*
X16695065Y5515441D01*
X16680441Y5530066D01*
X16668950Y5547264D01*
X16661035Y5566372D01*
X16657001Y5586658D01*
Y5597000D01*
Y6241000D01*
Y6245177D01*
X16660197Y6252895D01*
X16666104Y6258803D01*
X16673824Y6262000D01*
X17316753D01*
X17332924Y6255301D01*
D02*
G37*
G36*
X15192155Y6598627D02*
X15207626Y6583155D01*
X15216000Y6562940D01*
Y6552000D01*
Y5728000D01*
Y5710862D01*
X15209312Y5677246D01*
X15196198Y5645580D01*
X15177155Y5617081D01*
X15152917Y5592845D01*
X15124420Y5573803D01*
X15092754Y5560687D01*
X15059138Y5554000D01*
X14974001D01*
X14964198Y5553518D01*
X14944971Y5549694D01*
X14926860Y5542192D01*
X14910561Y5531301D01*
X14896700Y5517439D01*
X14885808Y5501140D01*
X14878307Y5483028D01*
X14874481Y5463802D01*
X14874001Y5454000D01*
Y5333000D01*
Y5325839D01*
X14868520Y5312608D01*
X14858392Y5302481D01*
X14845161Y5297000D01*
X14496265D01*
X14474579Y5305982D01*
X14457982Y5322579D01*
X14449001Y5344264D01*
Y5356000D01*
Y6538000D01*
Y6544796D01*
X14451653Y6558126D01*
X14456853Y6570684D01*
X14464404Y6581985D01*
X14474014Y6591596D01*
X14485316Y6599147D01*
X14497873Y6604348D01*
X14511205Y6607000D01*
X15171941D01*
X15192155Y6598627D01*
D02*
G37*
G36*
X12626660Y5443733D02*
X12626425Y5443576D01*
X12619197Y5432759D01*
X12616659Y5420000D01*
X12619197Y5407241D01*
X12626425Y5396425D01*
X12637241Y5389198D01*
X12650000Y5386660D01*
Y5386464D01*
X12666660Y5389778D01*
X12680785Y5399216D01*
X12687300Y5408966D01*
X12700000Y5405113D01*
Y5350000D01*
X12700000D01*
X12700384Y5346098D01*
X12703371Y5338888D01*
X12708888Y5333371D01*
X12716098Y5330384D01*
X12720000Y5330000D01*
X12760000Y5330000D01*
Y5330000D01*
X12761989D01*
X12765664Y5328477D01*
X12768477Y5325664D01*
X12770000Y5321989D01*
X12770000Y5260000D01*
X12770000D01*
X12770384Y5256098D01*
X12773370Y5248888D01*
X12778888Y5243371D01*
X12786098Y5240384D01*
X12790000Y5240000D01*
X13000000Y5240000D01*
Y5240000D01*
X13007956D01*
X13022658Y5233910D01*
X13033910Y5222658D01*
X13039999Y5207956D01*
X13039999Y4980054D01*
X13032388Y4961677D01*
X13018323Y4947612D01*
X12999945Y4940000D01*
X12549263D01*
X12547792Y4940072D01*
X12546326Y4940217D01*
X12544869Y4940433D01*
X12544147Y4940577D01*
X12541401Y4940508D01*
X12536276Y4942482D01*
X12532296Y4946267D01*
X12530068Y4951287D01*
X12530000Y4954032D01*
Y5310000D01*
X12530000D01*
Y5313978D01*
X12533045Y5321329D01*
X12538671Y5326955D01*
X12546021Y5330000D01*
X12580000Y5330000D01*
Y5330000D01*
X12583902Y5330384D01*
X12591111Y5333371D01*
X12596629Y5338888D01*
X12599615Y5346098D01*
X12600000Y5350000D01*
X12600000Y5500000D01*
X12600000D01*
Y5501989D01*
X12601522Y5505664D01*
X12604335Y5508477D01*
X12608011Y5510000D01*
X12626660D01*
Y5443733D01*
D02*
G37*
G36*
X9935238Y5486723D02*
X9937873Y5483434D01*
Y5411213D01*
X9940411Y5398454D01*
X9947638Y5387637D01*
X9958455Y5380410D01*
X9971214Y5377872D01*
Y5377676D01*
X9987874Y5380990D01*
X10001999Y5390428D01*
X10008514Y5400178D01*
X10021214Y5396326D01*
Y5341212D01*
X10021214D01*
X10021598Y5337310D01*
X10024584Y5330101D01*
X10030102Y5324583D01*
X10037312Y5321597D01*
X10041214Y5321213D01*
X10081214Y5321212D01*
Y5321212D01*
X10083203D01*
X10086878Y5319690D01*
X10089691Y5316877D01*
X10091213Y5313201D01*
X10091214Y5251212D01*
X10091214D01*
X10091598Y5247310D01*
X10094584Y5240101D01*
X10100102Y5234583D01*
X10107312Y5231597D01*
X10111214Y5231213D01*
X10321214Y5231212D01*
Y5231212D01*
X10329170D01*
X10343872Y5225122D01*
X10355124Y5213870D01*
X10361213Y5199169D01*
X10361214Y4971267D01*
X10353602Y4952890D01*
X10339536Y4938824D01*
X10321159Y4931212D01*
X9870477D01*
X9869006Y4931285D01*
X9867540Y4931429D01*
X9866083Y4931645D01*
X9865361Y4931789D01*
X9862615Y4931720D01*
X9857490Y4933694D01*
X9853510Y4937479D01*
X9851282Y4942499D01*
X9851214Y4945245D01*
Y5301212D01*
X9851214D01*
Y5305191D01*
X9854259Y5312541D01*
X9859885Y5318167D01*
X9867235Y5321212D01*
X9901214Y5321212D01*
Y5321213D01*
X9905116Y5321597D01*
X9912325Y5324583D01*
X9917843Y5330101D01*
X9920829Y5337310D01*
X9921214Y5341212D01*
X9921214Y5487628D01*
X9925173Y5490952D01*
X9935238Y5486723D01*
D02*
G37*
G36*
X15492085Y7872773D02*
X15512105Y7864481D01*
X15530121Y7852443D01*
X15545444Y7837121D01*
X15557481Y7819105D01*
X15565773Y7799086D01*
X15570000Y7777834D01*
Y7767000D01*
Y7377000D01*
X15570786Y7361023D01*
X15577019Y7329684D01*
X15589247Y7300162D01*
X15606999Y7273594D01*
X15629594Y7250999D01*
X15656161Y7233247D01*
X15685684Y7221019D01*
X15717023Y7214785D01*
X15733000Y7214000D01*
X16190584D01*
X16205460Y7211041D01*
X16219473Y7205237D01*
X16232085Y7196810D01*
X16242810Y7186084D01*
X16251236Y7173473D01*
X16257040Y7159460D01*
X16260001Y7144584D01*
Y7137000D01*
Y6654000D01*
X16260756Y6638611D01*
X16266760Y6608425D01*
X16278539Y6579990D01*
X16295638Y6554400D01*
X16317400Y6532637D01*
X16342990Y6515538D01*
X16371425Y6503760D01*
X16401611Y6497756D01*
X16417000Y6497000D01*
X16508932D01*
X16530377Y6492734D01*
X16550578Y6484367D01*
X16568758Y6472219D01*
X16584219Y6456758D01*
X16596367Y6438578D01*
X16604733Y6418377D01*
X16609000Y6396932D01*
Y6386000D01*
Y5027000D01*
Y5016264D01*
X16604811Y4995206D01*
X16596594Y4975369D01*
X16584666Y4957517D01*
X16569482Y4942334D01*
X16551631Y4930405D01*
X16531795Y4922189D01*
X16510736Y4918000D01*
X15841203D01*
X15827873Y4920652D01*
X15815315Y4925853D01*
X15804015Y4933404D01*
X15794405Y4943015D01*
X15786853Y4954316D01*
X15781651Y4966873D01*
X15778999Y4980204D01*
Y4987000D01*
Y5381000D01*
X15778490Y5391390D01*
X15774435Y5411770D01*
X15766484Y5430968D01*
X15754939Y5448245D01*
X15740245Y5462939D01*
X15722968Y5474484D01*
X15703770Y5482436D01*
X15683389Y5486489D01*
X15673000Y5487000D01*
X15473688D01*
X15449539Y5491804D01*
X15426790Y5501226D01*
X15406317Y5514906D01*
X15388905Y5532317D01*
X15375226Y5552790D01*
X15365804Y5575539D01*
X15361000Y5599688D01*
Y5612000D01*
Y6611000D01*
X15360001Y6617000D01*
Y6649000D01*
X15358829Y6660900D01*
X15349719Y6682890D01*
X15332890Y6699720D01*
X15310899Y6708828D01*
X15299001Y6710000D01*
X15289249D01*
X15270123Y6713804D01*
X15252106Y6721267D01*
X15235892Y6732102D01*
X15222102Y6745891D01*
X15211267Y6762106D01*
X15203804Y6780123D01*
X15200000Y6799249D01*
Y6809000D01*
Y7778000D01*
Y7787750D01*
X15203804Y7806877D01*
X15211267Y7824894D01*
X15222102Y7841109D01*
X15235892Y7854898D01*
X15252106Y7865733D01*
X15270123Y7873195D01*
X15289249Y7877000D01*
X15470834D01*
X15492085Y7872773D01*
D02*
G37*
G36*
X12701329Y4816955D02*
X12706955Y4811329D01*
X12710000Y4803978D01*
Y4649999D01*
X12710384Y4646097D01*
X12713370Y4638888D01*
X12718888Y4633370D01*
X12726098Y4630384D01*
X12730000Y4630000D01*
X12740000Y4629999D01*
X12747956Y4630000D01*
X12762658Y4623910D01*
X12773910Y4612658D01*
X12778468Y4601654D01*
X12779999Y4590002D01*
Y4590000D01*
X12779999D01*
X12780000Y4589999D01*
X12779999Y4239999D01*
X12779999Y4236021D01*
X12776955Y4228670D01*
X12771329Y4223044D01*
X12763978Y4220000D01*
X12760000Y4220000D01*
X12748294Y4218847D01*
X12726666Y4209888D01*
X12710112Y4193334D01*
X12701153Y4171705D01*
X12700000Y4160000D01*
Y3939999D01*
X12700384Y3936098D01*
X12703370Y3928888D01*
X12708888Y3923370D01*
X12716098Y3920384D01*
X12720000Y3920000D01*
X12760000Y3919999D01*
X12763978Y3920000D01*
X12771329Y3916955D01*
X12776811Y3911474D01*
X12779999Y3900000D01*
D01*
X12780000Y3888228D01*
Y3705000D01*
X12781249Y3692319D01*
X12790954Y3668888D01*
X12808888Y3650954D01*
X12832320Y3641249D01*
X12845000Y3640000D01*
X13054601Y3639999D01*
Y3542700D01*
X13150000D01*
Y3517300D01*
X13054601D01*
Y3430000D01*
X12740000D01*
X12732196Y3429231D01*
X12717777Y3423259D01*
X12706741Y3412223D01*
X12700768Y3397803D01*
X12700000Y3390000D01*
Y3249999D01*
X12700384Y3246097D01*
X12703370Y3238888D01*
X12708888Y3233370D01*
X12716098Y3230384D01*
X12720000Y3230000D01*
X12760000Y3229999D01*
X12763978Y3230000D01*
X12771329Y3226955D01*
X12776811Y3221473D01*
X12779999Y3210000D01*
D01*
X12780000Y3198228D01*
X12779999Y2859382D01*
X12770618Y2850000D01*
X12539999D01*
X12536021Y2850000D01*
X12528670Y2853044D01*
X12523044Y2858670D01*
X12520000Y2866021D01*
X12520000Y2870000D01*
X12519999D01*
X12519423Y2875852D01*
X12514943Y2886667D01*
X12506666Y2894944D01*
X12495852Y2899423D01*
X12490001Y2900000D01*
X12490000Y2900000D01*
X12489999Y2900000D01*
X12489999Y2900000D01*
X12400400D01*
Y2987300D01*
X12320000D01*
Y3012700D01*
X12400400D01*
Y3100000D01*
X12490000D01*
X12495853Y3100576D01*
X12506667Y3105056D01*
X12514944Y3113333D01*
X12519423Y3124147D01*
X12520000Y3130000D01*
Y3210000D01*
X12519999Y3213978D01*
X12523044Y3221329D01*
X12528670Y3226955D01*
X12536021Y3230000D01*
X12540000Y3229999D01*
X12540000Y3230000D01*
X12580000D01*
X12583902Y3230384D01*
X12591111Y3233369D01*
X12596630Y3238888D01*
X12599616Y3246098D01*
X12599999Y3250000D01*
X12600000Y3250000D01*
Y3440000D01*
X12599423Y3445853D01*
X12594944Y3456667D01*
X12586667Y3464944D01*
X12575853Y3469423D01*
X12570000Y3470000D01*
X12544032D01*
X12533006Y3474567D01*
X12524567Y3483006D01*
X12520000Y3494032D01*
Y3590000D01*
X12519924Y3899238D01*
X12520032Y3899814D01*
X12520204Y3900975D01*
X12520319Y3902143D01*
X12520377Y3903315D01*
X12520384Y3903901D01*
X12520384Y3903901D01*
X12521061Y3907305D01*
X12524629Y3913259D01*
X12529994Y3917662D01*
X12536529Y3920000D01*
X12540000Y3920000D01*
X12540000Y3920000D01*
X12580000D01*
X12583902Y3920384D01*
X12591111Y3923370D01*
X12596630Y3928888D01*
X12599616Y3936098D01*
X12599999Y3940000D01*
X12600000Y3940000D01*
X12599999Y4159999D01*
X12598847Y4171705D01*
X12589888Y4193334D01*
X12573334Y4209888D01*
X12551705Y4218847D01*
X12539999Y4219999D01*
Y4220000D01*
X12536021Y4220000D01*
X12528670Y4223044D01*
X12523044Y4228670D01*
X12520000Y4236021D01*
X12520000Y4240000D01*
Y4605967D01*
X12524567Y4616993D01*
X12533006Y4625432D01*
X12544032Y4630000D01*
X12570000D01*
X12573902Y4630384D01*
X12581111Y4633369D01*
X12586630Y4638888D01*
X12589616Y4646098D01*
X12589999Y4650000D01*
X12590000Y4650000D01*
Y4800000D01*
X12589999Y4803978D01*
X12593044Y4811329D01*
X12598670Y4816956D01*
X12606021Y4820000D01*
X12610000Y4820000D01*
X12610000Y4820000D01*
X12693978D01*
X12701329Y4816955D01*
D02*
G37*
G36*
X10022543Y4808167D02*
X10028169Y4802541D01*
X10031214Y4795190D01*
Y4641212D01*
X10031598Y4637310D01*
X10034584Y4630100D01*
X10040102Y4624582D01*
X10047312Y4621596D01*
X10051214Y4621212D01*
X10061214Y4621211D01*
X10069170Y4621212D01*
X10083872Y4615123D01*
X10095124Y4603870D01*
X10099682Y4592866D01*
X10101213Y4581215D01*
Y4581212D01*
X10101213D01*
X10101214Y4581212D01*
X10101213Y4231212D01*
X10101213Y4227234D01*
X10098169Y4219883D01*
X10092542Y4214257D01*
X10085192Y4211212D01*
X10081214Y4211212D01*
X10069508Y4210059D01*
X10047880Y4201100D01*
X10031326Y4184546D01*
X10022367Y4162918D01*
X10021214Y4151212D01*
Y3931212D01*
X10021598Y3927310D01*
X10024584Y3920100D01*
X10030102Y3914582D01*
X10037312Y3911596D01*
X10041214Y3911212D01*
X10081214Y3911212D01*
X10085192Y3911212D01*
X10092543Y3908168D01*
X10098025Y3902686D01*
X10101213Y3891212D01*
D01*
X10101214Y3879441D01*
Y3696212D01*
X10102463Y3683531D01*
X10112168Y3660100D01*
X10130101Y3642166D01*
X10153533Y3632461D01*
X10166214Y3631212D01*
X10375814Y3631212D01*
Y3533912D01*
X10471214D01*
Y3508512D01*
X10375814D01*
Y3421212D01*
X10061214D01*
X10053410Y3420444D01*
X10038991Y3414471D01*
X10027955Y3403435D01*
X10021982Y3389016D01*
X10021214Y3381212D01*
Y3241212D01*
X10021598Y3237310D01*
X10024584Y3230100D01*
X10030102Y3224582D01*
X10037312Y3221596D01*
X10041214Y3221212D01*
X10081214Y3221211D01*
X10085192Y3221212D01*
X10092543Y3218168D01*
X10098025Y3212686D01*
X10101213Y3201212D01*
D01*
X10101214Y3189441D01*
X10101213Y2850594D01*
X10091832Y2841212D01*
X9861213D01*
X9857235Y2841212D01*
X9849884Y2844257D01*
X9844258Y2849883D01*
X9841213Y2857234D01*
X9841214Y2861212D01*
X9841213D01*
X9840637Y2867065D01*
X9836157Y2877879D01*
X9827880Y2886156D01*
X9817066Y2890636D01*
X9811215Y2891212D01*
X9811214Y2891212D01*
X9811213Y2891213D01*
X9811213Y2891212D01*
X9597235Y2891213D01*
X9589885Y2894257D01*
X9584259Y2899883D01*
X9581214Y2907234D01*
Y2911212D01*
X9581214D01*
X9581214Y3083201D01*
X9582736Y3086876D01*
X9585549Y3089690D01*
X9589225Y3091212D01*
X9591214D01*
Y3091212D01*
X9811214D01*
X9817066Y3091789D01*
X9827881Y3096268D01*
X9836158Y3104545D01*
X9840637Y3115359D01*
X9841214Y3121212D01*
Y3201212D01*
X9841213Y3205190D01*
X9844258Y3212542D01*
X9849884Y3218168D01*
X9857235Y3221212D01*
X9861213Y3221212D01*
X9861214Y3221212D01*
X9901214D01*
X9905116Y3221596D01*
X9912325Y3224582D01*
X9917844Y3230100D01*
X9920830Y3237310D01*
X9921213Y3241212D01*
X9921214Y3241212D01*
Y3431212D01*
X9920637Y3437065D01*
X9916158Y3447879D01*
X9907881Y3456156D01*
X9897067Y3460636D01*
X9891214Y3461212D01*
X9865246D01*
X9854220Y3465779D01*
X9845781Y3474219D01*
X9841214Y3485245D01*
Y3581212D01*
X9841138Y3890450D01*
X9841245Y3891027D01*
X9841418Y3892187D01*
X9841533Y3893355D01*
X9841590Y3894527D01*
X9841598Y3895113D01*
X9841598Y3895114D01*
X9842275Y3898517D01*
X9845843Y3904471D01*
X9851208Y3908874D01*
X9857743Y3911212D01*
X9861214Y3911212D01*
X9861214Y3911212D01*
X9901214D01*
X9905116Y3911596D01*
X9912325Y3914582D01*
X9917844Y3920100D01*
X9920830Y3927310D01*
X9921213Y3931212D01*
X9921214Y3931212D01*
X9921213Y4151212D01*
X9920060Y4162917D01*
X9911102Y4184546D01*
X9894548Y4201101D01*
X9872919Y4210059D01*
X9861213Y4211212D01*
Y4211212D01*
X9857235Y4211212D01*
X9849884Y4214257D01*
X9844258Y4219883D01*
X9841213Y4227234D01*
X9841214Y4231212D01*
Y4597180D01*
X9845781Y4608206D01*
X9854220Y4616645D01*
X9865246Y4621212D01*
X9891214D01*
X9895116Y4621596D01*
X9902325Y4624582D01*
X9907844Y4630100D01*
X9910830Y4637310D01*
X9911213Y4641212D01*
X9911214Y4641212D01*
Y4791212D01*
X9911213Y4795190D01*
X9914258Y4802542D01*
X9919884Y4808168D01*
X9927235Y4811212D01*
X9931214Y4811212D01*
X9931214Y4811212D01*
X10015192D01*
X10022543Y4808167D01*
D02*
G37*
G36*
X17341393Y5448519D02*
X17351518Y5438392D01*
X17357001Y5425161D01*
Y5418000D01*
Y4557000D01*
Y4551828D01*
X17353043Y4542272D01*
X17345728Y4534958D01*
X17336172Y4531000D01*
X16846844D01*
X16831775Y4537242D01*
X16820242Y4548776D01*
X16814000Y4563845D01*
Y4572000D01*
Y5234000D01*
X16820000Y5394000D01*
Y5405935D01*
X16829134Y5427987D01*
X16846013Y5444865D01*
X16868065Y5454000D01*
X17328162D01*
X17341393Y5448519D01*
D02*
G37*
G36*
X12310000Y5600000D02*
X12318864D01*
X12336252Y5596541D01*
X12352631Y5589757D01*
X12367371Y5579907D01*
X12379907Y5567371D01*
X12389757Y5552631D01*
X12396541Y5536252D01*
X12400000Y5518864D01*
Y5510000D01*
X12400000Y4440000D01*
Y4432121D01*
X12396925Y4416665D01*
X12390895Y4402106D01*
X12382140Y4389003D01*
X12370997Y4377860D01*
X12357894Y4369105D01*
X12343335Y4363074D01*
X12327879Y4360000D01*
X12221645D01*
X12215490Y4367500D01*
X12213549Y4377254D01*
X12208024Y4385524D01*
X12199754Y4391049D01*
X12190000Y4392990D01*
X12170000D01*
X12160245Y4391049D01*
X12151976Y4385524D01*
X12126452Y4360000D01*
X11562043D01*
X11547342Y4366090D01*
X11536089Y4377342D01*
X11530000Y4392044D01*
Y4480000D01*
X11530000D01*
X11529231Y4487803D01*
X11523258Y4502222D01*
X11512222Y4513258D01*
X11497803Y4519231D01*
X11490000Y4520000D01*
X11312043Y4520000D01*
X11297342Y4526089D01*
X11286089Y4537342D01*
X11280000Y4552043D01*
Y4560000D01*
Y5520000D01*
Y5527879D01*
X11283074Y5543335D01*
X11289105Y5557894D01*
X11297860Y5570997D01*
X11309003Y5582140D01*
X11322106Y5590895D01*
X11336665Y5596926D01*
X11352121Y5600000D01*
X12310000D01*
Y5600000D01*
D02*
G37*
G36*
X9631214Y5591212D02*
X9640078D01*
X9657466Y5587753D01*
X9673845Y5580969D01*
X9688585Y5571120D01*
X9701121Y5558584D01*
X9710970Y5543843D01*
X9717755Y5527464D01*
X9721213Y5510076D01*
Y5501212D01*
X9721214Y4431212D01*
Y4423333D01*
X9718139Y4407877D01*
X9712109Y4393318D01*
X9703354Y4380215D01*
X9692210Y4369072D01*
X9679108Y4360317D01*
X9664549Y4354286D01*
X9649093Y4351212D01*
X9542859D01*
X9536704Y4358713D01*
X9534763Y4368467D01*
X9529238Y4376736D01*
X9520968Y4382262D01*
X9511214Y4384202D01*
X9491214D01*
X9481459Y4382262D01*
X9473190Y4376736D01*
X9447666Y4351212D01*
X8883257D01*
X8868556Y4357302D01*
X8857303Y4368554D01*
X8851214Y4383256D01*
Y4471212D01*
X8851213D01*
X8850445Y4479016D01*
X8844472Y4493435D01*
X8833436Y4504471D01*
X8819017Y4510443D01*
X8811214Y4511212D01*
X8633257Y4511212D01*
X8618556Y4517302D01*
X8607303Y4528554D01*
X8601214Y4543256D01*
Y4551212D01*
Y5511212D01*
Y5519091D01*
X8604288Y5534547D01*
X8610319Y5549106D01*
X8619073Y5562209D01*
X8630217Y5573352D01*
X8643320Y5582107D01*
X8657879Y5588138D01*
X8673334Y5591212D01*
X9631214D01*
Y5591212D01*
D02*
G37*
G36*
X12416993Y4225432D02*
X12425432Y4216993D01*
X12430000Y4205967D01*
Y4200000D01*
X12430000Y3346022D01*
X12426955Y3338671D01*
X12421329Y3333045D01*
X12413978Y3330000D01*
X12410000D01*
Y3330000D01*
X12010054Y3330000D01*
X11991677Y3337612D01*
X11977612Y3351677D01*
X11970000Y3370054D01*
Y3380000D01*
X11970000D01*
Y4213978D01*
X11973045Y4221329D01*
X11978671Y4226955D01*
X11986021Y4230000D01*
X11990000Y4229999D01*
X11990000Y4230000D01*
X12116453D01*
X12151976Y4194476D01*
X12160246Y4188951D01*
X12170000Y4187010D01*
X12190000D01*
X12199754Y4188951D01*
X12208024Y4194476D01*
X12213549Y4202746D01*
X12215490Y4212500D01*
X12214535Y4217300D01*
X12222486Y4230000D01*
X12405967D01*
X12416993Y4225432D01*
D02*
G37*
G36*
X9738207Y4216645D02*
X9746646Y4208206D01*
X9751214Y4197180D01*
Y4191212D01*
X9751213Y3337234D01*
X9748168Y3329883D01*
X9742543Y3324257D01*
X9735192Y3321213D01*
X9731214D01*
Y3321212D01*
X9331268Y3321213D01*
X9312891Y3328824D01*
X9298826Y3342889D01*
X9291214Y3361267D01*
Y3371212D01*
X9291214D01*
Y4205190D01*
X9294259Y4212541D01*
X9299885Y4218167D01*
X9307235Y4221212D01*
X9311214Y4221212D01*
X9311214Y4221212D01*
X9439383D01*
X9474907Y4185689D01*
X9483176Y4180163D01*
X9492931Y4178223D01*
X9511214D01*
X9520968Y4180163D01*
X9529238Y4185689D01*
X9534763Y4193958D01*
X9536704Y4203712D01*
X9535749Y4208512D01*
X9543699Y4221212D01*
X9727181D01*
X9738207Y4216645D01*
D02*
G37*
G36*
X15645959Y5387367D02*
X15656367Y5376959D01*
X15662000Y5363360D01*
Y5356000D01*
Y4592000D01*
Y4583431D01*
X15658656Y4566623D01*
X15652098Y4550790D01*
X15642577Y4536541D01*
X15630460Y4524422D01*
X15616209Y4514901D01*
X15600377Y4508343D01*
X15583569Y4505000D01*
X14587000D01*
X14578612Y4504174D01*
X14563110Y4497753D01*
X14551247Y4485889D01*
X14544826Y4470389D01*
X14544000Y4462000D01*
Y4135044D01*
X14537910Y4120342D01*
X14526659Y4109090D01*
X14511955Y4103000D01*
X14248457D01*
X14228978Y4111068D01*
X14214069Y4125978D01*
X14206000Y4145457D01*
Y4156000D01*
Y5155999D01*
X14206000Y5156000D01*
X14206921Y5168143D01*
X14207921Y5173168D01*
X14213649Y5187000D01*
X14221967Y5199447D01*
X14232553Y5210033D01*
X14245000Y5218350D01*
X14258832Y5224079D01*
X14273515Y5227000D01*
X14848000D01*
X14860486Y5228230D01*
X14883556Y5237786D01*
X14901215Y5255443D01*
X14910770Y5278514D01*
X14912000Y5291000D01*
Y5333500D01*
X14914536Y5346251D01*
X14919511Y5358263D01*
X14926733Y5369072D01*
X14935927Y5378265D01*
X14946738Y5385488D01*
X14958748Y5390463D01*
X14971500Y5393000D01*
X15632359D01*
X15645959Y5387367D01*
D02*
G37*
G36*
X4610587Y5181965D02*
X4627465Y5165087D01*
X4636600Y5143034D01*
Y5131099D01*
Y4351100D01*
Y4347121D01*
X4633555Y4339770D01*
X4627929Y4334144D01*
X4620578Y4331100D01*
X4627929Y4328055D01*
X4633555Y4322428D01*
X4636600Y4315078D01*
Y4311100D01*
Y4131100D01*
Y4122235D01*
X4633141Y4104848D01*
X4626357Y4088469D01*
X4616507Y4073728D01*
X4603971Y4061192D01*
X4589231Y4051342D01*
X4572852Y4044558D01*
X4555464Y4041100D01*
X4059705D01*
X4046181Y4043789D01*
X4033442Y4049066D01*
X4021977Y4056727D01*
X4012227Y4066477D01*
X4004567Y4077942D01*
X3999290Y4090681D01*
X3996600Y4104205D01*
Y4111099D01*
Y4551100D01*
Y4563034D01*
X4005734Y4585087D01*
X4022612Y4601965D01*
X4044665Y4611099D01*
X4066600D01*
X4076401Y4611581D01*
X4095628Y4615405D01*
X4113739Y4622907D01*
X4130039Y4633798D01*
X4143901Y4647660D01*
X4154792Y4663960D01*
X4162294Y4682071D01*
X4166118Y4701298D01*
X4166600Y4711100D01*
Y5081100D01*
Y5091933D01*
X4170827Y5113185D01*
X4179119Y5133204D01*
X4191157Y5151220D01*
X4206479Y5166542D01*
X4224495Y5178580D01*
X4244514Y5186872D01*
X4265766Y5191100D01*
X4588534D01*
X4610587Y5181965D01*
D02*
G37*
G36*
X16724001Y4785000D02*
X16731360D01*
X16744958Y4779367D01*
X16755367Y4768959D01*
X16761000Y4755360D01*
Y4748000D01*
Y4467000D01*
X16761481Y4457198D01*
X16765306Y4437971D01*
X16772807Y4419860D01*
X16783699Y4403560D01*
X16797562Y4389699D01*
X16813860Y4378808D01*
X16831972Y4371306D01*
X16851198Y4367481D01*
X16861000Y4367000D01*
X17060190D01*
X17074294Y4364194D01*
X17087578Y4358692D01*
X17099535Y4350702D01*
X17109703Y4340535D01*
X17117693Y4328578D01*
X17123195Y4315293D01*
X17125999Y4301190D01*
Y4294000D01*
Y4111000D01*
Y4102628D01*
X17122733Y4086206D01*
X17116325Y4070737D01*
X17107024Y4056816D01*
X17095184Y4044976D01*
X17081264Y4035674D01*
X17065794Y4029267D01*
X17049371Y4026000D01*
X15838054D01*
X15819678Y4033612D01*
X15805612Y4047677D01*
X15798000Y4066054D01*
Y4076000D01*
Y4748000D01*
Y4755558D01*
X15803786Y4769525D01*
X15814474Y4780215D01*
X15828441Y4786000D01*
X16720000D01*
X16724001Y4785000D01*
D02*
G37*
G36*
X17105357Y3919453D02*
X17117453Y3907357D01*
X17124001Y3891553D01*
Y3883000D01*
Y3673000D01*
Y3665810D01*
X17121194Y3651706D01*
X17115692Y3638421D01*
X17107703Y3626465D01*
X17097536Y3616297D01*
X17085577Y3608308D01*
X17072293Y3602805D01*
X17058189Y3600000D01*
X16512000D01*
X16493181Y3599075D01*
X16456265Y3591732D01*
X16421492Y3577329D01*
X16390196Y3556418D01*
X16363582Y3529803D01*
X16342671Y3498508D01*
X16328268Y3463735D01*
X16320924Y3426819D01*
X16320000Y3408000D01*
Y2935000D01*
Y2928302D01*
X16317387Y2915165D01*
X16312260Y2902790D01*
X16304819Y2891652D01*
X16295348Y2882181D01*
X16284210Y2874739D01*
X16271835Y2869613D01*
X16258698Y2867000D01*
X15868909D01*
X15854997Y2869767D01*
X15841895Y2875194D01*
X15830103Y2883074D01*
X15820074Y2893103D01*
X15812193Y2904895D01*
X15806767Y2917998D01*
X15803999Y2931909D01*
Y2939000D01*
Y3642000D01*
X15800000Y3791000D01*
Y3804296D01*
X15805188Y3830378D01*
X15815364Y3854946D01*
X15830139Y3877057D01*
X15848943Y3895861D01*
X15871053Y3910635D01*
X15895622Y3920812D01*
X15921703Y3926000D01*
X17089552D01*
X17105357Y3919453D01*
D02*
G37*
G36*
X11903987Y4240865D02*
X11920865Y4223987D01*
X11930000Y4201935D01*
Y4190000D01*
Y3320000D01*
X11930385Y3312158D01*
X11933445Y3296777D01*
X11939446Y3282288D01*
X11948159Y3269248D01*
X11959248Y3258159D01*
X11972288Y3249446D01*
X11986777Y3243445D01*
X12002158Y3240385D01*
X12010000Y3240000D01*
X12109999Y3239999D01*
X12110490Y3239999D01*
X12111471Y3239951D01*
X12112448Y3239855D01*
X12113420Y3239710D01*
X12113901Y3239614D01*
X12120389Y3239637D01*
X12133123Y3237150D01*
X12145128Y3232227D01*
X12155941Y3225057D01*
X12165148Y3215915D01*
X12172394Y3205152D01*
X12177401Y3193182D01*
X12178924Y3185664D01*
X12179999Y3173981D01*
Y3173978D01*
X12179999D01*
X12180000Y3173977D01*
X12179999Y2900000D01*
X12179999Y2899509D01*
X12179951Y2898528D01*
X12179855Y2897551D01*
X12179711Y2896579D01*
X12179615Y2896098D01*
X12179661Y2888963D01*
X12174285Y2875745D01*
X12164260Y2865591D01*
X12155834Y2862037D01*
X12143978Y2860000D01*
X12143978Y2860000D01*
X11976098D01*
X11968888Y2862986D01*
X11963371Y2868504D01*
X11960384Y2875714D01*
X11960384Y2896098D01*
X11960288Y2896579D01*
X11960144Y2897550D01*
X11960048Y2898528D01*
X11960000Y2899508D01*
X11960000Y2900000D01*
X11959999Y3060000D01*
X11959231Y3067803D01*
X11953259Y3082222D01*
X11942222Y3093258D01*
X11931597Y3097660D01*
X11927803Y3099231D01*
X11920002Y3099999D01*
X11920000Y3100000D01*
X11920000Y3100000D01*
X11920000Y3100000D01*
X11213105D01*
X11199582Y3102690D01*
X11186842Y3107967D01*
X11175377Y3115627D01*
X11165627Y3125377D01*
X11157967Y3136842D01*
X11152690Y3149582D01*
X11150000Y3163105D01*
Y3170000D01*
Y4040000D01*
Y4047956D01*
X11156089Y4062658D01*
X11167342Y4073910D01*
X11182043Y4080000D01*
X11470000D01*
X11475853Y4080576D01*
X11486667Y4085056D01*
X11494944Y4093333D01*
X11499423Y4104147D01*
X11500000Y4110000D01*
Y4220000D01*
X11500000Y4225967D01*
X11504567Y4236993D01*
X11513006Y4245432D01*
X11524032Y4249999D01*
X11529999D01*
X11530000Y4250000D01*
X11881935D01*
X11903987Y4240865D01*
D02*
G37*
G36*
X11209127Y3080000D02*
X11211136D01*
X11213105Y3079608D01*
X11906913D01*
X11916993Y3075433D01*
X11925432Y3066993D01*
X11930000Y3055967D01*
Y3050000D01*
Y2880000D01*
Y2876021D01*
X11926955Y2868671D01*
X11921329Y2863045D01*
X11913978Y2860000D01*
X11184032D01*
X11173006Y2864567D01*
X11164567Y2873006D01*
X11160000Y2884033D01*
Y2890000D01*
Y3050000D01*
Y3055967D01*
X11164567Y3066993D01*
X11173006Y3075433D01*
X11184032Y3080000D01*
X11209126D01*
X11209127Y3080000D01*
D02*
G37*
G36*
X9225201Y4232078D02*
X9242079Y4215199D01*
X9251214Y4193147D01*
Y4181212D01*
Y3311212D01*
X9251599Y3303371D01*
X9254658Y3287989D01*
X9260660Y3273500D01*
X9269373Y3260461D01*
X9280462Y3249371D01*
X9293502Y3240658D01*
X9307991Y3234657D01*
X9323372Y3231597D01*
X9331214Y3231212D01*
X9431213Y3231211D01*
X9431704Y3231211D01*
X9432685Y3231163D01*
X9433662Y3231067D01*
X9434633Y3230923D01*
X9435115Y3230827D01*
X9441602Y3230850D01*
X9454337Y3228363D01*
X9466341Y3223440D01*
X9477155Y3216269D01*
X9486362Y3207127D01*
X9493608Y3196364D01*
X9498615Y3184394D01*
X9500137Y3176877D01*
X9501213Y3165194D01*
Y3165190D01*
X9501213D01*
X9501214Y3165190D01*
X9501213Y2891212D01*
X9501213Y2890721D01*
X9501165Y2889740D01*
X9501069Y2888763D01*
X9500925Y2887792D01*
X9500829Y2887310D01*
X9500875Y2880176D01*
X9495499Y2866958D01*
X9485474Y2856803D01*
X9477048Y2853250D01*
X9465192Y2851212D01*
X9465192Y2851212D01*
X9297312D01*
X9290102Y2854199D01*
X9284584Y2859716D01*
X9281598Y2866926D01*
X9281598Y2887310D01*
X9281502Y2887792D01*
X9281358Y2888763D01*
X9281262Y2889740D01*
X9281214Y2890721D01*
X9281214Y2891212D01*
X9281213Y3051212D01*
X9280445Y3059016D01*
X9274472Y3073435D01*
X9263436Y3084471D01*
X9252811Y3088872D01*
X9249017Y3090444D01*
X9241216Y3091211D01*
X9241214Y3091212D01*
X9241214Y3091213D01*
X9241214Y3091212D01*
X8534319D01*
X8520796Y3093902D01*
X8508056Y3099179D01*
X8496591Y3106840D01*
X8486841Y3116590D01*
X8479180Y3128055D01*
X8473904Y3140794D01*
X8471214Y3154318D01*
Y3161212D01*
Y4031212D01*
Y4039168D01*
X8477303Y4053870D01*
X8488556Y4065122D01*
X8503257Y4071212D01*
X8791214D01*
X8797066Y4071789D01*
X8807881Y4076268D01*
X8816158Y4084545D01*
X8820637Y4095359D01*
X8821214Y4101212D01*
Y4211212D01*
X8821213Y4217180D01*
X8825781Y4228205D01*
X8834220Y4236645D01*
X8845246Y4241212D01*
X8851213D01*
X8851213Y4241212D01*
X9203148D01*
X9225201Y4232078D01*
D02*
G37*
G36*
X8530341Y3071212D02*
X8532350D01*
X8534319Y3070820D01*
X9228127D01*
X9238207Y3066645D01*
X9246646Y3058206D01*
X9251214Y3047180D01*
Y3041212D01*
Y2871212D01*
Y2867234D01*
X9248169Y2859883D01*
X9242543Y2854257D01*
X9235192Y2851212D01*
X8505246D01*
X8494220Y2855779D01*
X8485781Y2864219D01*
X8481214Y2875245D01*
Y2881212D01*
Y3041212D01*
Y3047180D01*
X8485781Y3058206D01*
X8494220Y3066645D01*
X8505246Y3071212D01*
X8530340D01*
X8530341Y3071212D01*
D02*
G37*
G36*
X14153987Y4490865D02*
X14170865Y4473987D01*
X14180000Y4451934D01*
Y4440000D01*
Y4080000D01*
X14180434Y4071178D01*
X14183875Y4053874D01*
X14190627Y4037574D01*
X14200429Y4022904D01*
X14212904Y4010429D01*
X14227574Y4000627D01*
X14243874Y3993875D01*
X14261179Y3990433D01*
X14270000Y3990000D01*
X14458864D01*
X14476253Y3986541D01*
X14492632Y3979757D01*
X14507372Y3969907D01*
X14519907Y3957372D01*
X14529758Y3942631D01*
X14536542Y3926252D01*
X14539999Y3908864D01*
Y3900000D01*
Y2870000D01*
Y2860054D01*
X14532388Y2841677D01*
X14524051Y2833340D01*
X13351590D01*
X13348499Y2835116D01*
X13339999Y2845580D01*
Y3267879D01*
X13343074Y3283335D01*
X13349104Y3297894D01*
X13357860Y3310997D01*
X13369003Y3322140D01*
X13382106Y3330895D01*
X13396664Y3336926D01*
X13412120Y3340000D01*
X13610001D01*
X13620782Y3340530D01*
X13641931Y3344736D01*
X13661855Y3352988D01*
X13679784Y3364969D01*
X13695032Y3380217D01*
X13707011Y3398146D01*
X13715263Y3418069D01*
X13719470Y3439218D01*
X13720000Y3450000D01*
Y4440000D01*
Y4451935D01*
X13729134Y4473987D01*
X13746013Y4490865D01*
X13768065Y4500000D01*
X14131935D01*
X14153987Y4490865D01*
D02*
G37*
G36*
X17325117Y12593095D02*
X17368211Y12581549D01*
X17409431Y12564474D01*
X17448067Y12542168D01*
X17483463Y12515009D01*
X17515009Y12483461D01*
X17542169Y12448066D01*
X17564474Y12409431D01*
X17581549Y12368212D01*
X17593095Y12325118D01*
X17598920Y12280886D01*
Y12258578D01*
Y2941421D01*
Y2919115D01*
X17593095Y2874881D01*
X17581549Y2831788D01*
X17564474Y2790568D01*
X17542169Y2751932D01*
X17515009Y2716538D01*
X17483463Y2684990D01*
X17448067Y2657830D01*
X17409431Y2635525D01*
X17368211Y2618451D01*
X17325117Y2606904D01*
X17280885Y2601081D01*
X2919115D01*
X2874883Y2606904D01*
X2831788Y2618451D01*
X2790568Y2635525D01*
X2751932Y2657831D01*
X2716538Y2684990D01*
X2684990Y2716538D01*
X2657830Y2751934D01*
X2635525Y2790569D01*
X2618451Y2831788D01*
X2606904Y2874881D01*
X2601081Y2919115D01*
Y2941421D01*
Y12199999D01*
X2784709D01*
X2785523Y12199999D01*
X2794281Y12198578D01*
X2797853Y12197439D01*
X2803277Y12194703D01*
X2804978Y12193404D01*
X2810111Y12184733D01*
X2813465Y12176637D01*
X2813465Y12158348D01*
X2807722Y12144488D01*
X2799998Y12134987D01*
X2799997Y12134987D01*
X2799998Y12134986D01*
X2800000Y3054000D01*
X2801223Y3029103D01*
X2810937Y2980268D01*
X2829992Y2934265D01*
X2857655Y2892864D01*
X2892864Y2857655D01*
X2934265Y2829992D01*
X2980268Y2810937D01*
X3029103Y2801223D01*
X3054000Y2800000D01*
X17146001D01*
X17170895Y2801223D01*
X17219733Y2810937D01*
X17265735Y2829992D01*
X17307137Y2857655D01*
X17342345Y2892864D01*
X17370007Y2934265D01*
X17389062Y2980268D01*
X17398776Y3029103D01*
X17400000Y3054000D01*
Y12146000D01*
X17398776Y12170896D01*
X17389062Y12219732D01*
X17370007Y12265735D01*
X17342345Y12307136D01*
X17307137Y12342345D01*
X17265735Y12370008D01*
X17219733Y12389063D01*
X17170895Y12398777D01*
X17146001Y12400000D01*
X3000000D01*
X2980397Y12399037D01*
X2941943Y12391388D01*
X2905721Y12376384D01*
X2873121Y12354602D01*
X2845398Y12326879D01*
X2823616Y12294279D01*
X2808612Y12258057D01*
X2801991Y12224773D01*
X2800963Y12219603D01*
X2800548Y12211169D01*
X2799451Y12208257D01*
X2797985Y12206444D01*
X2797198Y12205939D01*
X2797446Y12206272D01*
X2799451Y12208257D01*
X2799997Y12209705D01*
X2797446Y12206272D01*
X2796944Y12205775D01*
X2788589Y12200407D01*
X2780892Y12200000D01*
X2601081D01*
X2601081Y12212699D01*
Y12280885D01*
X2606904Y12325117D01*
X2618451Y12368212D01*
X2635525Y12409431D01*
X2657831Y12448067D01*
X2684990Y12483461D01*
X2716538Y12515009D01*
X2751934Y12542169D01*
X2790569Y12564475D01*
X2831788Y12581549D01*
X2874881Y12593095D01*
X2919113Y12598919D01*
X17280885D01*
X17325117Y12593095D01*
D02*
G37*
%LPC*%
G36*
X10530400Y12115400D02*
X10412700D01*
Y12032700D01*
X10530400D01*
Y12115400D01*
D02*
G37*
G36*
X10387300D02*
X10269600D01*
Y12032700D01*
X10387300D01*
Y12115400D01*
D02*
G37*
G36*
X11220000Y12270000D02*
X10980000D01*
Y12010000D01*
X11220000D01*
Y12270000D01*
D02*
G37*
G36*
X10530400Y12007300D02*
X10412700D01*
Y11924600D01*
X10530400D01*
Y12007300D01*
D02*
G37*
G36*
X10387300D02*
X10269600D01*
Y11924600D01*
X10387300D01*
Y12007300D01*
D02*
G37*
G36*
X17235400Y6886900D02*
X17032700D01*
Y6772700D01*
X17235400D01*
Y6886900D01*
D02*
G37*
G36*
X17007300D02*
X16804601D01*
Y6772700D01*
X17007300D01*
Y6886900D01*
D02*
G37*
G36*
X17235400Y6747300D02*
X17032700D01*
Y6633100D01*
X17235400D01*
Y6747300D01*
D02*
G37*
G36*
X17007300D02*
X16804601D01*
Y6633100D01*
X17007300D01*
Y6747300D01*
D02*
G37*
G36*
X16323016Y6484200D02*
X16312700D01*
Y6263200D01*
X16533701D01*
Y6273518D01*
X16524719Y6318668D01*
X16507101Y6361198D01*
X16481526Y6399475D01*
X16448975Y6432027D01*
X16410698Y6457602D01*
X16368169Y6475219D01*
X16323016Y6484200D01*
D02*
G37*
G36*
X16287300D02*
X16276982D01*
X16231831Y6475219D01*
X16189302Y6457602D01*
X16151025Y6432027D01*
X16118472Y6399475D01*
X16092899Y6361198D01*
X16075281Y6318668D01*
X16066299Y6273518D01*
Y6263200D01*
X16287300D01*
Y6484200D01*
D02*
G37*
G36*
X16533701Y6237800D02*
X16312700D01*
Y6016800D01*
X16323016D01*
X16368169Y6025781D01*
X16410698Y6043398D01*
X16448975Y6068974D01*
X16481526Y6101525D01*
X16507101Y6139802D01*
X16524719Y6182332D01*
X16533701Y6227483D01*
Y6237800D01*
D02*
G37*
G36*
X16287300D02*
X16066299D01*
Y6227483D01*
X16075281Y6182332D01*
X16092899Y6139802D01*
X16118472Y6101525D01*
X16151025Y6068974D01*
X16189302Y6043398D01*
X16231831Y6025781D01*
X16276982Y6016800D01*
X16287300D01*
Y6237800D01*
D02*
G37*
G36*
X4496600Y5071100D02*
X4376600D01*
X4368758Y5070714D01*
X4353377Y5067655D01*
X4338888Y5061653D01*
X4325848Y5052940D01*
X4314759Y5041851D01*
X4306046Y5028811D01*
X4300044Y5014322D01*
X4296985Y4998941D01*
X4296600Y4991099D01*
Y4561100D01*
Y4554205D01*
X4293910Y4540681D01*
X4288633Y4527942D01*
X4280972Y4516477D01*
X4271222Y4506727D01*
X4259757Y4499066D01*
X4247018Y4493789D01*
X4233494Y4491099D01*
X4156600D01*
X4146845Y4490139D01*
X4128821Y4482673D01*
X4115026Y4468878D01*
X4107560Y4450854D01*
X4106600Y4441100D01*
Y4261100D01*
X4106937Y4254238D01*
X4109614Y4240780D01*
X4114865Y4228102D01*
X4122489Y4216692D01*
X4132192Y4206989D01*
X4143602Y4199365D01*
X4156280Y4194114D01*
X4169739Y4191437D01*
X4176600Y4191100D01*
X4506600D01*
X4512452Y4191676D01*
X4523267Y4196155D01*
X4531544Y4204432D01*
X4536023Y4215247D01*
X4536600Y4221100D01*
Y4321100D01*
Y4323089D01*
X4538122Y4326764D01*
X4540935Y4329577D01*
X4544610Y4331100D01*
X4540935Y4332622D01*
X4538122Y4335435D01*
X4536600Y4339110D01*
Y4341100D01*
Y5031100D01*
X4535831Y5038903D01*
X4529858Y5053322D01*
X4518823Y5064358D01*
X4504403Y5070331D01*
X4496600Y5071100D01*
D02*
G37*
G36*
X12140400Y3110400D02*
X12072700D01*
Y3012700D01*
X12140400D01*
Y3110400D01*
D02*
G37*
G36*
X12047300D02*
X11979600D01*
Y3012700D01*
X12047300D01*
Y3110400D01*
D02*
G37*
G36*
X12140400Y2987300D02*
X12072700D01*
Y2889600D01*
X12140400D01*
Y2987300D01*
D02*
G37*
G36*
X12047300D02*
X11979600D01*
Y2889600D01*
X12047300D01*
Y2987300D01*
D02*
G37*
G36*
X9461614Y3101612D02*
X9393914D01*
Y3003912D01*
X9461614D01*
Y3101612D01*
D02*
G37*
G36*
X9368514D02*
X9300814D01*
Y3003912D01*
X9368514D01*
Y3101612D01*
D02*
G37*
G36*
X9461614Y2978512D02*
X9393914D01*
Y2880812D01*
X9461614D01*
Y2978512D01*
D02*
G37*
G36*
X9368514D02*
X9300814D01*
Y2880812D01*
X9368514D01*
Y2978512D01*
D02*
G37*
%LPD*%
D10*
X7850000Y3800000D02*
G03*
X7810000Y3840000I-40000J0D01*
G01*
X10350000Y6962023D02*
G03*
X10218021Y7094002I-131979J0D01*
G01*
X6046000Y9754000D02*
G03*
X6010000Y9790000I-36000J0D01*
G01*
X6240000Y9470000D02*
G03*
X6300000Y9410000I60000J0D01*
G01*
X6330000Y9440000D02*
G03*
X6300000Y9410000I0J-30000D01*
G01*
X6300084Y9407417D02*
G03*
X6340000Y9370000I39916J2583D01*
G01*
X6300000Y9410000D02*
G03*
X6300084Y9407417I40000J0D01*
G01*
X6683328Y6878695D02*
G03*
X6648021Y6914002I-35307J0D01*
G01*
X7130000Y6270000D02*
G03*
X7250000Y6390000I0J120000D01*
G01*
X5710000Y6270000D02*
G03*
X5630000Y6190000I0J-80000D01*
G01*
X13070000Y8800000D02*
G03*
X13020000Y8850000I-50000J0D01*
G01*
X13070000Y8800000D02*
G03*
X13120000Y8750000I50000J0D01*
G01*
X13260001Y8695938D02*
G03*
X13205939Y8750000I-54062J0D01*
G01*
X13330000Y7254393D02*
G03*
X13325999Y7258393I-4000J0D01*
G01*
X12530000Y7480000D02*
G03*
X12490000Y7520000I-40000J0D01*
G01*
X6450000Y9440000D02*
G03*
X6490000Y9480000I0J40000D01*
G01*
X7992021Y6285057D02*
G03*
X8038021Y6174002I157054J0D01*
G01*
X13834000Y6891054D02*
G03*
X13880000Y6780000I157054J0D01*
G01*
X10599002Y6551979D02*
G03*
X10604002Y6556979I0J5000D01*
G01*
X11960000Y7267894D02*
G03*
X11955501Y7272393I-4499J0D01*
G01*
X11920000Y7030000D02*
G03*
X11960000Y7070000I0J40000D01*
G01*
X6320000Y4030000D02*
G03*
X6300000Y4010000I0J-20000D01*
G01*
X4130000Y7230000D02*
G03*
X4100000Y7200000I0J-30000D01*
G01*
X4740000Y7080000D02*
G03*
X4590000Y7230000I-150000J0D01*
G01*
X4740000Y5420000D02*
G03*
X4880000Y5280000I140000J0D01*
G01*
X5272500Y5167500D02*
G03*
X5160000Y5280000I-112500J0D01*
G01*
X12184000Y6780000D02*
G03*
X11930000Y6526000I0J-254000D01*
G01*
X10770000Y8170000D02*
G03*
X10590000Y8350000I-180000J0D01*
G01*
X9590000D02*
G03*
X9460000Y8220000I0J-130000D01*
G01*
X9350000Y7820000D02*
G03*
X9460000Y7930000I0J110000D01*
G01*
X7350000Y7900000D02*
G03*
X7430000Y7820000I80000J0D01*
G01*
X7350000Y8160000D02*
G03*
X7279999Y8230001I-70001J0D01*
G01*
X6810000Y4117100D02*
G03*
X6787100Y4140000I-22900J0D01*
G01*
X5990921Y7374003D02*
G03*
X5986521Y7369603I0J-4400D01*
G01*
X5990000Y7374007D02*
G03*
X5990921Y7374003I921J100917D01*
G01*
X5890000Y7474924D02*
G03*
X5990000Y7374007I100921J0D01*
G01*
X5890000Y7950000D02*
G03*
X5725600Y8114400I-164400J0D01*
G01*
X5950000Y9790000D02*
G03*
X5920000Y9760000I0J-30000D01*
G01*
X5844002Y6174002D02*
G03*
X5760000Y6090000I0J-84002D01*
G01*
X5530000Y5570000D02*
G03*
X5630000Y5670000I0J100000D01*
G01*
X5320000Y5600000D02*
G03*
X5350000Y5570000I30000J0D01*
G01*
X6190000Y8390000D02*
G03*
X5990000Y8190000I0J-200000D01*
G01*
X7430000Y8240000D02*
G03*
X7280000Y8390000I-150000J0D01*
G01*
X7430000Y7990000D02*
G03*
X7540000Y7880000I110000J0D01*
G01*
X8990000D02*
G03*
X9100000Y7990000I0J110000D01*
G01*
X9200000Y9160000D02*
G03*
X9100000Y9060000I0J-100000D01*
G01*
X10320000Y9050000D02*
G03*
X10210000Y9160000I-110000J0D01*
G01*
X10320000Y8780000D02*
G03*
X10450000Y8650000I130000J0D01*
G01*
X11832900Y8567100D02*
G03*
X11750000Y8650000I-82900J0D01*
G01*
X11832900Y7980000D02*
G03*
X11828501Y7975601I0J-4400D01*
G01*
X7290000Y7805998D02*
G03*
X7135998Y7960000I-154002J0D01*
G01*
X7290000Y6870000D02*
G03*
X7350000Y6810000I60000J0D01*
G01*
X7488021Y6648396D02*
G03*
X7484021Y6652396I-4000J0D01*
G01*
Y6785979D02*
G03*
X7460000Y6810000I-24021J0D01*
G01*
X7357021Y6915002D02*
G03*
X7398021Y6874003I41000J0D01*
G01*
X7608021Y6814002D02*
G03*
X7548021Y6874003I-60000J0D01*
G01*
X7484021Y7115609D02*
G03*
X7498021Y7129609I0J14000D01*
G01*
X8448021Y6734003D02*
G03*
X8470000Y6755982I0J21979D01*
G01*
X7908021Y6824003D02*
G03*
X7865021Y6781003I0J-43000D01*
G01*
X11720000Y7100000D02*
G03*
X11790000Y7030000I70000J0D01*
G01*
X11720000Y8510000D02*
G03*
X11655998Y8574002I-64002J0D01*
G01*
X10218021D02*
G03*
X10212023Y8580000I-5998J0D01*
G01*
X7360000Y6649417D02*
G03*
X7357021Y6652396I-2979J0D01*
G01*
X5544239Y6340000D02*
G03*
X5488021Y6283782I0J-56218D01*
G01*
X5478021Y7374003D02*
G03*
X5320000Y7215982I0J-158021D01*
G01*
X7290000Y6430000D02*
G03*
X7250000Y6390000I0J-40000D01*
G01*
X7424018Y6430000D02*
G03*
X7488021Y6494003I0J64002D01*
G01*
X7510000Y5360000D02*
G03*
X7670000Y5200000I160000J0D01*
G01*
X12082501Y7272393D02*
G03*
X12080000Y7269893I0J-2501D01*
G01*
X6240521Y6666396D02*
G03*
X6238021Y6663895I0J-2501D01*
G01*
X5748021Y5684003D02*
G03*
X5760000Y5695982I0J11979D01*
G01*
X7608021Y6655396D02*
G03*
X7611021Y6652396I3000J0D01*
G01*
D02*
G03*
X7570000Y6611375I0J-41021D01*
G01*
X7540000Y6410000D02*
G03*
X7570000Y6440000I0J30000D01*
G01*
X7540000Y6410000D02*
G03*
X7510000Y6380000I0J-30000D01*
G01*
X8400000Y5200000D02*
G03*
X8500000Y5300000I0J100000D01*
G01*
X8650000Y6100000D02*
G03*
X8500000Y5950000I0J-150000D01*
G01*
X8648021Y6964002D02*
G03*
X8778021Y6834002I130000J0D01*
G01*
X10078021Y8954002D02*
G03*
X10080000Y8955980I0J1979D01*
G01*
X9888021Y8641979D02*
G03*
X9950000Y8580000I61979J0D01*
G01*
X7970000Y9097500D02*
G03*
X7967500Y9100000I-2500J0D01*
G01*
X10470000Y7200000D02*
G03*
X10690000Y6980000I220000J0D01*
G01*
X10482023Y6540000D02*
G03*
X10494002Y6551979I0J11979D01*
G01*
X10350000Y6600000D02*
G03*
X10410000Y6540000I60000J0D01*
G01*
X10028021Y6464002D02*
G03*
X9888021Y6604002I-140000J0D01*
G01*
X10028021Y6161979D02*
G03*
X10090000Y6100000I61979J0D01*
G01*
X8004018Y7260000D02*
G03*
X7988021Y7244003I0J-15997D01*
G01*
X12460000Y7590000D02*
G03*
X12463501Y7593501I0J3501D01*
G01*
X9971214Y5411213D02*
G03*
X9981214Y5421213I0J10000D01*
G01*
X10218021Y6724002D02*
G03*
X10108021Y6834002I-110000J0D01*
G01*
X7988021Y7119609D02*
G03*
X7992021Y7115609I4000J0D01*
G01*
X6621521Y6940502D02*
G03*
X6648021Y6914002I26499J0D01*
G01*
X6145121Y7374003D02*
G03*
X6155121Y7364003I10000J0D01*
G01*
X6494521Y7139609D02*
G03*
X6498021Y7143109I0J3500D01*
G01*
X6388021Y7364003D02*
G03*
X6368021Y7344003I0J-20000D01*
G01*
X6494521Y6517502D02*
G03*
X6498021Y6514002I3499J0D01*
G01*
X5478021Y5684003D02*
G03*
X5488021Y5694003I0J10000D01*
G01*
X8448021Y6734003D02*
G03*
X8358021Y6644002I0J-90000D01*
G01*
X8213168Y5344002D02*
G03*
X8358021Y5404002I0J204853D01*
G01*
X8018021Y6824003D02*
G03*
X8118021Y6924002I0J100000D01*
G01*
X8119021Y7115609D02*
G03*
X8171184Y7094002I52163J52163D01*
G01*
X10599002Y6076979D02*
G03*
X10604002Y6081979I0J5000D01*
G01*
X11420000Y6900000D02*
G03*
X11330000Y6810000I0J-90000D01*
G01*
X12460000Y6900000D02*
G03*
X12530000Y6970000I0J70000D01*
G01*
X12463501Y7546499D02*
G03*
X12490000Y7520000I26499J0D01*
G01*
X11320000Y6290000D02*
G03*
X11330000Y6300000I0J10000D01*
G01*
X13210001Y7410000D02*
G03*
X13199001Y7399000I0J-11000D01*
G01*
X11850000Y6290000D02*
G03*
X11930000Y6370000I0J80000D01*
G01*
X11294000Y7980000D02*
G03*
X11040000Y7726000I0J-254000D01*
G01*
X6002395Y11326605D02*
G03*
X5979000Y11350000I-23395J0D01*
G01*
X4700000Y11650000D02*
G03*
X4650000Y11700000I-50000J0D01*
G01*
X4700000Y11250000D02*
G03*
X4800000Y11150000I100000J0D01*
G01*
X7568700Y11378700D02*
G03*
X7510000Y11320000I0J-58700D01*
G01*
X7825000Y11378700D02*
G03*
X7832900Y11386600I0J7900D01*
G01*
X8130000Y11830000D02*
G03*
X8010000Y11950000I-120000J0D01*
G01*
X7570000D02*
G03*
X7450000Y11830000I0J-120000D01*
G01*
X6365000Y11330000D02*
G03*
X6361605Y11326605I0J-3395D01*
G01*
X5632500Y9737500D02*
G03*
X5590000Y9780000I-42500J0D01*
G01*
X6554000Y9631607D02*
G03*
X6560000Y9637607I0J6000D01*
G01*
X7600000Y10580000D02*
G03*
X7530000Y10510000I0J-70000D01*
G01*
X17400000Y12146000D02*
G03*
X17146001Y12400000I-254000J0D01*
G01*
X13673483Y11860000D02*
G03*
X13510983Y11697500I0J-162500D01*
G01*
D02*
G03*
X13478484Y11730000I-32500J0D01*
G01*
X17146001Y2800000D02*
G03*
X17400000Y3054000I0J254000D01*
G01*
X15035001Y9815000D02*
G03*
X15030000Y9820000I-5000J0D01*
G01*
X12336501Y7123499D02*
G03*
X12340000Y7120000I3499J0D01*
G01*
X6300000Y8947100D02*
G03*
X6337100Y8910000I37100J0D01*
G01*
X3054000Y12400000D02*
G03*
X2800000Y12146000I0J-254000D01*
G01*
X6535000Y4465000D02*
G03*
X6410000Y4340000I0J-125000D01*
G01*
X6410000D02*
G03*
X6335000Y4265000I0J-75000D01*
G01*
X2800000Y3053999D02*
G03*
X3054000Y2799999I254000J0D01*
G01*
X4930000Y8950000D02*
G03*
X5000000Y8880000I70000J0D01*
G01*
X13386000Y4030001D02*
G03*
X13639999Y4284001I0J254000D01*
G01*
X14289999Y7340000D02*
G03*
X14200000Y7250000I0J-90000D01*
G01*
X14289999Y7340000D02*
G03*
X14400000Y7450000I0J110000D01*
G01*
X13199001Y7521000D02*
G03*
X13239999Y7480000I41000J0D01*
G01*
X13450000Y7420000D02*
G03*
X13389999Y7480000I-60000J0D01*
G01*
X13420000Y7580000D02*
G03*
X13450000Y7610000I0J30000D01*
G01*
X13260001Y7630000D02*
G03*
X13310001Y7580000I50000J0D01*
G01*
X14845000Y9415000D02*
G03*
X14910001Y9350000I65000J0D01*
G01*
X13450000Y7261393D02*
G03*
X13453000Y7258393I3000J0D01*
G01*
Y7721607D02*
G03*
X13450000Y7718607I0J-3000D01*
G01*
X13750000Y7430000D02*
G03*
X13707001Y7387000I0J-43000D01*
G01*
X13900000Y7920000D02*
G03*
X13830000Y7850000I0J-70000D01*
G01*
Y7725607D02*
G03*
X13834000Y7721607I4000J0D01*
G01*
X13961000Y7039000D02*
G03*
X13980000Y7020000I19000J0D01*
G01*
X14020000Y6980000D02*
G03*
X13980000Y7020000I-40000J0D01*
G01*
X13939999Y6080000D02*
G03*
X14020000Y6160000I0J80000D01*
G01*
X13750000Y6080000D02*
G03*
X13639999Y5970000I0J-110000D01*
G01*
X12400000Y6980000D02*
G03*
X12463501Y7043501I0J63501D01*
G01*
X12650000Y5420000D02*
G03*
X12660000Y5430001I0J10000D01*
G01*
X13350000Y9340000D02*
G03*
X13339999Y9350000I-10000J0D01*
G01*
X13350000Y9210000D02*
G03*
X13470000Y9090000I120000J0D01*
G01*
X14910001Y8980000D02*
G03*
X14800000Y9090000I-110000J0D01*
G01*
X13199001Y8321000D02*
G03*
X13150000Y8370000I-49000J0D01*
G01*
X13325999Y7721607D02*
G03*
X13339999Y7735607I0J14000D01*
G01*
X14720000Y8720000D02*
G03*
X14580000Y8860000I-140000J0D01*
G01*
X12889999Y9340000D02*
G03*
X12950000Y9400000I0J60000D01*
G01*
X14400000Y7820000D02*
G03*
X14300000Y7920000I-100000J0D01*
G01*
X14055147Y5950000D02*
G03*
X14200000Y6010000I0J204853D01*
G01*
X13961000Y7721607D02*
G03*
X14013164Y7700000I52163J52163D01*
G01*
X13860001Y7430000D02*
G03*
X13960001Y7530000I0J100000D01*
G01*
X12230000Y7970000D02*
G03*
X12210000Y7950000I0J-20000D01*
G01*
X11987100Y7980000D02*
G03*
X11997100Y7970000I10000J0D01*
G01*
X12336501Y7745607D02*
G03*
X12340000Y7749106I0J3500D01*
G01*
X6427000Y9743000D02*
G03*
X6400000Y9770000I-27000J0D01*
G01*
X5701499Y9620000D02*
G03*
X5697500Y9616001I0J-3999D01*
G01*
X6683000Y4089900D02*
G03*
X6632900Y4140000I-50099J0D01*
G01*
D02*
G03*
X6660000Y4167100I0J27100D01*
G01*
X4760000Y4930000D02*
G03*
X4740000Y4910000I0J-20000D01*
G01*
X4844000Y4329999D02*
G03*
X4858999Y4315000I15000J0D01*
G01*
X5065000Y4340000D02*
G03*
X5040000Y4315000I0J-25000D01*
G01*
X4844000Y3835000D02*
G03*
X4914000Y3765000I70000J0D01*
G01*
X5195000D02*
G03*
X5270000Y3840000I0J75000D01*
G01*
X6530000Y3160000D02*
G03*
X6535000Y3165000I0J5000D01*
G01*
X7032900Y3240000D02*
G03*
X7064000Y3271100I0J31100D01*
G01*
X6937000Y3273000D02*
G03*
X6970000Y3240000I33000J0D01*
G01*
X6685000Y3437999D02*
G03*
X6683000Y3440000I-2001J0D01*
G01*
X7122500Y3680000D02*
G03*
X7210000Y3767500I0J87500D01*
G01*
X6620000Y3680000D02*
G03*
X6556000Y3616000I0J-64000D01*
G01*
X6525000Y4620000D02*
G03*
X6535000Y4630000I0J10000D01*
G01*
X6260000Y4620000D02*
G03*
X6190000Y4550000I0J-70000D01*
G01*
Y3760000D02*
G03*
X6280000Y3670000I90000J0D01*
G01*
X6429000Y3591000D02*
G03*
X6350000Y3670000I-79000J0D01*
G01*
X6695000Y3000000D02*
G03*
X6765000Y3070000I0J70000D01*
G01*
X6302000Y3048000D02*
G03*
X6350000Y3000000I48000J0D01*
G01*
X6450000Y3090000D02*
G03*
X6470000Y3070000I20000J0D01*
G01*
X7307100Y4460000D02*
G03*
X7310000Y4462900I0J2900D01*
G01*
X7190000Y4460000D02*
G03*
X7132900Y4402900I0J-57100D01*
G01*
X6480000Y3320000D02*
G03*
X6556000Y3396000I0J76000D01*
G01*
X6480000Y3320000D02*
G03*
X6450000Y3290000I0J-30000D01*
G01*
X6300000Y3905213D02*
G03*
X6302000Y3903213I2000J0D01*
G01*
X6429000Y4011000D02*
G03*
X6410000Y4030000I-19000J0D01*
G01*
X6940000Y3900213D02*
G03*
X6937000Y3903213I-3000J0D01*
G01*
X6910000Y3750000D02*
G03*
X6940000Y3780000I0J30000D01*
G01*
X6556000Y3794000D02*
G03*
X6600000Y3750000I44000J0D01*
G01*
X7060000Y3907213D02*
G03*
X7064000Y3903213I4000J0D01*
G01*
X7073287Y3912500D02*
G03*
X7064000Y3903213I0J-9287D01*
G01*
X7060000Y4010000D02*
G03*
X7040000Y4030000I-20000J0D01*
G01*
X6970000D02*
G03*
X6937000Y3997000I0J-33000D01*
G01*
X7287100Y4140000D02*
G03*
X7437100Y3990000I150000J0D01*
G01*
X7510000Y4590000D02*
G03*
X7482900Y4617100I-27100J0D01*
G01*
X6910000Y4615000D02*
G03*
X6895000Y4630000I-15000J0D01*
G01*
X7812500Y9880000D02*
G03*
X7832500Y9900000I0J20000D01*
G01*
X6850000Y9880000D02*
G03*
X6780000Y9810000I0J-70000D01*
G01*
X6710000Y9480000D02*
G03*
X6780000Y9550000I0J70000D01*
G01*
X6554000Y9516000D02*
G03*
X6590000Y9480000I36000J0D01*
G01*
X7430000Y9930000D02*
G03*
X7530000Y10030000I0J100000D01*
G01*
X6730000Y9930000D02*
G03*
X6681000Y9881000I0J-49000D01*
G01*
X5297500Y9762500D02*
G03*
X5295811Y9770000I-17500J0D01*
G01*
X5230000Y9060000D02*
G03*
X5232500Y9062500I0J2500D01*
G01*
Y9777500D02*
G03*
X5230000Y9780000I-2500J0D01*
G01*
X5100000Y9618501D02*
G03*
X5102500Y9616001I2500J0D01*
G01*
X5130000Y9780000D02*
G03*
X5100000Y9750000I0J-30000D01*
G01*
X5102500Y9184000D02*
G03*
X5090000Y9171500I0J-12500D01*
G01*
X5925000Y9162394D02*
G03*
X5919000Y9168394I-6000J0D01*
G01*
X7832500Y9100000D02*
G03*
X7850000Y9117500I0J17500D01*
G01*
X7832500Y9692500D02*
G03*
X7825000Y9700000I-7500J0D01*
G01*
X7832500Y10090400D02*
G03*
X7822900Y10100000I-9600J0D01*
G01*
X7975000Y9892500D02*
G03*
X7967500Y9900000I-7500J0D01*
G01*
X4737500Y4630000D02*
G03*
X4740000Y4632500I0J2500D01*
G01*
X4717000Y4329999D02*
G03*
X4737500Y4350500I0J20500D01*
G01*
X4450440Y4910000D02*
G03*
X4442500Y4902059I0J-7940D01*
G01*
X7785000Y3840000D02*
X7810000D01*
X7510000D02*
X7785000D01*
X7520000Y4440000D02*
X7795000D01*
X8910000Y10400000D02*
X9370357D01*
X9508754Y10538397D01*
X9350053Y10680000D02*
X9420053Y10750000D01*
X8910000Y10680000D02*
X9350053D01*
X9420053Y10750000D02*
X9440000D01*
X13410001Y5450000D02*
Y5538500D01*
X12920000Y5710000D02*
X13238499D01*
X13410001Y5538500D01*
X5950000Y9790000D02*
X6010000D01*
X6046000Y9631607D02*
Y9754000D01*
X6300000Y9168394D02*
Y9407500D01*
X6683328Y6358207D02*
Y6878695D01*
X6665121Y6340000D02*
X6683328Y6358207D01*
X5544239Y6340000D02*
X6665121D01*
X5710000Y6270000D02*
X7130000D01*
X12889999Y8850000D02*
X13020000D01*
X13120000Y8750000D02*
X13205939D01*
X13260001Y7630000D02*
Y8695938D01*
X13330000Y7100000D02*
Y7254393D01*
X12211881Y7126480D02*
Y7270013D01*
X12209501Y7272393D02*
X12211881Y7270013D01*
Y7126480D02*
X12214261Y7124100D01*
X12080000Y7120000D02*
Y7269893D01*
X12530000Y7378897D02*
Y7480000D01*
X12528694Y7167196D02*
X12530000Y7165890D01*
Y6970000D02*
Y7165890D01*
X12528694Y7167196D02*
Y7377591D01*
X12530000Y7378897D01*
X6470000Y9887500D02*
X6490000Y9867500D01*
Y9480000D02*
Y9867500D01*
X6470000Y9887500D02*
Y9900000D01*
X5478021Y7374003D02*
X5738021D01*
X10494002Y6551979D02*
X10599002D01*
X10494002Y6296979D02*
Y6551979D01*
X10499002Y6746979D02*
X10604002D01*
X10494002Y6771979D02*
X10509002Y6756979D01*
X10494002Y6741979D02*
X10499002Y6746979D01*
X11960000Y7070000D02*
Y7267894D01*
X11720000Y7100000D02*
Y8510000D01*
X5990000Y7374003D02*
X5990921D01*
X11896250Y7103750D02*
Y7125047D01*
Y7103750D02*
X11900000Y7100000D01*
X5990000Y7374003D02*
Y7374007D01*
X11828501Y7192797D02*
X11896250Y7125047D01*
X10450000Y5422899D02*
Y5520000D01*
X10448314Y5421213D02*
X10450000Y5422899D01*
X10448314Y4721213D02*
Y5421213D01*
X13130000Y5432900D02*
Y5550000D01*
X13127100Y5430000D02*
X13130000Y5432900D01*
X13127100Y4730000D02*
Y5430000D01*
X6300000Y3905213D02*
Y4010000D01*
X6320000Y4030000D02*
X6410000D01*
X4130000Y7230000D02*
X4590000D01*
X4740000Y5420000D02*
Y7080000D01*
X4880000Y5280000D02*
X5160000D01*
X5272500Y4930000D02*
Y5167500D01*
X12184000Y6780000D02*
X12190000D01*
X10770000Y7200000D02*
X11040000D01*
X10770000D02*
Y8170000D01*
X9590000Y8350000D02*
X10590000D01*
X9460000Y7930000D02*
Y8220000D01*
X7430000Y7820000D02*
X9350000D01*
X7350000Y7900000D02*
Y8160000D01*
X7135998Y7960000D02*
Y8230001D01*
X7279999D01*
X10770000Y7200000D02*
X10770000D01*
X7540000Y7880000D02*
X8990000D01*
X6787100Y4140000D02*
X6880000D01*
X6787100Y4140000D02*
X6787100Y4140000D01*
X6810000Y3903213D02*
Y4117100D01*
X5990000Y7374007D02*
Y8190000D01*
X5986521Y7139609D02*
Y7369603D01*
X5890000Y7474924D02*
Y7950000D01*
X4100000Y8114400D02*
X5725600D01*
X5920000Y9631607D02*
Y9760000D01*
X5760000Y5695982D02*
Y6090000D01*
X5350000Y5570000D02*
X5530000D01*
X6190000Y8390000D02*
X7280000D01*
X7430000Y7990000D02*
Y8240000D01*
X9100000Y7990000D02*
Y9060000D01*
X9200000Y9160000D02*
X10210000D01*
X10320000Y8780000D02*
Y9050000D01*
X10450000Y8650000D02*
X11750000D01*
X11828501Y7745607D02*
Y7975601D01*
X11832900Y7980000D02*
Y8567100D01*
X7290000Y6870000D02*
Y7805998D01*
X7350000Y6810000D02*
X7460000D01*
X7488021Y6494003D02*
Y6648396D01*
X7484021Y6652396D02*
Y6785979D01*
X7357021Y6915002D02*
Y7115609D01*
X7398021Y6874003D02*
X7548021D01*
X8648021Y6604002D02*
X9888021D01*
X8004018Y7260000D02*
X8455121D01*
X8470000Y6755982D02*
Y7245121D01*
X8455121Y7260000D02*
X8470000Y7245121D01*
X7865021Y6652396D02*
Y6781003D01*
X7908021Y6824003D02*
X8018021D01*
X11790000Y7030000D02*
X11920000D01*
X9950000Y8580000D02*
X10212023D01*
X10218021Y8574002D02*
X11655998D01*
X7360000Y6490000D02*
Y6649417D01*
X10218021Y7594002D02*
Y8084002D01*
X5488021Y5694003D02*
Y6283782D01*
X5452021Y7374003D02*
X5478021D01*
X5320000Y5600000D02*
Y7215982D01*
X5630000Y5670000D02*
Y6190000D01*
X7290000Y6430000D02*
X7424018D01*
X7510000Y5360000D02*
Y6380000D01*
X6238021Y6514002D02*
Y6663895D01*
X5844002Y6174002D02*
X6348021D01*
X5445997Y7660000D02*
X5445998D01*
Y7960000D01*
X7608021Y6655396D02*
Y6814002D01*
X7570000Y6440000D02*
Y6611375D01*
X7670000Y5200000D02*
X8400000D01*
X8500000Y5300000D02*
Y5950000D01*
X8358021Y5404002D02*
Y6644002D01*
X8778021Y6834002D02*
X10108021D01*
X8648021Y6964002D02*
Y7094002D01*
X8648021Y8084002D02*
X8648021D01*
Y8574002D01*
X10080000Y8955980D02*
Y9070000D01*
X9888021Y8641979D02*
Y8954002D01*
X7970000Y9000000D02*
Y9097500D01*
X9358021Y8954002D02*
Y9074002D01*
X10410000Y6540000D02*
X10482023D01*
X10350000Y6600000D02*
Y6962023D01*
X10090000Y6100000D02*
X10220000D01*
X10028021Y6161979D02*
Y6464002D01*
X10690000Y6980000D02*
X12400000D01*
X11420000Y6900000D02*
X12460000D01*
X12590000Y7120000D02*
X12590501D01*
Y7272393D01*
X9971214Y5411213D02*
Y5701214D01*
X10121214Y4721213D02*
X10121214Y4721213D01*
X10121214Y5421213D02*
X10121214Y5421213D01*
X10121214Y4006213D02*
X10136214Y4021213D01*
X10471214Y3321213D02*
X10571214D01*
Y3321212D02*
Y3321213D01*
X10121214Y4721213D02*
X10294114D01*
X10136214Y4021213D02*
X10294114D01*
X10121214Y3321213D02*
X10317014D01*
X10121214Y5421213D02*
X10294114D01*
X10921214Y3521212D02*
Y3801212D01*
X10218021Y6604002D02*
Y6724002D01*
X9548021Y8954002D02*
X9888021D01*
X7738021Y7324003D02*
Y7394002D01*
X7838021Y7324003D02*
Y7394002D01*
X8118021Y7115609D02*
X8119021D01*
X7738021D02*
Y7324003D01*
X7738021D01*
X7865021Y7115609D02*
X7866521Y7114109D01*
X10494002Y6266979D02*
X10499002Y6271979D01*
X10494002Y6296979D02*
X10509002Y6281979D01*
X6875521Y6666396D02*
X7033314D01*
X6748521Y6514002D02*
Y6666396D01*
X6748021Y6514002D02*
X6748521D01*
X7058021Y6464003D02*
Y6536903D01*
X7033314Y6666396D02*
X7058021Y6691102D01*
X5986521Y6586799D02*
Y7139609D01*
X7058021Y7301102D02*
Y7374003D01*
X6875521Y7139609D02*
X7050727D01*
X7058021Y7074002D02*
Y7146903D01*
X7050727Y7139609D02*
X7058021Y7146903D01*
Y6691102D02*
Y6764002D01*
X6054271Y6497753D02*
Y6519050D01*
X6621521Y6940502D02*
Y7139609D01*
X6367521D02*
X6368021D01*
X5986521Y6586799D02*
X6054271Y6519050D01*
X6498021Y7364003D02*
Y7444002D01*
X6388021Y7364003D02*
X6498021D01*
X6155121D02*
X6388021D01*
X6368021Y7139609D02*
Y7344003D01*
X6598021Y7364003D02*
Y7444002D01*
X6054271Y6497753D02*
X6058021Y6494003D01*
X6498021Y7364003D02*
X6498021D01*
Y7143109D02*
Y7364003D01*
X6748021Y7304002D02*
X6748521D01*
Y7139609D02*
Y7304002D01*
X6494521Y6517502D02*
Y6666396D01*
X6367521Y6514002D02*
Y6666396D01*
Y6514002D02*
X6368021D01*
X7733021Y6647396D02*
X7738021Y6652396D01*
X7866521Y6975503D02*
X7868021Y6974003D01*
X7628021Y6464003D02*
X7628021D01*
X7628021Y6384002D02*
Y6464003D01*
X7733021Y6469003D02*
Y6647396D01*
X7728021Y6464003D02*
X7733021Y6469003D01*
X7728021Y6464003D02*
X7734271Y6457753D01*
Y6387753D02*
Y6457753D01*
Y6387753D02*
X7738021Y6384002D01*
X8038021Y5344002D02*
X8213168D01*
X7866521Y6975503D02*
Y7114109D01*
X8171184Y7094002D02*
X8358021D01*
X7988021Y7119609D02*
Y7244003D01*
X8118021Y6924002D02*
Y7115609D01*
X8038021Y5614002D02*
Y5884002D01*
X7992021Y6285057D02*
Y6652396D01*
X10494002Y6076979D02*
X10599002D01*
X11330000Y6300000D02*
Y6810000D01*
X12463501Y7546499D02*
Y7593501D01*
X13199001Y7258393D02*
Y7399000D01*
X13576250Y6993750D02*
X13580000Y6990000D01*
X13570000Y7070000D02*
X13576250Y7063750D01*
Y6993750D02*
Y7063750D01*
X13570000Y7070000D02*
X13575000Y7075000D01*
X13470000Y7070000D02*
X13470000D01*
X13470000Y6990000D02*
Y7070000D01*
X11930000Y6370000D02*
Y6526000D01*
X11590000Y6290000D02*
X11850000D01*
X11294000Y7980000D02*
X11320000D01*
X11040000Y7200000D02*
Y7726000D01*
X7967500Y9100000D02*
Y9300011D01*
X4300000Y11700000D02*
X4650000D01*
X4700000Y11250000D02*
Y11650000D01*
X7510000Y11160000D02*
Y11320000D01*
X7450000Y11181005D02*
Y11830000D01*
X7568700Y11378700D02*
X7695000D01*
X7832900Y11386600D02*
Y11580000D01*
X8130000Y11305920D02*
Y11830000D01*
X7570000Y11950000D02*
X8010000D01*
X7600000Y10580000D02*
X7900000D01*
X7990000Y10670000D02*
Y11587781D01*
X7900000Y10580000D02*
X7990000Y10670000D01*
X5632500Y9616001D02*
Y9737500D01*
X6850000Y9880000D02*
X7812500D01*
X6171606Y9168394D02*
X6173000D01*
X6170000Y9170000D02*
X6171606Y9168394D01*
X6173000Y8920100D02*
Y9168394D01*
X6162900Y8910000D02*
X6173000Y8920100D01*
X13673483Y11860000D02*
X13721970D01*
X13300000Y11730000D02*
X13478484D01*
X17400000Y3054000D02*
Y12146000D01*
X17100000Y2800000D02*
X17146001D01*
X15035001Y9710000D02*
Y9815000D01*
X12590501Y7745607D02*
Y7910000D01*
X12336501Y7123499D02*
Y7272393D01*
X3054000Y12400000D02*
X17146001D01*
X6905000Y9135000D02*
Y9200000D01*
X6330000Y9440000D02*
X6450000D01*
X6300000Y8947100D02*
Y9168394D01*
X6535000Y4465000D02*
X6910000D01*
X6335000Y4140000D02*
Y4265000D01*
X3300000Y2799999D02*
X17100000Y2800000D01*
X2800000Y3053999D02*
Y12146000D01*
X3054000Y2799999D02*
X3300000D01*
X5282621Y8980000D02*
X5297500Y8994879D01*
X4930000Y8950000D02*
Y11060000D01*
X5592395Y8880000D02*
X5735000D01*
X5517379D02*
X5592395D01*
X5000000D02*
X5517379D01*
X5104879Y8980000D02*
X5282621D01*
X5090000Y8994879D02*
X5104879Y8980000D01*
X5090000Y8994879D02*
Y9171500D01*
X6182000Y10864695D02*
Y10893000D01*
X13250000Y3330000D02*
Y3330001D01*
X13150000D02*
X13250000D01*
X13127100Y4030001D02*
X13386000D01*
X13339999Y7735607D02*
Y8860000D01*
X14580000D01*
X13470000Y9090000D02*
X14800000D01*
X14400000Y7450000D02*
Y7820000D01*
X14200000Y6010000D02*
Y7250000D01*
X13239999Y7480000D02*
X13389999D01*
X13310001Y7580000D02*
X13420000D01*
X13450000Y7610000D02*
Y7718607D01*
X14020000Y6160000D02*
Y6980000D01*
X13880000Y6220000D02*
Y6490000D01*
X14814999Y9710000D02*
X14830000Y9725000D01*
X14845000Y9415000D02*
Y9710000D01*
X14839999Y9715000D02*
X14845000Y9710000D01*
X14560001D02*
X14814999D01*
X14839999Y9715000D02*
Y9820000D01*
X12892706Y7745607D02*
X12900000Y7752900D01*
Y7680000D02*
Y7752900D01*
X12717501Y7745607D02*
X12892706D01*
X12900000Y7907100D02*
Y7980000D01*
Y7070000D02*
Y7142900D01*
Y7297100D02*
Y7370000D01*
X12875294Y7272393D02*
X12900000Y7297100D01*
X12717501Y7272393D02*
X12875294D01*
X13575000Y7075000D02*
Y7253393D01*
X13580000Y7258393D01*
X13707001Y7721607D02*
X13708501Y7720107D01*
Y7581500D02*
Y7720107D01*
Y7581500D02*
X13710001Y7580000D01*
X13680000Y7930000D02*
Y8000000D01*
X13580000Y7930000D02*
Y8000000D01*
X13450000Y7261393D02*
Y7420000D01*
X13199001Y7721607D02*
Y8321000D01*
Y7521000D02*
Y7721607D01*
X13707001Y7258393D02*
Y7387000D01*
X13750000Y7430000D02*
X13860001D01*
X13830000Y7725607D02*
Y7850000D01*
X11828501Y7192797D02*
Y7745607D01*
X13961000Y7039000D02*
Y7258393D01*
X13750000Y6080000D02*
X13939999D01*
X13639999Y4284001D02*
Y5970000D01*
X12463501Y7593501D02*
Y7745607D01*
Y7043501D02*
Y7272393D01*
X12660000Y5430001D02*
Y5710000D01*
X14370000Y9710000D02*
Y9830000D01*
X13480000Y9710000D02*
Y9830000D01*
X13480000D02*
X13480000D01*
X12760000Y9710000D02*
Y9830000D01*
X13350000Y9210000D02*
Y9340000D01*
X14910001Y8860000D02*
Y8980000D01*
X12889999Y8360000D02*
Y8850000D01*
X14720000Y8370000D02*
Y8720000D01*
X12950000Y9710000D02*
X13289999D01*
X12950000Y9400000D02*
Y9710000D01*
X11320000Y8850000D02*
Y9340000D01*
X11320000D01*
X13580000Y7930000D02*
X13580000D01*
X13580000Y7721607D02*
Y7930000D01*
X13900000Y7920000D02*
X14300000D01*
X12230000Y7970000D02*
X12340000D01*
Y8050000D01*
Y7970000D02*
X12340000D01*
X12440000D02*
Y8050000D01*
X12590000Y7910000D02*
X12590501D01*
X13960001Y7721607D02*
X13961000D01*
X13960001Y7530000D02*
Y7721607D01*
X14013164Y7700000D02*
X14200000D01*
X13834000Y6891054D02*
Y7258393D01*
X13880000Y5950000D02*
X14055147D01*
X11320000Y7980000D02*
X11580000D01*
X10470000Y8890000D02*
X10770000D01*
Y8890000D02*
Y8890000D01*
X12210000Y7745607D02*
Y7950000D01*
X11997100Y7970000D02*
X12230000D01*
X12209501Y7745607D02*
X12210000D01*
X12340000Y7749106D02*
Y7970000D01*
X12800000Y3330001D02*
X12995799D01*
X12800000Y4015001D02*
X12814999Y4030001D01*
X12972900D01*
X12800000Y4730000D02*
X12972900D01*
X12800000Y4730001D02*
X12800000Y4730000D01*
Y5430000D02*
X12972900D01*
X12800000Y5430001D02*
X12800000Y5430000D01*
X13600000Y3530000D02*
Y3810000D01*
X5701499Y9620000D02*
X5780000D01*
X6427000Y9631607D02*
Y9743000D01*
X6300000Y9631607D02*
Y9895000D01*
X6305000Y9900000D01*
X6683000Y3903213D02*
Y4089900D01*
X6485000Y4140000D02*
X6632900D01*
X4740000Y4632500D02*
Y4910000D01*
X4760000Y4930000D02*
X4987500D01*
X5040000Y3915000D02*
X5040000D01*
Y3980000D01*
X5040000Y4100000D02*
Y4165000D01*
Y4100000D02*
X5040000D01*
X5065000Y4340000D02*
X5270000D01*
X4858999Y4315000D02*
X5040000D01*
Y3765000D02*
X5195000D01*
X4914000D02*
X5040000D01*
X5410000Y3840000D02*
X5510000D01*
X6810000Y3440000D02*
Y3580000D01*
X6810000D01*
X7050000Y4140000D02*
X7132900D01*
Y4402900D01*
X7955000Y3040000D02*
Y3040000D01*
Y3040000D02*
X8040000D01*
X7992500Y3240000D02*
Y3240000D01*
Y3240000D02*
X8080000D01*
X6535000Y3165000D02*
Y3240000D01*
X6685000D02*
X6690000Y3235000D01*
Y3160000D02*
Y3235000D01*
X7575000Y3040000D02*
X7865000D01*
X7635000Y3240000D02*
X7827500D01*
X7187100D02*
X7445000D01*
X7187100Y3040000D02*
X7385000D01*
X7032900Y3240000D02*
Y3240000D01*
X6970000Y3240000D02*
X7032900D01*
Y3040000D02*
Y3240000D01*
X6937000Y3273000D02*
Y3440000D01*
X7064000Y3271100D02*
Y3440000D01*
X6685000Y3240000D02*
Y3437999D01*
X6620000Y3680000D02*
X7122500D01*
X6556000Y3440000D02*
Y3616000D01*
X6535000Y4630000D02*
X6895000D01*
X6260000Y4620000D02*
X6525000D01*
X6190000Y3760000D02*
Y4550000D01*
X6280000Y3670000D02*
X6350000D01*
X6429000Y3440000D02*
Y3591000D01*
X6350000Y3000000D02*
X6695000D01*
X6302000Y3048000D02*
Y3440000D01*
X6470000Y3070000D02*
X6643944D01*
X7190000Y4460000D02*
X7307100D01*
X6765000Y3070000D02*
X6810000Y3115000D01*
Y3440000D01*
X6450000Y3090000D02*
Y3290000D01*
X6556000Y3396000D02*
Y3440000D01*
X6429000Y3903213D02*
Y4011000D01*
X6937000Y3903213D02*
Y3997000D01*
X6940000Y3780000D02*
Y3900213D01*
X6600000Y3750000D02*
X6910000D01*
X6556000Y3794000D02*
Y3903213D01*
X7073287Y3912500D02*
X7210000D01*
X7060000Y3907213D02*
Y4010000D01*
X6970000Y4030000D02*
X7040000D01*
X7437100Y3990000D02*
X7500000D01*
X7310000Y4617100D02*
X7482900D01*
X6660000Y4167100D02*
Y4340000D01*
X7832500Y9900000D02*
Y10090400D01*
X6780000Y9550000D02*
Y9810000D01*
X6590000Y9480000D02*
X6710000D01*
X6554000Y9516000D02*
Y9631607D01*
X7530000Y10030000D02*
Y10510000D01*
X6730000Y9930000D02*
X7430000D01*
X6681000Y9631607D02*
Y9881000D01*
X5919000Y9631607D02*
X5920000D01*
X5297500Y9616001D02*
Y9762500D01*
X5300000Y9780000D02*
X5590000D01*
X5230000D02*
X5300000D01*
X5297500Y8994879D02*
Y9184000D01*
X5502500Y8894879D02*
Y9184000D01*
Y8894879D02*
X5517379Y8880000D01*
X5567500Y8904896D02*
Y9184000D01*
Y8904896D02*
X5592395Y8880000D01*
X5697500Y8932500D02*
X5710000Y8920000D01*
X5697500Y8932500D02*
Y9184000D01*
X6436000Y11147000D02*
X6483000Y11100000D01*
X7100000Y9100000D02*
Y9200000D01*
X5232500Y9062500D02*
Y9184000D01*
X5130000Y9780000D02*
X5230000D01*
X5232500Y9616001D02*
Y9777500D01*
X5100000Y9618501D02*
Y9750000D01*
X5925000Y8920000D02*
Y9162394D01*
X7967494Y9500000D02*
X7967500D01*
X7967494Y9300011D02*
Y9500000D01*
Y9300011D02*
X7967500D01*
X7832500Y9267500D02*
X7850000Y9250000D01*
X7832500Y9267500D02*
Y9500000D01*
X7850000Y9117500D02*
Y9250000D01*
X7832500Y9500000D02*
Y9692500D01*
X7975000Y9700000D02*
Y9892500D01*
X4442500Y4630000D02*
X4463000Y4609500D01*
Y4329999D02*
Y4609500D01*
X4737500Y4350500D02*
Y4630000D01*
X4442500D02*
Y4902059D01*
X4290000Y4329999D02*
X4463000D01*
D11*
X5553000Y11233000D02*
G03*
X5500000Y11180000I0J-53000D01*
G01*
X6113000Y11233000D02*
G03*
X6182000Y11302000I0J69000D01*
G01*
X11100000Y4355418D02*
G03*
X11175418Y4280000I75418J0D01*
G01*
X11130000Y4373255D02*
G03*
X11193255Y4310000I63255J0D01*
G01*
X8440000Y4400000D02*
G03*
X8540000Y4300000I100000J0D01*
G01*
X8410000Y4390000D02*
G03*
X8530000Y4270000I120000J0D01*
G01*
X8520000Y6260000D02*
G03*
X8460000Y6200000I0J-60000D01*
G01*
X8330000Y5240000D02*
G03*
X8460000Y5370000I0J130000D01*
G01*
X7880000Y5340000D02*
G03*
X7980000Y5240000I100000J0D01*
G01*
X11200000Y4430000D02*
G03*
X11202840Y4427160I2840J0D01*
G01*
X11400000Y6080000D02*
G03*
X11130000Y5810000I0J-270000D01*
G01*
X11400000Y6110000D02*
G03*
X11100000Y5810000I0J-300000D01*
G01*
X6348021Y5614002D02*
G03*
X6340000Y5605981I0J-8021D01*
G01*
X6310000Y5490000D02*
G03*
X6340000Y5520000I0J30000D01*
G01*
X6230000Y5490000D02*
G03*
X6160000Y5420000I0J-70000D01*
G01*
Y5130000D02*
G03*
X6390000Y4900000I230000J0D01*
G01*
X8410000Y4820000D02*
G03*
X8330000Y4900000I-80000J0D01*
G01*
X6190000Y5130000D02*
G03*
X6390000Y4930000I200000J0D01*
G01*
X6340000Y5352023D02*
G03*
X6348021Y5344002I8021J0D01*
G01*
X6340000Y5420000D02*
G03*
X6310000Y5450000I-30000J0D01*
G01*
X6240000D02*
G03*
X6190000Y5400000I0J-50000D01*
G01*
X8440000Y4830000D02*
G03*
X8340000Y4930000I-100000J0D01*
G01*
X8530000Y6722023D02*
G03*
X8648021Y6604002I118021J0D01*
G01*
X8530000Y7430000D02*
G03*
X8480000Y7480000I-50000J0D01*
G01*
X7710000D02*
G03*
X7680000Y7450000I0J-30000D01*
G01*
X7640000Y6950000D02*
G03*
X7680000Y6990000I0J40000D01*
G01*
X7484021Y6985979D02*
G03*
X7520000Y6950000I35979J0D01*
G01*
X8119021Y6652396D02*
G03*
X8110000Y6643375I0J-9021D01*
G01*
Y6450000D02*
G03*
X8140000Y6420000I30000J0D01*
G01*
X8160000Y6400000D02*
G03*
X8140000Y6420000I-20000J0D01*
G01*
X8120000Y5480000D02*
G03*
X8160000Y5520000I0J40000D01*
G01*
X7910000Y5480000D02*
G03*
X7880000Y5450000I0J-30000D01*
G01*
X8830000Y6130000D02*
G03*
X8700000Y6260000I-130000J0D01*
G01*
X8830000Y5960000D02*
G03*
X8930000Y5860000I100000J0D01*
G01*
X10540000Y5770000D02*
G03*
X10450000Y5860000I-90000J0D01*
G01*
X10490000Y4640000D02*
G03*
X10540000Y4690000I0J50000D01*
G01*
X10490000Y4640000D02*
G03*
X10448314Y4598314I0J-41686D01*
G01*
X7694084Y7750000D02*
G03*
X7611021Y7666937I0J-83063D01*
G01*
X6621521Y6828479D02*
G03*
X6600000Y6850000I-21521J0D01*
G01*
X6560000Y6890000D02*
G03*
X6600000Y6850000I40000J0D01*
G01*
Y7300000D02*
G03*
X6560000Y7260000I0J-40000D01*
G01*
X6630000Y7300000D02*
G03*
X6670000Y7340000I0J40000D01*
G01*
X6740000Y7660000D02*
G03*
X6670000Y7590000I0J-70000D01*
G01*
X5500000Y11350000D02*
G03*
X5448285Y11298285I0J-51715D01*
G01*
X5373914Y11150000D02*
G03*
X5448285Y11224370I0J74371D01*
G01*
X5420000Y11100000D02*
G03*
X5500000Y11180000I0J80000D01*
G01*
X12190000Y5950000D02*
G03*
X12060000Y6080000I-130000J0D01*
G01*
X12080000Y6110000D02*
G03*
X12190000Y6220000I0J110000D01*
G01*
X5965279Y11237000D02*
X5969279Y11233000D01*
X5886721D02*
X5890721Y11237000D01*
X5553000Y11233000D02*
X5886721D01*
X5969279D02*
X6113000D01*
X5890721Y11237000D02*
X5965279D01*
X12102500Y4280000D02*
X12170000Y4212500D01*
X11175418Y4280000D02*
X12102500D01*
X12170000Y4212500D02*
X12190000D01*
X11193255Y4310000D02*
X12122500D01*
Y4320000D01*
X12170000Y4367500D02*
X12190000D01*
X12122500Y4320000D02*
X12170000Y4367500D01*
X8440000Y4400000D02*
Y4830000D01*
X9443714Y4300000D02*
Y4311212D01*
X9491214Y4358712D01*
X8530000Y4270000D02*
X9439573D01*
X9445431Y4264142D01*
Y4251212D02*
Y4264142D01*
X9492931Y4203712D02*
X9511214D01*
X8540000Y4300000D02*
X9443714D01*
X9445431Y4251212D02*
X9492931Y4203712D01*
X8410000Y4390000D02*
Y4820000D01*
X8460000Y5370000D02*
Y6200000D01*
X7980000Y5240000D02*
X8330000D01*
X11202840Y4427160D02*
X11380000D01*
X11130000Y4373255D02*
Y5810000D01*
X11100000Y4355418D02*
Y5810000D01*
X6340000Y5520000D02*
Y5605981D01*
X6230000Y5490000D02*
X6310000D01*
X6160000Y5130000D02*
Y5420000D01*
X6390000Y4900000D02*
X8330000D01*
X6190000Y5130000D02*
Y5400000D01*
X6390000Y4930000D02*
X8340000D01*
X6340000Y5352023D02*
Y5420000D01*
X6240000Y5450000D02*
X6310000D01*
X8530000Y6722023D02*
Y7430000D01*
X7710000Y7480000D02*
X8480000D01*
X7680000Y6990000D02*
Y7450000D01*
X7520000Y6950000D02*
X7640000D01*
X7484021Y6985979D02*
Y7115609D01*
X8110000Y6450000D02*
Y6643375D01*
X8160000Y5520000D02*
Y6400000D01*
X7910000Y5480000D02*
X8120000D01*
X7880000Y5340000D02*
Y5450000D01*
X8520000Y6260000D02*
X8700000D01*
X8830000Y5960000D02*
Y6130000D01*
X8930000Y5860000D02*
X10450000D01*
X10448314Y4021213D02*
Y4598314D01*
X10540000Y4690000D02*
Y5770000D01*
X7611021Y7115609D02*
Y7666937D01*
X7694084Y7750000D02*
X10062023D01*
X10218021Y7594002D01*
X6621521Y6666396D02*
Y6828479D01*
X6560000Y6890000D02*
Y7260000D01*
X6600000Y7300000D02*
X6630000D01*
X6670000Y7340000D02*
Y7590000D01*
X6740000Y7660000D02*
X7135997D01*
X9443714Y4302928D02*
Y4311212D01*
X9491214Y4358712D02*
X9511214D01*
X5342652Y11150000D02*
X5373914D01*
X5500000Y11350000D02*
X5979000D01*
X5448285Y11224370D02*
Y11298284D01*
X4800000Y11150000D02*
X5342652D01*
X4970000Y11100000D02*
X5420000D01*
X6182000Y11302000D02*
Y11401000D01*
X11400000Y6080000D02*
X12060000D01*
X11400000Y6110000D02*
X12080000D01*
X12122500Y4311716D02*
Y4320000D01*
X12170000Y4367500D02*
X12190000D01*
X12122500Y4320000D02*
X12170000Y4367500D01*
D12*
X6554000Y9036000D02*
G03*
X6570000Y9020000I16000J0D01*
G01*
X6810000Y9310000D02*
G03*
X6710000Y9410000I-100000J0D01*
G01*
X6670000Y9020000D02*
G03*
X6680000Y9030000I0J10000D01*
G01*
X6970000Y9780000D02*
G03*
X6950000Y9800000I-20000J0D01*
G01*
X6930000D02*
G03*
X6905000Y9775000I0J-25000D01*
G01*
X6173000Y9767000D02*
G03*
X6170000Y9770000I-3000J0D01*
G01*
X11162840Y4152840D02*
G03*
X11160000Y4150000I0J-2840D01*
G01*
X5760000Y8820000D02*
G03*
X5800000Y8780000I40000J0D01*
G01*
X6390000D02*
G03*
X6427000Y8817000I0J37000D01*
G01*
X5040000Y8740000D02*
G03*
X4970000Y8670000I0J-70000D01*
G01*
X6510000Y8740000D02*
G03*
X6560000Y8790000I0J50000D01*
G01*
X4970000Y8510000D02*
G03*
X5060000Y8420000I90000J0D01*
G01*
X5445998Y8230001D02*
G03*
X5425998Y8250000I-19999J0D01*
G01*
X5445998Y8384002D02*
G03*
X5410000Y8420000I-35998J0D01*
G01*
X5760000Y8895000D02*
G03*
X5735000Y8920000I-25000J0D01*
G01*
X4540000Y8370000D02*
G03*
X4660000Y8250000I120000J0D01*
G01*
X4540000Y8630000D02*
G03*
X4510000Y8660000I-30000J0D01*
G01*
X3730000D02*
G03*
X3704000Y8634000I0J-26000D01*
G01*
X7035000Y9745000D02*
G03*
X7030000Y9750000I-5000J0D01*
G01*
X9990000Y5720000D02*
G03*
X9971214Y5701214I0J-18786D01*
G01*
X12931979Y11825998D02*
G03*
X12936980Y11820998I5000J0D01*
G01*
X13121979D02*
G03*
X13147977Y11795000I25997J0D01*
G01*
X7450000Y11100000D02*
G03*
X7510000Y11160000I0J60000D01*
G01*
X7428995D02*
G03*
X7450000Y11181005I0J21005D01*
G01*
X6650000Y11220000D02*
G03*
X6540000Y11330000I-110000J0D01*
G01*
X6650000Y11220000D02*
G03*
X6710000Y11160000I60000J0D01*
G01*
X5430000Y9620000D02*
G03*
X5434000Y9616001I3999J0D01*
G01*
X6780000Y9200000D02*
G03*
X6610000Y9370000I-170000J0D01*
G01*
X13507500Y10567500D02*
G03*
X13510001Y10570000I0J2500D01*
G01*
X7030000Y9030000D02*
G03*
X7100000Y9100000I0J70000D01*
G01*
X6780000Y9062946D02*
G03*
X6812946Y9030000I32946J0D01*
G01*
X5630000Y8990000D02*
G03*
X5632500Y8992500I0J2500D01*
G01*
X12889999Y10650000D02*
G03*
X12880000Y10640000I0J-10000D01*
G01*
Y10550000D02*
G03*
X12927499Y10502500I47500J0D01*
G01*
X5440000Y9730000D02*
G03*
X5380000Y9670000I0J-60000D01*
G01*
X5297500Y9184000D02*
G03*
X5311500Y9170000I14000J0D01*
G01*
X5567500Y9702500D02*
G03*
X5540000Y9730000I-27500J0D01*
G01*
X7100000Y9780000D02*
G03*
X7080000Y9800000I-20000J0D01*
G01*
X7035000Y9200000D02*
G03*
X7030000Y9195000I0J-5000D01*
G01*
X7000000Y9070000D02*
G03*
X7030000Y9100000I0J30000D01*
G01*
X6970000Y9090000D02*
G03*
X6990000Y9070000I20000J0D01*
G01*
X8921603Y10961603D02*
X9508754D01*
X8910000Y10950000D02*
X8921603Y10961603D01*
X6570000Y9020000D02*
X6670000D01*
X6554000Y9036000D02*
Y9168394D01*
X6300000Y9410000D02*
X6710000D01*
X6300000Y9407500D02*
Y9410000D01*
X6300084Y9407417D02*
X6325831Y9381669D01*
X6300000Y9407500D02*
X6300084Y9407417D01*
X6210000Y9839452D02*
Y10836695D01*
X6240000Y9470000D02*
Y9809452D01*
X6210000Y9839452D02*
X6240000Y9809452D01*
X6081796Y9043404D02*
X6085200Y9040000D01*
X6054787Y9043404D02*
X6081796D01*
X6046000Y9052191D02*
Y9168394D01*
Y9052191D02*
X6054787Y9043404D01*
X6680000Y9030000D02*
Y9168394D01*
X6950000Y9800000D02*
X7080000D01*
X6940000D02*
X6950000D01*
X6930000D02*
X6940000D01*
X6173000Y9631607D02*
Y9767000D01*
X11162840Y4152840D02*
X11380000D01*
X5800000Y8780000D02*
X6390000D01*
X5040000Y8740000D02*
X6510000D01*
X4970000Y8510000D02*
Y8670000D01*
X5060000Y8420000D02*
X5410000D01*
X5445998Y8230001D02*
Y8384002D01*
X6560000Y8790000D02*
Y9020000D01*
X5760000Y8820000D02*
Y8895000D01*
X4660000Y8250000D02*
X5425998D01*
X4540000Y8370000D02*
Y8630000D01*
X3730000Y8660000D02*
X4510000D01*
X3704000Y8343000D02*
Y8634000D01*
X7035000Y9632001D02*
Y9745000D01*
X12936980Y11820998D02*
X13121979D01*
X13147977Y11795000D02*
X13300000D01*
X6483000Y11100000D02*
X7450000D01*
X6710000Y11160000D02*
X7428995D01*
X6365000Y11330000D02*
X6540000D01*
X6393332Y9381669D02*
X6405001Y9370000D01*
X6610000D01*
X6325831Y9381669D02*
X6393332D01*
X5434000Y9616001D02*
X5502500D01*
X6427000Y8817000D02*
Y9168394D01*
X13410699Y10567500D02*
X13507500D01*
X6812946Y9030000D02*
X7030000D01*
X6780000Y9062946D02*
Y9200000D01*
X5632500Y8992500D02*
Y9184000D01*
X5380000Y9178787D02*
Y9670000D01*
X5410000Y4340000D02*
X5490000D01*
X13600000Y10495000D02*
X13782500D01*
X13418201D02*
X13600000D01*
X13782500D02*
X13810001Y10467500D01*
X13410699Y10502500D02*
X13418201Y10495000D01*
X12880000Y10550000D02*
Y10640000D01*
X12927499Y10502500D02*
X12989301D01*
X5311500Y9170000D02*
X5371213D01*
X5380000Y9178787D01*
X5440000Y9730000D02*
X5540000D01*
X5567500Y9616001D02*
Y9702500D01*
X6680000Y9168394D02*
X6681000D01*
X7100000Y9632001D02*
Y9780000D01*
X6970000Y9632001D02*
Y9780000D01*
X6905000Y9632001D02*
Y9775000D01*
X7030000Y9100000D02*
Y9195000D01*
X6990000Y9070000D02*
X7000000D01*
X6970000Y9090000D02*
Y9200000D01*
D13*
X4590000Y4097700D02*
G03*
X4556600Y4131100I-33400J0D01*
G01*
X4590000Y3835000D02*
Y4097700D01*
D14*
X8070000Y10090000D02*
G03*
X8060000Y10100000I-10000J0D01*
G01*
X6810000Y9295000D02*
G03*
X6905000Y9200000I95000J0D01*
G01*
X4970000Y11100000D02*
G03*
X4930000Y11060000I0J-40000D01*
G01*
X7977100Y10100000D02*
X8060000D01*
X6810000Y9295000D02*
Y9310000D01*
D15*
X8910000Y10950000D02*
D03*
Y10400000D02*
D03*
Y10680000D02*
D03*
X17020000Y6760000D02*
D03*
X8860000Y12070000D02*
D03*
X13189999Y9930000D02*
D03*
D16*
X13410001Y5450000D02*
D03*
X4730000Y5900000D02*
D03*
X6140000Y4610000D02*
D03*
D17*
X4459500Y4327500D02*
D03*
X4586500D02*
D03*
X4713500D02*
D03*
X4840500D02*
D03*
Y3832500D02*
D03*
X4713500D02*
D03*
X4586500D02*
D03*
X4459500D02*
D03*
X4590000Y4329999D02*
D03*
D18*
X15279630Y5200000D02*
D03*
X16120370D02*
D03*
X14879630Y6500000D02*
D03*
X15720370D02*
D03*
X11679630Y10400000D02*
D03*
X12520370D02*
D03*
X14559261Y11700000D02*
D03*
X15400000D02*
D03*
D19*
X6910000Y4615000D02*
D03*
Y4465000D02*
D03*
X5040000Y3915000D02*
D03*
Y3765000D02*
D03*
Y4165000D02*
D03*
Y4315000D02*
D03*
D20*
X5270000Y3840000D02*
D03*
X5410000D02*
D03*
Y4340000D02*
D03*
X5270000D02*
D03*
D21*
X5898000Y5440000D02*
D03*
X2982000D02*
D03*
X5898000Y3610000D02*
D03*
X2982000D02*
D03*
X6498021Y7364003D02*
D03*
X6598021D02*
D03*
X7728021Y6464003D02*
D03*
X7628021D02*
D03*
X7738021Y7324003D02*
D03*
X7838021D02*
D03*
X12340000Y7970000D02*
D03*
X12440000D02*
D03*
X13570000Y7070000D02*
D03*
X13470000D02*
D03*
X13580000Y7930000D02*
D03*
X13680000D02*
D03*
D22*
X5040000Y5440000D02*
D03*
X4440000D02*
D03*
X3840000D02*
D03*
Y3610000D02*
D03*
X4440000D02*
D03*
X5040000D02*
D03*
D23*
X5898000Y4525000D02*
D03*
X2982000D02*
D03*
D24*
X6681000Y9168394D02*
D03*
X6554000D02*
D03*
X6427000D02*
D03*
X6300000D02*
D03*
X6173000D02*
D03*
X6046000D02*
D03*
X5919000D02*
D03*
Y9631607D02*
D03*
X6046000D02*
D03*
X6173000D02*
D03*
X6300000D02*
D03*
X6427000D02*
D03*
X6554000D02*
D03*
X7992021Y7115609D02*
D03*
X7865021D02*
D03*
X7738021D02*
D03*
X7611021D02*
D03*
X7484021D02*
D03*
X7357021D02*
D03*
Y6652396D02*
D03*
X7484021D02*
D03*
X7611021D02*
D03*
X7738021D02*
D03*
X7865021D02*
D03*
X7992021D02*
D03*
X8119021D02*
D03*
X13834000Y7721607D02*
D03*
X13707001D02*
D03*
X13580000D02*
D03*
X13453000D02*
D03*
X13325999D02*
D03*
X13199001D02*
D03*
Y7258393D02*
D03*
X13325999D02*
D03*
X13453000D02*
D03*
X13580000D02*
D03*
X13707001D02*
D03*
X13834000D02*
D03*
X13961000D02*
D03*
X7064000Y3440000D02*
D03*
X6937000D02*
D03*
X6810000D02*
D03*
X6683000D02*
D03*
X6556000D02*
D03*
X6429000D02*
D03*
X6302000D02*
D03*
Y3903213D02*
D03*
X6429000D02*
D03*
X6556000D02*
D03*
X6683000D02*
D03*
X6810000D02*
D03*
X6937000D02*
D03*
D25*
X6681000Y9631607D02*
D03*
X8119021Y7115609D02*
D03*
X13961000Y7721607D02*
D03*
X7064000Y3903213D02*
D03*
D26*
X5986521Y6666396D02*
D03*
X11828501Y7272393D02*
D03*
D27*
X6113521Y6666396D02*
D03*
X6240521D02*
D03*
X6367521D02*
D03*
X6494521D02*
D03*
X6621521D02*
D03*
X6748521D02*
D03*
X6875521D02*
D03*
Y7139609D02*
D03*
X6748521D02*
D03*
X6621521D02*
D03*
X6494521D02*
D03*
X6367521D02*
D03*
X6240521D02*
D03*
X6113521D02*
D03*
X5986521D02*
D03*
X11955501Y7272393D02*
D03*
X12082501D02*
D03*
X12209501D02*
D03*
X12336501D02*
D03*
X12463501D02*
D03*
X12590501D02*
D03*
X12717501D02*
D03*
Y7745607D02*
D03*
X12590501D02*
D03*
X12463501D02*
D03*
X12336501D02*
D03*
X12209501D02*
D03*
X12082501D02*
D03*
X11955501D02*
D03*
X11828501D02*
D03*
D28*
X9888021Y8954002D02*
D03*
X9358021D02*
D03*
X13289999Y9710000D02*
D03*
X12760000D02*
D03*
X15035001D02*
D03*
X14560001D02*
D03*
X7385000Y3040000D02*
D03*
X7635000Y3240000D02*
D03*
X5925000Y8880000D02*
D03*
D29*
X10078021Y8954002D02*
D03*
X9548021D02*
D03*
X13480000Y9710000D02*
D03*
X12950000D02*
D03*
X14845000D02*
D03*
X14370000D02*
D03*
X7575000Y3040000D02*
D03*
X7445000Y3240000D02*
D03*
X5735000Y8880000D02*
D03*
D30*
X10494002Y6551979D02*
D03*
Y6076979D02*
D03*
X8120000Y11335000D02*
D03*
D31*
X10494002Y6741979D02*
D03*
Y6266979D02*
D03*
X8120000Y11145000D02*
D03*
D32*
X7058021Y7301102D02*
D03*
Y7146903D02*
D03*
Y6536903D02*
D03*
Y6691102D02*
D03*
X12900000Y7142900D02*
D03*
Y7297100D02*
D03*
Y7907100D02*
D03*
Y7752900D02*
D03*
X7310000Y4617100D02*
D03*
Y4462900D02*
D03*
D33*
X6145121Y7374003D02*
D03*
X5990921D02*
D03*
X13127100Y5430000D02*
D03*
X12972900D02*
D03*
X13127100Y4730000D02*
D03*
X12972900D02*
D03*
X13127100Y4030001D02*
D03*
X12972900D02*
D03*
X12995799Y3330001D02*
D03*
X13150000D02*
D03*
X11987100Y7980000D02*
D03*
X11832900D02*
D03*
X7132900Y4140000D02*
D03*
X7287100D02*
D03*
X6632900D02*
D03*
X6787100D02*
D03*
X7187100Y3240000D02*
D03*
X7032900D02*
D03*
X7187100Y3040000D02*
D03*
X7032900D02*
D03*
X10471214Y3321213D02*
D03*
X10317014D02*
D03*
X10294114Y4021213D02*
D03*
X10448314D02*
D03*
X10294114Y4721213D02*
D03*
X10448314D02*
D03*
X10294114Y5421213D02*
D03*
X10448314D02*
D03*
X7987100Y11580000D02*
D03*
X7832900D02*
D03*
X7977100Y10100000D02*
D03*
X7822900D02*
D03*
D34*
X11580000Y3213500D02*
D03*
Y2966500D02*
D03*
X8901214Y3204712D02*
D03*
Y2957712D02*
D03*
D35*
X12650000Y4445001D02*
D03*
Y5145000D02*
D03*
Y3045001D02*
D03*
Y3730000D02*
D03*
X9971214Y5136213D02*
D03*
Y3036213D02*
D03*
Y3721213D02*
D03*
Y4436213D02*
D03*
D36*
X12500000Y4730001D02*
D03*
X12800000D02*
D03*
Y5430001D02*
D03*
X12500000D02*
D03*
Y3330001D02*
D03*
X12800000D02*
D03*
Y4015001D02*
D03*
X12500000D02*
D03*
X10121214Y5421213D02*
D03*
X9821214D02*
D03*
Y3321213D02*
D03*
X10121214D02*
D03*
Y4006213D02*
D03*
X9821214D02*
D03*
Y4721213D02*
D03*
X10121214D02*
D03*
D37*
X12650000Y4720000D02*
D03*
Y5420000D02*
D03*
Y3320000D02*
D03*
Y4005000D02*
D03*
X9971214Y5411213D02*
D03*
Y3311213D02*
D03*
Y3996213D02*
D03*
Y4711213D02*
D03*
D38*
X12190000Y4367500D02*
D03*
Y4212500D02*
D03*
X9511214Y4358712D02*
D03*
Y4203712D02*
D03*
D39*
X12320000Y3000000D02*
D03*
X12060000D02*
D03*
X9641214Y2991212D02*
D03*
X9381214D02*
D03*
X12660000Y5710000D02*
D03*
X12920000D02*
D03*
X9990000Y5720000D02*
D03*
X10250000D02*
D03*
D40*
X11380000Y4152840D02*
D03*
Y4427160D02*
D03*
D41*
X13589999Y3810000D02*
D03*
X13150000D02*
D03*
X13589999Y3530000D02*
D03*
X13150000D02*
D03*
X10911214Y3521212D02*
D03*
X10471214D02*
D03*
X10911214Y3801212D02*
D03*
X10471214D02*
D03*
D42*
X7500000Y3990000D02*
D03*
Y3690000D02*
D03*
X7510000Y4290000D02*
D03*
Y4590000D02*
D03*
D43*
X7510000Y3840000D02*
D03*
X7520000Y4440000D02*
D03*
D44*
X7785000Y3840000D02*
D03*
X7795000Y4440000D02*
D03*
D45*
X16049500Y3116700D02*
D03*
X14360400D02*
D03*
Y4361300D02*
D03*
X16049500D02*
D03*
D46*
X17100000Y5196000D02*
D03*
Y6000000D02*
D03*
X15600000Y9100000D02*
D03*
D47*
X17203999Y5576500D02*
D03*
X16996001D02*
D03*
X17203999Y6380500D02*
D03*
X16996001D02*
D03*
X15496001Y9480500D02*
D03*
X15703999D02*
D03*
D48*
X16900000Y3780000D02*
D03*
Y4220000D02*
D03*
X16600000Y3780000D02*
D03*
Y4220000D02*
D03*
X10400000Y12020000D02*
D03*
Y11580000D02*
D03*
X16500000Y10920001D02*
D03*
Y10480000D02*
D03*
D49*
X16659500Y4651000D02*
D03*
X16906500D02*
D03*
D50*
X14700000Y5000000D02*
D03*
Y5460000D02*
D03*
D51*
X14035001Y5230000D02*
D03*
D52*
X5272500Y4930000D02*
D03*
X4987500D02*
D03*
D53*
X6335000Y4140000D02*
D03*
X6485000D02*
D03*
X6535000Y3240000D02*
D03*
X6685000D02*
D03*
D54*
X6655000Y3070000D02*
D03*
X6765000D02*
D03*
D55*
X7210000Y3912500D02*
D03*
Y3767500D02*
D03*
D56*
X7827500Y3240000D02*
D03*
X7992500D02*
D03*
D57*
X7955000Y3040000D02*
D03*
X7865000D02*
D03*
D58*
X6410000Y4340000D02*
D03*
X6660000D02*
D03*
D59*
X6535000Y4630000D02*
D03*
D60*
X15400000Y8420370D02*
D03*
Y7579630D02*
D03*
X12200000Y12120370D02*
D03*
Y11279630D02*
D03*
X15700000Y9979630D02*
D03*
Y10820370D02*
D03*
D61*
X11100000Y12140000D02*
D03*
X14600000Y10160000D02*
D03*
D62*
X11330000Y11475000D02*
D03*
X10870000D02*
D03*
X14370000Y10825000D02*
D03*
X14830000D02*
D03*
D63*
X13200000Y10600000D02*
D03*
D64*
X13410699Y10762500D02*
D03*
Y10697500D02*
D03*
Y10632500D02*
D03*
Y10567500D02*
D03*
Y10502500D02*
D03*
Y10437500D02*
D03*
X12989301D02*
D03*
Y10502500D02*
D03*
Y10567500D02*
D03*
Y10632500D02*
D03*
Y10697500D02*
D03*
Y10762500D02*
D03*
D65*
X13510983Y11697500D02*
D03*
D66*
X13300000Y11535000D02*
D03*
Y11600000D02*
D03*
Y11665000D02*
D03*
Y11730000D02*
D03*
Y11795000D02*
D03*
Y11860000D02*
D03*
X13721970D02*
D03*
Y11795000D02*
D03*
Y11730000D02*
D03*
Y11665000D02*
D03*
Y11600000D02*
D03*
D67*
Y11535000D02*
D03*
D68*
X13600000Y10995000D02*
D03*
Y10700000D02*
D03*
X13789999Y10460000D02*
D03*
Y10165000D02*
D03*
X12931979Y11825998D02*
D03*
Y12120998D02*
D03*
X13100000Y11305000D02*
D03*
Y11600000D02*
D03*
D69*
X13600000Y10315000D02*
D03*
Y10465000D02*
D03*
X13121979Y11970998D02*
D03*
Y11820998D02*
D03*
D70*
X10719500Y10196000D02*
D03*
Y10404000D02*
D03*
X11380500Y11004000D02*
D03*
Y10796000D02*
D03*
X16400000Y11600000D02*
D03*
Y11392000D02*
D03*
X15823502Y11995983D02*
D03*
Y12203983D02*
D03*
D71*
X11100000Y10300000D02*
D03*
X11000000Y10900000D02*
D03*
X16019501Y11496000D02*
D03*
X16204002Y12099983D02*
D03*
D72*
X6305000Y9900000D02*
D03*
X6455000D02*
D03*
X7825000Y9700000D02*
D03*
X7975000D02*
D03*
D73*
X5297500Y9616001D02*
D03*
X5232500D02*
D03*
X5167500D02*
D03*
X5102500D02*
D03*
Y9184000D02*
D03*
X5167500D02*
D03*
X5232500D02*
D03*
X5297500D02*
D03*
X5502500D02*
D03*
X5567500D02*
D03*
X5632500D02*
D03*
X5697500D02*
D03*
Y9616001D02*
D03*
X5632500D02*
D03*
X5567500D02*
D03*
X5502500D02*
D03*
X6905000Y9200000D02*
D03*
X6970000D02*
D03*
X7035000D02*
D03*
X7100000D02*
D03*
Y9632001D02*
D03*
X7035000D02*
D03*
X6970000D02*
D03*
X6905000D02*
D03*
D74*
X5200000Y9400001D02*
D03*
X5600000D02*
D03*
X7002500Y9416000D02*
D03*
D75*
X7825000Y11378700D02*
D03*
X7695000D02*
D03*
D76*
X7760000Y11268700D02*
D03*
D77*
Y11198700D02*
D03*
D78*
X7832500Y9100000D02*
D03*
X7967500D02*
D03*
X7832500Y9500000D02*
D03*
X7967500D02*
D03*
X7832494Y9300011D02*
D03*
X7967494D02*
D03*
X7832500Y9900000D02*
D03*
X7967500D02*
D03*
D79*
X6337100Y8910000D02*
D03*
X6162900D02*
D03*
D80*
X4450440Y4910000D02*
D03*
X4740000D02*
D03*
D81*
X3582500Y4340000D02*
D03*
X4297500D02*
D03*
D82*
X4442500Y4630000D02*
D03*
X4737500D02*
D03*
D83*
X3114600Y10325400D02*
Y10376183D01*
Y10350792D01*
X2962249D01*
X2987641Y10325400D01*
D84*
X4300000Y11700000D02*
D03*
X10220000Y6100000D02*
D03*
X8648021Y7594002D02*
D03*
Y8084002D02*
D03*
X10218021Y6604002D02*
D03*
Y7094002D02*
D03*
X10218021Y8574002D02*
D03*
X11320000Y8850000D02*
D03*
X14910001Y8860000D02*
D03*
X12889999Y9340000D02*
D03*
X14910001Y9350000D02*
D03*
X11320000Y8360000D02*
D03*
X14720000Y8370000D02*
D03*
D85*
X4300000Y10130000D02*
D03*
D86*
X6182000Y11401000D02*
D03*
Y10893000D02*
D03*
X5928000Y11147000D02*
D03*
X6002395Y11326605D02*
D03*
X6361605D02*
D03*
X6002395Y10967395D02*
D03*
X6361605D02*
D03*
D87*
X6436000Y11147000D02*
D03*
D88*
X10091246Y10538397D02*
D03*
X9911246Y10407620D02*
D03*
X9688754D02*
D03*
X9508754Y10538397D02*
D03*
Y10961603D02*
D03*
X9688754Y11092380D02*
D03*
X10091246Y10961603D02*
D03*
X9911246Y11092380D02*
D03*
X9800000Y10900000D02*
D03*
Y10600000D02*
D03*
X9650000Y10750000D02*
D03*
X9440000D02*
D03*
X10160000D02*
D03*
X9950000D02*
D03*
X3704000Y8114400D02*
D03*
Y7885800D02*
D03*
Y7657200D02*
D03*
Y7428600D02*
D03*
Y7200000D02*
D03*
Y6971400D02*
D03*
Y6742800D02*
D03*
Y6514000D02*
D03*
X3902000Y8457300D02*
D03*
Y8228700D02*
D03*
Y8000100D02*
D03*
Y7771500D02*
D03*
Y7542900D02*
D03*
Y7314300D02*
D03*
Y7085700D02*
D03*
Y6857100D02*
D03*
Y6628500D02*
D03*
X4100000Y8343000D02*
D03*
Y8114400D02*
D03*
Y7885800D02*
D03*
Y7657200D02*
D03*
Y7428600D02*
D03*
Y7200000D02*
D03*
Y6971400D02*
D03*
Y6742800D02*
D03*
D89*
X5748021Y5684003D02*
D03*
Y7374003D02*
D03*
X8038021Y5614002D02*
D03*
X6348021D02*
D03*
X7135997Y7660000D02*
D03*
X5445997D02*
D03*
X5445998Y7960000D02*
D03*
X7135998D02*
D03*
X5445998Y8230001D02*
D03*
X7135998D02*
D03*
X5478021Y5684003D02*
D03*
Y7374003D02*
D03*
X8358021Y7094002D02*
D03*
Y5404002D02*
D03*
X6348021Y6174002D02*
D03*
X8038021D02*
D03*
Y5344002D02*
D03*
X6348021D02*
D03*
X8038021Y5884002D02*
D03*
X6348021D02*
D03*
X12190000Y6220000D02*
D03*
X13880000D02*
D03*
X12190000Y5950000D02*
D03*
X13880000D02*
D03*
X11320000Y6290000D02*
D03*
Y7980000D02*
D03*
X12190000Y6780000D02*
D03*
X13880000D02*
D03*
X14200000Y7700000D02*
D03*
Y6010000D02*
D03*
X11590000Y6290000D02*
D03*
Y7980000D02*
D03*
X10770000Y8890000D02*
D03*
Y7200000D02*
D03*
X11040000Y8890000D02*
D03*
Y7200000D02*
D03*
X10470000Y7200000D02*
D03*
Y8890000D02*
D03*
X13880000Y6490000D02*
D03*
X12190000D02*
D03*
D90*
X8650000Y6100000D02*
D03*
X10218021Y7594002D02*
D03*
Y8084002D02*
D03*
X8648021Y6604002D02*
D03*
Y7094002D02*
D03*
X8648021Y8574002D02*
D03*
X12889999Y8850000D02*
D03*
X13339999Y8860000D02*
D03*
X11320000Y9340000D02*
D03*
X13339999Y9350000D02*
D03*
X12889999Y8360000D02*
D03*
X13150000Y8370000D02*
D03*
D91*
X3704000Y8343000D02*
D03*
D92*
X3902000Y9145000D02*
D03*
Y5813000D02*
D03*
D93*
X16158000Y7911000D02*
D03*
Y7637000D02*
D03*
Y7363000D02*
D03*
Y7089000D02*
D03*
X16442000Y8048000D02*
D03*
Y7774000D02*
D03*
Y7500000D02*
D03*
Y7226000D02*
D03*
D94*
Y6952000D02*
D03*
D95*
X16300000Y8749500D02*
D03*
Y6250500D02*
D03*
D96*
X6978470Y10353194D02*
D03*
X5382000Y11947000D02*
D03*
D97*
X17100000Y12100000D02*
D03*
Y3100000D02*
D03*
X3100000D02*
D03*
Y12100000D02*
D03*
D98*
X11340000Y11510000D02*
D03*
X11440000D02*
D03*
X11540000D02*
D03*
X11640000D02*
D03*
X11440000D02*
D03*
X11540000D02*
D03*
X11640000D02*
D03*
X11340000Y11430000D02*
D03*
X11440000D02*
D03*
X11540000D02*
D03*
X11640000D02*
D03*
X11440000D02*
D03*
X11540000D02*
D03*
X11640000D02*
D03*
X11440000D02*
D03*
X11540000D02*
D03*
X11640000D02*
D03*
X8850000Y12060000D02*
D03*
X13200000Y9930000D02*
D03*
X14400008Y3900002D02*
D03*
X14450008Y3800002D02*
D03*
X14400008Y3700002D02*
D03*
X14450008Y3600002D02*
D03*
X14400008Y3500002D02*
D03*
X14450008Y3400002D02*
D03*
X14300008Y3900002D02*
D03*
X14350008Y3800002D02*
D03*
X14300008Y3700002D02*
D03*
X14350008Y3600002D02*
D03*
X14300008Y3500002D02*
D03*
X14350008Y3400002D02*
D03*
X14200008Y3900002D02*
D03*
X14250008Y3800002D02*
D03*
X14200008Y3700002D02*
D03*
X14250008Y3600002D02*
D03*
X14200008Y3500002D02*
D03*
X14250008Y3400002D02*
D03*
X14200008Y3300002D02*
D03*
Y3100002D02*
D03*
X14100008Y4300002D02*
D03*
X14150008Y4200002D02*
D03*
X14100008Y4100002D02*
D03*
X14150008Y4000002D02*
D03*
X14100008Y3900002D02*
D03*
X14150008Y3800002D02*
D03*
X14100008Y3700002D02*
D03*
X14150008Y3600002D02*
D03*
X14100008Y3500002D02*
D03*
X14150008Y3400002D02*
D03*
X14100008Y3300002D02*
D03*
X14150008Y3200002D02*
D03*
X14100008Y3100002D02*
D03*
X14050008Y4400002D02*
D03*
X14000008Y4300002D02*
D03*
X14050008Y4200002D02*
D03*
X14000008Y4100002D02*
D03*
X14050008Y4000002D02*
D03*
X14000008Y3900002D02*
D03*
X14050008Y3800002D02*
D03*
X14000008Y3700002D02*
D03*
X14050008Y3600002D02*
D03*
X14000008Y3500002D02*
D03*
X14050008Y3400002D02*
D03*
X14000008Y3300002D02*
D03*
X14050008Y3200002D02*
D03*
X14000008Y3100002D02*
D03*
X13950008Y4400002D02*
D03*
X13900008Y4300002D02*
D03*
X13950008Y4200002D02*
D03*
X13900008Y4100002D02*
D03*
X13950008Y4000002D02*
D03*
X13900008Y3900002D02*
D03*
X13950008Y3800002D02*
D03*
X13900008Y3700002D02*
D03*
X13950008Y3600002D02*
D03*
X13900008Y3500002D02*
D03*
X13950008Y3400002D02*
D03*
X13900008Y3300002D02*
D03*
X13950008Y3200002D02*
D03*
X13900008Y3100002D02*
D03*
X13850008Y4400002D02*
D03*
X13800008Y4300002D02*
D03*
X13850008Y4200002D02*
D03*
X13800008Y4100002D02*
D03*
X13850008Y4000002D02*
D03*
X13800008Y3900002D02*
D03*
X13850008Y3800002D02*
D03*
X13800008Y3700002D02*
D03*
X13850008Y3600002D02*
D03*
X13800008Y3500002D02*
D03*
X13850008Y3400002D02*
D03*
X13800008Y3300002D02*
D03*
X13850008Y3200002D02*
D03*
X13800008Y3100002D02*
D03*
X13750008Y4200002D02*
D03*
Y4000002D02*
D03*
Y3800002D02*
D03*
Y3600002D02*
D03*
Y3400002D02*
D03*
X13700008Y3300002D02*
D03*
X13750008Y3200002D02*
D03*
X13700008Y3100002D02*
D03*
X13600008Y3300002D02*
D03*
X13650008Y3200002D02*
D03*
X13600008Y3100002D02*
D03*
X13500008Y3300002D02*
D03*
X13550008Y3200002D02*
D03*
X13500008Y3100002D02*
D03*
X13400008Y3300002D02*
D03*
X13450008Y3200002D02*
D03*
X13400008Y3100002D02*
D03*
X4586600Y4261100D02*
D03*
Y4191100D02*
D03*
X4556600Y4131100D02*
D03*
X4486600D02*
D03*
X4426600D02*
D03*
X4366600D02*
D03*
X4306600D02*
D03*
X4246600D02*
D03*
X4186600D02*
D03*
X4126600D02*
D03*
X4076600Y4161100D02*
D03*
X4056600Y4221100D02*
D03*
Y4281100D02*
D03*
Y4341100D02*
D03*
Y4401100D02*
D03*
Y4461100D02*
D03*
Y4521100D02*
D03*
X4106600Y4561100D02*
D03*
X4156600Y4601100D02*
D03*
X4206600Y4641100D02*
D03*
X4236600Y4691100D02*
D03*
Y4751099D02*
D03*
Y4811100D02*
D03*
Y4871099D02*
D03*
Y4931100D02*
D03*
Y4991099D02*
D03*
Y5051100D02*
D03*
X4266600Y5101100D02*
D03*
X4316600Y5131099D02*
D03*
X4376600D02*
D03*
X4436600D02*
D03*
X4496600D02*
D03*
X4556600D02*
D03*
X4586600Y5091100D02*
D03*
Y5031100D02*
D03*
Y4971100D02*
D03*
Y4911100D02*
D03*
Y4851100D02*
D03*
Y4791100D02*
D03*
Y4731100D02*
D03*
Y4671100D02*
D03*
Y4611099D02*
D03*
Y4551100D02*
D03*
Y4491099D02*
D03*
Y4431100D02*
D03*
Y4371099D02*
D03*
Y4311100D02*
D03*
X12500000Y3290000D02*
D03*
X13330000Y7100000D02*
D03*
X12214261Y7124100D02*
D03*
X12080000Y7120000D02*
D03*
X8121000Y11181900D02*
D03*
X10604002Y6556979D02*
D03*
Y6746979D02*
D03*
X11900000Y7100000D02*
D03*
X3800000Y5440000D02*
D03*
X3960000D02*
D03*
X4480000D02*
D03*
X5000000D02*
D03*
X5080000D02*
D03*
X4400000D02*
D03*
X4560000D02*
D03*
X12500000Y3370000D02*
D03*
X12672544Y2753116D02*
D03*
X12547544D02*
D03*
X12340000Y3590000D02*
D03*
X12240000Y3640000D02*
D03*
X12500000Y4050000D02*
D03*
Y3970000D02*
D03*
Y4770000D02*
D03*
X12650000Y4210000D02*
D03*
Y4370000D02*
D03*
Y4290000D02*
D03*
Y4130000D02*
D03*
X12930000Y5090000D02*
D03*
X12850000D02*
D03*
X12500000Y5470000D02*
D03*
Y5390000D02*
D03*
X12290000Y5440000D02*
D03*
X9661214Y5531212D02*
D03*
X10450000Y5520000D02*
D03*
X10631214Y4351213D02*
D03*
Y4431212D02*
D03*
Y4511212D02*
D03*
Y4591212D02*
D03*
X10531214Y4351213D02*
D03*
Y4431212D02*
D03*
Y4511212D02*
D03*
Y4591212D02*
D03*
X13130000Y5550000D02*
D03*
X6310000Y4030000D02*
D03*
X6085200Y9040000D02*
D03*
X6940000Y9800000D02*
D03*
X6880000Y4140000D02*
D03*
X11200000Y4430000D02*
D03*
X11160000Y4150000D02*
D03*
X6632900Y4140000D02*
D03*
X7360000Y6490000D02*
D03*
X16139999Y3540000D02*
D03*
X16039999D02*
D03*
X16239999Y3460000D02*
D03*
X16139999D02*
D03*
X16039999D02*
D03*
X16239999Y3540000D02*
D03*
X15939999D02*
D03*
Y3460000D02*
D03*
X16239999Y3700000D02*
D03*
X16039999D02*
D03*
X16239999Y3620000D02*
D03*
X16139999D02*
D03*
Y3700000D02*
D03*
X15939999D02*
D03*
X16039999Y3620000D02*
D03*
X15939999D02*
D03*
X5898000Y5440000D02*
D03*
X2982000D02*
D03*
Y3610000D02*
D03*
X5898000D02*
D03*
X10080000Y9070000D02*
D03*
X7970000Y9000000D02*
D03*
X9358021Y9074002D02*
D03*
X7960000Y4400000D02*
D03*
X12590000Y7120000D02*
D03*
X10171214Y5081212D02*
D03*
X10251214D02*
D03*
X10011214D02*
D03*
X10831214Y4591212D02*
D03*
X10731214Y4511212D02*
D03*
Y4431212D02*
D03*
X10831214Y4351213D02*
D03*
X10731214D02*
D03*
X9971214Y4361212D02*
D03*
Y4121212D02*
D03*
Y4201212D02*
D03*
Y4281212D02*
D03*
X8571214Y2991212D02*
D03*
X8671214D02*
D03*
X8871214D02*
D03*
X9071214D02*
D03*
X8971214D02*
D03*
X8571214Y2911212D02*
D03*
X8671214D02*
D03*
X8871214D02*
D03*
X8771214D02*
D03*
X9071214D02*
D03*
X8971214D02*
D03*
X10571214Y3321212D02*
D03*
X9821214Y5461212D02*
D03*
Y5381212D02*
D03*
Y4761212D02*
D03*
Y4681212D02*
D03*
Y3961212D02*
D03*
Y4041212D02*
D03*
Y3281212D02*
D03*
Y3361212D02*
D03*
X8881214Y3491212D02*
D03*
Y3991212D02*
D03*
Y3891212D02*
D03*
Y3791212D02*
D03*
Y3591212D02*
D03*
Y3691212D02*
D03*
Y3391212D02*
D03*
Y3191212D02*
D03*
Y4091212D02*
D03*
Y4191212D02*
D03*
X8561214Y3541212D02*
D03*
Y3841213D02*
D03*
Y3741212D02*
D03*
Y3641212D02*
D03*
Y3441212D02*
D03*
Y3341212D02*
D03*
Y3241212D02*
D03*
Y3941213D02*
D03*
X8761214Y3841213D02*
D03*
Y3641212D02*
D03*
X8661214Y3891213D02*
D03*
Y3691213D02*
D03*
X8761214Y3541212D02*
D03*
X8661214Y3591213D02*
D03*
X8761214Y3741212D02*
D03*
X8661214Y3791213D02*
D03*
X8761214Y3441212D02*
D03*
X8661214Y3191212D02*
D03*
Y3391212D02*
D03*
X8761214Y3341212D02*
D03*
X8661214Y3491212D02*
D03*
X8761214Y3241212D02*
D03*
X8661214Y3291212D02*
D03*
X8761214Y3941213D02*
D03*
Y4041213D02*
D03*
X8661214Y3991213D02*
D03*
X8981214Y3631212D02*
D03*
Y3931213D02*
D03*
Y3431212D02*
D03*
Y3831213D02*
D03*
Y4031213D02*
D03*
Y3531212D02*
D03*
Y4131213D02*
D03*
Y3731213D02*
D03*
X9181214Y4131213D02*
D03*
Y4031213D02*
D03*
X9081214Y3781213D02*
D03*
Y3881213D02*
D03*
Y3981213D02*
D03*
Y4181213D02*
D03*
Y4081213D02*
D03*
Y3481212D02*
D03*
Y3581213D02*
D03*
Y3681213D02*
D03*
X9181214Y3231212D02*
D03*
Y3331212D02*
D03*
X9081214Y3381212D02*
D03*
Y3181212D02*
D03*
Y3281212D02*
D03*
X8981214Y3331212D02*
D03*
Y3231212D02*
D03*
X9181214Y3731213D02*
D03*
Y3431212D02*
D03*
Y3831213D02*
D03*
Y3631212D02*
D03*
Y3931213D02*
D03*
Y3531212D02*
D03*
X9661214Y3781212D02*
D03*
Y4081212D02*
D03*
Y3981212D02*
D03*
Y3881212D02*
D03*
Y3681212D02*
D03*
Y3381212D02*
D03*
Y3581212D02*
D03*
Y3481212D02*
D03*
X9461214Y3381212D02*
D03*
X9361214Y3731212D02*
D03*
X9561214Y3531212D02*
D03*
Y3431212D02*
D03*
X9461214Y3681212D02*
D03*
X9361214Y3631212D02*
D03*
Y3531212D02*
D03*
Y3431212D02*
D03*
X9561214Y3731212D02*
D03*
Y3631212D02*
D03*
X9461214Y3481212D02*
D03*
Y3581212D02*
D03*
X9361214Y4031212D02*
D03*
X9561214D02*
D03*
X9461214Y3981212D02*
D03*
Y3781212D02*
D03*
Y4081212D02*
D03*
X9361214Y3931212D02*
D03*
X9561214D02*
D03*
X9361214Y3831212D02*
D03*
X9461214Y3881212D02*
D03*
X9561214Y3831212D02*
D03*
X9461214Y5531212D02*
D03*
X9561214D02*
D03*
X8961214D02*
D03*
X9061214D02*
D03*
X9261214D02*
D03*
X9361214D02*
D03*
X9161214D02*
D03*
X8861214D02*
D03*
X8661214D02*
D03*
X8761214D02*
D03*
X9611214Y5431212D02*
D03*
X8811214D02*
D03*
X9311214D02*
D03*
X9511214D02*
D03*
X8711214D02*
D03*
X9211214D02*
D03*
X9011214D02*
D03*
X9111214D02*
D03*
X8911214D02*
D03*
X9411214D02*
D03*
X9611214Y5061212D02*
D03*
X8811214D02*
D03*
X8911214D02*
D03*
X8711214D02*
D03*
X9011214D02*
D03*
X9611214Y4861212D02*
D03*
X9661214Y4961212D02*
D03*
X9011214Y4861212D02*
D03*
X8761214Y4961212D02*
D03*
X8911214Y4861212D02*
D03*
X8711214D02*
D03*
X8661214Y4961212D02*
D03*
X8861214D02*
D03*
X8961214D02*
D03*
X8811214Y4861212D02*
D03*
X9061214Y4961212D02*
D03*
X9311214Y4861212D02*
D03*
X9261214Y4961212D02*
D03*
X9161214D02*
D03*
X9211214Y4861212D02*
D03*
X9111214D02*
D03*
Y5061212D02*
D03*
X9211214D02*
D03*
X9311214D02*
D03*
X9561214Y4961212D02*
D03*
X9511214Y5061212D02*
D03*
Y4861212D02*
D03*
X9461214Y4961212D02*
D03*
X9361214D02*
D03*
X9411214Y5061212D02*
D03*
Y4861212D02*
D03*
X9611214Y4571212D02*
D03*
X9661214Y4671212D02*
D03*
X9611214Y4771212D02*
D03*
X9011214Y4571212D02*
D03*
X8661214Y4671212D02*
D03*
X8711214Y4571212D02*
D03*
X8811214D02*
D03*
X8761214Y4671212D02*
D03*
X8861214D02*
D03*
X8911214Y4571212D02*
D03*
X8961214Y4671212D02*
D03*
X9061214D02*
D03*
X8711214Y4771212D02*
D03*
X8911214D02*
D03*
X9011214D02*
D03*
X8811214D02*
D03*
X9311214D02*
D03*
Y4571212D02*
D03*
X9161214Y4671212D02*
D03*
X9111214Y4771212D02*
D03*
X9261214Y4671212D02*
D03*
X9211214Y4571212D02*
D03*
X9111214D02*
D03*
X9211214Y4771212D02*
D03*
X9411214Y4571212D02*
D03*
X9511214Y4771212D02*
D03*
Y4571212D02*
D03*
X9461214Y4671212D02*
D03*
X9561214D02*
D03*
X9361214D02*
D03*
X9411214Y4771212D02*
D03*
X9011214Y5351212D02*
D03*
X9061214Y5251212D02*
D03*
X8811214Y5351212D02*
D03*
X8911214D02*
D03*
X8961214Y5251212D02*
D03*
X8711214Y5351212D02*
D03*
X8761214Y5251212D02*
D03*
X8861214D02*
D03*
X8661214D02*
D03*
X9611214Y5351212D02*
D03*
X9661214Y5251212D02*
D03*
X9611214Y5151212D02*
D03*
X8911214D02*
D03*
X9011214D02*
D03*
X8811214D02*
D03*
X8711214D02*
D03*
X9111214Y5351212D02*
D03*
X9261214Y5251212D02*
D03*
X9111214Y5151212D02*
D03*
X9161214Y5251212D02*
D03*
X9211214Y5351212D02*
D03*
Y5151212D02*
D03*
X9411214Y5351212D02*
D03*
X9311214Y5151212D02*
D03*
X9561214Y5251212D02*
D03*
X9511214Y5151212D02*
D03*
X9411214D02*
D03*
X9461214Y5251212D02*
D03*
X9511214Y5351212D02*
D03*
X9361214Y5251212D02*
D03*
X9311214Y5351212D02*
D03*
X10091214Y5081212D02*
D03*
X8881214Y3291212D02*
D03*
X10471214Y3801212D02*
D03*
X10604002Y6081979D02*
D03*
X6498021Y7444002D02*
D03*
X6240521Y7139609D02*
D03*
X6113521D02*
D03*
X6748021Y7304002D02*
D03*
X7058021Y7374003D02*
D03*
X6598021Y7444002D02*
D03*
X7058021Y7074002D02*
D03*
X7738021Y7394002D02*
D03*
X7868021Y6974003D02*
D03*
X7628021Y6384002D02*
D03*
X7838021Y7394002D02*
D03*
X7738021Y6384002D02*
D03*
X6113521Y6666396D02*
D03*
X7058021Y6464003D02*
D03*
X6748021Y6514002D02*
D03*
X6498021D02*
D03*
X6368021D02*
D03*
X6058021Y6494003D02*
D03*
X7058021Y6764002D02*
D03*
X6238021Y6514002D02*
D03*
X13580000Y6990000D02*
D03*
X13470000D02*
D03*
X8070000Y10090000D02*
D03*
X5632500Y9737500D02*
D03*
X6170000Y9170000D02*
D03*
X5630000Y8990000D02*
D03*
X5297500Y8994879D02*
D03*
X6560000Y9020000D02*
D03*
X6040000Y9780000D02*
D03*
X13460001Y10660000D02*
D03*
Y10740000D02*
D03*
X13660001D02*
D03*
X13560001D02*
D03*
Y10660000D02*
D03*
X13660001D02*
D03*
X13760001D02*
D03*
Y10740000D02*
D03*
X13210001Y7410000D02*
D03*
Y4440000D02*
D03*
Y4520000D02*
D03*
X13310001Y4440000D02*
D03*
Y4360000D02*
D03*
Y4520000D02*
D03*
X13250000Y3330000D02*
D03*
X7850000Y3800000D02*
D03*
X10731214Y4591212D02*
D03*
X10831214Y4511212D02*
D03*
Y4431212D02*
D03*
X13410001Y4440000D02*
D03*
X13510001Y4360000D02*
D03*
X13410001D02*
D03*
X13510001Y4440000D02*
D03*
X13210001Y4360000D02*
D03*
X13510001Y4600000D02*
D03*
X13310001D02*
D03*
X13510001Y4520000D02*
D03*
X13410001D02*
D03*
Y4600000D02*
D03*
X13210001D02*
D03*
X14870000Y6280000D02*
D03*
X14770000D02*
D03*
X14970000Y6200000D02*
D03*
X14870000D02*
D03*
X14770000D02*
D03*
X14970000Y6280000D02*
D03*
X14670000D02*
D03*
Y6200000D02*
D03*
X14970000Y6440000D02*
D03*
X14770000D02*
D03*
X14970000Y6360000D02*
D03*
X14870000D02*
D03*
Y6440000D02*
D03*
X14670000D02*
D03*
X14770000Y6360000D02*
D03*
X14670000D02*
D03*
X15600000Y8960000D02*
D03*
X15500000D02*
D03*
X15700000Y8880000D02*
D03*
X15600000D02*
D03*
X15500000D02*
D03*
X15700000Y8960000D02*
D03*
X15400000D02*
D03*
Y8880000D02*
D03*
X15700000Y9120000D02*
D03*
X15500000D02*
D03*
X15700000Y9040000D02*
D03*
X15600000D02*
D03*
Y9120000D02*
D03*
X15400000D02*
D03*
X15500000Y9040000D02*
D03*
X15400000D02*
D03*
X12920000Y5710000D02*
D03*
X10250000Y5720000D02*
D03*
X14839999Y9820000D02*
D03*
X12900000Y7680000D02*
D03*
Y7980000D02*
D03*
Y7070000D02*
D03*
Y7370000D02*
D03*
X13710001Y7580000D02*
D03*
X13680000Y8000000D02*
D03*
X13580000D02*
D03*
X12082501Y7745607D02*
D03*
X11955501Y7272393D02*
D03*
X14480000Y12120000D02*
D03*
Y12200000D02*
D03*
X14780000D02*
D03*
X14680000Y12120000D02*
D03*
X14580000D02*
D03*
X14780000D02*
D03*
X14580000Y12200000D02*
D03*
X14680000D02*
D03*
X15550000Y11890000D02*
D03*
X15250000D02*
D03*
X15550000Y11810000D02*
D03*
X15450000D02*
D03*
X15350000D02*
D03*
X15450000Y11890000D02*
D03*
X15350000D02*
D03*
X15250000Y11810000D02*
D03*
X12380000Y12000000D02*
D03*
Y12100000D02*
D03*
X12300000Y12000000D02*
D03*
Y12100000D02*
D03*
Y12200000D02*
D03*
X12380000D02*
D03*
Y12300000D02*
D03*
X12300000D02*
D03*
X12080000Y11990000D02*
D03*
X12000000D02*
D03*
Y12090000D02*
D03*
Y12190000D02*
D03*
X12080000D02*
D03*
Y12090000D02*
D03*
Y12290000D02*
D03*
X12000000D02*
D03*
X10310000Y12210000D02*
D03*
Y12290000D02*
D03*
X10410000D02*
D03*
X10510000Y12210000D02*
D03*
X10610000D02*
D03*
X10410000D02*
D03*
X10510000Y12290000D02*
D03*
X10610000D02*
D03*
X10990000Y10450000D02*
D03*
Y10350000D02*
D03*
Y10250000D02*
D03*
Y10150000D02*
D03*
X11070000Y10450000D02*
D03*
Y10350000D02*
D03*
Y10250000D02*
D03*
Y10150000D02*
D03*
X10990000Y10350000D02*
D03*
Y10250000D02*
D03*
Y10150000D02*
D03*
Y10350000D02*
D03*
Y10250000D02*
D03*
Y10150000D02*
D03*
X11070000Y10350000D02*
D03*
Y10250000D02*
D03*
Y10150000D02*
D03*
X11180000Y10450000D02*
D03*
Y10350000D02*
D03*
Y10250000D02*
D03*
Y10150000D02*
D03*
X11260000Y10450000D02*
D03*
Y10350000D02*
D03*
Y10250000D02*
D03*
Y10150000D02*
D03*
X11180000Y10350000D02*
D03*
Y10250000D02*
D03*
Y10150000D02*
D03*
Y10350000D02*
D03*
Y10250000D02*
D03*
Y10150000D02*
D03*
X11260000Y10350000D02*
D03*
Y10250000D02*
D03*
Y10150000D02*
D03*
X13900000Y10230000D02*
D03*
X13800000D02*
D03*
X13900000Y10150000D02*
D03*
X13700000D02*
D03*
X13600000D02*
D03*
X13700000Y10230000D02*
D03*
X13600000D02*
D03*
X13800000Y10150000D02*
D03*
X13520000Y10230000D02*
D03*
X13420000D02*
D03*
X13520000Y10150000D02*
D03*
X13420000D02*
D03*
X13320000D02*
D03*
X13220000D02*
D03*
X13320000Y10230000D02*
D03*
X13220000D02*
D03*
X12700000Y10330000D02*
D03*
X12600000D02*
D03*
X12500000D02*
D03*
X12400000D02*
D03*
X12700000Y10250000D02*
D03*
X12600000D02*
D03*
X12400000D02*
D03*
X12500000D02*
D03*
X13220000Y11590000D02*
D03*
X13120000D02*
D03*
X13020000D02*
D03*
X12920000D02*
D03*
X13220000Y11510000D02*
D03*
X13120000D02*
D03*
X13020000D02*
D03*
X12920000D02*
D03*
X13120000Y11590000D02*
D03*
X13020000D02*
D03*
X12920000D02*
D03*
X13120000D02*
D03*
X13020000D02*
D03*
X12920000D02*
D03*
X13120000Y11510000D02*
D03*
X13020000D02*
D03*
X12920000D02*
D03*
X13370000Y12160000D02*
D03*
X13470000D02*
D03*
X13370000Y12240000D02*
D03*
X13570000D02*
D03*
Y12160000D02*
D03*
X13670000D02*
D03*
X13470000Y12240000D02*
D03*
X13670000D02*
D03*
X13370000Y12000000D02*
D03*
Y12080000D02*
D03*
X13670000D02*
D03*
X13470000Y12000000D02*
D03*
X13570000D02*
D03*
X13670000D02*
D03*
X13470000Y12080000D02*
D03*
X13570000D02*
D03*
X13470000Y11060000D02*
D03*
X13670000D02*
D03*
X13770000D02*
D03*
X13470000Y11140000D02*
D03*
X13570000D02*
D03*
X13670000D02*
D03*
X13770000D02*
D03*
X13570000Y11060000D02*
D03*
X13470000Y11220000D02*
D03*
X13770000D02*
D03*
X13470000Y11300000D02*
D03*
X13570000D02*
D03*
X13670000D02*
D03*
X13770000D02*
D03*
X13570000Y11220000D02*
D03*
X13670000D02*
D03*
X13070000D02*
D03*
Y11300000D02*
D03*
X13170000D02*
D03*
X13270000D02*
D03*
X13370000D02*
D03*
X13170000Y11220000D02*
D03*
X13270000D02*
D03*
X13370000D02*
D03*
X13180000Y10760000D02*
D03*
Y10660000D02*
D03*
Y10560000D02*
D03*
Y10460000D02*
D03*
X13260001Y10760000D02*
D03*
Y10660000D02*
D03*
Y10560000D02*
D03*
Y10460000D02*
D03*
X13180000Y10660000D02*
D03*
Y10560000D02*
D03*
Y10460000D02*
D03*
Y10660000D02*
D03*
Y10560000D02*
D03*
Y10460000D02*
D03*
X13260001Y10660000D02*
D03*
Y10560000D02*
D03*
Y10460000D02*
D03*
X13470000Y11880000D02*
D03*
Y11680000D02*
D03*
X13550000Y11880000D02*
D03*
Y11580000D02*
D03*
X13470000D02*
D03*
Y11780000D02*
D03*
X13550000D02*
D03*
Y11680000D02*
D03*
X15870000Y10020000D02*
D03*
X15670000D02*
D03*
X15870000Y9940000D02*
D03*
X15670000D02*
D03*
X15570000Y10020000D02*
D03*
X15770000D02*
D03*
Y9940000D02*
D03*
X15570000D02*
D03*
X16670000Y9770000D02*
D03*
X16370000D02*
D03*
X16670000Y9690000D02*
D03*
X16570000D02*
D03*
X16370000D02*
D03*
X16570000Y9770000D02*
D03*
X16470000D02*
D03*
Y9690000D02*
D03*
X16670000Y10010000D02*
D03*
X16470000D02*
D03*
X16370000D02*
D03*
X16670000Y9930000D02*
D03*
X16570000D02*
D03*
X16370000D02*
D03*
X16570000Y10010000D02*
D03*
X16470000Y9930000D02*
D03*
X16669000Y10288000D02*
D03*
X16469000D02*
D03*
X16369000D02*
D03*
X16670000Y10212000D02*
D03*
X16569000Y10288000D02*
D03*
X16570000Y10212000D02*
D03*
X16470000D02*
D03*
X16370000D02*
D03*
X15030000Y9820000D02*
D03*
X14370000Y9830000D02*
D03*
X13480000D02*
D03*
X12760000D02*
D03*
X12340000Y8050000D02*
D03*
X12440000D02*
D03*
X12590000Y7910000D02*
D03*
X12340000Y7120000D02*
D03*
X11955501Y7745607D02*
D03*
X12290000Y5160000D02*
D03*
X12340000Y5260000D02*
D03*
X12290000Y5360000D02*
D03*
X12240000Y5260000D02*
D03*
X12190000Y5360000D02*
D03*
X12140000Y5260000D02*
D03*
X12190000Y5160000D02*
D03*
X12090000Y5360000D02*
D03*
X12040000Y5260000D02*
D03*
X12090000Y5160000D02*
D03*
X11990000D02*
D03*
X11440000Y5540000D02*
D03*
X11640000D02*
D03*
X11490000Y5440000D02*
D03*
X11540000Y5540000D02*
D03*
X11590000Y5440000D02*
D03*
X11690000D02*
D03*
X11740000Y5540000D02*
D03*
X11940000D02*
D03*
X11790000Y5440000D02*
D03*
X11840000Y5540000D02*
D03*
X11890000Y5440000D02*
D03*
X12340000Y5540000D02*
D03*
X12040000D02*
D03*
X12240000D02*
D03*
X12090000Y5440000D02*
D03*
X12140000Y5540000D02*
D03*
X12190000Y5440000D02*
D03*
X11990000D02*
D03*
X12240000Y4680000D02*
D03*
X12290000Y4780000D02*
D03*
Y4580000D02*
D03*
X12190000Y4780000D02*
D03*
X12140000Y4680000D02*
D03*
X12190000Y4580000D02*
D03*
X12090000Y4780000D02*
D03*
X12040000Y4680000D02*
D03*
X12090000Y4580000D02*
D03*
X11990000Y4780000D02*
D03*
Y4580000D02*
D03*
X12500000Y4690000D02*
D03*
X12340000Y4680000D02*
D03*
X11890000Y4780000D02*
D03*
X11790000Y4580000D02*
D03*
X11840000Y4680000D02*
D03*
X11890000Y4580000D02*
D03*
X11790000Y4780000D02*
D03*
X11740000Y4680000D02*
D03*
X11690000Y4780000D02*
D03*
X11640000Y4680000D02*
D03*
X11690000Y4580000D02*
D03*
X11340000Y4680000D02*
D03*
X11540000D02*
D03*
X11590000Y4580000D02*
D03*
X11440000Y4680000D02*
D03*
X11490000Y4580000D02*
D03*
X11390000Y4780000D02*
D03*
Y4580000D02*
D03*
X11490000Y4780000D02*
D03*
X11590000D02*
D03*
X11560000Y4200000D02*
D03*
X11990000Y5070000D02*
D03*
X11940000Y4970000D02*
D03*
X11990000Y4870000D02*
D03*
X11890000D02*
D03*
X11940000Y4680000D02*
D03*
X11890000Y5070000D02*
D03*
X11490000D02*
D03*
X11790000D02*
D03*
X11690000D02*
D03*
X11590000D02*
D03*
X11390000D02*
D03*
X11340000Y4970000D02*
D03*
X11840000D02*
D03*
X11740000D02*
D03*
X11790000Y4870000D02*
D03*
X11640000Y4970000D02*
D03*
X11690000Y4870000D02*
D03*
X11540000Y4970000D02*
D03*
X11590000Y4870000D02*
D03*
X11440000Y4970000D02*
D03*
X11490000Y4870000D02*
D03*
X11390000D02*
D03*
X12290000D02*
D03*
X12690000Y5090000D02*
D03*
X12770000D02*
D03*
X12340000Y4970000D02*
D03*
X12290000Y5070000D02*
D03*
X12240000Y4970000D02*
D03*
X12190000Y5070000D02*
D03*
X12140000Y4970000D02*
D03*
X12190000Y4870000D02*
D03*
X12090000Y5070000D02*
D03*
X12040000Y4970000D02*
D03*
X12090000Y4870000D02*
D03*
X11990000Y5360000D02*
D03*
X11790000D02*
D03*
X11940000Y5260000D02*
D03*
X11890000Y5360000D02*
D03*
X11840000Y5260000D02*
D03*
X11890000Y5160000D02*
D03*
X11740000Y5260000D02*
D03*
X11790000Y5160000D02*
D03*
X11690000Y5360000D02*
D03*
Y5160000D02*
D03*
X11440000Y5260000D02*
D03*
X11640000D02*
D03*
X11590000Y5360000D02*
D03*
X11540000Y5260000D02*
D03*
X11590000Y5160000D02*
D03*
X11490000Y5360000D02*
D03*
Y5160000D02*
D03*
X11390000Y5360000D02*
D03*
X11340000Y5260000D02*
D03*
X11390000Y5160000D02*
D03*
Y5440000D02*
D03*
X11340000Y5540000D02*
D03*
X12340000Y4090000D02*
D03*
X12140000D02*
D03*
X11240000Y3750000D02*
D03*
Y3950000D02*
D03*
Y3850000D02*
D03*
Y3650000D02*
D03*
Y3550000D02*
D03*
Y3450000D02*
D03*
X11250000Y2920000D02*
D03*
X11350000Y3000000D02*
D03*
X11250000D02*
D03*
X11240000Y3250000D02*
D03*
X11350000Y2920000D02*
D03*
X11240000Y3350000D02*
D03*
X11860000Y3240000D02*
D03*
X11760000Y3190000D02*
D03*
X11660000Y3240000D02*
D03*
X11760000Y3290000D02*
D03*
X11660000Y3340000D02*
D03*
X11760000Y3390000D02*
D03*
X11660000Y3440000D02*
D03*
X11760000Y3490000D02*
D03*
X11660000Y3540000D02*
D03*
X11760000Y3590000D02*
D03*
X11660000Y3640000D02*
D03*
X11760000Y3690000D02*
D03*
X11860000Y3740000D02*
D03*
Y3340000D02*
D03*
Y3440000D02*
D03*
Y3540000D02*
D03*
Y3640000D02*
D03*
Y3840000D02*
D03*
Y3940000D02*
D03*
Y4040000D02*
D03*
Y4140000D02*
D03*
X11660000Y3940000D02*
D03*
Y3740000D02*
D03*
X11760000Y3790000D02*
D03*
X11660000Y3840000D02*
D03*
X11760000Y3890000D02*
D03*
Y3990000D02*
D03*
X11660000Y4040000D02*
D03*
X11760000Y4090000D02*
D03*
X11660000Y4140000D02*
D03*
X11760000Y4190001D02*
D03*
X11560000Y3500000D02*
D03*
Y3400000D02*
D03*
Y3199999D02*
D03*
Y3299999D02*
D03*
Y4100000D02*
D03*
Y4000000D02*
D03*
Y3900000D02*
D03*
Y3800000D02*
D03*
Y3700000D02*
D03*
Y3600000D02*
D03*
X11440000Y4050000D02*
D03*
Y3550000D02*
D03*
Y3650000D02*
D03*
Y3750000D02*
D03*
Y3850000D02*
D03*
Y3950000D02*
D03*
Y3450000D02*
D03*
Y3350000D02*
D03*
Y3250000D02*
D03*
X11340000Y3200000D02*
D03*
Y3400000D02*
D03*
Y3500000D02*
D03*
Y3600000D02*
D03*
Y3700000D02*
D03*
Y3800000D02*
D03*
Y3900000D02*
D03*
Y4000000D02*
D03*
Y3300000D02*
D03*
X13150000Y3810000D02*
D03*
X12340000Y3690000D02*
D03*
Y3990000D02*
D03*
Y3890000D02*
D03*
Y3790000D02*
D03*
X12040000Y4040000D02*
D03*
X12140000Y3990000D02*
D03*
X12240000Y4040000D02*
D03*
X12040000Y3940000D02*
D03*
X12140000Y3890000D02*
D03*
X12240000Y3940000D02*
D03*
X12040000Y3840000D02*
D03*
X12140000Y3790000D02*
D03*
X12240000Y3840000D02*
D03*
X12040000Y3740000D02*
D03*
X12140000Y3690000D02*
D03*
X12240000Y3740000D02*
D03*
X12040000Y3640000D02*
D03*
X12340000Y3390000D02*
D03*
Y3490000D02*
D03*
X12140000Y3590000D02*
D03*
Y3490000D02*
D03*
X12240000Y3540000D02*
D03*
X12140000Y3390000D02*
D03*
X12240000Y3439999D02*
D03*
X12040000D02*
D03*
Y3540000D02*
D03*
X11450000Y3000000D02*
D03*
X11550000D02*
D03*
X11650000D02*
D03*
X11750000D02*
D03*
X11850000D02*
D03*
X11450000Y2920000D02*
D03*
X11550000D02*
D03*
X11650000D02*
D03*
X11750000D02*
D03*
X11850000D02*
D03*
X15800000Y12230000D02*
D03*
Y12130000D02*
D03*
Y12030000D02*
D03*
X15880000Y12230000D02*
D03*
Y12130000D02*
D03*
Y12030000D02*
D03*
Y12230000D02*
D03*
Y12130000D02*
D03*
Y12030000D02*
D03*
X15800000Y12230000D02*
D03*
Y12130000D02*
D03*
Y12030000D02*
D03*
Y11930000D02*
D03*
X15880000Y12230000D02*
D03*
Y12130000D02*
D03*
Y12030000D02*
D03*
Y11930000D02*
D03*
X8771214Y2991212D02*
D03*
X9171214Y2911212D02*
D03*
Y2991212D02*
D03*
X7720000Y11270000D02*
D03*
X7800000D02*
D03*
X6300000Y9900000D02*
D03*
X5780000Y9620000D02*
D03*
X6400000Y9770000D02*
D03*
X3800000Y3610000D02*
D03*
X3719999D02*
D03*
X3959999D02*
D03*
X3879999D02*
D03*
X4400000D02*
D03*
X4319999D02*
D03*
X4560000D02*
D03*
X4479999D02*
D03*
X5000000D02*
D03*
X4920000D02*
D03*
X5160000D02*
D03*
X5079999D02*
D03*
X5898000Y4565000D02*
D03*
Y4645000D02*
D03*
Y4405000D02*
D03*
Y4485000D02*
D03*
X5160000Y5440000D02*
D03*
X4920000D02*
D03*
X4320000D02*
D03*
X3880000D02*
D03*
X3720000D02*
D03*
X2982000Y4485000D02*
D03*
Y4405000D02*
D03*
Y4645000D02*
D03*
Y4565000D02*
D03*
X3542500Y4340000D02*
D03*
X3622500D02*
D03*
X3582500Y4380000D02*
D03*
Y4300000D02*
D03*
X5040000Y3980000D02*
D03*
Y4100000D02*
D03*
X4463000Y3875000D02*
D03*
Y3795000D02*
D03*
X5490000Y4340000D02*
D03*
X5510000Y3840000D02*
D03*
X6410000Y4380000D02*
D03*
Y4300000D02*
D03*
X7050000Y4140000D02*
D03*
X6810000Y3580000D02*
D03*
X8080000Y3240000D02*
D03*
X8040000Y3040000D02*
D03*
X7550000Y4290000D02*
D03*
X7470000D02*
D03*
X7460000Y3690000D02*
D03*
X7540000D02*
D03*
X6690000Y3160000D02*
D03*
X6530000D02*
D03*
X13510001Y10570000D02*
D03*
X6170000Y9770000D02*
D03*
X5430000Y9620000D02*
D03*
X5300000Y9780000D02*
D03*
X7030000Y9750000D02*
D03*
X8121000Y11101900D02*
D03*
X5230000Y9060000D02*
D03*
X17032022Y12446883D02*
D03*
X16907022D02*
D03*
X16782022D02*
D03*
X16657022D02*
D03*
X16532022D02*
D03*
X16407022D02*
D03*
X16282022D02*
D03*
X16157022D02*
D03*
X16032022D02*
D03*
X15907022D02*
D03*
X15782022D02*
D03*
X15657022D02*
D03*
X15532022D02*
D03*
X15407022D02*
D03*
X15282022D02*
D03*
X15157022D02*
D03*
X15032022D02*
D03*
X14907022D02*
D03*
X14782022D02*
D03*
X14657022D02*
D03*
X14532022D02*
D03*
X14407022D02*
D03*
X14282022D02*
D03*
X14157022D02*
D03*
X14032022D02*
D03*
X13907022D02*
D03*
X13782022D02*
D03*
X13657022D02*
D03*
X13532022D02*
D03*
X13407022D02*
D03*
X13282022D02*
D03*
X13157022D02*
D03*
X13032022D02*
D03*
X12907022D02*
D03*
X12782022D02*
D03*
X12657022D02*
D03*
X12532022D02*
D03*
X12407022D02*
D03*
X12282022D02*
D03*
X12157022D02*
D03*
X12032022D02*
D03*
X11907022D02*
D03*
X11782022D02*
D03*
X11657022D02*
D03*
X11532022D02*
D03*
X11407022D02*
D03*
X11282022D02*
D03*
X11157022D02*
D03*
X11032022D02*
D03*
X10907022D02*
D03*
X10782022D02*
D03*
X10657022D02*
D03*
X10532022D02*
D03*
X10407022D02*
D03*
X10282022D02*
D03*
X10157022D02*
D03*
X10032022D02*
D03*
X9907022D02*
D03*
X9782022D02*
D03*
X9657022D02*
D03*
X9532022D02*
D03*
X9407022D02*
D03*
X9282022D02*
D03*
X9157022D02*
D03*
X9032022D02*
D03*
X8907022D02*
D03*
X8782022D02*
D03*
X8657022D02*
D03*
X8532022D02*
D03*
X8407022D02*
D03*
X8282022D02*
D03*
X8157022D02*
D03*
X8032022D02*
D03*
X7907022D02*
D03*
X7782022D02*
D03*
X7657022D02*
D03*
X7532022D02*
D03*
X7407022D02*
D03*
X7282022D02*
D03*
X7157022D02*
D03*
X7032021D02*
D03*
X6907021D02*
D03*
X6782021D02*
D03*
X6657021D02*
D03*
X6532021D02*
D03*
X6407021D02*
D03*
X6282021D02*
D03*
X6157021D02*
D03*
X6032021D02*
D03*
X5907021D02*
D03*
X5782021D02*
D03*
X5657021D02*
D03*
X5532021D02*
D03*
X5407021D02*
D03*
X5282021D02*
D03*
X5157021D02*
D03*
X5032021D02*
D03*
X4907021D02*
D03*
X4782021D02*
D03*
X4657021D02*
D03*
X4532021D02*
D03*
X4407021D02*
D03*
X4282021D02*
D03*
X4157021D02*
D03*
X4032021D02*
D03*
X3907021D02*
D03*
X3782021D02*
D03*
X3657021D02*
D03*
X3532021D02*
D03*
X3407021D02*
D03*
X3282021D02*
D03*
X3157021D02*
D03*
X3032035Y12445035D02*
D03*
X2911881Y12410566D02*
D03*
X2816573Y12329688D02*
D03*
X2762667Y12216909D02*
D03*
X2753117Y12092274D02*
D03*
Y11967274D02*
D03*
Y11842274D02*
D03*
Y11717274D02*
D03*
Y11592274D02*
D03*
Y11467274D02*
D03*
Y11342274D02*
D03*
Y11217274D02*
D03*
Y11092274D02*
D03*
Y10967274D02*
D03*
Y10842274D02*
D03*
Y10717274D02*
D03*
Y10592274D02*
D03*
Y10467274D02*
D03*
Y10342274D02*
D03*
Y10217274D02*
D03*
Y10092274D02*
D03*
Y9967274D02*
D03*
Y9842274D02*
D03*
Y9717274D02*
D03*
Y9592274D02*
D03*
Y9467274D02*
D03*
Y9342274D02*
D03*
Y9217274D02*
D03*
Y9092274D02*
D03*
Y8967274D02*
D03*
Y8842274D02*
D03*
Y8717274D02*
D03*
Y8592274D02*
D03*
Y8467274D02*
D03*
Y8342274D02*
D03*
Y8217274D02*
D03*
Y8092274D02*
D03*
Y7967274D02*
D03*
Y7842274D02*
D03*
Y7717274D02*
D03*
Y7592274D02*
D03*
Y7467274D02*
D03*
Y7342274D02*
D03*
Y7217274D02*
D03*
Y7092274D02*
D03*
Y6967274D02*
D03*
Y6842274D02*
D03*
Y6717274D02*
D03*
Y6592274D02*
D03*
Y6467274D02*
D03*
Y6342274D02*
D03*
Y6217274D02*
D03*
Y6092274D02*
D03*
Y5967274D02*
D03*
Y5842274D02*
D03*
Y5717274D02*
D03*
Y5592274D02*
D03*
Y5467274D02*
D03*
Y5342274D02*
D03*
Y5217274D02*
D03*
Y5092274D02*
D03*
Y4967274D02*
D03*
Y4842274D02*
D03*
Y4717274D02*
D03*
Y4592274D02*
D03*
Y4467274D02*
D03*
Y4342274D02*
D03*
Y4217274D02*
D03*
Y4092274D02*
D03*
Y3967274D02*
D03*
Y3842274D02*
D03*
Y3717274D02*
D03*
Y3592274D02*
D03*
Y3467274D02*
D03*
Y3342274D02*
D03*
Y3217274D02*
D03*
Y3092274D02*
D03*
X2766297Y2967971D02*
D03*
X2826653Y2858508D02*
D03*
X2925903Y2782517D02*
D03*
X3047546Y2753743D02*
D03*
X3172544Y2753116D02*
D03*
X3297544D02*
D03*
X3422544D02*
D03*
X3547544D02*
D03*
X3672544D02*
D03*
X3797544D02*
D03*
X3922544D02*
D03*
X4047544D02*
D03*
X4172544D02*
D03*
X4297544D02*
D03*
X4422544D02*
D03*
X4547544D02*
D03*
X4672544D02*
D03*
X4797544D02*
D03*
X4922544D02*
D03*
X5047544D02*
D03*
X5172544D02*
D03*
X5297544D02*
D03*
X5422544D02*
D03*
X5547544D02*
D03*
X5672544D02*
D03*
X5797544D02*
D03*
X5922544D02*
D03*
X6047544D02*
D03*
X6172544Y2753116D02*
D03*
X6297544D02*
D03*
X6422544D02*
D03*
X6547544D02*
D03*
X6672544D02*
D03*
X6797544D02*
D03*
X6922544D02*
D03*
X7047544D02*
D03*
X7172544D02*
D03*
X7297544D02*
D03*
X7422544D02*
D03*
X7547544D02*
D03*
X7672544D02*
D03*
X7797544D02*
D03*
X7922544D02*
D03*
X8047544D02*
D03*
X8172544D02*
D03*
X8297544D02*
D03*
X8422544D02*
D03*
X8547544D02*
D03*
X8672544D02*
D03*
X8797544D02*
D03*
X8922544D02*
D03*
X9047544Y2753116D02*
D03*
X9172544D02*
D03*
X9297544D02*
D03*
X9422544D02*
D03*
X9547544D02*
D03*
X9672544D02*
D03*
X9797544D02*
D03*
X9922544D02*
D03*
X10047544D02*
D03*
X10172544D02*
D03*
X10297544D02*
D03*
X10422544D02*
D03*
X10547544D02*
D03*
X10672544D02*
D03*
X10797544D02*
D03*
X10922544D02*
D03*
X11047544D02*
D03*
X11172544D02*
D03*
X11297544D02*
D03*
X11422544D02*
D03*
X11547544D02*
D03*
X11672544D02*
D03*
X11797544D02*
D03*
X11922544Y2753116D02*
D03*
X12047544D02*
D03*
X12172544D02*
D03*
X12297544D02*
D03*
X12422544D02*
D03*
X12797544D02*
D03*
X12922543D02*
D03*
X13047543D02*
D03*
X13172543D02*
D03*
X13297543D02*
D03*
X13422543D02*
D03*
X13547543D02*
D03*
X13672543D02*
D03*
X13797543D02*
D03*
X13922543D02*
D03*
X14047543D02*
D03*
X14172543D02*
D03*
X14297543D02*
D03*
X14422543D02*
D03*
X14547543D02*
D03*
X14672543D02*
D03*
X14797543Y2753117D02*
D03*
X14922543D02*
D03*
X15047543D02*
D03*
X15172543D02*
D03*
X15297543D02*
D03*
X15422543D02*
D03*
X15547543D02*
D03*
X15672543D02*
D03*
X15797543D02*
D03*
X15922543D02*
D03*
X16047543D02*
D03*
X16172543D02*
D03*
X16297543D02*
D03*
X16422543D02*
D03*
X16547545D02*
D03*
X16672545D02*
D03*
X16797545D02*
D03*
X16922545D02*
D03*
X17047545D02*
D03*
X17172525Y2755324D02*
D03*
X17292068Y2791854D02*
D03*
X17386433Y2873831D02*
D03*
X17438396Y2987519D02*
D03*
X17446883Y3112231D02*
D03*
Y3237231D02*
D03*
Y3362231D02*
D03*
Y3487231D02*
D03*
Y3612231D02*
D03*
Y3737231D02*
D03*
Y3862231D02*
D03*
Y3987231D02*
D03*
Y4112231D02*
D03*
Y4237231D02*
D03*
Y4362231D02*
D03*
Y4487231D02*
D03*
Y4612231D02*
D03*
Y4737231D02*
D03*
Y4862231D02*
D03*
Y4987231D02*
D03*
Y5112231D02*
D03*
Y5237231D02*
D03*
Y5362231D02*
D03*
Y5487231D02*
D03*
Y5612231D02*
D03*
Y5737231D02*
D03*
Y5862231D02*
D03*
Y5987231D02*
D03*
Y6112231D02*
D03*
Y6237231D02*
D03*
Y6362231D02*
D03*
Y6487231D02*
D03*
Y6612231D02*
D03*
Y6737231D02*
D03*
Y6862231D02*
D03*
Y6987231D02*
D03*
Y7112231D02*
D03*
Y7237231D02*
D03*
Y7362231D02*
D03*
Y7487231D02*
D03*
Y7612231D02*
D03*
Y7737231D02*
D03*
Y7862231D02*
D03*
Y7987231D02*
D03*
Y8112231D02*
D03*
Y8237231D02*
D03*
Y8362231D02*
D03*
Y8487231D02*
D03*
Y8612231D02*
D03*
Y8737231D02*
D03*
Y8862231D02*
D03*
Y8987231D02*
D03*
Y9112231D02*
D03*
Y9237231D02*
D03*
Y9362231D02*
D03*
Y9487231D02*
D03*
Y9612231D02*
D03*
Y9737231D02*
D03*
Y9862231D02*
D03*
Y9987231D02*
D03*
Y10112231D02*
D03*
Y10237231D02*
D03*
Y10362231D02*
D03*
Y10487231D02*
D03*
Y10612231D02*
D03*
Y10737231D02*
D03*
Y10862231D02*
D03*
Y10987231D02*
D03*
Y11112231D02*
D03*
Y11237231D02*
D03*
Y11362231D02*
D03*
Y11487231D02*
D03*
Y11612231D02*
D03*
Y11737231D02*
D03*
Y11862231D02*
D03*
Y11987231D02*
D03*
Y12112231D02*
D03*
X17432646Y12236417D02*
D03*
X17370471Y12344857D02*
D03*
X17269974Y12419189D02*
D03*
X17147990Y12446487D02*
D03*
D99*
X6300000Y9407500D02*
D03*
%TF.MD5,08b4f6affad972a707712fb504bddeda*%
M02*
