%TF.GenerationSoftware,Altium Limited,Altium Designer,24.2.2 (26)*%
G04 Layer_Color=32768*
%FSLAX45Y45*%
%MOMM*%
%TF.SameCoordinates,2C43E8B5-FC8E-40A2-A425-C8743FE8A27F*%
%TF.FilePolarity,Positive*%
%TF.FileFunction,Other,Top_Courtyard*%
%TF.Part,Single*%
G01*
G75*
%TA.AperFunction,NonConductor*%
%ADD119C,0.20000*%
D119*
X5702100Y11626900D02*
X6661900D01*
Y10667100D02*
Y11626900D01*
X5702100Y10667100D02*
X6661900D01*
X5702100D02*
Y11626900D01*
X6985000Y4405000D02*
Y4675000D01*
X6835000Y4405000D02*
X6985000D01*
X6835000D02*
Y4675000D01*
X6985000D01*
X5225000Y3900000D02*
X5455000D01*
Y3780000D02*
Y3900000D01*
X5225000Y3780000D02*
X5455000D01*
X5225000D02*
Y3900000D01*
Y4280000D02*
X5455000D01*
X5225000D02*
Y4400000D01*
X5455000D01*
Y4280000D02*
Y4400000D01*
X5115000Y3705000D02*
Y3975000D01*
X4965000Y3705000D02*
X5115000D01*
X4965000D02*
Y3975000D01*
X5115000D01*
X4965000Y4105000D02*
Y4375000D01*
X5115000D01*
Y4105000D02*
Y4375000D01*
X4965000Y4105000D02*
X5115000D01*
X5857500Y9735310D02*
X6742500D01*
X5857500Y9064691D02*
Y9735310D01*
Y9064691D02*
X6742500D01*
Y9735310D01*
X5911021Y6532693D02*
Y7273312D01*
X6951021D01*
Y6532693D02*
Y7273312D01*
X5911021Y6532693D02*
X6951021D01*
X6460521Y7411503D02*
X6635521D01*
Y7316503D02*
Y7411503D01*
X6460521Y7316503D02*
X6635521D01*
X6460521D02*
Y7411503D01*
X8180521Y6548693D02*
Y7219312D01*
X7295521Y6548693D02*
X8180521D01*
X7295521D02*
Y7219312D01*
X8180521D01*
X7590521Y6416503D02*
X7765521D01*
X7590521D02*
Y6511503D01*
X7765521D01*
Y6416503D02*
Y6511503D01*
X7700521Y7371503D02*
X7875521D01*
Y7276503D02*
Y7371503D01*
X7700521Y7276503D02*
X7875521D01*
X7700521D02*
Y7371503D01*
X12302500Y8017500D02*
X12477500D01*
Y7922500D02*
Y8017500D01*
X12302500Y7922500D02*
X12477500D01*
X12302500D02*
Y8017500D01*
X14022501Y7154690D02*
Y7825310D01*
X13137500Y7154690D02*
X14022501D01*
X13137500D02*
Y7825310D01*
X14022501D01*
X13432500Y7022500D02*
X13607500D01*
X13432500D02*
Y7117500D01*
X13607500D01*
Y7022500D02*
Y7117500D01*
X11753001Y7138690D02*
Y7879310D01*
X12793001D01*
Y7138690D02*
Y7879310D01*
X11753001Y7138690D02*
X12793001D01*
X13542500Y7977500D02*
X13717500D01*
Y7882500D02*
Y7977500D01*
X13542500Y7882500D02*
X13717500D01*
X13542500D02*
Y7977500D01*
X6545000Y4065000D02*
Y4215000D01*
X6275000D02*
X6545000D01*
X6275000Y4065000D02*
Y4215000D01*
Y4065000D02*
X6545000D01*
X6745000Y3165000D02*
Y3315000D01*
X6475000D02*
X6745000D01*
X6475000Y3165000D02*
Y3315000D01*
Y3165000D02*
X6745000D01*
X6240500Y4006917D02*
X7125500D01*
X6240500Y3336297D02*
Y4006917D01*
Y3336297D02*
X7125500D01*
Y4006917D01*
X12934850Y10367750D02*
Y10832250D01*
Y10367750D02*
X13465150D01*
Y10832250D01*
X12934850D02*
X13465150D01*
X13823990Y11470551D02*
Y11924450D01*
X13197980D02*
X13823990D01*
X13197980Y11470551D02*
Y11924450D01*
Y11470551D02*
X13823990D01*
X13500000Y10637500D02*
X13700000D01*
Y11057500D01*
X13500000D02*
X13700000D01*
X13500000Y10637500D02*
Y11057500D01*
X13689999Y10102500D02*
X13889999D01*
Y10522500D01*
X13689999D02*
X13889999D01*
X13689999Y10102500D02*
Y10522500D01*
X12831979Y12183498D02*
X13031979D01*
X12831979Y11763498D02*
Y12183498D01*
Y11763498D02*
X13031979D01*
Y12183498D01*
X13000000Y11662500D02*
X13200000D01*
X13000000Y11242500D02*
Y11662500D01*
Y11242500D02*
X13200000D01*
Y11662500D01*
X6505000Y9842000D02*
Y9958000D01*
X6255000D02*
X6505000D01*
X6255000Y9842000D02*
Y9958000D01*
Y9842000D02*
X6505000D01*
X8012500Y9042500D02*
Y9157500D01*
X7787500D02*
X8012500D01*
X7787500Y9042500D02*
Y9157500D01*
Y9042500D02*
X8012500D01*
Y9442500D02*
Y9557500D01*
X7787500D02*
X8012500D01*
X7787500Y9442500D02*
Y9557500D01*
Y9442500D02*
X8012500D01*
X8012494Y9242511D02*
Y9357511D01*
X7787494D02*
X8012494D01*
X7787494Y9242511D02*
Y9357511D01*
Y9242511D02*
X8012494D01*
X8025000Y9642000D02*
Y9758000D01*
X7775000D02*
X8025000D01*
X7775000Y9642000D02*
Y9758000D01*
Y9642000D02*
X8025000D01*
X8012500Y9842500D02*
Y9957500D01*
X7787500D02*
X8012500D01*
X7787500Y9842500D02*
Y9957500D01*
Y9842500D02*
X8012500D01*
%TF.MD5,0cfc3895fe6c385150268a530b1b5ab7*%
M02*
