%TF.GenerationSoftware,Altium Limited,Altium Designer,24.2.2 (26)*%
G04 Layer_Color=16711935*
%FSLAX45Y45*%
%MOMM*%
%TF.SameCoordinates,B61E387C-C652-4A73-A4A4-6DD95E315EF5*%
%TF.FilePolarity,Positive*%
%TF.FileFunction,Other,Mechanical_13*%
%TF.Part,Single*%
G01*
G75*
%TA.AperFunction,NonConductor*%
%ADD118C,0.20000*%
%ADD122C,0.10000*%
%ADD123C,0.12700*%
%ADD188C,0.00000*%
%ADD189C,0.02540*%
D118*
X13060001Y5090000D02*
G03*
X13060001Y5090000I-10000J0D01*
G01*
X10381214Y5081213D02*
G03*
X10381214Y5081213I-10000J0D01*
G01*
X4355200Y3838700D02*
G03*
X4355200Y3838700I-10000J0D01*
G01*
X17420000Y6925000D02*
G03*
X17420000Y6925000I-10000J0D01*
G01*
X5335000Y9750001D02*
G03*
X5335000Y9750001I-10000J0D01*
G01*
X5485000Y9050000D02*
G03*
X5485000Y9050000I-10000J0D01*
G01*
X6887500Y9066000D02*
G03*
X6887500Y9066000I-10000J0D01*
G01*
X10117000Y11649000D02*
X10497000D01*
Y11399000D02*
Y11649000D01*
X10117000Y11399000D02*
X10497000D01*
X10117000D02*
Y11649000D01*
X16625999Y9839000D02*
Y10219000D01*
X16375999Y9839000D02*
X16625999D01*
X16375999D02*
Y10219000D01*
X16625999D01*
X17050000Y3677000D02*
Y4057000D01*
X16800000Y3677000D02*
X17050000D01*
X16800000D02*
Y4057000D01*
X17050000D01*
X17328000Y3679000D02*
Y4059000D01*
X17078000Y3679000D02*
X17328000D01*
X17078000D02*
Y4059000D01*
X17328000D01*
X13180000Y3685000D02*
Y3935000D01*
Y3685000D02*
X13560001D01*
Y3935000D01*
X13180000D02*
X13560001D01*
X13180000Y3405000D02*
Y3655000D01*
Y3405000D02*
X13560001D01*
Y3655000D01*
X13180000D02*
X13560001D01*
X10501214Y3396212D02*
Y3646212D01*
Y3396212D02*
X10881214D01*
Y3646212D01*
X10501214D02*
X10881214D01*
X10501214Y3676212D02*
Y3926212D01*
Y3676212D02*
X10881214D01*
Y3926212D01*
X10501214D02*
X10881214D01*
X4957000Y5094000D02*
Y9864000D01*
X2847000Y5094000D02*
X4957000D01*
X2847000D02*
Y9864000D01*
X4957000D01*
X17080000Y4720000D02*
X17330000D01*
X17080000Y4340000D02*
Y4720000D01*
Y4340000D02*
X17330000D01*
Y4720000D01*
X16800000Y4717000D02*
X17050000D01*
X16800000Y4337000D02*
Y4717000D01*
Y4337000D02*
X17050000D01*
Y4717000D01*
X7970000Y3010000D02*
Y3070000D01*
X7850000Y3010000D02*
X7970000D01*
X7850000D02*
Y3070000D01*
X7970000D01*
X9897000Y11548000D02*
Y11928000D01*
X9647000Y11548000D02*
X9897000D01*
X9647000D02*
Y11928000D01*
X9897000D01*
X16625000Y10510001D02*
Y10890000D01*
X16375000Y10510001D02*
X16625000D01*
X16375000D02*
Y10890000D01*
X16625000D01*
D122*
X11365500Y3121001D02*
Y4139001D01*
Y3121001D02*
X12273500D01*
Y4139001D01*
X11365500D02*
X12273500D01*
X8686714Y4130213D02*
X9594714D01*
Y3112213D02*
Y4130213D01*
X8686714Y3112213D02*
X9594714D01*
X8686714D02*
Y4130213D01*
X5748021Y5684003D02*
Y6174003D01*
Y6884002D02*
Y7374003D01*
X5625521Y6884002D02*
X5870521D01*
X5625521Y6174003D02*
Y6884002D01*
Y6174003D02*
X5870521D01*
Y6884002D01*
X7548021Y5614002D02*
X8038021D01*
X6348021D02*
X6838021D01*
Y5491502D02*
Y5736502D01*
Y5491502D02*
X7548021D01*
Y5736502D01*
X6838021D02*
X7548021D01*
X6645997Y7660000D02*
X7135997D01*
X5445997D02*
X5935998D01*
Y7537501D02*
Y7782500D01*
Y7537501D02*
X6645997D01*
Y7782500D01*
X5935998D02*
X6645997D01*
X5445998Y7960000D02*
X5935998D01*
X6645998D02*
X7135998D01*
X6645998Y7837500D02*
Y8082500D01*
X5935998D02*
X6645998D01*
X5935998Y7837500D02*
Y8082500D01*
Y7837500D02*
X6645998D01*
X5445998Y8230001D02*
X5935998D01*
X6645998D02*
X7135998D01*
X6645998Y8107501D02*
Y8352500D01*
X5935998D02*
X6645998D01*
X5935998Y8107501D02*
Y8352500D01*
Y8107501D02*
X6645998D01*
X5478021Y5684003D02*
Y6174003D01*
Y6884002D02*
Y7374003D01*
X5355521Y6884002D02*
X5600521D01*
X5355521Y6174003D02*
Y6884002D01*
Y6174003D02*
X5600521D01*
Y6884002D01*
X8358021Y6604002D02*
Y7094002D01*
Y5404002D02*
Y5894002D01*
X8235521D02*
X8480521D01*
Y6604002D01*
X8235521D02*
X8480521D01*
X8235521Y5894002D02*
Y6604002D01*
X6348021Y6174002D02*
X6838021D01*
X7548021D02*
X8038021D01*
X7548021Y6051503D02*
Y6296502D01*
X6838021D02*
X7548021D01*
X6838021Y6051503D02*
Y6296502D01*
Y6051503D02*
X7548021D01*
Y5344002D02*
X8038021D01*
X6348021D02*
X6838021D01*
Y5221502D02*
Y5466502D01*
Y5221502D02*
X7548021D01*
Y5466502D01*
X6838021D02*
X7548021D01*
Y5884002D02*
X8038021D01*
X6348021D02*
X6838021D01*
Y5761503D02*
Y6006502D01*
Y5761503D02*
X7548021D01*
Y6006502D01*
X6838021D02*
X7548021D01*
X9913021Y9024002D02*
X10113021D01*
X9913021Y8884002D02*
Y9024002D01*
Y8884002D02*
X10113021D01*
Y9024002D01*
X10424002Y6576979D02*
Y6776979D01*
Y6576979D02*
X10564002D01*
Y6776979D01*
X10424002D02*
X10564002D01*
X10424002Y6101979D02*
Y6301979D01*
Y6101979D02*
X10564002D01*
Y6301979D01*
X10424002D02*
X10564002D01*
X9383021Y9024002D02*
X9583021D01*
X9383021Y8884002D02*
Y9024002D01*
Y8884002D02*
X9583021D01*
Y9024002D01*
X12680000Y6342500D02*
X13389999D01*
Y6097500D02*
Y6342500D01*
X12680000Y6097500D02*
X13389999D01*
X12680000D02*
Y6342500D01*
X12190000Y6220000D02*
X12680000D01*
X13389999D02*
X13880000D01*
X12680000Y6072500D02*
X13389999D01*
Y5827500D02*
Y6072500D01*
X12680000Y5827500D02*
X13389999D01*
X12680000D02*
Y6072500D01*
X12190000Y5950000D02*
X12680000D01*
X13389999D02*
X13880000D01*
X11501200Y2924900D02*
X11658800D01*
Y3255100D01*
X11501200D02*
X11658800D01*
X11501200Y2924900D02*
Y3255100D01*
X12875000Y4437501D02*
Y4687501D01*
X12425000D02*
X12875000D01*
X12425000Y4437501D02*
Y4687501D01*
Y4437501D02*
X12875000D01*
X12425000Y5137501D02*
X12875000D01*
X12425000D02*
Y5387501D01*
X12875000D01*
Y5137501D02*
Y5387501D01*
X12266000Y4176000D02*
Y4404000D01*
X12114000Y4176000D02*
Y4404000D01*
X12266000D01*
X12114000Y4176000D02*
X12266000D01*
X12875000Y3037501D02*
Y3287501D01*
X12425000D02*
X12875000D01*
X12425000Y3037501D02*
Y3287501D01*
Y3037501D02*
X12875000D01*
X12020000Y2910000D02*
X12360000D01*
X12020000Y3090000D02*
X12360000D01*
Y2910000D02*
Y3090000D01*
X12020000Y2910000D02*
Y3090000D01*
X12425000Y3722501D02*
X12875000D01*
X12425000D02*
Y3972501D01*
X12875000D01*
Y3722501D02*
Y3972501D01*
X8822414Y2916112D02*
X8980014D01*
Y3246312D01*
X8822414D02*
X8980014D01*
X8822414Y2916112D02*
Y3246312D01*
X9341214Y2901212D02*
X9681214D01*
X9341214Y3081212D02*
X9681214D01*
Y2901212D02*
Y3081212D01*
X9341214Y2901212D02*
Y3081212D01*
X9587214Y4167212D02*
Y4395212D01*
X9435214Y4167212D02*
Y4395212D01*
X9587214D01*
X9435214Y4167212D02*
X9587214D01*
X9746214Y5128713D02*
X10196214D01*
X9746214D02*
Y5378713D01*
X10196214D01*
Y5128713D02*
Y5378713D01*
Y3028713D02*
Y3278713D01*
X9746214D02*
X10196214D01*
X9746214Y3028713D02*
Y3278713D01*
Y3028713D02*
X10196214D01*
X9746214Y3713713D02*
X10196214D01*
X9746214D02*
Y3963713D01*
X10196214D01*
Y3713713D02*
Y3963713D01*
Y4428713D02*
Y4678713D01*
X9746214D02*
X10196214D01*
X9746214Y4428713D02*
Y4678713D01*
Y4428713D02*
X10196214D01*
X7792500Y3615000D02*
Y4065000D01*
X7542500Y3615000D02*
X7792500D01*
X7542500D02*
Y4065000D01*
X7792500D01*
X7552500Y4665000D02*
X7802500D01*
X7552500Y4215000D02*
Y4665000D01*
Y4215000D02*
X7802500D01*
Y4665000D01*
X11320000Y6290000D02*
Y6780000D01*
Y7490000D02*
Y7980000D01*
X11197500Y7490000D02*
X11442500D01*
X11197500Y6780000D02*
Y7490000D01*
Y6780000D02*
X11442500D01*
Y7490000D01*
X12190000Y6780000D02*
X12680000D01*
X13389999D02*
X13880000D01*
X13389999Y6657500D02*
Y6902500D01*
X12680000D02*
X13389999D01*
X12680000Y6657500D02*
Y6902500D01*
Y6657500D02*
X13389999D01*
X14200000Y7210000D02*
Y7700000D01*
Y6010000D02*
Y6500000D01*
X14077499D02*
X14322501D01*
Y7210000D01*
X14077499D02*
X14322501D01*
X14077499Y6500000D02*
Y7210000D01*
X11590000Y6290000D02*
Y6780000D01*
Y7490000D02*
Y7980000D01*
X11467500Y7490000D02*
X11712500D01*
X11467500Y6780000D02*
Y7490000D01*
Y6780000D02*
X11712500D01*
Y7490000D01*
X10770000Y8400000D02*
Y8890000D01*
Y7200000D02*
Y7690000D01*
X10647500D02*
X10892500D01*
Y8400000D01*
X10647500D02*
X10892500D01*
X10647500Y7690000D02*
Y8400000D01*
X11040000D02*
Y8890000D01*
Y7200000D02*
Y7690000D01*
X10917500D02*
X11162500D01*
Y8400000D01*
X10917500D02*
X11162500D01*
X10917500Y7690000D02*
Y8400000D01*
X10470000Y7200000D02*
Y7690000D01*
Y8400000D02*
Y8890000D01*
X10347500Y8400000D02*
X10592500D01*
X10347500Y7690000D02*
Y8400000D01*
Y7690000D02*
X10592500D01*
Y8400000D01*
X13389999Y6490000D02*
X13880000D01*
X12190000D02*
X12680000D01*
Y6367500D02*
Y6612500D01*
Y6367500D02*
X13389999D01*
Y6612500D01*
X12680000D02*
X13389999D01*
X13314999Y9780000D02*
X13514999D01*
X13314999Y9640000D02*
Y9780000D01*
Y9640000D02*
X13514999D01*
Y9780000D01*
X12785000D02*
X12985001D01*
X12785000Y9640000D02*
Y9780000D01*
Y9640000D02*
X12985001D01*
Y9780000D01*
X14810001Y9640000D02*
X15010001D01*
Y9780000D01*
X14810001D02*
X15010001D01*
X14810001Y9640000D02*
Y9780000D01*
X14335001Y9640000D02*
X14535001D01*
Y9780000D01*
X14335001D02*
X14535001D01*
X14335001Y9640000D02*
Y9780000D01*
X16885001Y4995000D02*
Y5605000D01*
X17314999D01*
Y4995000D02*
Y5605000D01*
X16885001Y4995000D02*
X17314999D01*
X16885001Y5799000D02*
Y6409000D01*
X17314999D01*
Y5799000D02*
Y6409000D01*
X16885001Y5799000D02*
X17314999D01*
X16576199Y5002600D02*
X16733800D01*
X16576199Y4672400D02*
Y5002600D01*
Y4672400D02*
X16733800D01*
Y5002600D01*
X14814999Y4805000D02*
Y5655000D01*
X13935001D02*
X14814999D01*
X13935001Y4805000D02*
Y5655000D01*
Y4805000D02*
X14814999D01*
X4967500Y4847500D02*
X5292500D01*
X4967500Y5012500D02*
X5292500D01*
Y4847500D02*
Y5012500D01*
X4967500Y4847500D02*
Y5012500D01*
X7410000Y3110000D02*
X7610000D01*
X7410000Y2970000D02*
Y3110000D01*
Y2970000D02*
X7610000D01*
Y3110000D01*
X7410000Y3170000D02*
X7610000D01*
Y3310000D01*
X7410000D02*
X7610000D01*
X7410000Y3170000D02*
Y3310000D01*
X6660000Y3095000D02*
X6760000D01*
Y3045000D02*
Y3095000D01*
X6660000Y3045000D02*
X6760000D01*
X6660000D02*
Y3095000D01*
X7162500Y3925000D02*
X7257500D01*
X7162500Y3755000D02*
X7257500D01*
Y3925000D01*
X7162500Y3755000D02*
Y3925000D01*
X7830000Y3200000D02*
X7990000D01*
Y3280000D01*
X7830000D02*
X7990000D01*
X7830000Y3200000D02*
Y3280000D01*
X6775000Y4310000D02*
Y4660000D01*
X6295000Y4310000D02*
X6775000D01*
X6295000D02*
Y4660000D01*
X6775000D01*
X15385001Y8899000D02*
X15814999D01*
Y9509000D01*
X15385001D02*
X15814999D01*
X15385001Y8899000D02*
Y9509000D01*
X12620000Y5620000D02*
Y5800000D01*
X12960001Y5620000D02*
Y5800000D01*
X12620000D02*
X12960001D01*
X12620000Y5620000D02*
X12960001D01*
X9950000Y5630000D02*
Y5810000D01*
X10290000Y5630000D02*
Y5810000D01*
X9950000D02*
X10290000D01*
X9950000Y5630000D02*
X10290000D01*
X10675000Y11360000D02*
Y12240000D01*
X11525000D01*
Y11360000D02*
Y12240000D01*
X10675000Y11360000D02*
X11525000D01*
X11301000Y10085000D02*
Y10515000D01*
X10691000D02*
X11301000D01*
X10691000Y10085000D02*
Y10515000D01*
Y10085000D02*
X11301000D01*
X10799000Y10685000D02*
Y11115000D01*
Y10685000D02*
X11409000D01*
Y11115000D01*
X10799000D02*
X11409000D01*
X15025000Y10060000D02*
Y10940000D01*
X14175000Y10060000D02*
X15025000D01*
X14175000D02*
Y10940000D01*
X15025000D01*
X15818500Y11281000D02*
Y11711000D01*
Y11281000D02*
X16428500D01*
Y11711000D01*
X15818500D02*
X16428500D01*
X16405002Y11884983D02*
Y12314983D01*
X15795003D02*
X16405002D01*
X15795003Y11884983D02*
Y12314983D01*
Y11884983D02*
X16405002D01*
X5700000Y8810000D02*
Y8950000D01*
X5900000D01*
Y8810000D02*
Y8950000D01*
X5700000Y8810000D02*
X5900000D01*
X8050000Y11110000D02*
X8190000D01*
X8050000D02*
Y11310000D01*
X8190000D01*
Y11110000D02*
Y11310000D01*
X7660000Y11398700D02*
X7860000D01*
X7660000Y11198700D02*
Y11398700D01*
Y11198700D02*
X7860000D01*
Y11398700D01*
D123*
X8719500Y10848500D02*
Y11051500D01*
Y10848500D02*
X9100500D01*
Y11051500D01*
X8719500D02*
X9100500D01*
X8719500Y10298500D02*
X9100500D01*
X8719500D02*
Y10501500D01*
X9100500D01*
Y10298500D02*
Y10501500D01*
X8719500Y10578500D02*
Y10781500D01*
Y10578500D02*
X9100500D01*
Y10781500D01*
X8719500D02*
X9100500D01*
X16829500Y6861500D02*
X17210500D01*
Y6658500D02*
Y6861500D01*
X16829500Y6658500D02*
X17210500D01*
X16829500D02*
Y6861500D01*
X13308501Y5259500D02*
X13511501D01*
Y5640500D01*
X13308501D02*
X13511501D01*
X13308501Y5259500D02*
Y5640500D01*
X4628500Y5709500D02*
Y6090500D01*
X4831500D01*
Y5709500D02*
Y6090500D01*
X4628500Y5709500D02*
X4831500D01*
X6038500Y4419500D02*
X6241500D01*
Y4800500D01*
X6038500D02*
X6241500D01*
X6038500Y4419500D02*
Y4800500D01*
X8669500Y11968500D02*
X9050500D01*
X8669500D02*
Y12171500D01*
X9050500D01*
Y11968500D02*
Y12171500D01*
X13380499Y9828500D02*
Y10031500D01*
X12999500D02*
X13380499D01*
X12999500Y9828500D02*
Y10031500D01*
Y9828500D02*
X13380499D01*
X11466700Y4309001D02*
Y5351000D01*
Y4309001D02*
X12432800D01*
Y5351000D01*
X11466700D02*
X12432800D01*
X8787914Y4300213D02*
Y5342213D01*
Y4300213D02*
X9754014D01*
Y5342213D01*
X8787914D02*
X9754014D01*
X2972000Y3600000D02*
X5908000D01*
X2972000D02*
Y5450000D01*
X5908000D01*
Y3600000D02*
Y5450000D01*
X7011021Y7144002D02*
Y7304003D01*
X7105021Y7144002D02*
Y7304003D01*
X7011021Y7144002D02*
X7105021D01*
X7011021Y7304003D02*
X7105021D01*
Y6534002D02*
Y6694003D01*
X7011021Y6534002D02*
Y6694003D01*
X7105021D01*
X7011021Y6534002D02*
X7105021D01*
X5988021Y7421002D02*
X6148021D01*
X5988021Y7327003D02*
X6148021D01*
X5988021D02*
Y7421002D01*
X6148021Y7327003D02*
Y7421002D01*
X12970000Y5477000D02*
X13130000D01*
X12970000Y5383000D02*
X13130000D01*
X12970000D02*
Y5477000D01*
X13130000Y5383000D02*
Y5477000D01*
X12970000Y4777000D02*
X13130000D01*
X12970000Y4683001D02*
X13130000D01*
X12970000D02*
Y4777000D01*
X13130000Y4683001D02*
Y4777000D01*
X12970000Y4077000D02*
X13130000D01*
X12970000Y3983001D02*
X13130000D01*
X12970000D02*
Y4077000D01*
X13130000Y3983001D02*
Y4077000D01*
X12992900Y3283001D02*
X13152901D01*
X12992900Y3377001D02*
X13152901D01*
Y3283001D02*
Y3377001D01*
X12992900Y3283001D02*
Y3377001D01*
X11830000Y8027000D02*
X11990000D01*
X11830000Y7933000D02*
X11990000D01*
X11830000D02*
Y8027000D01*
X11990000Y7933000D02*
Y8027000D01*
X12947000Y7140000D02*
Y7300000D01*
X12853000Y7140000D02*
Y7300000D01*
X12947000D01*
X12853000Y7140000D02*
X12947000D01*
X12853000Y7750000D02*
Y7910000D01*
X12947000Y7750000D02*
Y7910000D01*
X12853000Y7750000D02*
X12947000D01*
X12853000Y7910000D02*
X12947000D01*
X15245000Y5530000D02*
X17355000D01*
X15245000D02*
Y9470000D01*
X17355000D01*
Y5530000D02*
Y9470000D01*
X7130000Y4093000D02*
X7290000D01*
X7130000Y4187000D02*
X7290000D01*
Y4093000D02*
Y4187000D01*
X7130000Y4093000D02*
Y4187000D01*
X6790000Y4093000D02*
Y4187000D01*
X6630000Y4093000D02*
Y4187000D01*
Y4093000D02*
X6790000D01*
X6630000Y4187000D02*
X6790000D01*
X7030000Y3193000D02*
Y3287000D01*
X7190000Y3193000D02*
Y3287000D01*
X7030000D02*
X7190000D01*
X7030000Y3193000D02*
X7190000D01*
X7030000Y2993000D02*
Y3087000D01*
X7190000Y2993000D02*
Y3087000D01*
X7030000D02*
X7190000D01*
X7030000Y2993000D02*
X7190000D01*
X7263000Y4460000D02*
X7357000D01*
X7263000Y4620000D02*
X7357000D01*
X7263000Y4460000D02*
Y4620000D01*
X7357000Y4460000D02*
Y4620000D01*
X10314114Y3274213D02*
Y3368213D01*
X10474114Y3274213D02*
Y3368213D01*
X10314114D02*
X10474114D01*
X10314114Y3274213D02*
X10474114D01*
X10451214Y3974213D02*
Y4068213D01*
X10291214Y3974213D02*
Y4068213D01*
Y3974213D02*
X10451214D01*
X10291214Y4068213D02*
X10451214D01*
Y4674213D02*
Y4768213D01*
X10291214Y4674213D02*
Y4768213D01*
Y4674213D02*
X10451214D01*
X10291214Y4768213D02*
X10451214D01*
Y5374213D02*
Y5468213D01*
X10291214Y5374213D02*
Y5468213D01*
Y5374213D02*
X10451214D01*
X10291214Y5468213D02*
X10451214D01*
X13647000Y10310000D02*
Y10470000D01*
X13553000Y10310000D02*
Y10470000D01*
X13647000D01*
X13553000Y10310000D02*
X13647000D01*
X13074979Y11815998D02*
Y11975998D01*
X13168979Y11815998D02*
Y11975998D01*
X13074979Y11815998D02*
X13168979D01*
X13074979Y11975998D02*
X13168979D01*
X5050000Y9250001D02*
Y9550000D01*
Y9250001D02*
X5350000D01*
Y9550000D01*
X5050000D02*
X5350000D01*
X5750000Y9250001D02*
Y9550000D01*
X5450000D02*
X5750000D01*
X5450000Y9250001D02*
Y9550000D01*
Y9250001D02*
X5750000D01*
X7830000Y11533000D02*
Y11627000D01*
X7990000Y11533000D02*
Y11627000D01*
X7830000D02*
X7990000D01*
X7830000Y11533000D02*
X7990000D01*
X6140000Y8982000D02*
X6360000D01*
X6140000Y8838000D02*
X6360000D01*
X6140000D02*
Y8982000D01*
X6360000Y8838000D02*
Y8982000D01*
X7820000Y10053000D02*
Y10147000D01*
X7980000Y10053000D02*
Y10147000D01*
X7820000D02*
X7980000D01*
X7820000Y10053000D02*
X7980000D01*
X7152500Y9266001D02*
Y9566000D01*
X6852500D02*
X7152500D01*
X6852500Y9266001D02*
Y9566000D01*
Y9266001D02*
X7152500D01*
X3720000Y4535000D02*
X4160000D01*
X4420000Y4540000D02*
X4760000D01*
X4420000Y4720000D02*
X4760000D01*
Y4540000D02*
Y4720000D01*
X4420000Y4540000D02*
Y4720000D01*
D188*
X16181329Y5200000D02*
G03*
X16181329Y5200000I-7620J0D01*
G01*
X15752119Y3936000D02*
G03*
X15752119Y3936000I-7620J0D01*
G01*
X15781329Y6500000D02*
G03*
X15781329Y6500000I-7620J0D01*
G01*
X15407620Y7526290D02*
G03*
X15407620Y7526290I-7620J0D01*
G01*
X12207620Y11226290D02*
G03*
X12207620Y11226290I-7620J0D01*
G01*
X11633910Y10400000D02*
G03*
X11633910Y10400000I-7620J0D01*
G01*
X15707620Y9926290D02*
G03*
X15707620Y9926290I-7620J0D01*
G01*
X15460960Y11700000D02*
G03*
X15460960Y11700000I-7620J0D01*
G01*
D189*
X16224510Y4675490D02*
Y5724510D01*
X15175490Y4675490D02*
X16224510D01*
X15175490D02*
Y5724510D01*
X16224510D01*
X15962254D02*
X16224510Y5462255D01*
X15962254Y4675490D02*
X16224510Y4937745D01*
X4080290Y10390490D02*
X4519710D01*
X4080290D02*
Y11439510D01*
X4519710D01*
Y10390490D02*
Y11439510D01*
X4300000D02*
Y11700000D01*
Y10130000D02*
Y10390490D01*
X8910490Y5880290D02*
Y6319710D01*
X9959510D01*
Y5880290D02*
Y6319710D01*
X8910490Y5880290D02*
X9959510D01*
Y6100000D02*
X10220000D01*
X8650000D02*
X8910490D01*
X9957531Y7374292D02*
Y7813712D01*
X8908511Y7374292D02*
X9957531D01*
X8908511D02*
Y7813712D01*
X9957531D01*
X8648021Y7594002D02*
X8908511D01*
X9957531D02*
X10218021D01*
X9957531Y7864292D02*
Y8303712D01*
X8908511Y7864292D02*
X9957531D01*
X8908511D02*
Y8303712D01*
X9957531D01*
X8648021Y8084002D02*
X8908511D01*
X9957531D02*
X10218021D01*
X8908511Y6384292D02*
Y6823712D01*
X9957531D01*
Y6384292D02*
Y6823712D01*
X8908511Y6384292D02*
X9957531D01*
Y6604002D02*
X10218021D01*
X8648021D02*
X8908511D01*
Y6874292D02*
Y7313712D01*
X9957531D01*
Y6874292D02*
Y7313712D01*
X8908511Y6874292D02*
X9957531D01*
Y7094002D02*
X10218021D01*
X8648021D02*
X8908511D01*
X8908511Y8354292D02*
Y8793712D01*
X9957531D01*
Y8354292D02*
Y8793712D01*
X8908511Y8354292D02*
X9957531D01*
Y8574002D02*
X10218021D01*
X8648021D02*
X8908511D01*
X11299990Y4188400D02*
X11460010D01*
X11299990Y4137600D02*
Y4188400D01*
Y4137600D02*
X11460010D01*
Y4188400D01*
X11299990Y4391600D02*
X11460010D01*
Y4442400D01*
X11299990D02*
X11460010D01*
X11299990Y4391600D02*
Y4442400D01*
X11460010Y4137600D02*
Y4442400D01*
X11299990D02*
X11460010D01*
X11299990Y4137600D02*
Y4442400D01*
Y4137600D02*
X11460010D01*
X14573759Y4389240D02*
X15874240D01*
X14573759Y3088760D02*
X15874240D01*
X12629510Y8630290D02*
Y9069710D01*
X11580490Y8630290D02*
X12629510D01*
X11580490D02*
Y9069710D01*
X12629510D01*
X11320000Y8850000D02*
X11580490D01*
X12629510D02*
X12889999D01*
X13600490Y8640290D02*
Y9079710D01*
X14649510D01*
Y8640290D02*
Y9079710D01*
X13600490Y8640290D02*
X14649510D01*
Y8860000D02*
X14910001D01*
X13339999D02*
X13600490D01*
X11580490Y9120290D02*
Y9559710D01*
X12629510D01*
Y9120290D02*
Y9559710D01*
X11580490Y9120290D02*
X12629510D01*
Y9340000D02*
X12889999D01*
X11320000D02*
X11580490D01*
X13600490Y9130290D02*
Y9569710D01*
X14649510D01*
Y9130290D02*
Y9569710D01*
X13600490Y9130290D02*
X14649510D01*
Y9350000D02*
X14910001D01*
X13339999D02*
X13600490D01*
X12629510Y8140290D02*
Y8579710D01*
X11580490Y8140290D02*
X12629510D01*
X11580490D02*
Y8579710D01*
X12629510D01*
X11320000Y8360000D02*
X11580490D01*
X12629510D02*
X12889999D01*
X13410490Y8150290D02*
Y8589710D01*
X14459509D01*
Y8150290D02*
Y8589710D01*
X13410490Y8150290D02*
X14459509D01*
Y8370000D02*
X14720000D01*
X13150000D02*
X13410490D01*
X15824510Y5975490D02*
Y7024510D01*
X14775490Y5975490D02*
X15824510D01*
X14775490D02*
Y7024510D01*
X15824510D01*
X15562254D02*
X15824510Y6762255D01*
X15562254Y5975490D02*
X15824510Y6237745D01*
X14875490Y7475490D02*
X15924510D01*
X14875490D02*
Y8524510D01*
X15924510D01*
Y7475490D02*
Y8524510D01*
X15662254Y7475490D02*
X15924510Y7737745D01*
X14875490D02*
X15137746Y7475490D01*
X11675490Y11175490D02*
X12724510D01*
X11675490D02*
Y12224510D01*
X12724510D01*
Y11175490D02*
Y12224510D01*
X12462255Y11175490D02*
X12724510Y11437745D01*
X11675490D02*
X11937745Y11175490D01*
X11575490Y10662255D02*
X11837745Y10924510D01*
X11575490Y10137745D02*
X11837745Y9875490D01*
X11575490D02*
X12624510D01*
Y10924510D01*
X11575490D02*
X12624510D01*
X11575490Y9875490D02*
Y10924510D01*
X15175490Y10137745D02*
X15437746Y9875490D01*
X15962254D02*
X16224510Y10137745D01*
Y9875490D02*
Y10924510D01*
X15175490D02*
X16224510D01*
X15175490Y9875490D02*
Y10924510D01*
Y9875490D02*
X16224510D01*
X15504140Y11175490D02*
Y12224510D01*
X14455119Y11175490D02*
X15504140D01*
X14455119D02*
Y12224510D01*
X15504140D01*
X15241885D02*
X15504140Y11962255D01*
X15241885Y11175490D02*
X15504140Y11437745D01*
X4492350Y4822370D02*
Y4997630D01*
X4428850D02*
X4492350D01*
X4428850Y4822370D02*
Y4997630D01*
Y4822370D02*
X4492350D01*
X4698090D02*
Y4997630D01*
Y4822370D02*
X4761590D01*
Y4997630D01*
X4698090D02*
X4761590D01*
X4428850Y4822370D02*
X4761590D01*
Y4997630D01*
X4428850D02*
X4761590D01*
X4428850Y4822370D02*
Y4997630D01*
%TF.MD5,c4f2d8abd5aa12b5177d64e81236683e*%
M02*
