%TF.GenerationSoftware,Altium Limited,Altium Designer,24.2.2 (26)*%
G04 Layer_Physical_Order=2*
G04 Layer_Color=32768*
%FSLAX45Y45*%
%MOMM*%
%TF.SameCoordinates,2C43E8B5-FC8E-40A2-A425-C8743FE8A27F*%
%TF.FilePolarity,Negative*%
%TF.FileFunction,Copper,L2,Inr,Plane*%
%TF.Part,Single*%
G01*
G75*
%TA.AperFunction,NonConductor*%
%ADD83C,0.25400*%
%TA.AperFunction,ComponentPad*%
%ADD95C,4.16600*%
%TA.AperFunction,NonConductor*%
%ADD100C,1.01600*%
%ADD101C,0.50000*%
%ADD102R,11.50000X11.10000*%
%ADD103R,16.60000X11.10000*%
%ADD104R,18.40000X12.70000*%
%ADD105R,36.20000X24.30000*%
%TA.AperFunction,ComponentPad*%
%ADD106C,1.93040*%
%ADD107C,1.81600*%
%ADD108C,2.01600*%
%TA.AperFunction,ViaPad*%
%ADD109C,4.01600*%
%ADD110C,1.31600*%
G36*
X6088988Y12304133D02*
X6096133Y12296988D01*
X6100000Y12287652D01*
Y12282600D01*
Y12233400D01*
Y12228347D01*
X6096133Y12219012D01*
X6088988Y12211867D01*
X6079652Y12208000D01*
X5170348D01*
X5161012Y12211867D01*
X5153867Y12219012D01*
X5150000Y12228347D01*
Y12233400D01*
Y12282600D01*
Y12287652D01*
X5153867Y12296988D01*
X5161012Y12304133D01*
X5170348Y12308000D01*
X6079652D01*
X6088988Y12304133D01*
D02*
G37*
G36*
X7188988Y12303133D02*
X7196133Y12295988D01*
X7200000Y12286652D01*
Y12281600D01*
Y12232400D01*
Y12227347D01*
X7196133Y12218012D01*
X7188988Y12210867D01*
X7179652Y12207000D01*
X6270348D01*
X6261012Y12210867D01*
X6253867Y12218012D01*
X6250000Y12227347D01*
Y12232400D01*
Y12281600D01*
Y12286652D01*
X6253867Y12295988D01*
X6261012Y12303133D01*
X6270348Y12307000D01*
X7179652D01*
X7188988Y12303133D01*
D02*
G37*
G36*
X5088988Y12146133D02*
X5096133Y12138988D01*
X5100000Y12129652D01*
Y12124600D01*
Y11225400D01*
Y11220348D01*
X5096133Y11211012D01*
X5088988Y11203867D01*
X5079652Y11200000D01*
X5020347D01*
X5011012Y11203867D01*
X5003867Y11211012D01*
X5000000Y11220348D01*
Y11225400D01*
Y12124600D01*
Y12129652D01*
X5003867Y12138988D01*
X5011012Y12146133D01*
X5020347Y12150000D01*
X5079652D01*
X5088988Y12146133D01*
D02*
G37*
G36*
X7338988Y12146133D02*
X7346133Y12138988D01*
X7350000Y12129652D01*
Y12124600D01*
Y11225400D01*
Y11220347D01*
X7346133Y11211012D01*
X7338988Y11203867D01*
X7329652Y11200000D01*
X7270347D01*
X7261012Y11203867D01*
X7253867Y11211012D01*
X7250000Y11220347D01*
Y11225400D01*
Y12124600D01*
Y12129652D01*
X7253867Y12138988D01*
X7261012Y12146133D01*
X7270347Y12150000D01*
X7329652D01*
X7338988Y12146133D01*
D02*
G37*
G36*
X8378988Y12265702D02*
X8386133Y12258557D01*
X8390000Y12249222D01*
Y12244169D01*
Y10895830D01*
Y10890778D01*
X8386133Y10881442D01*
X8378988Y10874297D01*
X8369652Y10870430D01*
X8321348D01*
X8312012Y10874297D01*
X8304867Y10881442D01*
X8301000Y10890778D01*
Y10895830D01*
Y12244169D01*
Y12249222D01*
X8304867Y12258557D01*
X8312012Y12265702D01*
X8321348Y12269569D01*
X8369652D01*
X8378988Y12265702D01*
D02*
G37*
G36*
X3160000Y10610000D02*
X2890000D01*
Y11310000D01*
X3160000D01*
Y10610000D01*
D02*
G37*
G36*
Y10240000D02*
X2890000D01*
Y10420000D01*
X3160000D01*
Y10240000D01*
D02*
G37*
G36*
X5088988Y11046133D02*
X5096133Y11038988D01*
X5100000Y11029653D01*
Y11024600D01*
Y10125400D01*
Y10120348D01*
X5096133Y10111012D01*
X5088988Y10103867D01*
X5079652Y10100000D01*
X5020347D01*
X5011012Y10103867D01*
X5003867Y10111012D01*
X5000000Y10120348D01*
Y10125400D01*
Y11024600D01*
Y11029653D01*
X5003867Y11038988D01*
X5011012Y11046133D01*
X5020347Y11050000D01*
X5079652D01*
X5088988Y11046133D01*
D02*
G37*
G36*
X7338988Y11046133D02*
X7346133Y11038988D01*
X7350000Y11029652D01*
Y11024600D01*
Y10125400D01*
Y10120348D01*
X7346133Y10111012D01*
X7338988Y10103867D01*
X7329652Y10100000D01*
X7270347D01*
X7261012Y10103867D01*
X7253867Y10111012D01*
X7250000Y10120348D01*
Y10125400D01*
Y11024600D01*
Y11029652D01*
X7253867Y11038988D01*
X7261012Y11046133D01*
X7270347Y11050000D01*
X7329652D01*
X7338988Y11046133D01*
D02*
G37*
G36*
X7188988Y10096133D02*
X7196133Y10088988D01*
X7200000Y10079652D01*
Y10074600D01*
Y10025400D01*
Y10020347D01*
X7196133Y10011012D01*
X7188988Y10003867D01*
X7179652Y10000000D01*
X6270347D01*
X6261012Y10003867D01*
X6253867Y10011012D01*
X6250000Y10020347D01*
Y10025400D01*
Y10074600D01*
Y10079652D01*
X6253867Y10088988D01*
X6261012Y10096133D01*
X6270347Y10100000D01*
X7179652D01*
X7188988Y10096133D01*
D02*
G37*
G36*
X6088988D02*
X6096133Y10088988D01*
X6100000Y10079652D01*
Y10074600D01*
Y10025400D01*
Y10020347D01*
X6096133Y10011012D01*
X6088988Y10003867D01*
X6079652Y10000000D01*
X5170348D01*
X5161012Y10003867D01*
X5153867Y10011012D01*
X5150000Y10020347D01*
Y10025400D01*
Y10074600D01*
Y10079652D01*
X5153867Y10088988D01*
X5161012Y10096133D01*
X5170348Y10100000D01*
X6079652D01*
X6088988Y10096133D01*
D02*
G37*
G36*
X3943588Y12230733D02*
X3950733Y12223588D01*
X3954600Y12214252D01*
Y12209200D01*
Y9640000D01*
Y9634947D01*
X3950733Y9625612D01*
X3943588Y9618467D01*
X3934252Y9614600D01*
X3894948D01*
X3885612Y9618467D01*
X3878467Y9625612D01*
X3874600Y9634947D01*
Y9640000D01*
Y12209200D01*
Y12214252D01*
X3878467Y12223588D01*
X3885612Y12230733D01*
X3894948Y12234600D01*
X3934252D01*
X3943588Y12230733D01*
D02*
G37*
G36*
X8377987Y10395702D02*
X8385132Y10388557D01*
X8388999Y10379222D01*
Y10374169D01*
Y9025831D01*
Y9020778D01*
X8385132Y9011442D01*
X8377987Y9004297D01*
X8368652Y9000431D01*
X8320347D01*
X8311012Y9004297D01*
X8303867Y9011442D01*
X8300000Y9020778D01*
Y9025831D01*
Y10374169D01*
Y10379222D01*
X8303867Y10388557D01*
X8311012Y10395702D01*
X8320347Y10399569D01*
X8368652D01*
X8377987Y10395702D01*
D02*
G37*
G36*
X8329988Y8646133D02*
X8337133Y8638988D01*
X8341000Y8629652D01*
Y8624600D01*
Y8586400D01*
Y8581347D01*
X8337133Y8572012D01*
X8329988Y8564867D01*
X8320652Y8561000D01*
X5093747D01*
X5084412Y8564867D01*
X5077267Y8572012D01*
X5073400Y8581347D01*
Y8586400D01*
Y8624600D01*
Y8629652D01*
X5077267Y8638988D01*
X5084412Y8646133D01*
X5093747Y8650000D01*
X8320652D01*
X8329988Y8646133D01*
D02*
G37*
G36*
X4610587Y5181965D02*
X4627465Y5165087D01*
X4636600Y5143034D01*
Y5131099D01*
Y4121100D01*
Y4113220D01*
X4633525Y4097764D01*
X4627495Y4083205D01*
X4618740Y4070103D01*
X4607597Y4058959D01*
X4594494Y4050204D01*
X4579935Y4044174D01*
X4564479Y4041100D01*
X4059705D01*
X4046181Y4043789D01*
X4033442Y4049066D01*
X4021977Y4056727D01*
X4012227Y4066477D01*
X4004567Y4077942D01*
X3999290Y4090681D01*
X3996600Y4104205D01*
Y4111099D01*
Y4551100D01*
Y4563034D01*
X4005734Y4585087D01*
X4022612Y4601965D01*
X4044665Y4611099D01*
X4066600D01*
X4076401Y4611581D01*
X4095628Y4615405D01*
X4113739Y4622907D01*
X4130039Y4633798D01*
X4143901Y4647660D01*
X4154792Y4663960D01*
X4162294Y4682071D01*
X4166118Y4701298D01*
X4166600Y4711100D01*
Y5081100D01*
Y5091933D01*
X4170827Y5113185D01*
X4179119Y5133204D01*
X4191157Y5151220D01*
X4206479Y5166542D01*
X4224495Y5178580D01*
X4244514Y5186872D01*
X4265766Y5191100D01*
X4588534D01*
X4610587Y5181965D01*
D02*
G37*
D83*
X3114600Y10556967D02*
Y10455400D01*
X3013033Y10556967D01*
X2987641D01*
X2962249Y10531575D01*
Y10480792D01*
X2987641Y10455400D01*
D95*
X3902000Y9145000D02*
D03*
Y5813000D02*
D03*
D100*
X7179652Y12307000D02*
X7188988Y12303133D01*
X7196133Y12295988D01*
X7200000Y12286652D01*
Y12281600D02*
Y12286652D01*
Y12232400D02*
Y12281600D01*
Y12227347D02*
Y12232400D01*
X7196133Y12218012D02*
X7200000Y12227347D01*
X7188988Y12210867D02*
X7196133Y12218012D01*
X7179652Y12207000D02*
X7188988Y12210867D01*
X6270348Y12207000D02*
X7179652D01*
X6261012Y12210867D02*
X6270348Y12207000D01*
X6253867Y12218012D02*
X6261012Y12210867D01*
X6250000Y12227347D02*
X6253867Y12218012D01*
X6250000Y12227347D02*
Y12232400D01*
Y12281600D01*
Y12286652D01*
X6253867Y12295988D01*
X6261012Y12303133D01*
X6270348Y12307000D01*
X7179652D01*
X6079652Y12308000D02*
X6088988Y12304133D01*
X6096133Y12296988D01*
X6100000Y12287652D01*
Y12282600D02*
Y12287652D01*
Y12233400D02*
Y12282600D01*
Y12228347D02*
Y12233400D01*
X6096133Y12219012D02*
X6100000Y12228347D01*
X6088988Y12211867D02*
X6096133Y12219012D01*
X6079652Y12208000D02*
X6088988Y12211867D01*
X5170348Y12208000D02*
X6079652D01*
X5161012Y12211867D02*
X5170348Y12208000D01*
X5153867Y12219012D02*
X5161012Y12211867D01*
X5150000Y12228347D02*
X5153867Y12219012D01*
X5150000Y12228347D02*
Y12233400D01*
Y12282600D01*
Y12287652D01*
X5153867Y12296988D01*
X5161012Y12304133D01*
X5170348Y12308000D01*
X6079652D01*
X8369652Y12269569D02*
X8378988Y12265702D01*
X8386133Y12258557D01*
X8390000Y12249222D01*
Y12244169D02*
Y12249222D01*
Y10895830D02*
Y12244169D01*
Y10890778D02*
Y10895830D01*
X8386133Y10881442D02*
X8390000Y10890778D01*
X8378988Y10874297D02*
X8386133Y10881442D01*
X8369652Y10870430D02*
X8378988Y10874297D01*
X8321348Y10870430D02*
X8369652D01*
X8312012Y10874297D02*
X8321348Y10870430D01*
X8304867Y10881442D02*
X8312012Y10874297D01*
X8301000Y10890778D02*
X8304867Y10881442D01*
X8301000Y10890778D02*
Y10895830D01*
Y12244169D01*
Y12249222D01*
X8304867Y12258557D01*
X8312012Y12265702D01*
X8321348Y12269569D01*
X8369652D01*
X8368652Y10399569D02*
X8377987Y10395702D01*
X8385132Y10388557D01*
X8388999Y10379222D01*
Y10374169D02*
Y10379222D01*
Y9025831D02*
Y10374169D01*
Y9020778D02*
Y9025831D01*
X8385132Y9011442D02*
X8388999Y9020778D01*
X8377987Y9004297D02*
X8385132Y9011442D01*
X8368652Y9000431D02*
X8377987Y9004297D01*
X8320347Y9000431D02*
X8368652D01*
X8311012Y9004297D02*
X8320347Y9000431D01*
X8303867Y9011442D02*
X8311012Y9004297D01*
X8300000Y9020778D02*
X8303867Y9011442D01*
X8300000Y9020778D02*
Y9025831D01*
Y10374169D01*
Y10379222D01*
X8303867Y10388557D01*
X8311012Y10395702D01*
X8320347Y10399569D01*
X8368652D01*
X3934252Y12234600D02*
X3943588Y12230733D01*
X3950733Y12223588D01*
X3954600Y12214252D01*
Y12209200D02*
Y12214252D01*
Y9640000D02*
Y12209200D01*
Y9634947D02*
Y9640000D01*
X3950733Y9625612D02*
X3954600Y9634947D01*
X3943588Y9618467D02*
X3950733Y9625612D01*
X3934252Y9614600D02*
X3943588Y9618467D01*
X3894948Y9614600D02*
X3934252D01*
X3885612Y9618467D02*
X3894948Y9614600D01*
X3878467Y9625612D02*
X3885612Y9618467D01*
X3874600Y9634947D02*
X3878467Y9625612D01*
X3874600Y9634947D02*
Y9640000D01*
Y12209200D01*
Y12214252D01*
X3878467Y12223588D01*
X3885612Y12230733D01*
X3894948Y12234600D01*
X3934252D01*
X7179652Y10100000D02*
X7188988Y10096133D01*
X7196133Y10088988D01*
X7200000Y10079652D01*
Y10074600D02*
Y10079652D01*
Y10025400D02*
Y10074600D01*
Y10020347D02*
Y10025400D01*
X7196133Y10011012D02*
X7200000Y10020347D01*
X7188988Y10003867D02*
X7196133Y10011012D01*
X7179652Y10000000D02*
X7188988Y10003867D01*
X6270347Y10000000D02*
X7179652D01*
X6261012Y10003867D02*
X6270347Y10000000D01*
X6253867Y10011012D02*
X6261012Y10003867D01*
X6250000Y10020347D02*
X6253867Y10011012D01*
X6250000Y10020347D02*
Y10025400D01*
Y10074600D01*
Y10079652D01*
X6253867Y10088988D01*
X6261012Y10096133D01*
X6270347Y10100000D01*
X7179652D01*
X6079652D02*
X6088988Y10096133D01*
X6096133Y10088988D01*
X6100000Y10079652D01*
Y10074600D02*
Y10079652D01*
Y10025400D02*
Y10074600D01*
Y10020347D02*
Y10025400D01*
X6096133Y10011012D02*
X6100000Y10020347D01*
X6088988Y10003867D02*
X6096133Y10011012D01*
X6079652Y10000000D02*
X6088988Y10003867D01*
X5170348Y10000000D02*
X6079652D01*
X5161012Y10003867D02*
X5170348Y10000000D01*
X5153867Y10011012D02*
X5161012Y10003867D01*
X5150000Y10020347D02*
X5153867Y10011012D01*
X5150000Y10020347D02*
Y10025400D01*
Y10074600D01*
Y10079652D01*
X5153867Y10088988D01*
X5161012Y10096133D01*
X5170348Y10100000D01*
X6079652D01*
X7329652Y11050000D02*
X7338988Y11046133D01*
X7346133Y11038988D01*
X7350000Y11029652D01*
Y11024600D02*
Y11029652D01*
Y10125400D02*
Y11024600D01*
Y10120348D02*
Y10125400D01*
X7346133Y10111012D02*
X7350000Y10120348D01*
X7338988Y10103867D02*
X7346133Y10111012D01*
X7329652Y10100000D02*
X7338988Y10103867D01*
X7270347Y10100000D02*
X7329652D01*
X7261012Y10103867D02*
X7270347Y10100000D01*
X7253867Y10111012D02*
X7261012Y10103867D01*
X7250000Y10120348D02*
X7253867Y10111012D01*
X7250000Y10120348D02*
Y10125400D01*
Y11024600D01*
Y11029652D01*
X7253867Y11038988D01*
X7261012Y11046133D01*
X7270347Y11050000D01*
X7329652D01*
Y12150000D02*
X7338988Y12146133D01*
X7346133Y12138988D01*
X7350000Y12129652D01*
Y12124600D02*
Y12129652D01*
Y11225400D02*
Y12124600D01*
Y11220347D02*
Y11225400D01*
X7346133Y11211012D02*
X7350000Y11220347D01*
X7338988Y11203867D02*
X7346133Y11211012D01*
X7329652Y11200000D02*
X7338988Y11203867D01*
X7270347Y11200000D02*
X7329652D01*
X7261012Y11203867D02*
X7270347Y11200000D01*
X7253867Y11211012D02*
X7261012Y11203867D01*
X7250000Y11220347D02*
X7253867Y11211012D01*
X7250000Y11220347D02*
Y11225400D01*
Y12124600D01*
Y12129652D01*
X7253867Y12138988D01*
X7261012Y12146133D01*
X7270347Y12150000D01*
X7329652D01*
X5079652Y12150000D02*
X5088988Y12146133D01*
X5096133Y12138988D01*
X5100000Y12129652D01*
Y12124600D02*
Y12129652D01*
Y11225400D02*
Y12124600D01*
Y11220348D02*
Y11225400D01*
X5096133Y11211012D02*
X5100000Y11220348D01*
X5088988Y11203867D02*
X5096133Y11211012D01*
X5079652Y11200000D02*
X5088988Y11203867D01*
X5020347Y11200000D02*
X5079652D01*
X5011012Y11203867D02*
X5020347Y11200000D01*
X5003867Y11211012D02*
X5011012Y11203867D01*
X5000000Y11220348D02*
X5003867Y11211012D01*
X5000000Y11220348D02*
Y11225400D01*
Y12124600D01*
Y12129652D01*
X5003867Y12138988D01*
X5011012Y12146133D01*
X5020347Y12150000D01*
X5079652D01*
Y11050000D02*
X5088988Y11046133D01*
X5096133Y11038988D01*
X5100000Y11029653D01*
Y11024600D02*
Y11029653D01*
Y10125400D02*
Y11024600D01*
Y10120348D02*
Y10125400D01*
X5096133Y10111012D02*
X5100000Y10120348D01*
X5088988Y10103867D02*
X5096133Y10111012D01*
X5079652Y10100000D02*
X5088988Y10103867D01*
X5020347Y10100000D02*
X5079652D01*
X5011012Y10103867D02*
X5020347Y10100000D01*
X5003867Y10111012D02*
X5011012Y10103867D01*
X5000000Y10120348D02*
X5003867Y10111012D01*
X5000000Y10120348D02*
Y10125400D01*
Y11024600D01*
Y11029653D01*
X5003867Y11038988D01*
X5011012Y11046133D01*
X5020347Y11050000D01*
X5079652D01*
X8320652Y8650000D02*
X8329988Y8646133D01*
X8337133Y8638988D01*
X8341000Y8629652D01*
Y8624600D02*
Y8629652D01*
Y8586400D02*
Y8624600D01*
Y8581347D02*
Y8586400D01*
X8337133Y8572012D02*
X8341000Y8581347D01*
X8329988Y8564867D02*
X8337133Y8572012D01*
X8320652Y8561000D02*
X8329988Y8564867D01*
X5093747Y8561000D02*
X8320652D01*
X5084412Y8564867D02*
X5093747Y8561000D01*
X5077267Y8572012D02*
X5084412Y8564867D01*
X5073400Y8581347D02*
X5077267Y8572012D01*
X5073400Y8581347D02*
Y8586400D01*
Y8624600D01*
Y8629652D01*
X5077267Y8638988D01*
X5084412Y8646133D01*
X5093747Y8650000D01*
X8320652D01*
X17280957Y12600000D02*
X17325330Y12594158D01*
X2919043Y12600000D02*
X17280957D01*
X2874670Y12594158D02*
X2919043Y12600000D01*
X2831439Y12582574D02*
X2874670Y12594158D01*
X2790090Y12565447D02*
X2831439Y12582574D01*
X2751331Y12543069D02*
X2790090Y12565447D01*
X2715823Y12515823D02*
X2751331Y12543069D01*
X2684176Y12484176D02*
X2715823Y12515823D01*
X2656930Y12448669D02*
X2684176Y12484176D01*
X2634553Y12409909D02*
X2656930Y12448669D01*
X2617425Y12368560D02*
X2634553Y12409909D01*
X2605842Y12325329D02*
X2617425Y12368560D01*
X2600000Y12280956D02*
X2605842Y12325329D01*
X2600000Y12258578D02*
Y12280956D01*
Y2919043D02*
Y2941421D01*
Y2919043D02*
X2605842Y2874670D01*
X2617425Y2831439D01*
X2634553Y2790090D01*
X2656930Y2751331D01*
X2684176Y2715823D01*
X2715823Y2684176D01*
X2751331Y2656930D01*
X2790090Y2634553D01*
X2831439Y2617425D01*
X2874670Y2605842D01*
X2919043Y2600000D01*
X17280957D01*
X17325330Y2605842D01*
X17368559Y2617425D01*
X17409909Y2634553D01*
X17448669Y2656930D01*
X17484177Y2684176D01*
X17515823Y2715823D01*
X17543069Y2751331D01*
X17565446Y2790090D01*
X17582574Y2831439D01*
X17594157Y2874670D01*
X17600000Y2919043D01*
Y2941421D01*
Y12258578D02*
Y12280956D01*
X17594157Y12325329D02*
X17600000Y12280956D01*
X17582574Y12368560D02*
X17594157Y12325329D01*
X17565446Y12409909D02*
X17582574Y12368560D01*
X17543069Y12448669D02*
X17565446Y12409909D01*
X17515823Y12484176D02*
X17543069Y12448669D01*
X17484177Y12515823D02*
X17515823Y12484176D01*
X17448669Y12543069D02*
X17484177Y12515823D01*
X17409909Y12565447D02*
X17448669Y12543069D01*
X17368559Y12582574D02*
X17409909Y12565447D01*
X17325330Y12594158D02*
X17368559Y12582574D01*
X17600000Y2941421D02*
Y12258578D01*
X2600000Y2941421D02*
Y12258578D01*
D101*
X3950000Y5210000D02*
Y5240000D01*
X4700000D01*
X4690000Y3990000D02*
X4700000Y5240000D01*
X3950000Y3990000D02*
X4690000D01*
X3950000D02*
Y5210000D01*
D102*
X9785000Y10705000D02*
D03*
D103*
X7570000Y9425000D02*
D03*
D104*
X4950000Y9325000D02*
D03*
D105*
X5840000Y11135000D02*
D03*
D106*
X4300000Y11700000D02*
D03*
Y10130000D02*
D03*
X10220000Y6100000D02*
D03*
X8650000D02*
D03*
X10218021Y7594002D02*
D03*
X8648021Y8084002D02*
D03*
X10218021D02*
D03*
X10218021Y6604002D02*
D03*
X8648021D02*
D03*
X10218021Y7094002D02*
D03*
X8648021D02*
D03*
X10218021Y8574002D02*
D03*
X8648021D02*
D03*
X11320000Y8850000D02*
D03*
X12889999D02*
D03*
X14910001Y8860000D02*
D03*
X13339999D02*
D03*
X12889999Y9340000D02*
D03*
X11320000D02*
D03*
X14910001Y9350000D02*
D03*
X13339999D02*
D03*
X12889999Y8360000D02*
D03*
X14720000Y8370000D02*
D03*
X13150000D02*
D03*
D107*
X6182000Y11401000D02*
D03*
Y10893000D02*
D03*
X5928000Y11147000D02*
D03*
X6436000D02*
D03*
X6002395Y11326605D02*
D03*
X6361605D02*
D03*
X6002395Y10967395D02*
D03*
X6361605D02*
D03*
X5748021Y5684003D02*
D03*
Y7374003D02*
D03*
X8038021Y5614002D02*
D03*
X6348021D02*
D03*
X7135997Y7660000D02*
D03*
X5445997D02*
D03*
X5445998Y7960000D02*
D03*
X7135998D02*
D03*
X5445998Y8230001D02*
D03*
X7135998D02*
D03*
X5478021Y5684003D02*
D03*
Y7374003D02*
D03*
X8358021Y7094002D02*
D03*
Y5404002D02*
D03*
X6348021Y6174002D02*
D03*
X8038021D02*
D03*
Y5344002D02*
D03*
X6348021D02*
D03*
X8038021Y5884002D02*
D03*
X12190000Y6220000D02*
D03*
X13880000D02*
D03*
X12190000Y5950000D02*
D03*
X13880000D02*
D03*
X11320000Y6290000D02*
D03*
Y7980000D02*
D03*
X12190000Y6780000D02*
D03*
X13880000D02*
D03*
X14200000Y7700000D02*
D03*
Y6010000D02*
D03*
X11590000Y6290000D02*
D03*
Y7980000D02*
D03*
X10770000Y8890000D02*
D03*
Y7200000D02*
D03*
X11040000Y8890000D02*
D03*
Y7200000D02*
D03*
X10470000Y7200000D02*
D03*
Y8890000D02*
D03*
X13880000Y6490000D02*
D03*
D108*
X10091246Y10538397D02*
D03*
X9911246Y10407620D02*
D03*
X9688754D02*
D03*
X9508754Y10538397D02*
D03*
Y10961603D02*
D03*
X9688754Y11092380D02*
D03*
X10091246Y10961603D02*
D03*
X9911246Y11092380D02*
D03*
X9800000Y10900000D02*
D03*
Y10600000D02*
D03*
X9650000Y10750000D02*
D03*
X9440000D02*
D03*
X10160000D02*
D03*
X9950000D02*
D03*
X3704000Y8343000D02*
D03*
Y8114400D02*
D03*
Y7885800D02*
D03*
Y7428600D02*
D03*
Y6971400D02*
D03*
Y6742800D02*
D03*
Y6514000D02*
D03*
X3902000Y8000100D02*
D03*
Y7771500D02*
D03*
Y7542900D02*
D03*
Y7314300D02*
D03*
X4100000Y8343000D02*
D03*
Y8114400D02*
D03*
Y7885800D02*
D03*
Y7657200D02*
D03*
Y7428600D02*
D03*
Y7200000D02*
D03*
Y6971400D02*
D03*
Y6742800D02*
D03*
X16158000Y7637000D02*
D03*
Y7363000D02*
D03*
X16442000Y8048000D02*
D03*
Y7774000D02*
D03*
Y7500000D02*
D03*
Y7226000D02*
D03*
Y6952000D02*
D03*
D109*
X6978470Y10353194D02*
D03*
X5382000Y11947000D02*
D03*
D110*
X11340000Y11510000D02*
D03*
X11440000D02*
D03*
X11540000D02*
D03*
X11640000D02*
D03*
X11440000D02*
D03*
X11540000D02*
D03*
X11640000D02*
D03*
X11340000Y11430000D02*
D03*
X11440000D02*
D03*
X11540000D02*
D03*
X11640000D02*
D03*
X11440000D02*
D03*
X11540000D02*
D03*
X11640000D02*
D03*
X11440000D02*
D03*
X11540000D02*
D03*
X11640000D02*
D03*
X8850000Y12060000D02*
D03*
X13200000Y9930000D02*
D03*
X4586600Y4261100D02*
D03*
Y4191100D02*
D03*
X4556600Y4131100D02*
D03*
X4486600D02*
D03*
X4426600D02*
D03*
X4366600D02*
D03*
X4306600D02*
D03*
X4246600D02*
D03*
X4186600D02*
D03*
X4126600D02*
D03*
X4076600Y4161100D02*
D03*
X4056600Y4221100D02*
D03*
Y4281100D02*
D03*
Y4341100D02*
D03*
Y4401100D02*
D03*
Y4461100D02*
D03*
Y4521100D02*
D03*
X4106600Y4561100D02*
D03*
X4156600Y4601100D02*
D03*
X4206600Y4641100D02*
D03*
X4236600Y4691100D02*
D03*
Y4751099D02*
D03*
Y4811100D02*
D03*
Y4871099D02*
D03*
Y4931100D02*
D03*
Y4991099D02*
D03*
Y5051100D02*
D03*
X4266600Y5101100D02*
D03*
X4316600Y5131099D02*
D03*
X4376600D02*
D03*
X4436600D02*
D03*
X4496600D02*
D03*
X4556600D02*
D03*
X4586600Y5091100D02*
D03*
Y5031100D02*
D03*
Y4971100D02*
D03*
Y4911100D02*
D03*
Y4851100D02*
D03*
Y4791100D02*
D03*
Y4731100D02*
D03*
Y4671100D02*
D03*
Y4611099D02*
D03*
Y4551100D02*
D03*
Y4491099D02*
D03*
Y4431100D02*
D03*
Y4371099D02*
D03*
Y4311100D02*
D03*
X12500000Y3290000D02*
D03*
X13330000Y7100000D02*
D03*
X12080000Y7120000D02*
D03*
X10604002Y6556979D02*
D03*
Y6746979D02*
D03*
X11900000Y7100000D02*
D03*
X12500000Y3370000D02*
D03*
X12340000Y3590000D02*
D03*
X12240000Y3640000D02*
D03*
X12500000Y4050000D02*
D03*
Y3970000D02*
D03*
Y4770000D02*
D03*
X12650000Y4210000D02*
D03*
Y4370000D02*
D03*
Y4290000D02*
D03*
Y4130000D02*
D03*
X12930000Y5090000D02*
D03*
X12850000D02*
D03*
X12500000Y5470000D02*
D03*
Y5390000D02*
D03*
X12290000Y5440000D02*
D03*
X9661214Y5531212D02*
D03*
X10450000Y5520000D02*
D03*
X10631214Y4351213D02*
D03*
Y4431212D02*
D03*
Y4511212D02*
D03*
Y4591212D02*
D03*
X10531214Y4351213D02*
D03*
Y4431212D02*
D03*
Y4511212D02*
D03*
Y4591212D02*
D03*
X13130000Y5550000D02*
D03*
X6310000Y4030000D02*
D03*
X6085200Y9040000D02*
D03*
X6940000Y9800000D02*
D03*
X6880000Y4140000D02*
D03*
X11200000Y4430000D02*
D03*
X6632900Y4140000D02*
D03*
X7360000Y6490000D02*
D03*
X16139999Y3540000D02*
D03*
X16039999D02*
D03*
X16239999Y3460000D02*
D03*
X16139999D02*
D03*
X16039999D02*
D03*
X16239999Y3540000D02*
D03*
X15939999D02*
D03*
Y3460000D02*
D03*
X16239999Y3700000D02*
D03*
X16039999D02*
D03*
X16239999Y3620000D02*
D03*
X16139999D02*
D03*
Y3700000D02*
D03*
X15939999D02*
D03*
X16039999Y3620000D02*
D03*
X15939999D02*
D03*
X10080000Y9070000D02*
D03*
X7970000Y9000000D02*
D03*
X7960000Y4400000D02*
D03*
X10171214Y5081212D02*
D03*
X10251214D02*
D03*
X10011214D02*
D03*
X10831214Y4591212D02*
D03*
X10731214Y4511212D02*
D03*
Y4431212D02*
D03*
X10831214Y4351213D02*
D03*
X10731214D02*
D03*
X9971214Y4361212D02*
D03*
Y4121212D02*
D03*
Y4201212D02*
D03*
Y4281212D02*
D03*
X8571214Y2991212D02*
D03*
X8671214D02*
D03*
X8871214D02*
D03*
X9071214D02*
D03*
X8971214D02*
D03*
X8571214Y2911212D02*
D03*
X8671214D02*
D03*
X8871214D02*
D03*
X8771214D02*
D03*
X9071214D02*
D03*
X8971214D02*
D03*
X10571214Y3321212D02*
D03*
X9821214Y5461212D02*
D03*
Y5381212D02*
D03*
Y4761212D02*
D03*
Y4681212D02*
D03*
Y3961212D02*
D03*
Y4041212D02*
D03*
Y3281212D02*
D03*
Y3361212D02*
D03*
X8881214Y3491212D02*
D03*
Y3991212D02*
D03*
Y3891212D02*
D03*
Y3791212D02*
D03*
Y3591212D02*
D03*
Y3691212D02*
D03*
Y3391212D02*
D03*
Y3191212D02*
D03*
Y4091212D02*
D03*
Y4191212D02*
D03*
X8561214Y3541212D02*
D03*
Y3841213D02*
D03*
Y3741212D02*
D03*
Y3641212D02*
D03*
Y3441212D02*
D03*
Y3341212D02*
D03*
Y3241212D02*
D03*
Y3941213D02*
D03*
X8761214Y3841213D02*
D03*
Y3641212D02*
D03*
X8661214Y3891213D02*
D03*
Y3691213D02*
D03*
X8761214Y3541212D02*
D03*
X8661214Y3591213D02*
D03*
X8761214Y3741212D02*
D03*
X8661214Y3791213D02*
D03*
X8761214Y3441212D02*
D03*
X8661214Y3191212D02*
D03*
Y3391212D02*
D03*
X8761214Y3341212D02*
D03*
X8661214Y3491212D02*
D03*
X8761214Y3241212D02*
D03*
X8661214Y3291212D02*
D03*
X8761214Y3941213D02*
D03*
Y4041213D02*
D03*
X8661214Y3991213D02*
D03*
X8981214Y3631212D02*
D03*
Y3931213D02*
D03*
Y3431212D02*
D03*
Y3831213D02*
D03*
Y4031213D02*
D03*
Y3531212D02*
D03*
Y4131213D02*
D03*
Y3731213D02*
D03*
X9181214Y4131213D02*
D03*
Y4031213D02*
D03*
X9081214Y3781213D02*
D03*
Y3881213D02*
D03*
Y3981213D02*
D03*
Y4181213D02*
D03*
Y4081213D02*
D03*
Y3481212D02*
D03*
Y3581213D02*
D03*
Y3681213D02*
D03*
X9181214Y3231212D02*
D03*
Y3331212D02*
D03*
X9081214Y3381212D02*
D03*
Y3181212D02*
D03*
Y3281212D02*
D03*
X8981214Y3331212D02*
D03*
Y3231212D02*
D03*
X9181214Y3731213D02*
D03*
Y3431212D02*
D03*
Y3831213D02*
D03*
Y3631212D02*
D03*
Y3931213D02*
D03*
Y3531212D02*
D03*
X9661214Y3781212D02*
D03*
Y4081212D02*
D03*
Y3981212D02*
D03*
Y3881212D02*
D03*
Y3681212D02*
D03*
Y3381212D02*
D03*
Y3581212D02*
D03*
Y3481212D02*
D03*
X9461214Y3381212D02*
D03*
X9361214Y3731212D02*
D03*
X9561214Y3531212D02*
D03*
Y3431212D02*
D03*
X9461214Y3681212D02*
D03*
X9361214Y3631212D02*
D03*
Y3531212D02*
D03*
Y3431212D02*
D03*
X9561214Y3731212D02*
D03*
Y3631212D02*
D03*
X9461214Y3481212D02*
D03*
Y3581212D02*
D03*
X9361214Y4031212D02*
D03*
X9561214D02*
D03*
X9461214Y3981212D02*
D03*
Y3781212D02*
D03*
Y4081212D02*
D03*
X9361214Y3931212D02*
D03*
X9561214D02*
D03*
X9361214Y3831212D02*
D03*
X9461214Y3881212D02*
D03*
X9561214Y3831212D02*
D03*
X9461214Y5531212D02*
D03*
X9561214D02*
D03*
X8961214D02*
D03*
X9061214D02*
D03*
X9261214D02*
D03*
X9361214D02*
D03*
X9161214D02*
D03*
X8861214D02*
D03*
X8661214D02*
D03*
X8761214D02*
D03*
X9611214Y5431212D02*
D03*
X8811214D02*
D03*
X9311214D02*
D03*
X9511214D02*
D03*
X8711214D02*
D03*
X9211214D02*
D03*
X9011214D02*
D03*
X9111214D02*
D03*
X8911214D02*
D03*
X9411214D02*
D03*
X9611214Y5061212D02*
D03*
X8811214D02*
D03*
X8911214D02*
D03*
X8711214D02*
D03*
X9011214D02*
D03*
X9611214Y4861212D02*
D03*
X9661214Y4961212D02*
D03*
X9011214Y4861212D02*
D03*
X8761214Y4961212D02*
D03*
X8911214Y4861212D02*
D03*
X8711214D02*
D03*
X8661214Y4961212D02*
D03*
X8861214D02*
D03*
X8961214D02*
D03*
X8811214Y4861212D02*
D03*
X9061214Y4961212D02*
D03*
X9311214Y4861212D02*
D03*
X9261214Y4961212D02*
D03*
X9161214D02*
D03*
X9211214Y4861212D02*
D03*
X9111214D02*
D03*
Y5061212D02*
D03*
X9211214D02*
D03*
X9311214D02*
D03*
X9561214Y4961212D02*
D03*
X9511214Y5061212D02*
D03*
Y4861212D02*
D03*
X9461214Y4961212D02*
D03*
X9361214D02*
D03*
X9411214Y5061212D02*
D03*
Y4861212D02*
D03*
X9611214Y4571212D02*
D03*
X9661214Y4671212D02*
D03*
X9611214Y4771212D02*
D03*
X9011214Y4571212D02*
D03*
X8661214Y4671212D02*
D03*
X8711214Y4571212D02*
D03*
X8811214D02*
D03*
X8761214Y4671212D02*
D03*
X8861214D02*
D03*
X8911214Y4571212D02*
D03*
X8961214Y4671212D02*
D03*
X9061214D02*
D03*
X8711214Y4771212D02*
D03*
X8911214D02*
D03*
X9011214D02*
D03*
X8811214D02*
D03*
X9311214D02*
D03*
Y4571212D02*
D03*
X9161214Y4671212D02*
D03*
X9111214Y4771212D02*
D03*
X9261214Y4671212D02*
D03*
X9211214Y4571212D02*
D03*
X9111214D02*
D03*
X9211214Y4771212D02*
D03*
X9411214Y4571212D02*
D03*
X9511214Y4771212D02*
D03*
Y4571212D02*
D03*
X9461214Y4671212D02*
D03*
X9561214D02*
D03*
X9361214D02*
D03*
X9411214Y4771212D02*
D03*
X9011214Y5351212D02*
D03*
X9061214Y5251212D02*
D03*
X8811214Y5351212D02*
D03*
X8911214D02*
D03*
X8961214Y5251212D02*
D03*
X8711214Y5351212D02*
D03*
X8761214Y5251212D02*
D03*
X8861214D02*
D03*
X8661214D02*
D03*
X9611214Y5351212D02*
D03*
X9661214Y5251212D02*
D03*
X9611214Y5151212D02*
D03*
X8911214D02*
D03*
X9011214D02*
D03*
X8811214D02*
D03*
X8711214D02*
D03*
X9111214Y5351212D02*
D03*
X9261214Y5251212D02*
D03*
X9111214Y5151212D02*
D03*
X9161214Y5251212D02*
D03*
X9211214Y5351212D02*
D03*
Y5151212D02*
D03*
X9411214Y5351212D02*
D03*
X9311214Y5151212D02*
D03*
X9561214Y5251212D02*
D03*
X9511214Y5151212D02*
D03*
X9411214D02*
D03*
X9461214Y5251212D02*
D03*
X9511214Y5351212D02*
D03*
X9361214Y5251212D02*
D03*
X9311214Y5351212D02*
D03*
X10091214Y5081212D02*
D03*
X8881214Y3291212D02*
D03*
X10471214Y3801212D02*
D03*
X6498021Y7444002D02*
D03*
X6240521Y7139609D02*
D03*
X7058021Y7074002D02*
D03*
X7738021Y7394002D02*
D03*
X7868021Y6974003D02*
D03*
X7738021Y6384002D02*
D03*
X6113521Y6666396D02*
D03*
X6058021Y6494003D02*
D03*
X7058021Y6764002D02*
D03*
X6238021Y6514002D02*
D03*
X13580000Y6990000D02*
D03*
X8070000Y10090000D02*
D03*
X5632500Y9737500D02*
D03*
X6170000Y9170000D02*
D03*
X5630000Y8990000D02*
D03*
X5297500Y8994879D02*
D03*
X6560000Y9020000D02*
D03*
X6040000Y9780000D02*
D03*
X13460001Y10660000D02*
D03*
Y10740000D02*
D03*
X13660001D02*
D03*
X13560001D02*
D03*
Y10660000D02*
D03*
X13660001D02*
D03*
X13760001D02*
D03*
Y10740000D02*
D03*
X13210001Y7410000D02*
D03*
Y4440000D02*
D03*
Y4520000D02*
D03*
X13310001Y4440000D02*
D03*
Y4360000D02*
D03*
Y4520000D02*
D03*
X13250000Y3330000D02*
D03*
X7850000Y3800000D02*
D03*
X10731214Y4591212D02*
D03*
X10831214Y4511212D02*
D03*
Y4431212D02*
D03*
X13410001Y4440000D02*
D03*
X13510001Y4360000D02*
D03*
X13410001D02*
D03*
X13510001Y4440000D02*
D03*
X13210001Y4360000D02*
D03*
X13510001Y4600000D02*
D03*
X13310001D02*
D03*
X13510001Y4520000D02*
D03*
X13410001D02*
D03*
Y4600000D02*
D03*
X13210001D02*
D03*
X14870000Y6280000D02*
D03*
X14770000D02*
D03*
X14970000Y6200000D02*
D03*
X14870000D02*
D03*
X14770000D02*
D03*
X14970000Y6280000D02*
D03*
X14670000D02*
D03*
Y6200000D02*
D03*
X14970000Y6440000D02*
D03*
X14770000D02*
D03*
X14970000Y6360000D02*
D03*
X14870000D02*
D03*
Y6440000D02*
D03*
X14670000D02*
D03*
X14770000Y6360000D02*
D03*
X14670000D02*
D03*
X15600000Y8960000D02*
D03*
X15500000D02*
D03*
X15700000Y8880000D02*
D03*
X15600000D02*
D03*
X15500000D02*
D03*
X15700000Y8960000D02*
D03*
X15400000D02*
D03*
Y8880000D02*
D03*
X15700000Y9120000D02*
D03*
X15500000D02*
D03*
X15700000Y9040000D02*
D03*
X15600000D02*
D03*
Y9120000D02*
D03*
X15400000D02*
D03*
X15500000Y9040000D02*
D03*
X15400000D02*
D03*
X12920000Y5710000D02*
D03*
X10250000Y5720000D02*
D03*
X14839999Y9820000D02*
D03*
X12900000Y7680000D02*
D03*
Y7370000D02*
D03*
X13710001Y7580000D02*
D03*
X13580000Y8000000D02*
D03*
X12082501Y7745607D02*
D03*
X11955501Y7272393D02*
D03*
X10990000Y10450000D02*
D03*
Y10350000D02*
D03*
Y10250000D02*
D03*
Y10150000D02*
D03*
X11070000Y10450000D02*
D03*
Y10350000D02*
D03*
Y10250000D02*
D03*
Y10150000D02*
D03*
X10990000Y10350000D02*
D03*
Y10250000D02*
D03*
Y10150000D02*
D03*
Y10350000D02*
D03*
Y10250000D02*
D03*
Y10150000D02*
D03*
X11070000Y10350000D02*
D03*
Y10250000D02*
D03*
Y10150000D02*
D03*
X11180000Y10450000D02*
D03*
Y10350000D02*
D03*
Y10250000D02*
D03*
Y10150000D02*
D03*
X11260000Y10450000D02*
D03*
Y10350000D02*
D03*
Y10250000D02*
D03*
Y10150000D02*
D03*
X11180000Y10350000D02*
D03*
Y10250000D02*
D03*
Y10150000D02*
D03*
Y10350000D02*
D03*
Y10250000D02*
D03*
Y10150000D02*
D03*
X11260000Y10350000D02*
D03*
Y10250000D02*
D03*
Y10150000D02*
D03*
X13220000Y11590000D02*
D03*
X13120000D02*
D03*
X13020000D02*
D03*
X12920000D02*
D03*
X13220000Y11510000D02*
D03*
X13120000D02*
D03*
X13020000D02*
D03*
X12920000D02*
D03*
X13120000Y11590000D02*
D03*
X13020000D02*
D03*
X12920000D02*
D03*
X13120000D02*
D03*
X13020000D02*
D03*
X12920000D02*
D03*
X13120000Y11510000D02*
D03*
X13020000D02*
D03*
X12920000D02*
D03*
X13180000Y10760000D02*
D03*
Y10660000D02*
D03*
Y10560000D02*
D03*
Y10460000D02*
D03*
X13260001Y10760000D02*
D03*
Y10660000D02*
D03*
Y10560000D02*
D03*
Y10460000D02*
D03*
X13180000Y10660000D02*
D03*
Y10560000D02*
D03*
Y10460000D02*
D03*
Y10660000D02*
D03*
Y10560000D02*
D03*
Y10460000D02*
D03*
X13260001Y10660000D02*
D03*
Y10560000D02*
D03*
Y10460000D02*
D03*
X14370000Y9830000D02*
D03*
X13480000D02*
D03*
X12340000Y8050000D02*
D03*
X12290000Y5160000D02*
D03*
X12340000Y5260000D02*
D03*
X12290000Y5360000D02*
D03*
X12240000Y5260000D02*
D03*
X12190000Y5360000D02*
D03*
X12140000Y5260000D02*
D03*
X12190000Y5160000D02*
D03*
X12090000Y5360000D02*
D03*
X12040000Y5260000D02*
D03*
X12090000Y5160000D02*
D03*
X11990000D02*
D03*
X11440000Y5540000D02*
D03*
X11640000D02*
D03*
X11490000Y5440000D02*
D03*
X11540000Y5540000D02*
D03*
X11590000Y5440000D02*
D03*
X11690000D02*
D03*
X11740000Y5540000D02*
D03*
X11940000D02*
D03*
X11790000Y5440000D02*
D03*
X11840000Y5540000D02*
D03*
X11890000Y5440000D02*
D03*
X12340000Y5540000D02*
D03*
X12040000D02*
D03*
X12240000D02*
D03*
X12090000Y5440000D02*
D03*
X12140000Y5540000D02*
D03*
X12190000Y5440000D02*
D03*
X11990000D02*
D03*
X12240000Y4680000D02*
D03*
X12290000Y4780000D02*
D03*
Y4580000D02*
D03*
X12190000Y4780000D02*
D03*
X12140000Y4680000D02*
D03*
X12190000Y4580000D02*
D03*
X12090000Y4780000D02*
D03*
X12040000Y4680000D02*
D03*
X12090000Y4580000D02*
D03*
X11990000Y4780000D02*
D03*
Y4580000D02*
D03*
X12500000Y4690000D02*
D03*
X12340000Y4680000D02*
D03*
X11890000Y4780000D02*
D03*
X11790000Y4580000D02*
D03*
X11840000Y4680000D02*
D03*
X11890000Y4580000D02*
D03*
X11790000Y4780000D02*
D03*
X11740000Y4680000D02*
D03*
X11690000Y4780000D02*
D03*
X11640000Y4680000D02*
D03*
X11690000Y4580000D02*
D03*
X11340000Y4680000D02*
D03*
X11540000D02*
D03*
X11590000Y4580000D02*
D03*
X11440000Y4680000D02*
D03*
X11490000Y4580000D02*
D03*
X11390000Y4780000D02*
D03*
Y4580000D02*
D03*
X11490000Y4780000D02*
D03*
X11590000D02*
D03*
X11560000Y4200000D02*
D03*
X11990000Y5070000D02*
D03*
X11940000Y4970000D02*
D03*
X11990000Y4870000D02*
D03*
X11890000D02*
D03*
X11940000Y4680000D02*
D03*
X11890000Y5070000D02*
D03*
X11490000D02*
D03*
X11790000D02*
D03*
X11690000D02*
D03*
X11590000D02*
D03*
X11390000D02*
D03*
X11340000Y4970000D02*
D03*
X11840000D02*
D03*
X11740000D02*
D03*
X11790000Y4870000D02*
D03*
X11640000Y4970000D02*
D03*
X11690000Y4870000D02*
D03*
X11540000Y4970000D02*
D03*
X11590000Y4870000D02*
D03*
X11440000Y4970000D02*
D03*
X11490000Y4870000D02*
D03*
X11390000D02*
D03*
X12290000D02*
D03*
X12690000Y5090000D02*
D03*
X12770000D02*
D03*
X12340000Y4970000D02*
D03*
X12290000Y5070000D02*
D03*
X12240000Y4970000D02*
D03*
X12190000Y5070000D02*
D03*
X12140000Y4970000D02*
D03*
X12190000Y4870000D02*
D03*
X12090000Y5070000D02*
D03*
X12040000Y4970000D02*
D03*
X12090000Y4870000D02*
D03*
X11990000Y5360000D02*
D03*
X11790000D02*
D03*
X11940000Y5260000D02*
D03*
X11890000Y5360000D02*
D03*
X11840000Y5260000D02*
D03*
X11890000Y5160000D02*
D03*
X11740000Y5260000D02*
D03*
X11790000Y5160000D02*
D03*
X11690000Y5360000D02*
D03*
Y5160000D02*
D03*
X11440000Y5260000D02*
D03*
X11640000D02*
D03*
X11590000Y5360000D02*
D03*
X11540000Y5260000D02*
D03*
X11590000Y5160000D02*
D03*
X11490000Y5360000D02*
D03*
Y5160000D02*
D03*
X11390000Y5360000D02*
D03*
X11340000Y5260000D02*
D03*
X11390000Y5160000D02*
D03*
Y5440000D02*
D03*
X11340000Y5540000D02*
D03*
X12340000Y4090000D02*
D03*
X12140000D02*
D03*
X11240000Y3750000D02*
D03*
Y3950000D02*
D03*
Y3850000D02*
D03*
Y3650000D02*
D03*
Y3550000D02*
D03*
Y3450000D02*
D03*
X11250000Y2920000D02*
D03*
X11350000Y3000000D02*
D03*
X11250000D02*
D03*
X11240000Y3250000D02*
D03*
X11350000Y2920000D02*
D03*
X11240000Y3350000D02*
D03*
X11860000Y3240000D02*
D03*
X11760000Y3190000D02*
D03*
X11660000Y3240000D02*
D03*
X11760000Y3290000D02*
D03*
X11660000Y3340000D02*
D03*
X11760000Y3390000D02*
D03*
X11660000Y3440000D02*
D03*
X11760000Y3490000D02*
D03*
X11660000Y3540000D02*
D03*
X11760000Y3590000D02*
D03*
X11660000Y3640000D02*
D03*
X11760000Y3690000D02*
D03*
X11860000Y3740000D02*
D03*
Y3340000D02*
D03*
Y3440000D02*
D03*
Y3540000D02*
D03*
Y3640000D02*
D03*
Y3840000D02*
D03*
Y3940000D02*
D03*
Y4040000D02*
D03*
Y4140000D02*
D03*
X11660000Y3940000D02*
D03*
Y3740000D02*
D03*
X11760000Y3790000D02*
D03*
X11660000Y3840000D02*
D03*
X11760000Y3890000D02*
D03*
Y3990000D02*
D03*
X11660000Y4040000D02*
D03*
X11760000Y4090000D02*
D03*
X11660000Y4140000D02*
D03*
X11760000Y4190001D02*
D03*
X11560000Y3500000D02*
D03*
Y3400000D02*
D03*
Y3199999D02*
D03*
Y3299999D02*
D03*
Y4100000D02*
D03*
Y4000000D02*
D03*
Y3900000D02*
D03*
Y3800000D02*
D03*
Y3700000D02*
D03*
Y3600000D02*
D03*
X11440000Y4050000D02*
D03*
Y3550000D02*
D03*
Y3650000D02*
D03*
Y3750000D02*
D03*
Y3850000D02*
D03*
Y3950000D02*
D03*
Y3450000D02*
D03*
Y3350000D02*
D03*
Y3250000D02*
D03*
X11340000Y3200000D02*
D03*
Y3400000D02*
D03*
Y3500000D02*
D03*
Y3600000D02*
D03*
Y3700000D02*
D03*
Y3800000D02*
D03*
Y3900000D02*
D03*
Y4000000D02*
D03*
Y3300000D02*
D03*
X13150000Y3810000D02*
D03*
X12340000Y3690000D02*
D03*
Y3990000D02*
D03*
Y3890000D02*
D03*
Y3790000D02*
D03*
X12040000Y4040000D02*
D03*
X12140000Y3990000D02*
D03*
X12240000Y4040000D02*
D03*
X12040000Y3940000D02*
D03*
X12140000Y3890000D02*
D03*
X12240000Y3940000D02*
D03*
X12040000Y3840000D02*
D03*
X12140000Y3790000D02*
D03*
X12240000Y3840000D02*
D03*
X12040000Y3740000D02*
D03*
X12140000Y3690000D02*
D03*
X12240000Y3740000D02*
D03*
X12040000Y3640000D02*
D03*
X12340000Y3390000D02*
D03*
Y3490000D02*
D03*
X12140000Y3590000D02*
D03*
Y3490000D02*
D03*
X12240000Y3540000D02*
D03*
X12140000Y3390000D02*
D03*
X12240000Y3439999D02*
D03*
X12040000D02*
D03*
Y3540000D02*
D03*
X11450000Y3000000D02*
D03*
X11550000D02*
D03*
X11650000D02*
D03*
X11750000D02*
D03*
X11850000D02*
D03*
X11450000Y2920000D02*
D03*
X11550000D02*
D03*
X11650000D02*
D03*
X11750000D02*
D03*
X11850000D02*
D03*
X15800000Y12230000D02*
D03*
Y12130000D02*
D03*
Y12030000D02*
D03*
X15880000Y12230000D02*
D03*
Y12130000D02*
D03*
Y12030000D02*
D03*
Y12230000D02*
D03*
Y12130000D02*
D03*
Y12030000D02*
D03*
X15800000Y12230000D02*
D03*
Y12130000D02*
D03*
Y12030000D02*
D03*
Y11930000D02*
D03*
X15880000Y12230000D02*
D03*
Y12130000D02*
D03*
Y12030000D02*
D03*
Y11930000D02*
D03*
X8771214Y2991212D02*
D03*
X9171214Y2911212D02*
D03*
Y2991212D02*
D03*
X7720000Y11270000D02*
D03*
X7800000D02*
D03*
X6300000Y9900000D02*
D03*
X5780000Y9620000D02*
D03*
X6400000Y9770000D02*
D03*
X5490000Y4340000D02*
D03*
X5510000Y3840000D02*
D03*
X7050000Y4140000D02*
D03*
X6810000Y3580000D02*
D03*
X7550000Y4290000D02*
D03*
X7470000D02*
D03*
X7460000Y3690000D02*
D03*
X7540000D02*
D03*
X6690000Y3160000D02*
D03*
X6170000Y9770000D02*
D03*
X5430000Y9620000D02*
D03*
X5300000Y9780000D02*
D03*
X7030000Y9750000D02*
D03*
X5230000Y9060000D02*
D03*
%TF.MD5,dad347690ac7e92e6857ff8993a98edd*%
M02*
