%TF.GenerationSoftware,Altium Limited,Altium Designer,24.2.2 (26)*%
G04 Layer_Color=65535*
%FSLAX45Y45*%
%MOMM*%
%TF.SameCoordinates,2C43E8B5-FC8E-40A2-A425-C8743FE8A27F*%
%TF.FilePolarity,Positive*%
%TF.FileFunction,Legend,Top*%
%TF.Part,Single*%
G01*
G75*
%TA.AperFunction,NonConductor*%
%ADD83C,0.25400*%
%ADD119C,0.20000*%
%ADD120C,0.15240*%
%ADD121C,0.15000*%
%ADD122C,0.25000*%
%ADD123C,0.10000*%
%ADD124C,0.12700*%
G36*
X9119112Y10041553D02*
Y10036498D01*
X9124168D01*
Y10031442D01*
X9129223D01*
Y10026387D01*
Y10021331D01*
X9134279D01*
Y10016276D01*
Y10011221D01*
X9139334D01*
Y10006165D01*
X9144389D01*
Y10001109D01*
Y9996054D01*
X9149445D01*
Y9990999D01*
Y9985943D01*
X9154501D01*
Y9980888D01*
Y9975832D01*
X9159556D01*
Y9970777D01*
X9164611D01*
Y9965721D01*
Y9960666D01*
X9169667D01*
Y9955610D01*
Y9950555D01*
X9174723D01*
Y9945499D01*
X9179778D01*
Y9940444D01*
Y9935388D01*
X9184833D01*
Y9930333D01*
Y9925277D01*
X9189889D01*
Y9920222D01*
Y9915166D01*
X9194945D01*
Y9910111D01*
X9200000D01*
Y9905055D01*
Y9900000D01*
X9205055D01*
Y9894945D01*
Y9889889D01*
X9210111D01*
Y9884833D01*
Y9879779D01*
X9215166D01*
Y9874723D01*
X9220221D01*
Y9869667D01*
Y9864611D01*
X9225277D01*
Y9859557D01*
Y9854501D01*
X9230333D01*
Y9849445D01*
Y9844390D01*
X9235388D01*
Y9839335D01*
X9240443D01*
Y9834279D01*
Y9829223D01*
X9245499D01*
Y9824168D01*
Y9819113D01*
Y9814057D01*
X9240443D01*
Y9809001D01*
X9235388D01*
Y9803946D01*
X9230333D01*
Y9798891D01*
X9225277D01*
Y9793835D01*
X9220221D01*
Y9788779D01*
X9210111D01*
Y9783724D01*
X9194945D01*
Y9778669D01*
X9169667D01*
Y9773613D01*
X9124168D01*
Y9768558D01*
X9078668D01*
Y9763502D01*
X9043280D01*
Y9758447D01*
X9002836D01*
Y9753391D01*
X8987670D01*
Y9748336D01*
X8982615D01*
Y9743280D01*
X8977559D01*
Y9738225D01*
X8972504D01*
Y9733169D01*
X8967449D01*
Y9728114D01*
X8962393D01*
Y9723059D01*
Y9718003D01*
X8957337D01*
Y9712948D01*
X8952282D01*
Y9718003D01*
X8942171D01*
Y9723059D01*
X8937115D01*
Y9728114D01*
X8927005D01*
Y9733169D01*
X8932060D01*
Y9738225D01*
X8937115D01*
Y9743280D01*
Y9748336D01*
X8942171D01*
Y9753391D01*
Y9758447D01*
X8947227D01*
Y9763502D01*
Y9768558D01*
X8952282D01*
Y9773613D01*
X8957337D01*
Y9778669D01*
Y9783724D01*
X8962393D01*
Y9788779D01*
Y9793835D01*
X8967449D01*
Y9798891D01*
Y9803946D01*
X8972504D01*
Y9809001D01*
X8977559D01*
Y9814057D01*
Y9819113D01*
X8982615D01*
Y9824168D01*
Y9829223D01*
X8987670D01*
Y9834279D01*
X8992725D01*
Y9839335D01*
Y9844390D01*
X8997781D01*
Y9849445D01*
Y9854501D01*
X9002836D01*
Y9859557D01*
Y9864611D01*
X9007892D01*
Y9869667D01*
X9012947D01*
Y9874723D01*
Y9879779D01*
X9018003D01*
Y9884833D01*
Y9889889D01*
X9023058D01*
Y9894945D01*
X9028114D01*
Y9900000D01*
Y9905055D01*
X9033169D01*
Y9910111D01*
Y9915166D01*
X9038224D01*
Y9920222D01*
Y9925277D01*
X9043280D01*
Y9930333D01*
X9048335D01*
Y9935388D01*
Y9940444D01*
X9053391D01*
Y9945499D01*
Y9950555D01*
X9058446D01*
Y9955610D01*
Y9960666D01*
X9063502D01*
Y9965721D01*
X9068557D01*
Y9970777D01*
Y9975832D01*
X9073613D01*
Y9980888D01*
Y9985943D01*
X9078668D01*
Y9990999D01*
X9083724D01*
Y9996054D01*
Y10001109D01*
X9088779D01*
Y10006165D01*
Y10011221D01*
X9093835D01*
Y10016276D01*
Y10021331D01*
X9098890D01*
Y10026387D01*
X9103946D01*
Y10031442D01*
Y10036498D01*
X9109001D01*
Y10041553D01*
Y10046609D01*
X9119112D01*
Y10041553D01*
D02*
G37*
G36*
X9336497Y9667449D02*
Y9662393D01*
X9341553D01*
Y9657338D01*
Y9652282D01*
X9346608D01*
Y9647227D01*
X9351664D01*
Y9642171D01*
Y9637116D01*
X9356719D01*
Y9632060D01*
Y9627005D01*
X9361775D01*
Y9621949D01*
X9366830D01*
Y9616894D01*
Y9611839D01*
X9371885D01*
Y9606783D01*
Y9601727D01*
X9376941D01*
Y9596672D01*
X9381996D01*
Y9591617D01*
Y9586561D01*
X9387052D01*
Y9581505D01*
Y9576450D01*
X9392107D01*
Y9571395D01*
X9397163D01*
Y9566339D01*
Y9561284D01*
X9402218D01*
Y9556228D01*
Y9551173D01*
X9407274D01*
Y9546117D01*
Y9541062D01*
X9412329D01*
Y9536006D01*
Y9530951D01*
X9417385D01*
Y9525895D01*
X9422440D01*
Y9520840D01*
Y9515785D01*
X9427496D01*
Y9510729D01*
Y9505673D01*
X9432551D01*
Y9500618D01*
X9437607D01*
Y9495563D01*
Y9490507D01*
X9442662D01*
Y9485452D01*
Y9480396D01*
X9447718D01*
Y9475341D01*
X9452773D01*
Y9470285D01*
Y9465230D01*
X9457829D01*
Y9460174D01*
Y9455119D01*
X9462884D01*
Y9450063D01*
X9467940D01*
Y9445008D01*
Y9439953D01*
X9472995D01*
Y9434897D01*
Y9429841D01*
X9478051D01*
Y9424786D01*
X9483106D01*
Y9419731D01*
Y9414675D01*
X9488161D01*
Y9409620D01*
X9478051D01*
Y9414675D01*
X9472995D01*
Y9419731D01*
X9462884D01*
Y9424786D01*
X9452773D01*
Y9429841D01*
X9442662D01*
Y9434897D01*
X9432551D01*
Y9439953D01*
X9427496D01*
Y9445008D01*
X9417385D01*
Y9450063D01*
X9407274D01*
Y9455119D01*
X9402218D01*
Y9460174D01*
X9392107D01*
Y9465230D01*
X9381996D01*
Y9470285D01*
X9371885D01*
Y9475341D01*
X9366830D01*
Y9480396D01*
X9356719D01*
Y9485452D01*
X9346608D01*
Y9490507D01*
X9336497D01*
Y9495563D01*
X9326386D01*
Y9500618D01*
X9321331D01*
Y9505673D01*
X9311220D01*
Y9510729D01*
X9301109D01*
Y9515785D01*
X9296054D01*
Y9520840D01*
X9285943D01*
Y9525895D01*
X9275832D01*
Y9530951D01*
X9265721D01*
Y9536006D01*
X9255610D01*
Y9541062D01*
X9250555D01*
Y9546117D01*
X9240443D01*
Y9551173D01*
X9230333D01*
Y9556228D01*
X9220221D01*
Y9561284D01*
Y9566339D01*
Y9571395D01*
X9225277D01*
Y9576450D01*
X9230333D01*
Y9581505D01*
X9235388D01*
Y9586561D01*
X9240443D01*
Y9591617D01*
X9250555D01*
Y9596672D01*
X9255610D01*
Y9601727D01*
X9260665D01*
Y9606783D01*
X9265721D01*
Y9611839D01*
Y9616894D01*
X9270776D01*
Y9621949D01*
X9275832D01*
Y9627005D01*
X9280887D01*
Y9632060D01*
Y9637116D01*
X9285943D01*
Y9642171D01*
Y9647227D01*
X9290998D01*
Y9652282D01*
Y9657338D01*
X9296054D01*
Y9662393D01*
X9306165D01*
Y9667449D01*
X9321331D01*
Y9672504D01*
X9336497D01*
Y9667449D01*
D02*
G37*
G36*
X8896672D02*
X8906783D01*
Y9662393D01*
X8916894D01*
Y9657338D01*
X8921949D01*
Y9652282D01*
Y9647227D01*
X8916894D01*
Y9642171D01*
Y9637116D01*
Y9632060D01*
X8911838D01*
Y9627005D01*
Y9621949D01*
X8906783D01*
Y9616894D01*
Y9611839D01*
X8901727D01*
Y9606783D01*
Y9601727D01*
X8896672D01*
Y9596672D01*
Y9591617D01*
X8891616D01*
Y9586561D01*
Y9581505D01*
Y9576450D01*
Y9571395D01*
Y9566339D01*
Y9561284D01*
Y9556228D01*
Y9551173D01*
Y9546117D01*
X8896672D01*
Y9541062D01*
Y9536006D01*
Y9530951D01*
X8901727D01*
Y9525895D01*
Y9520840D01*
Y9515785D01*
Y9510729D01*
Y9505673D01*
X8906783D01*
Y9500618D01*
Y9495563D01*
Y9490507D01*
Y9485452D01*
X8911838D01*
Y9480396D01*
Y9475341D01*
X8916894D01*
Y9470285D01*
Y9465230D01*
Y9460174D01*
X8921949D01*
Y9455119D01*
Y9450063D01*
X8927005D01*
Y9445008D01*
Y9439953D01*
Y9434897D01*
X8932060D01*
Y9429841D01*
Y9424786D01*
Y9419731D01*
Y9414675D01*
X8937115D01*
Y9409620D01*
Y9404564D01*
X8942171D01*
Y9399509D01*
Y9394453D01*
X8957337D01*
Y9389398D01*
X8967449D01*
Y9394453D01*
X8977559D01*
Y9399509D01*
Y9404564D01*
X8982615D01*
Y9409620D01*
X8987670D01*
Y9414675D01*
Y9419731D01*
Y9424786D01*
Y9429841D01*
Y9434897D01*
Y9439953D01*
Y9445008D01*
Y9450063D01*
Y9455119D01*
Y9460174D01*
Y9465230D01*
X8982615D01*
Y9470285D01*
Y9475341D01*
X8977559D01*
Y9480396D01*
Y9485452D01*
Y9490507D01*
X8972504D01*
Y9495563D01*
X8967449D01*
Y9500618D01*
Y9505673D01*
Y9510729D01*
Y9515785D01*
X8972504D01*
Y9520840D01*
Y9525895D01*
Y9530951D01*
X8977559D01*
Y9536006D01*
X8972504D01*
Y9541062D01*
Y9546117D01*
Y9551173D01*
X8967449D01*
Y9556228D01*
Y9561284D01*
Y9566339D01*
X8962393D01*
Y9571395D01*
Y9576450D01*
X8967449D01*
Y9581505D01*
X8972504D01*
Y9586561D01*
X8977559D01*
Y9591617D01*
X8982615D01*
Y9596672D01*
X8987670D01*
Y9601727D01*
Y9606783D01*
X8992725D01*
Y9611839D01*
Y9616894D01*
X8997781D01*
Y9611839D01*
X9002836D01*
Y9606783D01*
Y9601727D01*
Y9596672D01*
X8997781D01*
Y9591617D01*
Y9586561D01*
X8992725D01*
Y9581505D01*
X8987670D01*
Y9576450D01*
X8982615D01*
Y9571395D01*
Y9566339D01*
Y9561284D01*
Y9556228D01*
Y9551173D01*
Y9546117D01*
Y9541062D01*
Y9536006D01*
Y9530951D01*
Y9525895D01*
Y9520840D01*
Y9515785D01*
Y9510729D01*
Y9505673D01*
Y9500618D01*
Y9495563D01*
X8987670D01*
Y9490507D01*
Y9485452D01*
Y9480396D01*
X8992725D01*
Y9475341D01*
X9002836D01*
Y9480396D01*
X9007892D01*
Y9485452D01*
Y9490507D01*
X9012947D01*
Y9495563D01*
Y9500618D01*
X9018003D01*
Y9505673D01*
X9012947D01*
Y9510729D01*
Y9515785D01*
X9007892D01*
Y9520840D01*
X9002836D01*
Y9525895D01*
Y9530951D01*
X8997781D01*
Y9536006D01*
X8992725D01*
Y9541062D01*
Y9546117D01*
Y9551173D01*
X8997781D01*
Y9556228D01*
Y9561284D01*
X9002836D01*
Y9566339D01*
Y9571395D01*
Y9576450D01*
Y9581505D01*
Y9586561D01*
X9007892D01*
Y9591617D01*
X9012947D01*
Y9596672D01*
Y9601727D01*
X9023058D01*
Y9596672D01*
Y9591617D01*
Y9586561D01*
X9018003D01*
Y9581505D01*
X9012947D01*
Y9576450D01*
Y9571395D01*
Y9566339D01*
X9007892D01*
Y9561284D01*
Y9556228D01*
Y9551173D01*
Y9546117D01*
Y9541062D01*
Y9536006D01*
X9012947D01*
Y9530951D01*
Y9525895D01*
X9018003D01*
Y9520840D01*
Y9515785D01*
X9028114D01*
Y9520840D01*
Y9525895D01*
X9033169D01*
Y9530951D01*
Y9536006D01*
X9028114D01*
Y9541062D01*
X9023058D01*
Y9546117D01*
Y9551173D01*
Y9556228D01*
Y9561284D01*
Y9566339D01*
Y9571395D01*
X9028114D01*
Y9576450D01*
Y9581505D01*
X9033169D01*
Y9586561D01*
Y9591617D01*
X9038224D01*
Y9586561D01*
X9043280D01*
Y9581505D01*
X9038224D01*
Y9576450D01*
X9033169D01*
Y9571395D01*
Y9566339D01*
X9028114D01*
Y9561284D01*
Y9556228D01*
X9033169D01*
Y9551173D01*
Y9546117D01*
X9038224D01*
Y9541062D01*
X9048335D01*
Y9546117D01*
X9053391D01*
Y9551173D01*
X9048335D01*
Y9556228D01*
Y9561284D01*
X9043280D01*
Y9566339D01*
X9048335D01*
Y9571395D01*
Y9576450D01*
X9063502D01*
Y9571395D01*
X9068557D01*
Y9566339D01*
X9073613D01*
Y9561284D01*
X9083724D01*
Y9556228D01*
X9078668D01*
Y9551173D01*
X9073613D01*
Y9546117D01*
X9068557D01*
Y9541062D01*
X9063502D01*
Y9536006D01*
X9053391D01*
Y9530951D01*
X9048335D01*
Y9525895D01*
X9043280D01*
Y9520840D01*
X9038224D01*
Y9515785D01*
X9033169D01*
Y9510729D01*
Y9505673D01*
X9028114D01*
Y9500618D01*
X9023058D01*
Y9495563D01*
Y9490507D01*
X9018003D01*
Y9485452D01*
Y9480396D01*
Y9475341D01*
X9012947D01*
Y9470285D01*
Y9465230D01*
X9007892D01*
Y9460174D01*
Y9455119D01*
Y9450063D01*
Y9445008D01*
Y9439953D01*
Y9434897D01*
Y9429841D01*
Y9424786D01*
Y9419731D01*
X9018003D01*
Y9424786D01*
Y9429841D01*
X9023058D01*
Y9434897D01*
Y9439953D01*
Y9445008D01*
X9028114D01*
Y9450063D01*
Y9455119D01*
X9038224D01*
Y9460174D01*
X9073613D01*
Y9455119D01*
X9078668D01*
Y9450063D01*
X9068557D01*
Y9455119D01*
X9043280D01*
Y9450063D01*
X9038224D01*
Y9445008D01*
X9033169D01*
Y9439953D01*
Y9434897D01*
X9028114D01*
Y9429841D01*
Y9424786D01*
X9023058D01*
Y9419731D01*
Y9414675D01*
Y9409620D01*
X9018003D01*
Y9404564D01*
Y9399509D01*
Y9394453D01*
X9023058D01*
Y9389398D01*
X9028114D01*
Y9384342D01*
X9033169D01*
Y9389398D01*
X9053391D01*
Y9394453D01*
X9058446D01*
Y9399509D01*
X9063502D01*
Y9404564D01*
Y9409620D01*
X9068557D01*
Y9414675D01*
X9073613D01*
Y9419731D01*
Y9424786D01*
X9078668D01*
Y9429841D01*
Y9434897D01*
Y9439953D01*
Y9445008D01*
X9093835D01*
Y9450063D01*
Y9455119D01*
X9098890D01*
Y9460174D01*
Y9465230D01*
X9103946D01*
Y9470285D01*
X9109001D01*
Y9475341D01*
X9114057D01*
Y9480396D01*
Y9485452D01*
X9119112D01*
Y9490507D01*
X9124168D01*
Y9495563D01*
X9129223D01*
Y9500618D01*
X9139334D01*
Y9505673D01*
X9144389D01*
Y9510729D01*
X9149445D01*
Y9515785D01*
X9154501D01*
Y9520840D01*
X9159556D01*
Y9515785D01*
X9164611D01*
Y9510729D01*
X9174723D01*
Y9505673D01*
X9184833D01*
Y9500618D01*
X9194945D01*
Y9495563D01*
X9200000D01*
Y9490507D01*
X9210111D01*
Y9485452D01*
X9220221D01*
Y9480396D01*
X9230333D01*
Y9475341D01*
X9240443D01*
Y9470285D01*
X9245499D01*
Y9465230D01*
X9255610D01*
Y9460174D01*
X9265721D01*
Y9455119D01*
X9275832D01*
Y9450063D01*
X9280887D01*
Y9445008D01*
X9290998D01*
Y9439953D01*
X9301109D01*
Y9434897D01*
X9311220D01*
Y9429841D01*
X9316275D01*
Y9424786D01*
X9326386D01*
Y9419731D01*
X9336497D01*
Y9414675D01*
X9346608D01*
Y9409620D01*
X9351664D01*
Y9404564D01*
X9361775D01*
Y9399509D01*
X9371885D01*
Y9394453D01*
X9381996D01*
Y9389398D01*
X9387052D01*
Y9384342D01*
X9397163D01*
Y9379287D01*
X9407274D01*
Y9374231D01*
X9417385D01*
Y9369176D01*
X9422440D01*
Y9364120D01*
X9432551D01*
Y9359065D01*
X9442662D01*
Y9354009D01*
X8709619D01*
Y9359065D01*
X8714675D01*
Y9364120D01*
Y9369176D01*
X8719730D01*
Y9374231D01*
Y9379287D01*
X8724786D01*
Y9384342D01*
X8729841D01*
Y9389398D01*
Y9394453D01*
X8734897D01*
Y9399509D01*
Y9404564D01*
X8739952D01*
Y9409620D01*
X8745008D01*
Y9414675D01*
Y9419731D01*
X8750063D01*
Y9424786D01*
Y9429841D01*
X8755119D01*
Y9434897D01*
Y9439953D01*
X8760174D01*
Y9445008D01*
X8765230D01*
Y9450063D01*
Y9455119D01*
X8770285D01*
Y9460174D01*
Y9465230D01*
X8775341D01*
Y9470285D01*
X8780396D01*
Y9475341D01*
Y9480396D01*
X8785451D01*
Y9485452D01*
Y9490507D01*
X8790507D01*
Y9495563D01*
Y9500618D01*
X8795563D01*
Y9505673D01*
X8800618D01*
Y9510729D01*
Y9515785D01*
X8805673D01*
Y9520840D01*
Y9525895D01*
X8810729D01*
Y9530951D01*
X8815784D01*
Y9536006D01*
Y9541062D01*
X8820840D01*
Y9546117D01*
Y9551173D01*
X8825895D01*
Y9556228D01*
Y9561284D01*
X8830951D01*
Y9566339D01*
X8836006D01*
Y9571395D01*
Y9576450D01*
X8841062D01*
Y9581505D01*
Y9586561D01*
X8846117D01*
Y9591617D01*
Y9596672D01*
X8851173D01*
Y9601727D01*
X8856228D01*
Y9606783D01*
Y9611839D01*
X8861283D01*
Y9616894D01*
Y9621949D01*
X8866339D01*
Y9627005D01*
Y9632060D01*
X8871394D01*
Y9637116D01*
X8876450D01*
Y9642171D01*
Y9647227D01*
X8881505D01*
Y9652282D01*
Y9657338D01*
X8886561D01*
Y9662393D01*
Y9667449D01*
X8891616D01*
Y9672504D01*
X8896672D01*
Y9667449D01*
D02*
G37*
G36*
X17357683Y7064526D02*
X16822318D01*
Y11355475D01*
X17357683D01*
Y7064526D01*
D02*
G37*
G36*
X4400475Y3460000D02*
X6050000D01*
Y2900000D01*
X3619526D01*
Y3176158D01*
D01*
Y3460000D01*
X4400475D01*
D01*
D02*
G37*
%LPC*%
G36*
X9144389Y9485452D02*
X9134279D01*
Y9480396D01*
X9129223D01*
Y9475341D01*
X9119112D01*
Y9470285D01*
X9114057D01*
Y9465230D01*
X9109001D01*
Y9460174D01*
X9114057D01*
Y9455119D01*
Y9450063D01*
X9119112D01*
Y9445008D01*
Y9439953D01*
X9124168D01*
Y9434897D01*
Y9429841D01*
X9134279D01*
Y9424786D01*
X9144389D01*
Y9429841D01*
X9149445D01*
Y9434897D01*
X9154501D01*
Y9439953D01*
X9159556D01*
Y9445008D01*
Y9450063D01*
Y9455119D01*
Y9460174D01*
X9154501D01*
Y9465230D01*
Y9470285D01*
X9149445D01*
Y9475341D01*
Y9480396D01*
X9144389D01*
Y9485452D01*
D02*
G37*
G36*
X9114057Y9450063D02*
X9098890D01*
Y9445008D01*
Y9439953D01*
X9093835D01*
Y9434897D01*
Y9429841D01*
X9088779D01*
Y9424786D01*
Y9419731D01*
X9083724D01*
Y9414675D01*
Y9409620D01*
Y9404564D01*
Y9399509D01*
Y9394453D01*
X9114057D01*
Y9399509D01*
Y9404564D01*
X9119112D01*
Y9409620D01*
X9124168D01*
Y9414675D01*
Y9419731D01*
Y9424786D01*
Y9429841D01*
X9119112D01*
Y9434897D01*
Y9439953D01*
X9114057D01*
Y9445008D01*
Y9450063D01*
D02*
G37*
G36*
X17160931Y11224009D02*
X17015459D01*
Y11095470D01*
D01*
Y11160434D01*
X17015736Y11155159D01*
X17016290Y11150162D01*
X17017123Y11145442D01*
X17018512Y11141000D01*
X17019901Y11136836D01*
X17021565Y11132949D01*
X17023232Y11129340D01*
X17025175Y11126286D01*
X17026842Y11123232D01*
X17028784Y11120734D01*
X17030450Y11118513D01*
X17031837Y11116847D01*
X17033226Y11115459D01*
X17034059Y11114348D01*
X17034615Y11113793D01*
X17034892Y11113515D01*
X17038779Y11110462D01*
X17042943Y11107685D01*
X17047107Y11105187D01*
X17051549Y11102966D01*
X17056268Y11101300D01*
X17060712Y11099912D01*
X17069595Y11097691D01*
X17073482Y11096858D01*
X17077368Y11096303D01*
X17080699Y11096025D01*
X17083752Y11095748D01*
X17086252Y11095470D01*
X17089583D01*
X17095691Y11095748D01*
X17101521Y11096303D01*
X17107072Y11097136D01*
X17112071Y11098246D01*
X17116789Y11099634D01*
X17121233Y11101023D01*
X17125119Y11102688D01*
X17128728Y11104354D01*
X17131783Y11106020D01*
X17134558Y11107685D01*
X17136778Y11109074D01*
X17138722Y11110462D01*
X17140388Y11111572D01*
X17141499Y11112405D01*
X17142055Y11112960D01*
X17142331Y11113238D01*
X17145663Y11116847D01*
X17148439Y11120456D01*
X17150938Y11124343D01*
X17153159Y11128507D01*
X17154823Y11132394D01*
X17156490Y11136558D01*
X17158711Y11144332D01*
X17159267Y11147941D01*
X17159822Y11151272D01*
X17160378Y11154326D01*
X17160655Y11156825D01*
X17160931Y11158768D01*
Y11161822D01*
X17160378Y11170428D01*
X17158989Y11178201D01*
X17157323Y11185142D01*
X17156213Y11187918D01*
X17155103Y11190694D01*
X17153992Y11193193D01*
X17152881Y11195414D01*
X17152048Y11197080D01*
X17151215Y11198745D01*
X17150383Y11199856D01*
X17149828Y11200689D01*
X17149272Y11201244D01*
Y11201522D01*
X17144275Y11207074D01*
X17139000Y11211516D01*
X17133447Y11215403D01*
X17128172Y11218179D01*
X17123453Y11220400D01*
X17121233Y11221233D01*
X17119566Y11222066D01*
X17117902Y11222621D01*
X17116789Y11222899D01*
X17116235Y11223176D01*
X17115958D01*
X17112904Y11198745D01*
X17118178Y11196524D01*
X17122620Y11194026D01*
X17126508Y11191527D01*
X17129561Y11189306D01*
X17131783Y11187363D01*
X17133447Y11185697D01*
X17134558Y11184309D01*
X17134836Y11184031D01*
X17137057Y11180422D01*
X17138722Y11176813D01*
X17139833Y11172927D01*
X17140666Y11169595D01*
X17141222Y11166541D01*
X17141499Y11164043D01*
Y11161822D01*
X17141222Y11158490D01*
X17140942Y11155436D01*
X17139555Y11149884D01*
X17137611Y11144887D01*
X17135391Y11140445D01*
X17133447Y11137113D01*
X17131503Y11134615D01*
X17130116Y11132949D01*
X17129561Y11132671D01*
Y11132394D01*
X17124564Y11128507D01*
X17119011Y11125453D01*
X17112904Y11123232D01*
X17107352Y11121567D01*
X17102354Y11120734D01*
X17100133Y11120178D01*
X17098190Y11119901D01*
X17096524D01*
X17095413Y11119623D01*
X17094580D01*
X17094302D01*
Y11223731D01*
X17091527Y11224009D01*
X17160931D01*
D01*
D02*
G37*
G36*
X17157878Y11066875D02*
X16965764D01*
Y11043277D01*
X17157878D01*
Y11066875D01*
D02*
G37*
G36*
X17160931Y11006909D02*
X17018512D01*
Y10893916D01*
X17110127D01*
X17114847Y10894194D01*
X17118456Y10894472D01*
X17121786Y10894749D01*
X17124008D01*
X17125674Y10895027D01*
X17126785Y10895305D01*
X17127061D01*
X17130672Y10896137D01*
X17134003Y10897248D01*
X17137057Y10898358D01*
X17139555Y10899747D01*
X17141776Y10900857D01*
X17143164Y10901690D01*
X17144275Y10902245D01*
X17144553Y10902523D01*
X17147050Y10904744D01*
X17149272Y10907242D01*
X17151215Y10909741D01*
X17152881Y10912517D01*
X17154269Y10914738D01*
X17155380Y10916681D01*
X17155936Y10917792D01*
X17156213Y10918347D01*
X17157878Y10922512D01*
X17158989Y10926398D01*
X17159822Y10930285D01*
X17160378Y10933894D01*
X17160655Y10936948D01*
X17160931Y10939446D01*
Y10909741D01*
Y11006909D01*
D02*
G37*
G36*
Y10856993D02*
X16965764D01*
Y10736227D01*
D01*
Y10833395D01*
X17034615D01*
X17031560Y10830896D01*
X17029062Y10828120D01*
X17026562Y10825621D01*
X17024620Y10822845D01*
X17023232Y10820624D01*
X17021844Y10818959D01*
X17021288Y10817848D01*
X17021011Y10817293D01*
X17019067Y10813684D01*
X17017679Y10809797D01*
X17016846Y10805910D01*
X17016013Y10802301D01*
X17015736Y10799247D01*
X17015459Y10797026D01*
Y10794805D01*
X17015736Y10788698D01*
X17016846Y10782868D01*
X17018234Y10777593D01*
X17019901Y10773151D01*
X17021844Y10769264D01*
X17023232Y10766488D01*
X17023787Y10765378D01*
X17024342Y10764545D01*
X17024620Y10764267D01*
Y10763989D01*
X17028229Y10758992D01*
X17032671Y10754828D01*
X17036835Y10751219D01*
X17040999Y10748443D01*
X17044885Y10746222D01*
X17047940Y10744556D01*
X17049049Y10744001D01*
X17049883Y10743445D01*
X17050439Y10743168D01*
X17050716D01*
X17057101Y10740947D01*
X17063763Y10739281D01*
X17070151Y10737893D01*
X17075980Y10737060D01*
X17080977Y10736505D01*
X17083199D01*
X17084863Y10736227D01*
X17088474D01*
X17096246Y10736505D01*
X17103464Y10737338D01*
X17109850Y10738726D01*
X17115402Y10740114D01*
X17117902Y10740669D01*
X17119844Y10741224D01*
X17121786Y10742057D01*
X17123453Y10742612D01*
X17124564Y10743168D01*
X17125397Y10743445D01*
X17125952Y10743723D01*
X17126228D01*
X17132059Y10746777D01*
X17137057Y10750386D01*
X17141499Y10753995D01*
X17145108Y10757604D01*
X17147884Y10760658D01*
X17150105Y10763157D01*
X17151215Y10764822D01*
X17151772Y10765100D01*
Y10765378D01*
X17154823Y10770652D01*
X17157045Y10775927D01*
X17158711Y10781202D01*
X17159822Y10785922D01*
X17160378Y10789808D01*
X17160655Y10793140D01*
X17160931Y10794250D01*
Y10795916D01*
X17160655Y10800635D01*
X17160098Y10805077D01*
X17158989Y10809242D01*
X17157600Y10812851D01*
X17156213Y10816460D01*
X17154547Y10819791D01*
X17152603Y10822568D01*
X17150661Y10825066D01*
X17148717Y10827565D01*
X17146773Y10829508D01*
X17145108Y10831174D01*
X17143719Y10832562D01*
X17142331Y10833673D01*
X17141222Y10834505D01*
X17140666Y10834783D01*
X17140388Y10835061D01*
X17157878D01*
Y10856993D01*
X17160931D01*
D01*
D02*
G37*
G36*
Y10717349D02*
X17015459D01*
Y10652108D01*
X17015736Y10647388D01*
X17016013Y10642946D01*
X17017957Y10634340D01*
X17020454Y10626844D01*
X17021844Y10623513D01*
X17023232Y10620459D01*
X17024620Y10617683D01*
X17026009Y10615462D01*
X17027396Y10613241D01*
X17028506Y10611575D01*
X17029617Y10610187D01*
X17030450Y10609076D01*
X17030727Y10608521D01*
X17031004Y10608243D01*
X17034615Y10604357D01*
X17038779Y10601303D01*
X17043221Y10598249D01*
X17047662Y10596028D01*
X17052382Y10593807D01*
X17057379Y10592141D01*
X17062099Y10590753D01*
X17066541Y10589643D01*
X17070982Y10588532D01*
X17074869Y10587977D01*
X17078757Y10587422D01*
X17081810Y10587144D01*
X17084586D01*
X17086530Y10586867D01*
X17088194D01*
X17094580Y10587144D01*
X17100688Y10587699D01*
X17106241Y10588532D01*
X17111514Y10589643D01*
X17116235Y10591031D01*
X17120677Y10592419D01*
X17124841Y10594085D01*
X17128450Y10595750D01*
X17131783Y10597416D01*
X17134558Y10599082D01*
X17136778Y10600470D01*
X17138722Y10601858D01*
X17140388Y10602969D01*
X17141499Y10603801D01*
X17142055Y10604357D01*
X17142331Y10604634D01*
X17145663Y10608243D01*
X17148439Y10611853D01*
X17150938Y10615739D01*
X17153159Y10619626D01*
X17154823Y10623513D01*
X17156490Y10627677D01*
X17158711Y10635173D01*
X17159267Y10638504D01*
X17159822Y10641836D01*
X17160378Y10644612D01*
X17160655Y10647111D01*
X17160931Y10649332D01*
Y10604357D01*
Y10652108D01*
X17160655Y10658771D01*
X17159544Y10664878D01*
X17158156Y10670708D01*
X17156767Y10675428D01*
X17155103Y10679592D01*
X17154547Y10681258D01*
X17153992Y10682646D01*
X17153436Y10684034D01*
X17152881Y10684867D01*
X17152603Y10685145D01*
Y10685422D01*
X17148994Y10690975D01*
X17145108Y10695694D01*
X17141222Y10699859D01*
X17137334Y10703190D01*
X17134003Y10705689D01*
X17131227Y10707632D01*
X17130116Y10708187D01*
X17129283Y10708743D01*
X17129005Y10709020D01*
X17128728D01*
X17122343Y10711796D01*
X17115402Y10713740D01*
X17108463Y10715406D01*
X17101521Y10716238D01*
X17098466Y10716794D01*
X17095691D01*
X17092915Y10717071D01*
X17090694Y10717349D01*
X17160931D01*
D01*
D02*
G37*
G36*
X17157878Y10557439D02*
X16965764D01*
Y10374208D01*
X17157878D01*
Y10476928D01*
X16997134Y10533008D01*
X17157878D01*
Y10557439D01*
D02*
G37*
G36*
Y10260938D02*
X17015459D01*
Y10147946D01*
D01*
Y10213187D01*
X17015736Y10207913D01*
X17016570Y10202915D01*
X17017679Y10198473D01*
X17019067Y10194031D01*
X17020734Y10190145D01*
X17022676Y10186536D01*
X17024896Y10183204D01*
X17026842Y10180428D01*
X17029062Y10177652D01*
X17031284Y10175431D01*
X17033226Y10173487D01*
X17034892Y10171822D01*
X17036279Y10170711D01*
X17037390Y10169878D01*
X17038223Y10169323D01*
X17038501Y10169045D01*
X17018512D01*
Y10147946D01*
X17157878D01*
Y10171544D01*
X17082088D01*
X17077368D01*
X17072649Y10172099D01*
X17068762Y10172655D01*
X17065154Y10173210D01*
X17061821Y10174043D01*
X17058768Y10174876D01*
X17055991Y10175986D01*
X17053770Y10177096D01*
X17051826Y10177929D01*
X17050162Y10179040D01*
X17048773Y10179873D01*
X17047662Y10180706D01*
X17046274Y10181816D01*
X17045718Y10182371D01*
X17042387Y10186536D01*
X17040167Y10190978D01*
X17038501Y10195420D01*
X17037112Y10199306D01*
X17036557Y10202915D01*
X17036279Y10205692D01*
X17036002Y10206802D01*
Y10208190D01*
X17036279Y10211522D01*
X17036557Y10214853D01*
X17037390Y10217629D01*
X17038223Y10219850D01*
X17039056Y10221794D01*
X17039610Y10223459D01*
X17040167Y10224292D01*
X17040443Y10224570D01*
X17042110Y10227068D01*
X17044054Y10229289D01*
X17045998Y10230955D01*
X17047662Y10232343D01*
X17049329Y10233176D01*
X17050716Y10234009D01*
X17051549Y10234564D01*
X17051826D01*
X17054881Y10235397D01*
X17058212Y10236230D01*
X17061821Y10236785D01*
X17065430Y10237063D01*
X17068484Y10237340D01*
X17070982D01*
X17072926D01*
X17073204D01*
X17073482D01*
X17157878D01*
Y10214853D01*
Y10260938D01*
D02*
G37*
G36*
X17160931Y10120184D02*
X17015459D01*
Y9989702D01*
D01*
Y10054943D01*
X17015736Y10050223D01*
X17016013Y10045781D01*
X17017957Y10037175D01*
X17020454Y10029679D01*
X17021844Y10026348D01*
X17023232Y10023294D01*
X17024620Y10020518D01*
X17026009Y10018297D01*
X17027396Y10016076D01*
X17028506Y10014410D01*
X17029617Y10013022D01*
X17030450Y10011911D01*
X17030727Y10011356D01*
X17031004Y10011079D01*
X17034615Y10007192D01*
X17038779Y10004138D01*
X17043221Y10001084D01*
X17047662Y9998863D01*
X17052382Y9996642D01*
X17057379Y9994976D01*
X17062099Y9993588D01*
X17066541Y9992478D01*
X17070982Y9991367D01*
X17074869Y9990812D01*
X17078757Y9990257D01*
X17081810Y9989979D01*
X17084586D01*
X17086530Y9989702D01*
X17088194D01*
X17094580Y9989979D01*
X17100688Y9990535D01*
X17106241Y9991367D01*
X17111514Y9992478D01*
X17116235Y9993866D01*
X17120677Y9995254D01*
X17124841Y9996920D01*
X17128450Y9998586D01*
X17131783Y10000251D01*
X17134558Y10001917D01*
X17136778Y10003305D01*
X17138722Y10004693D01*
X17140388Y10005804D01*
X17141499Y10006637D01*
X17142055Y10007192D01*
X17142331Y10007469D01*
X17145663Y10011079D01*
X17148439Y10014688D01*
X17150938Y10018574D01*
X17153159Y10022461D01*
X17154823Y10026348D01*
X17156490Y10030512D01*
X17158711Y10038008D01*
X17159267Y10041339D01*
X17159822Y10044671D01*
X17160378Y10047447D01*
X17160655Y10049946D01*
X17160931Y10052167D01*
Y10054943D01*
X17160655Y10061606D01*
X17159544Y10067713D01*
X17158156Y10073543D01*
X17156767Y10078263D01*
X17155103Y10082427D01*
X17154547Y10084093D01*
X17153992Y10085481D01*
X17153436Y10086869D01*
X17152881Y10087702D01*
X17152603Y10087980D01*
Y10088257D01*
X17148994Y10093810D01*
X17145108Y10098529D01*
X17141222Y10102694D01*
X17137334Y10106025D01*
X17134003Y10108524D01*
X17131227Y10110467D01*
X17130116Y10111022D01*
X17129283Y10111578D01*
X17129005Y10111855D01*
X17128728D01*
X17122343Y10114632D01*
X17115402Y10116575D01*
X17108463Y10118241D01*
X17101521Y10119073D01*
X17098466Y10119629D01*
X17095691D01*
X17092915Y10119906D01*
X17090694Y10120184D01*
X17160931D01*
D01*
D02*
G37*
G36*
X17157880Y9962495D02*
X17001128D01*
X17018512D01*
Y9938897D01*
X17157880D01*
Y9962495D01*
D02*
G37*
G36*
X16992693D02*
X16965764D01*
Y9938897D01*
X17001128D01*
X16992693D01*
Y9962495D01*
D02*
G37*
G36*
X17159822Y9918630D02*
X16969928D01*
Y9850613D01*
D01*
Y9891701D01*
Y9918630D01*
X17157880D01*
X17137057Y9915577D01*
X17137335Y9913356D01*
X17137611Y9911135D01*
Y9909191D01*
X17137891Y9907803D01*
Y9905027D01*
X17137611Y9901418D01*
X17137057Y9898919D01*
X17136502Y9897531D01*
X17136224Y9896976D01*
X17134836Y9895033D01*
X17133447Y9893922D01*
X17132336Y9893089D01*
X17131783Y9892812D01*
X17130394Y9892534D01*
X17128452Y9892256D01*
X17124010Y9891979D01*
X17122066Y9891701D01*
X17120399D01*
X17119289D01*
X17118735D01*
X17036835D01*
Y9915577D01*
X17018512D01*
Y9891701D01*
X16969928D01*
X16984087Y9868103D01*
X17018512D01*
Y9850613D01*
X17036835D01*
Y9868103D01*
X17117346D01*
X17121233D01*
X17124564D01*
X17127618Y9868381D01*
X17130672Y9868658D01*
X17133170D01*
X17135391Y9868936D01*
X17139000Y9869491D01*
X17141776Y9870047D01*
X17143719Y9870324D01*
X17144830Y9870879D01*
X17145108D01*
X17147607Y9871990D01*
X17149550Y9873656D01*
X17151492Y9875321D01*
X17152881Y9876709D01*
X17154269Y9878375D01*
X17155103Y9879486D01*
X17155658Y9880319D01*
X17155936Y9880596D01*
X17157323Y9883650D01*
X17158156Y9886704D01*
X17158989Y9890035D01*
X17159267Y9893367D01*
X17159544Y9896143D01*
X17159822Y9898364D01*
Y9900585D01*
X17159544Y9906693D01*
X17159267Y9909746D01*
X17158711Y9912523D01*
X17158434Y9915021D01*
X17158156Y9916965D01*
X17157880Y9918075D01*
Y9918630D01*
X17159822D01*
D01*
D02*
G37*
G36*
X17160931Y9835066D02*
X17015459D01*
Y9706805D01*
D01*
Y9773712D01*
X17015736Y9767049D01*
X17016290Y9761219D01*
X17017123Y9755666D01*
X17017957Y9751224D01*
X17018790Y9747338D01*
X17019623Y9744561D01*
X17019901Y9743451D01*
X17020178Y9742618D01*
X17020456Y9742340D01*
Y9742063D01*
X17022398Y9737343D01*
X17024898Y9733179D01*
X17027119Y9729570D01*
X17029340Y9726516D01*
X17031561Y9724295D01*
X17033226Y9722629D01*
X17034337Y9721519D01*
X17034615Y9721241D01*
X17038223Y9718743D01*
X17042110Y9716522D01*
X17045998Y9714856D01*
X17049606Y9713468D01*
X17053215Y9712357D01*
X17055714Y9711524D01*
X17056824Y9711247D01*
X17057657D01*
X17057935Y9710969D01*
X17058212D01*
X17061266Y9734012D01*
X17056268Y9735678D01*
X17051826Y9737343D01*
X17048218Y9739287D01*
X17045442Y9740952D01*
X17043221Y9742618D01*
X17041833Y9744006D01*
X17041000Y9745117D01*
X17040723Y9745394D01*
X17038779Y9748726D01*
X17037392Y9752612D01*
X17036279Y9756777D01*
X17035725Y9760663D01*
X17035170Y9764550D01*
X17034892Y9767326D01*
Y9770103D01*
X17035170Y9776488D01*
X17036003Y9782040D01*
X17037392Y9786482D01*
X17038779Y9790369D01*
X17040443Y9793145D01*
X17041554Y9795366D01*
X17042665Y9796754D01*
X17042943Y9797032D01*
X17045442Y9799253D01*
X17048495Y9800919D01*
X17051826Y9802307D01*
X17055157Y9803140D01*
X17058212Y9803695D01*
X17060988Y9803973D01*
X17062654D01*
X17062932D01*
X17063210D01*
X17063765D01*
X17064874D01*
X17066818D01*
X17068484Y9803695D01*
X17069040D01*
X17069318D01*
X17070151Y9800919D01*
X17070982Y9797865D01*
X17072649Y9791480D01*
X17074037Y9784261D01*
X17075426Y9777598D01*
X17075980Y9774267D01*
X17076257Y9771213D01*
X17076813Y9768437D01*
X17077090Y9766216D01*
X17077368Y9764273D01*
Y9762884D01*
X17077646Y9761774D01*
Y9761496D01*
X17078201Y9756499D01*
X17079034Y9752335D01*
X17079588Y9748726D01*
X17080144Y9745950D01*
X17080421Y9743729D01*
X17080977Y9742063D01*
X17081255Y9740952D01*
Y9740675D01*
X17082365Y9737066D01*
X17083476Y9734012D01*
X17084863Y9730958D01*
X17085974Y9728459D01*
X17087085Y9726238D01*
X17088194Y9724850D01*
X17088751Y9723740D01*
X17089027Y9723462D01*
X17090971Y9720686D01*
X17093193Y9718465D01*
X17095415Y9716244D01*
X17097635Y9714578D01*
X17099577Y9713190D01*
X17101244Y9712080D01*
X17102354Y9711524D01*
X17102632Y9711247D01*
X17105685Y9709859D01*
X17109016Y9708748D01*
X17112071Y9707915D01*
X17115125Y9707360D01*
X17117622Y9707082D01*
X17119566Y9706805D01*
X17121233D01*
X17124564Y9707082D01*
X17127341Y9707360D01*
X17133170Y9708748D01*
X17137891Y9710692D01*
X17142055Y9712913D01*
X17145386Y9715133D01*
X17147884Y9717077D01*
X17149272Y9718465D01*
X17149828Y9719020D01*
X17153436Y9724017D01*
X17156213Y9729570D01*
X17158156Y9735678D01*
X17159544Y9741230D01*
X17160378Y9746227D01*
X17160655Y9748448D01*
Y9750391D01*
X17160931Y9752057D01*
Y9754278D01*
X17160655Y9759275D01*
X17160100Y9764273D01*
X17159544Y9768715D01*
X17158711Y9772601D01*
X17157880Y9775655D01*
X17157047Y9778154D01*
X17156767Y9779819D01*
X17156490Y9780375D01*
X17154547Y9785094D01*
X17152048Y9789536D01*
X17149272Y9793701D01*
X17146774Y9797865D01*
X17144275Y9801196D01*
X17142332Y9803695D01*
X17140944Y9805361D01*
X17140388Y9805638D01*
Y9805916D01*
X17143997Y9806471D01*
X17147330Y9807026D01*
X17150383Y9807582D01*
X17152881Y9808414D01*
X17155103Y9809247D01*
X17156490Y9809803D01*
X17157600Y9810080D01*
X17157880Y9810358D01*
Y9835066D01*
X17160931D01*
D01*
D02*
G37*
G36*
X17157880Y9678210D02*
X16965764D01*
Y9654612D01*
X17157880D01*
Y9678210D01*
D02*
G37*
G36*
X17160931Y9618243D02*
X17018512D01*
Y9505251D01*
X17110127D01*
X17114847Y9505529D01*
X17118456Y9505806D01*
X17121788Y9506084D01*
X17124010D01*
X17125674Y9506362D01*
X17126785Y9506639D01*
X17127063D01*
X17130672Y9507472D01*
X17134003Y9508583D01*
X17137057Y9509693D01*
X17139555Y9511081D01*
X17141776Y9512192D01*
X17143166Y9513025D01*
X17144275Y9513580D01*
X17144553Y9513858D01*
X17147050Y9516079D01*
X17149272Y9518577D01*
X17151216Y9521076D01*
X17152881Y9523852D01*
X17154269Y9526073D01*
X17155380Y9528016D01*
X17155936Y9529127D01*
X17156213Y9529682D01*
X17157880Y9533846D01*
X17158989Y9537733D01*
X17159822Y9541620D01*
X17160378Y9545229D01*
X17160655Y9548283D01*
X17160931Y9550781D01*
Y9552725D01*
X17160655Y9557722D01*
X17159822Y9562719D01*
X17158711Y9567161D01*
X17157323Y9571603D01*
X17155380Y9575490D01*
X17153436Y9579099D01*
X17151492Y9582430D01*
X17149272Y9585484D01*
X17147050Y9588260D01*
X17145108Y9590481D01*
X17142886Y9592425D01*
X17141222Y9594090D01*
X17139833Y9595478D01*
X17138724Y9596311D01*
X17137891Y9596867D01*
X17137611Y9597144D01*
X17157880D01*
Y9618243D01*
X17160931D01*
D01*
D02*
G37*
G36*
X17214236Y9469993D02*
X17015459D01*
D01*
X17018512D01*
Y9448339D01*
X17035725D01*
X17032117Y9445285D01*
X17029062Y9441953D01*
X17026286Y9438622D01*
X17024065Y9435291D01*
X17022121Y9431681D01*
X17020456Y9428350D01*
X17019067Y9425018D01*
X17017957Y9421965D01*
X17017123Y9418911D01*
X17016570Y9416135D01*
X17016014Y9413636D01*
X17015736Y9411693D01*
X17015459Y9410027D01*
Y9407528D01*
X17015736Y9400865D01*
X17016847Y9394758D01*
X17018512Y9389205D01*
X17020178Y9384486D01*
X17021844Y9380599D01*
X17023511Y9377823D01*
X17024065Y9376712D01*
X17024620Y9375879D01*
X17024898Y9375602D01*
Y9375324D01*
X17028506Y9370605D01*
X17032948Y9366440D01*
X17037112Y9362831D01*
X17041277Y9359777D01*
X17045164Y9357556D01*
X17048218Y9355891D01*
X17049329Y9355335D01*
X17050162Y9354780D01*
X17050716Y9354502D01*
X17050993D01*
X17057379Y9352004D01*
X17063765Y9350338D01*
X17069872Y9348950D01*
X17075426Y9348117D01*
X17080421Y9347562D01*
X17082365D01*
X17084309Y9347284D01*
X17087640D01*
X17092915Y9347562D01*
X17098190Y9347840D01*
X17107629Y9349783D01*
X17112071Y9350893D01*
X17115958Y9352282D01*
X17119844Y9353670D01*
X17123177Y9355058D01*
X17126508Y9356446D01*
X17129283Y9357834D01*
X17131503Y9359222D01*
X17133725Y9360333D01*
X17135114Y9361443D01*
X17136502Y9362276D01*
X17137057Y9362554D01*
X17137335Y9362831D01*
X17140944Y9365885D01*
X17143997Y9369216D01*
X17146774Y9372826D01*
X17149272Y9376435D01*
X17151216Y9380321D01*
X17152881Y9383930D01*
X17154269Y9387540D01*
X17155380Y9391149D01*
X17156213Y9394480D01*
X17156767Y9397534D01*
X17157323Y9400310D01*
X17157600Y9402809D01*
Y9404752D01*
X17157880Y9406140D01*
Y9407528D01*
X17157600Y9411693D01*
X17157047Y9415857D01*
X17156213Y9419744D01*
X17155103Y9423353D01*
X17152048Y9429738D01*
X17148717Y9435568D01*
X17147050Y9437789D01*
X17145386Y9440010D01*
X17143719Y9441953D01*
X17142332Y9443342D01*
X17141222Y9444452D01*
X17140388Y9445285D01*
X17139833Y9445840D01*
X17139555Y9446118D01*
X17143719D01*
X17147330D01*
X17150938Y9445840D01*
X17153992D01*
X17156767D01*
X17159267Y9445563D01*
X17161488D01*
X17163431Y9445285D01*
X17166206Y9445007D01*
X17168428Y9444730D01*
X17169539Y9444452D01*
X17169817D01*
X17173981Y9443064D01*
X17177589Y9441121D01*
X17180644Y9439177D01*
X17183420Y9437234D01*
X17185362Y9435291D01*
X17187029Y9433625D01*
X17187862Y9432514D01*
X17188139Y9432237D01*
X17190359Y9428628D01*
X17192026Y9424463D01*
X17193137Y9420299D01*
X17193970Y9416412D01*
X17194525Y9412525D01*
X17194801Y9409749D01*
Y9406973D01*
X17194525Y9401698D01*
X17193692Y9396701D01*
X17192581Y9392537D01*
X17191193Y9389205D01*
X17190083Y9386429D01*
X17188972Y9384486D01*
X17188139Y9383375D01*
X17187862Y9382820D01*
X17185918Y9380599D01*
X17183420Y9378933D01*
X17180920Y9377545D01*
X17178423Y9376435D01*
X17175925Y9375879D01*
X17173981Y9375324D01*
X17172870Y9375047D01*
X17172314D01*
X17169261Y9352004D01*
X17173425D01*
X17177034Y9352559D01*
X17180644Y9353114D01*
X17183975Y9353947D01*
X17189806Y9356446D01*
X17194525Y9359222D01*
X17198134Y9361998D01*
X17200632Y9364219D01*
X17202298Y9366163D01*
X17202576Y9366440D01*
X17202853Y9366718D01*
X17206740Y9372826D01*
X17209515Y9379488D01*
X17211459Y9386151D01*
X17212848Y9392537D01*
X17213403Y9395591D01*
X17213681Y9398367D01*
X17213959Y9400588D01*
Y9402809D01*
X17214236Y9404474D01*
Y9406973D01*
X17213959Y9414469D01*
X17212848Y9421409D01*
X17211737Y9427517D01*
X17210071Y9432514D01*
X17208682Y9436679D01*
X17208128Y9438344D01*
X17207295Y9439732D01*
X17207018Y9440843D01*
X17206462Y9441676D01*
X17206184Y9441953D01*
Y9442231D01*
X17203131Y9447228D01*
X17199522Y9451670D01*
X17195914Y9455279D01*
X17192581Y9458333D01*
X17189526Y9460554D01*
X17187029Y9461942D01*
X17185362Y9463053D01*
X17185086Y9463330D01*
X17184808D01*
X17182031Y9464441D01*
X17178978Y9465551D01*
X17175645Y9466384D01*
X17172037Y9467217D01*
X17164264Y9468328D01*
X17156767Y9469160D01*
X17153159Y9469438D01*
X17149828Y9469716D01*
X17146774D01*
X17144275Y9469993D01*
X17214236D01*
D01*
D02*
G37*
G36*
X17160931Y9327573D02*
X17015459D01*
Y9199034D01*
D01*
Y9263998D01*
X17015736Y9258723D01*
X17016290Y9253726D01*
X17017123Y9249006D01*
X17018512Y9244564D01*
X17019901Y9240400D01*
X17021565Y9236513D01*
X17023232Y9232904D01*
X17025175Y9229850D01*
X17026842Y9226796D01*
X17028784Y9224298D01*
X17030450Y9222077D01*
X17031837Y9220411D01*
X17033226Y9219023D01*
X17034059Y9217912D01*
X17034615Y9217357D01*
X17034892Y9217080D01*
X17038779Y9214026D01*
X17042943Y9211250D01*
X17047107Y9208751D01*
X17051549Y9206530D01*
X17056268Y9204864D01*
X17060712Y9203476D01*
X17069595Y9201255D01*
X17073482Y9200422D01*
X17077368Y9199867D01*
X17080701Y9199589D01*
X17083752Y9199312D01*
X17086252Y9199034D01*
X17089584D01*
X17095691Y9199312D01*
X17101521Y9199867D01*
X17107074Y9200700D01*
X17112071Y9201810D01*
X17116791Y9203199D01*
X17121233Y9204587D01*
X17125119Y9206252D01*
X17128728Y9207918D01*
X17131783Y9209584D01*
X17134558Y9211250D01*
X17136778Y9212638D01*
X17138724Y9214026D01*
X17140388Y9215136D01*
X17141499Y9215969D01*
X17142055Y9216524D01*
X17142332Y9216802D01*
X17145663Y9220411D01*
X17148439Y9224020D01*
X17150938Y9227907D01*
X17153159Y9232071D01*
X17154825Y9235958D01*
X17156490Y9240122D01*
X17158711Y9247896D01*
X17159267Y9251505D01*
X17159822Y9254836D01*
X17160378Y9257890D01*
X17160655Y9260389D01*
X17160931Y9262332D01*
Y9265386D01*
X17160378Y9273992D01*
X17158989Y9281766D01*
X17157323Y9288706D01*
X17156213Y9291482D01*
X17155103Y9294259D01*
X17153992Y9296757D01*
X17152881Y9298978D01*
X17152048Y9300644D01*
X17151216Y9302310D01*
X17150383Y9303420D01*
X17149828Y9304253D01*
X17149272Y9304808D01*
Y9305086D01*
X17144275Y9310638D01*
X17139000Y9315080D01*
X17133447Y9318967D01*
X17128172Y9321743D01*
X17123453Y9323964D01*
X17121233Y9324797D01*
X17119566Y9325630D01*
X17117902Y9326185D01*
X17116791Y9326463D01*
X17116235Y9326740D01*
X17115958D01*
X17112904Y9302310D01*
X17118179Y9300089D01*
X17122621Y9297590D01*
X17126508Y9295091D01*
X17129561Y9292870D01*
X17131783Y9290927D01*
X17133447Y9289261D01*
X17134558Y9287873D01*
X17134836Y9287596D01*
X17137057Y9283987D01*
X17138724Y9280377D01*
X17139833Y9276491D01*
X17140666Y9273159D01*
X17141222Y9270105D01*
X17141499Y9267607D01*
Y9265386D01*
X17141222Y9262054D01*
X17140944Y9259001D01*
X17139555Y9253448D01*
X17137611Y9248451D01*
X17135391Y9244009D01*
X17133447Y9240677D01*
X17131503Y9238179D01*
X17130116Y9236513D01*
X17129561Y9236236D01*
Y9235958D01*
X17124564Y9232071D01*
X17119011Y9229017D01*
X17112904Y9226796D01*
X17107352Y9225131D01*
X17102354Y9224298D01*
X17100133Y9223743D01*
X17098190Y9223465D01*
X17096524D01*
X17095415Y9223187D01*
X17094582D01*
X17094302D01*
Y9327296D01*
X17091527Y9327573D01*
X17160931D01*
D01*
D02*
G37*
G36*
X17157880Y9185431D02*
X16965764D01*
D01*
X17157880D01*
X17105685Y9152394D01*
X17100133Y9148507D01*
X17095135Y9144898D01*
X17090971Y9141289D01*
X17087085Y9138235D01*
X17084309Y9135459D01*
X17082088Y9133238D01*
X17080701Y9131850D01*
X17080144Y9131294D01*
X17078479Y9129073D01*
X17076535Y9126575D01*
X17073482Y9121578D01*
X17072371Y9119357D01*
X17071260Y9117691D01*
X17070705Y9116580D01*
X17070428Y9116025D01*
X17069595Y9121022D01*
X17068762Y9125742D01*
X17067374Y9129906D01*
X17066263Y9134071D01*
X17064874Y9137680D01*
X17063210Y9141011D01*
X17061821Y9144065D01*
X17060432Y9146841D01*
X17058768Y9149062D01*
X17057379Y9151283D01*
X17056268Y9152949D01*
X17055157Y9154337D01*
X17054326Y9155448D01*
X17053493Y9156280D01*
X17053215Y9156558D01*
X17052937Y9156836D01*
X17050162Y9159057D01*
X17047385Y9161278D01*
X17041554Y9164609D01*
X17035725Y9166830D01*
X17030173Y9168496D01*
X17025453Y9169606D01*
X17023511Y9169884D01*
X17021565D01*
X17020178Y9170161D01*
X17019067D01*
X17018512D01*
X17018234D01*
X17012405Y9169884D01*
X17007130Y9169051D01*
X17002133Y9167663D01*
X16997968Y9166275D01*
X16994359Y9164609D01*
X16991583Y9163499D01*
X16989917Y9162388D01*
X16989639Y9162110D01*
X16989362D01*
X16984920Y9158779D01*
X16981033Y9155448D01*
X16977702Y9151838D01*
X16975203Y9148507D01*
X16973260Y9145453D01*
X16972150Y9142955D01*
X16971317Y9141289D01*
X16971039Y9141011D01*
Y9140734D01*
X16970206Y9138235D01*
X16969373Y9135181D01*
X16967986Y9129073D01*
X16967152Y9122411D01*
X16966319Y9116303D01*
X16966042Y9110473D01*
Y9107974D01*
X16965764Y9105753D01*
Y9016637D01*
X17157880D01*
Y9185431D01*
D02*
G37*
G36*
X17160931Y8909752D02*
X17015459D01*
Y8781213D01*
D01*
Y8846177D01*
X17015736Y8840902D01*
X17016290Y8835905D01*
X17017123Y8831185D01*
X17018512Y8826743D01*
X17019901Y8822579D01*
X17021565Y8818692D01*
X17023232Y8815083D01*
X17025175Y8812029D01*
X17026842Y8808975D01*
X17028784Y8806477D01*
X17030450Y8804256D01*
X17031837Y8802590D01*
X17033226Y8801202D01*
X17034059Y8800091D01*
X17034615Y8799536D01*
X17034892Y8799258D01*
X17038779Y8796205D01*
X17042943Y8793428D01*
X17047107Y8790930D01*
X17051549Y8788709D01*
X17056268Y8787043D01*
X17060712Y8785655D01*
X17069595Y8783434D01*
X17073482Y8782601D01*
X17077368Y8782046D01*
X17080701Y8781768D01*
X17083752Y8781491D01*
X17086252Y8781213D01*
X17089584D01*
X17095691Y8781491D01*
X17101521Y8782046D01*
X17107074Y8782879D01*
X17112071Y8783989D01*
X17116791Y8785377D01*
X17121233Y8786766D01*
X17125119Y8788431D01*
X17128728Y8790097D01*
X17131783Y8791763D01*
X17134558Y8793428D01*
X17136778Y8794817D01*
X17138724Y8796205D01*
X17140388Y8797315D01*
X17141499Y8798148D01*
X17142055Y8798703D01*
X17142332Y8798981D01*
X17145663Y8802590D01*
X17148439Y8806199D01*
X17150938Y8810086D01*
X17153159Y8814250D01*
X17154825Y8818137D01*
X17156490Y8822301D01*
X17158711Y8830075D01*
X17159267Y8833684D01*
X17159822Y8837015D01*
X17160378Y8840069D01*
X17160655Y8842568D01*
X17160931Y8844511D01*
Y8847565D01*
X17160378Y8856171D01*
X17158989Y8863944D01*
X17157323Y8870885D01*
X17156213Y8873661D01*
X17155103Y8876437D01*
X17153992Y8878936D01*
X17152881Y8881157D01*
X17152048Y8882823D01*
X17151216Y8884488D01*
X17150383Y8885599D01*
X17149828Y8886432D01*
X17149272Y8886987D01*
Y8887265D01*
X17144275Y8892817D01*
X17139000Y8897259D01*
X17133447Y8901146D01*
X17128172Y8903922D01*
X17123453Y8906143D01*
X17121233Y8906976D01*
X17119566Y8907809D01*
X17117902Y8908364D01*
X17116791Y8908642D01*
X17116235Y8908919D01*
X17115958D01*
X17112904Y8884488D01*
X17118179Y8882267D01*
X17122621Y8879769D01*
X17126508Y8877270D01*
X17129561Y8875049D01*
X17131783Y8873106D01*
X17133447Y8871440D01*
X17134558Y8870052D01*
X17134836Y8869774D01*
X17137057Y8866165D01*
X17138724Y8862556D01*
X17139833Y8858670D01*
X17140666Y8855338D01*
X17141222Y8852284D01*
X17141499Y8849786D01*
Y8847565D01*
X17141222Y8844233D01*
X17140944Y8841179D01*
X17139555Y8835627D01*
X17137611Y8830630D01*
X17135391Y8826188D01*
X17133447Y8822856D01*
X17131503Y8820358D01*
X17130116Y8818692D01*
X17129561Y8818414D01*
Y8818137D01*
X17124564Y8814250D01*
X17119011Y8811196D01*
X17112904Y8808975D01*
X17107352Y8807310D01*
X17102354Y8806477D01*
X17100133Y8805921D01*
X17098190Y8805644D01*
X17096524D01*
X17095415Y8805366D01*
X17094582D01*
X17094302D01*
Y8909474D01*
X17091527Y8909752D01*
X17160931D01*
D01*
D02*
G37*
G36*
X17214236Y8753451D02*
X17015459D01*
Y8630742D01*
D01*
Y8690986D01*
X17015736Y8684323D01*
X17016847Y8678215D01*
X17018512Y8672663D01*
X17020178Y8667943D01*
X17021844Y8664057D01*
X17023511Y8661280D01*
X17024065Y8660170D01*
X17024620Y8659337D01*
X17024898Y8659059D01*
Y8658782D01*
X17028506Y8654062D01*
X17032948Y8649898D01*
X17037112Y8646289D01*
X17041277Y8643235D01*
X17045164Y8641014D01*
X17048218Y8639348D01*
X17049329Y8638793D01*
X17050162Y8638238D01*
X17050716Y8637960D01*
X17050993D01*
X17057379Y8635462D01*
X17063765Y8633796D01*
X17069872Y8632408D01*
X17075426Y8631575D01*
X17080421Y8631020D01*
X17082365D01*
X17084309Y8630742D01*
X17087640D01*
X17092915Y8631020D01*
X17098190Y8631297D01*
X17107629Y8633241D01*
X17112071Y8634351D01*
X17115958Y8635739D01*
X17119844Y8637127D01*
X17123177Y8638515D01*
X17126508Y8639903D01*
X17129283Y8641292D01*
X17131503Y8642680D01*
X17133725Y8643790D01*
X17135114Y8644901D01*
X17136502Y8645734D01*
X17137057Y8646011D01*
X17137335Y8646289D01*
X17140944Y8649343D01*
X17143997Y8652674D01*
X17146774Y8656283D01*
X17149272Y8659892D01*
X17151216Y8663779D01*
X17152881Y8667388D01*
X17154269Y8670997D01*
X17155380Y8674606D01*
X17156213Y8677938D01*
X17156767Y8680992D01*
X17157323Y8683768D01*
X17157600Y8686266D01*
Y8688210D01*
X17157880Y8689598D01*
Y8690986D01*
X17157600Y8695150D01*
X17157047Y8699315D01*
X17156213Y8703201D01*
X17155103Y8706810D01*
X17152048Y8713196D01*
X17148717Y8719026D01*
X17147050Y8721247D01*
X17145386Y8723468D01*
X17143719Y8725411D01*
X17142332Y8726799D01*
X17141222Y8727910D01*
X17140388Y8728743D01*
X17139833Y8729298D01*
X17139555Y8729575D01*
X17143719D01*
X17147330D01*
X17150938Y8729298D01*
X17153992D01*
X17156767D01*
X17159267Y8729020D01*
X17161488D01*
X17163431Y8728743D01*
X17166206Y8728465D01*
X17168428Y8728187D01*
X17169539Y8727910D01*
X17169817D01*
X17173981Y8726522D01*
X17177589Y8724578D01*
X17180644Y8722635D01*
X17183420Y8720691D01*
X17185362Y8718748D01*
X17187029Y8717082D01*
X17187862Y8715972D01*
X17188139Y8715694D01*
X17190359Y8712085D01*
X17192026Y8707921D01*
X17193137Y8703757D01*
X17193970Y8699870D01*
X17194525Y8695983D01*
X17194801Y8693207D01*
Y8690431D01*
X17194525Y8685156D01*
X17193692Y8680159D01*
X17192581Y8675994D01*
X17191193Y8672663D01*
X17190083Y8669887D01*
X17188972Y8667943D01*
X17188139Y8666833D01*
X17187862Y8666278D01*
X17185918Y8664057D01*
X17183420Y8662391D01*
X17180920Y8661003D01*
X17178423Y8659892D01*
X17175925Y8659337D01*
X17173981Y8658782D01*
X17172870Y8658504D01*
X17172314D01*
X17169261Y8635462D01*
X17173425D01*
X17177034Y8636017D01*
X17180644Y8636572D01*
X17183975Y8637405D01*
X17189806Y8639903D01*
X17194525Y8642680D01*
X17198134Y8645456D01*
X17200632Y8647677D01*
X17202298Y8649620D01*
X17202576Y8649898D01*
X17202853Y8650175D01*
X17206740Y8656283D01*
X17209515Y8662946D01*
X17211459Y8669609D01*
X17212848Y8675994D01*
X17213403Y8679048D01*
X17213681Y8681824D01*
X17213959Y8684045D01*
Y8686266D01*
X17214236Y8687932D01*
Y8690431D01*
X17213959Y8697926D01*
X17212848Y8704867D01*
X17211737Y8710975D01*
X17210071Y8715972D01*
X17208682Y8720136D01*
X17208128Y8721802D01*
X17207295Y8723190D01*
X17207018Y8724301D01*
X17206462Y8725133D01*
X17206184Y8725411D01*
Y8725689D01*
X17203131Y8730686D01*
X17199522Y8735128D01*
X17195914Y8738737D01*
X17192581Y8741791D01*
X17189526Y8744012D01*
X17187029Y8745400D01*
X17185362Y8746510D01*
X17185086Y8746788D01*
X17184808D01*
X17182031Y8747898D01*
X17178978Y8749009D01*
X17175645Y8749842D01*
X17172037Y8750675D01*
X17164264Y8751785D01*
X17156767Y8752618D01*
X17153159Y8752896D01*
X17149828Y8753173D01*
X17146774D01*
X17144275Y8753451D01*
X17214236D01*
D01*
D02*
G37*
G36*
X17160931Y8610753D02*
X17015459D01*
Y8482492D01*
Y8549399D01*
X17015736Y8542736D01*
X17016290Y8536906D01*
X17017123Y8531353D01*
X17017957Y8526911D01*
X17018790Y8523025D01*
X17019623Y8520248D01*
X17019901Y8519138D01*
X17020178Y8518305D01*
X17020456Y8518027D01*
Y8517750D01*
X17022398Y8513030D01*
X17024898Y8508866D01*
X17027119Y8505257D01*
X17029340Y8502203D01*
X17031561Y8499982D01*
X17033226Y8498316D01*
X17034337Y8497206D01*
X17034615Y8496928D01*
X17038223Y8494430D01*
X17042110Y8492209D01*
X17045998Y8490543D01*
X17049606Y8489155D01*
X17053215Y8488044D01*
X17055714Y8487211D01*
X17056824Y8486934D01*
X17057657D01*
X17057935Y8486656D01*
X17058212D01*
X17061266Y8509699D01*
X17056268Y8511364D01*
X17051826Y8513030D01*
X17048218Y8514974D01*
X17045442Y8516639D01*
X17043221Y8518305D01*
X17041833Y8519693D01*
X17041000Y8520804D01*
X17040723Y8521081D01*
X17038779Y8524413D01*
X17037392Y8528299D01*
X17036279Y8532464D01*
X17035725Y8536350D01*
X17035170Y8540237D01*
X17034892Y8543013D01*
Y8545790D01*
X17035170Y8552175D01*
X17036003Y8557727D01*
X17037392Y8562169D01*
X17038779Y8566056D01*
X17040443Y8568832D01*
X17041554Y8571053D01*
X17042665Y8572441D01*
X17042943Y8572719D01*
X17045442Y8574940D01*
X17048495Y8576606D01*
X17051826Y8577994D01*
X17055157Y8578827D01*
X17058212Y8579382D01*
X17060988Y8579659D01*
X17062654D01*
X17062932D01*
X17063210D01*
X17063765D01*
X17064874D01*
X17066818D01*
X17068484Y8579382D01*
X17069040D01*
X17069318D01*
X17070151Y8576606D01*
X17070982Y8573552D01*
X17072649Y8567167D01*
X17074037Y8559948D01*
X17075426Y8553285D01*
X17075980Y8549954D01*
X17076257Y8546900D01*
X17076813Y8544124D01*
X17077090Y8541903D01*
X17077368Y8539960D01*
Y8538571D01*
X17077646Y8537461D01*
Y8537183D01*
X17078201Y8532186D01*
X17079034Y8528022D01*
X17079588Y8524413D01*
X17080144Y8521636D01*
X17080421Y8519416D01*
X17080977Y8517750D01*
X17081255Y8516639D01*
Y8516362D01*
X17082365Y8512753D01*
X17083476Y8509699D01*
X17084863Y8506645D01*
X17085974Y8504146D01*
X17087085Y8501925D01*
X17088194Y8500537D01*
X17088751Y8499427D01*
X17089027Y8499149D01*
X17090971Y8496373D01*
X17093193Y8494152D01*
X17095415Y8491931D01*
X17097635Y8490265D01*
X17099577Y8488877D01*
X17101244Y8487767D01*
X17102354Y8487211D01*
X17102632Y8486934D01*
X17105685Y8485546D01*
X17109016Y8484435D01*
X17112071Y8483602D01*
X17115125Y8483047D01*
X17117622Y8482769D01*
X17119566Y8482492D01*
X17121233D01*
X17124564Y8482769D01*
X17127341Y8483047D01*
X17133170Y8484435D01*
X17137891Y8486379D01*
X17142055Y8488599D01*
X17145386Y8490820D01*
X17147884Y8492764D01*
X17149272Y8494152D01*
X17149828Y8494707D01*
X17153436Y8499704D01*
X17156213Y8505257D01*
X17158156Y8511364D01*
X17159544Y8516917D01*
X17160378Y8521914D01*
X17160655Y8524135D01*
Y8526078D01*
X17160931Y8527744D01*
Y8484435D01*
Y8529965D01*
X17160655Y8534962D01*
X17160100Y8539960D01*
X17159544Y8544402D01*
X17158711Y8548288D01*
X17157880Y8551342D01*
X17157047Y8553841D01*
X17156767Y8555506D01*
X17156490Y8556062D01*
X17154547Y8560781D01*
X17152048Y8565223D01*
X17149272Y8569387D01*
X17146774Y8573552D01*
X17144275Y8576883D01*
X17142332Y8579382D01*
X17140944Y8581048D01*
X17140388Y8581325D01*
Y8581603D01*
X17143997Y8582158D01*
X17147330Y8582713D01*
X17150383Y8583269D01*
X17152881Y8584101D01*
X17155103Y8584934D01*
X17156490Y8585490D01*
X17157600Y8585767D01*
X17157880Y8586045D01*
Y8610753D01*
X17160931D01*
D01*
D02*
G37*
G36*
X17159822Y8470276D02*
X16969928D01*
Y8402259D01*
D01*
Y8443347D01*
Y8470276D01*
X17157880D01*
X17137057Y8467223D01*
X17137335Y8465002D01*
X17137611Y8462781D01*
Y8460837D01*
X17137891Y8459449D01*
Y8456673D01*
X17137611Y8453064D01*
X17137057Y8450565D01*
X17136502Y8449177D01*
X17136224Y8448622D01*
X17134836Y8446679D01*
X17133447Y8445568D01*
X17132336Y8444735D01*
X17131783Y8444458D01*
X17130394Y8444180D01*
X17128452Y8443902D01*
X17124010Y8443625D01*
X17122066Y8443347D01*
X17120399D01*
X17119289D01*
X17118735D01*
X17036835D01*
Y8467223D01*
X17018512D01*
Y8443347D01*
X16969928D01*
X16984087Y8419749D01*
X17018512D01*
Y8402259D01*
X17036835D01*
Y8419749D01*
X17117346D01*
X17121233D01*
X17124564D01*
X17127618Y8420027D01*
X17130672Y8420304D01*
X17133170D01*
X17135391Y8420582D01*
X17139000Y8421137D01*
X17141776Y8421693D01*
X17143719Y8421970D01*
X17144830Y8422525D01*
X17145108D01*
X17147607Y8423636D01*
X17149550Y8425302D01*
X17151492Y8426967D01*
X17152881Y8428356D01*
X17154269Y8430021D01*
X17155103Y8431132D01*
X17155658Y8431965D01*
X17155936Y8432242D01*
X17157323Y8435296D01*
X17158156Y8438350D01*
X17158989Y8441681D01*
X17159267Y8445013D01*
X17159544Y8447789D01*
X17159822Y8450010D01*
Y8452231D01*
X17159544Y8458339D01*
X17159267Y8461393D01*
X17158711Y8464169D01*
X17158434Y8466667D01*
X17158156Y8468611D01*
X17157880Y8469721D01*
Y8470276D01*
X17159822D01*
D01*
D02*
G37*
G36*
X17157880Y8379216D02*
X16965764D01*
Y8355619D01*
X17157880D01*
Y8379216D01*
D02*
G37*
G36*
X17160931Y8328412D02*
X17015459D01*
Y8263170D01*
X17015736Y8258451D01*
X17016014Y8254009D01*
X17017957Y8245403D01*
X17020456Y8237907D01*
X17021844Y8234575D01*
X17023232Y8231522D01*
X17024620Y8228745D01*
X17026009Y8226524D01*
X17027396Y8224303D01*
X17028506Y8222638D01*
X17029617Y8221249D01*
X17030450Y8220139D01*
X17030728Y8219584D01*
X17031004Y8219306D01*
X17034615Y8215419D01*
X17038779Y8212366D01*
X17043221Y8209312D01*
X17047662Y8207091D01*
X17052382Y8204870D01*
X17057379Y8203204D01*
X17062099Y8201816D01*
X17066541Y8200705D01*
X17070982Y8199595D01*
X17074870Y8199040D01*
X17078757Y8198484D01*
X17081810Y8198207D01*
X17084586D01*
X17086530Y8197929D01*
X17088194D01*
X17094582Y8198207D01*
X17100688Y8198762D01*
X17106241Y8199595D01*
X17111516Y8200705D01*
X17116235Y8202094D01*
X17120677Y8203482D01*
X17124841Y8205147D01*
X17128452Y8206813D01*
X17131783Y8208479D01*
X17134558Y8210145D01*
X17136778Y8211533D01*
X17138724Y8212921D01*
X17140388Y8214031D01*
X17141499Y8214864D01*
X17142055Y8215419D01*
X17142332Y8215697D01*
X17145663Y8219306D01*
X17148439Y8222915D01*
X17150938Y8226802D01*
X17153159Y8230689D01*
X17154825Y8234575D01*
X17156490Y8238740D01*
X17158711Y8246235D01*
X17159267Y8249567D01*
X17159822Y8252898D01*
X17160378Y8255675D01*
X17160655Y8258173D01*
X17160931Y8260394D01*
Y8263170D01*
X17160655Y8269833D01*
X17159544Y8275941D01*
X17158156Y8281771D01*
X17156767Y8286491D01*
X17155103Y8290655D01*
X17154547Y8292321D01*
X17153992Y8293709D01*
X17153436Y8295097D01*
X17152881Y8295930D01*
X17152605Y8296207D01*
Y8296485D01*
X17148994Y8302037D01*
X17145108Y8306757D01*
X17141222Y8310921D01*
X17137335Y8314253D01*
X17134003Y8316751D01*
X17131227Y8318695D01*
X17130116Y8319250D01*
X17129283Y8319805D01*
X17129005Y8320083D01*
X17128728D01*
X17122343Y8322859D01*
X17115402Y8324803D01*
X17108463Y8326468D01*
X17101521Y8327301D01*
X17098466Y8327856D01*
X17095691D01*
X17092915Y8328134D01*
X17090694Y8328412D01*
X17160931D01*
D01*
D02*
G37*
G36*
X17157880Y8186824D02*
X16965764D01*
Y8010812D01*
D01*
X17157880Y8085215D01*
Y8186824D01*
D02*
G37*
G36*
Y7921140D02*
X16965764D01*
D01*
X17060988D01*
X17051549Y7920862D01*
X17042943Y7920030D01*
X17035170Y7918642D01*
X17031561Y7918086D01*
X17028506Y7917253D01*
X17025453Y7916421D01*
X17022954Y7915865D01*
X17020734Y7915310D01*
X17018790Y7914477D01*
X17017123Y7914200D01*
X17016014Y7913644D01*
X17015459Y7913367D01*
X17015181D01*
X17007964Y7910313D01*
X17001578Y7906704D01*
X16996025Y7902817D01*
X16991306Y7899208D01*
X16987419Y7895877D01*
X16984642Y7893100D01*
X16983810Y7891990D01*
X16982977Y7891157D01*
X16982700Y7890879D01*
X16982420Y7890602D01*
X16978812Y7886160D01*
X16976036Y7881440D01*
X16973538Y7876721D01*
X16971594Y7872279D01*
X16970206Y7868392D01*
X16969373Y7865338D01*
X16968819Y7864228D01*
Y7863395D01*
X16968539Y7862839D01*
Y7862562D01*
X16967706Y7857842D01*
X16966875Y7852290D01*
X16966319Y7846737D01*
X16966042Y7841185D01*
X16965764Y7836188D01*
Y7762340D01*
X17157880D01*
Y7833412D01*
Y7831468D01*
X17157600Y7837854D01*
X17157323Y7843684D01*
X17156767Y7848958D01*
X17156213Y7853400D01*
X17155658Y7857287D01*
X17155380Y7860063D01*
X17155103Y7860896D01*
X17154825Y7861729D01*
Y7862284D01*
X17153436Y7867281D01*
X17151772Y7871723D01*
X17150383Y7875610D01*
X17148717Y7878942D01*
X17147330Y7881718D01*
X17146217Y7883661D01*
X17145386Y7884772D01*
X17145108Y7885327D01*
X17142609Y7888936D01*
X17139555Y7891990D01*
X17136778Y7895044D01*
X17134003Y7897542D01*
X17131503Y7899763D01*
X17129561Y7901429D01*
X17128172Y7902539D01*
X17127618Y7902817D01*
X17123177Y7905593D01*
X17118456Y7908370D01*
X17114014Y7910590D01*
X17109572Y7912256D01*
X17105685Y7913922D01*
X17102632Y7915032D01*
X17101521Y7915310D01*
X17100688Y7915588D01*
X17100133Y7915865D01*
X17099857D01*
X17093193Y7917531D01*
X17086530Y7918919D01*
X17080144Y7919752D01*
X17074037Y7920585D01*
X17068762Y7920862D01*
X17066541D01*
X17064598Y7921140D01*
X17157880D01*
D01*
D02*
G37*
G36*
Y7727360D02*
X16965764D01*
Y7582164D01*
X17157880D01*
Y7655456D01*
X17157600Y7662119D01*
X17157323Y7667949D01*
X17156767Y7673224D01*
X17156213Y7677666D01*
X17155658Y7681275D01*
X17155380Y7684051D01*
X17154825Y7685717D01*
Y7686272D01*
X17153436Y7690991D01*
X17152048Y7694878D01*
X17150383Y7698487D01*
X17148717Y7701541D01*
X17147607Y7704040D01*
X17146497Y7705983D01*
X17145663Y7707094D01*
X17145386Y7707371D01*
X17142886Y7710425D01*
X17139833Y7713201D01*
X17136778Y7715422D01*
X17134003Y7717643D01*
X17131227Y7719309D01*
X17129283Y7720419D01*
X17127895Y7721252D01*
X17127341Y7721530D01*
X17122897Y7723473D01*
X17118456Y7724861D01*
X17114291Y7725972D01*
X17110405Y7726527D01*
X17107074Y7727082D01*
X17104298Y7727360D01*
X17157880D01*
D01*
D02*
G37*
G36*
Y7540798D02*
X16965764D01*
Y7515257D01*
X17044609D01*
Y7415868D01*
X16965764D01*
Y7390327D01*
X17157880D01*
Y7415868D01*
X17067374D01*
Y7515257D01*
X17157880D01*
Y7540798D01*
D02*
G37*
G36*
Y7364786D02*
X16965764D01*
Y7195991D01*
X17157880D01*
Y7254292D01*
Y7221533D01*
X17072649D01*
Y7254292D01*
X17072926Y7257346D01*
Y7259567D01*
X17073204Y7261510D01*
X17073482Y7262898D01*
Y7264009D01*
X17073759Y7264564D01*
Y7264842D01*
X17075146Y7269284D01*
X17075980Y7271227D01*
X17076813Y7272893D01*
X17077646Y7274558D01*
X17078201Y7275669D01*
X17078479Y7276224D01*
X17078757Y7276502D01*
X17080421Y7278723D01*
X17082365Y7280944D01*
X17086530Y7285108D01*
X17088474Y7287051D01*
X17090138Y7288440D01*
X17091249Y7289272D01*
X17091527Y7289550D01*
X17095415Y7292326D01*
X17099577Y7295380D01*
X17104021Y7298434D01*
X17108183Y7301488D01*
X17112071Y7303986D01*
X17115125Y7305930D01*
X17116235Y7306763D01*
X17117068Y7307318D01*
X17117622Y7307873D01*
X17117902D01*
X17157880Y7333137D01*
Y7364786D01*
X17105685Y7331749D01*
X17100133Y7327862D01*
X17095135Y7324253D01*
X17090971Y7320644D01*
X17087085Y7317590D01*
X17084309Y7314814D01*
X17082088Y7312593D01*
X17080701Y7311205D01*
X17080144Y7310649D01*
X17078479Y7308428D01*
X17076535Y7305930D01*
X17073482Y7300933D01*
X17072371Y7298712D01*
X17071260Y7297046D01*
X17070705Y7295935D01*
X17070428Y7295380D01*
X17069595Y7300377D01*
X17068762Y7305097D01*
X17067374Y7309261D01*
X17066263Y7313426D01*
X17064874Y7317035D01*
X17063210Y7320366D01*
X17061821Y7323420D01*
X17060432Y7326196D01*
X17058768Y7328417D01*
X17057379Y7330638D01*
X17056268Y7332304D01*
X17055157Y7333692D01*
X17054326Y7334802D01*
X17053493Y7335635D01*
X17053215Y7335913D01*
X17052937Y7336191D01*
X17050162Y7338412D01*
X17047385Y7340633D01*
X17041554Y7343964D01*
X17035725Y7346185D01*
X17030173Y7347851D01*
X17025453Y7348961D01*
X17023511Y7349239D01*
X17021565D01*
X17020178Y7349516D01*
X17019067D01*
X17018512D01*
X17018234D01*
X17012405Y7349239D01*
X17007130Y7348406D01*
X17002133Y7347018D01*
X16997968Y7345630D01*
X16994359Y7343964D01*
X16991583Y7342853D01*
X16989917Y7341743D01*
X16989639Y7341465D01*
X16989362D01*
X16984920Y7338134D01*
X16981033Y7334802D01*
X16977702Y7331193D01*
X16975203Y7327862D01*
X16973260Y7324808D01*
X16972150Y7322309D01*
X16971317Y7320644D01*
X16971039Y7320366D01*
Y7320088D01*
X16970206Y7317590D01*
X16969373Y7314536D01*
X16967986Y7308428D01*
X16967152Y7301765D01*
X16966319Y7295658D01*
X16966042Y7289828D01*
Y7287329D01*
X16965764Y7285108D01*
Y7364786D01*
X17157880D01*
D01*
D02*
G37*
%LPD*%
G36*
X17081810Y11223731D02*
X17075980Y11223176D01*
X17070427Y11222343D01*
X17065154Y11221233D01*
X17060432Y11219845D01*
X17055991Y11218457D01*
X17052104Y11216791D01*
X17048495Y11215125D01*
X17045164Y11213459D01*
X17042387Y11211794D01*
X17040167Y11210406D01*
X17038223Y11209017D01*
X17036557Y11207907D01*
X17035448Y11207074D01*
X17034892Y11206519D01*
X17034615Y11206241D01*
X17031284Y11202910D01*
X17028229Y11199301D01*
X17025729Y11195414D01*
X17023509Y11191527D01*
X17021565Y11187641D01*
X17020178Y11184031D01*
X17018790Y11180145D01*
X17017957Y11176813D01*
X17017123Y11173204D01*
X17016570Y11170150D01*
X17016013Y11167374D01*
X17015736Y11165153D01*
X17015459Y11163210D01*
Y11224009D01*
X17088194D01*
X17081810Y11223731D01*
D02*
G37*
G36*
X17074869Y11121011D02*
X17068484Y11121844D01*
X17062654Y11123510D01*
X17057657Y11125453D01*
X17053770Y11127674D01*
X17050439Y11129618D01*
X17047940Y11131561D01*
X17046552Y11132671D01*
X17045998Y11133227D01*
X17042387Y11137669D01*
X17039610Y11142111D01*
X17037668Y11146830D01*
X17036279Y11151272D01*
X17035448Y11154881D01*
X17035168Y11157935D01*
X17034892Y11159046D01*
Y11160711D01*
X17035168Y11164043D01*
X17035448Y11167097D01*
X17037112Y11172927D01*
X17039334Y11177924D01*
X17041832Y11182088D01*
X17044331Y11185420D01*
X17046552Y11187918D01*
X17048218Y11189306D01*
X17048495Y11189862D01*
X17048773D01*
X17052382Y11192360D01*
X17056546Y11194581D01*
X17060712Y11195969D01*
X17065154Y11197357D01*
X17068762Y11198190D01*
X17072093Y11198745D01*
X17073204D01*
X17074036Y11199023D01*
X17074593D01*
X17074869D01*
Y11121011D01*
D02*
G37*
G36*
X17160931Y10941390D02*
X17160655Y10946387D01*
X17159822Y10951384D01*
X17158711Y10955826D01*
X17157323Y10960268D01*
X17155380Y10964155D01*
X17153436Y10967764D01*
X17151492Y10971095D01*
X17149272Y10974149D01*
X17147050Y10976925D01*
X17145108Y10979146D01*
X17142886Y10981090D01*
X17141222Y10982756D01*
X17139833Y10984144D01*
X17138722Y10984977D01*
X17137891Y10985532D01*
X17137611Y10985809D01*
X17157878D01*
Y11006909D01*
X17160931D01*
Y10941390D01*
D02*
G37*
G36*
X17099577Y10983033D02*
X17105130Y10982756D01*
X17109850Y10982200D01*
X17113736Y10981367D01*
X17116789Y10980535D01*
X17119011Y10979979D01*
X17120122Y10979702D01*
X17120677Y10979424D01*
X17124008Y10977758D01*
X17126785Y10975815D01*
X17129283Y10973594D01*
X17131503Y10971373D01*
X17133170Y10969430D01*
X17134280Y10967764D01*
X17135114Y10966653D01*
X17135391Y10966098D01*
X17137057Y10962489D01*
X17138445Y10958880D01*
X17139278Y10955549D01*
X17140111Y10952495D01*
X17140388Y10949996D01*
X17140666Y10948053D01*
Y10946109D01*
X17140388Y10942223D01*
X17139833Y10938891D01*
X17139000Y10935837D01*
X17137891Y10933339D01*
X17137057Y10931118D01*
X17136224Y10929730D01*
X17135669Y10928619D01*
X17135391Y10928342D01*
X17133170Y10925843D01*
X17130949Y10923900D01*
X17128450Y10922234D01*
X17126228Y10920846D01*
X17124008Y10920013D01*
X17122343Y10919458D01*
X17121233Y10918902D01*
X17120955D01*
X17117902Y10918347D01*
X17114291Y10918070D01*
X17110127Y10917792D01*
X17105963D01*
X17102077Y10917514D01*
X17099022D01*
X17097633D01*
X17096802D01*
X17096246D01*
X17095969D01*
X17018512D01*
Y10983311D01*
X17093192D01*
X17099577Y10983033D01*
D02*
G37*
G36*
Y10835061D02*
X17103464Y10834505D01*
X17107352Y10833950D01*
X17110683Y10833117D01*
X17114014Y10832007D01*
X17116789Y10831174D01*
X17119289Y10830063D01*
X17121510Y10828953D01*
X17123730Y10828120D01*
X17125119Y10827010D01*
X17126508Y10826177D01*
X17127618Y10825621D01*
X17128450Y10825066D01*
X17128728Y10824511D01*
X17129005D01*
X17131227Y10822568D01*
X17133170Y10820347D01*
X17136224Y10815905D01*
X17138445Y10811463D01*
X17139833Y10807298D01*
X17140942Y10803689D01*
X17141222Y10800635D01*
X17141499Y10799525D01*
Y10798137D01*
X17141222Y10795361D01*
X17140942Y10792584D01*
X17139555Y10787587D01*
X17137334Y10782868D01*
X17134836Y10778981D01*
X17132616Y10775927D01*
X17130394Y10773429D01*
X17129005Y10772040D01*
X17128450Y10771763D01*
Y10771485D01*
X17125674Y10769542D01*
X17122897Y10767876D01*
X17116513Y10765100D01*
X17109850Y10763157D01*
X17103464Y10761768D01*
X17097633Y10760936D01*
X17095135Y10760658D01*
X17092915D01*
X17090971Y10760380D01*
X17089583D01*
X17088750D01*
X17088474D01*
X17083476D01*
X17078757Y10760936D01*
X17074313Y10761491D01*
X17070427Y10762046D01*
X17066818Y10762879D01*
X17063487Y10763712D01*
X17060432Y10764545D01*
X17057657Y10765655D01*
X17055437Y10766766D01*
X17053493Y10767598D01*
X17051826Y10768431D01*
X17050439Y10769264D01*
X17049329Y10770097D01*
X17048495Y10770375D01*
X17048218Y10770930D01*
X17047940D01*
X17045718Y10772873D01*
X17043498Y10775094D01*
X17040443Y10779536D01*
X17037946Y10783978D01*
X17036557Y10788143D01*
X17035448Y10791752D01*
X17035168Y10794805D01*
X17034892Y10795916D01*
Y10797304D01*
X17035168Y10800358D01*
X17035448Y10803134D01*
X17037112Y10808409D01*
X17039056Y10813128D01*
X17041554Y10817015D01*
X17044054Y10820069D01*
X17046274Y10822568D01*
X17047940Y10823956D01*
X17048218Y10824511D01*
X17048495D01*
X17051271Y10826454D01*
X17054048Y10828120D01*
X17060712Y10830896D01*
X17067651Y10832840D01*
X17074313Y10834228D01*
X17077646Y10834783D01*
X17080699Y10835061D01*
X17083476Y10835338D01*
X17085696D01*
X17087640Y10835616D01*
X17089027D01*
X17090138D01*
X17090416D01*
X17095135D01*
X17099577Y10835061D01*
D02*
G37*
G36*
X17080144Y10717071D02*
X17074593Y10716516D01*
X17069318Y10715683D01*
X17064320Y10714573D01*
X17059599Y10713185D01*
X17055437Y10711519D01*
X17051271Y10709853D01*
X17047940Y10708187D01*
X17044885Y10706522D01*
X17042110Y10704856D01*
X17039610Y10703190D01*
X17037668Y10701802D01*
X17036279Y10700692D01*
X17035168Y10699859D01*
X17034615Y10699303D01*
X17034337Y10699026D01*
X17031004Y10695417D01*
X17028229Y10691808D01*
X17025453Y10687921D01*
X17023509Y10684034D01*
X17021565Y10680148D01*
X17020178Y10676261D01*
X17017679Y10668765D01*
X17017123Y10665156D01*
X17016570Y10662102D01*
X17016013Y10659326D01*
X17015736Y10656827D01*
X17015459Y10654884D01*
Y10717349D01*
X17086252D01*
X17080144Y10717071D01*
D02*
G37*
G36*
X17097079Y10692641D02*
X17101244Y10692085D01*
X17105408Y10691252D01*
X17109016Y10690420D01*
X17112347Y10689309D01*
X17115402Y10688476D01*
X17118178Y10687366D01*
X17120399Y10686255D01*
X17122620Y10685145D01*
X17124286Y10684034D01*
X17125674Y10683201D01*
X17126785Y10682369D01*
X17127618Y10681813D01*
X17127895Y10681536D01*
X17128172Y10681258D01*
X17130394Y10679037D01*
X17132616Y10676538D01*
X17135947Y10671819D01*
X17138167Y10666822D01*
X17139833Y10662380D01*
X17140666Y10658215D01*
X17141222Y10655162D01*
X17141499Y10653773D01*
Y10652108D01*
X17141222Y10648776D01*
X17140942Y10645722D01*
X17139555Y10639892D01*
X17137334Y10634895D01*
X17134836Y10630731D01*
X17132616Y10627399D01*
X17130394Y10624901D01*
X17129005Y10623235D01*
X17128450Y10622957D01*
Y10622680D01*
X17125674Y10620736D01*
X17122897Y10618793D01*
X17116513Y10616017D01*
X17109850Y10613796D01*
X17103188Y10612408D01*
X17097357Y10611575D01*
X17094858Y10611297D01*
X17092638D01*
X17090694Y10611020D01*
X17089307D01*
X17088474D01*
X17088194D01*
X17083476Y10611297D01*
X17078757Y10611575D01*
X17074593Y10612130D01*
X17070705Y10612963D01*
X17067096Y10613796D01*
X17063763Y10614629D01*
X17060988Y10615739D01*
X17058212Y10616850D01*
X17055991Y10617960D01*
X17053770Y10619071D01*
X17052104Y10619904D01*
X17050716Y10620736D01*
X17049606Y10621569D01*
X17048773Y10622125D01*
X17048495Y10622680D01*
X17048218D01*
X17045998Y10624901D01*
X17043776Y10627399D01*
X17040443Y10632119D01*
X17038223Y10637116D01*
X17036557Y10641836D01*
X17035448Y10646000D01*
X17035168Y10649054D01*
X17034892Y10650442D01*
Y10652108D01*
X17035168Y10655439D01*
X17035448Y10658493D01*
X17036835Y10664045D01*
X17039056Y10669043D01*
X17041554Y10673207D01*
X17044054Y10676538D01*
X17045998Y10679037D01*
X17047662Y10680703D01*
X17047940Y10681258D01*
X17048218D01*
X17050716Y10683479D01*
X17053770Y10685145D01*
X17059879Y10688199D01*
X17066541Y10690420D01*
X17072649Y10691808D01*
X17078477Y10692641D01*
X17080977Y10692918D01*
X17083199D01*
X17084863Y10693196D01*
X17086252D01*
X17087085D01*
X17087363D01*
X17092360D01*
X17097079Y10692641D01*
D02*
G37*
G36*
X17099577Y10477206D02*
X17106796Y10474707D01*
X17112904Y10472764D01*
X17118178Y10470821D01*
X17122620Y10469432D01*
X17125952Y10468322D01*
X17128450Y10467489D01*
X17129839Y10467211D01*
X17130394Y10466934D01*
X17126508Y10465823D01*
X17122066Y10464435D01*
X17117345Y10462770D01*
X17112627Y10461381D01*
X17108463Y10459993D01*
X17105130Y10458883D01*
X17103741Y10458328D01*
X17102908Y10458050D01*
X17102354Y10457772D01*
X17102077D01*
X16965764Y10412242D01*
Y10523291D01*
X17099577Y10477206D01*
D02*
G37*
G36*
X17157878Y10398639D02*
X16994359D01*
X17157878Y10454163D01*
Y10398639D01*
D02*
G37*
G36*
X17061821Y10260661D02*
X17057935Y10260383D01*
X17054604D01*
X17052382Y10260105D01*
X17050716Y10259828D01*
X17049606Y10259550D01*
X17049329D01*
X17045718Y10258717D01*
X17042387Y10257329D01*
X17039610Y10256219D01*
X17036835Y10255108D01*
X17034892Y10253720D01*
X17033504Y10252887D01*
X17032393Y10252332D01*
X17032117Y10252054D01*
X17029340Y10249833D01*
X17027118Y10247335D01*
X17024896Y10244836D01*
X17023232Y10242060D01*
X17021844Y10239839D01*
X17021011Y10237896D01*
X17020454Y10236785D01*
X17020178Y10236230D01*
X17018512Y10232343D01*
X17017403Y10228179D01*
X17016570Y10224292D01*
X17016013Y10220683D01*
X17015736Y10217629D01*
X17015459Y10215408D01*
Y10260938D01*
X17066541D01*
X17061821Y10260661D01*
D02*
G37*
G36*
X17080144Y10119906D02*
X17074593Y10119351D01*
X17069318Y10118518D01*
X17064320Y10117408D01*
X17059599Y10116020D01*
X17055437Y10114354D01*
X17051271Y10112688D01*
X17047940Y10111022D01*
X17044885Y10109357D01*
X17042110Y10107691D01*
X17039610Y10106025D01*
X17037668Y10104637D01*
X17036279Y10103527D01*
X17035168Y10102694D01*
X17034615Y10102139D01*
X17034337Y10101861D01*
X17031004Y10098252D01*
X17028229Y10094643D01*
X17025453Y10090756D01*
X17023509Y10086869D01*
X17021565Y10082983D01*
X17020178Y10079096D01*
X17017679Y10071600D01*
X17017123Y10067991D01*
X17016570Y10064937D01*
X17016013Y10062161D01*
X17015736Y10059662D01*
X17015459Y10057719D01*
Y10120184D01*
X17086252D01*
X17080144Y10119906D01*
D02*
G37*
G36*
X17097079Y10095476D02*
X17101244Y10094920D01*
X17105408Y10094088D01*
X17109016Y10093255D01*
X17112347Y10092144D01*
X17115402Y10091311D01*
X17118178Y10090201D01*
X17120399Y10089090D01*
X17122620Y10087980D01*
X17124286Y10086869D01*
X17125674Y10086036D01*
X17126785Y10085204D01*
X17127618Y10084648D01*
X17127895Y10084371D01*
X17128172Y10084093D01*
X17130394Y10081872D01*
X17132616Y10079374D01*
X17135947Y10074654D01*
X17138167Y10069657D01*
X17139833Y10065215D01*
X17140666Y10061050D01*
X17141222Y10057997D01*
X17141499Y10056609D01*
Y10054943D01*
X17141222Y10051611D01*
X17140942Y10048557D01*
X17139555Y10042727D01*
X17137334Y10037730D01*
X17134836Y10033566D01*
X17132616Y10030234D01*
X17130394Y10027736D01*
X17129005Y10026070D01*
X17128450Y10025792D01*
Y10025515D01*
X17125674Y10023572D01*
X17122897Y10021628D01*
X17116513Y10018852D01*
X17109850Y10016631D01*
X17103188Y10015243D01*
X17097357Y10014410D01*
X17094858Y10014132D01*
X17092638D01*
X17090694Y10013855D01*
X17089307D01*
X17088474D01*
X17088194D01*
X17083476Y10014132D01*
X17078757Y10014410D01*
X17074593Y10014965D01*
X17070705Y10015798D01*
X17067096Y10016631D01*
X17063763Y10017464D01*
X17060988Y10018574D01*
X17058212Y10019685D01*
X17055991Y10020795D01*
X17053770Y10021906D01*
X17052104Y10022739D01*
X17050716Y10023572D01*
X17049606Y10024404D01*
X17048773Y10024960D01*
X17048495Y10025515D01*
X17048218D01*
X17045998Y10027736D01*
X17043776Y10030234D01*
X17040443Y10034954D01*
X17038223Y10039951D01*
X17036557Y10044671D01*
X17035448Y10048835D01*
X17035168Y10051889D01*
X17034892Y10053277D01*
Y10054943D01*
X17035168Y10058274D01*
X17035448Y10061328D01*
X17036835Y10066881D01*
X17039056Y10071878D01*
X17041554Y10076042D01*
X17044054Y10079374D01*
X17045998Y10081872D01*
X17047662Y10083538D01*
X17047940Y10084093D01*
X17048218D01*
X17050716Y10086314D01*
X17053770Y10087980D01*
X17059879Y10091034D01*
X17066541Y10093255D01*
X17072649Y10094643D01*
X17078477Y10095476D01*
X17080977Y10095753D01*
X17083199D01*
X17084863Y10096031D01*
X17086252D01*
X17087085D01*
X17087363D01*
X17092360D01*
X17097079Y10095476D01*
D02*
G37*
G36*
X17154825Y9833678D02*
X17151772Y9832290D01*
X17148994Y9831179D01*
X17146497Y9830624D01*
X17144275Y9829791D01*
X17142609Y9829514D01*
X17141499Y9829236D01*
X17141222D01*
X17139278Y9828958D01*
X17136778Y9828681D01*
X17134003D01*
X17130949Y9828403D01*
X17124010Y9828126D01*
X17117068D01*
X17110405Y9827848D01*
X17107352D01*
X17104852D01*
X17102632D01*
X17100966D01*
X17099857D01*
X17099577D01*
X17067929D01*
X17062654D01*
X17057935Y9827570D01*
X17054326Y9827293D01*
X17051273D01*
X17049051Y9827015D01*
X17047385Y9826738D01*
X17046552Y9826460D01*
X17046275D01*
X17042665Y9825627D01*
X17039612Y9824517D01*
X17037112Y9823406D01*
X17034615Y9822018D01*
X17032948Y9820907D01*
X17031561Y9820075D01*
X17030728Y9819519D01*
X17030450Y9819242D01*
X17028229Y9817021D01*
X17026009Y9814522D01*
X17024342Y9811746D01*
X17022678Y9808970D01*
X17021565Y9806471D01*
X17020734Y9804528D01*
X17020178Y9803140D01*
X17019901Y9802584D01*
X17018512Y9798142D01*
X17017403Y9793423D01*
X17016570Y9788703D01*
X17016014Y9783984D01*
X17015736Y9779819D01*
X17015459Y9776766D01*
Y9835066D01*
X17157880D01*
X17154825Y9833678D01*
D02*
G37*
G36*
X17096802Y9803695D02*
X17102354Y9803417D01*
X17107074Y9803140D01*
X17110960Y9802584D01*
X17114291Y9801752D01*
X17116791Y9800919D01*
X17118735Y9800363D01*
X17119844Y9800086D01*
X17120122Y9799808D01*
X17123730Y9797587D01*
X17127063Y9795366D01*
X17129839Y9792590D01*
X17132060Y9790091D01*
X17134003Y9787870D01*
X17135391Y9785927D01*
X17136224Y9784817D01*
X17136502Y9784261D01*
X17138445Y9780097D01*
X17139833Y9775933D01*
X17140944Y9772046D01*
X17141499Y9768159D01*
X17142055Y9765105D01*
X17142332Y9762329D01*
Y9760108D01*
X17142055Y9755111D01*
X17141499Y9750947D01*
X17140388Y9747338D01*
X17139278Y9744284D01*
X17138167Y9742063D01*
X17137057Y9740397D01*
X17136502Y9739287D01*
X17136224Y9739009D01*
X17133725Y9736788D01*
X17130949Y9735122D01*
X17128452Y9733734D01*
X17125952Y9732901D01*
X17123730Y9732346D01*
X17122066Y9732068D01*
X17120677D01*
X17120399D01*
X17118179Y9732346D01*
X17115958Y9732624D01*
X17114291Y9733179D01*
X17112627Y9733734D01*
X17111238Y9734289D01*
X17110127Y9734567D01*
X17109572Y9735122D01*
X17109296D01*
X17105963Y9737898D01*
X17103741Y9741230D01*
X17102908Y9742340D01*
X17102354Y9743451D01*
X17101799Y9744284D01*
Y9744561D01*
X17100688Y9747338D01*
X17099857Y9750391D01*
X17099023Y9753723D01*
X17098466Y9757054D01*
X17097913Y9760108D01*
X17097357Y9762884D01*
X17097079Y9764550D01*
Y9765105D01*
X17096246Y9769825D01*
X17095691Y9774267D01*
X17094858Y9778154D01*
X17094026Y9782040D01*
X17093193Y9785649D01*
X17092360Y9788703D01*
X17091805Y9791757D01*
X17090971Y9794256D01*
X17090416Y9796477D01*
X17089861Y9798420D01*
X17089307Y9800086D01*
X17088751Y9801474D01*
X17088474Y9802584D01*
X17088194Y9803417D01*
X17087918Y9803695D01*
Y9803973D01*
X17096802Y9803695D01*
D02*
G37*
G36*
X17099577Y9594368D02*
X17105130Y9594090D01*
X17109850Y9593535D01*
X17113737Y9592702D01*
X17116791Y9591869D01*
X17119011Y9591314D01*
X17120122Y9591036D01*
X17120677Y9590759D01*
X17124010Y9589093D01*
X17126785Y9587150D01*
X17129283Y9584929D01*
X17131503Y9582708D01*
X17133170Y9580764D01*
X17134280Y9579099D01*
X17135114Y9577988D01*
X17135391Y9577433D01*
X17137057Y9573824D01*
X17138445Y9570215D01*
X17139278Y9566883D01*
X17140111Y9563829D01*
X17140388Y9561331D01*
X17140666Y9559388D01*
Y9557444D01*
X17140388Y9553557D01*
X17139833Y9550226D01*
X17139000Y9547172D01*
X17137891Y9544674D01*
X17137057Y9542453D01*
X17136224Y9541064D01*
X17135669Y9539954D01*
X17135391Y9539676D01*
X17133170Y9537178D01*
X17130949Y9535234D01*
X17128452Y9533569D01*
X17126230Y9532181D01*
X17124010Y9531348D01*
X17122343Y9530792D01*
X17121233Y9530237D01*
X17120955D01*
X17117902Y9529682D01*
X17114291Y9529404D01*
X17110127Y9529127D01*
X17105963D01*
X17102077Y9528849D01*
X17099023D01*
X17097635D01*
X17096802D01*
X17096246D01*
X17095969D01*
X17018512D01*
Y9594646D01*
X17093193D01*
X17099577Y9594368D01*
D02*
G37*
G36*
X17096246Y9447506D02*
X17100410Y9446951D01*
X17104021Y9446395D01*
X17107629Y9445563D01*
X17110960Y9444452D01*
X17113737Y9443619D01*
X17116235Y9442509D01*
X17118735Y9441398D01*
X17120677Y9440565D01*
X17122343Y9439455D01*
X17123453Y9438622D01*
X17124564Y9438067D01*
X17125397Y9437511D01*
X17125674Y9436956D01*
X17125952D01*
X17128172Y9434735D01*
X17130116Y9432514D01*
X17133170Y9428072D01*
X17135391Y9423353D01*
X17136778Y9419188D01*
X17137891Y9415302D01*
X17138167Y9412248D01*
X17138445Y9411137D01*
Y9409472D01*
X17138167Y9406418D01*
X17137891Y9403642D01*
X17136502Y9398367D01*
X17134558Y9393647D01*
X17132060Y9389760D01*
X17129839Y9386429D01*
X17127895Y9384208D01*
X17126508Y9382820D01*
X17125952Y9382265D01*
X17123453Y9380321D01*
X17120677Y9378656D01*
X17114291Y9375879D01*
X17107907Y9374214D01*
X17101244Y9372826D01*
X17095415Y9371993D01*
X17092638Y9371715D01*
X17090416D01*
X17088474Y9371437D01*
X17087085D01*
X17086252D01*
X17085974D01*
X17081255D01*
X17077090Y9371993D01*
X17073204Y9372548D01*
X17069318Y9373103D01*
X17065987Y9373936D01*
X17062932Y9374769D01*
X17059879Y9375879D01*
X17057379Y9376990D01*
X17055157Y9377823D01*
X17053215Y9378933D01*
X17051549Y9379766D01*
X17050439Y9380599D01*
X17049329Y9381154D01*
X17048495Y9381709D01*
X17048218Y9382265D01*
X17047940D01*
X17045718Y9384486D01*
X17043498Y9386707D01*
X17040443Y9391149D01*
X17037946Y9395591D01*
X17036559Y9400033D01*
X17035448Y9403642D01*
X17035170Y9406695D01*
X17034892Y9407806D01*
Y9412248D01*
X17035448Y9415024D01*
X17036835Y9420299D01*
X17039056Y9425018D01*
X17041277Y9428905D01*
X17043776Y9432237D01*
X17045998Y9434735D01*
X17047385Y9436123D01*
X17047662Y9436679D01*
X17047940D01*
X17050439Y9438622D01*
X17053215Y9440565D01*
X17059599Y9443342D01*
X17065987Y9445285D01*
X17072371Y9446673D01*
X17077924Y9447506D01*
X17080421Y9447783D01*
X17082643D01*
X17084309Y9448061D01*
X17085696D01*
X17086530D01*
X17086807D01*
X17091527D01*
X17096246Y9447506D01*
D02*
G37*
G36*
X17081810Y9327296D02*
X17075980Y9326740D01*
X17070428Y9325907D01*
X17065154Y9324797D01*
X17060432Y9323409D01*
X17055991Y9322021D01*
X17052106Y9320355D01*
X17048495Y9318689D01*
X17045164Y9317024D01*
X17042387Y9315358D01*
X17040167Y9313970D01*
X17038223Y9312582D01*
X17036559Y9311471D01*
X17035448Y9310638D01*
X17034892Y9310083D01*
X17034615Y9309805D01*
X17031284Y9306474D01*
X17028229Y9302865D01*
X17025729Y9298978D01*
X17023511Y9295091D01*
X17021565Y9291205D01*
X17020178Y9287596D01*
X17018790Y9283709D01*
X17017957Y9280377D01*
X17017123Y9276768D01*
X17016570Y9273714D01*
X17016014Y9270938D01*
X17015736Y9268717D01*
X17015459Y9266774D01*
Y9327573D01*
X17088194D01*
X17081810Y9327296D01*
D02*
G37*
G36*
X17074870Y9224575D02*
X17068484Y9225408D01*
X17062654Y9227074D01*
X17057657Y9229017D01*
X17053770Y9231238D01*
X17050439Y9233182D01*
X17047940Y9235125D01*
X17046552Y9236236D01*
X17045998Y9236791D01*
X17042387Y9241233D01*
X17039612Y9245675D01*
X17037668Y9250394D01*
X17036279Y9254836D01*
X17035448Y9258445D01*
X17035170Y9261499D01*
X17034892Y9262610D01*
Y9264275D01*
X17035170Y9267607D01*
X17035448Y9270661D01*
X17037112Y9276491D01*
X17039334Y9281488D01*
X17041833Y9285652D01*
X17044331Y9288984D01*
X17046552Y9291482D01*
X17048218Y9292870D01*
X17048495Y9293426D01*
X17048773D01*
X17052382Y9295924D01*
X17056548Y9298145D01*
X17060712Y9299533D01*
X17065154Y9300921D01*
X17068762Y9301754D01*
X17072093Y9302310D01*
X17073204D01*
X17074037Y9302587D01*
X17074593D01*
X17074870D01*
Y9224575D01*
D02*
G37*
G36*
X17157880Y9042178D02*
X17072649D01*
Y9074937D01*
X17072926Y9077991D01*
Y9080212D01*
X17073204Y9082155D01*
X17073482Y9083543D01*
Y9084654D01*
X17073759Y9085209D01*
Y9085487D01*
X17075146Y9089929D01*
X17075980Y9091872D01*
X17076813Y9093538D01*
X17077646Y9095204D01*
X17078201Y9096314D01*
X17078479Y9096869D01*
X17078757Y9097147D01*
X17080421Y9099368D01*
X17082365Y9101589D01*
X17086530Y9105753D01*
X17088474Y9107697D01*
X17090138Y9109085D01*
X17091249Y9109918D01*
X17091527Y9110195D01*
X17095415Y9112971D01*
X17099577Y9116025D01*
X17104021Y9119079D01*
X17108183Y9122133D01*
X17112071Y9124631D01*
X17115125Y9126575D01*
X17116235Y9127408D01*
X17117068Y9127963D01*
X17117622Y9128518D01*
X17117902D01*
X17157880Y9153782D01*
Y9042178D01*
D02*
G37*
G36*
X17021844Y9143787D02*
X17025175Y9143232D01*
X17027951Y9142399D01*
X17030450Y9141566D01*
X17032671Y9140456D01*
X17034337Y9139623D01*
X17035448Y9139068D01*
X17035725Y9138790D01*
X17038501Y9136847D01*
X17041000Y9134348D01*
X17042943Y9131850D01*
X17044609Y9129351D01*
X17045718Y9127130D01*
X17046552Y9125464D01*
X17047107Y9124354D01*
X17047385Y9123799D01*
X17048495Y9119912D01*
X17049329Y9115470D01*
X17049884Y9111028D01*
X17050162Y9106586D01*
X17050439Y9102699D01*
X17050716Y9099368D01*
Y9042178D01*
X16987141D01*
Y9102699D01*
X16987419Y9110195D01*
X16988528Y9116580D01*
X16989917Y9122133D01*
X16991583Y9126297D01*
X16993250Y9129906D01*
X16994637Y9132127D01*
X16995747Y9133515D01*
X16996025Y9134071D01*
X16999634Y9137402D01*
X17003242Y9139901D01*
X17007130Y9141566D01*
X17010461Y9142955D01*
X17013792Y9143510D01*
X17016290Y9143787D01*
X17017957Y9144065D01*
X17018234D01*
X17018512D01*
X17021844Y9143787D01*
D02*
G37*
G36*
X17081810Y8909474D02*
X17075980Y8908919D01*
X17070428Y8908086D01*
X17065154Y8906976D01*
X17060432Y8905588D01*
X17055991Y8904200D01*
X17052106Y8902534D01*
X17048495Y8900868D01*
X17045164Y8899202D01*
X17042387Y8897537D01*
X17040167Y8896149D01*
X17038223Y8894760D01*
X17036559Y8893650D01*
X17035448Y8892817D01*
X17034892Y8892262D01*
X17034615Y8891984D01*
X17031284Y8888653D01*
X17028229Y8885044D01*
X17025729Y8881157D01*
X17023511Y8877270D01*
X17021565Y8873384D01*
X17020178Y8869774D01*
X17018790Y8865888D01*
X17017957Y8862556D01*
X17017123Y8858947D01*
X17016570Y8855893D01*
X17016014Y8853117D01*
X17015736Y8850896D01*
X17015459Y8848953D01*
Y8909752D01*
X17088194D01*
X17081810Y8909474D01*
D02*
G37*
G36*
X17074870Y8806754D02*
X17068484Y8807587D01*
X17062654Y8809253D01*
X17057657Y8811196D01*
X17053770Y8813417D01*
X17050439Y8815361D01*
X17047940Y8817304D01*
X17046552Y8818414D01*
X17045998Y8818970D01*
X17042387Y8823412D01*
X17039612Y8827854D01*
X17037668Y8832573D01*
X17036279Y8837015D01*
X17035448Y8840624D01*
X17035170Y8843678D01*
X17034892Y8844789D01*
Y8846454D01*
X17035170Y8849786D01*
X17035448Y8852840D01*
X17037112Y8858670D01*
X17039334Y8863667D01*
X17041833Y8867831D01*
X17044331Y8871163D01*
X17046552Y8873661D01*
X17048218Y8875049D01*
X17048495Y8875605D01*
X17048773D01*
X17052382Y8878103D01*
X17056548Y8880324D01*
X17060712Y8881712D01*
X17065154Y8883100D01*
X17068762Y8883933D01*
X17072093Y8884488D01*
X17073204D01*
X17074037Y8884766D01*
X17074593D01*
X17074870D01*
Y8806754D01*
D02*
G37*
G36*
X17018512Y8731796D02*
X17035725D01*
X17032117Y8728743D01*
X17029062Y8725411D01*
X17026286Y8722080D01*
X17024065Y8718748D01*
X17022121Y8715139D01*
X17020456Y8711808D01*
X17019067Y8708476D01*
X17017957Y8705422D01*
X17017123Y8702368D01*
X17016570Y8699592D01*
X17016014Y8697094D01*
X17015736Y8695150D01*
X17015459Y8693485D01*
Y8753451D01*
X17018512D01*
Y8731796D01*
D02*
G37*
G36*
X17096246Y8730963D02*
X17100410Y8730408D01*
X17104021Y8729853D01*
X17107629Y8729020D01*
X17110960Y8727910D01*
X17113737Y8727077D01*
X17116235Y8725966D01*
X17118735Y8724856D01*
X17120677Y8724023D01*
X17122343Y8722912D01*
X17123453Y8722080D01*
X17124564Y8721524D01*
X17125397Y8720969D01*
X17125674Y8720414D01*
X17125952D01*
X17128172Y8718193D01*
X17130116Y8715972D01*
X17133170Y8711530D01*
X17135391Y8706810D01*
X17136778Y8702646D01*
X17137891Y8698759D01*
X17138167Y8695705D01*
X17138445Y8694595D01*
Y8692929D01*
X17138167Y8689875D01*
X17137891Y8687099D01*
X17136502Y8681824D01*
X17134558Y8677105D01*
X17132060Y8673218D01*
X17129839Y8669887D01*
X17127895Y8667666D01*
X17126508Y8666278D01*
X17125952Y8665722D01*
X17123453Y8663779D01*
X17120677Y8662113D01*
X17114291Y8659337D01*
X17107907Y8657671D01*
X17101244Y8656283D01*
X17095415Y8655450D01*
X17092638Y8655173D01*
X17090416D01*
X17088474Y8654895D01*
X17087085D01*
X17086252D01*
X17085974D01*
X17081255D01*
X17077090Y8655450D01*
X17073204Y8656006D01*
X17069318Y8656561D01*
X17065987Y8657394D01*
X17062932Y8658227D01*
X17059879Y8659337D01*
X17057379Y8660447D01*
X17055157Y8661280D01*
X17053215Y8662391D01*
X17051549Y8663224D01*
X17050439Y8664057D01*
X17049329Y8664612D01*
X17048495Y8665167D01*
X17048218Y8665722D01*
X17047940D01*
X17045718Y8667943D01*
X17043498Y8670164D01*
X17040443Y8674606D01*
X17037946Y8679048D01*
X17036559Y8683490D01*
X17035448Y8687099D01*
X17035170Y8690153D01*
X17034892Y8691264D01*
Y8695705D01*
X17035448Y8698482D01*
X17036835Y8703757D01*
X17039056Y8708476D01*
X17041277Y8712363D01*
X17043776Y8715694D01*
X17045998Y8718193D01*
X17047385Y8719581D01*
X17047662Y8720136D01*
X17047940D01*
X17050439Y8722080D01*
X17053215Y8724023D01*
X17059599Y8726799D01*
X17065987Y8728743D01*
X17072371Y8730131D01*
X17077924Y8730963D01*
X17080421Y8731241D01*
X17082643D01*
X17084309Y8731519D01*
X17085696D01*
X17086530D01*
X17086807D01*
X17091527D01*
X17096246Y8730963D01*
D02*
G37*
G36*
X17154825Y8609365D02*
X17151772Y8607977D01*
X17148994Y8606866D01*
X17146497Y8606311D01*
X17144275Y8605478D01*
X17142609Y8605201D01*
X17141499Y8604923D01*
X17141222D01*
X17139278Y8604645D01*
X17136778Y8604368D01*
X17134003D01*
X17130949Y8604090D01*
X17124010Y8603813D01*
X17117068D01*
X17110405Y8603535D01*
X17107352D01*
X17104852D01*
X17102632D01*
X17100966D01*
X17099857D01*
X17099577D01*
X17067929D01*
X17062654D01*
X17057935Y8603257D01*
X17054326Y8602980D01*
X17051273D01*
X17049051Y8602702D01*
X17047385Y8602425D01*
X17046552Y8602147D01*
X17046275D01*
X17042665Y8601314D01*
X17039612Y8600204D01*
X17037112Y8599093D01*
X17034615Y8597705D01*
X17032948Y8596594D01*
X17031561Y8595762D01*
X17030728Y8595206D01*
X17030450Y8594929D01*
X17028229Y8592708D01*
X17026009Y8590209D01*
X17024342Y8587433D01*
X17022678Y8584657D01*
X17021565Y8582158D01*
X17020734Y8580215D01*
X17020178Y8578827D01*
X17019901Y8578271D01*
X17018512Y8573829D01*
X17017403Y8569110D01*
X17016570Y8564390D01*
X17016014Y8559671D01*
X17015736Y8555506D01*
X17015459Y8552453D01*
Y8610753D01*
X17157880D01*
X17154825Y8609365D01*
D02*
G37*
G36*
X17096802Y8579382D02*
X17102354Y8579104D01*
X17107074Y8578827D01*
X17110960Y8578271D01*
X17114291Y8577439D01*
X17116791Y8576606D01*
X17118735Y8576050D01*
X17119844Y8575773D01*
X17120122Y8575495D01*
X17123730Y8573274D01*
X17127063Y8571053D01*
X17129839Y8568277D01*
X17132060Y8565778D01*
X17134003Y8563557D01*
X17135391Y8561614D01*
X17136224Y8560504D01*
X17136502Y8559948D01*
X17138445Y8555784D01*
X17139833Y8551620D01*
X17140944Y8547733D01*
X17141499Y8543846D01*
X17142055Y8540792D01*
X17142332Y8538016D01*
Y8535795D01*
X17142055Y8530798D01*
X17141499Y8526634D01*
X17140388Y8523025D01*
X17139278Y8519971D01*
X17138167Y8517750D01*
X17137057Y8516084D01*
X17136502Y8514974D01*
X17136224Y8514696D01*
X17133725Y8512475D01*
X17130949Y8510809D01*
X17128452Y8509421D01*
X17125952Y8508588D01*
X17123730Y8508033D01*
X17122066Y8507755D01*
X17120677D01*
X17120399D01*
X17118179Y8508033D01*
X17115958Y8508311D01*
X17114291Y8508866D01*
X17112627Y8509421D01*
X17111238Y8509976D01*
X17110127Y8510254D01*
X17109572Y8510809D01*
X17109296D01*
X17105963Y8513585D01*
X17103741Y8516917D01*
X17102908Y8518027D01*
X17102354Y8519138D01*
X17101799Y8519971D01*
Y8520248D01*
X17100688Y8523025D01*
X17099857Y8526078D01*
X17099023Y8529410D01*
X17098466Y8532741D01*
X17097913Y8535795D01*
X17097357Y8538571D01*
X17097079Y8540237D01*
Y8540792D01*
X17096246Y8545512D01*
X17095691Y8549954D01*
X17094858Y8553841D01*
X17094026Y8557727D01*
X17093193Y8561336D01*
X17092360Y8564390D01*
X17091805Y8567444D01*
X17090971Y8569943D01*
X17090416Y8572164D01*
X17089861Y8574107D01*
X17089307Y8575773D01*
X17088751Y8577161D01*
X17088474Y8578271D01*
X17088194Y8579104D01*
X17087918Y8579382D01*
Y8579659D01*
X17096802Y8579382D01*
D02*
G37*
G36*
X17080144Y8328134D02*
X17074593Y8327579D01*
X17069318Y8326746D01*
X17064320Y8325635D01*
X17059599Y8324247D01*
X17055437Y8322582D01*
X17051273Y8320916D01*
X17047940Y8319250D01*
X17044885Y8317584D01*
X17042110Y8315919D01*
X17039612Y8314253D01*
X17037668Y8312865D01*
X17036279Y8311754D01*
X17035170Y8310921D01*
X17034615Y8310366D01*
X17034337Y8310089D01*
X17031004Y8306479D01*
X17028229Y8302870D01*
X17025453Y8298984D01*
X17023511Y8295097D01*
X17021565Y8291210D01*
X17020178Y8287324D01*
X17017679Y8279828D01*
X17017123Y8276219D01*
X17016570Y8273165D01*
X17016014Y8270389D01*
X17015736Y8267890D01*
X17015459Y8265947D01*
Y8328412D01*
X17086252D01*
X17080144Y8328134D01*
D02*
G37*
G36*
X17097079Y8303703D02*
X17101244Y8303148D01*
X17105408Y8302315D01*
X17109016Y8301482D01*
X17112349Y8300372D01*
X17115402Y8299539D01*
X17118179Y8298428D01*
X17120399Y8297318D01*
X17122621Y8296207D01*
X17124286Y8295097D01*
X17125674Y8294264D01*
X17126785Y8293431D01*
X17127618Y8292876D01*
X17127895Y8292598D01*
X17128172Y8292321D01*
X17130394Y8290100D01*
X17132616Y8287601D01*
X17135947Y8282882D01*
X17138167Y8277884D01*
X17139833Y8273442D01*
X17140666Y8269278D01*
X17141222Y8266224D01*
X17141499Y8264836D01*
Y8263170D01*
X17141222Y8259839D01*
X17140944Y8256785D01*
X17139555Y8250955D01*
X17137335Y8245958D01*
X17134836Y8241794D01*
X17132616Y8238462D01*
X17130394Y8235963D01*
X17129005Y8234298D01*
X17128452Y8234020D01*
Y8233742D01*
X17125674Y8231799D01*
X17122897Y8229856D01*
X17116513Y8227080D01*
X17109850Y8224859D01*
X17103188Y8223470D01*
X17097357Y8222638D01*
X17094858Y8222360D01*
X17092638D01*
X17090694Y8222082D01*
X17089307D01*
X17088474D01*
X17088194D01*
X17083476Y8222360D01*
X17078757Y8222638D01*
X17074593Y8223193D01*
X17070705Y8224026D01*
X17067096Y8224859D01*
X17063765Y8225691D01*
X17060988Y8226802D01*
X17058212Y8227912D01*
X17055991Y8229023D01*
X17053770Y8230133D01*
X17052106Y8230966D01*
X17050716Y8231799D01*
X17049606Y8232632D01*
X17048773Y8233187D01*
X17048495Y8233742D01*
X17048218D01*
X17045998Y8235963D01*
X17043776Y8238462D01*
X17040443Y8243182D01*
X17038223Y8248179D01*
X17036559Y8252898D01*
X17035448Y8257063D01*
X17035170Y8260117D01*
X17034892Y8261505D01*
Y8263170D01*
X17035170Y8266502D01*
X17035448Y8269556D01*
X17036835Y8275108D01*
X17039056Y8280105D01*
X17041554Y8284270D01*
X17044054Y8287601D01*
X17045998Y8290100D01*
X17047662Y8291765D01*
X17047940Y8292321D01*
X17048218D01*
X17050716Y8294542D01*
X17053770Y8296207D01*
X17059879Y8299261D01*
X17066541Y8301482D01*
X17072649Y8302870D01*
X17078479Y8303703D01*
X17080977Y8303981D01*
X17083199D01*
X17084863Y8304258D01*
X17086252D01*
X17087085D01*
X17087363D01*
X17092360D01*
X17097079Y8303703D01*
D02*
G37*
G36*
X17157880Y8111866D02*
X16965764Y8186824D01*
X17157880D01*
Y8111866D01*
D02*
G37*
G36*
X17105408Y8108813D02*
X17111238Y8106592D01*
X17116791Y8104648D01*
X17122066Y8102983D01*
X17126785Y8101594D01*
X17130949Y8100206D01*
X17134003Y8099373D01*
X17135114Y8099096D01*
X17135947Y8098818D01*
X17136502Y8098541D01*
X17136778D01*
X17125674Y8095209D01*
X17120399Y8093543D01*
X17115680Y8091878D01*
X17111516Y8090490D01*
X17109850Y8089934D01*
X17108183Y8089657D01*
X17107074Y8089101D01*
X17106241Y8088824D01*
X17105685Y8088546D01*
X17105408D01*
X16965764Y8038574D01*
Y8161006D01*
X17105408Y8108813D01*
D02*
G37*
G36*
X17068207Y7894766D02*
X17075426Y7894211D01*
X17081810Y7893378D01*
X17087363Y7892545D01*
X17089584Y7891990D01*
X17091527Y7891435D01*
X17093469Y7890879D01*
X17094858Y7890602D01*
X17095969Y7890324D01*
X17096802Y7890046D01*
X17097357Y7889769D01*
X17097635D01*
X17102908Y7887825D01*
X17107629Y7885604D01*
X17111794Y7883106D01*
X17115402Y7880885D01*
X17118179Y7878942D01*
X17120122Y7877276D01*
X17121233Y7876165D01*
X17121788Y7875888D01*
X17124010Y7873112D01*
X17125952Y7870335D01*
X17127618Y7867559D01*
X17129283Y7864783D01*
X17130394Y7862284D01*
X17131227Y7860341D01*
X17131503Y7858953D01*
X17131783Y7858398D01*
X17132893Y7854233D01*
X17133725Y7849236D01*
X17134280Y7844239D01*
X17134558Y7839519D01*
X17134836Y7835355D01*
X17135114Y7833412D01*
Y7787882D01*
X16988528D01*
Y7832301D01*
X16988808Y7835910D01*
Y7839519D01*
X16989084Y7842851D01*
X16989917Y7848403D01*
X16990472Y7852845D01*
X16991306Y7856454D01*
X16992139Y7858953D01*
X16992416Y7860341D01*
X16992693Y7860896D01*
X16995192Y7865893D01*
X16998245Y7870613D01*
X17001855Y7874777D01*
X17005464Y7878386D01*
X17008797Y7881163D01*
X17011572Y7883384D01*
X17012682Y7883939D01*
X17013515Y7884494D01*
X17014070Y7885049D01*
X17014348D01*
X17017403Y7886715D01*
X17021011Y7888381D01*
X17028229Y7890879D01*
X17036003Y7892545D01*
X17043498Y7893933D01*
X17046831Y7894211D01*
X17050162Y7894488D01*
X17052937Y7894766D01*
X17055437D01*
X17057657Y7895044D01*
X17059045D01*
X17060156D01*
X17060432D01*
X17068207Y7894766D01*
D02*
G37*
G36*
X17095969Y7727082D02*
X17090416Y7725972D01*
X17085696Y7724306D01*
X17081255Y7722640D01*
X17077924Y7720975D01*
X17075426Y7719309D01*
X17073759Y7718198D01*
X17073204Y7717921D01*
X17068762Y7714034D01*
X17065154Y7709870D01*
X17062099Y7705150D01*
X17059599Y7700986D01*
X17057657Y7697099D01*
X17056548Y7693768D01*
X17055991Y7692657D01*
X17055714Y7691824D01*
X17055437Y7691269D01*
Y7690991D01*
X17052660Y7695711D01*
X17049884Y7699875D01*
X17046831Y7703207D01*
X17044054Y7705983D01*
X17041833Y7708204D01*
X17039612Y7709870D01*
X17038501Y7710703D01*
X17037946Y7710980D01*
X17033781Y7713201D01*
X17029895Y7714867D01*
X17026009Y7716255D01*
X17022398Y7717088D01*
X17019345Y7717643D01*
X17016847Y7717921D01*
X17015459D01*
X17014903D01*
X17010184Y7717643D01*
X17005464Y7716810D01*
X17001300Y7715422D01*
X16997414Y7714034D01*
X16994083Y7712646D01*
X16991861Y7711258D01*
X16990195Y7710425D01*
X16989639Y7710147D01*
X16985475Y7707094D01*
X16981589Y7703762D01*
X16978535Y7700153D01*
X16976036Y7696822D01*
X16974094Y7694045D01*
X16972705Y7691547D01*
X16971872Y7689881D01*
X16971594Y7689603D01*
Y7689326D01*
X16969650Y7684051D01*
X16968263Y7678221D01*
X16967152Y7672391D01*
X16966597Y7666838D01*
X16966042Y7661841D01*
Y7659620D01*
X16965764Y7657677D01*
Y7727360D01*
X17102077D01*
X17095969Y7727082D01*
D02*
G37*
G36*
X17105408Y7700986D02*
X17108739Y7700708D01*
X17111516Y7700153D01*
X17113737Y7699320D01*
X17115680Y7698487D01*
X17117346Y7697932D01*
X17118179Y7697654D01*
X17118456Y7697377D01*
X17120955Y7695711D01*
X17123177Y7694323D01*
X17124841Y7692380D01*
X17126508Y7690991D01*
X17127618Y7689603D01*
X17128452Y7688493D01*
X17129005Y7687660D01*
X17129283Y7687382D01*
X17131503Y7682663D01*
X17133170Y7677943D01*
X17133725Y7676000D01*
X17134003Y7674334D01*
X17134280Y7673224D01*
Y7672946D01*
X17134558Y7670725D01*
X17134836Y7668226D01*
X17135114Y7662396D01*
Y7607705D01*
X17069040D01*
Y7658232D01*
X17069595Y7664062D01*
X17070151Y7668782D01*
X17070705Y7672668D01*
X17071260Y7675722D01*
X17071815Y7678221D01*
X17072093Y7679331D01*
X17072371Y7679887D01*
X17073759Y7683496D01*
X17075426Y7686550D01*
X17077368Y7689326D01*
X17079312Y7691547D01*
X17080977Y7693212D01*
X17082365Y7694323D01*
X17083476Y7695156D01*
X17083752Y7695433D01*
X17086807Y7697377D01*
X17089861Y7698765D01*
X17092915Y7699875D01*
X17095691Y7700431D01*
X17098190Y7700986D01*
X17100410Y7701263D01*
X17101521D01*
X17102077D01*
X17105408Y7700986D01*
D02*
G37*
G36*
X17021565Y7692657D02*
X17024898Y7692102D01*
X17027673Y7691269D01*
X17029895Y7690436D01*
X17031837Y7689603D01*
X17033504Y7688770D01*
X17034337Y7688215D01*
X17034615Y7687938D01*
X17036835Y7685994D01*
X17039056Y7683496D01*
X17040723Y7680997D01*
X17041833Y7678776D01*
X17042943Y7676555D01*
X17043776Y7674889D01*
X17044054Y7673779D01*
X17044331Y7673224D01*
X17044885Y7670170D01*
X17045442Y7666283D01*
X17045718Y7662396D01*
X17045998Y7658510D01*
X17046275Y7654901D01*
Y7607705D01*
X16988528D01*
Y7653235D01*
X16989084Y7659343D01*
X16989362Y7664062D01*
X16989917Y7668226D01*
X16990472Y7671280D01*
X16990750Y7673224D01*
X16991306Y7674612D01*
Y7674889D01*
X16992416Y7677943D01*
X16994083Y7680719D01*
X16995747Y7682940D01*
X16997414Y7684884D01*
X16998801Y7686272D01*
X17000189Y7687382D01*
X17001022Y7687938D01*
X17001300Y7688215D01*
X17004076Y7689881D01*
X17006853Y7690991D01*
X17009628Y7691824D01*
X17012405Y7692380D01*
X17014626Y7692657D01*
X17016290Y7692935D01*
X17017403D01*
X17017957D01*
X17021565Y7692657D01*
D02*
G37*
G36*
X17021844Y7323142D02*
X17025175Y7322587D01*
X17027951Y7321754D01*
X17030450Y7320921D01*
X17032671Y7319811D01*
X17034337Y7318978D01*
X17035448Y7318423D01*
X17035725Y7318145D01*
X17038501Y7316202D01*
X17041000Y7313703D01*
X17042943Y7311205D01*
X17044609Y7308706D01*
X17045718Y7306485D01*
X17046552Y7304819D01*
X17047107Y7303709D01*
X17047385Y7303154D01*
X17048495Y7299267D01*
X17049329Y7294825D01*
X17049884Y7290383D01*
X17050162Y7285941D01*
X17050439Y7282054D01*
X17050716Y7278723D01*
Y7221533D01*
X16987141D01*
Y7282054D01*
X16987419Y7289550D01*
X16988528Y7295935D01*
X16989917Y7301488D01*
X16991583Y7305652D01*
X16993250Y7309261D01*
X16994637Y7311482D01*
X16995747Y7312870D01*
X16996025Y7313426D01*
X16999634Y7316757D01*
X17003242Y7319256D01*
X17007130Y7320921D01*
X17010461Y7322309D01*
X17013792Y7322865D01*
X17016290Y7323142D01*
X17017957Y7323420D01*
X17018234D01*
X17018512D01*
X17021844Y7323142D01*
D02*
G37*
%LPC*%
G36*
X4083015Y3394981D02*
Y3392760D01*
D01*
Y3394981D01*
D02*
G37*
G36*
Y3333348D02*
Y3332793D01*
D01*
Y3333348D01*
D02*
G37*
G36*
Y3306974D02*
D01*
D01*
D01*
D02*
G37*
G36*
Y3304753D02*
Y3303920D01*
D01*
Y3304753D01*
D02*
G37*
G36*
Y3288374D02*
Y3284765D01*
D01*
Y3288374D01*
D02*
G37*
G36*
Y3279767D02*
Y3275881D01*
D01*
Y3279767D01*
D02*
G37*
G36*
Y3257835D02*
Y3253116D01*
D01*
Y3257835D01*
D02*
G37*
G36*
X4274296Y3414136D02*
X4248477D01*
X4196284Y3274493D01*
X4194063Y3268662D01*
X4192120Y3263110D01*
X4190454Y3257835D01*
X4189066Y3253116D01*
X4187678Y3248951D01*
X4186845Y3245897D01*
X4186568Y3244787D01*
X4186290Y3243954D01*
X4186012Y3243399D01*
Y3243121D01*
X4182681Y3254226D01*
X4181015Y3259501D01*
X4179350Y3264221D01*
X4177961Y3268385D01*
X4177406Y3270051D01*
X4177129Y3271716D01*
X4176573Y3272827D01*
X4176296Y3273660D01*
X4176018Y3274215D01*
Y3274493D01*
X4126046Y3414136D01*
X4098284D01*
X4172687Y3222022D01*
X4199338D01*
X4274296Y3414136D01*
D02*
G37*
G36*
X4083015D02*
X3939484D01*
Y3222022D01*
X4083015D01*
Y3244787D01*
X3965025D01*
Y3310028D01*
X4071355D01*
Y3332793D01*
X3965025D01*
Y3391371D01*
X4078573D01*
Y3414136D01*
X4083015D01*
D02*
G37*
G36*
X3834821D02*
X3745704D01*
Y3222022D01*
X3914498D01*
X3881461Y3274215D01*
X3877574Y3279767D01*
X3873965Y3284765D01*
X3870356Y3288929D01*
X3867302Y3292816D01*
X3864526Y3295592D01*
X3862305Y3297813D01*
X3860917Y3299201D01*
X3860362Y3299756D01*
X3858141Y3301422D01*
X3855642Y3303365D01*
X3850645Y3306419D01*
X3848424Y3307530D01*
X3846758Y3308640D01*
X3845648Y3309195D01*
X3845093Y3309473D01*
X3850090Y3310306D01*
X3854809Y3311139D01*
X3858974Y3312527D01*
X3863138Y3313637D01*
X3866747Y3315025D01*
X3870079Y3316691D01*
X3873132Y3318079D01*
X3875909Y3319467D01*
X3878130Y3321133D01*
X3880351Y3322521D01*
X3882016Y3323632D01*
X3883404Y3324742D01*
X3884515Y3325575D01*
X3885348Y3326408D01*
X3885625Y3326685D01*
X3885903Y3326963D01*
X3888124Y3329739D01*
X3890345Y3332516D01*
X3893676Y3338346D01*
X3895897Y3344176D01*
X3897563Y3349728D01*
X3898674Y3354448D01*
X3898951Y3356391D01*
Y3358334D01*
X3899229Y3359723D01*
Y3360833D01*
Y3361388D01*
Y3361666D01*
X3898951Y3367496D01*
X3898118Y3372771D01*
X3896730Y3377768D01*
X3895342Y3381932D01*
X3893676Y3385541D01*
X3892566Y3388318D01*
X3891456Y3389983D01*
X3891178Y3390261D01*
Y3390539D01*
X3887846Y3394981D01*
X3884515Y3398867D01*
X3880906Y3402199D01*
X3877574Y3404697D01*
X3874521Y3406641D01*
X3872022Y3407751D01*
X3870356Y3408584D01*
X3870079Y3408862D01*
X3869801D01*
X3867302Y3409694D01*
X3864249Y3410527D01*
X3858141Y3411915D01*
X3851478Y3412748D01*
X3845370Y3413581D01*
X3839540Y3413859D01*
X3837042D01*
X3834821Y3414136D01*
D02*
G37*
G36*
X3956003Y3141119D02*
X3803311D01*
X3877991D01*
X3870773Y3140841D01*
X3864387Y3140008D01*
X3858280Y3138898D01*
X3853005Y3137787D01*
X3848841Y3136677D01*
X3846897Y3136122D01*
X3845509Y3135566D01*
X3844399Y3135011D01*
X3843566Y3134734D01*
X3843011Y3134456D01*
X3842733D01*
X3837181Y3131680D01*
X3832183Y3128626D01*
X3828019Y3125294D01*
X3824688Y3122241D01*
X3822189Y3119464D01*
X3820246Y3117243D01*
X3818857Y3115578D01*
X3818580Y3115300D01*
Y3115022D01*
X3815804Y3110303D01*
X3813860Y3105583D01*
X3812472Y3100864D01*
X3811639Y3096699D01*
X3811084Y3093090D01*
X3810529Y3090314D01*
Y3089204D01*
Y3088371D01*
Y3088093D01*
Y3087816D01*
X3810806Y3083096D01*
X3811639Y3078654D01*
X3812750Y3074490D01*
X3813860Y3070881D01*
X3814971Y3068104D01*
X3816081Y3065883D01*
X3816914Y3064495D01*
X3817192Y3063940D01*
X3819968Y3060053D01*
X3823299Y3056444D01*
X3826631Y3053390D01*
X3829962Y3050892D01*
X3832739Y3048671D01*
X3835237Y3047283D01*
X3836903Y3046172D01*
X3837181Y3045895D01*
X3837458D01*
X3839679Y3044784D01*
X3842178Y3043674D01*
X3847730Y3041730D01*
X3854115Y3039787D01*
X3860223Y3037844D01*
X3865776Y3036178D01*
X3868274Y3035623D01*
X3870495Y3035067D01*
X3872161Y3034512D01*
X3873549Y3034234D01*
X3874382Y3033957D01*
X3874660D01*
X3879379Y3032846D01*
X3883821Y3031736D01*
X3887708Y3030625D01*
X3891039Y3029793D01*
X3894371Y3028960D01*
X3897147Y3028127D01*
X3899645Y3027572D01*
X3901589Y3026739D01*
X3903532Y3026183D01*
X3904920Y3025906D01*
X3907141Y3025073D01*
X3908529Y3024795D01*
X3908807Y3024518D01*
X3912971Y3022852D01*
X3916580Y3020909D01*
X3919634Y3018965D01*
X3921855Y3017300D01*
X3923799Y3015634D01*
X3924909Y3014523D01*
X3925742Y3013690D01*
X3926020Y3013413D01*
X3927963Y3010914D01*
X3929351Y3008138D01*
X3930184Y3005362D01*
X3931017Y3003141D01*
X3931294Y3000920D01*
X3931572Y2999254D01*
Y2997866D01*
Y2997588D01*
X3931294Y2994257D01*
X3930739Y2991203D01*
X3929906Y2988427D01*
X3928796Y2986206D01*
X3927685Y2983985D01*
X3926852Y2982597D01*
X3926297Y2981486D01*
X3926020Y2981209D01*
X3923799Y2978432D01*
X3921022Y2976211D01*
X3918246Y2974268D01*
X3915748Y2972325D01*
X3913249Y2971214D01*
X3911306Y2970104D01*
X3909918Y2969549D01*
X3909362Y2969271D01*
X3905198Y2967883D01*
X3900756Y2966772D01*
X3896314Y2966217D01*
X3892427Y2965662D01*
X3889096Y2965384D01*
X3886320Y2965107D01*
X3883821D01*
X3877713Y2965384D01*
X3872161Y2965939D01*
X3867164Y2966772D01*
X3862722Y2967883D01*
X3859113Y2968993D01*
X3856336Y2969826D01*
X3855504Y2970104D01*
X3854671Y2970381D01*
X3854393Y2970659D01*
X3854115D01*
X3849674Y2972880D01*
X3845509Y2975379D01*
X3842455Y2977877D01*
X3839679Y2980376D01*
X3837458Y2982319D01*
X3836070Y2984263D01*
X3835237Y2985373D01*
X3834960Y2985651D01*
X3833016Y2989260D01*
X3831073Y2993146D01*
X3829962Y2997311D01*
X3828852Y3000920D01*
X3828019Y3004529D01*
X3827464Y3007028D01*
Y3008138D01*
X3827186Y3008971D01*
Y3009248D01*
Y3009526D01*
X3803311Y3007305D01*
D01*
X3803866Y3000365D01*
X3804976Y2993702D01*
X3806642Y2987872D01*
X3808585Y2982597D01*
X3810529Y2978432D01*
X3811362Y2976767D01*
X3811917Y2975379D01*
X3812750Y2974268D01*
X3813027Y2973435D01*
X3813583Y2972880D01*
Y2972602D01*
X3817747Y2967328D01*
X3822189Y2962608D01*
X3826909Y2958721D01*
X3831350Y2955390D01*
X3835237Y2952891D01*
X3838569Y2951225D01*
X3839679Y2950670D01*
X3840512Y2950115D01*
X3841067Y2949837D01*
X3841345D01*
X3848285Y2947339D01*
X3855504Y2945395D01*
X3862722Y2944285D01*
X3869662Y2943174D01*
X3872994Y2942897D01*
X3875770Y2942619D01*
X3878269D01*
X3880490Y2942342D01*
X3884932D01*
X3892427Y2942619D01*
X3899368Y2943452D01*
X3905753Y2944840D01*
X3911028Y2946228D01*
X3915470Y2947339D01*
X3917413Y2948172D01*
X3919079Y2948727D01*
X3920190Y2949282D01*
X3921022Y2949560D01*
X3921578Y2949837D01*
X3921855D01*
X3927685Y2952891D01*
X3932683Y2956223D01*
X3937124Y2959832D01*
X3940734Y2963163D01*
X3943510Y2965939D01*
X3945453Y2968438D01*
X3946841Y2970104D01*
X3947119Y2970381D01*
Y2970659D01*
X3950173Y2975934D01*
X3952394Y2980931D01*
X3953782Y2985651D01*
X3954892Y2990093D01*
X3955448Y2993979D01*
X3956003Y2997033D01*
Y2942342D01*
D01*
Y3141119D01*
D02*
G37*
G36*
X4216690Y3137787D02*
X4065386D01*
Y2945673D01*
X4089817D01*
Y3096422D01*
X4190316Y2945673D01*
X4110191D01*
X4216690D01*
Y3137787D01*
D02*
G37*
G36*
X4044842Y3141119D02*
Y2942342D01*
X4044841D01*
X4044842D01*
Y3141119D01*
D02*
G37*
G36*
D02*
X4025963D01*
X3970161Y2942342D01*
D01*
X3989040D01*
X4044842Y3141119D01*
D02*
G37*
%LPD*%
G36*
X3839263Y3392482D02*
X3845648Y3391371D01*
X3851200Y3389983D01*
X3855365Y3388318D01*
X3858974Y3386652D01*
X3861195Y3385264D01*
X3862583Y3384153D01*
X3863138Y3383876D01*
X3866470Y3380267D01*
X3868968Y3376657D01*
X3870634Y3372771D01*
X3872022Y3369439D01*
X3872577Y3366108D01*
X3872855Y3363609D01*
X3873132Y3361943D01*
Y3361666D01*
Y3361388D01*
X3872855Y3358057D01*
X3872300Y3354725D01*
X3871467Y3351949D01*
X3870634Y3349451D01*
X3869523Y3347230D01*
X3868691Y3345564D01*
X3868135Y3344453D01*
X3867858Y3344176D01*
X3865914Y3341399D01*
X3863416Y3338901D01*
X3860917Y3336958D01*
X3858418Y3335292D01*
X3856198Y3334181D01*
X3854532Y3333348D01*
X3853421Y3332793D01*
X3852866Y3332516D01*
X3848979Y3331405D01*
X3844537Y3330572D01*
X3840095Y3330017D01*
X3835653Y3329739D01*
X3831767Y3329462D01*
X3828435Y3329184D01*
X3771245D01*
Y3392760D01*
X3831767D01*
X3839263Y3392482D01*
D02*
G37*
G36*
X3807058Y3306974D02*
X3809279D01*
X3811223Y3306697D01*
X3812611Y3306419D01*
X3813721D01*
X3814277Y3306141D01*
X3814554D01*
X3818996Y3304753D01*
X3820940Y3303920D01*
X3822605Y3303088D01*
X3824271Y3302255D01*
X3825381Y3301700D01*
X3825937Y3301422D01*
X3826214Y3301144D01*
X3828435Y3299479D01*
X3830656Y3297535D01*
X3834821Y3293371D01*
X3836764Y3291428D01*
X3838152Y3289762D01*
X3838985Y3288651D01*
X3839263Y3288374D01*
X3842039Y3284487D01*
X3845093Y3280323D01*
X3848146Y3275881D01*
X3851200Y3271716D01*
X3853699Y3267830D01*
X3855642Y3264776D01*
X3856475Y3263665D01*
X3857030Y3262832D01*
X3857586Y3262277D01*
Y3262000D01*
X3882849Y3222022D01*
X3771245D01*
Y3307252D01*
X3804005D01*
X3807058Y3306974D01*
D02*
G37*
G36*
X3956003Y2999532D02*
X3955725Y3005084D01*
X3954892Y3010359D01*
X3953504Y3015079D01*
X3952116Y3018965D01*
X3950450Y3022297D01*
X3949340Y3024795D01*
X3948229Y3026183D01*
X3947952Y3026739D01*
X3944620Y3030903D01*
X3940734Y3034790D01*
X3936569Y3038121D01*
X3932405Y3041175D01*
X3928796Y3043396D01*
X3925742Y3045062D01*
X3924631Y3045617D01*
X3923799Y3046172D01*
X3923243Y3046450D01*
X3922966D01*
X3920745Y3047560D01*
X3917969Y3048393D01*
X3914915Y3049504D01*
X3911583Y3050614D01*
X3904643Y3052558D01*
X3897425Y3054501D01*
X3894093Y3055334D01*
X3891039Y3056167D01*
X3887985Y3056999D01*
X3885487Y3057555D01*
X3883543Y3058110D01*
X3881878Y3058388D01*
X3880767Y3058665D01*
X3880490D01*
X3874937Y3060053D01*
X3869940Y3061164D01*
X3865498Y3062552D01*
X3861611Y3063662D01*
X3858002Y3065051D01*
X3854948Y3066161D01*
X3852172Y3067271D01*
X3849674Y3068104D01*
X3847730Y3069215D01*
X3846064Y3070048D01*
X3844954Y3070603D01*
X3843843Y3071436D01*
X3842455Y3072269D01*
X3842178Y3072546D01*
X3839679Y3075323D01*
X3838013Y3078099D01*
X3836625Y3080875D01*
X3835792Y3083651D01*
X3835237Y3085872D01*
X3834960Y3087816D01*
Y3088926D01*
Y3089481D01*
X3835515Y3093923D01*
X3836625Y3097810D01*
X3838291Y3101141D01*
X3840234Y3104195D01*
X3841900Y3106416D01*
X3843566Y3108360D01*
X3844676Y3109470D01*
X3845232Y3109748D01*
X3847453Y3111136D01*
X3849674Y3112524D01*
X3854948Y3114745D01*
X3860501Y3116133D01*
X3866053Y3117243D01*
X3871050Y3117799D01*
X3873271Y3118076D01*
X3874937Y3118354D01*
X3878824D01*
X3886597Y3118076D01*
X3893538Y3116966D01*
X3899090Y3115300D01*
X3903810Y3113634D01*
X3907419Y3111969D01*
X3910195Y3110303D01*
X3911583Y3109192D01*
X3912138Y3108915D01*
X3916025Y3105028D01*
X3919079Y3100864D01*
X3921578Y3096422D01*
X3923243Y3091980D01*
X3924354Y3087816D01*
X3925187Y3084762D01*
X3925464Y3083374D01*
X3925742Y3082541D01*
Y3081985D01*
Y3081708D01*
X3950173Y3083651D01*
X3949617Y3089759D01*
X3948229Y3095311D01*
X3946841Y3100586D01*
X3944898Y3105028D01*
X3943232Y3108637D01*
X3941844Y3111413D01*
X3941289Y3112246D01*
X3940734Y3113079D01*
X3940456Y3113357D01*
Y3113634D01*
X3936847Y3118354D01*
X3932960Y3122518D01*
X3928796Y3126127D01*
X3924631Y3128904D01*
X3921022Y3131402D01*
X3918246Y3132790D01*
X3917136Y3133346D01*
X3916303Y3133901D01*
X3915748Y3134178D01*
X3915470D01*
X3909362Y3136399D01*
X3902699Y3138065D01*
X3896592Y3139453D01*
X3890762Y3140286D01*
X3885487Y3140841D01*
X3883543D01*
X3881600Y3141119D01*
X3956003D01*
Y2999532D01*
D02*
G37*
G36*
X4192259Y2986761D02*
X4091482Y3137787D01*
X4192259D01*
Y2986761D01*
D02*
G37*
D83*
X4351020Y4681171D02*
Y4554212D01*
X4376412Y4528820D01*
X4427195D01*
X4452587Y4554212D01*
Y4681171D01*
X4604938D02*
X4503371D01*
Y4604995D01*
X4554154Y4630387D01*
X4579546D01*
X4604938Y4604995D01*
Y4554212D01*
X4579546Y4528820D01*
X4528763D01*
X4503371Y4554212D01*
D119*
X4355200Y3838700D02*
G03*
X4355200Y3838700I-10000J0D01*
G01*
X10233021Y8954002D02*
G03*
X10243021Y8954002I5000J0D01*
G01*
D02*
G03*
X10233021Y8954002I-5000J0D01*
G01*
X10494002Y6896979D02*
G03*
X10494002Y6906979I0J5000D01*
G01*
D02*
G03*
X10494002Y6896979I0J-5000D01*
G01*
Y6421979D02*
G03*
X10494002Y6431979I0J5000D01*
G01*
D02*
G03*
X10494002Y6421979I0J-5000D01*
G01*
X9703021Y8954002D02*
G03*
X9713021Y8954002I5000J0D01*
G01*
D02*
G03*
X9703021Y8954002I-5000J0D01*
G01*
X12790000Y4847501D02*
G03*
X12810001Y4847501I10000J0D01*
G01*
D02*
G03*
X12790000Y4847501I-10000J0D01*
G01*
X12810001Y5547500D02*
G03*
X12790000Y5547500I-10000J0D01*
G01*
D02*
G03*
X12810001Y5547500I10000J0D01*
G01*
X12790000Y3447501D02*
G03*
X12810001Y3447501I10000J0D01*
G01*
D02*
G03*
X12790000Y3447501I-10000J0D01*
G01*
X12810001Y4132500D02*
G03*
X12790000Y4132500I-10000J0D01*
G01*
D02*
G03*
X12810001Y4132500I10000J0D01*
G01*
X13030000Y3820000D02*
G03*
X13030000Y3800000I0J-10000D01*
G01*
D02*
G03*
X13030000Y3820000I0J10000D01*
G01*
Y3540000D02*
G03*
X13030000Y3520000I0J-10000D01*
G01*
D02*
G03*
X13030000Y3540000I0J10000D01*
G01*
X10351214Y3531212D02*
G03*
X10351214Y3511212I0J-10000D01*
G01*
D02*
G03*
X10351214Y3531212I0J10000D01*
G01*
Y3811212D02*
G03*
X10351214Y3791212I0J-10000D01*
G01*
D02*
G03*
X10351214Y3811212I0J10000D01*
G01*
X10131214Y5538713D02*
G03*
X10111214Y5538713I-10000J0D01*
G01*
D02*
G03*
X10131214Y5538713I10000J0D01*
G01*
X10111214Y3438713D02*
G03*
X10131214Y3438713I10000J0D01*
G01*
D02*
G03*
X10111214Y3438713I-10000J0D01*
G01*
X10131214Y4123713D02*
G03*
X10111214Y4123713I-10000J0D01*
G01*
D02*
G03*
X10131214Y4123713I10000J0D01*
G01*
X10111214Y4838713D02*
G03*
X10131214Y4838713I10000J0D01*
G01*
D02*
G03*
X10111214Y4838713I-10000J0D01*
G01*
X7382500Y4000000D02*
G03*
X7382500Y3980000I0J-10000D01*
G01*
D02*
G03*
X7382500Y4000000I0J10000D01*
G01*
X7392500Y4580000D02*
G03*
X7392500Y4600000I0J10000D01*
G01*
D02*
G03*
X7392500Y4580000I0J-10000D01*
G01*
X13635001Y9710000D02*
G03*
X13645000Y9710000I5000J0D01*
G01*
D02*
G03*
X13635001Y9710000I-5000J0D01*
G01*
X13105000D02*
G03*
X13114999Y9710000I5000J0D01*
G01*
D02*
G03*
X13105000Y9710000I-5000J0D01*
G01*
X14689999D02*
G03*
X14680000Y9710000I-5000J0D01*
G01*
D02*
G03*
X14689999Y9710000I5000J0D01*
G01*
X14214999D02*
G03*
X14205000Y9710000I-5000J0D01*
G01*
D02*
G03*
X14214999Y9710000I5000J0D01*
G01*
X16910001Y4340000D02*
G03*
X16889999Y4340000I-10000J0D01*
G01*
D02*
G03*
X16910001Y4340000I10000J0D01*
G01*
X16610001D02*
G03*
X16589999Y4340000I-10000J0D01*
G01*
D02*
G03*
X16610001Y4340000I10000J0D01*
G01*
X7730000Y3040000D02*
G03*
X7740000Y3040000I5000J0D01*
G01*
D02*
G03*
X7730000Y3040000I-5000J0D01*
G01*
X7290000Y3240000D02*
G03*
X7280000Y3240000I-5000J0D01*
G01*
D02*
G03*
X7290000Y3240000I5000J0D01*
G01*
X8001800Y3040000D02*
G03*
X8001800Y3040000I-3500J0D01*
G01*
X10390000Y12140000D02*
G03*
X10410000Y12140000I10000J0D01*
G01*
D02*
G03*
X10390000Y12140000I-10000J0D01*
G01*
X16489999Y11040001D02*
G03*
X16510001Y11040001I10000J0D01*
G01*
D02*
G03*
X16489999Y11040001I-10000J0D01*
G01*
X5335000Y9750001D02*
G03*
X5335000Y9750001I-10000J0D01*
G01*
X5570000Y8880000D02*
G03*
X5580000Y8880000I5000J0D01*
G01*
D02*
G03*
X5570000Y8880000I-5000J0D01*
G01*
X5485000Y9050000D02*
G03*
X5485000Y9050000I-10000J0D01*
G01*
X8120000Y10980000D02*
G03*
X8120000Y10990000I0J5000D01*
G01*
D02*
G03*
X8120000Y10980000I0J-5000D01*
G01*
X7825000Y11468700D02*
G03*
X7825000Y11458700I0J-5000D01*
G01*
D02*
G03*
X7825000Y11468700I0J5000D01*
G01*
X6887500Y9066000D02*
G03*
X6887500Y9066000I-10000J0D01*
G01*
X6564544Y10703361D02*
X6595091Y10733908D01*
X6483722Y10784183D02*
X6564544Y10703361D01*
X6595091Y10733908D02*
X6625639Y10764455D01*
X6544816Y10845278D02*
X6625639Y10764455D01*
X6995000Y4455000D02*
Y4625000D01*
X6825000Y4455000D02*
Y4625000D01*
X5252500Y3920000D02*
X5427500D01*
X5252500Y3760000D02*
X5427500D01*
X5252500Y4260000D02*
X5427500D01*
X5252500Y4420000D02*
X5427500D01*
X5125000Y3755000D02*
Y3925000D01*
X4955000Y3755000D02*
Y3925000D01*
Y4155000D02*
Y4325000D01*
X5125000Y4155000D02*
Y4325000D01*
X5748021Y5779002D02*
Y6174003D01*
Y6884002D02*
Y7279002D01*
X5625521Y6884002D02*
X5870521D01*
X5625521Y6174003D02*
Y6884002D01*
Y6174003D02*
X5870521D01*
Y6884002D01*
X5867500Y9487904D02*
X6732500D01*
X5867500Y9312097D02*
Y9487904D01*
Y9312097D02*
X6732500D01*
Y9487904D01*
X7548021Y5614002D02*
X7943021D01*
X6443021D02*
X6838021D01*
Y5491502D02*
Y5736502D01*
Y5491502D02*
X7548021D01*
Y5736502D01*
X6838021D02*
X7548021D01*
X6645997Y7660000D02*
X7040998D01*
X5540998D02*
X5935998D01*
Y7537501D02*
Y7782500D01*
Y7537501D02*
X6645997D01*
Y7782500D01*
X5935998D02*
X6645997D01*
X5540998Y7960000D02*
X5935998D01*
X6645998D02*
X7040998D01*
X6645998Y7837500D02*
Y8082500D01*
X5935998D02*
X6645998D01*
X5935998Y7837500D02*
Y8082500D01*
Y7837500D02*
X6645998D01*
X5540998Y8230001D02*
X5935998D01*
X6645998D02*
X7040998D01*
X6645998Y8107501D02*
Y8352500D01*
X5935998D02*
X6645998D01*
X5935998Y8107501D02*
Y8352500D01*
Y8107501D02*
X6645998D01*
X5478021Y5779002D02*
Y6174003D01*
Y6884002D02*
Y7279002D01*
X5355521Y6884002D02*
X5600521D01*
X5355521Y6174003D02*
Y6884002D01*
Y6174003D02*
X5600521D01*
Y6884002D01*
X8358021Y6604002D02*
Y6999003D01*
Y5499002D02*
Y5894002D01*
X8235521D02*
X8480521D01*
Y6604002D01*
X8235521D02*
X8480521D01*
X8235521Y5894002D02*
Y6604002D01*
X6443021Y6174002D02*
X6838021D01*
X7548021D02*
X7943021D01*
X7548021Y6051503D02*
Y6296502D01*
X6838021D02*
X7548021D01*
X6838021Y6051503D02*
Y6296502D01*
Y6051503D02*
X7548021D01*
Y5344002D02*
X7943021D01*
X6443021D02*
X6838021D01*
Y5221502D02*
Y5466502D01*
Y5221502D02*
X7548021D01*
Y5466502D01*
X6838021D02*
X7548021D01*
Y5884002D02*
X7943021D01*
X6443021D02*
X6838021D01*
Y5761503D02*
Y6006502D01*
Y5761503D02*
X7548021D01*
Y6006502D01*
X6838021D02*
X7548021D01*
X5936021Y6825099D02*
Y6980906D01*
X6926021D01*
Y6825099D02*
Y6980906D01*
X5936021Y6825099D02*
X6926021D01*
X6495521Y7431503D02*
X6600521D01*
X6494988Y7295936D02*
X6599988D01*
X10233021Y8954002D02*
X10243021D01*
X10494002Y6896979D02*
Y6906979D01*
Y6421979D02*
Y6431979D01*
X9703021Y8954002D02*
X9713021D01*
X8170521Y6796099D02*
Y6971906D01*
X7305521Y6796099D02*
X8170521D01*
X7305521D02*
Y6971906D01*
X8170521D01*
X7625521Y6396503D02*
X7730521D01*
X7626054Y6532069D02*
X7731054D01*
X7735521Y7391503D02*
X7840521D01*
X7734988Y7255936D02*
X7839988D01*
X12680000Y6342500D02*
X13389999D01*
Y6097500D02*
Y6342500D01*
X12680000Y6097500D02*
X13389999D01*
X12680000D02*
Y6342500D01*
X12285000Y6220000D02*
X12680000D01*
X13389999D02*
X13785001D01*
X12680000Y6072500D02*
X13389999D01*
Y5827500D02*
Y6072500D01*
X12680000Y5827500D02*
X13389999D01*
X12680000D02*
Y6072500D01*
X12285000Y5950000D02*
X12680000D01*
X13389999D02*
X13785001D01*
X11511200Y3090000D02*
X11648800D01*
X12425000Y4437501D02*
Y4687501D01*
Y4437501D02*
X12500000D01*
X12800000D02*
X12875000D01*
Y4687501D01*
Y5137501D02*
Y5387501D01*
X12800000Y5137501D02*
X12875000D01*
X12425000D02*
X12500000D01*
X12425000D02*
Y5387501D01*
Y3037501D02*
Y3287501D01*
Y3037501D02*
X12500000D01*
X12800000D02*
X12875000D01*
Y3287501D01*
X12155000Y2925000D02*
X12225000D01*
X12155000Y3075000D02*
X12225000D01*
X12875000Y3722501D02*
Y3972501D01*
X12800000Y3722501D02*
X12875000D01*
X12425000D02*
X12500000D01*
X12425000D02*
Y3972501D01*
X8832414Y3081212D02*
X8970014D01*
X9476214Y2916212D02*
X9546214D01*
X9476214Y3066212D02*
X9546214D01*
X10196214Y5128713D02*
Y5378713D01*
X10121214Y5128713D02*
X10196214D01*
X9746214D02*
X9821214D01*
X9746214D02*
Y5378713D01*
Y3028713D02*
Y3278713D01*
Y3028713D02*
X9821214D01*
X10121214D02*
X10196214D01*
Y3278713D01*
Y3713713D02*
Y3963713D01*
X10121214Y3713713D02*
X10196214D01*
X9746214D02*
X9821214D01*
X9746214D02*
Y3963713D01*
Y4428713D02*
Y4678713D01*
Y4428713D02*
X9821214D01*
X10121214D02*
X10196214D01*
Y4678713D01*
X7542500Y4065000D02*
X7792500D01*
Y3990000D02*
Y4065000D01*
Y3615000D02*
Y3690000D01*
X7542500Y3615000D02*
X7792500D01*
X7552500Y4215000D02*
X7802500D01*
Y4290000D01*
Y4590000D02*
Y4665000D01*
X7552500D02*
X7802500D01*
X11320000Y6385000D02*
Y6780000D01*
Y7490000D02*
Y7885000D01*
X11197500Y7490000D02*
X11442500D01*
X11197500Y6780000D02*
Y7490000D01*
Y6780000D02*
X11442500D01*
Y7490000D01*
X12285000Y6780000D02*
X12680000D01*
X13389999D02*
X13785001D01*
X13389999Y6657500D02*
Y6902500D01*
X12680000D02*
X13389999D01*
X12680000Y6657500D02*
Y6902500D01*
Y6657500D02*
X13389999D01*
X14200000Y7210000D02*
Y7605000D01*
Y6105000D02*
Y6500000D01*
X14077499D02*
X14322501D01*
Y7210000D01*
X14077499D02*
X14322501D01*
X14077499Y6500000D02*
Y7210000D01*
X11590000Y6385000D02*
Y6780000D01*
Y7490000D02*
Y7885000D01*
X11467500Y7490000D02*
X11712500D01*
X11467500Y6780000D02*
Y7490000D01*
Y6780000D02*
X11712500D01*
Y7490000D01*
X10770000Y8400000D02*
Y8795000D01*
Y7295000D02*
Y7690000D01*
X10647500D02*
X10892500D01*
Y8400000D01*
X10647500D02*
X10892500D01*
X10647500Y7690000D02*
Y8400000D01*
X11040000D02*
Y8795000D01*
Y7295000D02*
Y7690000D01*
X10917500D02*
X11162500D01*
Y8400000D01*
X10917500D02*
X11162500D01*
X10917500Y7690000D02*
Y8400000D01*
X10470000Y7295000D02*
Y7690000D01*
Y8400000D02*
Y8795000D01*
X10347500Y8400000D02*
X10592500D01*
X10347500Y7690000D02*
Y8400000D01*
Y7690000D02*
X10592500D01*
Y8400000D01*
X13389999Y6490000D02*
X13785001D01*
X12285000D02*
X12680000D01*
Y6367500D02*
Y6612500D01*
Y6367500D02*
X13389999D01*
Y6612500D01*
X12680000D02*
X13389999D01*
X12337500Y8037500D02*
X12442500D01*
X12336967Y7901933D02*
X12441967D01*
X14012500Y7402097D02*
Y7577903D01*
X13147501Y7402097D02*
X14012500D01*
X13147501D02*
Y7577903D01*
X14012500D01*
X13467500Y7002500D02*
X13572501D01*
X13468034Y7138067D02*
X13573035D01*
X13635001Y9710000D02*
X13645000D01*
X13105000D02*
X13114999D01*
X14680000D02*
X14689999D01*
X14205000D02*
X14214999D01*
X11778001Y7431097D02*
Y7586903D01*
X12768001D01*
Y7431097D02*
Y7586903D01*
X11778001Y7431097D02*
X12768001D01*
X13577499Y7997500D02*
X13682500D01*
X13576967Y7861933D02*
X13681967D01*
X17314999Y5460000D02*
Y5605000D01*
X16885001Y5460000D02*
Y5605000D01*
X17314999Y6264000D02*
Y6409000D01*
X16885001Y6264000D02*
Y6409000D01*
X16783000Y4582200D02*
Y4719800D01*
X13935001Y5655000D02*
X14814999D01*
X13935001Y5350000D02*
Y5655000D01*
Y4805000D02*
Y5110000D01*
Y4805000D02*
X14814999D01*
Y5150000D02*
Y5310000D01*
X5080000Y4857500D02*
X5180000D01*
X5080000Y5002500D02*
X5180000D01*
X7730000Y3040000D02*
X7740000D01*
X7280000Y3240000D02*
X7290000D01*
X6325000Y4225000D02*
X6495000D01*
X6325000Y4055000D02*
X6495000D01*
X7890000Y3280000D02*
X7930000D01*
X7890000Y3200000D02*
X7930000D01*
X6525000Y3325000D02*
X6695000D01*
X6525000Y3155000D02*
X6695000D01*
X6250500Y3759510D02*
X7115500D01*
X6250500Y3583703D02*
Y3759510D01*
Y3583703D02*
X7115500D01*
Y3759510D01*
X6515000Y4310000D02*
X6555000D01*
X6765000D02*
X6775000D01*
X6295000D02*
X6305000D01*
X6295000D02*
Y4660000D01*
X6395000D01*
X6675000D02*
X6775000D01*
Y4310000D02*
Y4660000D01*
X15385001Y9364000D02*
Y9509000D01*
X15814999Y9364000D02*
Y9509000D01*
X12755000Y5785000D02*
X12825000D01*
X12755000Y5635000D02*
X12825000D01*
X10085000Y5795000D02*
X10155000D01*
X10085000Y5645000D02*
X10155000D01*
X11020000Y11360000D02*
X11180000D01*
X10675000D02*
Y12240000D01*
X10980000D01*
X11220000D02*
X11525000D01*
Y11360000D02*
Y12240000D01*
X13071400Y10392950D02*
X13328600D01*
X13071400Y10807050D02*
X13328600D01*
X13309035Y11427500D02*
X13712933D01*
X13309035Y11967500D02*
X13712933D01*
X13689999Y10790000D02*
Y10905000D01*
X13510001Y10790000D02*
Y10905000D01*
X13880000Y10255000D02*
Y10370000D01*
X13700000Y10255000D02*
Y10370000D01*
X12841978Y11915998D02*
Y12030998D01*
X13021979Y11915998D02*
Y12030998D01*
X13010001Y11395000D02*
Y11510000D01*
X13189999Y11395000D02*
Y11510000D01*
X10691000Y10085000D02*
X10836000D01*
X10691000Y10515000D02*
X10836000D01*
X11264000Y11115000D02*
X11409000D01*
X11264000Y10685000D02*
X11409000D01*
X14520000Y10940000D02*
X14680000D01*
X15025000Y10060000D02*
Y10940000D01*
X14720000Y10060000D02*
X15025000D01*
X14175000D02*
X14480000D01*
X14175000D02*
Y10940000D01*
X16283501Y11711000D02*
X16428500D01*
X16283501Y11281000D02*
X16428500D01*
X15795003Y11884983D02*
X15940002D01*
X15795003Y12314983D02*
X15940002D01*
X6300000Y9977500D02*
X6460000D01*
X6300000Y9822500D02*
X6460000D01*
X5570000Y8880000D02*
X5580000D01*
X8120000Y10980000D02*
Y10990000D01*
X7825000Y11458700D02*
Y11468700D01*
X7820000Y9185000D02*
X7980000D01*
X7820000Y9015000D02*
X7980000D01*
X7820000Y9585000D02*
X7980000D01*
X7820000Y9415000D02*
X7980000D01*
X7819994Y9385011D02*
X7979994D01*
X7819994Y9215011D02*
X7979994D01*
X7820000Y9777500D02*
X7980000D01*
X7820000Y9622500D02*
X7980000D01*
X7820000Y9985000D02*
X7980000D01*
X7820000Y9815000D02*
X7980000D01*
D120*
X16439140Y5200000D02*
G03*
X16439140Y5200000I-7620J0D01*
G01*
X15754660Y5426580D02*
G03*
X15754660Y5426580I-10160J0D01*
G01*
X16039140Y6500000D02*
G03*
X16039140Y6500000I-7620J0D01*
G01*
X15407620Y7268480D02*
G03*
X15407620Y7268480I-7620J0D01*
G01*
X12207620Y10968480D02*
G03*
X12207620Y10968480I-7620J0D01*
G01*
X11376100Y10400000D02*
G03*
X11376100Y10400000I-7620J0D01*
G01*
X15707620Y9668480D02*
G03*
X15707620Y9668480I-7620J0D01*
G01*
X15718770Y11700000D02*
G03*
X15718770Y11700000I-7620J0D01*
G01*
X16237210Y5303124D02*
Y5737210D01*
Y4662790D02*
Y5096876D01*
X15162790Y4662790D02*
X16237210D01*
X15162790Y5303124D02*
Y5737210D01*
X16237210D01*
X15162790Y4662790D02*
Y5096876D01*
X4067590Y10377790D02*
X4532410D01*
X4067590D02*
Y11452210D01*
X4532410D01*
Y10377790D02*
Y11452210D01*
X8897790Y5867590D02*
Y6332410D01*
X9972210D01*
Y5867590D02*
Y6332410D01*
X8897790Y5867590D02*
X9972210D01*
X9970231Y7361592D02*
Y7826412D01*
X8895811Y7361592D02*
X9970231D01*
X8895811D02*
Y7826412D01*
X9970231D01*
Y7851592D02*
Y8316412D01*
X8895811Y7851592D02*
X9970231D01*
X8895811D02*
Y8316412D01*
X9970231D01*
X8895811Y6371592D02*
Y6836412D01*
X9970231D01*
Y6371592D02*
Y6836412D01*
X8895811Y6371592D02*
X9970231D01*
X8895811Y6861592D02*
Y7326412D01*
X9970231D01*
Y6861592D02*
Y7326412D01*
X8895811Y6861592D02*
X9970231D01*
X8895811Y8341592D02*
Y8806412D01*
X9970231D01*
Y8341592D02*
Y8806412D01*
X8895811Y8341592D02*
X9970231D01*
X11472710Y4219155D02*
Y4360845D01*
X11287290Y4219155D02*
Y4360845D01*
X12642210Y8617590D02*
Y9082410D01*
X11567790Y8617590D02*
X12642210D01*
X11567790D02*
Y9082410D01*
X12642210D01*
X13587790Y8627590D02*
Y9092410D01*
X14662210D01*
Y8627590D02*
Y9092410D01*
X13587790Y8627590D02*
X14662210D01*
X11567790Y9107590D02*
Y9572410D01*
X12642210D01*
Y9107590D02*
Y9572410D01*
X11567790Y9107590D02*
X12642210D01*
X13587790Y9117590D02*
Y9582410D01*
X14662210D01*
Y9117590D02*
Y9582410D01*
X13587790Y9117590D02*
X14662210D01*
X12642210Y8127590D02*
Y8592410D01*
X11567790Y8127590D02*
X12642210D01*
X11567790D02*
Y8592410D01*
X12642210D01*
X13397791Y8137590D02*
Y8602410D01*
X14472211D01*
Y8137590D02*
Y8602410D01*
X13397791Y8137590D02*
X14472211D01*
X15837210Y6603124D02*
Y7037210D01*
Y5962790D02*
Y6396876D01*
X14762790Y5962790D02*
X15837210D01*
X14762790Y6603124D02*
Y7037210D01*
X15837210D01*
X14762790Y5962790D02*
Y6396876D01*
X15503123Y7462790D02*
X15937210D01*
X14862790D02*
X15296877D01*
X14862790D02*
Y8537210D01*
X15503123D02*
X15937210D01*
Y7462790D02*
Y8537210D01*
X14862790D02*
X15296877D01*
X12303124Y11162790D02*
X12737210D01*
X11662790D02*
X12096876D01*
X11662790D02*
Y12237210D01*
X12303124D02*
X12737210D01*
Y11162790D02*
Y12237210D01*
X11662790D02*
X12096876D01*
X12637210Y10503124D02*
Y10937210D01*
X11562790Y9862790D02*
X12637210D01*
Y10296876D01*
X11562790Y10937210D02*
X12637210D01*
X11562790Y10503124D02*
Y10937210D01*
Y9862790D02*
Y10296876D01*
X15162790Y10937210D02*
X15596877D01*
X16237210Y9862790D02*
Y10937210D01*
X15803123D02*
X16237210D01*
X15162790Y9862790D02*
Y10937210D01*
Y9862790D02*
X15596877D01*
X15803123D02*
X16237210D01*
X15516840Y11803124D02*
Y12237210D01*
Y11162790D02*
Y11596876D01*
X14442419Y11162790D02*
X15516840D01*
X14442419Y11803124D02*
Y12237210D01*
X15516840D01*
X14442419Y11162790D02*
Y11596876D01*
D121*
X6651900Y11147000D02*
G03*
X6651900Y11147000I-469900J0D01*
G01*
X6630016Y9009990D02*
Y8960006D01*
X6640013Y8950010D01*
X6660007D01*
X6670003Y8960006D01*
Y9009990D01*
X6719987Y8950010D02*
Y9009990D01*
X6689997Y8980000D01*
X6729984D01*
X7140016Y4059990D02*
Y4010006D01*
X7150013Y4000010D01*
X7170007D01*
X7180003Y4010006D01*
Y4059990D01*
X7199997Y4010006D02*
X7209994Y4000010D01*
X7229987D01*
X7239984Y4010006D01*
Y4049993D01*
X7229987Y4059990D01*
X7209994D01*
X7199997Y4049993D01*
Y4039997D01*
X7209994Y4030000D01*
X7239984D01*
X12780016Y10899990D02*
Y10850006D01*
X12790013Y10840010D01*
X12810007D01*
X12820003Y10850006D01*
Y10899990D01*
X12839996D02*
X12879984D01*
Y10889993D01*
X12839996Y10850006D01*
Y10840010D01*
X5800016Y11699990D02*
Y11650006D01*
X5810013Y11640010D01*
X5830007D01*
X5840003Y11650006D01*
Y11699990D01*
X5859997Y11689993D02*
X5869994Y11699990D01*
X5889987D01*
X5899984Y11689993D01*
Y11679997D01*
X5889987Y11670000D01*
X5879991D01*
X5889987D01*
X5899984Y11660003D01*
Y11650006D01*
X5889987Y11640010D01*
X5869994D01*
X5859997Y11650006D01*
X13890016Y11469990D02*
Y11420006D01*
X13900014Y11410010D01*
X13920007D01*
X13930003Y11420006D01*
Y11469990D01*
X13989984Y11410010D02*
X13949997D01*
X13989984Y11449997D01*
Y11459993D01*
X13979987Y11469990D01*
X13959995D01*
X13949997Y11459993D01*
X7229990Y4460026D02*
X7170010D01*
Y4490016D01*
X7180006Y4500013D01*
X7200000D01*
X7209997Y4490016D01*
Y4460026D01*
Y4480019D02*
X7229990Y4500013D01*
X7170010Y4559993D02*
Y4520006D01*
X7200000D01*
X7190003Y4540000D01*
Y4549997D01*
X7200000Y4559993D01*
X7219993D01*
X7229990Y4549997D01*
Y4530003D01*
X7219993Y4520006D01*
X7170010Y4619974D02*
X7180006Y4599981D01*
X7200000Y4579987D01*
X7219993D01*
X7229990Y4589984D01*
Y4609977D01*
X7219993Y4619974D01*
X7209997D01*
X7200000Y4609977D01*
Y4579987D01*
X7140026Y4240010D02*
Y4299990D01*
X7170016D01*
X7180013Y4289993D01*
Y4270000D01*
X7170016Y4260003D01*
X7140026D01*
X7160020D02*
X7180013Y4240010D01*
X7239994Y4299990D02*
X7200007D01*
Y4270000D01*
X7220000Y4279997D01*
X7229997D01*
X7239994Y4270000D01*
Y4250006D01*
X7229997Y4240010D01*
X7210003D01*
X7200007Y4250006D01*
X7299974Y4299990D02*
X7259987D01*
Y4270000D01*
X7279981Y4279997D01*
X7289978D01*
X7299974Y4270000D01*
Y4250006D01*
X7289978Y4240010D01*
X7269984D01*
X7259987Y4250006D01*
X7130026Y3320010D02*
Y3379990D01*
X7160016D01*
X7170013Y3369993D01*
Y3350000D01*
X7160016Y3340003D01*
X7130026D01*
X7150020D02*
X7170013Y3320010D01*
X7190007Y3369993D02*
X7200003Y3379990D01*
X7219997D01*
X7229994Y3369993D01*
Y3359997D01*
X7219997Y3350000D01*
X7210000D01*
X7219997D01*
X7229994Y3340003D01*
Y3330006D01*
X7219997Y3320010D01*
X7200003D01*
X7190007Y3330006D01*
X7289974Y3379990D02*
X7249987D01*
Y3350000D01*
X7269981Y3359997D01*
X7279978D01*
X7289974Y3350000D01*
Y3330006D01*
X7279978Y3320010D01*
X7259984D01*
X7249987Y3330006D01*
X7030026Y2900010D02*
Y2959990D01*
X7060016D01*
X7070013Y2949993D01*
Y2930000D01*
X7060016Y2920003D01*
X7030026D01*
X7050020D02*
X7070013Y2900010D01*
X7090007Y2949993D02*
X7100003Y2959990D01*
X7119997D01*
X7129994Y2949993D01*
Y2939997D01*
X7119997Y2930000D01*
X7110000D01*
X7119997D01*
X7129994Y2920003D01*
Y2910006D01*
X7119997Y2900010D01*
X7100003D01*
X7090007Y2910006D01*
X7179978Y2900010D02*
Y2959990D01*
X7149987Y2930000D01*
X7189974D01*
X6380026Y4760010D02*
Y4819990D01*
X6410016D01*
X6420013Y4809993D01*
Y4790000D01*
X6410016Y4780003D01*
X6380026D01*
X6400020D02*
X6420013Y4760010D01*
X6440007Y4809993D02*
X6450003Y4819990D01*
X6469997D01*
X6479994Y4809993D01*
Y4799997D01*
X6469997Y4790000D01*
X6460000D01*
X6469997D01*
X6479994Y4780003D01*
Y4770006D01*
X6469997Y4760010D01*
X6450003D01*
X6440007Y4770006D01*
X6499987Y4809993D02*
X6509984Y4819990D01*
X6529978D01*
X6539974Y4809993D01*
Y4799997D01*
X6529978Y4790000D01*
X6519981D01*
X6529978D01*
X6539974Y4780003D01*
Y4770006D01*
X6529978Y4760010D01*
X6509984D01*
X6499987Y4770006D01*
X11179990Y4200026D02*
X11120009D01*
Y4230016D01*
X11130006Y4240013D01*
X11150000D01*
X11159996Y4230016D01*
Y4200026D01*
Y4220019D02*
X11179990Y4240013D01*
X11130006Y4260006D02*
X11120009Y4270003D01*
Y4289996D01*
X11130006Y4299993D01*
X11140003D01*
X11150000Y4289996D01*
Y4280000D01*
Y4289996D01*
X11159996Y4299993D01*
X11169993D01*
X11179990Y4289996D01*
Y4270003D01*
X11169993Y4260006D01*
X11179990Y4359974D02*
Y4319987D01*
X11140003Y4359974D01*
X11130006D01*
X11120009Y4349977D01*
Y4329983D01*
X11130006Y4319987D01*
X7349990Y3770023D02*
X7290010D01*
Y3800013D01*
X7300007Y3810010D01*
X7320000D01*
X7329997Y3800013D01*
Y3770023D01*
Y3790016D02*
X7349990Y3810010D01*
X7300007Y3830003D02*
X7290010Y3840000D01*
Y3859994D01*
X7300007Y3869990D01*
X7310003D01*
X7320000Y3859994D01*
Y3849997D01*
Y3859994D01*
X7329997Y3869990D01*
X7339994D01*
X7349990Y3859994D01*
Y3840000D01*
X7339994Y3830003D01*
X7349990Y3889984D02*
Y3909977D01*
Y3899981D01*
X7290010D01*
X7300007Y3889984D01*
X6770026Y4210010D02*
Y4269990D01*
X6800016D01*
X6810013Y4259993D01*
Y4240000D01*
X6800016Y4230003D01*
X6770026D01*
X6790020D02*
X6810013Y4210010D01*
X6830007Y4259993D02*
X6840003Y4269990D01*
X6859997D01*
X6869994Y4259993D01*
Y4249997D01*
X6859997Y4240000D01*
X6850000D01*
X6859997D01*
X6869994Y4230003D01*
Y4220006D01*
X6859997Y4210010D01*
X6840003D01*
X6830007Y4220006D01*
X6889987Y4259993D02*
X6899984Y4269990D01*
X6919978D01*
X6929974Y4259993D01*
Y4220006D01*
X6919978Y4210010D01*
X6899984D01*
X6889987Y4220006D01*
Y4259993D01*
X13149989Y12090026D02*
X13090010D01*
Y12120016D01*
X13100008Y12130013D01*
X13120000D01*
X13129997Y12120016D01*
Y12090026D01*
Y12110020D02*
X13149989Y12130013D01*
Y12189994D02*
Y12150007D01*
X13110004Y12189994D01*
X13100008D01*
X13090010Y12179997D01*
Y12160003D01*
X13100008Y12150007D01*
X13139993Y12209987D02*
X13149989Y12219984D01*
Y12239978D01*
X13139993Y12249974D01*
X13100008D01*
X13090010Y12239978D01*
Y12219984D01*
X13100008Y12209987D01*
X13110004D01*
X13120000Y12219984D01*
Y12249974D01*
X13629990Y9810026D02*
X13570009D01*
Y9840016D01*
X13580006Y9850013D01*
X13600000D01*
X13609996Y9840016D01*
Y9810026D01*
Y9830019D02*
X13629990Y9850013D01*
Y9909993D02*
Y9870006D01*
X13590002Y9909993D01*
X13580006D01*
X13570009Y9899997D01*
Y9880003D01*
X13580006Y9870006D01*
Y9929987D02*
X13570009Y9939984D01*
Y9959977D01*
X13580006Y9969974D01*
X13590002D01*
X13600000Y9959977D01*
X13609996Y9969974D01*
X13619994D01*
X13629990Y9959977D01*
Y9939984D01*
X13619994Y9929987D01*
X13609996D01*
X13600000Y9939984D01*
X13590002Y9929987D01*
X13580006D01*
X13600000Y9939984D02*
Y9959977D01*
X6640026Y2940010D02*
Y2999990D01*
X6670016D01*
X6680013Y2989993D01*
Y2970000D01*
X6670016Y2960003D01*
X6640026D01*
X6660020D02*
X6680013Y2940010D01*
X6739994D02*
X6700007D01*
X6739994Y2979997D01*
Y2989993D01*
X6729997Y2999990D01*
X6710003D01*
X6700007Y2989993D01*
X6759987Y2999990D02*
X6799974D01*
Y2989993D01*
X6759987Y2950006D01*
Y2940010D01*
X7590026Y9070010D02*
Y9129990D01*
X7620016D01*
X7630013Y9119993D01*
Y9100000D01*
X7620016Y9090003D01*
X7590026D01*
X7610020D02*
X7630013Y9070010D01*
X7689994D02*
X7650007D01*
X7689994Y9109997D01*
Y9119993D01*
X7679997Y9129990D01*
X7660003D01*
X7650007Y9119993D01*
X7749974Y9129990D02*
X7729981Y9119993D01*
X7709987Y9100000D01*
Y9080006D01*
X7719984Y9070010D01*
X7739977D01*
X7749974Y9080006D01*
Y9090003D01*
X7739977Y9100000D01*
X7709987D01*
X4580026Y10610010D02*
Y10669990D01*
X4610016D01*
X4620013Y10659993D01*
Y10640000D01*
X4610016Y10630003D01*
X4580026D01*
X4600020D02*
X4620013Y10610010D01*
X4679994D02*
X4640007D01*
X4679994Y10649997D01*
Y10659993D01*
X4669997Y10669990D01*
X4650003D01*
X4640007Y10659993D01*
X4739974Y10669990D02*
X4699987D01*
Y10640000D01*
X4719981Y10649997D01*
X4729978D01*
X4739974Y10640000D01*
Y10620006D01*
X4729978Y10610010D01*
X4709984D01*
X4699987Y10620006D01*
X7590026Y9260010D02*
Y9319990D01*
X7620016D01*
X7630013Y9309993D01*
Y9290000D01*
X7620016Y9280003D01*
X7590026D01*
X7610020D02*
X7630013Y9260010D01*
X7689994D02*
X7650007D01*
X7689994Y9299997D01*
Y9309993D01*
X7679997Y9319990D01*
X7660003D01*
X7650007Y9309993D01*
X7739977Y9260010D02*
Y9319990D01*
X7709987Y9290000D01*
X7749974D01*
X7580026Y9470010D02*
Y9529990D01*
X7610016D01*
X7620013Y9519993D01*
Y9500000D01*
X7610016Y9490003D01*
X7580026D01*
X7600020D02*
X7620013Y9470010D01*
X7679994D02*
X7640007D01*
X7679994Y9509997D01*
Y9519993D01*
X7669997Y9529990D01*
X7650003D01*
X7640007Y9519993D01*
X7699987D02*
X7709984Y9529990D01*
X7729977D01*
X7739974Y9519993D01*
Y9509997D01*
X7729977Y9500000D01*
X7719981D01*
X7729977D01*
X7739974Y9490003D01*
Y9480006D01*
X7729977Y9470010D01*
X7709984D01*
X7699987Y9480006D01*
X7580026Y9870010D02*
Y9929990D01*
X7610016D01*
X7620013Y9919993D01*
Y9900000D01*
X7610016Y9890003D01*
X7580026D01*
X7600020D02*
X7620013Y9870010D01*
X7679994D02*
X7640007D01*
X7679994Y9909997D01*
Y9919993D01*
X7669997Y9929990D01*
X7650003D01*
X7640007Y9919993D01*
X7739974Y9870010D02*
X7699987D01*
X7739974Y9909997D01*
Y9919993D01*
X7729977Y9929990D01*
X7709984D01*
X7699987Y9919993D01*
X7580023Y10070010D02*
Y10129990D01*
X7610013D01*
X7620010Y10119993D01*
Y10100000D01*
X7610013Y10090003D01*
X7580023D01*
X7600016D02*
X7620010Y10070010D01*
X7679990D02*
X7640003D01*
X7679990Y10109997D01*
Y10119993D01*
X7669994Y10129990D01*
X7650000D01*
X7640003Y10119993D01*
X7699984Y10070010D02*
X7719977D01*
X7709981D01*
Y10129990D01*
X7699984Y10119993D01*
X5530026Y9790010D02*
Y9849990D01*
X5560016D01*
X5570013Y9839993D01*
Y9820000D01*
X5560016Y9810003D01*
X5530026D01*
X5550020D02*
X5570013Y9790010D01*
X5629994D02*
X5590007D01*
X5629994Y9829997D01*
Y9839993D01*
X5619997Y9849990D01*
X5600003D01*
X5590007Y9839993D01*
X5649987D02*
X5659984Y9849990D01*
X5679977D01*
X5689974Y9839993D01*
Y9800006D01*
X5679977Y9790010D01*
X5659984D01*
X5649987Y9800006D01*
Y9839993D01*
X7835024Y11690010D02*
Y11749990D01*
X7865015D01*
X7875011Y11739993D01*
Y11720000D01*
X7865015Y11710003D01*
X7835024D01*
X7855018D02*
X7875011Y11690010D01*
X7895005D02*
X7914999D01*
X7905002D01*
Y11749990D01*
X7895005Y11739993D01*
X7944989Y11700006D02*
X7954985Y11690010D01*
X7974979D01*
X7984976Y11700006D01*
Y11739993D01*
X7974979Y11749990D01*
X7954985D01*
X7944989Y11739993D01*
Y11729997D01*
X7954985Y11720000D01*
X7984976D01*
X10396238Y4521222D02*
Y4581203D01*
X10426229D01*
X10436225Y4571206D01*
Y4551212D01*
X10426229Y4541216D01*
X10396238D01*
X10416232D02*
X10436225Y4521222D01*
X10456219D02*
X10476212D01*
X10466216D01*
Y4581203D01*
X10456219Y4571206D01*
X10506203Y4581203D02*
X10546189D01*
Y4571206D01*
X10506203Y4531219D01*
Y4521222D01*
X5065024Y5160009D02*
Y5219990D01*
X5095015D01*
X5105011Y5209993D01*
Y5190000D01*
X5095015Y5180003D01*
X5065024D01*
X5085018D02*
X5105011Y5160009D01*
X5125005D02*
X5144999D01*
X5135002D01*
Y5219990D01*
X5125005Y5209993D01*
X5214976Y5219990D02*
X5194982Y5209993D01*
X5174989Y5190000D01*
Y5170006D01*
X5184985Y5160009D01*
X5204979D01*
X5214976Y5170006D01*
Y5180003D01*
X5204979Y5190000D01*
X5174989D01*
X12975024Y4580010D02*
Y4639990D01*
X13005016D01*
X13015012Y4629993D01*
Y4610000D01*
X13005016Y4600003D01*
X12975024D01*
X12995018D02*
X13015012Y4580010D01*
X13035005D02*
X13054999D01*
X13045003D01*
Y4639990D01*
X13035005Y4629993D01*
X13124976Y4639990D02*
X13084988D01*
Y4610000D01*
X13104982Y4619997D01*
X13114980D01*
X13124976Y4610000D01*
Y4590006D01*
X13114980Y4580010D01*
X13094984D01*
X13084988Y4590006D01*
X10325025Y3180010D02*
Y3239990D01*
X10355015D01*
X10365012Y3229993D01*
Y3210000D01*
X10355015Y3200003D01*
X10325025D01*
X10345018D02*
X10365012Y3180010D01*
X10385005D02*
X10404999D01*
X10395002D01*
Y3239990D01*
X10385005Y3229993D01*
X10464979Y3180010D02*
Y3239990D01*
X10434989Y3210000D01*
X10474976D01*
X10555025Y3990010D02*
Y4049990D01*
X10585015D01*
X10595012Y4039993D01*
Y4020000D01*
X10585015Y4010003D01*
X10555025D01*
X10575018D02*
X10595012Y3990010D01*
X10615005D02*
X10634999D01*
X10625002D01*
Y4049990D01*
X10615005Y4039993D01*
X10664989D02*
X10674986Y4049990D01*
X10694979D01*
X10704976Y4039993D01*
Y4029997D01*
X10694979Y4020000D01*
X10684982D01*
X10694979D01*
X10704976Y4010003D01*
Y4000006D01*
X10694979Y3990010D01*
X10674986D01*
X10664989Y4000006D01*
X10305025Y5280010D02*
Y5339990D01*
X10335015D01*
X10345012Y5329993D01*
Y5310000D01*
X10335015Y5300003D01*
X10305025D01*
X10325018D02*
X10345012Y5280010D01*
X10365005D02*
X10384999D01*
X10375002D01*
Y5339990D01*
X10365005Y5329993D01*
X10454976Y5280010D02*
X10414989D01*
X10454976Y5319997D01*
Y5329993D01*
X10444979Y5339990D01*
X10424985D01*
X10414989Y5329993D01*
X9456235Y3161222D02*
Y3221203D01*
X9486225D01*
X9496222Y3211206D01*
Y3191212D01*
X9486225Y3181216D01*
X9456235D01*
X9476229D02*
X9496222Y3161222D01*
X9516216D02*
X9536209D01*
X9526212D01*
Y3221203D01*
X9516216Y3211206D01*
X9566199Y3161222D02*
X9586193D01*
X9576196D01*
Y3221203D01*
X9566199Y3211206D01*
X9735024Y5680010D02*
Y5739990D01*
X9765015D01*
X9775011Y5729993D01*
Y5710000D01*
X9765015Y5700003D01*
X9735024D01*
X9755018D02*
X9775011Y5680010D01*
X9795005D02*
X9814999D01*
X9805002D01*
Y5739990D01*
X9795005Y5729993D01*
X9844989D02*
X9854985Y5739990D01*
X9874979D01*
X9884976Y5729993D01*
Y5690006D01*
X9874979Y5680010D01*
X9854985D01*
X9844989Y5690006D01*
Y5729993D01*
X9389990Y4230016D02*
X9330010D01*
Y4260006D01*
X9340006Y4270003D01*
X9360000D01*
X9369996Y4260006D01*
Y4230016D01*
Y4250010D02*
X9389990Y4270003D01*
X9379993Y4289997D02*
X9389990Y4299993D01*
Y4319987D01*
X9379993Y4329984D01*
X9340006D01*
X9330010Y4319987D01*
Y4299993D01*
X9340006Y4289997D01*
X9350003D01*
X9360000Y4299993D01*
Y4329984D01*
X12990016Y5270010D02*
Y5329990D01*
X13020007D01*
X13030003Y5319993D01*
Y5300000D01*
X13020007Y5290003D01*
X12990016D01*
X13010010D02*
X13030003Y5270010D01*
X13049997Y5319993D02*
X13059995Y5329990D01*
X13079987D01*
X13089984Y5319993D01*
Y5309997D01*
X13079987Y5300000D01*
X13089984Y5290003D01*
Y5280006D01*
X13079987Y5270010D01*
X13059995D01*
X13049997Y5280006D01*
Y5290003D01*
X13059995Y5300000D01*
X13049997Y5309997D01*
Y5319993D01*
X13059995Y5300000D02*
X13079987D01*
X12150016Y3170010D02*
Y3229990D01*
X12180007D01*
X12190003Y3219993D01*
Y3200000D01*
X12180007Y3190003D01*
X12150016D01*
X12170010D02*
X12190003Y3170010D01*
X12209997Y3229990D02*
X12249984D01*
Y3219993D01*
X12209997Y3180006D01*
Y3170010D01*
X13030016Y3180010D02*
Y3239990D01*
X13060007D01*
X13070003Y3229993D01*
Y3210000D01*
X13060007Y3200003D01*
X13030016D01*
X13050011D02*
X13070003Y3180010D01*
X13129984Y3239990D02*
X13109991Y3229993D01*
X13089996Y3210000D01*
Y3190006D01*
X13099994Y3180010D01*
X13119987D01*
X13129984Y3190006D01*
Y3200003D01*
X13119987Y3210000D01*
X13089996D01*
X13250015Y4000010D02*
Y4059990D01*
X13280006D01*
X13290002Y4049993D01*
Y4030000D01*
X13280006Y4020003D01*
X13250015D01*
X13270010D02*
X13290002Y4000010D01*
X13349985Y4059990D02*
X13309998D01*
Y4030000D01*
X13329991Y4039997D01*
X13339987D01*
X13349985Y4030000D01*
Y4010006D01*
X13339987Y4000010D01*
X13319994D01*
X13309998Y4010006D01*
X12450016Y5680010D02*
Y5739990D01*
X12480007D01*
X12490003Y5729993D01*
Y5710000D01*
X12480007Y5700003D01*
X12450016D01*
X12470010D02*
X12490003Y5680010D01*
X12539987D02*
Y5739990D01*
X12509997Y5710000D01*
X12549984D01*
X12079990Y4240016D02*
X12020010D01*
Y4270007D01*
X12030007Y4280003D01*
X12050000D01*
X12059997Y4270007D01*
Y4240016D01*
Y4260010D02*
X12079990Y4280003D01*
X12030007Y4299997D02*
X12020010Y4309994D01*
Y4329987D01*
X12030007Y4339984D01*
X12040003D01*
X12050000Y4329987D01*
Y4319991D01*
Y4329987D01*
X12059997Y4339984D01*
X12069994D01*
X12079990Y4329987D01*
Y4309994D01*
X12069994Y4299997D01*
X5110016Y9790010D02*
Y9849990D01*
X5140007D01*
X5150003Y9839993D01*
Y9820000D01*
X5140007Y9810003D01*
X5110016D01*
X5130010D02*
X5150003Y9790010D01*
X5209984D02*
X5169997D01*
X5209984Y9829997D01*
Y9839993D01*
X5199987Y9849990D01*
X5179994D01*
X5169997Y9839993D01*
X6970013Y9000010D02*
Y9059990D01*
X7000003D01*
X7010000Y9049993D01*
Y9030000D01*
X7000003Y9020003D01*
X6970013D01*
X6990007D02*
X7010000Y9000010D01*
X7029994D02*
X7049987D01*
X7039990D01*
Y9059990D01*
X7029994Y9049993D01*
X7995011Y4630006D02*
Y4669993D01*
X7985015Y4679990D01*
X7965021D01*
X7955024Y4669993D01*
Y4630006D01*
X7965021Y4620010D01*
X7985015D01*
X7975018Y4640003D02*
X7995011Y4620010D01*
X7985015D02*
X7995011Y4630006D01*
X8015005Y4620010D02*
X8034999D01*
X8025002D01*
Y4679990D01*
X8015005Y4669993D01*
X8104976Y4679990D02*
X8064989D01*
Y4650000D01*
X8084982Y4659997D01*
X8094979D01*
X8104976Y4650000D01*
Y4630006D01*
X8094979Y4620010D01*
X8074985D01*
X8064989Y4630006D01*
X7995011Y4030006D02*
Y4069993D01*
X7985015Y4079990D01*
X7965021D01*
X7955024Y4069993D01*
Y4030006D01*
X7965021Y4020010D01*
X7985015D01*
X7975018Y4040003D02*
X7995011Y4020010D01*
X7985015D02*
X7995011Y4030006D01*
X8015005Y4020010D02*
X8034999D01*
X8025002D01*
Y4079990D01*
X8015005Y4069993D01*
X8094979Y4020010D02*
Y4079990D01*
X8064989Y4050000D01*
X8104976D01*
X7599993Y11255011D02*
X7560006D01*
X7550010Y11245015D01*
Y11225021D01*
X7560006Y11215024D01*
X7599993D01*
X7609990Y11225021D01*
Y11245015D01*
X7589997Y11235018D02*
X7609990Y11255011D01*
Y11245015D02*
X7599993Y11255011D01*
X7609990Y11275005D02*
Y11294998D01*
Y11285002D01*
X7550010D01*
X7560006Y11275005D01*
Y11324989D02*
X7550010Y11334985D01*
Y11354979D01*
X7560006Y11364975D01*
X7570003D01*
X7580000Y11354979D01*
Y11344982D01*
Y11354979D01*
X7589997Y11364975D01*
X7599993D01*
X7609990Y11354979D01*
Y11334985D01*
X7599993Y11324989D01*
X10195012Y4290006D02*
Y4329993D01*
X10185015Y4339990D01*
X10165021D01*
X10155025Y4329993D01*
Y4290006D01*
X10165021Y4280010D01*
X10185015D01*
X10175018Y4300003D02*
X10195012Y4280010D01*
X10185015D02*
X10195012Y4290006D01*
X10215005Y4280010D02*
X10234999D01*
X10225002D01*
Y4339990D01*
X10215005Y4329993D01*
X10304976Y4280010D02*
X10264989D01*
X10304976Y4319997D01*
Y4329993D01*
X10294979Y4339990D01*
X10274986D01*
X10264989Y4329993D01*
X10195008Y3580006D02*
Y3619993D01*
X10185011Y3629990D01*
X10165018D01*
X10155021Y3619993D01*
Y3580006D01*
X10165018Y3570010D01*
X10185011D01*
X10175015Y3590003D02*
X10195008Y3570010D01*
X10185011D02*
X10195008Y3580006D01*
X10215002Y3570010D02*
X10234995D01*
X10224998D01*
Y3629990D01*
X10215002Y3619993D01*
X10264985Y3570010D02*
X10284979D01*
X10274982D01*
Y3629990D01*
X10264985Y3619993D01*
X10195012Y2940006D02*
Y2979993D01*
X10185015Y2989990D01*
X10165021D01*
X10155025Y2979993D01*
Y2940006D01*
X10165021Y2930010D01*
X10185015D01*
X10175018Y2950003D02*
X10195012Y2930010D01*
X10185015D02*
X10195012Y2940006D01*
X10215005Y2930010D02*
X10234999D01*
X10225002D01*
Y2989990D01*
X10215005Y2979993D01*
X10264989D02*
X10274986Y2989990D01*
X10294979D01*
X10304976Y2979993D01*
Y2940006D01*
X10294979Y2930010D01*
X10274986D01*
X10264989Y2940006D01*
Y2979993D01*
X10190003Y4990006D02*
Y5029993D01*
X10180007Y5039990D01*
X10160013D01*
X10150016Y5029993D01*
Y4990006D01*
X10160013Y4980010D01*
X10180007D01*
X10170010Y5000003D02*
X10190003Y4980010D01*
X10180007D02*
X10190003Y4990006D01*
X10209997D02*
X10219994Y4980010D01*
X10239987D01*
X10249984Y4990006D01*
Y5029993D01*
X10239987Y5039990D01*
X10219994D01*
X10209997Y5029993D01*
Y5019997D01*
X10219994Y5010000D01*
X10249984D01*
X12930003Y4230006D02*
Y4269993D01*
X12920007Y4279990D01*
X12900014D01*
X12890016Y4269993D01*
Y4230006D01*
X12900014Y4220010D01*
X12920007D01*
X12910010Y4240003D02*
X12930003Y4220010D01*
X12920007D02*
X12930003Y4230006D01*
X12949997Y4269993D02*
X12959995Y4279990D01*
X12979987D01*
X12989984Y4269993D01*
Y4259997D01*
X12979987Y4250000D01*
X12989984Y4240003D01*
Y4230006D01*
X12979987Y4220010D01*
X12959995D01*
X12949997Y4230006D01*
Y4240003D01*
X12959995Y4250000D01*
X12949997Y4259997D01*
Y4269993D01*
X12959995Y4250000D02*
X12979987D01*
X12929993Y3560003D02*
X12890005D01*
X12880009Y3550007D01*
Y3530013D01*
X12890005Y3520016D01*
X12929993D01*
X12939990Y3530013D01*
Y3550007D01*
X12919997Y3540010D02*
X12939990Y3560003D01*
Y3550007D02*
X12929993Y3560003D01*
X12939990Y3609987D02*
X12880009D01*
X12910001Y3579997D01*
Y3619984D01*
X12950003Y2910006D02*
Y2949993D01*
X12940007Y2959990D01*
X12920013D01*
X12910016Y2949993D01*
Y2910006D01*
X12920013Y2900010D01*
X12940007D01*
X12930009Y2920003D02*
X12950003Y2900010D01*
X12940007D02*
X12950003Y2910006D01*
X12969997Y2949993D02*
X12979994Y2959990D01*
X12999986D01*
X13009984Y2949993D01*
Y2939997D01*
X12999986Y2930000D01*
X12989992D01*
X12999986D01*
X13009984Y2920003D01*
Y2910006D01*
X12999986Y2900010D01*
X12979994D01*
X12969997Y2910006D01*
X12910004Y4980006D02*
Y5019993D01*
X12900008Y5029990D01*
X12880013D01*
X12870016Y5019993D01*
Y4980006D01*
X12880013Y4970010D01*
X12900008D01*
X12890010Y4990003D02*
X12910004Y4970010D01*
X12900008D02*
X12910004Y4980006D01*
X12969984Y4970010D02*
X12929997D01*
X12969984Y5009997D01*
Y5019993D01*
X12959987Y5029990D01*
X12939993D01*
X12929997Y5019993D01*
X7800036Y2979990D02*
Y2920010D01*
X7840023D01*
X7900003Y2979990D02*
X7860016D01*
Y2920010D01*
X7900003D01*
X7860016Y2950000D02*
X7880010D01*
X7919997Y2979990D02*
Y2920010D01*
X7949987D01*
X7959984Y2930006D01*
Y2969993D01*
X7949987Y2979990D01*
X7919997D01*
X8019964Y2920010D02*
X7979977D01*
X8019964Y2959997D01*
Y2969993D01*
X8009968Y2979990D01*
X7989974D01*
X7979977Y2969993D01*
X7820032Y3379990D02*
Y3320010D01*
X7860019D01*
X7920000Y3379990D02*
X7880013D01*
Y3320010D01*
X7920000D01*
X7880013Y3350000D02*
X7900007D01*
X7939994Y3379990D02*
Y3320010D01*
X7969984D01*
X7979980Y3330006D01*
Y3369993D01*
X7969984Y3379990D01*
X7939994D01*
X7999974Y3320010D02*
X8019968D01*
X8009971D01*
Y3379990D01*
X7999974Y3369993D01*
X10580010Y11650016D02*
X10639990D01*
Y11690003D01*
X10590007Y11709997D02*
X10580010Y11719994D01*
Y11739987D01*
X10590007Y11749984D01*
X10600003D01*
X10610000Y11739987D01*
Y11729991D01*
Y11739987D01*
X10619997Y11749984D01*
X10629994D01*
X10639990Y11739987D01*
Y11719994D01*
X10629994Y11709997D01*
X14020016Y10939990D02*
Y10880010D01*
X14060004D01*
X14119984D02*
X14079997D01*
X14119984Y10919997D01*
Y10929993D01*
X14109987Y10939990D01*
X14089993D01*
X14079997Y10929993D01*
X5300013Y4019990D02*
X5260026D01*
Y3990000D01*
X5280020D01*
X5260026D01*
Y3960010D01*
X5320007Y4019990D02*
Y3960010D01*
X5349997D01*
X5359994Y3970006D01*
Y3980003D01*
X5349997Y3990000D01*
X5320007D01*
X5349997D01*
X5359994Y3999997D01*
Y4009993D01*
X5349997Y4019990D01*
X5320007D01*
X5419974Y3960010D02*
X5379987D01*
X5419974Y3999997D01*
Y4009993D01*
X5409977Y4019990D01*
X5389984D01*
X5379987Y4009993D01*
X5300010Y4519990D02*
X5260023D01*
Y4490000D01*
X5280016D01*
X5260023D01*
Y4460010D01*
X5320003Y4519990D02*
Y4460010D01*
X5349994D01*
X5359990Y4470006D01*
Y4480003D01*
X5349994Y4490000D01*
X5320003D01*
X5349994D01*
X5359990Y4499997D01*
Y4509993D01*
X5349994Y4519990D01*
X5320003D01*
X5379984Y4460010D02*
X5399978D01*
X5389981D01*
Y4519990D01*
X5379984Y4509993D01*
X8391217Y3001203D02*
X8351230D01*
Y2971212D01*
X8371224D01*
X8351230D01*
Y2941222D01*
X8411211Y2991206D02*
X8421207Y3001203D01*
X8441201D01*
X8451198Y2991206D01*
Y2981209D01*
X8441201Y2971212D01*
X8431204D01*
X8441201D01*
X8451198Y2961216D01*
Y2951219D01*
X8441201Y2941222D01*
X8421207D01*
X8411211Y2951219D01*
X16730003Y4849990D02*
X16690016D01*
Y4820000D01*
X16710010D01*
X16690016D01*
Y4790010D01*
X16789984D02*
X16749997D01*
X16789984Y4829997D01*
Y4839993D01*
X16779987Y4849990D01*
X16759995D01*
X16749997Y4839993D01*
X11080000Y3009990D02*
X11040013D01*
Y2980000D01*
X11060007D01*
X11040013D01*
Y2950010D01*
X11099994D02*
X11119987D01*
X11109990D01*
Y3009990D01*
X11099994Y2999993D01*
X7430026Y3409990D02*
Y3350010D01*
X7460016D01*
X7470013Y3360006D01*
Y3399993D01*
X7460016Y3409990D01*
X7430026D01*
X7529994Y3350010D02*
X7490007D01*
X7529994Y3389997D01*
Y3399993D01*
X7519997Y3409990D01*
X7500003D01*
X7490007Y3399993D01*
X7589974Y3350010D02*
X7549987D01*
X7589974Y3389997D01*
Y3399993D01*
X7579977Y3409990D01*
X7559984D01*
X7549987Y3399993D01*
X7440023Y2929990D02*
Y2870010D01*
X7470013D01*
X7480010Y2880006D01*
Y2919993D01*
X7470013Y2929990D01*
X7440023D01*
X7539990Y2870010D02*
X7500003D01*
X7539990Y2909997D01*
Y2919993D01*
X7529994Y2929990D01*
X7510000D01*
X7500003Y2919993D01*
X7559984Y2870010D02*
X7579977D01*
X7569981D01*
Y2929990D01*
X7559984Y2919993D01*
X10660009Y10850026D02*
X10719990D01*
Y10880016D01*
X10709993Y10890013D01*
X10670006D01*
X10660009Y10880016D01*
Y10850026D01*
X10719990Y10949993D02*
Y10910006D01*
X10680003Y10949993D01*
X10670006D01*
X10660009Y10939997D01*
Y10920003D01*
X10670006Y10910006D01*
Y10969987D02*
X10660009Y10979984D01*
Y10999977D01*
X10670006Y11009974D01*
X10709993D01*
X10719990Y10999977D01*
Y10979984D01*
X10709993Y10969987D01*
X10670006D01*
X10550010Y10265024D02*
X10609990D01*
Y10295015D01*
X10599994Y10305011D01*
X10560007D01*
X10550010Y10295015D01*
Y10265024D01*
X10609990Y10325005D02*
Y10344999D01*
Y10335002D01*
X10550010D01*
X10560007Y10325005D01*
X10599994Y10374989D02*
X10609990Y10384985D01*
Y10404979D01*
X10599994Y10414976D01*
X10560007D01*
X10550010Y10404979D01*
Y10384985D01*
X10560007Y10374989D01*
X10570003D01*
X10580000Y10384985D01*
Y10414976D01*
X10170010Y11725025D02*
X10229990D01*
Y11755015D01*
X10219994Y11765012D01*
X10180007D01*
X10170010Y11755015D01*
Y11725025D01*
X10229990Y11785005D02*
Y11804999D01*
Y11795002D01*
X10170010D01*
X10180007Y11785005D01*
Y11834989D02*
X10170010Y11844985D01*
Y11864979D01*
X10180007Y11874976D01*
X10190003D01*
X10200000Y11864979D01*
X10209997Y11874976D01*
X10219994D01*
X10229990Y11864979D01*
Y11844985D01*
X10219994Y11834989D01*
X10209997D01*
X10200000Y11844985D01*
X10190003Y11834989D01*
X10180007D01*
X10200000Y11844985D02*
Y11864979D01*
X16645026Y11069990D02*
Y11010010D01*
X16675015D01*
X16685011Y11020006D01*
Y11059993D01*
X16675015Y11069990D01*
X16645026D01*
X16705005Y11010010D02*
X16724998D01*
X16715002D01*
Y11069990D01*
X16705005Y11059993D01*
X16754990Y11069990D02*
X16794975D01*
Y11059993D01*
X16754990Y11020006D01*
Y11010010D01*
X16505025Y11729990D02*
Y11670010D01*
X16535014D01*
X16545012Y11680006D01*
Y11719993D01*
X16535014Y11729990D01*
X16505025D01*
X16565005Y11670010D02*
X16584999D01*
X16575002D01*
Y11729990D01*
X16565005Y11719993D01*
X16654976Y11729990D02*
X16634982Y11719993D01*
X16614989Y11700000D01*
Y11680006D01*
X16624986Y11670010D01*
X16644978D01*
X16654976Y11680006D01*
Y11690003D01*
X16644978Y11700000D01*
X16614989D01*
X16495024Y12299990D02*
Y12240010D01*
X16525015D01*
X16535011Y12250006D01*
Y12289993D01*
X16525015Y12299990D01*
X16495024D01*
X16555005Y12240010D02*
X16574998D01*
X16565002D01*
Y12299990D01*
X16555005Y12289993D01*
X16644975Y12299990D02*
X16604990D01*
Y12270000D01*
X16624982Y12279997D01*
X16634979D01*
X16644975Y12270000D01*
Y12250006D01*
X16634979Y12240010D01*
X16614986D01*
X16604990Y12250006D01*
X16360008Y3925024D02*
X16419991D01*
Y3955014D01*
X16409993Y3965011D01*
X16370006D01*
X16360008Y3955014D01*
Y3925024D01*
X16419991Y3985005D02*
Y4004998D01*
Y3995001D01*
X16360008D01*
X16370006Y3985005D01*
X16419991Y4074975D02*
Y4034988D01*
X16380003Y4074975D01*
X16370006D01*
X16360008Y4064979D01*
Y4044985D01*
X16370006Y4034988D01*
X17090010Y3935021D02*
X17149989D01*
Y3965011D01*
X17139993Y3975008D01*
X17100006D01*
X17090010Y3965011D01*
Y3935021D01*
X17149989Y3995001D02*
Y4014995D01*
Y4004998D01*
X17090010D01*
X17100006Y3995001D01*
X17149989Y4044985D02*
Y4064979D01*
Y4054982D01*
X17090010D01*
X17100006Y4044985D01*
X7950010Y11035024D02*
X8009990D01*
Y11065015D01*
X7999994Y11075011D01*
X7960007D01*
X7950010Y11065015D01*
Y11035024D01*
X8009990Y11095005D02*
Y11114999D01*
Y11105002D01*
X7950010D01*
X7960007Y11095005D01*
Y11144989D02*
X7950010Y11154985D01*
Y11174979D01*
X7960007Y11184976D01*
X7999994D01*
X8009990Y11174979D01*
Y11154985D01*
X7999994Y11144989D01*
X7960007D01*
X5430016Y8909990D02*
Y8850010D01*
X5460007D01*
X5470003Y8860006D01*
Y8899993D01*
X5460007Y8909990D01*
X5430016D01*
X5489997Y8860006D02*
X5499994Y8850010D01*
X5519987D01*
X5529984Y8860006D01*
Y8899993D01*
X5519987Y8909990D01*
X5499994D01*
X5489997Y8899993D01*
Y8889997D01*
X5499994Y8880000D01*
X5529984D01*
X15820016Y8799990D02*
Y8740010D01*
X15850008D01*
X15860004Y8750006D01*
Y8789993D01*
X15850008Y8799990D01*
X15820016D01*
X15879997D02*
X15919984D01*
Y8789993D01*
X15879997Y8750006D01*
Y8740010D01*
X11020009Y3740016D02*
X11079990D01*
Y3770006D01*
X11069993Y3780003D01*
X11030006D01*
X11020009Y3770006D01*
Y3740016D01*
Y3839984D02*
X11030006Y3819990D01*
X11050000Y3799997D01*
X11069993D01*
X11079990Y3809993D01*
Y3829987D01*
X11069993Y3839984D01*
X11059996D01*
X11050000Y3829987D01*
Y3799997D01*
X11020010Y3460016D02*
X11079990D01*
Y3490007D01*
X11069994Y3500003D01*
X11030007D01*
X11020010Y3490007D01*
Y3460016D01*
Y3559984D02*
Y3519997D01*
X11050000D01*
X11040003Y3539991D01*
Y3549987D01*
X11050000Y3559984D01*
X11069994D01*
X11079990Y3549987D01*
Y3529994D01*
X11069994Y3519997D01*
X16760008Y5220016D02*
X16819991D01*
Y5250006D01*
X16809993Y5260003D01*
X16770006D01*
X16760008Y5250006D01*
Y5220016D01*
X16819991Y5309987D02*
X16760008D01*
X16789999Y5279997D01*
Y5319984D01*
X16750009Y6010016D02*
X16809990D01*
Y6040006D01*
X16799992Y6050003D01*
X16760007D01*
X16750009Y6040006D01*
Y6010016D01*
X16760007Y6069997D02*
X16750009Y6079993D01*
Y6099987D01*
X16760007Y6109984D01*
X16770003D01*
X16780000Y6099987D01*
Y6089990D01*
Y6099987D01*
X16789996Y6109984D01*
X16799992D01*
X16809990Y6099987D01*
Y6079993D01*
X16799992Y6069997D01*
X13720010Y3750016D02*
X13779990D01*
Y3780007D01*
X13769994Y3790003D01*
X13730006D01*
X13720010Y3780007D01*
Y3750016D01*
X13779990Y3849984D02*
Y3809997D01*
X13740002Y3849984D01*
X13730006D01*
X13720010Y3839987D01*
Y3819994D01*
X13730006Y3809997D01*
X13700011Y3490013D02*
X13759990D01*
Y3520003D01*
X13749994Y3530000D01*
X13710007D01*
X13700011Y3520003D01*
Y3490013D01*
X13759990Y3549994D02*
Y3569987D01*
Y3559990D01*
X13700011D01*
X13710007Y3549994D01*
X12910007Y12250013D02*
X12900011Y12240016D01*
Y12220023D01*
X12910007Y12210026D01*
X12949994D01*
X12959990Y12220023D01*
Y12240016D01*
X12949994Y12250013D01*
X12959990Y12309994D02*
Y12270007D01*
X12920003Y12309994D01*
X12910007D01*
X12900011Y12299997D01*
Y12280003D01*
X12910007Y12270007D01*
Y12329987D02*
X12900011Y12339984D01*
Y12359978D01*
X12910007Y12369974D01*
X12949994D01*
X12959990Y12359978D01*
Y12339984D01*
X12949994Y12329987D01*
X12910007D01*
X12900006Y11315011D02*
X12890010Y11305014D01*
Y11285021D01*
X12900006Y11275024D01*
X12939993D01*
X12949989Y11285021D01*
Y11305014D01*
X12939993Y11315011D01*
X12949989Y11335005D02*
Y11354998D01*
Y11345001D01*
X12890010D01*
X12900006Y11335005D01*
X12939993Y11384988D02*
X12949989Y11394985D01*
Y11414979D01*
X12939993Y11424975D01*
X12900006D01*
X12890010Y11414979D01*
Y11394985D01*
X12900006Y11384988D01*
X12910004D01*
X12920000Y11394985D01*
Y11424975D01*
X13580006Y11312512D02*
X13570009Y11302515D01*
Y11282521D01*
X13580006Y11272525D01*
X13619994D01*
X13629990Y11282521D01*
Y11302515D01*
X13619994Y11312512D01*
X13629990Y11332505D02*
Y11352499D01*
Y11342502D01*
X13570009D01*
X13580006Y11332505D01*
Y11382489D02*
X13570009Y11392485D01*
Y11412479D01*
X13580006Y11422476D01*
X13590002D01*
X13600000Y11412479D01*
X13609996Y11422476D01*
X13619994D01*
X13629990Y11412479D01*
Y11392485D01*
X13619994Y11382489D01*
X13609996D01*
X13600000Y11392485D01*
X13590002Y11382489D01*
X13580006D01*
X13600000Y11392485D02*
Y11412479D01*
X13770007Y9825012D02*
X13760010Y9815015D01*
Y9795022D01*
X13770007Y9785025D01*
X13809995D01*
X13819991Y9795022D01*
Y9815015D01*
X13809995Y9825012D01*
X13819991Y9845005D02*
Y9864999D01*
Y9855002D01*
X13760010D01*
X13770007Y9845005D01*
X13760010Y9894989D02*
Y9934976D01*
X13770007D01*
X13809995Y9894989D01*
X13819991D01*
X6355011Y3269993D02*
X6345015Y3279990D01*
X6325021D01*
X6315024Y3269993D01*
Y3230006D01*
X6325021Y3220010D01*
X6345015D01*
X6355011Y3230006D01*
X6375005Y3220010D02*
X6394999D01*
X6385002D01*
Y3279990D01*
X6375005Y3269993D01*
X6464976Y3279990D02*
X6444982Y3269993D01*
X6424989Y3250000D01*
Y3230006D01*
X6434985Y3220010D01*
X6454979D01*
X6464976Y3230006D01*
Y3240003D01*
X6454979Y3250000D01*
X6424989D01*
X6210007Y4095012D02*
X6200010Y4085015D01*
Y4065021D01*
X6210007Y4055025D01*
X6249994D01*
X6259990Y4065021D01*
Y4085015D01*
X6249994Y4095012D01*
X6259990Y4115005D02*
Y4134999D01*
Y4125002D01*
X6200010D01*
X6210007Y4115005D01*
X6200010Y4204976D02*
Y4164989D01*
X6230000D01*
X6220003Y4184982D01*
Y4194979D01*
X6230000Y4204976D01*
X6249994D01*
X6259990Y4194979D01*
Y4174986D01*
X6249994Y4164989D01*
X6885011Y4739993D02*
X6875015Y4749990D01*
X6855021D01*
X6845024Y4739993D01*
Y4700006D01*
X6855021Y4690010D01*
X6875015D01*
X6885011Y4700006D01*
X6905005Y4690010D02*
X6924999D01*
X6915002D01*
Y4749990D01*
X6905005Y4739993D01*
X6984979Y4690010D02*
Y4749990D01*
X6954989Y4720000D01*
X6994976D01*
X11715012Y12319993D02*
X11705015Y12329990D01*
X11685021D01*
X11675025Y12319993D01*
Y12280006D01*
X11685021Y12270010D01*
X11705015D01*
X11715012Y12280006D01*
X11735005Y12270010D02*
X11754999D01*
X11745002D01*
Y12329990D01*
X11735005Y12319993D01*
X11784989D02*
X11794986Y12329990D01*
X11814979D01*
X11824976Y12319993D01*
Y12309997D01*
X11814979Y12300000D01*
X11804982D01*
X11814979D01*
X11824976Y12290003D01*
Y12280006D01*
X11814979Y12270010D01*
X11794986D01*
X11784989Y12280006D01*
X12425011Y11049993D02*
X12415015Y11059990D01*
X12395021D01*
X12385025Y11049993D01*
Y11010006D01*
X12395021Y11000010D01*
X12415015D01*
X12425011Y11010006D01*
X12445005Y11000010D02*
X12464999D01*
X12455002D01*
Y11059990D01*
X12445005Y11049993D01*
X12534976Y11000010D02*
X12494989D01*
X12534976Y11039997D01*
Y11049993D01*
X12524979Y11059990D01*
X12504985D01*
X12494989Y11049993D01*
X14305008Y12169993D02*
X14295012Y12179990D01*
X14275018D01*
X14265021Y12169993D01*
Y12130006D01*
X14275018Y12120010D01*
X14295012D01*
X14305008Y12130006D01*
X14325002Y12120010D02*
X14344995D01*
X14334999D01*
Y12179990D01*
X14325002Y12169993D01*
X14374985Y12120010D02*
X14394978D01*
X14384982D01*
Y12179990D01*
X14374985Y12169993D01*
X15975011Y9779993D02*
X15965015Y9789990D01*
X15945021D01*
X15935025Y9779993D01*
Y9740006D01*
X15945021Y9730010D01*
X15965015D01*
X15975011Y9740006D01*
X15995004Y9730010D02*
X16014999D01*
X16005002D01*
Y9789990D01*
X15995004Y9779993D01*
X16044989D02*
X16054985Y9789990D01*
X16074979D01*
X16084976Y9779993D01*
Y9740006D01*
X16074979Y9730010D01*
X16054985D01*
X16044989Y9740006D01*
Y9779993D01*
X6240003Y8789993D02*
X6230007Y8799990D01*
X6210013D01*
X6200016Y8789993D01*
Y8750006D01*
X6210013Y8740010D01*
X6230007D01*
X6240003Y8750006D01*
X6259997D02*
X6269994Y8740010D01*
X6289987D01*
X6299984Y8750006D01*
Y8789993D01*
X6289987Y8799990D01*
X6269994D01*
X6259997Y8789993D01*
Y8779997D01*
X6269994Y8770000D01*
X6299984D01*
X7620003Y9719993D02*
X7610007Y9729990D01*
X7590013D01*
X7580016Y9719993D01*
Y9680006D01*
X7590013Y9670010D01*
X7610007D01*
X7620003Y9680006D01*
X7639997Y9719993D02*
X7649994Y9729990D01*
X7669987D01*
X7679984Y9719993D01*
Y9709997D01*
X7669987Y9700000D01*
X7679984Y9690003D01*
Y9680006D01*
X7669987Y9670010D01*
X7649994D01*
X7639997Y9680006D01*
Y9690003D01*
X7649994Y9700000D01*
X7639997Y9709997D01*
Y9719993D01*
X7649994Y9700000D02*
X7669987D01*
X6580003Y9909993D02*
X6570007Y9919990D01*
X6550013D01*
X6540016Y9909993D01*
Y9870006D01*
X6550013Y9860010D01*
X6570007D01*
X6580003Y9870006D01*
X6599997Y9919990D02*
X6639984D01*
Y9909993D01*
X6599997Y9870006D01*
Y9860010D01*
X5030003Y4059993D02*
X5020007Y4069990D01*
X5000013D01*
X4990016Y4059993D01*
Y4020006D01*
X5000013Y4010010D01*
X5020007D01*
X5030003Y4020006D01*
X5089984Y4069990D02*
X5069991Y4059993D01*
X5049997Y4040000D01*
Y4020006D01*
X5059994Y4010010D01*
X5079987D01*
X5089984Y4020006D01*
Y4030003D01*
X5079987Y4040000D01*
X5049997D01*
X5030003Y4459993D02*
X5020007Y4469990D01*
X5000013D01*
X4990016Y4459993D01*
Y4420006D01*
X5000013Y4410010D01*
X5020007D01*
X5030003Y4420006D01*
X5089984Y4469990D02*
X5049997D01*
Y4440000D01*
X5069991Y4449997D01*
X5079987D01*
X5089984Y4440000D01*
Y4420006D01*
X5079987Y4410010D01*
X5059994D01*
X5049997Y4420006D01*
X14920003Y8649993D02*
X14910007Y8659990D01*
X14890013D01*
X14880016Y8649993D01*
Y8610006D01*
X14890013Y8600010D01*
X14910007D01*
X14920003Y8610006D01*
X14939996Y8649993D02*
X14949994Y8659990D01*
X14969987D01*
X14979984Y8649993D01*
Y8639997D01*
X14969987Y8630000D01*
X14959991D01*
X14969987D01*
X14979984Y8620003D01*
Y8610006D01*
X14969987Y8600010D01*
X14949994D01*
X14939996Y8610006D01*
X15740002Y7129993D02*
X15730006Y7139990D01*
X15710013D01*
X15700015Y7129993D01*
Y7090006D01*
X15710013Y7080010D01*
X15730006D01*
X15740002Y7090006D01*
X15799985Y7080010D02*
X15759998D01*
X15799985Y7119997D01*
Y7129993D01*
X15789987Y7139990D01*
X15769994D01*
X15759998Y7129993D01*
X16139999Y5849993D02*
X16130003Y5859990D01*
X16110010D01*
X16100014Y5849993D01*
Y5810006D01*
X16110010Y5800010D01*
X16130003D01*
X16139999Y5810006D01*
X16159995Y5800010D02*
X16179987D01*
X16169991D01*
Y5859990D01*
X16159995Y5849993D01*
X2958447Y5642901D02*
X2938454D01*
X2948450D01*
Y5592917D01*
X2938454Y5582920D01*
X2928457D01*
X2918460Y5592917D01*
X3018428Y5582920D02*
X2978441D01*
X3018428Y5622907D01*
Y5632904D01*
X3008431Y5642901D01*
X2988437D01*
X2978441Y5632904D01*
X14020013Y4459990D02*
Y4410006D01*
X14030009Y4400010D01*
X14050003D01*
X14060001Y4410006D01*
Y4459990D01*
X14079994Y4400010D02*
X14099986D01*
X14089990D01*
Y4459990D01*
X14079994Y4449993D01*
D122*
X6742000Y11149500D02*
G03*
X6742000Y11149500I-12500J0D01*
G01*
X6693500Y9775310D02*
G03*
X6693500Y9775310I-12500J0D01*
G01*
X5999022Y6488003D02*
G03*
X5999022Y6488003I-12500J0D01*
G01*
X8131521Y7259312D02*
G03*
X8131521Y7259312I-12500J0D01*
G01*
X13973500Y7865310D02*
G03*
X13973500Y7865310I-12500J0D01*
G01*
X11841001Y7094000D02*
G03*
X11841001Y7094000I-12500J0D01*
G01*
X7076500Y4046916D02*
G03*
X7076500Y4046916I-12500J0D01*
G01*
X6422500Y4205000D02*
G03*
X6422500Y4205000I-12500J0D01*
G01*
X12899899Y10761000D02*
G03*
X12899899Y10761000I-12500J0D01*
G01*
X13861490Y11535000D02*
G03*
X13861490Y11535000I-12500J0D01*
G01*
D123*
X16996001Y5690000D02*
G03*
X16996001Y5680000I0J-5000D01*
G01*
D02*
G03*
X16996001Y5690000I0J5000D01*
G01*
Y6494000D02*
G03*
X16996001Y6484000I0J-5000D01*
G01*
D02*
G03*
X16996001Y6494000I0J5000D01*
G01*
X14885001Y4990000D02*
X14875000D01*
X14885001D01*
X7740000Y3240000D02*
G03*
X7750000Y3240000I5000J0D01*
G01*
D02*
G03*
X7740000Y3240000I-5000J0D01*
G01*
X15496001Y9584000D02*
G03*
X15496001Y9594000I0J5000D01*
G01*
D02*
G03*
X15496001Y9584000I0J-5000D01*
G01*
X10860000Y11300000D02*
Y11290000D01*
Y11300000D01*
X10616000Y10196000D02*
G03*
X10606000Y10196000I-5000J0D01*
G01*
D02*
G03*
X10616000Y10196000I5000J0D01*
G01*
X11484000Y11004000D02*
G03*
X11494000Y11004000I5000J0D01*
G01*
D02*
G03*
X11484000Y11004000I-5000J0D01*
G01*
X14839999Y11000000D02*
Y11010000D01*
Y11000000D01*
X16503500Y11600000D02*
G03*
X16513499Y11600000I5000J0D01*
G01*
D02*
G03*
X16503500Y11600000I-5000J0D01*
G01*
X15720003Y11995983D02*
G03*
X15710002Y11995983I-5000J0D01*
G01*
D02*
G03*
X15720003Y11995983I5000J0D01*
G01*
X13180000Y3935000D02*
X13560001D01*
X13180000Y3685000D02*
X13560001D01*
X13180000Y3655000D02*
X13560001D01*
X13180000Y3405000D02*
X13560001D01*
X10501214Y3646212D02*
X10881214D01*
X10501214Y3396212D02*
X10881214D01*
X10501214Y3926212D02*
X10881214D01*
X10501214Y3676212D02*
X10881214D01*
X17025000Y3810000D02*
Y4190000D01*
X16775000Y3810000D02*
Y4190000D01*
X16725000Y3810000D02*
Y4190000D01*
X16475000Y3810000D02*
Y4190000D01*
X10275000Y11610000D02*
Y11990000D01*
X10525000Y11610000D02*
Y11990000D01*
X16375000Y10510001D02*
Y10890000D01*
X16625000Y10510001D02*
Y10890000D01*
X7860000Y11198700D02*
Y11331300D01*
X7800000Y11198700D02*
X7860000D01*
X7660000D02*
X7720000D01*
X7660000D02*
Y11331300D01*
D124*
X5262000Y5450000D02*
X5418000D01*
X4662000D02*
X4818000D01*
X4062000D02*
X4218000D01*
X3462000D02*
X3618000D01*
X2972000Y4747000D02*
Y4903000D01*
Y4147000D02*
Y4303000D01*
X3462000Y3600000D02*
X3618000D01*
X4062000D02*
X4218000D01*
X4662000D02*
X4818000D01*
X5262000D02*
X5418000D01*
X5908000Y4147000D02*
Y4303000D01*
Y4747000D02*
Y4903000D01*
X5047100Y9250001D02*
Y9550000D01*
X5352900Y9250001D02*
Y9550000D01*
X5752900Y9250001D02*
Y9550000D01*
X5447100Y9250001D02*
Y9550000D01*
X7155400Y9266001D02*
Y9566000D01*
X6849600Y9266001D02*
Y9566000D01*
%TF.MD5,46db6bfc1d9fd39d801f4258b46197a4*%
M02*
