%TF.GenerationSoftware,Altium Limited,Altium Designer,24.2.2 (26)*%
G04 Layer_Physical_Order=6*
G04 Layer_Color=16711680*
%FSLAX45Y45*%
%MOMM*%
%TF.SameCoordinates,2C43E8B5-FC8E-40A2-A425-C8743FE8A27F*%
%TF.FilePolarity,Positive*%
%TF.FileFunction,Copper,L6,Bot,Signal*%
%TF.Part,Single*%
G01*
G75*
%TA.AperFunction,Conductor*%
%ADD10C,0.25400*%
%ADD12C,0.15000*%
%ADD13C,0.50000*%
%TA.AperFunction,NonConductor*%
%ADD83C,0.25400*%
%TA.AperFunction,ComponentPad*%
%ADD84C,1.42240*%
%ADD85R,1.42240X1.42240*%
%ADD86C,1.30000*%
%ADD87R,1.30000X1.30000*%
%ADD88C,1.50000*%
%ADD89C,1.20000*%
%ADD90R,1.42240X1.42240*%
%ADD91R,1.50000X1.50000*%
%ADD92C,1.57500*%
%ADD93C,1.50800*%
%ADD94R,1.50800X1.50800*%
%ADD95C,4.16600*%
%TA.AperFunction,ViaPad*%
%ADD96C,4.00000*%
%ADD97C,8.00000*%
%ADD98C,0.45000*%
%ADD99C,1.50000*%
%TA.AperFunction,SMDPad,CuDef*%
%ADD115R,9.91000X8.30000*%
G04:AMPARAMS|DCode=116|XSize=3.93mm|YSize=1.06mm|CornerRadius=0.265mm|HoleSize=0mm|Usage=FLASHONLY|Rotation=180.000|XOffset=0mm|YOffset=0mm|HoleType=Round|Shape=RoundedRectangle|*
%AMROUNDEDRECTD116*
21,1,3.93000,0.53000,0,0,180.0*
21,1,3.40000,1.06000,0,0,180.0*
1,1,0.53000,-1.70000,0.26500*
1,1,0.53000,1.70000,0.26500*
1,1,0.53000,1.70000,-0.26500*
1,1,0.53000,-1.70000,-0.26500*
%
%ADD116ROUNDEDRECTD116*%
%ADD117R,6.60400X10.48000*%
%ADD118R,3.40000X0.90000*%
G36*
X7360000Y12171421D02*
X7349969Y12165221D01*
X7347300Y12164633D01*
X7346792Y12164972D01*
X7337456Y12168840D01*
X7329653Y12170392D01*
X7270347D01*
X7262544Y12168840D01*
X7262543Y12168839D01*
X7253208Y12164972D01*
X7246593Y12160552D01*
X7239448Y12153407D01*
X7235027Y12146791D01*
X7231160Y12137456D01*
X7229608Y12129652D01*
Y12124600D01*
Y11225400D01*
Y11220347D01*
X7231160Y11212544D01*
X7235027Y11203208D01*
X7239448Y11196593D01*
X7246593Y11189448D01*
X7253208Y11185027D01*
X7262544Y11181160D01*
X7270347Y11179608D01*
X7329652D01*
X7337456Y11181160D01*
X7346792Y11185027D01*
X7347300Y11185367D01*
X7360000Y11178578D01*
Y11071421D01*
X7349969Y11065221D01*
X7347300Y11064633D01*
X7346792Y11064972D01*
X7337456Y11068840D01*
X7329653Y11070392D01*
X7270347D01*
X7262544Y11068840D01*
X7262543Y11068839D01*
X7253208Y11064973D01*
X7246593Y11060552D01*
X7239448Y11053407D01*
X7235027Y11046791D01*
X7231160Y11037456D01*
X7229608Y11029652D01*
Y11024600D01*
Y10125400D01*
Y10120348D01*
X7231160Y10112544D01*
X7235027Y10103208D01*
X7239448Y10096593D01*
X7246593Y10089448D01*
X7253208Y10085027D01*
X7262544Y10081160D01*
X7270347Y10079608D01*
X7329652D01*
X7337456Y10081160D01*
X7346792Y10085027D01*
X7347300Y10085367D01*
X7360000Y10078579D01*
Y9990000D01*
X7221421D01*
X7215221Y10000030D01*
X7214633Y10002700D01*
X7214972Y10003208D01*
X7218840Y10012544D01*
X7220392Y10020347D01*
Y10079652D01*
X7218840Y10087456D01*
X7218839Y10087456D01*
X7214972Y10096791D01*
X7210552Y10103407D01*
X7203407Y10110552D01*
X7196792Y10114972D01*
X7187456Y10118840D01*
X7179653Y10120392D01*
X6270347D01*
X6262544Y10118840D01*
X6262543Y10118839D01*
X6253208Y10114972D01*
X6246593Y10110552D01*
X6239448Y10103407D01*
X6235027Y10096791D01*
X6231160Y10087456D01*
X6229608Y10079652D01*
Y10020347D01*
X6231160Y10012544D01*
X6235027Y10003208D01*
X6235366Y10002700D01*
X6228578Y9990000D01*
X6121422D01*
X6115221Y10000030D01*
X6114633Y10002700D01*
X6114972Y10003208D01*
X6118840Y10012544D01*
X6120392Y10020347D01*
Y10079652D01*
X6118840Y10087456D01*
X6118839Y10087456D01*
X6114973Y10096791D01*
X6110552Y10103407D01*
X6103407Y10110552D01*
X6096792Y10114972D01*
X6087456Y10118840D01*
X6079653Y10120392D01*
X5170348D01*
X5162544Y10118840D01*
X5162543Y10118839D01*
X5153208Y10114972D01*
X5146593Y10110552D01*
X5139448Y10103407D01*
X5135027Y10096791D01*
X5131160Y10087456D01*
X5129608Y10079652D01*
Y10020347D01*
X5131160Y10012544D01*
X5135027Y10003208D01*
X5135367Y10002700D01*
X5128578Y9990000D01*
X4980000D01*
Y10088741D01*
X4992700Y10093340D01*
X4996592Y10089448D01*
X5003208Y10085028D01*
X5012544Y10081161D01*
X5020347Y10079608D01*
X5079652D01*
X5087456Y10081161D01*
X5096791Y10085028D01*
X5103407Y10089448D01*
X5110552Y10096593D01*
X5114972Y10103208D01*
X5118840Y10112544D01*
X5120392Y10120347D01*
Y10125400D01*
Y11024600D01*
Y11029653D01*
X5118840Y11037456D01*
X5118839Y11037457D01*
X5114972Y11046792D01*
X5110552Y11053407D01*
X5103407Y11060552D01*
X5096792Y11064973D01*
X5087456Y11068840D01*
X5079653Y11070392D01*
X5020347D01*
X5012544Y11068840D01*
X5012543Y11068839D01*
X5003208Y11064973D01*
X4996592Y11060552D01*
X4992700Y11056660D01*
X4980000Y11061260D01*
Y11188740D01*
X4992700Y11193340D01*
X4996592Y11189448D01*
X5003208Y11185027D01*
X5012544Y11181161D01*
X5020347Y11179608D01*
X5079652D01*
X5087456Y11181161D01*
X5096791Y11185027D01*
X5103407Y11189448D01*
X5110552Y11196593D01*
X5114972Y11203208D01*
X5118840Y11212544D01*
X5120392Y11220347D01*
Y11225400D01*
Y12124600D01*
Y12129652D01*
X5118840Y12137456D01*
X5118839Y12137457D01*
X5114972Y12146792D01*
X5110552Y12153407D01*
X5103407Y12160552D01*
X5096792Y12164972D01*
X5087456Y12168840D01*
X5079653Y12170392D01*
X5020347D01*
X5012544Y12168840D01*
X5012543Y12168839D01*
X5003208Y12164973D01*
X4996592Y12160552D01*
X4992700Y12156660D01*
X4980000Y12161260D01*
Y12320000D01*
X5130307D01*
X5131796Y12318600D01*
X5136703Y12307300D01*
X5135027Y12304791D01*
X5131160Y12295456D01*
X5129608Y12287652D01*
Y12228347D01*
X5131160Y12220544D01*
X5135027Y12211208D01*
X5139448Y12204593D01*
X5146593Y12197448D01*
X5153208Y12193027D01*
X5162544Y12189160D01*
X5170348Y12187608D01*
X6079652D01*
X6087456Y12189160D01*
X6096791Y12193027D01*
X6103407Y12197448D01*
X6110552Y12204593D01*
X6114972Y12211208D01*
X6118840Y12220544D01*
X6120392Y12228347D01*
Y12287652D01*
X6118840Y12295456D01*
X6118839Y12295456D01*
X6114973Y12304791D01*
X6113297Y12307300D01*
X6118203Y12318600D01*
X6119693Y12320000D01*
X6231080D01*
X6233862Y12316811D01*
X6237372Y12307300D01*
X6235027Y12303791D01*
X6231161Y12294456D01*
X6229608Y12286652D01*
Y12227347D01*
X6231161Y12219544D01*
X6235027Y12210208D01*
X6239448Y12203593D01*
X6246593Y12196448D01*
X6253208Y12192027D01*
X6262544Y12188160D01*
X6270348Y12186608D01*
X7179652D01*
X7187456Y12188160D01*
X7196792Y12192027D01*
X7203407Y12196448D01*
X7210552Y12203593D01*
X7214972Y12210208D01*
X7218840Y12219544D01*
X7220392Y12227347D01*
Y12286652D01*
X7218840Y12294456D01*
X7218839Y12294456D01*
X7214973Y12303791D01*
X7212628Y12307300D01*
X7216138Y12316811D01*
X7218920Y12320000D01*
X7360000D01*
Y12171421D01*
D02*
G37*
G36*
X17150000Y10170000D02*
X17170683D01*
X17211255Y10161929D01*
X17249472Y10146099D01*
X17283867Y10123117D01*
X17313116Y10093867D01*
X17336099Y10059472D01*
X17351929Y10021255D01*
X17360001Y9980683D01*
Y9960000D01*
X17360001Y5924000D01*
Y5898983D01*
X17350240Y5849911D01*
X17331091Y5803686D01*
X17303294Y5762084D01*
X17267915Y5726705D01*
X17226314Y5698908D01*
X17180089Y5679761D01*
X17131017Y5670000D01*
X14768983D01*
X14719911Y5679761D01*
X14673686Y5698908D01*
X14632085Y5726705D01*
X14596706Y5762084D01*
X14568909Y5803686D01*
X14549760Y5849911D01*
X14539999Y5898983D01*
Y5924000D01*
Y7520000D01*
Y7534774D01*
X14545764Y7563753D01*
X14557071Y7591051D01*
X14573486Y7615619D01*
X14594380Y7636512D01*
X14618948Y7652928D01*
X14646246Y7664235D01*
X14675226Y7670000D01*
X16057646D01*
X16065376Y7659924D01*
X16062601Y7649560D01*
Y7624440D01*
X16069101Y7600177D01*
X16081660Y7578423D01*
X16099423Y7560661D01*
X16121178Y7548101D01*
X16145441Y7541600D01*
X16170560D01*
X16194823Y7548101D01*
X16216577Y7560661D01*
X16234338Y7578423D01*
X16246898Y7600177D01*
X16253400Y7624440D01*
Y7649560D01*
X16250623Y7659924D01*
X16258354Y7670000D01*
X16560001D01*
Y7670000D01*
X16569801Y7670481D01*
X16589027Y7674306D01*
X16607140Y7681808D01*
X16623439Y7692699D01*
X16637302Y7706561D01*
X16648192Y7722860D01*
X16655695Y7740971D01*
X16659518Y7760198D01*
X16660001Y7770000D01*
X16660001Y8290000D01*
X16660001D01*
X16658940Y8311564D01*
X16650526Y8353862D01*
X16634023Y8393707D01*
X16610062Y8429566D01*
X16579565Y8460062D01*
X16543707Y8484022D01*
X16503862Y8500527D01*
X16461563Y8508940D01*
X16439999Y8510000D01*
X16331276D01*
X16330025Y8522700D01*
X16366592Y8529974D01*
X16408141Y8547183D01*
X16445534Y8572168D01*
X16477332Y8603967D01*
X16502316Y8641359D01*
X16519527Y8682907D01*
X16528300Y8727014D01*
Y8771986D01*
X16519527Y8816093D01*
X16502316Y8857640D01*
X16477332Y8895033D01*
X16445534Y8926832D01*
X16408141Y8951816D01*
X16366592Y8969026D01*
X16322485Y8977800D01*
X16277515D01*
X16233408Y8969026D01*
X16191859Y8951816D01*
X16154466Y8926832D01*
X16122668Y8895033D01*
X16097684Y8857640D01*
X16080473Y8816093D01*
X16071700Y8771986D01*
Y8727014D01*
X16080473Y8682907D01*
X16097684Y8641359D01*
X16122668Y8603967D01*
X16154466Y8572168D01*
X16191859Y8547183D01*
X16233408Y8529974D01*
X16269975Y8522700D01*
X16268724Y8510000D01*
X13880000Y8510000D01*
X13855496Y8508796D01*
X13807430Y8499235D01*
X13762151Y8480480D01*
X13721402Y8453253D01*
X13686748Y8418598D01*
X13659520Y8377849D01*
X13640765Y8332571D01*
X13631204Y8284504D01*
X13630000Y8260000D01*
Y8035118D01*
X13617300Y8030441D01*
X13607133Y8040607D01*
X13592700Y8046586D01*
Y8000000D01*
Y7953414D01*
X13607133Y7959393D01*
X13617300Y7969559D01*
X13630000Y7964882D01*
Y7013534D01*
X13617300Y7011008D01*
X13616029Y7014074D01*
X13604074Y7026030D01*
X13588454Y7032500D01*
X13571545D01*
X13555927Y7026030D01*
X13543970Y7014074D01*
X13537500Y6998454D01*
Y6981546D01*
X13543970Y6965926D01*
X13555927Y6953970D01*
X13571545Y6947500D01*
X13588454D01*
X13604074Y6953970D01*
X13616029Y6965926D01*
X13617300Y6968992D01*
X13630000Y6966466D01*
Y6788983D01*
X13620239Y6739911D01*
X13601093Y6693686D01*
X13573294Y6652084D01*
X13537915Y6616705D01*
X13496313Y6588908D01*
X13450089Y6569761D01*
X13401018Y6560000D01*
X12228756D01*
X12220879Y6564548D01*
X12200532Y6570000D01*
X12179468D01*
X12159121Y6564548D01*
X12151244Y6560000D01*
X10646502D01*
Y6565433D01*
X10640032Y6581053D01*
X10628076Y6593009D01*
X10612456Y6599479D01*
X10595548D01*
X10579928Y6593009D01*
X10567972Y6581053D01*
X10561502Y6565433D01*
Y6560000D01*
X10404000D01*
Y6560000D01*
X10379103Y6558777D01*
X10330268Y6549063D01*
X10295507Y6534664D01*
X10288313Y6545431D01*
X10290935Y6548053D01*
X10302931Y6568831D01*
X10309141Y6592006D01*
Y6615998D01*
X10302931Y6639173D01*
X10290935Y6659951D01*
X10273970Y6676916D01*
X10253192Y6688912D01*
X10230017Y6695122D01*
X10206025D01*
X10182850Y6688912D01*
X10162072Y6676916D01*
X10145106Y6659951D01*
X10133110Y6639173D01*
X10126901Y6615998D01*
Y6592006D01*
X10133110Y6568831D01*
X10145106Y6548053D01*
X10162072Y6531088D01*
X10182850Y6519092D01*
X10206025Y6512882D01*
X10230017D01*
X10239631Y6515458D01*
X10244943Y6503733D01*
X10242864Y6502344D01*
X10207655Y6467136D01*
X10179992Y6425735D01*
X10160937Y6379732D01*
X10151223Y6330896D01*
X10150000Y6306000D01*
Y6158864D01*
X10147086Y6155949D01*
X10135089Y6135171D01*
X10128880Y6111996D01*
Y6088004D01*
X10135089Y6064829D01*
X10147086Y6044051D01*
X10150000Y6041137D01*
Y5910000D01*
X10150000D01*
Y5886362D01*
X10140777Y5839995D01*
X10122685Y5796318D01*
X10096420Y5757009D01*
X10062991Y5723580D01*
X10023682Y5697315D01*
X9980005Y5679223D01*
X9933638Y5670000D01*
X9910000D01*
X8095160Y5670000D01*
X8087142Y5678018D01*
X8068900Y5688550D01*
X8048553Y5694002D01*
X8027489D01*
X8007142Y5688550D01*
X7988900Y5678018D01*
X7980882Y5670000D01*
X7710000D01*
X7697258Y5669374D01*
X7672263Y5664402D01*
X7648718Y5654650D01*
X7627529Y5640491D01*
X7609509Y5622471D01*
X7595350Y5601282D01*
X7585598Y5577737D01*
X7580626Y5552742D01*
X7580000Y5540000D01*
Y4336697D01*
X7567300Y4328836D01*
X7558454Y4332500D01*
X7541547D01*
X7525926Y4326030D01*
X7518076Y4318179D01*
X7510000Y4315427D01*
X7501925Y4318179D01*
X7494074Y4326030D01*
X7478454Y4332500D01*
X7461546D01*
X7445926Y4326030D01*
X7433970Y4314074D01*
X7427500Y4298454D01*
Y4281546D01*
X7433970Y4265926D01*
X7445926Y4253970D01*
X7461546Y4247500D01*
X7478454D01*
X7494074Y4253970D01*
X7501925Y4261821D01*
X7510000Y4264573D01*
X7518076Y4261821D01*
X7525926Y4253970D01*
X7541547Y4247500D01*
X7558454D01*
X7567300Y4251164D01*
X7580000Y4243303D01*
Y3728064D01*
X7567300Y3722804D01*
X7564074Y3726030D01*
X7548454Y3732500D01*
X7531547D01*
X7515926Y3726030D01*
X7508076Y3718179D01*
X7500000Y3715427D01*
X7491925Y3718179D01*
X7484074Y3726030D01*
X7468454Y3732500D01*
X7451546D01*
X7435926Y3726030D01*
X7423970Y3714074D01*
X7417500Y3698454D01*
Y3681546D01*
X7423970Y3665926D01*
X7435926Y3653970D01*
X7451546Y3647500D01*
X7468454D01*
X7484074Y3653970D01*
X7491925Y3661821D01*
X7500000Y3664573D01*
X7508076Y3661821D01*
X7515926Y3653970D01*
X7531547Y3647500D01*
X7548454D01*
X7564074Y3653970D01*
X7567300Y3657196D01*
X7580000Y3651936D01*
Y3324000D01*
X7580000D01*
X7581223Y3299103D01*
X7590937Y3250268D01*
X7609992Y3204265D01*
X7637656Y3162864D01*
X7672864Y3127655D01*
X7714265Y3099992D01*
X7760268Y3080937D01*
X7809104Y3071223D01*
X7834000Y3070000D01*
X7993303D01*
X8001165Y3057300D01*
X7997500Y3048454D01*
Y3031546D01*
X8003971Y3015926D01*
X8015926Y3003970D01*
X8031547Y2997500D01*
X8048454D01*
X8064074Y3003970D01*
X8076030Y3015926D01*
X8082500Y3031546D01*
Y3048454D01*
X8078836Y3057300D01*
X8086697Y3070000D01*
X11890000Y3070000D01*
X11897889D01*
X11912467Y3063962D01*
X11923625Y3052804D01*
X11929663Y3038226D01*
Y2893139D01*
X11929662Y2893138D01*
X11928385Y2880168D01*
X11916666Y2856886D01*
X11897352Y2839381D01*
X11873033Y2830000D01*
X6264241D01*
X6233329Y2836149D01*
X6204211Y2848210D01*
X6178006Y2865720D01*
X6155720Y2888006D01*
X6138210Y2914211D01*
X6126149Y2943329D01*
X6120000Y2974241D01*
Y2990000D01*
Y6623896D01*
X6121975D01*
X6137596Y6630366D01*
X6149551Y6642322D01*
X6156021Y6657942D01*
Y6674849D01*
X6149551Y6690470D01*
X6137596Y6702426D01*
X6121975Y6708896D01*
X6120000D01*
Y7097109D01*
X6121975D01*
X6137596Y7103579D01*
X6149551Y7115535D01*
X6156021Y7131155D01*
Y7148063D01*
X6149551Y7163683D01*
X6137596Y7175639D01*
X6121975Y7182109D01*
X6120000D01*
Y7556000D01*
Y7581017D01*
X6129761Y7630089D01*
X6148908Y7676314D01*
X6176705Y7717915D01*
X6212084Y7753294D01*
X6253686Y7781092D01*
X6299911Y7800239D01*
X6348983Y7810000D01*
X9366000D01*
Y7810000D01*
X9390896Y7811223D01*
X9439732Y7820937D01*
X9485735Y7839992D01*
X9527136Y7867655D01*
X9562344Y7902864D01*
X9590008Y7944265D01*
X9609063Y7990267D01*
X9618777Y8039103D01*
X9620000Y8064000D01*
X9620000Y9916000D01*
Y9941017D01*
X9629761Y9990089D01*
X9648908Y10036314D01*
X9676705Y10077915D01*
X9712084Y10113294D01*
X9753686Y10141092D01*
X9799911Y10160239D01*
X9848983Y10170000D01*
X10940853D01*
X10947909Y10159440D01*
X10947500Y10158454D01*
Y10141546D01*
X10953970Y10125926D01*
X10965926Y10113970D01*
X10981546Y10107500D01*
X10998454D01*
X11014074Y10113970D01*
X11021924Y10121820D01*
X11030000Y10124573D01*
X11038076Y10121820D01*
X11045926Y10113970D01*
X11061546Y10107500D01*
X11078454D01*
X11094074Y10113970D01*
X11106030Y10125926D01*
X11112500Y10141546D01*
Y10158454D01*
X11112091Y10159440D01*
X11118949Y10169704D01*
X11131051D01*
X11137909Y10159440D01*
X11137500Y10158454D01*
Y10141546D01*
X11143971Y10125926D01*
X11155926Y10113970D01*
X11171547Y10107500D01*
X11188454D01*
X11204074Y10113970D01*
X11211924Y10121820D01*
X11220000Y10124573D01*
X11228076Y10121820D01*
X11235926Y10113970D01*
X11251546Y10107500D01*
X11268454D01*
X11284074Y10113970D01*
X11296030Y10125926D01*
X11302500Y10141546D01*
Y10158454D01*
X11302091Y10159440D01*
X11309147Y10170000D01*
X13170853D01*
X13177908Y10159440D01*
X13177499Y10158454D01*
Y10141546D01*
X13183971Y10125926D01*
X13195926Y10113970D01*
X13211546Y10107500D01*
X13228455D01*
X13244073Y10113970D01*
X13256030Y10125926D01*
X13262500Y10141546D01*
Y10158453D01*
X13266280Y10158902D01*
X13277499Y10147147D01*
Y10141546D01*
X13283971Y10125926D01*
X13295926Y10113970D01*
X13311546Y10107500D01*
X13328455D01*
X13344073Y10113970D01*
X13356030Y10125926D01*
X13362500Y10141546D01*
Y10158453D01*
X13366280Y10158902D01*
X13377499Y10147147D01*
Y10141546D01*
X13383971Y10125926D01*
X13395926Y10113970D01*
X13411546Y10107500D01*
X13428455D01*
X13444073Y10113970D01*
X13456030Y10125926D01*
X13462500Y10141546D01*
Y10158453D01*
X13466280Y10158902D01*
X13477499Y10147147D01*
Y10141546D01*
X13483971Y10125926D01*
X13495926Y10113970D01*
X13511546Y10107500D01*
X13528455D01*
X13544073Y10113970D01*
X13551924Y10121820D01*
X13560001Y10124573D01*
X13568076Y10121820D01*
X13575926Y10113970D01*
X13591547Y10107500D01*
X13608453D01*
X13624074Y10113970D01*
X13636031Y10125926D01*
X13642500Y10141546D01*
Y10158453D01*
X13646278Y10158902D01*
X13657500Y10147147D01*
Y10141546D01*
X13663969Y10125926D01*
X13675926Y10113970D01*
X13691547Y10107500D01*
X13708453D01*
X13724074Y10113970D01*
X13736031Y10125926D01*
X13742500Y10141546D01*
Y10158453D01*
X13746278Y10158902D01*
X13757500Y10147147D01*
Y10141546D01*
X13763969Y10125926D01*
X13775926Y10113970D01*
X13791547Y10107500D01*
X13808453D01*
X13824074Y10113970D01*
X13836031Y10125926D01*
X13842500Y10141546D01*
Y10158453D01*
X13846278Y10158902D01*
X13857500Y10147147D01*
Y10141546D01*
X13863969Y10125926D01*
X13875926Y10113970D01*
X13891547Y10107500D01*
X13908453D01*
X13924074Y10113970D01*
X13936031Y10125926D01*
X13942500Y10141546D01*
Y10158454D01*
X13942091Y10159440D01*
X13949147Y10170000D01*
X16360339D01*
X16361546Y10169500D01*
X16378455D01*
X16379660Y10170000D01*
X16460339D01*
X16461546Y10169500D01*
X16478455D01*
X16479660Y10170000D01*
X16560339D01*
X16561546Y10169500D01*
X16578455D01*
X16579662Y10170000D01*
X16660339D01*
X16661546Y10169500D01*
X16678455D01*
X16679662Y10170000D01*
X17150000D01*
Y10170000D01*
D02*
G37*
G36*
X16525003Y8335388D02*
X16546841Y8326343D01*
X16566495Y8313210D01*
X16583211Y8296495D01*
X16596342Y8276841D01*
X16605388Y8255003D01*
X16610001Y8231819D01*
Y7900000D01*
X16610001Y7900000D01*
X16610001Y7884241D01*
X16603851Y7853329D01*
X16591789Y7824211D01*
X16574280Y7798006D01*
X16551994Y7775720D01*
X16548599Y7773452D01*
X16537399Y7779439D01*
Y7786559D01*
X16530898Y7810823D01*
X16518340Y7832577D01*
X16500577Y7850339D01*
X16478822Y7862898D01*
X16454559Y7869400D01*
X16429440D01*
X16405177Y7862898D01*
X16383423Y7850339D01*
X16365662Y7832577D01*
X16353101Y7810823D01*
X16346600Y7786559D01*
Y7761440D01*
X16349644Y7750076D01*
X16341914Y7740000D01*
X14550000Y7740000D01*
X14549998Y7739999D01*
X14532356Y7739132D01*
X14497748Y7732248D01*
X14465147Y7718745D01*
X14435809Y7699141D01*
X14410858Y7674190D01*
X14391254Y7644851D01*
X14377751Y7612251D01*
X14370866Y7577643D01*
X14370000Y7560000D01*
Y5140000D01*
Y5122271D01*
X14363083Y5087496D01*
X14349513Y5054738D01*
X14329816Y5025256D01*
X14304742Y5000185D01*
X14275262Y4980486D01*
X14242503Y4966917D01*
X14207729Y4960000D01*
X13820000D01*
Y4960000D01*
X13809218Y4959470D01*
X13788069Y4955263D01*
X13768146Y4947011D01*
X13750217Y4935031D01*
X13734969Y4919783D01*
X13722989Y4901853D01*
X13714737Y4881931D01*
X13710530Y4860782D01*
X13710001Y4850000D01*
X13710001Y4240000D01*
Y4229166D01*
X13705772Y4207914D01*
X13697481Y4187895D01*
X13685443Y4169879D01*
X13670120Y4154557D01*
X13652106Y4142519D01*
X13632086Y4134227D01*
X13610834Y4130000D01*
X13220000D01*
Y4130000D01*
X13210152D01*
X13190831Y4133843D01*
X13172632Y4141381D01*
X13156255Y4152325D01*
X13142325Y4166254D01*
X13131381Y4182632D01*
X13123843Y4200831D01*
X13120000Y4220151D01*
Y4230000D01*
Y4290000D01*
X13108064D01*
X13086012Y4299134D01*
X13069135Y4316013D01*
X13060001Y4338065D01*
Y4350000D01*
Y4390000D01*
X13058847Y4401705D01*
X13049889Y4423334D01*
X13033334Y4439888D01*
X13011705Y4448847D01*
X13000000Y4450000D01*
X12602043D01*
X12587342Y4456089D01*
X12576089Y4467342D01*
X12570000Y4482043D01*
Y4490000D01*
Y4710000D01*
Y4717956D01*
X12576089Y4732658D01*
X12587342Y4743910D01*
X12602043Y4750000D01*
X13120000D01*
X13120000Y5217300D01*
X13120000Y5230000D01*
X13119382D01*
X13110001Y5239381D01*
X13110001Y5500853D01*
X13118604Y5506602D01*
X13122701Y5507500D01*
X13138454D01*
X13154074Y5513970D01*
X13166029Y5525926D01*
X13172501Y5541546D01*
Y5558454D01*
X13166029Y5574074D01*
X13154074Y5586030D01*
X13138454Y5592500D01*
X13121547D01*
X13110001Y5601464D01*
X13109999Y5730000D01*
X13110001D01*
X13109999Y5730000D01*
X13109998Y5730018D01*
X13109470Y5740782D01*
X13109283Y5741712D01*
X13105263Y5761931D01*
X13097011Y5781853D01*
X13085031Y5799783D01*
X13069783Y5815031D01*
X13051852Y5827011D01*
X13031931Y5835263D01*
X13010780Y5839470D01*
X13000000Y5839999D01*
X12760000Y5840000D01*
X12753139Y5839663D01*
X12739680Y5836986D01*
X12727002Y5831734D01*
X12715592Y5824111D01*
X12705889Y5814407D01*
X12698265Y5802998D01*
X12693014Y5790320D01*
X12690337Y5776861D01*
X12690000Y5770000D01*
Y5753105D01*
X12687310Y5739582D01*
X12682033Y5726842D01*
X12674372Y5715377D01*
X12664622Y5705627D01*
X12653157Y5697967D01*
X12640418Y5692690D01*
X12626894Y5690000D01*
X12620000D01*
X11250000Y5690000D01*
X11250000Y5689999D01*
X11240198Y5689518D01*
X11220971Y5685693D01*
X11202860Y5678191D01*
X11186561Y5667300D01*
X11172699Y5653439D01*
X11161808Y5637139D01*
X11154306Y5619028D01*
X11150481Y5599801D01*
X11150000Y5590000D01*
Y4440000D01*
X11150000D01*
Y4424361D01*
X11143897Y4393683D01*
X11131928Y4364786D01*
X11114551Y4338779D01*
X11092433Y4316662D01*
X11066426Y4299284D01*
X11037529Y4287315D01*
X11006851Y4281213D01*
X10991212D01*
X10859171D01*
X10859170Y4281212D01*
X10429279D01*
X10407227Y4290347D01*
X10390348Y4307225D01*
X10381214Y4329277D01*
Y4381212D01*
X10380061Y4392918D01*
X10371102Y4414546D01*
X10354548Y4431100D01*
X10332919Y4440059D01*
X10321214Y4441212D01*
X9931213D01*
X9923257Y4441212D01*
X9908555Y4447301D01*
X9897303Y4458554D01*
X9891214Y4473255D01*
X9891214Y4481212D01*
Y4481212D01*
Y4701212D01*
Y4709169D01*
X9892890Y4713216D01*
X9892891Y4713218D01*
X9897303Y4723870D01*
X9908555Y4735123D01*
X9920734Y4740167D01*
X9923257Y4741212D01*
X10420009D01*
X10430725Y4741679D01*
X10432375Y4741998D01*
X10451781Y4745746D01*
X10471639Y4753843D01*
X10489536Y4765658D01*
X10504784Y4780738D01*
X10516797Y4798503D01*
X10525113Y4818270D01*
X10529413Y4839280D01*
X10529999Y4849999D01*
X10530000Y5915999D01*
X10530000Y5916000D01*
X10530311Y5928571D01*
X10530459Y5931576D01*
X10530917Y5937794D01*
X10531223Y5940896D01*
X10530000Y6186000D01*
X10530001Y6186000D01*
X10530000D01*
Y6211017D01*
X10539761Y6260089D01*
X10558908Y6306314D01*
X10586706Y6347915D01*
X10622084Y6383294D01*
X10663686Y6411092D01*
X10709911Y6430239D01*
X10758983Y6440000D01*
X10784000D01*
X12126863Y6440000D01*
X12140879Y6425984D01*
X12159121Y6415452D01*
X12179468Y6410000D01*
X12200532D01*
X12220879Y6415452D01*
X12239121Y6425984D01*
X12253137Y6440000D01*
X13510001Y6440000D01*
X13527643Y6440867D01*
X13562251Y6447751D01*
X13594852Y6461254D01*
X13624190Y6480858D01*
X13649141Y6505809D01*
X13668745Y6535148D01*
X13682249Y6567749D01*
X13689133Y6602357D01*
X13689999Y6620000D01*
Y6844016D01*
X13689999Y7530853D01*
X13700560Y7537909D01*
X13701546Y7537500D01*
X13718454D01*
X13734074Y7543970D01*
X13746030Y7555926D01*
X13752499Y7571546D01*
Y7588454D01*
X13746030Y7604074D01*
X13734074Y7616030D01*
X13718454Y7622500D01*
X13702699D01*
X13698604Y7623398D01*
X13689999Y7629147D01*
X13689999Y7958141D01*
X13704074Y7963970D01*
X13716029Y7975926D01*
X13722501Y7991546D01*
Y8008454D01*
X13716029Y8024074D01*
X13704074Y8036030D01*
X13689999Y8041859D01*
Y8086000D01*
X13689999D01*
Y8111017D01*
X13699760Y8160089D01*
X13718909Y8206314D01*
X13746706Y8247915D01*
X13782085Y8283294D01*
X13823686Y8311092D01*
X13869911Y8330239D01*
X13918983Y8340000D01*
X13944000D01*
X14633704D01*
X14635091Y8334829D01*
X14647086Y8314051D01*
X14664050Y8297086D01*
X14684830Y8285090D01*
X14708005Y8278880D01*
X14731996D01*
X14755171Y8285090D01*
X14775949Y8297086D01*
X14792914Y8314051D01*
X14804910Y8334829D01*
X14806296Y8340000D01*
X16489999Y8340000D01*
X16501819D01*
X16525003Y8335388D01*
D02*
G37*
G36*
X13022658Y5233910D02*
X13033910Y5222658D01*
X13039999Y5207956D01*
Y5200000D01*
Y4990000D01*
Y4980054D01*
X13032388Y4961677D01*
X13018323Y4947612D01*
X12999945Y4940000D01*
X12544032D01*
X12533006Y4944567D01*
X12524567Y4953006D01*
X12520000Y4964032D01*
Y4970000D01*
Y5220000D01*
Y5223978D01*
X12523045Y5231329D01*
X12528671Y5236955D01*
X12536021Y5240000D01*
X13007956D01*
X13022658Y5233910D01*
D02*
G37*
G36*
X10343872Y5225123D02*
X10355124Y5213870D01*
X10361214Y5199169D01*
Y5191212D01*
Y4981212D01*
Y4971267D01*
X10353602Y4952890D01*
X10339536Y4938824D01*
X10321159Y4931212D01*
X9865246D01*
X9854220Y4935780D01*
X9845781Y4944219D01*
X9841214Y4955245D01*
Y4961212D01*
Y5211212D01*
Y5215190D01*
X9844258Y5222541D01*
X9849885Y5228167D01*
X9857235Y5231212D01*
X10329170D01*
X10343872Y5225123D01*
D02*
G37*
G36*
X12336252Y5596541D02*
X12352631Y5589757D01*
X12367371Y5579907D01*
X12379907Y5567371D01*
X12389757Y5552631D01*
X12396541Y5536252D01*
X12400000Y5518864D01*
Y5510000D01*
Y4440000D01*
Y4432121D01*
X12396925Y4416665D01*
X12390895Y4402106D01*
X12382140Y4389003D01*
X12370997Y4377860D01*
X12357894Y4369105D01*
X12343335Y4363074D01*
X12327879Y4360000D01*
X11352121D01*
X11336665Y4363074D01*
X11322106Y4369105D01*
X11309003Y4377860D01*
X11297860Y4389003D01*
X11289105Y4402106D01*
X11283074Y4416665D01*
X11280000Y4432121D01*
Y4440000D01*
Y5520000D01*
Y5527879D01*
X11283074Y5543335D01*
X11289105Y5557894D01*
X11297860Y5570997D01*
X11309003Y5582140D01*
X11322106Y5590895D01*
X11336665Y5596926D01*
X11352121Y5600000D01*
X12318864D01*
X12336252Y5596541D01*
D02*
G37*
G36*
X9657466Y5587754D02*
X9673845Y5580969D01*
X9688585Y5571120D01*
X9701121Y5558584D01*
X9710971Y5543843D01*
X9717755Y5527464D01*
X9721214Y5510076D01*
Y5501212D01*
Y4431212D01*
Y4423333D01*
X9718139Y4407877D01*
X9712109Y4393318D01*
X9703354Y4380215D01*
X9692210Y4369072D01*
X9679108Y4360317D01*
X9664549Y4354286D01*
X9649093Y4351212D01*
X8673334D01*
X8657879Y4354286D01*
X8643320Y4360317D01*
X8630217Y4369072D01*
X8619073Y4380215D01*
X8610319Y4393318D01*
X8604288Y4407877D01*
X8601214Y4423333D01*
Y4431212D01*
Y5511212D01*
Y5519091D01*
X8604288Y5534547D01*
X8610319Y5549106D01*
X8619073Y5562209D01*
X8630217Y5573352D01*
X8643320Y5582107D01*
X8657879Y5588138D01*
X8673334Y5591212D01*
X9640078D01*
X9657466Y5587754D01*
D02*
G37*
G36*
X10098207Y4406645D02*
X10106646Y4398206D01*
X10111214Y4387180D01*
Y4101212D01*
X10111790Y4095359D01*
X10116270Y4084545D01*
X10124546Y4076268D01*
X10135361Y4071789D01*
X10141214Y4071212D01*
X10245192D01*
X10252543Y4068167D01*
X10258169Y4062541D01*
X10261214Y4055191D01*
Y3977234D01*
X10258169Y3969883D01*
X10252543Y3964257D01*
X10245192Y3961212D01*
X9873257D01*
X9863714Y3965165D01*
Y3969666D01*
X9857243Y3985286D01*
X9849393Y3993137D01*
X9846641Y4001212D01*
X9849393Y4009288D01*
X9857243Y4017138D01*
X9863714Y4032759D01*
Y4049666D01*
X9857243Y4065287D01*
X9845288Y4077242D01*
X9841214Y4078930D01*
Y4266659D01*
X9933312D01*
X9942335Y4257637D01*
X9953151Y4250409D01*
X9965910Y4247872D01*
X9971214D01*
X9983973Y4250410D01*
X9994789Y4257637D01*
X10002016Y4268453D01*
X10004554Y4281212D01*
X10002016Y4293971D01*
X9994789Y4304787D01*
X9983973Y4312015D01*
X9981832Y4312440D01*
X9970697Y4323575D01*
X9959881Y4330803D01*
X9947122Y4333341D01*
X9841214D01*
Y4379169D01*
X9847303Y4393870D01*
X9858556Y4405123D01*
X9873257Y4411212D01*
X10087181D01*
X10098207Y4406645D01*
D02*
G37*
G36*
X12776993Y4415433D02*
X12785432Y4406993D01*
X12790000Y4395967D01*
Y4110000D01*
X12790576Y4104147D01*
X12795056Y4093333D01*
X12803333Y4085056D01*
X12814146Y4080576D01*
X12820000Y4080000D01*
X12923978D01*
X12931329Y4076955D01*
X12936955Y4071329D01*
X12939999Y4063978D01*
Y3986021D01*
X12936955Y3978671D01*
X12931329Y3973045D01*
X12923978Y3970000D01*
X12552043D01*
X12542500Y3973953D01*
Y3978454D01*
X12536030Y3994074D01*
X12528179Y4001924D01*
X12525427Y4010000D01*
X12528179Y4018076D01*
X12536030Y4025926D01*
X12542500Y4041546D01*
Y4058454D01*
X12536030Y4074074D01*
X12524074Y4086030D01*
X12520000Y4087717D01*
Y4387956D01*
X12526090Y4402658D01*
X12537342Y4413910D01*
X12552043Y4420000D01*
X12765967D01*
X12776993Y4415433D01*
D02*
G37*
G36*
X12442658Y4303910D02*
X12453910Y4292658D01*
X12460000Y4277956D01*
Y4064489D01*
X12457500Y4058454D01*
Y4041546D01*
X12460000Y4035511D01*
Y3984489D01*
X12457500Y3978454D01*
Y3961546D01*
X12460000Y3955511D01*
Y3850000D01*
X12460961Y3840245D01*
X12468426Y3822221D01*
X12482221Y3808426D01*
X12500245Y3800961D01*
X12510000Y3800000D01*
X12937956D01*
X12952658Y3793910D01*
X12963910Y3782658D01*
X12970000Y3767956D01*
Y3760000D01*
Y3140000D01*
Y3132043D01*
X12963910Y3117341D01*
X12952658Y3106089D01*
X12937956Y3100000D01*
X12033105D01*
X12019581Y3102690D01*
X12006842Y3107967D01*
X11995377Y3115627D01*
X11985627Y3125377D01*
X11977967Y3136842D01*
X11972690Y3149581D01*
X11970000Y3163105D01*
Y3170000D01*
Y4280000D01*
Y4285967D01*
X11974567Y4296993D01*
X11983006Y4305433D01*
X11994033Y4310000D01*
X12427956D01*
X12442658Y4303910D01*
D02*
G37*
G36*
X11903987Y4240865D02*
X11920865Y4223987D01*
X11930000Y4201935D01*
Y4190000D01*
Y3130000D01*
Y3124032D01*
X11925432Y3113006D01*
X11916993Y3104567D01*
X11905967Y3100000D01*
X11213105D01*
X11199582Y3102690D01*
X11186842Y3107967D01*
X11175377Y3115627D01*
X11165627Y3125377D01*
X11157967Y3136842D01*
X11152690Y3149582D01*
X11150000Y3163105D01*
Y3170000D01*
Y4040000D01*
Y4047956D01*
X11156089Y4062658D01*
X11167342Y4073910D01*
X11182043Y4080000D01*
X11470000D01*
X11475853Y4080576D01*
X11486667Y4085056D01*
X11494944Y4093333D01*
X11499423Y4104147D01*
X11500000Y4110000D01*
Y4220000D01*
Y4225967D01*
X11504567Y4236994D01*
X11513006Y4245432D01*
X11524032Y4250000D01*
X11881935D01*
X11903987Y4240865D01*
D02*
G37*
G36*
X9772017Y4236770D02*
X9777984Y4230803D01*
X9781214Y4223006D01*
Y4055701D01*
X9778714Y4049666D01*
Y4032759D01*
X9781214Y4026723D01*
Y3975701D01*
X9778714Y3969666D01*
Y3952759D01*
X9781214Y3946723D01*
Y3841212D01*
X9781214D01*
X9782175Y3831458D01*
X9789641Y3813434D01*
X9803435Y3799639D01*
X9821459Y3792173D01*
X9831214Y3791213D01*
X10259170Y3791212D01*
X10273872Y3785122D01*
X10285124Y3773870D01*
X10291214Y3759169D01*
Y3751212D01*
Y3131212D01*
X10291214D01*
Y3123256D01*
X10285124Y3108554D01*
X10273872Y3097302D01*
X10259170Y3091213D01*
X10251214D01*
X9361214Y3091212D01*
X9354319D01*
X9340795Y3093902D01*
X9328056Y3099179D01*
X9316591Y3106840D01*
X9306841Y3116590D01*
X9299181Y3128055D01*
X9293904Y3140794D01*
X9291214Y3154318D01*
Y3161212D01*
Y4220000D01*
X9291214Y4220000D01*
X9294188Y4231468D01*
X9299107Y4236704D01*
X9306142Y4239879D01*
X9310000Y4240000D01*
X9764219Y4240000D01*
X9772017Y4236770D01*
D02*
G37*
G36*
X9225201Y4232078D02*
X9242079Y4215199D01*
X9251214Y4193147D01*
Y4181212D01*
Y3121212D01*
Y3115245D01*
X9246646Y3104219D01*
X9238207Y3095779D01*
X9227181Y3091212D01*
X8534319D01*
X8520796Y3093902D01*
X8508056Y3099179D01*
X8496591Y3106840D01*
X8486841Y3116590D01*
X8479180Y3128055D01*
X8473904Y3140794D01*
X8471214Y3154318D01*
Y3161212D01*
Y4201212D01*
Y4209169D01*
X8477303Y4223870D01*
X8488555Y4235123D01*
X8503257Y4241212D01*
X9203148D01*
X9225201Y4232078D01*
D02*
G37*
G36*
X17325117Y12593095D02*
X17368211Y12581549D01*
X17409431Y12564474D01*
X17448067Y12542168D01*
X17483463Y12515009D01*
X17515009Y12483461D01*
X17542169Y12448066D01*
X17564474Y12409431D01*
X17581549Y12368212D01*
X17593095Y12325118D01*
X17598920Y12280886D01*
Y12258578D01*
Y2941421D01*
Y2919115D01*
X17593095Y2874881D01*
X17581549Y2831788D01*
X17564474Y2790568D01*
X17542169Y2751932D01*
X17515009Y2716538D01*
X17483463Y2684990D01*
X17448067Y2657830D01*
X17409431Y2635525D01*
X17368211Y2618451D01*
X17325117Y2606904D01*
X17280885Y2601081D01*
X2919115D01*
X2874883Y2606904D01*
X2831788Y2618451D01*
X2790568Y2635525D01*
X2751932Y2657831D01*
X2716538Y2684990D01*
X2684990Y2716538D01*
X2657830Y2751934D01*
X2635525Y2790569D01*
X2618451Y2831788D01*
X2606904Y2874881D01*
X2601081Y2919115D01*
Y2941421D01*
Y12187299D01*
X2613781Y12199999D01*
X2771944Y12199999D01*
X2783696D01*
X2791837Y12199057D01*
X2799282Y12197270D01*
X2804530Y12194502D01*
X2809322Y12188169D01*
X2809369Y12188103D01*
X2814167Y12179862D01*
X2817993Y12170625D01*
X2820711Y12156963D01*
X2820710Y12143034D01*
X2817993Y12129373D01*
X2812662Y12116505D01*
X2807774Y12109190D01*
X2800163Y12100194D01*
X2799997Y12099999D01*
X2799998Y12099998D01*
X2800000Y3054000D01*
X2801223Y3029103D01*
X2810937Y2980268D01*
X2829992Y2934265D01*
X2857655Y2892864D01*
X2892864Y2857655D01*
X2934265Y2829992D01*
X2980268Y2810937D01*
X3029103Y2801223D01*
X3054000Y2800000D01*
X17146001D01*
X17170895Y2801223D01*
X17219733Y2810937D01*
X17265735Y2829992D01*
X17307137Y2857655D01*
X17342345Y2892864D01*
X17370007Y2934265D01*
X17389062Y2980268D01*
X17398776Y3029103D01*
X17400000Y3054000D01*
Y12146000D01*
X17398776Y12170896D01*
X17389062Y12219732D01*
X17370007Y12265735D01*
X17342345Y12307136D01*
X17307137Y12342345D01*
X17265735Y12370008D01*
X17219733Y12389063D01*
X17170895Y12398777D01*
X17146001Y12400000D01*
X3000000D01*
X2980397Y12399037D01*
X2941943Y12391388D01*
X2905721Y12376384D01*
X2873121Y12354602D01*
X2845398Y12326879D01*
X2823616Y12294279D01*
X2808612Y12258057D01*
X2800963Y12219603D01*
X2800494Y12210053D01*
X2800068Y12209384D01*
X2796702Y12205427D01*
X2788036Y12200000D01*
X2601081D01*
X2601081Y12212699D01*
Y12280885D01*
X2606904Y12325117D01*
X2618451Y12368212D01*
X2635525Y12409431D01*
X2657831Y12448067D01*
X2684990Y12483461D01*
X2716538Y12515009D01*
X2751934Y12542169D01*
X2790569Y12564475D01*
X2831788Y12581549D01*
X2874881Y12593095D01*
X2919113Y12598919D01*
X17280885D01*
X17325117Y12593095D01*
D02*
G37*
%LPC*%
G36*
X5403668Y12167000D02*
X5360332D01*
X5317828Y12158545D01*
X5277791Y12141961D01*
X5241758Y12117885D01*
X5211115Y12087242D01*
X5187039Y12051209D01*
X5170454Y12011171D01*
X5162000Y11968668D01*
Y11925332D01*
X5170454Y11882828D01*
X5187039Y11842791D01*
X5211115Y11806758D01*
X5241758Y11776115D01*
X5277791Y11752038D01*
X5317828Y11735454D01*
X5360332Y11727000D01*
X5382000D01*
Y10353194D01*
X6758471D01*
Y10331526D01*
X6766925Y10289023D01*
X6783509Y10248985D01*
X6807585Y10212952D01*
X6838229Y10182309D01*
X6874261Y10158233D01*
X6914299Y10141649D01*
X6956802Y10133194D01*
X7000138D01*
X7042642Y10141649D01*
X7082680Y10158233D01*
X7118712Y10182309D01*
X7149356Y10212952D01*
X7173432Y10248985D01*
X7190016Y10289023D01*
X7198470Y10331526D01*
Y10374862D01*
X7190016Y10417366D01*
X7173432Y10457403D01*
X7149356Y10493436D01*
X7118712Y10524079D01*
X7082680Y10548155D01*
X7042642Y10564740D01*
X7000138Y10573194D01*
X6980000D01*
Y11960000D01*
X5611016Y11948863D01*
X5602000Y11957807D01*
Y11968668D01*
X5593545Y12011171D01*
X5576961Y12051209D01*
X5552885Y12087242D01*
X5522242Y12117885D01*
X5486209Y12141961D01*
X5446171Y12158545D01*
X5403668Y12167000D01*
D02*
G37*
G36*
X15878455Y10062500D02*
X15861546D01*
X15845926Y10056029D01*
X15833971Y10044074D01*
X15827499Y10028453D01*
Y10011546D01*
X15833971Y9995926D01*
X15841821Y9988076D01*
X15844572Y9980000D01*
X15841821Y9971924D01*
X15833971Y9964074D01*
X15827499Y9948454D01*
Y9931546D01*
X15833971Y9915926D01*
X15845926Y9903970D01*
X15861546Y9897500D01*
X15878455D01*
X15894073Y9903970D01*
X15906030Y9915926D01*
X15912500Y9931546D01*
Y9948454D01*
X15906030Y9964074D01*
X15898180Y9971924D01*
X15895428Y9980000D01*
X15898180Y9988076D01*
X15906030Y9995926D01*
X15912500Y10011546D01*
Y10028453D01*
X15906030Y10044074D01*
X15894073Y10056029D01*
X15878455Y10062500D01*
D02*
G37*
G36*
X15778455D02*
X15761546D01*
X15745926Y10056029D01*
X15733971Y10044074D01*
X15727499Y10028453D01*
Y10011546D01*
X15733971Y9995926D01*
X15741821Y9988076D01*
X15744572Y9980000D01*
X15741821Y9971924D01*
X15733971Y9964074D01*
X15727499Y9948454D01*
Y9931546D01*
X15733971Y9915926D01*
X15745926Y9903970D01*
X15761546Y9897500D01*
X15778455D01*
X15794073Y9903970D01*
X15806030Y9915926D01*
X15812500Y9931546D01*
Y9948454D01*
X15806030Y9964074D01*
X15798180Y9971924D01*
X15795428Y9980000D01*
X15798180Y9988076D01*
X15806030Y9995926D01*
X15812500Y10011546D01*
Y10028453D01*
X15806030Y10044074D01*
X15794073Y10056029D01*
X15778455Y10062500D01*
D02*
G37*
G36*
X15678455D02*
X15661546D01*
X15645926Y10056029D01*
X15633971Y10044074D01*
X15627499Y10028453D01*
Y10011546D01*
X15633971Y9995926D01*
X15641821Y9988076D01*
X15644572Y9980000D01*
X15641821Y9971924D01*
X15633971Y9964074D01*
X15627499Y9948454D01*
Y9931546D01*
X15633971Y9915926D01*
X15645926Y9903970D01*
X15661546Y9897500D01*
X15678455D01*
X15694073Y9903970D01*
X15706030Y9915926D01*
X15712500Y9931546D01*
Y9948454D01*
X15706030Y9964074D01*
X15698180Y9971924D01*
X15695428Y9980000D01*
X15698180Y9988076D01*
X15706030Y9995926D01*
X15712500Y10011546D01*
Y10028453D01*
X15706030Y10044074D01*
X15694073Y10056029D01*
X15678455Y10062500D01*
D02*
G37*
G36*
X15578455D02*
X15561546D01*
X15545926Y10056029D01*
X15533971Y10044074D01*
X15527499Y10028453D01*
Y10011546D01*
X15533971Y9995926D01*
X15541821Y9988076D01*
X15544572Y9980000D01*
X15541821Y9971924D01*
X15533971Y9964074D01*
X15527499Y9948454D01*
Y9931546D01*
X15533971Y9915926D01*
X15545926Y9903970D01*
X15561546Y9897500D01*
X15578455D01*
X15594073Y9903970D01*
X15606030Y9915926D01*
X15612500Y9931546D01*
Y9948454D01*
X15606030Y9964074D01*
X15598180Y9971924D01*
X15595428Y9980000D01*
X15598180Y9988076D01*
X15606030Y9995926D01*
X15612500Y10011546D01*
Y10028453D01*
X15606030Y10044074D01*
X15594073Y10056029D01*
X15578455Y10062500D01*
D02*
G37*
G36*
X16678455Y10052500D02*
X16661546D01*
X16645926Y10046029D01*
X16633971Y10034074D01*
X16627499Y10018453D01*
Y10001546D01*
X16633971Y9985926D01*
X16641821Y9978076D01*
X16644572Y9970000D01*
X16641821Y9961924D01*
X16633971Y9954074D01*
X16627499Y9938454D01*
Y9921546D01*
X16633971Y9905926D01*
X16645926Y9893970D01*
X16661546Y9887500D01*
X16678455D01*
X16694073Y9893970D01*
X16706030Y9905926D01*
X16712500Y9921546D01*
Y9938454D01*
X16706030Y9954074D01*
X16698180Y9961924D01*
X16695428Y9970000D01*
X16698180Y9978076D01*
X16706030Y9985926D01*
X16712500Y10001546D01*
Y10018453D01*
X16706030Y10034074D01*
X16694073Y10046029D01*
X16678455Y10052500D01*
D02*
G37*
G36*
X16578455D02*
X16561546D01*
X16545926Y10046029D01*
X16533971Y10034074D01*
X16527499Y10018453D01*
Y10001546D01*
X16533971Y9985926D01*
X16541821Y9978076D01*
X16544572Y9970000D01*
X16541821Y9961924D01*
X16533971Y9954074D01*
X16527499Y9938454D01*
Y9921546D01*
X16533971Y9905926D01*
X16545926Y9893970D01*
X16561546Y9887500D01*
X16578455D01*
X16594073Y9893970D01*
X16606030Y9905926D01*
X16612500Y9921546D01*
Y9938454D01*
X16606030Y9954074D01*
X16598180Y9961924D01*
X16595428Y9970000D01*
X16598180Y9978076D01*
X16606030Y9985926D01*
X16612500Y10001546D01*
Y10018453D01*
X16606030Y10034074D01*
X16594073Y10046029D01*
X16578455Y10052500D01*
D02*
G37*
G36*
X16478455D02*
X16461546D01*
X16445926Y10046029D01*
X16433971Y10034074D01*
X16427499Y10018453D01*
Y10001546D01*
X16433971Y9985926D01*
X16441821Y9978076D01*
X16444572Y9970000D01*
X16441821Y9961924D01*
X16433971Y9954074D01*
X16427499Y9938454D01*
Y9921546D01*
X16433971Y9905926D01*
X16445926Y9893970D01*
X16461546Y9887500D01*
X16478455D01*
X16494073Y9893970D01*
X16506030Y9905926D01*
X16512500Y9921546D01*
Y9938454D01*
X16506030Y9954074D01*
X16498180Y9961924D01*
X16495428Y9970000D01*
X16498180Y9978076D01*
X16506030Y9985926D01*
X16512500Y10001546D01*
Y10018453D01*
X16506030Y10034074D01*
X16494073Y10046029D01*
X16478455Y10052500D01*
D02*
G37*
G36*
X16378455D02*
X16361546D01*
X16345926Y10046029D01*
X16333971Y10034074D01*
X16327499Y10018453D01*
Y10001546D01*
X16333971Y9985926D01*
X16341821Y9978076D01*
X16344572Y9970000D01*
X16341821Y9961924D01*
X16333971Y9954074D01*
X16327499Y9938454D01*
Y9921546D01*
X16333971Y9905926D01*
X16345926Y9893970D01*
X16361546Y9887500D01*
X16378455D01*
X16394073Y9893970D01*
X16406030Y9905926D01*
X16412500Y9921546D01*
Y9938454D01*
X16406030Y9954074D01*
X16398180Y9961924D01*
X16395427Y9970000D01*
X16398180Y9978076D01*
X16406030Y9985926D01*
X16412500Y10001546D01*
Y10018453D01*
X16406030Y10034074D01*
X16394073Y10046029D01*
X16378455Y10052500D01*
D02*
G37*
G36*
X13208453Y9972500D02*
X13191547D01*
X13175926Y9966030D01*
X13163969Y9954074D01*
X13157500Y9938454D01*
Y9921546D01*
X13163969Y9905926D01*
X13175926Y9893970D01*
X13191547Y9887500D01*
X13208453D01*
X13224074Y9893970D01*
X13236031Y9905926D01*
X13242500Y9921546D01*
Y9938454D01*
X13236031Y9954074D01*
X13224074Y9966030D01*
X13208453Y9972500D01*
D02*
G37*
G36*
X14382700Y9876586D02*
Y9842700D01*
X14416586D01*
X14410606Y9857133D01*
X14397133Y9870607D01*
X14382700Y9876586D01*
D02*
G37*
G36*
X14357300D02*
X14342867Y9870607D01*
X14329391Y9857133D01*
X14323415Y9842700D01*
X14357300D01*
Y9876586D01*
D02*
G37*
G36*
X13492700D02*
Y9842700D01*
X13526585D01*
X13520607Y9857133D01*
X13507133Y9870607D01*
X13492700Y9876586D01*
D02*
G37*
G36*
X13467300D02*
X13452867Y9870607D01*
X13439392Y9857133D01*
X13433414Y9842700D01*
X13467300D01*
Y9876586D01*
D02*
G37*
G36*
X12768454Y9872500D02*
X12751546D01*
X12735926Y9866030D01*
X12723970Y9854074D01*
X12717500Y9838454D01*
Y9821546D01*
X12723970Y9805926D01*
X12735926Y9793970D01*
X12751546Y9787500D01*
X12768454D01*
X12784074Y9793970D01*
X12796030Y9805926D01*
X12802499Y9821546D01*
Y9838454D01*
X12796030Y9854074D01*
X12784074Y9866030D01*
X12768454Y9872500D01*
D02*
G37*
G36*
X14416586Y9817300D02*
X14382700D01*
Y9783414D01*
X14397133Y9789392D01*
X14410606Y9802867D01*
X14416586Y9817300D01*
D02*
G37*
G36*
X14357300D02*
X14323415D01*
X14329391Y9802867D01*
X14342867Y9789392D01*
X14357300Y9783414D01*
Y9817300D01*
D02*
G37*
G36*
X13526585D02*
X13492700D01*
Y9783414D01*
X13507133Y9789392D01*
X13520607Y9802867D01*
X13526585Y9817300D01*
D02*
G37*
G36*
X13467300D02*
X13433414D01*
X13439392Y9802867D01*
X13452867Y9789392D01*
X13467300Y9783414D01*
Y9817300D01*
D02*
G37*
G36*
X15038454Y9862500D02*
X15021545D01*
X15005927Y9856030D01*
X14993970Y9844074D01*
X14987500Y9828454D01*
Y9811546D01*
X14993970Y9795926D01*
X15005927Y9783970D01*
X15021545Y9777500D01*
X15038454D01*
X15054074Y9783970D01*
X15066029Y9795926D01*
X15072501Y9811546D01*
Y9828454D01*
X15066029Y9844074D01*
X15054074Y9856030D01*
X15038454Y9862500D01*
D02*
G37*
G36*
X14848454D02*
X14831546D01*
X14815926Y9856030D01*
X14803970Y9844074D01*
X14797501Y9828454D01*
Y9811546D01*
X14803970Y9795926D01*
X14815926Y9783970D01*
X14831546Y9777500D01*
X14848454D01*
X14864075Y9783970D01*
X14876030Y9795926D01*
X14882500Y9811546D01*
Y9828454D01*
X14876030Y9844074D01*
X14864075Y9856030D01*
X14848454Y9862500D01*
D02*
G37*
G36*
X16678455Y9812500D02*
X16661546D01*
X16645926Y9806029D01*
X16633971Y9794074D01*
X16627499Y9778453D01*
Y9761546D01*
X16633971Y9745926D01*
X16641821Y9738076D01*
X16644572Y9730000D01*
X16641821Y9721924D01*
X16633971Y9714074D01*
X16627499Y9698454D01*
Y9681546D01*
X16633971Y9665926D01*
X16645926Y9653970D01*
X16661546Y9647500D01*
X16678455D01*
X16694073Y9653970D01*
X16706030Y9665926D01*
X16712500Y9681546D01*
Y9698454D01*
X16706030Y9714074D01*
X16698180Y9721924D01*
X16695428Y9730000D01*
X16698180Y9738076D01*
X16706030Y9745926D01*
X16712500Y9761546D01*
Y9778453D01*
X16706030Y9794074D01*
X16694073Y9806029D01*
X16678455Y9812500D01*
D02*
G37*
G36*
X16578455D02*
X16561546D01*
X16545926Y9806029D01*
X16533971Y9794074D01*
X16527499Y9778453D01*
Y9761546D01*
X16533971Y9745926D01*
X16541821Y9738076D01*
X16544572Y9730000D01*
X16541821Y9721924D01*
X16533971Y9714074D01*
X16527499Y9698454D01*
Y9681546D01*
X16533971Y9665926D01*
X16545926Y9653970D01*
X16561546Y9647500D01*
X16578455D01*
X16594073Y9653970D01*
X16606030Y9665926D01*
X16612500Y9681546D01*
Y9698454D01*
X16606030Y9714074D01*
X16598180Y9721924D01*
X16595428Y9730000D01*
X16598180Y9738076D01*
X16606030Y9745926D01*
X16612500Y9761546D01*
Y9778453D01*
X16606030Y9794074D01*
X16594073Y9806029D01*
X16578455Y9812500D01*
D02*
G37*
G36*
X16478455D02*
X16461546D01*
X16445926Y9806029D01*
X16433971Y9794074D01*
X16427499Y9778453D01*
Y9761546D01*
X16433971Y9745926D01*
X16441821Y9738076D01*
X16444572Y9730000D01*
X16441821Y9721924D01*
X16433971Y9714074D01*
X16427499Y9698454D01*
Y9681546D01*
X16433971Y9665926D01*
X16445926Y9653970D01*
X16461546Y9647500D01*
X16478455D01*
X16494073Y9653970D01*
X16506030Y9665926D01*
X16512500Y9681546D01*
Y9698454D01*
X16506030Y9714074D01*
X16498180Y9721924D01*
X16495428Y9730000D01*
X16498180Y9738076D01*
X16506030Y9745926D01*
X16512500Y9761546D01*
Y9778453D01*
X16506030Y9794074D01*
X16494073Y9806029D01*
X16478455Y9812500D01*
D02*
G37*
G36*
X16378455D02*
X16361546D01*
X16345926Y9806029D01*
X16333971Y9794074D01*
X16327499Y9778453D01*
Y9761546D01*
X16333971Y9745926D01*
X16341821Y9738076D01*
X16344572Y9730000D01*
X16341821Y9721924D01*
X16333971Y9714074D01*
X16327499Y9698454D01*
Y9681546D01*
X16333971Y9665926D01*
X16345926Y9653970D01*
X16361546Y9647500D01*
X16378455D01*
X16394073Y9653970D01*
X16406030Y9665926D01*
X16412500Y9681546D01*
Y9698454D01*
X16406030Y9714074D01*
X16398180Y9721924D01*
X16395427Y9730000D01*
X16398180Y9738076D01*
X16406030Y9745926D01*
X16412500Y9761546D01*
Y9778453D01*
X16406030Y9794074D01*
X16394073Y9806029D01*
X16378455Y9812500D01*
D02*
G37*
G36*
X14921996Y9441120D02*
X14898004D01*
X14874829Y9434910D01*
X14854051Y9422914D01*
X14837086Y9405949D01*
X14825089Y9385171D01*
X14818880Y9361996D01*
Y9338004D01*
X14825089Y9314829D01*
X14837086Y9294051D01*
X14854051Y9277086D01*
X14874829Y9265089D01*
X14898004Y9258880D01*
X14921996D01*
X14945171Y9265089D01*
X14965948Y9277086D01*
X14982915Y9294051D01*
X14994910Y9314829D01*
X15001120Y9338004D01*
Y9361996D01*
X14994910Y9385171D01*
X14982915Y9405949D01*
X14965948Y9422914D01*
X14945171Y9434910D01*
X14921996Y9441120D01*
D02*
G37*
G36*
X13431120D02*
X13248880D01*
Y9258880D01*
X13431120D01*
Y9441120D01*
D02*
G37*
G36*
X12901996Y9431120D02*
X12878004D01*
X12854829Y9424911D01*
X12834052Y9412914D01*
X12817085Y9395949D01*
X12805090Y9375171D01*
X12798880Y9351996D01*
Y9328004D01*
X12805090Y9304829D01*
X12817085Y9284051D01*
X12834052Y9267086D01*
X12854829Y9255090D01*
X12878004Y9248880D01*
X12901996D01*
X12925171Y9255090D01*
X12945949Y9267086D01*
X12962914Y9284051D01*
X12974911Y9304829D01*
X12981120Y9328004D01*
Y9351996D01*
X12974911Y9375171D01*
X12962914Y9395949D01*
X12945949Y9412914D01*
X12925171Y9424911D01*
X12901996Y9431120D01*
D02*
G37*
G36*
X11411120D02*
X11228880D01*
Y9248880D01*
X11411120D01*
Y9431120D01*
D02*
G37*
G36*
X10092700Y9116586D02*
Y9082700D01*
X10126586D01*
X10120607Y9097133D01*
X10107133Y9110607D01*
X10092700Y9116586D01*
D02*
G37*
G36*
X10067300D02*
X10052867Y9110607D01*
X10039392Y9097133D01*
X10033414Y9082700D01*
X10067300D01*
Y9116586D01*
D02*
G37*
G36*
X10126586Y9057300D02*
X10092700D01*
Y9023414D01*
X10107133Y9029392D01*
X10120607Y9042867D01*
X10126586Y9057300D01*
D02*
G37*
G36*
X10067300D02*
X10033414D01*
X10039392Y9042867D01*
X10052867Y9029392D01*
X10067300Y9023414D01*
Y9057300D01*
D02*
G37*
G36*
X15708453Y9162500D02*
X15691547D01*
X15675926Y9156030D01*
X15663969Y9144074D01*
X15657500Y9128454D01*
Y9111546D01*
X15663969Y9095926D01*
X15671822Y9088076D01*
X15674573Y9080000D01*
X15671822Y9071924D01*
X15663969Y9064074D01*
X15657500Y9048454D01*
Y9031547D01*
X15663969Y9015926D01*
X15671822Y9008076D01*
X15674573Y9000000D01*
X15671822Y8991925D01*
X15663969Y8984074D01*
X15657500Y8968454D01*
Y8951546D01*
X15663969Y8935926D01*
X15671822Y8928076D01*
X15674573Y8920000D01*
X15671822Y8911925D01*
X15663969Y8904074D01*
X15657500Y8888454D01*
Y8871547D01*
X15663969Y8855926D01*
X15675926Y8843971D01*
X15691547Y8837500D01*
X15708453D01*
X15724074Y8843971D01*
X15736031Y8855926D01*
X15742500Y8871547D01*
Y8888454D01*
X15736031Y8904074D01*
X15728180Y8911925D01*
X15725427Y8920000D01*
X15728180Y8928076D01*
X15736031Y8935926D01*
X15742500Y8951546D01*
Y8968454D01*
X15736031Y8984074D01*
X15728178Y8991925D01*
X15725427Y9000000D01*
X15728178Y9008076D01*
X15736031Y9015926D01*
X15742500Y9031547D01*
Y9048454D01*
X15736031Y9064074D01*
X15728180Y9071924D01*
X15725427Y9080000D01*
X15728180Y9088076D01*
X15736031Y9095926D01*
X15742500Y9111546D01*
Y9128454D01*
X15736031Y9144074D01*
X15724074Y9156030D01*
X15708453Y9162500D01*
D02*
G37*
G36*
X15608453D02*
X15591547D01*
X15575926Y9156030D01*
X15563969Y9144074D01*
X15557500Y9128454D01*
Y9111546D01*
X15563969Y9095926D01*
X15571822Y9088076D01*
X15574573Y9080000D01*
X15571822Y9071924D01*
X15563969Y9064074D01*
X15557500Y9048454D01*
Y9031547D01*
X15563969Y9015926D01*
X15571822Y9008076D01*
X15574573Y9000000D01*
X15571822Y8991925D01*
X15563969Y8984074D01*
X15557500Y8968454D01*
Y8951546D01*
X15563969Y8935926D01*
X15571822Y8928076D01*
X15574573Y8920000D01*
X15571822Y8911925D01*
X15563969Y8904074D01*
X15557500Y8888454D01*
Y8871547D01*
X15563969Y8855926D01*
X15575926Y8843971D01*
X15591547Y8837500D01*
X15608453D01*
X15624074Y8843971D01*
X15636031Y8855926D01*
X15642500Y8871547D01*
Y8888454D01*
X15636031Y8904074D01*
X15628180Y8911925D01*
X15625427Y8920000D01*
X15628180Y8928076D01*
X15636031Y8935926D01*
X15642500Y8951546D01*
Y8968454D01*
X15636031Y8984074D01*
X15628178Y8991925D01*
X15625427Y9000000D01*
X15628178Y9008076D01*
X15636031Y9015926D01*
X15642500Y9031547D01*
Y9048454D01*
X15636031Y9064074D01*
X15628180Y9071924D01*
X15625427Y9080000D01*
X15628180Y9088076D01*
X15636031Y9095926D01*
X15642500Y9111546D01*
Y9128454D01*
X15636031Y9144074D01*
X15624074Y9156030D01*
X15608453Y9162500D01*
D02*
G37*
G36*
X15508453D02*
X15491547D01*
X15475926Y9156030D01*
X15463969Y9144074D01*
X15457500Y9128454D01*
Y9111546D01*
X15463969Y9095926D01*
X15471820Y9088076D01*
X15474573Y9080000D01*
X15471820Y9071924D01*
X15463969Y9064074D01*
X15457500Y9048454D01*
Y9031547D01*
X15463969Y9015926D01*
X15471822Y9008076D01*
X15474573Y9000000D01*
X15471822Y8991925D01*
X15463969Y8984074D01*
X15457500Y8968454D01*
Y8951546D01*
X15463969Y8935926D01*
X15471820Y8928076D01*
X15474573Y8920000D01*
X15471820Y8911925D01*
X15463969Y8904074D01*
X15457500Y8888454D01*
Y8871547D01*
X15463969Y8855926D01*
X15475926Y8843971D01*
X15491547Y8837500D01*
X15508453D01*
X15524074Y8843971D01*
X15536031Y8855926D01*
X15542500Y8871547D01*
Y8888454D01*
X15536031Y8904074D01*
X15528180Y8911925D01*
X15525427Y8920000D01*
X15528180Y8928076D01*
X15536031Y8935926D01*
X15542500Y8951546D01*
Y8968454D01*
X15536031Y8984074D01*
X15528178Y8991925D01*
X15525427Y9000000D01*
X15528178Y9008076D01*
X15536031Y9015926D01*
X15542500Y9031547D01*
Y9048454D01*
X15536031Y9064074D01*
X15528180Y9071924D01*
X15525427Y9080000D01*
X15528180Y9088076D01*
X15536031Y9095926D01*
X15542500Y9111546D01*
Y9128454D01*
X15536031Y9144074D01*
X15524074Y9156030D01*
X15508453Y9162500D01*
D02*
G37*
G36*
X15408453D02*
X15391547D01*
X15375926Y9156030D01*
X15363969Y9144074D01*
X15357500Y9128454D01*
Y9111546D01*
X15363969Y9095926D01*
X15371820Y9088076D01*
X15374573Y9080000D01*
X15371820Y9071924D01*
X15363969Y9064074D01*
X15357500Y9048454D01*
Y9031547D01*
X15363969Y9015926D01*
X15371822Y9008076D01*
X15374573Y9000000D01*
X15371822Y8991925D01*
X15363969Y8984074D01*
X15357500Y8968454D01*
Y8951546D01*
X15363969Y8935926D01*
X15371820Y8928076D01*
X15374573Y8920000D01*
X15371820Y8911925D01*
X15363969Y8904074D01*
X15357500Y8888454D01*
Y8871547D01*
X15363969Y8855926D01*
X15375926Y8843971D01*
X15391547Y8837500D01*
X15408453D01*
X15424074Y8843971D01*
X15436031Y8855926D01*
X15442500Y8871547D01*
Y8888454D01*
X15436031Y8904074D01*
X15428178Y8911925D01*
X15425427Y8920000D01*
X15428178Y8928076D01*
X15436031Y8935926D01*
X15442500Y8951546D01*
Y8968454D01*
X15436031Y8984074D01*
X15428178Y8991925D01*
X15425427Y9000000D01*
X15428178Y9008076D01*
X15436031Y9015926D01*
X15442500Y9031547D01*
Y9048454D01*
X15436031Y9064074D01*
X15428178Y9071924D01*
X15425427Y9080000D01*
X15428178Y9088076D01*
X15436031Y9095926D01*
X15442500Y9111546D01*
Y9128454D01*
X15436031Y9144074D01*
X15424074Y9156030D01*
X15408453Y9162500D01*
D02*
G37*
G36*
X10480532Y8970000D02*
X10459468D01*
X10439121Y8964548D01*
X10420879Y8954016D01*
X10405984Y8939121D01*
X10395452Y8920879D01*
X10390000Y8900532D01*
Y8879468D01*
X10395452Y8859121D01*
X10405984Y8840879D01*
X10420879Y8825984D01*
X10439121Y8815452D01*
X10459468Y8810000D01*
X10480532D01*
X10500879Y8815452D01*
X10519121Y8825984D01*
X10534016Y8840879D01*
X10544548Y8859121D01*
X10550000Y8879468D01*
Y8900532D01*
X10544548Y8920879D01*
X10534016Y8939121D01*
X10519121Y8954016D01*
X10500879Y8964548D01*
X10480532Y8970000D01*
D02*
G37*
G36*
X11050532Y8970000D02*
X11029468D01*
X11009121Y8964548D01*
X10990879Y8954016D01*
X10975984Y8939121D01*
X10965452Y8920879D01*
X10960000Y8900532D01*
Y8879468D01*
X10965452Y8859121D01*
X10975984Y8840879D01*
X10990879Y8825984D01*
X11009121Y8815452D01*
X11029468Y8810000D01*
X11050532D01*
X11070879Y8815452D01*
X11089121Y8825984D01*
X11104016Y8840879D01*
X11114548Y8859121D01*
X11120000Y8879468D01*
Y8900532D01*
X11114548Y8920879D01*
X11104016Y8939121D01*
X11089121Y8954016D01*
X11070879Y8964548D01*
X11050532Y8970000D01*
D02*
G37*
G36*
X10780532D02*
X10759468D01*
X10739121Y8964548D01*
X10720879Y8954016D01*
X10705984Y8939121D01*
X10695452Y8920879D01*
X10690000Y8900532D01*
Y8879468D01*
X10695452Y8859121D01*
X10705984Y8840879D01*
X10720879Y8825984D01*
X10739121Y8815452D01*
X10759468Y8810000D01*
X10780532D01*
X10800879Y8815452D01*
X10819121Y8825984D01*
X10834016Y8840879D01*
X10844548Y8859121D01*
X10850000Y8879468D01*
Y8900532D01*
X10844548Y8920879D01*
X10834016Y8939121D01*
X10819121Y8954016D01*
X10800879Y8964548D01*
X10780532Y8970000D01*
D02*
G37*
G36*
X14921996Y8951120D02*
X14898004D01*
X14874829Y8944910D01*
X14854051Y8932914D01*
X14837086Y8915949D01*
X14825089Y8895171D01*
X14818880Y8871996D01*
Y8848004D01*
X14825089Y8824829D01*
X14837086Y8804051D01*
X14854051Y8787086D01*
X14874829Y8775090D01*
X14898004Y8768880D01*
X14921996D01*
X14945171Y8775090D01*
X14965948Y8787086D01*
X14982915Y8804051D01*
X14994910Y8824829D01*
X15001120Y8848004D01*
Y8871996D01*
X14994910Y8895171D01*
X14982915Y8915949D01*
X14965948Y8932914D01*
X14945171Y8944910D01*
X14921996Y8951120D01*
D02*
G37*
G36*
X13431120D02*
X13248880D01*
Y8768880D01*
X13431120D01*
Y8951120D01*
D02*
G37*
G36*
X12981120Y8941120D02*
X12798880D01*
Y8758880D01*
X12981120D01*
Y8941120D01*
D02*
G37*
G36*
X11331996D02*
X11308004D01*
X11284829Y8934911D01*
X11264051Y8922914D01*
X11247086Y8905949D01*
X11235090Y8885171D01*
X11228880Y8861996D01*
Y8838004D01*
X11235090Y8814829D01*
X11247086Y8794051D01*
X11264051Y8777086D01*
X11284829Y8765090D01*
X11308004Y8758880D01*
X11331996D01*
X11355171Y8765090D01*
X11375949Y8777086D01*
X11392914Y8794051D01*
X11404910Y8814829D01*
X11411120Y8838004D01*
Y8861996D01*
X11404910Y8885171D01*
X11392914Y8905949D01*
X11375949Y8922914D01*
X11355171Y8934911D01*
X11331996Y8941120D01*
D02*
G37*
G36*
X10230017Y8665122D02*
X10206025D01*
X10182850Y8658912D01*
X10162072Y8646916D01*
X10145107Y8629951D01*
X10133111Y8609173D01*
X10126901Y8585998D01*
Y8562006D01*
X10133111Y8538831D01*
X10145107Y8518053D01*
X10162072Y8501088D01*
X10182850Y8489091D01*
X10206025Y8482882D01*
X10230017D01*
X10253192Y8489091D01*
X10273970Y8501088D01*
X10290935Y8518053D01*
X10302932Y8538831D01*
X10309141Y8562006D01*
Y8585998D01*
X10302932Y8609173D01*
X10290935Y8629951D01*
X10273970Y8646916D01*
X10253192Y8658912D01*
X10230017Y8665122D01*
D02*
G37*
G36*
X13241119Y8461120D02*
X13058881D01*
Y8278880D01*
X13241119D01*
Y8461120D01*
D02*
G37*
G36*
X12981120Y8451120D02*
X12798880D01*
Y8268880D01*
X12981120D01*
Y8451120D01*
D02*
G37*
G36*
X11331996D02*
X11308004D01*
X11284829Y8444910D01*
X11264051Y8432914D01*
X11247086Y8415949D01*
X11235090Y8395171D01*
X11228880Y8371996D01*
Y8348004D01*
X11235090Y8324829D01*
X11247086Y8304051D01*
X11264051Y8287086D01*
X11284829Y8275090D01*
X11308004Y8268880D01*
X11331996D01*
X11355171Y8275090D01*
X11375949Y8287086D01*
X11392914Y8304051D01*
X11404910Y8324829D01*
X11411120Y8348004D01*
Y8371996D01*
X11404910Y8395171D01*
X11392914Y8415949D01*
X11375949Y8432914D01*
X11355171Y8444910D01*
X11331996Y8451120D01*
D02*
G37*
G36*
X12327300Y8096586D02*
X12312867Y8090607D01*
X12299392Y8077133D01*
X12293414Y8062700D01*
X12327300D01*
Y8096586D01*
D02*
G37*
G36*
X13567300Y8046586D02*
X13552867Y8040607D01*
X13539394Y8027133D01*
X13533414Y8012700D01*
X13567300D01*
Y8046586D01*
D02*
G37*
G36*
X12352700Y8096586D02*
Y8050000D01*
Y8003414D01*
X12367133Y8009392D01*
X12380607Y8022867D01*
X12386049Y8036005D01*
X12399633Y8036397D01*
X12403970Y8025926D01*
X12415926Y8013970D01*
X12431546Y8007500D01*
X12448454D01*
X12464074Y8013970D01*
X12476030Y8025926D01*
X12482500Y8041546D01*
Y8058454D01*
X12476030Y8074074D01*
X12464074Y8086030D01*
X12448454Y8092500D01*
X12431546D01*
X12415926Y8086030D01*
X12403970Y8074074D01*
X12399633Y8063603D01*
X12386049Y8063995D01*
X12380607Y8077133D01*
X12367133Y8090607D01*
X12352700Y8096586D01*
D02*
G37*
G36*
X12327300Y8037300D02*
X12293414D01*
X12299392Y8022867D01*
X12312867Y8009392D01*
X12327300Y8003414D01*
Y8037300D01*
D02*
G37*
G36*
X10309141Y8175122D02*
X10126901D01*
Y7992882D01*
X10309141D01*
Y8175122D01*
D02*
G37*
G36*
X13567300Y7987300D02*
X13533414D01*
X13539394Y7972867D01*
X13552867Y7959393D01*
X13567300Y7953414D01*
Y7987300D01*
D02*
G37*
G36*
X12908453Y8022500D02*
X12891547D01*
X12875926Y8016030D01*
X12863969Y8004074D01*
X12857500Y7988454D01*
Y7971546D01*
X12863969Y7955926D01*
X12875926Y7943970D01*
X12891547Y7937500D01*
X12908453D01*
X12924074Y7943970D01*
X12936031Y7955926D01*
X12942500Y7971546D01*
Y7988454D01*
X12936031Y8004074D01*
X12924074Y8016030D01*
X12908453Y8022500D01*
D02*
G37*
G36*
X11600532Y8060000D02*
X11579468D01*
X11559121Y8054548D01*
X11540879Y8044016D01*
X11525984Y8029121D01*
X11515452Y8010879D01*
X11510000Y7990532D01*
Y7969468D01*
X11515452Y7949121D01*
X11525984Y7930879D01*
X11540879Y7915984D01*
X11559121Y7905452D01*
X11579468Y7900000D01*
X11600532D01*
X11620879Y7905452D01*
X11639121Y7915984D01*
X11654016Y7930879D01*
X11664548Y7949121D01*
X11670000Y7969468D01*
Y7990532D01*
X11664548Y8010879D01*
X11654016Y8029121D01*
X11639121Y8044016D01*
X11620879Y8054548D01*
X11600532Y8060000D01*
D02*
G37*
G36*
X11330532D02*
X11309468D01*
X11289121Y8054548D01*
X11270879Y8044016D01*
X11255984Y8029121D01*
X11245452Y8010879D01*
X11240000Y7990532D01*
Y7969468D01*
X11245452Y7949121D01*
X11255984Y7930879D01*
X11270879Y7915984D01*
X11289121Y7905452D01*
X11309468Y7900000D01*
X11330532D01*
X11350879Y7905452D01*
X11369121Y7915984D01*
X11384016Y7930879D01*
X11394548Y7949121D01*
X11400000Y7969468D01*
Y7990532D01*
X11394548Y8010879D01*
X11384016Y8029121D01*
X11369121Y8044016D01*
X11350879Y8054548D01*
X11330532Y8060000D01*
D02*
G37*
G36*
X12598454Y7952500D02*
X12581546D01*
X12565926Y7946030D01*
X12553970Y7934074D01*
X12547500Y7918454D01*
Y7901546D01*
X12553970Y7885926D01*
X12565926Y7873970D01*
X12581546Y7867500D01*
X12598454D01*
X12614074Y7873970D01*
X12626030Y7885926D01*
X12632500Y7901546D01*
Y7918454D01*
X12626030Y7934074D01*
X12614074Y7946030D01*
X12598454Y7952500D01*
D02*
G37*
G36*
X12090954Y7788106D02*
X12074047D01*
X12058426Y7781636D01*
X12046471Y7769681D01*
X12040001Y7754060D01*
Y7737153D01*
X12046471Y7721532D01*
X12058426Y7709577D01*
X12074047Y7703107D01*
X12090954D01*
X12106575Y7709577D01*
X12118530Y7721532D01*
X12125000Y7737153D01*
Y7754060D01*
X12118530Y7769681D01*
X12106575Y7781636D01*
X12090954Y7788106D01*
D02*
G37*
G36*
X11963954D02*
X11947047D01*
X11931426Y7781636D01*
X11919471Y7769681D01*
X11913001Y7754060D01*
Y7737153D01*
X11919471Y7721532D01*
X11931426Y7709577D01*
X11947047Y7703107D01*
X11963954D01*
X11979575Y7709577D01*
X11991530Y7721532D01*
X11998000Y7737153D01*
Y7754060D01*
X11991530Y7769681D01*
X11979575Y7781636D01*
X11963954Y7788106D01*
D02*
G37*
G36*
X12908453Y7722500D02*
X12891547D01*
X12875926Y7716030D01*
X12863969Y7704074D01*
X12857500Y7688454D01*
Y7671546D01*
X12863969Y7655926D01*
X12875926Y7643970D01*
X12891547Y7637500D01*
X12908453D01*
X12924074Y7643970D01*
X12936031Y7655926D01*
X12942500Y7671546D01*
Y7688454D01*
X12936031Y7704074D01*
X12924074Y7716030D01*
X12908453Y7722500D01*
D02*
G37*
G36*
X7146530Y7740000D02*
X7125465D01*
X7105119Y7734548D01*
X7086876Y7724016D01*
X7071982Y7709121D01*
X7061449Y7690879D01*
X7055998Y7670533D01*
Y7649468D01*
X7061449Y7629122D01*
X7071982Y7610879D01*
X7086876Y7595985D01*
X7105119Y7585452D01*
X7125465Y7580001D01*
X7146530D01*
X7166876Y7585452D01*
X7185118Y7595985D01*
X7200013Y7610879D01*
X7210545Y7629122D01*
X7215997Y7649468D01*
Y7670533D01*
X7210545Y7690879D01*
X7200013Y7709121D01*
X7185118Y7724016D01*
X7166876Y7734548D01*
X7146530Y7740000D01*
D02*
G37*
G36*
X10309141Y7685122D02*
X10126901D01*
Y7502882D01*
X10309141D01*
Y7685122D01*
D02*
G37*
G36*
X8660017D02*
X8636025D01*
X8612850Y7678912D01*
X8592072Y7666916D01*
X8575107Y7649951D01*
X8563111Y7629173D01*
X8556901Y7605998D01*
Y7582006D01*
X8563111Y7558831D01*
X8575107Y7538053D01*
X8592072Y7521088D01*
X8612850Y7509091D01*
X8636025Y7502882D01*
X8660017D01*
X8683192Y7509091D01*
X8703970Y7521088D01*
X8720935Y7538053D01*
X8732931Y7558831D01*
X8739141Y7582006D01*
Y7605998D01*
X8732931Y7629173D01*
X8720935Y7649951D01*
X8703970Y7666916D01*
X8683192Y7678912D01*
X8660017Y7685122D01*
D02*
G37*
G36*
X6485321Y7490588D02*
X6470888Y7484610D01*
X6457413Y7471135D01*
X6451435Y7456702D01*
X6485321D01*
Y7490588D01*
D02*
G37*
G36*
X7725321Y7440588D02*
X7710888Y7434610D01*
X7697413Y7421136D01*
X7691435Y7406702D01*
X7725321D01*
Y7440588D01*
D02*
G37*
G36*
X16454559Y7595400D02*
X16429440D01*
X16405177Y7588898D01*
X16383423Y7576339D01*
X16365662Y7558577D01*
X16353101Y7536823D01*
X16346600Y7512560D01*
Y7487440D01*
X16353101Y7463177D01*
X16365662Y7441423D01*
X16383423Y7423661D01*
X16405177Y7411102D01*
X16429440Y7404600D01*
X16454559D01*
X16478822Y7411102D01*
X16500577Y7423661D01*
X16518340Y7441423D01*
X16530898Y7463177D01*
X16537399Y7487440D01*
Y7512560D01*
X16530898Y7536823D01*
X16518340Y7558577D01*
X16500577Y7576339D01*
X16478822Y7588898D01*
X16454559Y7595400D01*
D02*
G37*
G36*
X6510721Y7490588D02*
Y7444002D01*
Y7397416D01*
X6525154Y7403395D01*
X6538628Y7416869D01*
X6544070Y7430007D01*
X6557654Y7430399D01*
X6561991Y7419928D01*
X6573947Y7407973D01*
X6589567Y7401503D01*
X6606474D01*
X6622095Y7407973D01*
X6634050Y7419928D01*
X6640521Y7435549D01*
Y7452456D01*
X6634050Y7468077D01*
X6622095Y7480032D01*
X6606474Y7486502D01*
X6589567D01*
X6573947Y7480032D01*
X6561991Y7468077D01*
X6557654Y7457605D01*
X6544070Y7457998D01*
X6538628Y7471135D01*
X6525154Y7484610D01*
X6510721Y7490588D01*
D02*
G37*
G36*
X6485321Y7431302D02*
X6451435D01*
X6457413Y7416869D01*
X6470888Y7403395D01*
X6485321Y7397416D01*
Y7431302D01*
D02*
G37*
G36*
X13218454Y7452500D02*
X13201546D01*
X13185925Y7446030D01*
X13173970Y7434074D01*
X13167500Y7418454D01*
Y7401546D01*
X13173970Y7385926D01*
X13185925Y7373970D01*
X13201546Y7367500D01*
X13218454D01*
X13234074Y7373970D01*
X13246030Y7385926D01*
X13252499Y7401546D01*
Y7418454D01*
X13246030Y7434074D01*
X13234074Y7446030D01*
X13218454Y7452500D01*
D02*
G37*
G36*
X7750721Y7440588D02*
Y7394002D01*
Y7347417D01*
X7765154Y7353395D01*
X7778628Y7366869D01*
X7784070Y7380007D01*
X7797654Y7380400D01*
X7801991Y7369928D01*
X7813947Y7357973D01*
X7829567Y7351503D01*
X7846475D01*
X7862095Y7357973D01*
X7874051Y7369928D01*
X7880521Y7385549D01*
Y7402456D01*
X7874051Y7418077D01*
X7862095Y7430032D01*
X7846475Y7436502D01*
X7829567D01*
X7813947Y7430032D01*
X7801991Y7418077D01*
X7797654Y7407605D01*
X7784070Y7407998D01*
X7778628Y7421136D01*
X7765154Y7434610D01*
X7750721Y7440588D01*
D02*
G37*
G36*
X7725321Y7381302D02*
X7691435D01*
X7697413Y7366869D01*
X7710888Y7353395D01*
X7725321Y7347417D01*
Y7381302D01*
D02*
G37*
G36*
X7066475Y7416502D02*
X7049567D01*
X7033947Y7410032D01*
X7021991Y7398077D01*
X7015521Y7382456D01*
Y7365549D01*
X7021991Y7349928D01*
X7033947Y7337973D01*
X7049567Y7331503D01*
X7066475D01*
X7082095Y7337973D01*
X7094051Y7349928D01*
X7100521Y7365549D01*
Y7382456D01*
X7094051Y7398077D01*
X7082095Y7410032D01*
X7066475Y7416502D01*
D02*
G37*
G36*
X12908453Y7412500D02*
X12891547D01*
X12875926Y7406030D01*
X12863969Y7394074D01*
X12857500Y7378454D01*
Y7361546D01*
X12863969Y7345926D01*
X12875926Y7333970D01*
X12891547Y7327500D01*
X12908453D01*
X12924074Y7333970D01*
X12936031Y7345926D01*
X12942500Y7361546D01*
Y7378454D01*
X12936031Y7394074D01*
X12924074Y7406030D01*
X12908453Y7412500D01*
D02*
G37*
G36*
X16170560Y7458400D02*
X16145441D01*
X16121178Y7451898D01*
X16099423Y7439339D01*
X16081660Y7421577D01*
X16069101Y7399823D01*
X16062601Y7375560D01*
Y7350440D01*
X16069101Y7326177D01*
X16081660Y7304423D01*
X16099423Y7286661D01*
X16121178Y7274102D01*
X16145441Y7267600D01*
X16170560D01*
X16194823Y7274102D01*
X16216577Y7286661D01*
X16234338Y7304423D01*
X16246898Y7326177D01*
X16253400Y7350440D01*
Y7375560D01*
X16246898Y7399823D01*
X16234338Y7421577D01*
X16216577Y7439339D01*
X16194823Y7451898D01*
X16170560Y7458400D01*
D02*
G37*
G36*
X6756474Y7346502D02*
X6739567D01*
X6723947Y7340032D01*
X6711991Y7328077D01*
X6705521Y7312456D01*
Y7295549D01*
X6711991Y7279928D01*
X6723947Y7267973D01*
X6739567Y7261503D01*
X6756474D01*
X6772095Y7267973D01*
X6784050Y7279928D01*
X6790521Y7295549D01*
Y7312456D01*
X6784050Y7328077D01*
X6772095Y7340032D01*
X6756474Y7346502D01*
D02*
G37*
G36*
X11963954Y7314893D02*
X11947047D01*
X11931426Y7308423D01*
X11919471Y7296467D01*
X11913001Y7280847D01*
Y7263940D01*
X11919471Y7248319D01*
X11931426Y7236364D01*
X11947047Y7229894D01*
X11963954D01*
X11979575Y7236364D01*
X11991530Y7248319D01*
X11998000Y7263940D01*
Y7280847D01*
X11991530Y7296467D01*
X11979575Y7308423D01*
X11963954Y7314893D01*
D02*
G37*
G36*
X16454559Y7321400D02*
X16429440D01*
X16405177Y7314899D01*
X16383423Y7302339D01*
X16365662Y7284577D01*
X16353101Y7262823D01*
X16346600Y7238560D01*
Y7213440D01*
X16353101Y7189177D01*
X16365662Y7167423D01*
X16383423Y7149661D01*
X16405177Y7137102D01*
X16429440Y7130600D01*
X16454559D01*
X16478822Y7137102D01*
X16500577Y7149661D01*
X16518340Y7167423D01*
X16530898Y7189177D01*
X16537399Y7213440D01*
Y7238560D01*
X16530898Y7262823D01*
X16518340Y7284577D01*
X16500577Y7302339D01*
X16478822Y7314899D01*
X16454559Y7321400D01*
D02*
G37*
G36*
X10480532Y7280000D02*
X10459468D01*
X10439121Y7274548D01*
X10420879Y7264016D01*
X10405984Y7249121D01*
X10395452Y7230879D01*
X10390000Y7210532D01*
Y7189468D01*
X10395452Y7169121D01*
X10405984Y7150879D01*
X10420879Y7135984D01*
X10439121Y7125452D01*
X10459468Y7120000D01*
X10480532D01*
X10500879Y7125452D01*
X10519121Y7135984D01*
X10534016Y7150879D01*
X10544548Y7169121D01*
X10550000Y7189468D01*
Y7210532D01*
X10544548Y7230879D01*
X10534016Y7249121D01*
X10519121Y7264016D01*
X10500879Y7274548D01*
X10480532Y7280000D01*
D02*
G37*
G36*
X11050532Y7280000D02*
X11029468D01*
X11009121Y7274548D01*
X10990879Y7264016D01*
X10975984Y7249121D01*
X10965452Y7230879D01*
X10960000Y7210532D01*
Y7189468D01*
X10965452Y7169121D01*
X10975984Y7150879D01*
X10990879Y7135984D01*
X11009121Y7125452D01*
X11029468Y7120000D01*
X11050532D01*
X11070879Y7125452D01*
X11089121Y7135984D01*
X11104016Y7150879D01*
X11114548Y7169121D01*
X11120000Y7189468D01*
Y7210532D01*
X11114548Y7230879D01*
X11104016Y7249121D01*
X11089121Y7264016D01*
X11070879Y7274548D01*
X11050532Y7280000D01*
D02*
G37*
G36*
X10780532D02*
X10759468D01*
X10739121Y7274548D01*
X10720879Y7264016D01*
X10705984Y7249121D01*
X10695452Y7230879D01*
X10690000Y7210532D01*
Y7189468D01*
X10695452Y7169121D01*
X10705984Y7150879D01*
X10720879Y7135984D01*
X10739121Y7125452D01*
X10759468Y7120000D01*
X10780532D01*
X10800879Y7125452D01*
X10819121Y7135984D01*
X10834016Y7150879D01*
X10844548Y7169121D01*
X10850000Y7189468D01*
Y7210532D01*
X10844548Y7230879D01*
X10834016Y7249121D01*
X10819121Y7264016D01*
X10800879Y7274548D01*
X10780532Y7280000D01*
D02*
G37*
G36*
X6248975Y7182109D02*
X6232068D01*
X6216447Y7175639D01*
X6204492Y7163683D01*
X6198022Y7148063D01*
Y7131155D01*
X6204492Y7115535D01*
X6216447Y7103579D01*
X6232068Y7097109D01*
X6248975D01*
X6264596Y7103579D01*
X6276551Y7115535D01*
X6283021Y7131155D01*
Y7148063D01*
X6276551Y7163683D01*
X6264596Y7175639D01*
X6248975Y7182109D01*
D02*
G37*
G36*
X12222714Y7166599D02*
X12205807D01*
X12190187Y7160129D01*
X12178231Y7148174D01*
X12171761Y7132553D01*
Y7115646D01*
X12178231Y7100025D01*
X12190187Y7088070D01*
X12205807Y7081600D01*
X12222714D01*
X12238335Y7088070D01*
X12250290Y7100025D01*
X12256761Y7115646D01*
Y7132553D01*
X12250290Y7148174D01*
X12238335Y7160129D01*
X12222714Y7166599D01*
D02*
G37*
G36*
X12598454Y7162500D02*
X12581546D01*
X12565926Y7156030D01*
X12553970Y7144074D01*
X12547500Y7128454D01*
Y7111546D01*
X12553970Y7095926D01*
X12565926Y7083970D01*
X12581546Y7077500D01*
X12598454D01*
X12614074Y7083970D01*
X12626030Y7095926D01*
X12632500Y7111546D01*
Y7128454D01*
X12626030Y7144074D01*
X12614074Y7156030D01*
X12598454Y7162500D01*
D02*
G37*
G36*
X12348454D02*
X12331546D01*
X12315926Y7156030D01*
X12303970Y7144074D01*
X12297500Y7128454D01*
Y7111546D01*
X12303970Y7095926D01*
X12315926Y7083970D01*
X12331546Y7077500D01*
X12348454D01*
X12364074Y7083970D01*
X12376030Y7095926D01*
X12382500Y7111546D01*
Y7128454D01*
X12376030Y7144074D01*
X12364074Y7156030D01*
X12348454Y7162500D01*
D02*
G37*
G36*
X12088454D02*
X12071546D01*
X12055926Y7156030D01*
X12043970Y7144074D01*
X12037500Y7128454D01*
Y7111546D01*
X12043970Y7095926D01*
X12055926Y7083970D01*
X12071546Y7077500D01*
X12088454D01*
X12104074Y7083970D01*
X12116030Y7095926D01*
X12122500Y7111546D01*
Y7128454D01*
X12116030Y7144074D01*
X12104074Y7156030D01*
X12088454Y7162500D01*
D02*
G37*
G36*
X13338454Y7142500D02*
X13321545D01*
X13305927Y7136030D01*
X13293970Y7124074D01*
X13287500Y7108454D01*
Y7091546D01*
X13293970Y7075926D01*
X13305927Y7063970D01*
X13321545Y7057500D01*
X13338454D01*
X13354074Y7063970D01*
X13366029Y7075926D01*
X13372501Y7091546D01*
Y7108454D01*
X13366029Y7124074D01*
X13354074Y7136030D01*
X13338454Y7142500D01*
D02*
G37*
G36*
X11908454D02*
X11891546D01*
X11875926Y7136030D01*
X11863970Y7124074D01*
X11857500Y7108454D01*
Y7091546D01*
X11863970Y7075926D01*
X11875926Y7063970D01*
X11891546Y7057500D01*
X11908454D01*
X11924074Y7063970D01*
X11936030Y7075926D01*
X11942500Y7091546D01*
Y7108454D01*
X11936030Y7124074D01*
X11924074Y7136030D01*
X11908454Y7142500D01*
D02*
G37*
G36*
X7066475Y7116502D02*
X7049567D01*
X7033947Y7110032D01*
X7021991Y7098076D01*
X7015521Y7082456D01*
Y7065549D01*
X7021991Y7049928D01*
X7033947Y7037973D01*
X7049567Y7031503D01*
X7066475D01*
X7082095Y7037973D01*
X7094051Y7049928D01*
X7100521Y7065549D01*
Y7082456D01*
X7094051Y7098076D01*
X7082095Y7110032D01*
X7066475Y7116502D01*
D02*
G37*
G36*
X12908453Y7112500D02*
X12891547D01*
X12875926Y7106030D01*
X12863969Y7094074D01*
X12857500Y7078454D01*
Y7061546D01*
X12863969Y7045926D01*
X12875926Y7033970D01*
X12891547Y7027500D01*
X12908453D01*
X12924074Y7033970D01*
X12936031Y7045926D01*
X12942500Y7061546D01*
Y7078454D01*
X12936031Y7094074D01*
X12924074Y7106030D01*
X12908453Y7112500D01*
D02*
G37*
G36*
X8368553Y7174002D02*
X8347489D01*
X8327142Y7168550D01*
X8308900Y7158018D01*
X8294005Y7143123D01*
X8283473Y7124881D01*
X8278021Y7104534D01*
Y7083470D01*
X8283473Y7063124D01*
X8294005Y7044881D01*
X8308900Y7029986D01*
X8327142Y7019454D01*
X8347489Y7014002D01*
X8368553D01*
X8388900Y7019454D01*
X8407142Y7029986D01*
X8422037Y7044881D01*
X8432569Y7063124D01*
X8438021Y7083470D01*
Y7104534D01*
X8432569Y7124881D01*
X8422037Y7143123D01*
X8407142Y7158018D01*
X8388900Y7168550D01*
X8368553Y7174002D01*
D02*
G37*
G36*
X10230017Y7185122D02*
X10206025D01*
X10182850Y7178912D01*
X10162072Y7166916D01*
X10145106Y7149951D01*
X10133110Y7129173D01*
X10126901Y7105998D01*
Y7082006D01*
X10133110Y7058831D01*
X10145106Y7038053D01*
X10162072Y7021088D01*
X10182850Y7009091D01*
X10206025Y7002882D01*
X10230017D01*
X10253192Y7009091D01*
X10273970Y7021088D01*
X10290935Y7038053D01*
X10302931Y7058831D01*
X10309141Y7082006D01*
Y7105998D01*
X10302931Y7129173D01*
X10290935Y7149951D01*
X10273970Y7166916D01*
X10253192Y7178912D01*
X10230017Y7185122D01*
D02*
G37*
G36*
X8739141D02*
X8556901D01*
Y7002882D01*
X8739141D01*
Y7185122D01*
D02*
G37*
G36*
X16170560Y7184400D02*
X16145441D01*
X16121178Y7177899D01*
X16099423Y7165339D01*
X16081660Y7147577D01*
X16069101Y7125823D01*
X16062601Y7101560D01*
Y7076441D01*
X16069101Y7052177D01*
X16081660Y7030423D01*
X16099423Y7012661D01*
X16121178Y7000102D01*
X16145441Y6993600D01*
X16170560D01*
X16194823Y7000102D01*
X16216577Y7012661D01*
X16234338Y7030423D01*
X16246898Y7052177D01*
X16253400Y7076441D01*
Y7101560D01*
X16246898Y7125823D01*
X16234338Y7147577D01*
X16216577Y7165339D01*
X16194823Y7177899D01*
X16170560Y7184400D01*
D02*
G37*
G36*
X13478455Y7032500D02*
X13461546D01*
X13445926Y7026030D01*
X13433971Y7014074D01*
X13427499Y6998454D01*
Y6981546D01*
X13433971Y6965926D01*
X13445926Y6953970D01*
X13461546Y6947500D01*
X13478455D01*
X13494073Y6953970D01*
X13506030Y6965926D01*
X13512500Y6981546D01*
Y6998454D01*
X13506030Y7014074D01*
X13494073Y7026030D01*
X13478455Y7032500D01*
D02*
G37*
G36*
X7876474Y7016502D02*
X7859567D01*
X7843947Y7010032D01*
X7831991Y6998077D01*
X7825521Y6982456D01*
Y6965549D01*
X7831991Y6949928D01*
X7843947Y6937973D01*
X7859567Y6931503D01*
X7876474D01*
X7892095Y6937973D01*
X7904050Y6949928D01*
X7910521Y6965549D01*
Y6982456D01*
X7904050Y6998077D01*
X7892095Y7010032D01*
X7876474Y7016502D01*
D02*
G37*
G36*
X16537399Y7047400D02*
X16346600D01*
Y6856600D01*
X16537399D01*
Y7047400D01*
D02*
G37*
G36*
X10616702Y6793565D02*
Y6759679D01*
X10650588D01*
X10644609Y6774112D01*
X10631135Y6787586D01*
X10616702Y6793565D01*
D02*
G37*
G36*
X10591302D02*
X10576869Y6787586D01*
X10563394Y6774112D01*
X10557416Y6759679D01*
X10591302D01*
Y6793565D01*
D02*
G37*
G36*
X7066475Y6806502D02*
X7049567D01*
X7033947Y6800032D01*
X7021991Y6788077D01*
X7015521Y6772456D01*
Y6755549D01*
X7021991Y6739928D01*
X7033947Y6727973D01*
X7049567Y6721503D01*
X7066475D01*
X7082095Y6727973D01*
X7094051Y6739928D01*
X7100521Y6755549D01*
Y6772456D01*
X7094051Y6788077D01*
X7082095Y6800032D01*
X7066475Y6806502D01*
D02*
G37*
G36*
X10650588Y6734279D02*
X10616702D01*
Y6700393D01*
X10631135Y6706371D01*
X10644609Y6719846D01*
X10650588Y6734279D01*
D02*
G37*
G36*
X10591302D02*
X10557416D01*
X10563394Y6719846D01*
X10576869Y6706371D01*
X10591302Y6700393D01*
Y6734279D01*
D02*
G37*
G36*
X12200532Y6860000D02*
X12179468D01*
X12159121Y6854548D01*
X12140879Y6844016D01*
X12125984Y6829121D01*
X12115452Y6810879D01*
X12110000Y6790532D01*
Y6769468D01*
X12115452Y6749121D01*
X12125984Y6730879D01*
X12140879Y6715984D01*
X12159121Y6705452D01*
X12179468Y6700000D01*
X12200532D01*
X12220879Y6705452D01*
X12239121Y6715984D01*
X12254016Y6730879D01*
X12264548Y6749121D01*
X12270000Y6769468D01*
Y6790532D01*
X12264548Y6810879D01*
X12254016Y6829121D01*
X12239121Y6844016D01*
X12220879Y6854548D01*
X12200532Y6860000D01*
D02*
G37*
G36*
X8739141Y6695122D02*
X8556901D01*
Y6512882D01*
X8739141D01*
Y6695122D01*
D02*
G37*
G36*
X6756474Y6556502D02*
X6739567D01*
X6723947Y6550032D01*
X6711991Y6538077D01*
X6705521Y6522456D01*
Y6505549D01*
X6711991Y6489928D01*
X6723947Y6477973D01*
X6739567Y6471503D01*
X6756474D01*
X6772095Y6477973D01*
X6784050Y6489928D01*
X6790521Y6505549D01*
Y6522456D01*
X6784050Y6538077D01*
X6772095Y6550032D01*
X6756474Y6556502D01*
D02*
G37*
G36*
X6506474D02*
X6489567D01*
X6473947Y6550032D01*
X6461991Y6538077D01*
X6455521Y6522456D01*
Y6505549D01*
X6461991Y6489928D01*
X6473947Y6477973D01*
X6489567Y6471503D01*
X6506474D01*
X6522095Y6477973D01*
X6534050Y6489928D01*
X6540521Y6505549D01*
Y6522456D01*
X6534050Y6538077D01*
X6522095Y6550032D01*
X6506474Y6556502D01*
D02*
G37*
G36*
X6376474D02*
X6359567D01*
X6343947Y6550032D01*
X6331991Y6538077D01*
X6325521Y6522456D01*
Y6505549D01*
X6331991Y6489928D01*
X6343947Y6477973D01*
X6359567Y6471503D01*
X6376474D01*
X6392095Y6477973D01*
X6404050Y6489928D01*
X6410521Y6505549D01*
Y6522456D01*
X6404050Y6538077D01*
X6392095Y6550032D01*
X6376474Y6556502D01*
D02*
G37*
G36*
X6246474D02*
X6229567D01*
X6213947Y6550032D01*
X6201991Y6538077D01*
X6195521Y6522456D01*
Y6505549D01*
X6201991Y6489928D01*
X6213947Y6477973D01*
X6229567Y6471503D01*
X6246474D01*
X6262095Y6477973D01*
X6274050Y6489928D01*
X6280521Y6505549D01*
Y6522456D01*
X6274050Y6538077D01*
X6262095Y6550032D01*
X6246474Y6556502D01*
D02*
G37*
G36*
X7368454Y6532500D02*
X7351546D01*
X7335926Y6526030D01*
X7323970Y6514074D01*
X7317500Y6498454D01*
Y6481546D01*
X7323970Y6465926D01*
X7335926Y6453970D01*
X7351546Y6447500D01*
X7368454D01*
X7384074Y6453970D01*
X7396030Y6465926D01*
X7402500Y6481546D01*
Y6498454D01*
X7396030Y6514074D01*
X7384074Y6526030D01*
X7368454Y6532500D01*
D02*
G37*
G36*
X7066475Y6506502D02*
X7049567D01*
X7033947Y6500032D01*
X7021991Y6488077D01*
X7015521Y6472456D01*
Y6455549D01*
X7021991Y6439928D01*
X7033947Y6427973D01*
X7049567Y6421503D01*
X7066475D01*
X7082095Y6427973D01*
X7094051Y6439928D01*
X7100521Y6455549D01*
Y6472456D01*
X7094051Y6488077D01*
X7082095Y6500032D01*
X7066475Y6506502D01*
D02*
G37*
G36*
X7746474Y6426502D02*
X7729567D01*
X7713947Y6420032D01*
X7701991Y6408077D01*
X7695521Y6392456D01*
Y6375549D01*
X7701991Y6359928D01*
X7713947Y6347973D01*
X7729567Y6341503D01*
X7746474D01*
X7762095Y6347973D01*
X7774050Y6359928D01*
X7780521Y6375549D01*
Y6392456D01*
X7774050Y6408077D01*
X7762095Y6420032D01*
X7746474Y6426502D01*
D02*
G37*
G36*
X7636474D02*
X7619567D01*
X7603947Y6420032D01*
X7591991Y6408077D01*
X7585521Y6392456D01*
Y6375549D01*
X7591991Y6359928D01*
X7603947Y6347973D01*
X7619567Y6341503D01*
X7636474D01*
X7652095Y6347973D01*
X7664050Y6359928D01*
X7670521Y6375549D01*
Y6392456D01*
X7664050Y6408077D01*
X7652095Y6420032D01*
X7636474Y6426502D01*
D02*
G37*
G36*
X8048553Y6254002D02*
X8027489D01*
X8007142Y6248550D01*
X7988900Y6238018D01*
X7974005Y6223123D01*
X7963473Y6204881D01*
X7958021Y6184534D01*
Y6163470D01*
X7963473Y6143124D01*
X7974005Y6124881D01*
X7988900Y6109987D01*
X8007142Y6099454D01*
X8027489Y6094003D01*
X8048553D01*
X8068900Y6099454D01*
X8087142Y6109987D01*
X8102037Y6124881D01*
X8112569Y6143124D01*
X8118021Y6163470D01*
Y6184534D01*
X8112569Y6204881D01*
X8102037Y6223123D01*
X8087142Y6238018D01*
X8068900Y6248550D01*
X8048553Y6254002D01*
D02*
G37*
G36*
X6358553D02*
X6337489D01*
X6317142Y6248550D01*
X6298900Y6238018D01*
X6284005Y6223123D01*
X6273473Y6204881D01*
X6268021Y6184534D01*
Y6163470D01*
X6273473Y6143124D01*
X6284005Y6124881D01*
X6298900Y6109987D01*
X6317142Y6099454D01*
X6337489Y6094003D01*
X6358553D01*
X6378900Y6099454D01*
X6397142Y6109987D01*
X6412037Y6124881D01*
X6422569Y6143124D01*
X6428021Y6163470D01*
Y6184534D01*
X6422569Y6204881D01*
X6412037Y6223123D01*
X6397142Y6238018D01*
X6378900Y6248550D01*
X6358553Y6254002D01*
D02*
G37*
G36*
X16322485Y6478800D02*
X16277515D01*
X16233408Y6470026D01*
X16191859Y6452817D01*
X16154466Y6427832D01*
X16122668Y6396033D01*
X16097684Y6358641D01*
X16080473Y6317093D01*
X16071700Y6272986D01*
Y6228014D01*
X16080473Y6183907D01*
X16097684Y6142360D01*
X16122668Y6104967D01*
X16154466Y6073168D01*
X16191859Y6048183D01*
X16233408Y6030974D01*
X16277515Y6022200D01*
X16322485D01*
X16366592Y6030974D01*
X16408141Y6048183D01*
X16445534Y6073168D01*
X16477332Y6104967D01*
X16502316Y6142360D01*
X16519527Y6183907D01*
X16528300Y6228014D01*
Y6272986D01*
X16519527Y6317093D01*
X16502316Y6358641D01*
X16477332Y6396033D01*
X16445534Y6427832D01*
X16408141Y6452817D01*
X16366592Y6470026D01*
X16322485Y6478800D01*
D02*
G37*
G36*
X8741120Y6191120D02*
X8558880D01*
Y6008880D01*
X8741120D01*
Y6191120D01*
D02*
G37*
G36*
X8048553Y5964002D02*
X8027489D01*
X8007142Y5958550D01*
X7988900Y5948018D01*
X7974005Y5933124D01*
X7963473Y5914881D01*
X7958021Y5894535D01*
Y5873470D01*
X7963473Y5853124D01*
X7974005Y5834881D01*
X7988900Y5819987D01*
X8007142Y5809454D01*
X8027489Y5804003D01*
X8048553D01*
X8068900Y5809454D01*
X8087142Y5819987D01*
X8102037Y5834881D01*
X8112569Y5853124D01*
X8118021Y5873470D01*
Y5894535D01*
X8112569Y5914881D01*
X8102037Y5933124D01*
X8087142Y5948018D01*
X8068900Y5958550D01*
X8048553Y5964002D01*
D02*
G37*
G36*
X6358553D02*
X6337489D01*
X6317142Y5958550D01*
X6298900Y5948018D01*
X6284005Y5933124D01*
X6273473Y5914881D01*
X6268021Y5894535D01*
Y5873470D01*
X6273473Y5853124D01*
X6284005Y5834881D01*
X6298900Y5819987D01*
X6317142Y5809454D01*
X6337489Y5804003D01*
X6358553D01*
X6378900Y5809454D01*
X6397142Y5819987D01*
X6412037Y5834881D01*
X6422569Y5853124D01*
X6428021Y5873470D01*
Y5894535D01*
X6422569Y5914881D01*
X6412037Y5933124D01*
X6397142Y5948018D01*
X6378900Y5958550D01*
X6358553Y5964002D01*
D02*
G37*
G36*
Y5694002D02*
X6337489D01*
X6317142Y5688550D01*
X6298900Y5678018D01*
X6284005Y5663123D01*
X6273473Y5644881D01*
X6268021Y5624534D01*
Y5603470D01*
X6273473Y5583123D01*
X6284005Y5564881D01*
X6298900Y5549986D01*
X6317142Y5539454D01*
X6337489Y5534002D01*
X6358553D01*
X6378900Y5539454D01*
X6397142Y5549986D01*
X6412037Y5564881D01*
X6422569Y5583123D01*
X6428021Y5603470D01*
Y5624534D01*
X6422569Y5644881D01*
X6412037Y5663123D01*
X6397142Y5678018D01*
X6378900Y5688550D01*
X6358553Y5694002D01*
D02*
G37*
G36*
Y5424002D02*
X6337489D01*
X6317142Y5418550D01*
X6298900Y5408018D01*
X6284005Y5393123D01*
X6273473Y5374881D01*
X6268021Y5354534D01*
Y5333470D01*
X6273473Y5313123D01*
X6284005Y5294881D01*
X6298900Y5279986D01*
X6317142Y5269454D01*
X6337489Y5264002D01*
X6358553D01*
X6378900Y5269454D01*
X6397142Y5279986D01*
X6412037Y5294881D01*
X6422569Y5313123D01*
X6428021Y5333470D01*
Y5354534D01*
X6422569Y5374881D01*
X6412037Y5393123D01*
X6397142Y5408018D01*
X6378900Y5418550D01*
X6358553Y5424002D01*
D02*
G37*
G36*
X6418454Y4422500D02*
X6401546D01*
X6385926Y4416030D01*
X6373970Y4404074D01*
X6367500Y4388454D01*
Y4371547D01*
X6373970Y4355926D01*
X6381821Y4348076D01*
X6384572Y4340000D01*
X6381821Y4331925D01*
X6373970Y4324074D01*
X6367500Y4308454D01*
Y4291546D01*
X6373970Y4275926D01*
X6385926Y4263970D01*
X6401546Y4257500D01*
X6418454D01*
X6434074Y4263970D01*
X6446030Y4275926D01*
X6452500Y4291546D01*
Y4308454D01*
X6446030Y4324074D01*
X6438179Y4331925D01*
X6435427Y4340000D01*
X6438179Y4348076D01*
X6446030Y4355926D01*
X6452500Y4371547D01*
Y4388454D01*
X6446030Y4404074D01*
X6434074Y4416030D01*
X6418454Y4422500D01*
D02*
G37*
G36*
X6888454Y4182500D02*
X6871546D01*
X6855926Y4176030D01*
X6843970Y4164074D01*
X6837500Y4148454D01*
Y4131546D01*
X6843970Y4115926D01*
X6855926Y4103970D01*
X6871546Y4097500D01*
X6888454D01*
X6904074Y4103970D01*
X6916030Y4115926D01*
X6922500Y4131546D01*
Y4148454D01*
X6916030Y4164074D01*
X6904074Y4176030D01*
X6888454Y4182500D01*
D02*
G37*
G36*
X7058454Y4182500D02*
X7041546D01*
X7025926Y4176029D01*
X7013970Y4164074D01*
X7007500Y4148453D01*
Y4131546D01*
X7013970Y4115926D01*
X7025926Y4103970D01*
X7041546Y4097500D01*
X7058454D01*
X7074074Y4103970D01*
X7086030Y4115926D01*
X7092500Y4131546D01*
Y4148453D01*
X7086030Y4164074D01*
X7074074Y4176029D01*
X7058454Y4182500D01*
D02*
G37*
G36*
X6641354D02*
X6624447D01*
X6608826Y4176029D01*
X6596871Y4164074D01*
X6590401Y4148453D01*
Y4131546D01*
X6596871Y4115926D01*
X6608826Y4103970D01*
X6624447Y4097500D01*
X6641354D01*
X6656974Y4103970D01*
X6668930Y4115926D01*
X6675400Y4131546D01*
Y4148453D01*
X6668930Y4164074D01*
X6656974Y4176029D01*
X6641354Y4182500D01*
D02*
G37*
G36*
X6318454Y4072500D02*
X6301546D01*
X6285926Y4066030D01*
X6273970Y4054074D01*
X6267500Y4038454D01*
Y4021546D01*
X6273970Y4005926D01*
X6285926Y3993970D01*
X6301546Y3987500D01*
X6318454D01*
X6334074Y3993970D01*
X6346030Y4005926D01*
X6352500Y4021546D01*
Y4038454D01*
X6346030Y4054074D01*
X6334074Y4066030D01*
X6318454Y4072500D01*
D02*
G37*
G36*
X6818454Y3622500D02*
X6801546D01*
X6785926Y3616030D01*
X6773970Y3604074D01*
X6767500Y3588454D01*
Y3571546D01*
X6773970Y3555926D01*
X6785926Y3543970D01*
X6801546Y3537500D01*
X6818454D01*
X6834074Y3543970D01*
X6846030Y3555926D01*
X6852500Y3571546D01*
Y3588454D01*
X6846030Y3604074D01*
X6834074Y3616030D01*
X6818454Y3622500D01*
D02*
G37*
G36*
X6698454Y3202500D02*
X6681546D01*
X6665926Y3196030D01*
X6653970Y3184074D01*
X6647500Y3168454D01*
Y3151546D01*
X6653970Y3135926D01*
X6665926Y3123970D01*
X6681546Y3117500D01*
X6698454D01*
X6714074Y3123970D01*
X6726030Y3135926D01*
X6732500Y3151546D01*
Y3168454D01*
X6726030Y3184074D01*
X6714074Y3196030D01*
X6698454Y3202500D01*
D02*
G37*
G36*
X6538454D02*
X6521547D01*
X6505926Y3196030D01*
X6493971Y3184074D01*
X6487500Y3168454D01*
Y3151546D01*
X6493971Y3135926D01*
X6505926Y3123970D01*
X6521547Y3117500D01*
X6538454D01*
X6554074Y3123970D01*
X6566030Y3135926D01*
X6572500Y3151546D01*
Y3168454D01*
X6566030Y3184074D01*
X6554074Y3196030D01*
X6538454Y3202500D01*
D02*
G37*
G36*
X16170560Y8006400D02*
X16145441D01*
X16121178Y7999898D01*
X16099423Y7987339D01*
X16081660Y7969577D01*
X16069101Y7947823D01*
X16062601Y7923559D01*
Y7898440D01*
X16069101Y7874177D01*
X16081660Y7852423D01*
X16099423Y7834661D01*
X16121178Y7822101D01*
X16145441Y7815600D01*
X16170560D01*
X16194823Y7822101D01*
X16216577Y7834661D01*
X16234338Y7852423D01*
X16246898Y7874177D01*
X16253400Y7898440D01*
Y7923559D01*
X16246898Y7947823D01*
X16234338Y7969577D01*
X16216577Y7987339D01*
X16194823Y7999898D01*
X16170560Y8006400D01*
D02*
G37*
G36*
X14210532Y7780000D02*
X14189468D01*
X14169121Y7774548D01*
X14150879Y7764016D01*
X14135983Y7749121D01*
X14125452Y7730879D01*
X14120000Y7710532D01*
Y7689468D01*
X14125452Y7669121D01*
X14135983Y7650879D01*
X14150879Y7635984D01*
X14169121Y7625452D01*
X14189468Y7620000D01*
X14210532D01*
X14230879Y7625452D01*
X14249121Y7635984D01*
X14264017Y7650879D01*
X14274548Y7669121D01*
X14280000Y7689468D01*
Y7710532D01*
X14274548Y7730879D01*
X14264017Y7749121D01*
X14249121Y7764016D01*
X14230879Y7774548D01*
X14210532Y7780000D01*
D02*
G37*
G36*
X13890532Y6860000D02*
X13869469D01*
X13849121Y6854548D01*
X13830879Y6844016D01*
X13815984Y6829121D01*
X13805452Y6810879D01*
X13800000Y6790532D01*
Y6769468D01*
X13805452Y6749121D01*
X13815984Y6730879D01*
X13830879Y6715984D01*
X13849121Y6705452D01*
X13869469Y6700000D01*
X13890532D01*
X13910880Y6705452D01*
X13929121Y6715984D01*
X13944016Y6730879D01*
X13954549Y6749121D01*
X13960001Y6769468D01*
Y6790532D01*
X13954549Y6810879D01*
X13944016Y6829121D01*
X13929121Y6844016D01*
X13910880Y6854548D01*
X13890532Y6860000D01*
D02*
G37*
G36*
Y6570000D02*
X13869469D01*
X13849121Y6564548D01*
X13830879Y6554016D01*
X13815984Y6539121D01*
X13805452Y6520879D01*
X13800000Y6500532D01*
Y6479468D01*
X13805452Y6459121D01*
X13815984Y6440879D01*
X13830879Y6425984D01*
X13849121Y6415452D01*
X13869469Y6410000D01*
X13890532D01*
X13910880Y6415452D01*
X13929121Y6425984D01*
X13944016Y6440879D01*
X13954549Y6459121D01*
X13960001Y6479468D01*
Y6500532D01*
X13954549Y6520879D01*
X13944016Y6539121D01*
X13929121Y6554016D01*
X13910880Y6564548D01*
X13890532Y6570000D01*
D02*
G37*
G36*
X11600532Y6370000D02*
X11579468D01*
X11559121Y6364548D01*
X11540879Y6354016D01*
X11525984Y6339121D01*
X11515452Y6320879D01*
X11510000Y6300532D01*
Y6279468D01*
X11515452Y6259121D01*
X11525984Y6240879D01*
X11540879Y6225984D01*
X11559121Y6215452D01*
X11579468Y6210000D01*
X11600532D01*
X11620879Y6215452D01*
X11639121Y6225984D01*
X11654016Y6240879D01*
X11664548Y6259121D01*
X11670000Y6279468D01*
Y6300532D01*
X11664548Y6320879D01*
X11654016Y6339121D01*
X11639121Y6354016D01*
X11620879Y6364548D01*
X11600532Y6370000D01*
D02*
G37*
G36*
X11330532D02*
X11309468D01*
X11289121Y6364548D01*
X11270879Y6354016D01*
X11255984Y6339121D01*
X11245452Y6320879D01*
X11240000Y6300532D01*
Y6279468D01*
X11245452Y6259121D01*
X11255984Y6240879D01*
X11270879Y6225984D01*
X11289121Y6215452D01*
X11309468Y6210000D01*
X11330532D01*
X11350879Y6215452D01*
X11369121Y6225984D01*
X11384016Y6240879D01*
X11394548Y6259121D01*
X11400000Y6279468D01*
Y6300532D01*
X11394548Y6320879D01*
X11384016Y6339121D01*
X11369121Y6354016D01*
X11350879Y6364548D01*
X11330532Y6370000D01*
D02*
G37*
G36*
X13890532Y6300000D02*
X13869469D01*
X13849121Y6294548D01*
X13830879Y6284016D01*
X13815984Y6269121D01*
X13805452Y6250879D01*
X13800000Y6230532D01*
Y6209468D01*
X13805452Y6189121D01*
X13815984Y6170879D01*
X13830879Y6155984D01*
X13849121Y6145452D01*
X13869469Y6140000D01*
X13890532D01*
X13910880Y6145452D01*
X13929121Y6155984D01*
X13944016Y6170879D01*
X13954549Y6189121D01*
X13960001Y6209468D01*
Y6230532D01*
X13954549Y6250879D01*
X13944016Y6269121D01*
X13929121Y6284016D01*
X13910880Y6294548D01*
X13890532Y6300000D01*
D02*
G37*
G36*
X12200532D02*
X12179468D01*
X12159121Y6294548D01*
X12140879Y6284016D01*
X12125984Y6269121D01*
X12115452Y6250879D01*
X12110000Y6230532D01*
Y6209468D01*
X12115452Y6189121D01*
X12125984Y6170879D01*
X12140879Y6155984D01*
X12159121Y6145452D01*
X12179468Y6140000D01*
X12200532D01*
X12220879Y6145452D01*
X12239121Y6155984D01*
X12254016Y6170879D01*
X12264548Y6189121D01*
X12270000Y6209468D01*
Y6230532D01*
X12264548Y6250879D01*
X12254016Y6269121D01*
X12239121Y6284016D01*
X12220879Y6294548D01*
X12200532Y6300000D01*
D02*
G37*
G36*
X10612456Y6124479D02*
X10595548D01*
X10579928Y6118009D01*
X10567972Y6106053D01*
X10561502Y6090433D01*
Y6073526D01*
X10567972Y6057905D01*
X10579928Y6045950D01*
X10595548Y6039479D01*
X10612456D01*
X10628076Y6045950D01*
X10640032Y6057905D01*
X10646502Y6073526D01*
Y6090433D01*
X10640032Y6106053D01*
X10628076Y6118009D01*
X10612456Y6124479D01*
D02*
G37*
G36*
X14210532Y6090000D02*
X14189468D01*
X14169121Y6084548D01*
X14150879Y6074016D01*
X14135983Y6059121D01*
X14125452Y6040879D01*
X14120000Y6020532D01*
Y5999468D01*
X14125452Y5979121D01*
X14135983Y5960879D01*
X14150879Y5945984D01*
X14169121Y5935452D01*
X14189468Y5930000D01*
X14210532D01*
X14230879Y5935452D01*
X14249121Y5945984D01*
X14264017Y5960879D01*
X14274548Y5979121D01*
X14280000Y5999468D01*
Y6020532D01*
X14274548Y6040879D01*
X14264017Y6059121D01*
X14249121Y6074016D01*
X14230879Y6084548D01*
X14210532Y6090000D01*
D02*
G37*
G36*
X13890532Y6030000D02*
X13869469D01*
X13849121Y6024548D01*
X13830879Y6014016D01*
X13815984Y5999121D01*
X13805452Y5980879D01*
X13800000Y5960532D01*
Y5939468D01*
X13805452Y5919121D01*
X13815984Y5900879D01*
X13830879Y5885984D01*
X13849121Y5875452D01*
X13869469Y5870000D01*
X13890532D01*
X13910880Y5875452D01*
X13929121Y5885984D01*
X13944016Y5900879D01*
X13954549Y5919121D01*
X13960001Y5939468D01*
Y5960532D01*
X13954549Y5980879D01*
X13944016Y5999121D01*
X13929121Y6014016D01*
X13910880Y6024548D01*
X13890532Y6030000D01*
D02*
G37*
G36*
X12200532D02*
X12179468D01*
X12159121Y6024548D01*
X12140879Y6014016D01*
X12125984Y5999121D01*
X12115452Y5980879D01*
X12110000Y5960532D01*
Y5939468D01*
X12115452Y5919121D01*
X12125984Y5900879D01*
X12140879Y5885984D01*
X12159121Y5875452D01*
X12179468Y5870000D01*
X12200532D01*
X12220879Y5875452D01*
X12239121Y5885984D01*
X12254016Y5900879D01*
X12264548Y5919121D01*
X12270000Y5939468D01*
Y5960532D01*
X12264548Y5980879D01*
X12254016Y5999121D01*
X12239121Y6014016D01*
X12220879Y6024548D01*
X12200532Y6030000D01*
D02*
G37*
G36*
X12953000Y5163417D02*
X12795700D01*
Y5096701D01*
X13005917D01*
Y5110501D01*
X13001889Y5130751D01*
X12990417Y5147918D01*
X12973250Y5159389D01*
X12953000Y5163417D01*
D02*
G37*
G36*
X12770300D02*
X12613000D01*
X12592749Y5159389D01*
X12575582Y5147918D01*
X12564111Y5130751D01*
X12560083Y5110501D01*
Y5096701D01*
X12770300D01*
Y5163417D01*
D02*
G37*
G36*
X13005917Y5071300D02*
X12795700D01*
Y5004584D01*
X12953000D01*
X12973250Y5008612D01*
X12990417Y5020083D01*
X13001889Y5037250D01*
X13005917Y5057500D01*
Y5071300D01*
D02*
G37*
G36*
X12770300D02*
X12560083D01*
Y5057500D01*
X12564111Y5037250D01*
X12575582Y5020083D01*
X12592749Y5008612D01*
X12613000Y5004584D01*
X12770300D01*
Y5071300D01*
D02*
G37*
G36*
X10274214Y5154630D02*
X10116913D01*
Y5087912D01*
X10327130D01*
Y5101713D01*
X10323103Y5121963D01*
X10311632Y5139131D01*
X10294464Y5150602D01*
X10274214Y5154630D01*
D02*
G37*
G36*
X10091513D02*
X9934214D01*
X9913963Y5150602D01*
X9896796Y5139131D01*
X9885325Y5121963D01*
X9881297Y5101713D01*
Y5087912D01*
X10091513D01*
Y5154630D01*
D02*
G37*
G36*
X10327130Y5062512D02*
X10116913D01*
Y4995796D01*
X10274214D01*
X10294464Y4999824D01*
X10311632Y5011295D01*
X10323103Y5028462D01*
X10327130Y5048713D01*
Y5062512D01*
D02*
G37*
G36*
X10091513D02*
X9881297D01*
Y5048713D01*
X9885325Y5028462D01*
X9896796Y5011295D01*
X9913963Y4999824D01*
X9934214Y4995796D01*
X10091513D01*
Y5062512D01*
D02*
G37*
G36*
X12508454Y3412500D02*
X12491546D01*
X12475926Y3406030D01*
X12463970Y3394074D01*
X12457500Y3378453D01*
Y3361546D01*
X12463970Y3345926D01*
X12471821Y3338075D01*
X12474572Y3330000D01*
X12471821Y3321924D01*
X12463970Y3314074D01*
X12457500Y3298453D01*
Y3281546D01*
X12463970Y3265926D01*
X12475926Y3253970D01*
X12491546Y3247500D01*
X12508454D01*
X12524074Y3253970D01*
X12536030Y3265926D01*
X12542500Y3281546D01*
Y3298453D01*
X12536030Y3314074D01*
X12528179Y3321924D01*
X12525427Y3330000D01*
X12528179Y3338075D01*
X12536030Y3345926D01*
X12542500Y3361546D01*
Y3378453D01*
X12536030Y3394074D01*
X12524074Y3406030D01*
X12508454Y3412500D01*
D02*
G37*
G36*
X9829667Y3403712D02*
X9812760D01*
X9797140Y3397242D01*
X9785184Y3385286D01*
X9778714Y3369666D01*
Y3352759D01*
X9785184Y3337138D01*
X9793035Y3329288D01*
X9795786Y3321212D01*
X9793035Y3313137D01*
X9785184Y3305286D01*
X9778714Y3289666D01*
Y3272759D01*
X9785184Y3257138D01*
X9797140Y3245182D01*
X9812760Y3238712D01*
X9829667D01*
X9845288Y3245182D01*
X9857243Y3257138D01*
X9863714Y3272759D01*
Y3289666D01*
X9857243Y3305286D01*
X9849393Y3313137D01*
X9846641Y3321212D01*
X9849393Y3329288D01*
X9857243Y3337138D01*
X9863714Y3352759D01*
Y3369666D01*
X9857243Y3385286D01*
X9845288Y3397242D01*
X9829667Y3403712D01*
D02*
G37*
%LPD*%
D10*
X6040000Y9780000D02*
G03*
X6020000Y9760000I0J-20000D01*
G01*
Y9050000D02*
G03*
X6120000Y8950000I100000J0D01*
G01*
X6680000D02*
G03*
X6890000Y9160000I0J210000D01*
G01*
X6950000Y9270000D02*
G03*
X6890000Y9210000I0J-60000D01*
G01*
X7920000Y9270000D02*
G03*
X8174000Y9524000I0J254000D01*
G01*
X8236398Y10538397D02*
G03*
X8174000Y10476000I0J-62397D01*
G01*
X7686000Y9407500D02*
G03*
X7940000Y9661500I0J254000D01*
G01*
X8174000Y10710000D02*
G03*
X7940000Y10476000I0J-234000D01*
G01*
X12777499Y4020000D02*
G03*
X12768500Y4011001I0J-8999D01*
G01*
X7960000Y4400000D02*
G03*
X8060000Y4300000I100000J0D01*
G01*
X8236398Y10538397D02*
X9508754D01*
X8174000Y10710000D02*
X9366283D01*
X9440000Y10750000D02*
X9650000D01*
X9406283D02*
X9440000D01*
X6020000Y9050000D02*
Y9760000D01*
X6120000Y8950000D02*
X6680000D01*
X6890000Y9160000D02*
Y9210000D01*
X6950000Y9270000D02*
X7920000D01*
X8174000Y9524000D02*
Y10476000D01*
X7940000Y9661500D02*
Y10476000D01*
X6300000Y9407500D02*
X7686000D01*
X9366283Y10710000D02*
X9406283Y10750000D01*
X9965910Y4281212D02*
X9971214D01*
X9947122Y4300000D02*
X9965910Y4281212D01*
X8060000Y4300000D02*
X9947122D01*
D12*
X9311603Y10961603D02*
G03*
X9270000Y10920000I0J-41603D01*
G01*
X9130000Y10780000D02*
G03*
X9270000Y10920000I0J140000D01*
G01*
X8080000Y10780000D02*
G03*
X7860000Y10560000I0J-220000D01*
G01*
X6560000Y9170000D02*
G03*
X6490000Y9240000I-70000J0D01*
G01*
X6190000Y9290000D02*
G03*
X6240000Y9240000I50000J0D01*
G01*
X6300000Y9600000D02*
G03*
X6190000Y9490000I0J-110000D01*
G01*
X6470000Y9600000D02*
G03*
X6580000Y9710000I0J110000D01*
G01*
X6740000Y9870000D02*
G03*
X6580000Y9710000I0J-160000D01*
G01*
X7606000Y9870000D02*
G03*
X7860000Y10124000I0J254000D01*
G01*
X9311603Y10961603D02*
X9508754D01*
X8080000Y10780000D02*
X9130000D01*
X7860000Y10124000D02*
Y10560000D01*
X6560000Y9020000D02*
Y9170000D01*
X6240000Y9240000D02*
X6490000D01*
X6190000Y9290000D02*
Y9490000D01*
X6300000Y9600000D02*
X6470000D01*
X6740000Y9870000D02*
X7606000D01*
D13*
X10471214Y3801212D02*
G03*
X10397213Y3875213I-74001J0D01*
G01*
X13150000Y3810000D02*
G03*
X13075999Y3884001I-74001J0D01*
G01*
X10089714Y3875213D02*
X10397213D01*
X12768500Y3884001D02*
X13075999D01*
D83*
X2962249Y11266967D02*
X2987641Y11216184D01*
X3038425Y11165400D01*
X3089208D01*
X3114600Y11190792D01*
Y11241575D01*
X3089208Y11266967D01*
X3063817D01*
X3038425Y11241575D01*
Y11165400D01*
D84*
X4300000Y11700000D02*
D03*
X10220000Y6100000D02*
D03*
X8648021Y7594002D02*
D03*
Y8084002D02*
D03*
X10218021Y6604002D02*
D03*
Y7094002D02*
D03*
X10218021Y8574002D02*
D03*
X11320000Y8850000D02*
D03*
X14910001Y8860000D02*
D03*
X12889999Y9340000D02*
D03*
X14910001Y9350000D02*
D03*
X11320000Y8360000D02*
D03*
X14720000Y8370000D02*
D03*
D85*
X4300000Y10130000D02*
D03*
D86*
X6182000Y11401000D02*
D03*
Y10893000D02*
D03*
X5928000Y11147000D02*
D03*
X6002395Y11326605D02*
D03*
X6361605D02*
D03*
X6002395Y10967395D02*
D03*
X6361605D02*
D03*
D87*
X6436000Y11147000D02*
D03*
D88*
X10091246Y10538397D02*
D03*
X9911246Y10407620D02*
D03*
X9688754D02*
D03*
X9508754Y10538397D02*
D03*
Y10961603D02*
D03*
X9688754Y11092380D02*
D03*
X10091246Y10961603D02*
D03*
X9911246Y11092380D02*
D03*
X9800000Y10900000D02*
D03*
Y10600000D02*
D03*
X9650000Y10750000D02*
D03*
X9440000D02*
D03*
X10160000D02*
D03*
X9950000D02*
D03*
X3704000Y8114400D02*
D03*
Y7885800D02*
D03*
Y7657200D02*
D03*
Y7428600D02*
D03*
Y7200000D02*
D03*
Y6971400D02*
D03*
Y6742800D02*
D03*
Y6514000D02*
D03*
X3902000Y8457300D02*
D03*
Y8228700D02*
D03*
Y8000100D02*
D03*
Y7771500D02*
D03*
Y7542900D02*
D03*
Y7314300D02*
D03*
Y7085700D02*
D03*
Y6857100D02*
D03*
Y6628500D02*
D03*
X4100000Y8343000D02*
D03*
Y8114400D02*
D03*
Y7885800D02*
D03*
Y7657200D02*
D03*
Y7428600D02*
D03*
Y7200000D02*
D03*
Y6971400D02*
D03*
Y6742800D02*
D03*
D89*
X5748021Y5684003D02*
D03*
Y7374003D02*
D03*
X8038021Y5614002D02*
D03*
X6348021D02*
D03*
X7135997Y7660000D02*
D03*
X5445997D02*
D03*
X5445998Y7960000D02*
D03*
X7135998D02*
D03*
X5445998Y8230001D02*
D03*
X7135998D02*
D03*
X5478021Y5684003D02*
D03*
Y7374003D02*
D03*
X8358021Y7094002D02*
D03*
Y5404002D02*
D03*
X6348021Y6174002D02*
D03*
X8038021D02*
D03*
Y5344002D02*
D03*
X6348021D02*
D03*
X8038021Y5884002D02*
D03*
X6348021D02*
D03*
X12190000Y6220000D02*
D03*
X13880000D02*
D03*
X12190000Y5950000D02*
D03*
X13880000D02*
D03*
X11320000Y6290000D02*
D03*
Y7980000D02*
D03*
X12190000Y6780000D02*
D03*
X13880000D02*
D03*
X14200000Y7700000D02*
D03*
Y6010000D02*
D03*
X11590000Y6290000D02*
D03*
Y7980000D02*
D03*
X10770000Y8890000D02*
D03*
Y7200000D02*
D03*
X11040000Y8890000D02*
D03*
Y7200000D02*
D03*
X10470000Y7200000D02*
D03*
Y8890000D02*
D03*
X13880000Y6490000D02*
D03*
X12190000D02*
D03*
D90*
X8650000Y6100000D02*
D03*
X10218021Y7594002D02*
D03*
Y8084002D02*
D03*
X8648021Y6604002D02*
D03*
Y7094002D02*
D03*
X8648021Y8574002D02*
D03*
X12889999Y8850000D02*
D03*
X13339999Y8860000D02*
D03*
X11320000Y9340000D02*
D03*
X13339999Y9350000D02*
D03*
X12889999Y8360000D02*
D03*
X13150000Y8370000D02*
D03*
D91*
X3704000Y8343000D02*
D03*
D92*
X3902000Y9145000D02*
D03*
Y5813000D02*
D03*
D93*
X16158000Y7911000D02*
D03*
Y7637000D02*
D03*
Y7363000D02*
D03*
Y7089000D02*
D03*
X16442000Y8048000D02*
D03*
Y7774000D02*
D03*
Y7500000D02*
D03*
Y7226000D02*
D03*
D94*
Y6952000D02*
D03*
D95*
X16300000Y8749500D02*
D03*
Y6250500D02*
D03*
D96*
X6978470Y10353194D02*
D03*
X5382000Y11947000D02*
D03*
D97*
X17100000Y12100000D02*
D03*
Y3100000D02*
D03*
X3100000D02*
D03*
Y12100000D02*
D03*
D98*
X11340000Y11510000D02*
D03*
X11440000D02*
D03*
X11540000D02*
D03*
X11640000D02*
D03*
X11440000D02*
D03*
X11540000D02*
D03*
X11640000D02*
D03*
X11340000Y11430000D02*
D03*
X11440000D02*
D03*
X11540000D02*
D03*
X11640000D02*
D03*
X11440000D02*
D03*
X11540000D02*
D03*
X11640000D02*
D03*
X11440000D02*
D03*
X11540000D02*
D03*
X11640000D02*
D03*
X8850000Y12060000D02*
D03*
X13200000Y9930000D02*
D03*
X14400008Y3900002D02*
D03*
X14450008Y3800002D02*
D03*
X14400008Y3700002D02*
D03*
X14450008Y3600002D02*
D03*
X14400008Y3500002D02*
D03*
X14450008Y3400002D02*
D03*
X14300008Y3900002D02*
D03*
X14350008Y3800002D02*
D03*
X14300008Y3700002D02*
D03*
X14350008Y3600002D02*
D03*
X14300008Y3500002D02*
D03*
X14350008Y3400002D02*
D03*
X14200008Y3900002D02*
D03*
X14250008Y3800002D02*
D03*
X14200008Y3700002D02*
D03*
X14250008Y3600002D02*
D03*
X14200008Y3500002D02*
D03*
X14250008Y3400002D02*
D03*
X14200008Y3300002D02*
D03*
Y3100002D02*
D03*
X14100008Y4300002D02*
D03*
X14150008Y4200002D02*
D03*
X14100008Y4100002D02*
D03*
X14150008Y4000002D02*
D03*
X14100008Y3900002D02*
D03*
X14150008Y3800002D02*
D03*
X14100008Y3700002D02*
D03*
X14150008Y3600002D02*
D03*
X14100008Y3500002D02*
D03*
X14150008Y3400002D02*
D03*
X14100008Y3300002D02*
D03*
X14150008Y3200002D02*
D03*
X14100008Y3100002D02*
D03*
X14050008Y4400002D02*
D03*
X14000008Y4300002D02*
D03*
X14050008Y4200002D02*
D03*
X14000008Y4100002D02*
D03*
X14050008Y4000002D02*
D03*
X14000008Y3900002D02*
D03*
X14050008Y3800002D02*
D03*
X14000008Y3700002D02*
D03*
X14050008Y3600002D02*
D03*
X14000008Y3500002D02*
D03*
X14050008Y3400002D02*
D03*
X14000008Y3300002D02*
D03*
X14050008Y3200002D02*
D03*
X14000008Y3100002D02*
D03*
X13950008Y4400002D02*
D03*
X13900008Y4300002D02*
D03*
X13950008Y4200002D02*
D03*
X13900008Y4100002D02*
D03*
X13950008Y4000002D02*
D03*
X13900008Y3900002D02*
D03*
X13950008Y3800002D02*
D03*
X13900008Y3700002D02*
D03*
X13950008Y3600002D02*
D03*
X13900008Y3500002D02*
D03*
X13950008Y3400002D02*
D03*
X13900008Y3300002D02*
D03*
X13950008Y3200002D02*
D03*
X13900008Y3100002D02*
D03*
X13850008Y4400002D02*
D03*
X13800008Y4300002D02*
D03*
X13850008Y4200002D02*
D03*
X13800008Y4100002D02*
D03*
X13850008Y4000002D02*
D03*
X13800008Y3900002D02*
D03*
X13850008Y3800002D02*
D03*
X13800008Y3700002D02*
D03*
X13850008Y3600002D02*
D03*
X13800008Y3500002D02*
D03*
X13850008Y3400002D02*
D03*
X13800008Y3300002D02*
D03*
X13850008Y3200002D02*
D03*
X13800008Y3100002D02*
D03*
X13750008Y4200002D02*
D03*
Y4000002D02*
D03*
Y3800002D02*
D03*
Y3600002D02*
D03*
Y3400002D02*
D03*
X13700008Y3300002D02*
D03*
X13750008Y3200002D02*
D03*
X13700008Y3100002D02*
D03*
X13600008Y3300002D02*
D03*
X13650008Y3200002D02*
D03*
X13600008Y3100002D02*
D03*
X13500008Y3300002D02*
D03*
X13550008Y3200002D02*
D03*
X13500008Y3100002D02*
D03*
X13400008Y3300002D02*
D03*
X13450008Y3200002D02*
D03*
X13400008Y3100002D02*
D03*
X4586600Y4261100D02*
D03*
Y4191100D02*
D03*
X4556600Y4131100D02*
D03*
X4486600D02*
D03*
X4426600D02*
D03*
X4366600D02*
D03*
X4306600D02*
D03*
X4246600D02*
D03*
X4186600D02*
D03*
X4126600D02*
D03*
X4076600Y4161100D02*
D03*
X4056600Y4221100D02*
D03*
Y4281100D02*
D03*
Y4341100D02*
D03*
Y4401100D02*
D03*
Y4461100D02*
D03*
Y4521100D02*
D03*
X4106600Y4561100D02*
D03*
X4156600Y4601100D02*
D03*
X4206600Y4641100D02*
D03*
X4236600Y4691100D02*
D03*
Y4751099D02*
D03*
Y4811100D02*
D03*
Y4871099D02*
D03*
Y4931100D02*
D03*
Y4991099D02*
D03*
Y5051100D02*
D03*
X4266600Y5101100D02*
D03*
X4316600Y5131099D02*
D03*
X4376600D02*
D03*
X4436600D02*
D03*
X4496600D02*
D03*
X4556600D02*
D03*
X4586600Y5091100D02*
D03*
Y5031100D02*
D03*
Y4971100D02*
D03*
Y4911100D02*
D03*
Y4851100D02*
D03*
Y4791100D02*
D03*
Y4731100D02*
D03*
Y4671100D02*
D03*
Y4611099D02*
D03*
Y4551100D02*
D03*
Y4491099D02*
D03*
Y4431100D02*
D03*
Y4371099D02*
D03*
Y4311100D02*
D03*
X12500000Y3290000D02*
D03*
X13330000Y7100000D02*
D03*
X12214261Y7124100D02*
D03*
X12080000Y7120000D02*
D03*
X8121000Y11181900D02*
D03*
X10604002Y6556979D02*
D03*
Y6746979D02*
D03*
X11900000Y7100000D02*
D03*
X3800000Y5440000D02*
D03*
X3960000D02*
D03*
X4480000D02*
D03*
X5000000D02*
D03*
X5080000D02*
D03*
X4400000D02*
D03*
X4560000D02*
D03*
X12500000Y3370000D02*
D03*
X12672544Y2753116D02*
D03*
X12547544D02*
D03*
X12340000Y3590000D02*
D03*
X12240000Y3640000D02*
D03*
X12500000Y4050000D02*
D03*
Y3970000D02*
D03*
Y4770000D02*
D03*
X12650000Y4210000D02*
D03*
Y4370000D02*
D03*
Y4290000D02*
D03*
Y4130000D02*
D03*
X12930000Y5090000D02*
D03*
X12850000D02*
D03*
X12500000Y5470000D02*
D03*
Y5390000D02*
D03*
X12290000Y5440000D02*
D03*
X9661214Y5531212D02*
D03*
X10450000Y5520000D02*
D03*
X10631214Y4351213D02*
D03*
Y4431212D02*
D03*
Y4511212D02*
D03*
Y4591212D02*
D03*
X10531214Y4351213D02*
D03*
Y4431212D02*
D03*
Y4511212D02*
D03*
Y4591212D02*
D03*
X13130000Y5550000D02*
D03*
X6310000Y4030000D02*
D03*
X6085200Y9040000D02*
D03*
X6940000Y9800000D02*
D03*
X6880000Y4140000D02*
D03*
X11200000Y4430000D02*
D03*
X11160000Y4150000D02*
D03*
X6632900Y4140000D02*
D03*
X7360000Y6490000D02*
D03*
X16139999Y3540000D02*
D03*
X16039999D02*
D03*
X16239999Y3460000D02*
D03*
X16139999D02*
D03*
X16039999D02*
D03*
X16239999Y3540000D02*
D03*
X15939999D02*
D03*
Y3460000D02*
D03*
X16239999Y3700000D02*
D03*
X16039999D02*
D03*
X16239999Y3620000D02*
D03*
X16139999D02*
D03*
Y3700000D02*
D03*
X15939999D02*
D03*
X16039999Y3620000D02*
D03*
X15939999D02*
D03*
X5898000Y5440000D02*
D03*
X2982000D02*
D03*
Y3610000D02*
D03*
X5898000D02*
D03*
X10080000Y9070000D02*
D03*
X7970000Y9000000D02*
D03*
X9358021Y9074002D02*
D03*
X7960000Y4400000D02*
D03*
X12590000Y7120000D02*
D03*
X10171214Y5081212D02*
D03*
X10251214D02*
D03*
X10011214D02*
D03*
X10831214Y4591212D02*
D03*
X10731214Y4511212D02*
D03*
Y4431212D02*
D03*
X10831214Y4351213D02*
D03*
X10731214D02*
D03*
X9971214Y4361212D02*
D03*
Y4121212D02*
D03*
Y4201212D02*
D03*
Y4281212D02*
D03*
X8571214Y2991212D02*
D03*
X8671214D02*
D03*
X8871214D02*
D03*
X9071214D02*
D03*
X8971214D02*
D03*
X8571214Y2911212D02*
D03*
X8671214D02*
D03*
X8871214D02*
D03*
X8771214D02*
D03*
X9071214D02*
D03*
X8971214D02*
D03*
X10571214Y3321212D02*
D03*
X9821214Y5461212D02*
D03*
Y5381212D02*
D03*
Y4761212D02*
D03*
Y4681212D02*
D03*
Y3961212D02*
D03*
Y4041212D02*
D03*
Y3281212D02*
D03*
Y3361212D02*
D03*
X8881214Y3491212D02*
D03*
Y3991212D02*
D03*
Y3891212D02*
D03*
Y3791212D02*
D03*
Y3591212D02*
D03*
Y3691212D02*
D03*
Y3391212D02*
D03*
Y3191212D02*
D03*
Y4091212D02*
D03*
Y4191212D02*
D03*
X8561214Y3541212D02*
D03*
Y3841213D02*
D03*
Y3741212D02*
D03*
Y3641212D02*
D03*
Y3441212D02*
D03*
Y3341212D02*
D03*
Y3241212D02*
D03*
Y3941213D02*
D03*
X8761214Y3841213D02*
D03*
Y3641212D02*
D03*
X8661214Y3891213D02*
D03*
Y3691213D02*
D03*
X8761214Y3541212D02*
D03*
X8661214Y3591213D02*
D03*
X8761214Y3741212D02*
D03*
X8661214Y3791213D02*
D03*
X8761214Y3441212D02*
D03*
X8661214Y3191212D02*
D03*
Y3391212D02*
D03*
X8761214Y3341212D02*
D03*
X8661214Y3491212D02*
D03*
X8761214Y3241212D02*
D03*
X8661214Y3291212D02*
D03*
X8761214Y3941213D02*
D03*
Y4041213D02*
D03*
X8661214Y3991213D02*
D03*
X8981214Y3631212D02*
D03*
Y3931213D02*
D03*
Y3431212D02*
D03*
Y3831213D02*
D03*
Y4031213D02*
D03*
Y3531212D02*
D03*
Y4131213D02*
D03*
Y3731213D02*
D03*
X9181214Y4131213D02*
D03*
Y4031213D02*
D03*
X9081214Y3781213D02*
D03*
Y3881213D02*
D03*
Y3981213D02*
D03*
Y4181213D02*
D03*
Y4081213D02*
D03*
Y3481212D02*
D03*
Y3581213D02*
D03*
Y3681213D02*
D03*
X9181214Y3231212D02*
D03*
Y3331212D02*
D03*
X9081214Y3381212D02*
D03*
Y3181212D02*
D03*
Y3281212D02*
D03*
X8981214Y3331212D02*
D03*
Y3231212D02*
D03*
X9181214Y3731213D02*
D03*
Y3431212D02*
D03*
Y3831213D02*
D03*
Y3631212D02*
D03*
Y3931213D02*
D03*
Y3531212D02*
D03*
X9661214Y3781212D02*
D03*
Y4081212D02*
D03*
Y3981212D02*
D03*
Y3881212D02*
D03*
Y3681212D02*
D03*
Y3381212D02*
D03*
Y3581212D02*
D03*
Y3481212D02*
D03*
X9461214Y3381212D02*
D03*
X9361214Y3731212D02*
D03*
X9561214Y3531212D02*
D03*
Y3431212D02*
D03*
X9461214Y3681212D02*
D03*
X9361214Y3631212D02*
D03*
Y3531212D02*
D03*
Y3431212D02*
D03*
X9561214Y3731212D02*
D03*
Y3631212D02*
D03*
X9461214Y3481212D02*
D03*
Y3581212D02*
D03*
X9361214Y4031212D02*
D03*
X9561214D02*
D03*
X9461214Y3981212D02*
D03*
Y3781212D02*
D03*
Y4081212D02*
D03*
X9361214Y3931212D02*
D03*
X9561214D02*
D03*
X9361214Y3831212D02*
D03*
X9461214Y3881212D02*
D03*
X9561214Y3831212D02*
D03*
X9461214Y5531212D02*
D03*
X9561214D02*
D03*
X8961214D02*
D03*
X9061214D02*
D03*
X9261214D02*
D03*
X9361214D02*
D03*
X9161214D02*
D03*
X8861214D02*
D03*
X8661214D02*
D03*
X8761214D02*
D03*
X9611214Y5431212D02*
D03*
X8811214D02*
D03*
X9311214D02*
D03*
X9511214D02*
D03*
X8711214D02*
D03*
X9211214D02*
D03*
X9011214D02*
D03*
X9111214D02*
D03*
X8911214D02*
D03*
X9411214D02*
D03*
X9611214Y5061212D02*
D03*
X8811214D02*
D03*
X8911214D02*
D03*
X8711214D02*
D03*
X9011214D02*
D03*
X9611214Y4861212D02*
D03*
X9661214Y4961212D02*
D03*
X9011214Y4861212D02*
D03*
X8761214Y4961212D02*
D03*
X8911214Y4861212D02*
D03*
X8711214D02*
D03*
X8661214Y4961212D02*
D03*
X8861214D02*
D03*
X8961214D02*
D03*
X8811214Y4861212D02*
D03*
X9061214Y4961212D02*
D03*
X9311214Y4861212D02*
D03*
X9261214Y4961212D02*
D03*
X9161214D02*
D03*
X9211214Y4861212D02*
D03*
X9111214D02*
D03*
Y5061212D02*
D03*
X9211214D02*
D03*
X9311214D02*
D03*
X9561214Y4961212D02*
D03*
X9511214Y5061212D02*
D03*
Y4861212D02*
D03*
X9461214Y4961212D02*
D03*
X9361214D02*
D03*
X9411214Y5061212D02*
D03*
Y4861212D02*
D03*
X9611214Y4571212D02*
D03*
X9661214Y4671212D02*
D03*
X9611214Y4771212D02*
D03*
X9011214Y4571212D02*
D03*
X8661214Y4671212D02*
D03*
X8711214Y4571212D02*
D03*
X8811214D02*
D03*
X8761214Y4671212D02*
D03*
X8861214D02*
D03*
X8911214Y4571212D02*
D03*
X8961214Y4671212D02*
D03*
X9061214D02*
D03*
X8711214Y4771212D02*
D03*
X8911214D02*
D03*
X9011214D02*
D03*
X8811214D02*
D03*
X9311214D02*
D03*
Y4571212D02*
D03*
X9161214Y4671212D02*
D03*
X9111214Y4771212D02*
D03*
X9261214Y4671212D02*
D03*
X9211214Y4571212D02*
D03*
X9111214D02*
D03*
X9211214Y4771212D02*
D03*
X9411214Y4571212D02*
D03*
X9511214Y4771212D02*
D03*
Y4571212D02*
D03*
X9461214Y4671212D02*
D03*
X9561214D02*
D03*
X9361214D02*
D03*
X9411214Y4771212D02*
D03*
X9011214Y5351212D02*
D03*
X9061214Y5251212D02*
D03*
X8811214Y5351212D02*
D03*
X8911214D02*
D03*
X8961214Y5251212D02*
D03*
X8711214Y5351212D02*
D03*
X8761214Y5251212D02*
D03*
X8861214D02*
D03*
X8661214D02*
D03*
X9611214Y5351212D02*
D03*
X9661214Y5251212D02*
D03*
X9611214Y5151212D02*
D03*
X8911214D02*
D03*
X9011214D02*
D03*
X8811214D02*
D03*
X8711214D02*
D03*
X9111214Y5351212D02*
D03*
X9261214Y5251212D02*
D03*
X9111214Y5151212D02*
D03*
X9161214Y5251212D02*
D03*
X9211214Y5351212D02*
D03*
Y5151212D02*
D03*
X9411214Y5351212D02*
D03*
X9311214Y5151212D02*
D03*
X9561214Y5251212D02*
D03*
X9511214Y5151212D02*
D03*
X9411214D02*
D03*
X9461214Y5251212D02*
D03*
X9511214Y5351212D02*
D03*
X9361214Y5251212D02*
D03*
X9311214Y5351212D02*
D03*
X10091214Y5081212D02*
D03*
X8881214Y3291212D02*
D03*
X10471214Y3801212D02*
D03*
X10604002Y6081979D02*
D03*
X6498021Y7444002D02*
D03*
X6240521Y7139609D02*
D03*
X6113521D02*
D03*
X6748021Y7304002D02*
D03*
X7058021Y7374003D02*
D03*
X6598021Y7444002D02*
D03*
X7058021Y7074002D02*
D03*
X7738021Y7394002D02*
D03*
X7868021Y6974003D02*
D03*
X7628021Y6384002D02*
D03*
X7838021Y7394002D02*
D03*
X7738021Y6384002D02*
D03*
X6113521Y6666396D02*
D03*
X7058021Y6464003D02*
D03*
X6748021Y6514002D02*
D03*
X6498021D02*
D03*
X6368021D02*
D03*
X6058021Y6494003D02*
D03*
X7058021Y6764002D02*
D03*
X6238021Y6514002D02*
D03*
X13580000Y6990000D02*
D03*
X13470000D02*
D03*
X8070000Y10090000D02*
D03*
X5632500Y9737500D02*
D03*
X6170000Y9170000D02*
D03*
X5630000Y8990000D02*
D03*
X5297500Y8994879D02*
D03*
X6560000Y9020000D02*
D03*
X6040000Y9780000D02*
D03*
X13460001Y10660000D02*
D03*
Y10740000D02*
D03*
X13660001D02*
D03*
X13560001D02*
D03*
Y10660000D02*
D03*
X13660001D02*
D03*
X13760001D02*
D03*
Y10740000D02*
D03*
X13210001Y7410000D02*
D03*
Y4440000D02*
D03*
Y4520000D02*
D03*
X13310001Y4440000D02*
D03*
Y4360000D02*
D03*
Y4520000D02*
D03*
X13250000Y3330000D02*
D03*
X7850000Y3800000D02*
D03*
X10731214Y4591212D02*
D03*
X10831214Y4511212D02*
D03*
Y4431212D02*
D03*
X13410001Y4440000D02*
D03*
X13510001Y4360000D02*
D03*
X13410001D02*
D03*
X13510001Y4440000D02*
D03*
X13210001Y4360000D02*
D03*
X13510001Y4600000D02*
D03*
X13310001D02*
D03*
X13510001Y4520000D02*
D03*
X13410001D02*
D03*
Y4600000D02*
D03*
X13210001D02*
D03*
X14870000Y6280000D02*
D03*
X14770000D02*
D03*
X14970000Y6200000D02*
D03*
X14870000D02*
D03*
X14770000D02*
D03*
X14970000Y6280000D02*
D03*
X14670000D02*
D03*
Y6200000D02*
D03*
X14970000Y6440000D02*
D03*
X14770000D02*
D03*
X14970000Y6360000D02*
D03*
X14870000D02*
D03*
Y6440000D02*
D03*
X14670000D02*
D03*
X14770000Y6360000D02*
D03*
X14670000D02*
D03*
X15600000Y8960000D02*
D03*
X15500000D02*
D03*
X15700000Y8880000D02*
D03*
X15600000D02*
D03*
X15500000D02*
D03*
X15700000Y8960000D02*
D03*
X15400000D02*
D03*
Y8880000D02*
D03*
X15700000Y9120000D02*
D03*
X15500000D02*
D03*
X15700000Y9040000D02*
D03*
X15600000D02*
D03*
Y9120000D02*
D03*
X15400000D02*
D03*
X15500000Y9040000D02*
D03*
X15400000D02*
D03*
X12920000Y5710000D02*
D03*
X10250000Y5720000D02*
D03*
X14839999Y9820000D02*
D03*
X12900000Y7680000D02*
D03*
Y7980000D02*
D03*
Y7070000D02*
D03*
Y7370000D02*
D03*
X13710001Y7580000D02*
D03*
X13680000Y8000000D02*
D03*
X13580000D02*
D03*
X12082501Y7745607D02*
D03*
X11955501Y7272393D02*
D03*
X14480000Y12120000D02*
D03*
Y12200000D02*
D03*
X14780000D02*
D03*
X14680000Y12120000D02*
D03*
X14580000D02*
D03*
X14780000D02*
D03*
X14580000Y12200000D02*
D03*
X14680000D02*
D03*
X15550000Y11890000D02*
D03*
X15250000D02*
D03*
X15550000Y11810000D02*
D03*
X15450000D02*
D03*
X15350000D02*
D03*
X15450000Y11890000D02*
D03*
X15350000D02*
D03*
X15250000Y11810000D02*
D03*
X12380000Y12000000D02*
D03*
Y12100000D02*
D03*
X12300000Y12000000D02*
D03*
Y12100000D02*
D03*
Y12200000D02*
D03*
X12380000D02*
D03*
Y12300000D02*
D03*
X12300000D02*
D03*
X12080000Y11990000D02*
D03*
X12000000D02*
D03*
Y12090000D02*
D03*
Y12190000D02*
D03*
X12080000D02*
D03*
Y12090000D02*
D03*
Y12290000D02*
D03*
X12000000D02*
D03*
X10310000Y12210000D02*
D03*
Y12290000D02*
D03*
X10410000D02*
D03*
X10510000Y12210000D02*
D03*
X10610000D02*
D03*
X10410000D02*
D03*
X10510000Y12290000D02*
D03*
X10610000D02*
D03*
X10990000Y10450000D02*
D03*
Y10350000D02*
D03*
Y10250000D02*
D03*
Y10150000D02*
D03*
X11070000Y10450000D02*
D03*
Y10350000D02*
D03*
Y10250000D02*
D03*
Y10150000D02*
D03*
X10990000Y10350000D02*
D03*
Y10250000D02*
D03*
Y10150000D02*
D03*
Y10350000D02*
D03*
Y10250000D02*
D03*
Y10150000D02*
D03*
X11070000Y10350000D02*
D03*
Y10250000D02*
D03*
Y10150000D02*
D03*
X11180000Y10450000D02*
D03*
Y10350000D02*
D03*
Y10250000D02*
D03*
Y10150000D02*
D03*
X11260000Y10450000D02*
D03*
Y10350000D02*
D03*
Y10250000D02*
D03*
Y10150000D02*
D03*
X11180000Y10350000D02*
D03*
Y10250000D02*
D03*
Y10150000D02*
D03*
Y10350000D02*
D03*
Y10250000D02*
D03*
Y10150000D02*
D03*
X11260000Y10350000D02*
D03*
Y10250000D02*
D03*
Y10150000D02*
D03*
X13900000Y10230000D02*
D03*
X13800000D02*
D03*
X13900000Y10150000D02*
D03*
X13700000D02*
D03*
X13600000D02*
D03*
X13700000Y10230000D02*
D03*
X13600000D02*
D03*
X13800000Y10150000D02*
D03*
X13520000Y10230000D02*
D03*
X13420000D02*
D03*
X13520000Y10150000D02*
D03*
X13420000D02*
D03*
X13320000D02*
D03*
X13220000D02*
D03*
X13320000Y10230000D02*
D03*
X13220000D02*
D03*
X12700000Y10330000D02*
D03*
X12600000D02*
D03*
X12500000D02*
D03*
X12400000D02*
D03*
X12700000Y10250000D02*
D03*
X12600000D02*
D03*
X12400000D02*
D03*
X12500000D02*
D03*
X13220000Y11590000D02*
D03*
X13120000D02*
D03*
X13020000D02*
D03*
X12920000D02*
D03*
X13220000Y11510000D02*
D03*
X13120000D02*
D03*
X13020000D02*
D03*
X12920000D02*
D03*
X13120000Y11590000D02*
D03*
X13020000D02*
D03*
X12920000D02*
D03*
X13120000D02*
D03*
X13020000D02*
D03*
X12920000D02*
D03*
X13120000Y11510000D02*
D03*
X13020000D02*
D03*
X12920000D02*
D03*
X13370000Y12160000D02*
D03*
X13470000D02*
D03*
X13370000Y12240000D02*
D03*
X13570000D02*
D03*
Y12160000D02*
D03*
X13670000D02*
D03*
X13470000Y12240000D02*
D03*
X13670000D02*
D03*
X13370000Y12000000D02*
D03*
Y12080000D02*
D03*
X13670000D02*
D03*
X13470000Y12000000D02*
D03*
X13570000D02*
D03*
X13670000D02*
D03*
X13470000Y12080000D02*
D03*
X13570000D02*
D03*
X13470000Y11060000D02*
D03*
X13670000D02*
D03*
X13770000D02*
D03*
X13470000Y11140000D02*
D03*
X13570000D02*
D03*
X13670000D02*
D03*
X13770000D02*
D03*
X13570000Y11060000D02*
D03*
X13470000Y11220000D02*
D03*
X13770000D02*
D03*
X13470000Y11300000D02*
D03*
X13570000D02*
D03*
X13670000D02*
D03*
X13770000D02*
D03*
X13570000Y11220000D02*
D03*
X13670000D02*
D03*
X13070000D02*
D03*
Y11300000D02*
D03*
X13170000D02*
D03*
X13270000D02*
D03*
X13370000D02*
D03*
X13170000Y11220000D02*
D03*
X13270000D02*
D03*
X13370000D02*
D03*
X13180000Y10760000D02*
D03*
Y10660000D02*
D03*
Y10560000D02*
D03*
Y10460000D02*
D03*
X13260001Y10760000D02*
D03*
Y10660000D02*
D03*
Y10560000D02*
D03*
Y10460000D02*
D03*
X13180000Y10660000D02*
D03*
Y10560000D02*
D03*
Y10460000D02*
D03*
Y10660000D02*
D03*
Y10560000D02*
D03*
Y10460000D02*
D03*
X13260001Y10660000D02*
D03*
Y10560000D02*
D03*
Y10460000D02*
D03*
X13470000Y11880000D02*
D03*
Y11680000D02*
D03*
X13550000Y11880000D02*
D03*
Y11580000D02*
D03*
X13470000D02*
D03*
Y11780000D02*
D03*
X13550000D02*
D03*
Y11680000D02*
D03*
X15870000Y10020000D02*
D03*
X15670000D02*
D03*
X15870000Y9940000D02*
D03*
X15670000D02*
D03*
X15570000Y10020000D02*
D03*
X15770000D02*
D03*
Y9940000D02*
D03*
X15570000D02*
D03*
X16670000Y9770000D02*
D03*
X16370000D02*
D03*
X16670000Y9690000D02*
D03*
X16570000D02*
D03*
X16370000D02*
D03*
X16570000Y9770000D02*
D03*
X16470000D02*
D03*
Y9690000D02*
D03*
X16670000Y10010000D02*
D03*
X16470000D02*
D03*
X16370000D02*
D03*
X16670000Y9930000D02*
D03*
X16570000D02*
D03*
X16370000D02*
D03*
X16570000Y10010000D02*
D03*
X16470000Y9930000D02*
D03*
X16669000Y10288000D02*
D03*
X16469000D02*
D03*
X16369000D02*
D03*
X16670000Y10212000D02*
D03*
X16569000Y10288000D02*
D03*
X16570000Y10212000D02*
D03*
X16470000D02*
D03*
X16370000D02*
D03*
X15030000Y9820000D02*
D03*
X14370000Y9830000D02*
D03*
X13480000D02*
D03*
X12760000D02*
D03*
X12340000Y8050000D02*
D03*
X12440000D02*
D03*
X12590000Y7910000D02*
D03*
X12340000Y7120000D02*
D03*
X11955501Y7745607D02*
D03*
X12290000Y5160000D02*
D03*
X12340000Y5260000D02*
D03*
X12290000Y5360000D02*
D03*
X12240000Y5260000D02*
D03*
X12190000Y5360000D02*
D03*
X12140000Y5260000D02*
D03*
X12190000Y5160000D02*
D03*
X12090000Y5360000D02*
D03*
X12040000Y5260000D02*
D03*
X12090000Y5160000D02*
D03*
X11990000D02*
D03*
X11440000Y5540000D02*
D03*
X11640000D02*
D03*
X11490000Y5440000D02*
D03*
X11540000Y5540000D02*
D03*
X11590000Y5440000D02*
D03*
X11690000D02*
D03*
X11740000Y5540000D02*
D03*
X11940000D02*
D03*
X11790000Y5440000D02*
D03*
X11840000Y5540000D02*
D03*
X11890000Y5440000D02*
D03*
X12340000Y5540000D02*
D03*
X12040000D02*
D03*
X12240000D02*
D03*
X12090000Y5440000D02*
D03*
X12140000Y5540000D02*
D03*
X12190000Y5440000D02*
D03*
X11990000D02*
D03*
X12240000Y4680000D02*
D03*
X12290000Y4780000D02*
D03*
Y4580000D02*
D03*
X12190000Y4780000D02*
D03*
X12140000Y4680000D02*
D03*
X12190000Y4580000D02*
D03*
X12090000Y4780000D02*
D03*
X12040000Y4680000D02*
D03*
X12090000Y4580000D02*
D03*
X11990000Y4780000D02*
D03*
Y4580000D02*
D03*
X12500000Y4690000D02*
D03*
X12340000Y4680000D02*
D03*
X11890000Y4780000D02*
D03*
X11790000Y4580000D02*
D03*
X11840000Y4680000D02*
D03*
X11890000Y4580000D02*
D03*
X11790000Y4780000D02*
D03*
X11740000Y4680000D02*
D03*
X11690000Y4780000D02*
D03*
X11640000Y4680000D02*
D03*
X11690000Y4580000D02*
D03*
X11340000Y4680000D02*
D03*
X11540000D02*
D03*
X11590000Y4580000D02*
D03*
X11440000Y4680000D02*
D03*
X11490000Y4580000D02*
D03*
X11390000Y4780000D02*
D03*
Y4580000D02*
D03*
X11490000Y4780000D02*
D03*
X11590000D02*
D03*
X11560000Y4200000D02*
D03*
X11990000Y5070000D02*
D03*
X11940000Y4970000D02*
D03*
X11990000Y4870000D02*
D03*
X11890000D02*
D03*
X11940000Y4680000D02*
D03*
X11890000Y5070000D02*
D03*
X11490000D02*
D03*
X11790000D02*
D03*
X11690000D02*
D03*
X11590000D02*
D03*
X11390000D02*
D03*
X11340000Y4970000D02*
D03*
X11840000D02*
D03*
X11740000D02*
D03*
X11790000Y4870000D02*
D03*
X11640000Y4970000D02*
D03*
X11690000Y4870000D02*
D03*
X11540000Y4970000D02*
D03*
X11590000Y4870000D02*
D03*
X11440000Y4970000D02*
D03*
X11490000Y4870000D02*
D03*
X11390000D02*
D03*
X12290000D02*
D03*
X12690000Y5090000D02*
D03*
X12770000D02*
D03*
X12340000Y4970000D02*
D03*
X12290000Y5070000D02*
D03*
X12240000Y4970000D02*
D03*
X12190000Y5070000D02*
D03*
X12140000Y4970000D02*
D03*
X12190000Y4870000D02*
D03*
X12090000Y5070000D02*
D03*
X12040000Y4970000D02*
D03*
X12090000Y4870000D02*
D03*
X11990000Y5360000D02*
D03*
X11790000D02*
D03*
X11940000Y5260000D02*
D03*
X11890000Y5360000D02*
D03*
X11840000Y5260000D02*
D03*
X11890000Y5160000D02*
D03*
X11740000Y5260000D02*
D03*
X11790000Y5160000D02*
D03*
X11690000Y5360000D02*
D03*
Y5160000D02*
D03*
X11440000Y5260000D02*
D03*
X11640000D02*
D03*
X11590000Y5360000D02*
D03*
X11540000Y5260000D02*
D03*
X11590000Y5160000D02*
D03*
X11490000Y5360000D02*
D03*
Y5160000D02*
D03*
X11390000Y5360000D02*
D03*
X11340000Y5260000D02*
D03*
X11390000Y5160000D02*
D03*
Y5440000D02*
D03*
X11340000Y5540000D02*
D03*
X12340000Y4090000D02*
D03*
X12140000D02*
D03*
X11240000Y3750000D02*
D03*
Y3950000D02*
D03*
Y3850000D02*
D03*
Y3650000D02*
D03*
Y3550000D02*
D03*
Y3450000D02*
D03*
X11250000Y2920000D02*
D03*
X11350000Y3000000D02*
D03*
X11250000D02*
D03*
X11240000Y3250000D02*
D03*
X11350000Y2920000D02*
D03*
X11240000Y3350000D02*
D03*
X11860000Y3240000D02*
D03*
X11760000Y3190000D02*
D03*
X11660000Y3240000D02*
D03*
X11760000Y3290000D02*
D03*
X11660000Y3340000D02*
D03*
X11760000Y3390000D02*
D03*
X11660000Y3440000D02*
D03*
X11760000Y3490000D02*
D03*
X11660000Y3540000D02*
D03*
X11760000Y3590000D02*
D03*
X11660000Y3640000D02*
D03*
X11760000Y3690000D02*
D03*
X11860000Y3740000D02*
D03*
Y3340000D02*
D03*
Y3440000D02*
D03*
Y3540000D02*
D03*
Y3640000D02*
D03*
Y3840000D02*
D03*
Y3940000D02*
D03*
Y4040000D02*
D03*
Y4140000D02*
D03*
X11660000Y3940000D02*
D03*
Y3740000D02*
D03*
X11760000Y3790000D02*
D03*
X11660000Y3840000D02*
D03*
X11760000Y3890000D02*
D03*
Y3990000D02*
D03*
X11660000Y4040000D02*
D03*
X11760000Y4090000D02*
D03*
X11660000Y4140000D02*
D03*
X11760000Y4190001D02*
D03*
X11560000Y3500000D02*
D03*
Y3400000D02*
D03*
Y3199999D02*
D03*
Y3299999D02*
D03*
Y4100000D02*
D03*
Y4000000D02*
D03*
Y3900000D02*
D03*
Y3800000D02*
D03*
Y3700000D02*
D03*
Y3600000D02*
D03*
X11440000Y4050000D02*
D03*
Y3550000D02*
D03*
Y3650000D02*
D03*
Y3750000D02*
D03*
Y3850000D02*
D03*
Y3950000D02*
D03*
Y3450000D02*
D03*
Y3350000D02*
D03*
Y3250000D02*
D03*
X11340000Y3200000D02*
D03*
Y3400000D02*
D03*
Y3500000D02*
D03*
Y3600000D02*
D03*
Y3700000D02*
D03*
Y3800000D02*
D03*
Y3900000D02*
D03*
Y4000000D02*
D03*
Y3300000D02*
D03*
X13150000Y3810000D02*
D03*
X12340000Y3690000D02*
D03*
Y3990000D02*
D03*
Y3890000D02*
D03*
Y3790000D02*
D03*
X12040000Y4040000D02*
D03*
X12140000Y3990000D02*
D03*
X12240000Y4040000D02*
D03*
X12040000Y3940000D02*
D03*
X12140000Y3890000D02*
D03*
X12240000Y3940000D02*
D03*
X12040000Y3840000D02*
D03*
X12140000Y3790000D02*
D03*
X12240000Y3840000D02*
D03*
X12040000Y3740000D02*
D03*
X12140000Y3690000D02*
D03*
X12240000Y3740000D02*
D03*
X12040000Y3640000D02*
D03*
X12340000Y3390000D02*
D03*
Y3490000D02*
D03*
X12140000Y3590000D02*
D03*
Y3490000D02*
D03*
X12240000Y3540000D02*
D03*
X12140000Y3390000D02*
D03*
X12240000Y3439999D02*
D03*
X12040000D02*
D03*
Y3540000D02*
D03*
X11450000Y3000000D02*
D03*
X11550000D02*
D03*
X11650000D02*
D03*
X11750000D02*
D03*
X11850000D02*
D03*
X11450000Y2920000D02*
D03*
X11550000D02*
D03*
X11650000D02*
D03*
X11750000D02*
D03*
X11850000D02*
D03*
X15800000Y12230000D02*
D03*
Y12130000D02*
D03*
Y12030000D02*
D03*
X15880000Y12230000D02*
D03*
Y12130000D02*
D03*
Y12030000D02*
D03*
Y12230000D02*
D03*
Y12130000D02*
D03*
Y12030000D02*
D03*
X15800000Y12230000D02*
D03*
Y12130000D02*
D03*
Y12030000D02*
D03*
Y11930000D02*
D03*
X15880000Y12230000D02*
D03*
Y12130000D02*
D03*
Y12030000D02*
D03*
Y11930000D02*
D03*
X8771214Y2991212D02*
D03*
X9171214Y2911212D02*
D03*
Y2991212D02*
D03*
X7720000Y11270000D02*
D03*
X7800000D02*
D03*
X6300000Y9900000D02*
D03*
X5780000Y9620000D02*
D03*
X6400000Y9770000D02*
D03*
X3800000Y3610000D02*
D03*
X3719999D02*
D03*
X3959999D02*
D03*
X3879999D02*
D03*
X4400000D02*
D03*
X4319999D02*
D03*
X4560000D02*
D03*
X4479999D02*
D03*
X5000000D02*
D03*
X4920000D02*
D03*
X5160000D02*
D03*
X5079999D02*
D03*
X5898000Y4565000D02*
D03*
Y4645000D02*
D03*
Y4405000D02*
D03*
Y4485000D02*
D03*
X5160000Y5440000D02*
D03*
X4920000D02*
D03*
X4320000D02*
D03*
X3880000D02*
D03*
X3720000D02*
D03*
X2982000Y4485000D02*
D03*
Y4405000D02*
D03*
Y4645000D02*
D03*
Y4565000D02*
D03*
X3542500Y4340000D02*
D03*
X3622500D02*
D03*
X3582500Y4380000D02*
D03*
Y4300000D02*
D03*
X5040000Y3980000D02*
D03*
Y4100000D02*
D03*
X4463000Y3875000D02*
D03*
Y3795000D02*
D03*
X5490000Y4340000D02*
D03*
X5510000Y3840000D02*
D03*
X6410000Y4380000D02*
D03*
Y4300000D02*
D03*
X7050000Y4140000D02*
D03*
X6810000Y3580000D02*
D03*
X8080000Y3240000D02*
D03*
X8040000Y3040000D02*
D03*
X7550000Y4290000D02*
D03*
X7470000D02*
D03*
X7460000Y3690000D02*
D03*
X7540000D02*
D03*
X6690000Y3160000D02*
D03*
X6530000D02*
D03*
X13510001Y10570000D02*
D03*
X6170000Y9770000D02*
D03*
X5430000Y9620000D02*
D03*
X5300000Y9780000D02*
D03*
X7030000Y9750000D02*
D03*
X8121000Y11101900D02*
D03*
X5230000Y9060000D02*
D03*
X17032022Y12446883D02*
D03*
X16907022D02*
D03*
X16782022D02*
D03*
X16657022D02*
D03*
X16532022D02*
D03*
X16407022D02*
D03*
X16282022D02*
D03*
X16157022D02*
D03*
X16032022D02*
D03*
X15907022D02*
D03*
X15782022D02*
D03*
X15657022D02*
D03*
X15532022D02*
D03*
X15407022D02*
D03*
X15282022D02*
D03*
X15157022D02*
D03*
X15032022D02*
D03*
X14907022D02*
D03*
X14782022D02*
D03*
X14657022D02*
D03*
X14532022D02*
D03*
X14407022D02*
D03*
X14282022D02*
D03*
X14157022D02*
D03*
X14032022D02*
D03*
X13907022D02*
D03*
X13782022D02*
D03*
X13657022D02*
D03*
X13532022D02*
D03*
X13407022D02*
D03*
X13282022D02*
D03*
X13157022D02*
D03*
X13032022D02*
D03*
X12907022D02*
D03*
X12782022D02*
D03*
X12657022D02*
D03*
X12532022D02*
D03*
X12407022D02*
D03*
X12282022D02*
D03*
X12157022D02*
D03*
X12032022D02*
D03*
X11907022D02*
D03*
X11782022D02*
D03*
X11657022D02*
D03*
X11532022D02*
D03*
X11407022D02*
D03*
X11282022D02*
D03*
X11157022D02*
D03*
X11032022D02*
D03*
X10907022D02*
D03*
X10782022D02*
D03*
X10657022D02*
D03*
X10532022D02*
D03*
X10407022D02*
D03*
X10282022D02*
D03*
X10157022D02*
D03*
X10032022D02*
D03*
X9907022D02*
D03*
X9782022D02*
D03*
X9657022D02*
D03*
X9532022D02*
D03*
X9407022D02*
D03*
X9282022D02*
D03*
X9157022D02*
D03*
X9032022D02*
D03*
X8907022D02*
D03*
X8782022D02*
D03*
X8657022D02*
D03*
X8532022D02*
D03*
X8407022D02*
D03*
X8282022D02*
D03*
X8157022D02*
D03*
X8032022D02*
D03*
X7907022D02*
D03*
X7782022D02*
D03*
X7657022D02*
D03*
X7532022D02*
D03*
X7407022D02*
D03*
X7282022D02*
D03*
X7157022D02*
D03*
X7032021D02*
D03*
X6907021D02*
D03*
X6782021D02*
D03*
X6657021D02*
D03*
X6532021D02*
D03*
X6407021D02*
D03*
X6282021D02*
D03*
X6157021D02*
D03*
X6032021D02*
D03*
X5907021D02*
D03*
X5782021D02*
D03*
X5657021D02*
D03*
X5532021D02*
D03*
X5407021D02*
D03*
X5282021D02*
D03*
X5157021D02*
D03*
X5032021D02*
D03*
X4907021D02*
D03*
X4782021D02*
D03*
X4657021D02*
D03*
X4532021D02*
D03*
X4407021D02*
D03*
X4282021D02*
D03*
X4157021D02*
D03*
X4032021D02*
D03*
X3907021D02*
D03*
X3782021D02*
D03*
X3657021D02*
D03*
X3532021D02*
D03*
X3407021D02*
D03*
X3282021D02*
D03*
X3157021D02*
D03*
X3032035Y12445035D02*
D03*
X2911881Y12410566D02*
D03*
X2816573Y12329688D02*
D03*
X2762667Y12216909D02*
D03*
X2753117Y12092274D02*
D03*
Y11967274D02*
D03*
Y11842274D02*
D03*
Y11717274D02*
D03*
Y11592274D02*
D03*
Y11467274D02*
D03*
Y11342274D02*
D03*
Y11217274D02*
D03*
Y11092274D02*
D03*
Y10967274D02*
D03*
Y10842274D02*
D03*
Y10717274D02*
D03*
Y10592274D02*
D03*
Y10467274D02*
D03*
Y10342274D02*
D03*
Y10217274D02*
D03*
Y10092274D02*
D03*
Y9967274D02*
D03*
Y9842274D02*
D03*
Y9717274D02*
D03*
Y9592274D02*
D03*
Y9467274D02*
D03*
Y9342274D02*
D03*
Y9217274D02*
D03*
Y9092274D02*
D03*
Y8967274D02*
D03*
Y8842274D02*
D03*
Y8717274D02*
D03*
Y8592274D02*
D03*
Y8467274D02*
D03*
Y8342274D02*
D03*
Y8217274D02*
D03*
Y8092274D02*
D03*
Y7967274D02*
D03*
Y7842274D02*
D03*
Y7717274D02*
D03*
Y7592274D02*
D03*
Y7467274D02*
D03*
Y7342274D02*
D03*
Y7217274D02*
D03*
Y7092274D02*
D03*
Y6967274D02*
D03*
Y6842274D02*
D03*
Y6717274D02*
D03*
Y6592274D02*
D03*
Y6467274D02*
D03*
Y6342274D02*
D03*
Y6217274D02*
D03*
Y6092274D02*
D03*
Y5967274D02*
D03*
Y5842274D02*
D03*
Y5717274D02*
D03*
Y5592274D02*
D03*
Y5467274D02*
D03*
Y5342274D02*
D03*
Y5217274D02*
D03*
Y5092274D02*
D03*
Y4967274D02*
D03*
Y4842274D02*
D03*
Y4717274D02*
D03*
Y4592274D02*
D03*
Y4467274D02*
D03*
Y4342274D02*
D03*
Y4217274D02*
D03*
Y4092274D02*
D03*
Y3967274D02*
D03*
Y3842274D02*
D03*
Y3717274D02*
D03*
Y3592274D02*
D03*
Y3467274D02*
D03*
Y3342274D02*
D03*
Y3217274D02*
D03*
Y3092274D02*
D03*
X2766297Y2967971D02*
D03*
X2826653Y2858508D02*
D03*
X2925903Y2782517D02*
D03*
X3047546Y2753743D02*
D03*
X3172544Y2753116D02*
D03*
X3297544D02*
D03*
X3422544D02*
D03*
X3547544D02*
D03*
X3672544D02*
D03*
X3797544D02*
D03*
X3922544D02*
D03*
X4047544D02*
D03*
X4172544D02*
D03*
X4297544D02*
D03*
X4422544D02*
D03*
X4547544D02*
D03*
X4672544D02*
D03*
X4797544D02*
D03*
X4922544D02*
D03*
X5047544D02*
D03*
X5172544D02*
D03*
X5297544D02*
D03*
X5422544D02*
D03*
X5547544D02*
D03*
X5672544D02*
D03*
X5797544D02*
D03*
X5922544D02*
D03*
X6047544D02*
D03*
X6172544Y2753116D02*
D03*
X6297544D02*
D03*
X6422544D02*
D03*
X6547544D02*
D03*
X6672544D02*
D03*
X6797544D02*
D03*
X6922544D02*
D03*
X7047544D02*
D03*
X7172544D02*
D03*
X7297544D02*
D03*
X7422544D02*
D03*
X7547544D02*
D03*
X7672544D02*
D03*
X7797544D02*
D03*
X7922544D02*
D03*
X8047544D02*
D03*
X8172544D02*
D03*
X8297544D02*
D03*
X8422544D02*
D03*
X8547544D02*
D03*
X8672544D02*
D03*
X8797544D02*
D03*
X8922544D02*
D03*
X9047544Y2753116D02*
D03*
X9172544D02*
D03*
X9297544D02*
D03*
X9422544D02*
D03*
X9547544D02*
D03*
X9672544D02*
D03*
X9797544D02*
D03*
X9922544D02*
D03*
X10047544D02*
D03*
X10172544D02*
D03*
X10297544D02*
D03*
X10422544D02*
D03*
X10547544D02*
D03*
X10672544D02*
D03*
X10797544D02*
D03*
X10922544D02*
D03*
X11047544D02*
D03*
X11172544D02*
D03*
X11297544D02*
D03*
X11422544D02*
D03*
X11547544D02*
D03*
X11672544D02*
D03*
X11797544D02*
D03*
X11922544Y2753116D02*
D03*
X12047544D02*
D03*
X12172544D02*
D03*
X12297544D02*
D03*
X12422544D02*
D03*
X12797544D02*
D03*
X12922543D02*
D03*
X13047543D02*
D03*
X13172543D02*
D03*
X13297543D02*
D03*
X13422543D02*
D03*
X13547543D02*
D03*
X13672543D02*
D03*
X13797543D02*
D03*
X13922543D02*
D03*
X14047543D02*
D03*
X14172543D02*
D03*
X14297543D02*
D03*
X14422543D02*
D03*
X14547543D02*
D03*
X14672543D02*
D03*
X14797543Y2753117D02*
D03*
X14922543D02*
D03*
X15047543D02*
D03*
X15172543D02*
D03*
X15297543D02*
D03*
X15422543D02*
D03*
X15547543D02*
D03*
X15672543D02*
D03*
X15797543D02*
D03*
X15922543D02*
D03*
X16047543D02*
D03*
X16172543D02*
D03*
X16297543D02*
D03*
X16422543D02*
D03*
X16547545D02*
D03*
X16672545D02*
D03*
X16797545D02*
D03*
X16922545D02*
D03*
X17047545D02*
D03*
X17172525Y2755324D02*
D03*
X17292068Y2791854D02*
D03*
X17386433Y2873831D02*
D03*
X17438396Y2987519D02*
D03*
X17446883Y3112231D02*
D03*
Y3237231D02*
D03*
Y3362231D02*
D03*
Y3487231D02*
D03*
Y3612231D02*
D03*
Y3737231D02*
D03*
Y3862231D02*
D03*
Y3987231D02*
D03*
Y4112231D02*
D03*
Y4237231D02*
D03*
Y4362231D02*
D03*
Y4487231D02*
D03*
Y4612231D02*
D03*
Y4737231D02*
D03*
Y4862231D02*
D03*
Y4987231D02*
D03*
Y5112231D02*
D03*
Y5237231D02*
D03*
Y5362231D02*
D03*
Y5487231D02*
D03*
Y5612231D02*
D03*
Y5737231D02*
D03*
Y5862231D02*
D03*
Y5987231D02*
D03*
Y6112231D02*
D03*
Y6237231D02*
D03*
Y6362231D02*
D03*
Y6487231D02*
D03*
Y6612231D02*
D03*
Y6737231D02*
D03*
Y6862231D02*
D03*
Y6987231D02*
D03*
Y7112231D02*
D03*
Y7237231D02*
D03*
Y7362231D02*
D03*
Y7487231D02*
D03*
Y7612231D02*
D03*
Y7737231D02*
D03*
Y7862231D02*
D03*
Y7987231D02*
D03*
Y8112231D02*
D03*
Y8237231D02*
D03*
Y8362231D02*
D03*
Y8487231D02*
D03*
Y8612231D02*
D03*
Y8737231D02*
D03*
Y8862231D02*
D03*
Y8987231D02*
D03*
Y9112231D02*
D03*
Y9237231D02*
D03*
Y9362231D02*
D03*
Y9487231D02*
D03*
Y9612231D02*
D03*
Y9737231D02*
D03*
Y9862231D02*
D03*
Y9987231D02*
D03*
Y10112231D02*
D03*
Y10237231D02*
D03*
Y10362231D02*
D03*
Y10487231D02*
D03*
Y10612231D02*
D03*
Y10737231D02*
D03*
Y10862231D02*
D03*
Y10987231D02*
D03*
Y11112231D02*
D03*
Y11237231D02*
D03*
Y11362231D02*
D03*
Y11487231D02*
D03*
Y11612231D02*
D03*
Y11737231D02*
D03*
Y11862231D02*
D03*
Y11987231D02*
D03*
Y12112231D02*
D03*
X17432646Y12236417D02*
D03*
X17370471Y12344857D02*
D03*
X17269974Y12419189D02*
D03*
X17147990Y12446487D02*
D03*
D99*
X6300000Y9407500D02*
D03*
D115*
X11816000Y4830000D02*
D03*
X9137214Y4821213D02*
D03*
D116*
X12783000Y4576000D02*
D03*
Y5084000D02*
D03*
X10104214Y4567213D02*
D03*
Y5075213D02*
D03*
D117*
X11580100Y3630001D02*
D03*
X8901314Y3621213D02*
D03*
D118*
X12768500Y4011001D02*
D03*
Y3884001D02*
D03*
Y3757001D02*
D03*
Y3630001D02*
D03*
Y3503001D02*
D03*
Y3376001D02*
D03*
Y3249001D02*
D03*
X10089714Y3240213D02*
D03*
Y3367213D02*
D03*
Y3494213D02*
D03*
Y3621213D02*
D03*
Y3748213D02*
D03*
Y3875213D02*
D03*
Y4002213D02*
D03*
%TF.MD5,bfaab8da551eed94bd74c30a54dc7fc5*%
M02*
