%TF.GenerationSoftware,Altium Limited,Altium Designer,24.2.2 (26)*%
G04 Layer_Color=0*
%FSLAX45Y45*%
%MOMM*%
%TF.SameCoordinates,B61E387C-C652-4A73-A4A4-6DD95E315EF5*%
%TF.FilePolarity,Positive*%
%TF.FileFunction,Profile,NP*%
%TF.Part,Single*%
G01*
G75*
%TA.AperFunction,Profile*%
%ADD191C,0.02540*%
G36*
X3874600Y9640000D02*
Y12209200D01*
Y12214252D01*
X3878467Y12223588D01*
X3885612Y12230733D01*
X3894948Y12234600D01*
X3900000D01*
D01*
X3929200D01*
X3934252D01*
X3943588Y12230733D01*
X3950733Y12223588D01*
X3954600Y12214252D01*
Y12209200D01*
D01*
Y9640000D01*
Y9634947D01*
X3950733Y9625612D01*
X3943588Y9618467D01*
X3934252Y9614600D01*
X3929200D01*
D01*
X3900000D01*
X3894948D01*
X3885612Y9618467D01*
X3878467Y9625612D01*
X3874600Y9634947D01*
Y9640000D01*
D01*
D02*
G37*
G36*
X8301000Y10895830D02*
Y12244169D01*
Y12249222D01*
X8304867Y12258557D01*
X8312012Y12265702D01*
X8321348Y12269569D01*
X8326400D01*
D01*
X8364600D01*
X8369652D01*
X8378988Y12265702D01*
X8386133Y12258557D01*
X8390000Y12249222D01*
Y12244169D01*
D01*
Y10895830D01*
Y10890778D01*
X8386133Y10881442D01*
X8378988Y10874297D01*
X8369652Y10870430D01*
X8364600D01*
D01*
X8326400D01*
X8321348D01*
X8312012Y10874297D01*
X8304867Y10881442D01*
X8301000Y10890778D01*
Y10895830D01*
D01*
D02*
G37*
G36*
X6250000Y10025400D02*
Y10074600D01*
Y10079652D01*
X6253867Y10088988D01*
X6261012Y10096133D01*
X6270347Y10100000D01*
X6275400D01*
D01*
X7174600D01*
X7179652D01*
X7188988Y10096133D01*
X7196133Y10088988D01*
X7200000Y10079652D01*
Y10074600D01*
D01*
Y10025400D01*
Y10020347D01*
X7196133Y10011012D01*
X7188988Y10003867D01*
X7179652Y10000000D01*
X7174600D01*
D01*
X6275400D01*
X6270347D01*
X6261012Y10003867D01*
X6253867Y10011012D01*
X6250000Y10020347D01*
Y10025400D01*
D01*
D02*
G37*
G36*
X5150000D02*
Y10074600D01*
Y10079652D01*
X5153867Y10088988D01*
X5161012Y10096133D01*
X5170348Y10100000D01*
X5175400D01*
D01*
X6074600D01*
X6079652D01*
X6088988Y10096133D01*
X6096133Y10088988D01*
X6100000Y10079652D01*
Y10074600D01*
D01*
Y10025400D01*
Y10020347D01*
X6096133Y10011012D01*
X6088988Y10003867D01*
X6079652Y10000000D01*
X6074600D01*
D01*
X5175400D01*
X5170348D01*
X5161012Y10003867D01*
X5153867Y10011012D01*
X5150000Y10020347D01*
Y10025400D01*
D01*
D02*
G37*
G36*
X7275400Y10100000D02*
X7270347D01*
X7261012Y10103867D01*
X7253867Y10111012D01*
X7250000Y10120348D01*
Y10125400D01*
D01*
Y11024600D01*
Y11029652D01*
X7253867Y11038988D01*
X7261012Y11046133D01*
X7270347Y11050000D01*
X7275400D01*
D01*
X7324600D01*
X7329652D01*
X7338988Y11046133D01*
X7346133Y11038988D01*
X7350000Y11029652D01*
Y11024600D01*
D01*
Y10125400D01*
Y10120348D01*
X7346133Y10111012D01*
X7338988Y10103867D01*
X7329652Y10100000D01*
X7324600D01*
D01*
X7275400D01*
D02*
G37*
G36*
X7250000Y11225400D02*
Y12124600D01*
Y12129652D01*
X7253867Y12138988D01*
X7261012Y12146133D01*
X7270347Y12150000D01*
X7275400D01*
D01*
X7324600D01*
X7329652D01*
X7338988Y12146133D01*
X7346133Y12138988D01*
X7350000Y12129652D01*
Y12124600D01*
D01*
Y11225400D01*
Y11220347D01*
X7346133Y11211012D01*
X7338988Y11203867D01*
X7329652Y11200000D01*
X7324600D01*
D01*
X7275400D01*
X7270347D01*
X7261012Y11203867D01*
X7253867Y11211012D01*
X7250000Y11220347D01*
Y11225400D01*
D01*
D02*
G37*
G36*
X6275400Y12207000D02*
X6270348D01*
X6261012Y12210867D01*
X6253867Y12218012D01*
X6250000Y12227347D01*
Y12232400D01*
D01*
Y12281600D01*
Y12286652D01*
X6253867Y12295988D01*
X6261012Y12303133D01*
X6270348Y12307000D01*
X6275400D01*
D01*
X7174600D01*
X7179652D01*
X7188988Y12303133D01*
X7196133Y12295988D01*
X7200000Y12286652D01*
Y12281600D01*
D01*
Y12232400D01*
Y12227347D01*
X7196133Y12218012D01*
X7188988Y12210867D01*
X7179652Y12207000D01*
X7174600D01*
D01*
X6275400D01*
D02*
G37*
G36*
X5150000Y12233400D02*
Y12282600D01*
Y12287652D01*
X5153867Y12296988D01*
X5161012Y12304133D01*
X5170348Y12308000D01*
X5175400D01*
D01*
X6074600D01*
X6079652D01*
X6088988Y12304133D01*
X6096133Y12296988D01*
X6100000Y12287652D01*
Y12282600D01*
D01*
Y12233400D01*
Y12228347D01*
X6096133Y12219012D01*
X6088988Y12211867D01*
X6079652Y12208000D01*
X6074600D01*
D01*
X5175400D01*
X5170348D01*
X5161012Y12211867D01*
X5153867Y12219012D01*
X5150000Y12228347D01*
Y12233400D01*
D01*
D02*
G37*
G36*
X5000000Y11225400D02*
Y12124600D01*
Y12129652D01*
X5003867Y12138988D01*
X5011012Y12146133D01*
X5020347Y12150000D01*
X5025400D01*
D01*
X5074600D01*
X5079652D01*
X5088988Y12146133D01*
X5096133Y12138988D01*
X5100000Y12129652D01*
Y12124600D01*
D01*
Y11225400D01*
Y11220348D01*
X5096133Y11211012D01*
X5088988Y11203867D01*
X5079652Y11200000D01*
X5074600D01*
D01*
X5025400D01*
X5020347D01*
X5011012Y11203867D01*
X5003867Y11211012D01*
X5000000Y11220348D01*
Y11225400D01*
D01*
D02*
G37*
G36*
X5025400Y10100000D02*
X5074600D01*
X5079652D01*
X5088988Y10103867D01*
X5096133Y10111012D01*
X5100000Y10120348D01*
Y10125400D01*
D01*
Y11024600D01*
Y11029653D01*
X5096133Y11038988D01*
X5088988Y11046133D01*
X5079652Y11050000D01*
X5074600D01*
D01*
X5025400D01*
X5020347D01*
X5011012Y11046133D01*
X5003867Y11038988D01*
X5000000Y11029653D01*
Y11024600D01*
D01*
Y10125400D01*
Y10120348D01*
X5003867Y10111012D01*
X5011012Y10103867D01*
X5020347Y10100000D01*
X5025400D01*
D01*
D02*
G37*
G36*
X8300000Y9025831D02*
Y10374169D01*
Y10379222D01*
X8303867Y10388557D01*
X8311012Y10395702D01*
X8320347Y10399569D01*
X8325400D01*
D01*
X8363599D01*
X8368652D01*
X8377987Y10395702D01*
X8385132Y10388557D01*
X8388999Y10379222D01*
Y10374169D01*
D01*
Y9025831D01*
Y9020778D01*
X8385132Y9011442D01*
X8377987Y9004297D01*
X8368652Y9000431D01*
X8363599D01*
D01*
X8325400D01*
X8320347D01*
X8311012Y9004297D01*
X8303867Y9011442D01*
X8300000Y9020778D01*
Y9025831D01*
D01*
D02*
G37*
G36*
X5098800Y8561000D02*
X5093747D01*
X5084412Y8564867D01*
X5077267Y8572012D01*
X5073400Y8581347D01*
Y8586400D01*
D01*
Y8624600D01*
Y8629652D01*
X5077267Y8638988D01*
X5084412Y8646133D01*
X5093747Y8650000D01*
X5098800D01*
D01*
X8315600D01*
X8320652D01*
X8329988Y8646133D01*
X8337133Y8638988D01*
X8341000Y8629652D01*
Y8624600D01*
D01*
Y8586400D01*
Y8581347D01*
X8337133Y8572012D01*
X8329988Y8564867D01*
X8320652Y8561000D01*
X8315600D01*
D01*
X5098800D01*
D02*
G37*
D191*
X2600000Y2941421D02*
Y12258578D01*
D02*
G02*
X2941421Y12600000I341421J0D01*
G01*
X17258578D01*
D02*
G02*
X17600000Y12258578I0J-341421D01*
G01*
Y2941421D01*
D02*
G02*
X17258578Y2600000I-341421J0D01*
G01*
X2941421D01*
D02*
G02*
X2600000Y2941421I0J341421D01*
G01*
%TF.MD5,2fb1e44bc6f82d70d5b919a73065fe47*%
M02*
