%TF.GenerationSoftware,Altium Limited,Altium Designer,24.2.2 (26)*%
G04 Layer_Color=8388736*
%FSLAX45Y45*%
%MOMM*%
%TF.SameCoordinates,B61E387C-C652-4A73-A4A4-6DD95E315EF5*%
%TF.FilePolarity,Positive*%
%TF.FileFunction,Other,Top_3D_Body*%
%TF.Part,Single*%
G01*
G75*
%TA.AperFunction,NonConductor*%
%ADD118C,0.20000*%
%ADD120C,0.15000*%
D118*
X6955000Y4455000D02*
Y4625000D01*
X6865000Y4455000D02*
X6955000D01*
X6865000D02*
Y4625000D01*
X6955000D01*
X5252500Y3890000D02*
X5427500D01*
Y3790000D02*
Y3890000D01*
X5252500Y3790000D02*
X5427500D01*
X5252500D02*
Y3890000D01*
Y4290000D02*
X5427500D01*
X5252500D02*
Y4390000D01*
X5427500D01*
Y4290000D02*
Y4390000D01*
X5085000Y3755000D02*
Y3925000D01*
X4995000Y3755000D02*
X5085000D01*
X4995000D02*
Y3925000D01*
X5085000D01*
X4995000Y4155000D02*
Y4325000D01*
X5085000D01*
Y4155000D02*
Y4325000D01*
X4995000Y4155000D02*
X5085000D01*
X5867500Y9595001D02*
X6732500D01*
X5867500Y9205000D02*
Y9595001D01*
Y9205000D02*
X6732500D01*
Y9595001D01*
X5936021Y6708002D02*
Y7098003D01*
X6926021D01*
Y6708002D02*
Y7098003D01*
X5936021Y6708002D02*
X6926021D01*
X6495521Y7391503D02*
X6600521D01*
Y7336502D02*
Y7391503D01*
X6495521Y7336502D02*
X6600521D01*
X6495521D02*
Y7391503D01*
X8170521Y6689002D02*
Y7079003D01*
X7305521Y6689002D02*
X8170521D01*
X7305521D02*
Y7079003D01*
X8170521D01*
X7625521Y6436502D02*
X7730521D01*
X7625521D02*
Y6491503D01*
X7730521D01*
Y6436502D02*
Y6491503D01*
X7735521Y7351503D02*
X7840521D01*
Y7296503D02*
Y7351503D01*
X7735521Y7296503D02*
X7840521D01*
X7735521D02*
Y7351503D01*
X12337500Y7997500D02*
X12442500D01*
Y7942500D02*
Y7997500D01*
X12337500Y7942500D02*
X12442500D01*
X12337500D02*
Y7997500D01*
X14012500Y7295000D02*
Y7685000D01*
X13147501Y7295000D02*
X14012500D01*
X13147501D02*
Y7685000D01*
X14012500D01*
X13467500Y7042500D02*
X13572501D01*
X13467500D02*
Y7097500D01*
X13572501D01*
Y7042500D02*
Y7097500D01*
X11778001Y7314000D02*
Y7704000D01*
X12768001D01*
Y7314000D02*
Y7704000D01*
X11778001Y7314000D02*
X12768001D01*
X13577499Y7957500D02*
X13682500D01*
Y7902500D02*
Y7957500D01*
X13577499Y7902500D02*
X13682500D01*
X13577499D02*
Y7957500D01*
X6495000Y4095000D02*
Y4185000D01*
X6325000D02*
X6495000D01*
X6325000Y4095000D02*
Y4185000D01*
Y4095000D02*
X6495000D01*
X6695000Y3195000D02*
Y3285000D01*
X6525000D02*
X6695000D01*
X6525000Y3195000D02*
Y3285000D01*
Y3195000D02*
X6695000D01*
X6250500Y3866607D02*
X7115500D01*
X6250500Y3476606D02*
Y3866607D01*
Y3476606D02*
X7115500D01*
Y3866607D01*
X13044901Y10392950D02*
Y10807050D01*
Y10392950D02*
X13355099D01*
Y10807050D01*
X13044901D02*
X13355099D01*
X13660983Y11495551D02*
Y11899450D01*
X13360983D02*
X13660983D01*
X13360983Y11495551D02*
Y11899450D01*
Y11495551D02*
X13660983D01*
X13510001Y10677500D02*
X13689999D01*
Y11017500D01*
X13510001D02*
X13689999D01*
X13510001Y10677500D02*
Y11017500D01*
X13700000Y10142500D02*
X13880000D01*
Y10482500D01*
X13700000D02*
X13880000D01*
X13700000Y10142500D02*
Y10482500D01*
X12841978Y12143498D02*
X13021979D01*
X12841978Y11803498D02*
Y12143498D01*
Y11803498D02*
X13021979D01*
Y12143498D01*
X13010001Y11622500D02*
X13189999D01*
X13010001Y11282500D02*
Y11622500D01*
Y11282500D02*
X13189999D01*
Y11622500D01*
X6467500Y9852000D02*
Y9948000D01*
X6292500D02*
X6467500D01*
X6292500Y9852000D02*
Y9948000D01*
Y9852000D02*
X6467500D01*
X7980000Y9052500D02*
Y9147500D01*
X7820000D02*
X7980000D01*
X7820000Y9052500D02*
Y9147500D01*
Y9052500D02*
X7980000D01*
Y9452500D02*
Y9547500D01*
X7820000D02*
X7980000D01*
X7820000Y9452500D02*
Y9547500D01*
Y9452500D02*
X7980000D01*
X7979994Y9252511D02*
Y9347511D01*
X7819994D02*
X7979994D01*
X7819994Y9252511D02*
Y9347511D01*
Y9252511D02*
X7979994D01*
X7987500Y9652000D02*
Y9748000D01*
X7812500D02*
X7987500D01*
X7812500Y9652000D02*
Y9748000D01*
Y9652000D02*
X7987500D01*
X7980000Y9852500D02*
Y9947500D01*
X7820000D02*
X7980000D01*
X7820000Y9852500D02*
Y9947500D01*
Y9852500D02*
X7980000D01*
D120*
X6651900Y11147000D02*
G03*
X6651900Y11147000I-469900J0D01*
G01*
%TF.MD5,fc818c3356be590ed707e9c765c2e727*%
M02*
