%TF.GenerationSoftware,Altium Limited,Altium Designer,24.2.2 (26)*%
G04 Layer_Physical_Order=4*
G04 Layer_Color=16440176*
%FSLAX45Y45*%
%MOMM*%
%TF.SameCoordinates,2C43E8B5-FC8E-40A2-A425-C8743FE8A27F*%
%TF.FilePolarity,Positive*%
%TF.FileFunction,Copper,L4,Inr,Signal*%
%TF.Part,Single*%
G01*
G75*
%TA.AperFunction,Conductor*%
%ADD10C,0.25400*%
%ADD11C,0.10000*%
%ADD12C,0.15000*%
%TA.AperFunction,NonConductor*%
%ADD83C,0.25400*%
%TA.AperFunction,ComponentPad*%
%ADD86C,1.30000*%
%ADD87R,1.30000X1.30000*%
%ADD88C,1.50000*%
%ADD89C,1.20000*%
%ADD91R,1.50000X1.50000*%
%ADD92C,1.57500*%
%ADD93C,1.50800*%
%ADD94R,1.50800X1.50800*%
%ADD95C,4.16600*%
%TA.AperFunction,ViaPad*%
%ADD96C,4.00000*%
%ADD97C,8.00000*%
%ADD98C,0.45000*%
%ADD99C,1.50000*%
%TA.AperFunction,ComponentPad*%
%ADD111C,1.52400*%
G36*
X4636600Y4121100D02*
Y4113220D01*
X4633525Y4097764D01*
X4627495Y4083205D01*
X4618740Y4070103D01*
X4607597Y4058959D01*
X4594494Y4050204D01*
X4579935Y4044174D01*
X4564479Y4041100D01*
X4556600D01*
D01*
X4066600D01*
X4059705D01*
X4046181Y4043789D01*
X4033442Y4049066D01*
X4021977Y4056727D01*
X4012227Y4066477D01*
X4004567Y4077942D01*
X3999290Y4090681D01*
X3996600Y4104205D01*
Y4111099D01*
D01*
Y4551100D01*
Y4563034D01*
X4005734Y4585087D01*
X4022612Y4601965D01*
X4044665Y4611099D01*
X4056600D01*
D01*
X4066600D01*
X4076401Y4611581D01*
X4095628Y4615405D01*
X4113739Y4622907D01*
X4130039Y4633798D01*
X4143901Y4647660D01*
X4154792Y4663960D01*
X4162294Y4682071D01*
X4166118Y4701298D01*
X4166600Y4711100D01*
D01*
Y5081100D01*
Y5091933D01*
X4170827Y5113185D01*
X4179119Y5133204D01*
X4191157Y5151220D01*
X4206479Y5166542D01*
X4224495Y5178580D01*
X4244514Y5186872D01*
X4265766Y5191100D01*
X4276600D01*
D01*
X4576600D01*
X4588534D01*
X4610587Y5181965D01*
X4627465Y5165087D01*
X4636600Y5143034D01*
Y5131099D01*
D01*
Y4121100D01*
D02*
G37*
D10*
X6738449Y7249639D02*
G03*
X6734292Y7250000I-4271J-25039D01*
G01*
X6761749D02*
G03*
X6757600Y7249640I114J-25400D01*
G01*
X10218021Y7094002D02*
G03*
X10062023Y7250000I-155998J0D01*
G01*
X6290000D02*
G03*
X6240521Y7200521I0J-49479D01*
G01*
X6738449Y7249639D02*
G03*
X6757600Y7249640I9572J54364D01*
G01*
X6110000Y9710000D02*
G03*
X6040000Y9780000I-70000J0D01*
G01*
D02*
G03*
X5920000Y9660000I0J-120000D01*
G01*
X6710000Y8950000D02*
G03*
X6920000Y8740000I210000J0D01*
G01*
X5060000Y8780000D02*
G03*
X4970000Y8690000I0J-90000D01*
G01*
X5920000Y8780000D02*
G03*
X6010000Y8870000I0J90000D01*
G01*
X12190000Y7047320D02*
G03*
X12170000Y7090000I-55538J0D01*
G01*
X12190000Y8496000D02*
G03*
X11946000Y8740000I-244000J0D01*
G01*
X7058021Y7074002D02*
G03*
X7262023Y6870000I204002J0D01*
G01*
X4820000Y7174600D02*
G03*
X4566000Y7428600I-254000J0D01*
G01*
X4820000Y5710000D02*
G03*
X5020000Y5510000I200000J0D01*
G01*
X7576000D02*
G03*
X7830000Y5764000I0J254000D01*
G01*
X7934002Y6174002D02*
G03*
X7830000Y6070000I0J-104002D01*
G01*
X8190000Y6022024D02*
G03*
X8038021Y6174002I-151979J0D01*
G01*
X11030000Y6790000D02*
G03*
X10950000Y6870000I-80000J0D01*
G01*
X11030000Y6790000D02*
G03*
X11150000Y6670000I120000J0D01*
G01*
X12340000D02*
G03*
X12500000Y6830000I0J160000D01*
G01*
X12650000Y7680000D02*
G03*
X12500000Y7530000I0J-150000D01*
G01*
X7960000Y6510002D02*
G03*
X7706000Y6764002I-254000J0D01*
G01*
X7960000Y6470000D02*
G03*
X8040000Y6390000I80000J0D01*
G01*
X12496000D02*
G03*
X12750000Y6644000I0J254000D01*
G01*
X12850000Y7370000D02*
G03*
X12750000Y7270000I0J-100000D01*
G01*
X8190000Y5940000D02*
G03*
X8350000Y5780000I160000J0D01*
G01*
X13346001D02*
G03*
X13600000Y6034000I0J254000D01*
G01*
X13689999Y6780000D02*
G03*
X13600000Y6690000I0J-90000D01*
G01*
X4970000Y7200000D02*
G03*
X5070000Y7100000I100000J0D01*
G01*
X5748021Y6991979D02*
G03*
X5640000Y7100000I-108021J0D01*
G01*
X7470000Y3840000D02*
G03*
X7450000Y3860000I-20000J0D01*
G01*
X5820000Y4114000D02*
G03*
X6074000Y3860000I254000J0D01*
G01*
X5820000Y4950000D02*
G03*
X5590000Y5180000I-230000J0D01*
G01*
X4690000Y5330000D02*
G03*
X4840000Y5180000I150000J0D01*
G01*
X4690000Y6490000D02*
G03*
X4437200Y6742800I-252800J0D01*
G01*
X4108600Y6980000D02*
G03*
X4100000Y6971400I0J-8600D01*
G01*
X4750000Y6726000D02*
G03*
X4496000Y6980000I-254000J0D01*
G01*
X4750000Y5380000D02*
G03*
X4840000Y5290000I90000J0D01*
G01*
X6090000Y5040000D02*
G03*
X5840000Y5290000I-250000J0D01*
G01*
X6090000Y4150000D02*
G03*
X6210000Y4030000I120000J0D01*
G01*
X6110000Y9676863D02*
G03*
X6166862Y9620000I56862J0D01*
G01*
X5810000Y8920000D02*
G03*
X5920000Y9030000I0J110000D01*
G01*
X6710000Y9460000D02*
G03*
X6550000Y9620000I-160000J0D01*
G01*
X4230000Y8920000D02*
G03*
X4100000Y8790000I0J-130000D01*
G01*
X6761750Y7250000D02*
X10062023D01*
X6761749D02*
X6761750D01*
X6290000D02*
X6734292D01*
X6240521Y7139609D02*
Y7200521D01*
X6040000Y9775321D02*
Y9780000D01*
X6710000Y8950000D02*
Y9460000D01*
X4970000Y7200000D02*
Y8690000D01*
X5060000Y8780000D02*
X5920000D01*
X6010000Y9745321D02*
X6040000Y9775321D01*
X6010000Y8870000D02*
Y9745321D01*
X12153946Y7124606D02*
Y7166292D01*
Y7124606D02*
X12153946Y7124606D01*
X12169771Y7090000D02*
X12169999D01*
X12170000Y7090000D01*
X12153946Y7105825D02*
X12169771Y7090000D01*
X12190000Y7202346D02*
Y8496000D01*
X12153946Y7166292D02*
X12190000Y7202346D01*
Y6780000D02*
Y7047320D01*
X12153946Y7105825D02*
Y7124606D01*
X6920000Y8740000D02*
X11946000D01*
X7058021Y6764002D02*
X7706000D01*
X4276234Y7428600D02*
X4566000D01*
X4820000Y5710000D02*
Y7174600D01*
X5020000Y5510000D02*
X7576000D01*
X7830000Y5764000D02*
Y6070000D01*
X7934002Y6174002D02*
X8038021D01*
X7262023Y6870000D02*
X10950000D01*
X11150000Y6670000D02*
X12340000D01*
X12500000Y6830000D02*
Y7530000D01*
X12650000Y7680000D02*
X12900000D01*
X7960000Y6470000D02*
Y6510002D01*
X8040000Y6390000D02*
X12496000D01*
X12750000Y6644000D02*
Y7270000D01*
X12850000Y7370000D02*
X12900000D01*
X8190000Y5940000D02*
Y6022024D01*
X8350000Y5780000D02*
X13346001D01*
X13600000Y6034000D02*
Y6690000D01*
X13689999Y6780000D02*
X13880000D01*
X5070000Y7100000D02*
X5640000D01*
X5748021Y5684003D02*
Y6991979D01*
X4750000Y5380000D02*
Y6726000D01*
X4690000Y5330000D02*
Y6490000D01*
X6074000Y3860000D02*
X7450000D01*
X5820000Y4114000D02*
Y4950000D01*
X4840000Y5180000D02*
X5590000D01*
X4100000Y6742800D02*
X4437200D01*
X4108600Y6980000D02*
X4496000D01*
X4840000Y5290000D02*
X5840000D01*
X6090000Y4150000D02*
Y5040000D01*
X6210000Y4030000D02*
X6310000D01*
X6110000Y9676863D02*
Y9710000D01*
X6166862Y9620000D02*
X6550000D01*
X5920000Y9030000D02*
Y9660000D01*
X4230000Y8920000D02*
X5810000D01*
X4100000Y8343000D02*
Y8790000D01*
D11*
X7058021Y6764002D02*
G03*
X6980000Y6685982I0J-78021D01*
G01*
X6726000Y5750000D02*
G03*
X6980000Y6004000I0J254000D01*
G01*
X6300000Y5750000D02*
G03*
X6210000Y5660000I0J-90000D01*
G01*
X6170000Y5580000D02*
G03*
X6210000Y5620000I0J40000D01*
G01*
X4880000Y5740000D02*
G03*
X5040000Y5580000I160000J0D01*
G01*
X4880000Y7403200D02*
G03*
X4626000Y7657200I-254000J0D01*
G01*
X3715400Y7440000D02*
G03*
X3704000Y7428600I0J-11400D01*
G01*
X4000000Y7380000D02*
G03*
X3940000Y7440000I-60000J0D01*
G01*
X4000000Y7380000D02*
G03*
X4060000Y7320000I60000J0D01*
G01*
X4140000D02*
G03*
X4230000Y7410000I0J90000D01*
G01*
X4248600Y7428600D02*
G03*
X4230000Y7410000I0J-18600D01*
G01*
X6960000Y4220000D02*
G03*
X6880000Y4140000I0J-80000D01*
G01*
X8360000Y4090000D02*
G03*
X8230000Y4220000I-130000J0D01*
G01*
X8360000Y3170000D02*
G03*
X8460000Y3070000I100000J0D01*
G01*
X10746000D02*
G03*
X11000000Y3324000I0J254000D01*
G01*
X11030000Y4430000D02*
G03*
X11000000Y4400000I0J-30000D01*
G01*
X6980000Y6004000D02*
Y6685982D01*
X6300000Y5750000D02*
X6726000D01*
X6210000Y5620000D02*
Y5660000D01*
X5040000Y5580000D02*
X6170000D01*
X4880000Y5740000D02*
Y7403200D01*
X4100000Y7657200D02*
X4626000D01*
X3715400Y7440000D02*
X3940000D01*
X4060000Y7320000D02*
X4140000D01*
X4248600Y7428600D02*
X4276234D01*
X6960000Y4220000D02*
X8230000D01*
X8360000Y3170000D02*
Y4090000D01*
X8460000Y3070000D02*
X10746000D01*
X11000000Y3324000D02*
Y4400000D01*
X11030000Y4430000D02*
X11200000D01*
D12*
X6940000Y9800000D02*
G03*
X6910000Y9830000I-30000J0D01*
G01*
X6230000D02*
G03*
X6170000Y9770000I0J-60000D01*
G01*
X6230000Y9830000D02*
X6910000D01*
D83*
X3114600Y10891575D02*
X2962249D01*
X3038424Y10815400D01*
Y10916967D01*
D86*
X6182000Y11401000D02*
D03*
Y10893000D02*
D03*
X5928000Y11147000D02*
D03*
X6002395Y11326605D02*
D03*
X6361605D02*
D03*
X6002395Y10967395D02*
D03*
X6361605D02*
D03*
D87*
X6436000Y11147000D02*
D03*
D88*
X10091246Y10538397D02*
D03*
X9911246Y10407620D02*
D03*
X9688754D02*
D03*
X9508754Y10538397D02*
D03*
Y10961603D02*
D03*
X9688754Y11092380D02*
D03*
X10091246Y10961603D02*
D03*
X9911246Y11092380D02*
D03*
X9800000Y10900000D02*
D03*
Y10600000D02*
D03*
X9650000Y10750000D02*
D03*
X9440000D02*
D03*
X10160000D02*
D03*
X9950000D02*
D03*
X3704000Y8114400D02*
D03*
Y7885800D02*
D03*
Y7657200D02*
D03*
Y7428600D02*
D03*
Y7200000D02*
D03*
Y6971400D02*
D03*
Y6742800D02*
D03*
Y6514000D02*
D03*
X3902000Y8457300D02*
D03*
Y8228700D02*
D03*
Y8000100D02*
D03*
Y7771500D02*
D03*
Y7542900D02*
D03*
Y7314300D02*
D03*
Y7085700D02*
D03*
Y6857100D02*
D03*
Y6628500D02*
D03*
X4100000Y8343000D02*
D03*
Y8114400D02*
D03*
Y7885800D02*
D03*
Y7657200D02*
D03*
Y7428600D02*
D03*
Y7200000D02*
D03*
Y6971400D02*
D03*
Y6742800D02*
D03*
D89*
X5748021Y5684003D02*
D03*
Y7374003D02*
D03*
X8038021Y5614002D02*
D03*
X6348021D02*
D03*
X7135997Y7660000D02*
D03*
X5445997D02*
D03*
X5445998Y7960000D02*
D03*
X7135998D02*
D03*
X5445998Y8230001D02*
D03*
X7135998D02*
D03*
X5478021Y5684003D02*
D03*
Y7374003D02*
D03*
X8358021Y7094002D02*
D03*
Y5404002D02*
D03*
X6348021Y6174002D02*
D03*
X8038021D02*
D03*
Y5344002D02*
D03*
X6348021D02*
D03*
X8038021Y5884002D02*
D03*
X6348021D02*
D03*
X12190000Y6220000D02*
D03*
X13880000D02*
D03*
X12190000Y5950000D02*
D03*
X13880000D02*
D03*
X11320000Y6290000D02*
D03*
Y7980000D02*
D03*
X12190000Y6780000D02*
D03*
X13880000D02*
D03*
X14200000Y7700000D02*
D03*
Y6010000D02*
D03*
X11590000Y6290000D02*
D03*
Y7980000D02*
D03*
X10770000Y8890000D02*
D03*
Y7200000D02*
D03*
X11040000Y8890000D02*
D03*
Y7200000D02*
D03*
X10470000Y7200000D02*
D03*
Y8890000D02*
D03*
X13880000Y6490000D02*
D03*
X12190000D02*
D03*
D91*
X3704000Y8343000D02*
D03*
D92*
X3902000Y9145000D02*
D03*
Y5813000D02*
D03*
D93*
X16158000Y7911000D02*
D03*
Y7637000D02*
D03*
Y7363000D02*
D03*
Y7089000D02*
D03*
X16442000Y8048000D02*
D03*
Y7774000D02*
D03*
Y7500000D02*
D03*
Y7226000D02*
D03*
D94*
Y6952000D02*
D03*
D95*
X16300000Y8749500D02*
D03*
Y6250500D02*
D03*
D96*
X6978470Y10353194D02*
D03*
X5382000Y11947000D02*
D03*
D97*
X17100000Y12100000D02*
D03*
Y3100000D02*
D03*
X3100000D02*
D03*
Y12100000D02*
D03*
D98*
X11340000Y11510000D02*
D03*
X11440000D02*
D03*
X11540000D02*
D03*
X11640000D02*
D03*
X11440000D02*
D03*
X11540000D02*
D03*
X11640000D02*
D03*
X11340000Y11430000D02*
D03*
X11440000D02*
D03*
X11540000D02*
D03*
X11640000D02*
D03*
X11440000D02*
D03*
X11540000D02*
D03*
X11640000D02*
D03*
X11440000D02*
D03*
X11540000D02*
D03*
X11640000D02*
D03*
X8850000Y12060000D02*
D03*
X13200000Y9930000D02*
D03*
X14400008Y3900002D02*
D03*
X14450008Y3800002D02*
D03*
X14400008Y3700002D02*
D03*
X14450008Y3600002D02*
D03*
X14400008Y3500002D02*
D03*
X14450008Y3400002D02*
D03*
X14300008Y3900002D02*
D03*
X14350008Y3800002D02*
D03*
X14300008Y3700002D02*
D03*
X14350008Y3600002D02*
D03*
X14300008Y3500002D02*
D03*
X14350008Y3400002D02*
D03*
X14200008Y3900002D02*
D03*
X14250008Y3800002D02*
D03*
X14200008Y3700002D02*
D03*
X14250008Y3600002D02*
D03*
X14200008Y3500002D02*
D03*
X14250008Y3400002D02*
D03*
X14200008Y3300002D02*
D03*
Y3100002D02*
D03*
X14100008Y4300002D02*
D03*
X14150008Y4200002D02*
D03*
X14100008Y4100002D02*
D03*
X14150008Y4000002D02*
D03*
X14100008Y3900002D02*
D03*
X14150008Y3800002D02*
D03*
X14100008Y3700002D02*
D03*
X14150008Y3600002D02*
D03*
X14100008Y3500002D02*
D03*
X14150008Y3400002D02*
D03*
X14100008Y3300002D02*
D03*
X14150008Y3200002D02*
D03*
X14100008Y3100002D02*
D03*
X14050008Y4400002D02*
D03*
X14000008Y4300002D02*
D03*
X14050008Y4200002D02*
D03*
X14000008Y4100002D02*
D03*
X14050008Y4000002D02*
D03*
X14000008Y3900002D02*
D03*
X14050008Y3800002D02*
D03*
X14000008Y3700002D02*
D03*
X14050008Y3600002D02*
D03*
X14000008Y3500002D02*
D03*
X14050008Y3400002D02*
D03*
X14000008Y3300002D02*
D03*
X14050008Y3200002D02*
D03*
X14000008Y3100002D02*
D03*
X13950008Y4400002D02*
D03*
X13900008Y4300002D02*
D03*
X13950008Y4200002D02*
D03*
X13900008Y4100002D02*
D03*
X13950008Y4000002D02*
D03*
X13900008Y3900002D02*
D03*
X13950008Y3800002D02*
D03*
X13900008Y3700002D02*
D03*
X13950008Y3600002D02*
D03*
X13900008Y3500002D02*
D03*
X13950008Y3400002D02*
D03*
X13900008Y3300002D02*
D03*
X13950008Y3200002D02*
D03*
X13900008Y3100002D02*
D03*
X13850008Y4400002D02*
D03*
X13800008Y4300002D02*
D03*
X13850008Y4200002D02*
D03*
X13800008Y4100002D02*
D03*
X13850008Y4000002D02*
D03*
X13800008Y3900002D02*
D03*
X13850008Y3800002D02*
D03*
X13800008Y3700002D02*
D03*
X13850008Y3600002D02*
D03*
X13800008Y3500002D02*
D03*
X13850008Y3400002D02*
D03*
X13800008Y3300002D02*
D03*
X13850008Y3200002D02*
D03*
X13800008Y3100002D02*
D03*
X13750008Y4200002D02*
D03*
Y4000002D02*
D03*
Y3800002D02*
D03*
Y3600002D02*
D03*
Y3400002D02*
D03*
X13700008Y3300002D02*
D03*
X13750008Y3200002D02*
D03*
X13700008Y3100002D02*
D03*
X13600008Y3300002D02*
D03*
X13650008Y3200002D02*
D03*
X13600008Y3100002D02*
D03*
X13500008Y3300002D02*
D03*
X13550008Y3200002D02*
D03*
X13500008Y3100002D02*
D03*
X13400008Y3300002D02*
D03*
X13450008Y3200002D02*
D03*
X13400008Y3100002D02*
D03*
X4586600Y4261100D02*
D03*
Y4191100D02*
D03*
X4556600Y4131100D02*
D03*
X4486600D02*
D03*
X4426600D02*
D03*
X4366600D02*
D03*
X4306600D02*
D03*
X4246600D02*
D03*
X4186600D02*
D03*
X4126600D02*
D03*
X4076600Y4161100D02*
D03*
X4056600Y4221100D02*
D03*
Y4281100D02*
D03*
Y4341100D02*
D03*
Y4401100D02*
D03*
Y4461100D02*
D03*
Y4521100D02*
D03*
X4106600Y4561100D02*
D03*
X4156600Y4601100D02*
D03*
X4206600Y4641100D02*
D03*
X4236600Y4691100D02*
D03*
Y4751099D02*
D03*
Y4811100D02*
D03*
Y4871099D02*
D03*
Y4931100D02*
D03*
Y4991099D02*
D03*
Y5051100D02*
D03*
X4266600Y5101100D02*
D03*
X4316600Y5131099D02*
D03*
X4376600D02*
D03*
X4436600D02*
D03*
X4496600D02*
D03*
X4556600D02*
D03*
X4586600Y5091100D02*
D03*
Y5031100D02*
D03*
Y4971100D02*
D03*
Y4911100D02*
D03*
Y4851100D02*
D03*
Y4791100D02*
D03*
Y4731100D02*
D03*
Y4671100D02*
D03*
Y4611099D02*
D03*
Y4551100D02*
D03*
Y4491099D02*
D03*
Y4431100D02*
D03*
Y4371099D02*
D03*
Y4311100D02*
D03*
X12500000Y3290000D02*
D03*
X13330000Y7100000D02*
D03*
X12214261Y7124100D02*
D03*
X12080000Y7120000D02*
D03*
X8121000Y11181900D02*
D03*
X10604002Y6556979D02*
D03*
Y6746979D02*
D03*
X11900000Y7100000D02*
D03*
X3800000Y5440000D02*
D03*
X3960000D02*
D03*
X4480000D02*
D03*
X5000000D02*
D03*
X5080000D02*
D03*
X4400000D02*
D03*
X4560000D02*
D03*
X12500000Y3370000D02*
D03*
X12672544Y2753116D02*
D03*
X12547544D02*
D03*
X12340000Y3590000D02*
D03*
X12240000Y3640000D02*
D03*
X12500000Y4050000D02*
D03*
Y3970000D02*
D03*
Y4770000D02*
D03*
X12650000Y4210000D02*
D03*
Y4370000D02*
D03*
Y4290000D02*
D03*
Y4130000D02*
D03*
X12930000Y5090000D02*
D03*
X12850000D02*
D03*
X12500000Y5470000D02*
D03*
Y5390000D02*
D03*
X12290000Y5440000D02*
D03*
X9661214Y5531212D02*
D03*
X10450000Y5520000D02*
D03*
X10631214Y4351213D02*
D03*
Y4431212D02*
D03*
Y4511212D02*
D03*
Y4591212D02*
D03*
X10531214Y4351213D02*
D03*
Y4431212D02*
D03*
Y4511212D02*
D03*
Y4591212D02*
D03*
X13130000Y5550000D02*
D03*
X6310000Y4030000D02*
D03*
X6085200Y9040000D02*
D03*
X6940000Y9800000D02*
D03*
X6880000Y4140000D02*
D03*
X11200000Y4430000D02*
D03*
X11160000Y4150000D02*
D03*
X6632900Y4140000D02*
D03*
X7360000Y6490000D02*
D03*
X16139999Y3540000D02*
D03*
X16039999D02*
D03*
X16239999Y3460000D02*
D03*
X16139999D02*
D03*
X16039999D02*
D03*
X16239999Y3540000D02*
D03*
X15939999D02*
D03*
Y3460000D02*
D03*
X16239999Y3700000D02*
D03*
X16039999D02*
D03*
X16239999Y3620000D02*
D03*
X16139999D02*
D03*
Y3700000D02*
D03*
X15939999D02*
D03*
X16039999Y3620000D02*
D03*
X15939999D02*
D03*
X5898000Y5440000D02*
D03*
X2982000D02*
D03*
Y3610000D02*
D03*
X5898000D02*
D03*
X10080000Y9070000D02*
D03*
X7970000Y9000000D02*
D03*
X9358021Y9074002D02*
D03*
X7960000Y4400000D02*
D03*
X12590000Y7120000D02*
D03*
X10171214Y5081212D02*
D03*
X10251214D02*
D03*
X10011214D02*
D03*
X10831214Y4591212D02*
D03*
X10731214Y4511212D02*
D03*
Y4431212D02*
D03*
X10831214Y4351213D02*
D03*
X10731214D02*
D03*
X9971214Y4361212D02*
D03*
Y4121212D02*
D03*
Y4201212D02*
D03*
Y4281212D02*
D03*
X8571214Y2991212D02*
D03*
X8671214D02*
D03*
X8871214D02*
D03*
X9071214D02*
D03*
X8971214D02*
D03*
X8571214Y2911212D02*
D03*
X8671214D02*
D03*
X8871214D02*
D03*
X8771214D02*
D03*
X9071214D02*
D03*
X8971214D02*
D03*
X10571214Y3321212D02*
D03*
X9821214Y5461212D02*
D03*
Y5381212D02*
D03*
Y4761212D02*
D03*
Y4681212D02*
D03*
Y3961212D02*
D03*
Y4041212D02*
D03*
Y3281212D02*
D03*
Y3361212D02*
D03*
X8881214Y3491212D02*
D03*
Y3991212D02*
D03*
Y3891212D02*
D03*
Y3791212D02*
D03*
Y3591212D02*
D03*
Y3691212D02*
D03*
Y3391212D02*
D03*
Y3191212D02*
D03*
Y4091212D02*
D03*
Y4191212D02*
D03*
X8561214Y3541212D02*
D03*
Y3841213D02*
D03*
Y3741212D02*
D03*
Y3641212D02*
D03*
Y3441212D02*
D03*
Y3341212D02*
D03*
Y3241212D02*
D03*
Y3941213D02*
D03*
X8761214Y3841213D02*
D03*
Y3641212D02*
D03*
X8661214Y3891213D02*
D03*
Y3691213D02*
D03*
X8761214Y3541212D02*
D03*
X8661214Y3591213D02*
D03*
X8761214Y3741212D02*
D03*
X8661214Y3791213D02*
D03*
X8761214Y3441212D02*
D03*
X8661214Y3191212D02*
D03*
Y3391212D02*
D03*
X8761214Y3341212D02*
D03*
X8661214Y3491212D02*
D03*
X8761214Y3241212D02*
D03*
X8661214Y3291212D02*
D03*
X8761214Y3941213D02*
D03*
Y4041213D02*
D03*
X8661214Y3991213D02*
D03*
X8981214Y3631212D02*
D03*
Y3931213D02*
D03*
Y3431212D02*
D03*
Y3831213D02*
D03*
Y4031213D02*
D03*
Y3531212D02*
D03*
Y4131213D02*
D03*
Y3731213D02*
D03*
X9181214Y4131213D02*
D03*
Y4031213D02*
D03*
X9081214Y3781213D02*
D03*
Y3881213D02*
D03*
Y3981213D02*
D03*
Y4181213D02*
D03*
Y4081213D02*
D03*
Y3481212D02*
D03*
Y3581213D02*
D03*
Y3681213D02*
D03*
X9181214Y3231212D02*
D03*
Y3331212D02*
D03*
X9081214Y3381212D02*
D03*
Y3181212D02*
D03*
Y3281212D02*
D03*
X8981214Y3331212D02*
D03*
Y3231212D02*
D03*
X9181214Y3731213D02*
D03*
Y3431212D02*
D03*
Y3831213D02*
D03*
Y3631212D02*
D03*
Y3931213D02*
D03*
Y3531212D02*
D03*
X9661214Y3781212D02*
D03*
Y4081212D02*
D03*
Y3981212D02*
D03*
Y3881212D02*
D03*
Y3681212D02*
D03*
Y3381212D02*
D03*
Y3581212D02*
D03*
Y3481212D02*
D03*
X9461214Y3381212D02*
D03*
X9361214Y3731212D02*
D03*
X9561214Y3531212D02*
D03*
Y3431212D02*
D03*
X9461214Y3681212D02*
D03*
X9361214Y3631212D02*
D03*
Y3531212D02*
D03*
Y3431212D02*
D03*
X9561214Y3731212D02*
D03*
Y3631212D02*
D03*
X9461214Y3481212D02*
D03*
Y3581212D02*
D03*
X9361214Y4031212D02*
D03*
X9561214D02*
D03*
X9461214Y3981212D02*
D03*
Y3781212D02*
D03*
Y4081212D02*
D03*
X9361214Y3931212D02*
D03*
X9561214D02*
D03*
X9361214Y3831212D02*
D03*
X9461214Y3881212D02*
D03*
X9561214Y3831212D02*
D03*
X9461214Y5531212D02*
D03*
X9561214D02*
D03*
X8961214D02*
D03*
X9061214D02*
D03*
X9261214D02*
D03*
X9361214D02*
D03*
X9161214D02*
D03*
X8861214D02*
D03*
X8661214D02*
D03*
X8761214D02*
D03*
X9611214Y5431212D02*
D03*
X8811214D02*
D03*
X9311214D02*
D03*
X9511214D02*
D03*
X8711214D02*
D03*
X9211214D02*
D03*
X9011214D02*
D03*
X9111214D02*
D03*
X8911214D02*
D03*
X9411214D02*
D03*
X9611214Y5061212D02*
D03*
X8811214D02*
D03*
X8911214D02*
D03*
X8711214D02*
D03*
X9011214D02*
D03*
X9611214Y4861212D02*
D03*
X9661214Y4961212D02*
D03*
X9011214Y4861212D02*
D03*
X8761214Y4961212D02*
D03*
X8911214Y4861212D02*
D03*
X8711214D02*
D03*
X8661214Y4961212D02*
D03*
X8861214D02*
D03*
X8961214D02*
D03*
X8811214Y4861212D02*
D03*
X9061214Y4961212D02*
D03*
X9311214Y4861212D02*
D03*
X9261214Y4961212D02*
D03*
X9161214D02*
D03*
X9211214Y4861212D02*
D03*
X9111214D02*
D03*
Y5061212D02*
D03*
X9211214D02*
D03*
X9311214D02*
D03*
X9561214Y4961212D02*
D03*
X9511214Y5061212D02*
D03*
Y4861212D02*
D03*
X9461214Y4961212D02*
D03*
X9361214D02*
D03*
X9411214Y5061212D02*
D03*
Y4861212D02*
D03*
X9611214Y4571212D02*
D03*
X9661214Y4671212D02*
D03*
X9611214Y4771212D02*
D03*
X9011214Y4571212D02*
D03*
X8661214Y4671212D02*
D03*
X8711214Y4571212D02*
D03*
X8811214D02*
D03*
X8761214Y4671212D02*
D03*
X8861214D02*
D03*
X8911214Y4571212D02*
D03*
X8961214Y4671212D02*
D03*
X9061214D02*
D03*
X8711214Y4771212D02*
D03*
X8911214D02*
D03*
X9011214D02*
D03*
X8811214D02*
D03*
X9311214D02*
D03*
Y4571212D02*
D03*
X9161214Y4671212D02*
D03*
X9111214Y4771212D02*
D03*
X9261214Y4671212D02*
D03*
X9211214Y4571212D02*
D03*
X9111214D02*
D03*
X9211214Y4771212D02*
D03*
X9411214Y4571212D02*
D03*
X9511214Y4771212D02*
D03*
Y4571212D02*
D03*
X9461214Y4671212D02*
D03*
X9561214D02*
D03*
X9361214D02*
D03*
X9411214Y4771212D02*
D03*
X9011214Y5351212D02*
D03*
X9061214Y5251212D02*
D03*
X8811214Y5351212D02*
D03*
X8911214D02*
D03*
X8961214Y5251212D02*
D03*
X8711214Y5351212D02*
D03*
X8761214Y5251212D02*
D03*
X8861214D02*
D03*
X8661214D02*
D03*
X9611214Y5351212D02*
D03*
X9661214Y5251212D02*
D03*
X9611214Y5151212D02*
D03*
X8911214D02*
D03*
X9011214D02*
D03*
X8811214D02*
D03*
X8711214D02*
D03*
X9111214Y5351212D02*
D03*
X9261214Y5251212D02*
D03*
X9111214Y5151212D02*
D03*
X9161214Y5251212D02*
D03*
X9211214Y5351212D02*
D03*
Y5151212D02*
D03*
X9411214Y5351212D02*
D03*
X9311214Y5151212D02*
D03*
X9561214Y5251212D02*
D03*
X9511214Y5151212D02*
D03*
X9411214D02*
D03*
X9461214Y5251212D02*
D03*
X9511214Y5351212D02*
D03*
X9361214Y5251212D02*
D03*
X9311214Y5351212D02*
D03*
X10091214Y5081212D02*
D03*
X8881214Y3291212D02*
D03*
X10471214Y3801212D02*
D03*
X10604002Y6081979D02*
D03*
X6498021Y7444002D02*
D03*
X6240521Y7139609D02*
D03*
X6113521D02*
D03*
X6748021Y7304002D02*
D03*
X7058021Y7374003D02*
D03*
X6598021Y7444002D02*
D03*
X7058021Y7074002D02*
D03*
X7738021Y7394002D02*
D03*
X7868021Y6974003D02*
D03*
X7628021Y6384002D02*
D03*
X7838021Y7394002D02*
D03*
X7738021Y6384002D02*
D03*
X6113521Y6666396D02*
D03*
X7058021Y6464003D02*
D03*
X6748021Y6514002D02*
D03*
X6498021D02*
D03*
X6368021D02*
D03*
X6058021Y6494003D02*
D03*
X7058021Y6764002D02*
D03*
X6238021Y6514002D02*
D03*
X13580000Y6990000D02*
D03*
X13470000D02*
D03*
X8070000Y10090000D02*
D03*
X5632500Y9737500D02*
D03*
X6170000Y9170000D02*
D03*
X5630000Y8990000D02*
D03*
X5297500Y8994879D02*
D03*
X6560000Y9020000D02*
D03*
X6040000Y9780000D02*
D03*
X13460001Y10660000D02*
D03*
Y10740000D02*
D03*
X13660001D02*
D03*
X13560001D02*
D03*
Y10660000D02*
D03*
X13660001D02*
D03*
X13760001D02*
D03*
Y10740000D02*
D03*
X13210001Y7410000D02*
D03*
Y4440000D02*
D03*
Y4520000D02*
D03*
X13310001Y4440000D02*
D03*
Y4360000D02*
D03*
Y4520000D02*
D03*
X13250000Y3330000D02*
D03*
X7850000Y3800000D02*
D03*
X10731214Y4591212D02*
D03*
X10831214Y4511212D02*
D03*
Y4431212D02*
D03*
X13410001Y4440000D02*
D03*
X13510001Y4360000D02*
D03*
X13410001D02*
D03*
X13510001Y4440000D02*
D03*
X13210001Y4360000D02*
D03*
X13510001Y4600000D02*
D03*
X13310001D02*
D03*
X13510001Y4520000D02*
D03*
X13410001D02*
D03*
Y4600000D02*
D03*
X13210001D02*
D03*
X14870000Y6280000D02*
D03*
X14770000D02*
D03*
X14970000Y6200000D02*
D03*
X14870000D02*
D03*
X14770000D02*
D03*
X14970000Y6280000D02*
D03*
X14670000D02*
D03*
Y6200000D02*
D03*
X14970000Y6440000D02*
D03*
X14770000D02*
D03*
X14970000Y6360000D02*
D03*
X14870000D02*
D03*
Y6440000D02*
D03*
X14670000D02*
D03*
X14770000Y6360000D02*
D03*
X14670000D02*
D03*
X15600000Y8960000D02*
D03*
X15500000D02*
D03*
X15700000Y8880000D02*
D03*
X15600000D02*
D03*
X15500000D02*
D03*
X15700000Y8960000D02*
D03*
X15400000D02*
D03*
Y8880000D02*
D03*
X15700000Y9120000D02*
D03*
X15500000D02*
D03*
X15700000Y9040000D02*
D03*
X15600000D02*
D03*
Y9120000D02*
D03*
X15400000D02*
D03*
X15500000Y9040000D02*
D03*
X15400000D02*
D03*
X12920000Y5710000D02*
D03*
X10250000Y5720000D02*
D03*
X14839999Y9820000D02*
D03*
X12900000Y7680000D02*
D03*
Y7980000D02*
D03*
Y7070000D02*
D03*
Y7370000D02*
D03*
X13710001Y7580000D02*
D03*
X13680000Y8000000D02*
D03*
X13580000D02*
D03*
X12082501Y7745607D02*
D03*
X11955501Y7272393D02*
D03*
X14480000Y12120000D02*
D03*
Y12200000D02*
D03*
X14780000D02*
D03*
X14680000Y12120000D02*
D03*
X14580000D02*
D03*
X14780000D02*
D03*
X14580000Y12200000D02*
D03*
X14680000D02*
D03*
X15550000Y11890000D02*
D03*
X15250000D02*
D03*
X15550000Y11810000D02*
D03*
X15450000D02*
D03*
X15350000D02*
D03*
X15450000Y11890000D02*
D03*
X15350000D02*
D03*
X15250000Y11810000D02*
D03*
X12380000Y12000000D02*
D03*
Y12100000D02*
D03*
X12300000Y12000000D02*
D03*
Y12100000D02*
D03*
Y12200000D02*
D03*
X12380000D02*
D03*
Y12300000D02*
D03*
X12300000D02*
D03*
X12080000Y11990000D02*
D03*
X12000000D02*
D03*
Y12090000D02*
D03*
Y12190000D02*
D03*
X12080000D02*
D03*
Y12090000D02*
D03*
Y12290000D02*
D03*
X12000000D02*
D03*
X10310000Y12210000D02*
D03*
Y12290000D02*
D03*
X10410000D02*
D03*
X10510000Y12210000D02*
D03*
X10610000D02*
D03*
X10410000D02*
D03*
X10510000Y12290000D02*
D03*
X10610000D02*
D03*
X10990000Y10450000D02*
D03*
Y10350000D02*
D03*
Y10250000D02*
D03*
Y10150000D02*
D03*
X11070000Y10450000D02*
D03*
Y10350000D02*
D03*
Y10250000D02*
D03*
Y10150000D02*
D03*
X10990000Y10350000D02*
D03*
Y10250000D02*
D03*
Y10150000D02*
D03*
Y10350000D02*
D03*
Y10250000D02*
D03*
Y10150000D02*
D03*
X11070000Y10350000D02*
D03*
Y10250000D02*
D03*
Y10150000D02*
D03*
X11180000Y10450000D02*
D03*
Y10350000D02*
D03*
Y10250000D02*
D03*
Y10150000D02*
D03*
X11260000Y10450000D02*
D03*
Y10350000D02*
D03*
Y10250000D02*
D03*
Y10150000D02*
D03*
X11180000Y10350000D02*
D03*
Y10250000D02*
D03*
Y10150000D02*
D03*
Y10350000D02*
D03*
Y10250000D02*
D03*
Y10150000D02*
D03*
X11260000Y10350000D02*
D03*
Y10250000D02*
D03*
Y10150000D02*
D03*
X13900000Y10230000D02*
D03*
X13800000D02*
D03*
X13900000Y10150000D02*
D03*
X13700000D02*
D03*
X13600000D02*
D03*
X13700000Y10230000D02*
D03*
X13600000D02*
D03*
X13800000Y10150000D02*
D03*
X13520000Y10230000D02*
D03*
X13420000D02*
D03*
X13520000Y10150000D02*
D03*
X13420000D02*
D03*
X13320000D02*
D03*
X13220000D02*
D03*
X13320000Y10230000D02*
D03*
X13220000D02*
D03*
X12700000Y10330000D02*
D03*
X12600000D02*
D03*
X12500000D02*
D03*
X12400000D02*
D03*
X12700000Y10250000D02*
D03*
X12600000D02*
D03*
X12400000D02*
D03*
X12500000D02*
D03*
X13220000Y11590000D02*
D03*
X13120000D02*
D03*
X13020000D02*
D03*
X12920000D02*
D03*
X13220000Y11510000D02*
D03*
X13120000D02*
D03*
X13020000D02*
D03*
X12920000D02*
D03*
X13120000Y11590000D02*
D03*
X13020000D02*
D03*
X12920000D02*
D03*
X13120000D02*
D03*
X13020000D02*
D03*
X12920000D02*
D03*
X13120000Y11510000D02*
D03*
X13020000D02*
D03*
X12920000D02*
D03*
X13370000Y12160000D02*
D03*
X13470000D02*
D03*
X13370000Y12240000D02*
D03*
X13570000D02*
D03*
Y12160000D02*
D03*
X13670000D02*
D03*
X13470000Y12240000D02*
D03*
X13670000D02*
D03*
X13370000Y12000000D02*
D03*
Y12080000D02*
D03*
X13670000D02*
D03*
X13470000Y12000000D02*
D03*
X13570000D02*
D03*
X13670000D02*
D03*
X13470000Y12080000D02*
D03*
X13570000D02*
D03*
X13470000Y11060000D02*
D03*
X13670000D02*
D03*
X13770000D02*
D03*
X13470000Y11140000D02*
D03*
X13570000D02*
D03*
X13670000D02*
D03*
X13770000D02*
D03*
X13570000Y11060000D02*
D03*
X13470000Y11220000D02*
D03*
X13770000D02*
D03*
X13470000Y11300000D02*
D03*
X13570000D02*
D03*
X13670000D02*
D03*
X13770000D02*
D03*
X13570000Y11220000D02*
D03*
X13670000D02*
D03*
X13070000D02*
D03*
Y11300000D02*
D03*
X13170000D02*
D03*
X13270000D02*
D03*
X13370000D02*
D03*
X13170000Y11220000D02*
D03*
X13270000D02*
D03*
X13370000D02*
D03*
X13180000Y10760000D02*
D03*
Y10660000D02*
D03*
Y10560000D02*
D03*
Y10460000D02*
D03*
X13260001Y10760000D02*
D03*
Y10660000D02*
D03*
Y10560000D02*
D03*
Y10460000D02*
D03*
X13180000Y10660000D02*
D03*
Y10560000D02*
D03*
Y10460000D02*
D03*
Y10660000D02*
D03*
Y10560000D02*
D03*
Y10460000D02*
D03*
X13260001Y10660000D02*
D03*
Y10560000D02*
D03*
Y10460000D02*
D03*
X13470000Y11880000D02*
D03*
Y11680000D02*
D03*
X13550000Y11880000D02*
D03*
Y11580000D02*
D03*
X13470000D02*
D03*
Y11780000D02*
D03*
X13550000D02*
D03*
Y11680000D02*
D03*
X15870000Y10020000D02*
D03*
X15670000D02*
D03*
X15870000Y9940000D02*
D03*
X15670000D02*
D03*
X15570000Y10020000D02*
D03*
X15770000D02*
D03*
Y9940000D02*
D03*
X15570000D02*
D03*
X16670000Y9770000D02*
D03*
X16370000D02*
D03*
X16670000Y9690000D02*
D03*
X16570000D02*
D03*
X16370000D02*
D03*
X16570000Y9770000D02*
D03*
X16470000D02*
D03*
Y9690000D02*
D03*
X16670000Y10010000D02*
D03*
X16470000D02*
D03*
X16370000D02*
D03*
X16670000Y9930000D02*
D03*
X16570000D02*
D03*
X16370000D02*
D03*
X16570000Y10010000D02*
D03*
X16470000Y9930000D02*
D03*
X16669000Y10288000D02*
D03*
X16469000D02*
D03*
X16369000D02*
D03*
X16670000Y10212000D02*
D03*
X16569000Y10288000D02*
D03*
X16570000Y10212000D02*
D03*
X16470000D02*
D03*
X16370000D02*
D03*
X15030000Y9820000D02*
D03*
X14370000Y9830000D02*
D03*
X13480000D02*
D03*
X12760000D02*
D03*
X12340000Y8050000D02*
D03*
X12440000D02*
D03*
X12590000Y7910000D02*
D03*
X12340000Y7120000D02*
D03*
X11955501Y7745607D02*
D03*
X12290000Y5160000D02*
D03*
X12340000Y5260000D02*
D03*
X12290000Y5360000D02*
D03*
X12240000Y5260000D02*
D03*
X12190000Y5360000D02*
D03*
X12140000Y5260000D02*
D03*
X12190000Y5160000D02*
D03*
X12090000Y5360000D02*
D03*
X12040000Y5260000D02*
D03*
X12090000Y5160000D02*
D03*
X11990000D02*
D03*
X11440000Y5540000D02*
D03*
X11640000D02*
D03*
X11490000Y5440000D02*
D03*
X11540000Y5540000D02*
D03*
X11590000Y5440000D02*
D03*
X11690000D02*
D03*
X11740000Y5540000D02*
D03*
X11940000D02*
D03*
X11790000Y5440000D02*
D03*
X11840000Y5540000D02*
D03*
X11890000Y5440000D02*
D03*
X12340000Y5540000D02*
D03*
X12040000D02*
D03*
X12240000D02*
D03*
X12090000Y5440000D02*
D03*
X12140000Y5540000D02*
D03*
X12190000Y5440000D02*
D03*
X11990000D02*
D03*
X12240000Y4680000D02*
D03*
X12290000Y4780000D02*
D03*
Y4580000D02*
D03*
X12190000Y4780000D02*
D03*
X12140000Y4680000D02*
D03*
X12190000Y4580000D02*
D03*
X12090000Y4780000D02*
D03*
X12040000Y4680000D02*
D03*
X12090000Y4580000D02*
D03*
X11990000Y4780000D02*
D03*
Y4580000D02*
D03*
X12500000Y4690000D02*
D03*
X12340000Y4680000D02*
D03*
X11890000Y4780000D02*
D03*
X11790000Y4580000D02*
D03*
X11840000Y4680000D02*
D03*
X11890000Y4580000D02*
D03*
X11790000Y4780000D02*
D03*
X11740000Y4680000D02*
D03*
X11690000Y4780000D02*
D03*
X11640000Y4680000D02*
D03*
X11690000Y4580000D02*
D03*
X11340000Y4680000D02*
D03*
X11540000D02*
D03*
X11590000Y4580000D02*
D03*
X11440000Y4680000D02*
D03*
X11490000Y4580000D02*
D03*
X11390000Y4780000D02*
D03*
Y4580000D02*
D03*
X11490000Y4780000D02*
D03*
X11590000D02*
D03*
X11560000Y4200000D02*
D03*
X11990000Y5070000D02*
D03*
X11940000Y4970000D02*
D03*
X11990000Y4870000D02*
D03*
X11890000D02*
D03*
X11940000Y4680000D02*
D03*
X11890000Y5070000D02*
D03*
X11490000D02*
D03*
X11790000D02*
D03*
X11690000D02*
D03*
X11590000D02*
D03*
X11390000D02*
D03*
X11340000Y4970000D02*
D03*
X11840000D02*
D03*
X11740000D02*
D03*
X11790000Y4870000D02*
D03*
X11640000Y4970000D02*
D03*
X11690000Y4870000D02*
D03*
X11540000Y4970000D02*
D03*
X11590000Y4870000D02*
D03*
X11440000Y4970000D02*
D03*
X11490000Y4870000D02*
D03*
X11390000D02*
D03*
X12290000D02*
D03*
X12690000Y5090000D02*
D03*
X12770000D02*
D03*
X12340000Y4970000D02*
D03*
X12290000Y5070000D02*
D03*
X12240000Y4970000D02*
D03*
X12190000Y5070000D02*
D03*
X12140000Y4970000D02*
D03*
X12190000Y4870000D02*
D03*
X12090000Y5070000D02*
D03*
X12040000Y4970000D02*
D03*
X12090000Y4870000D02*
D03*
X11990000Y5360000D02*
D03*
X11790000D02*
D03*
X11940000Y5260000D02*
D03*
X11890000Y5360000D02*
D03*
X11840000Y5260000D02*
D03*
X11890000Y5160000D02*
D03*
X11740000Y5260000D02*
D03*
X11790000Y5160000D02*
D03*
X11690000Y5360000D02*
D03*
Y5160000D02*
D03*
X11440000Y5260000D02*
D03*
X11640000D02*
D03*
X11590000Y5360000D02*
D03*
X11540000Y5260000D02*
D03*
X11590000Y5160000D02*
D03*
X11490000Y5360000D02*
D03*
Y5160000D02*
D03*
X11390000Y5360000D02*
D03*
X11340000Y5260000D02*
D03*
X11390000Y5160000D02*
D03*
Y5440000D02*
D03*
X11340000Y5540000D02*
D03*
X12340000Y4090000D02*
D03*
X12140000D02*
D03*
X11240000Y3750000D02*
D03*
Y3950000D02*
D03*
Y3850000D02*
D03*
Y3650000D02*
D03*
Y3550000D02*
D03*
Y3450000D02*
D03*
X11250000Y2920000D02*
D03*
X11350000Y3000000D02*
D03*
X11250000D02*
D03*
X11240000Y3250000D02*
D03*
X11350000Y2920000D02*
D03*
X11240000Y3350000D02*
D03*
X11860000Y3240000D02*
D03*
X11760000Y3190000D02*
D03*
X11660000Y3240000D02*
D03*
X11760000Y3290000D02*
D03*
X11660000Y3340000D02*
D03*
X11760000Y3390000D02*
D03*
X11660000Y3440000D02*
D03*
X11760000Y3490000D02*
D03*
X11660000Y3540000D02*
D03*
X11760000Y3590000D02*
D03*
X11660000Y3640000D02*
D03*
X11760000Y3690000D02*
D03*
X11860000Y3740000D02*
D03*
Y3340000D02*
D03*
Y3440000D02*
D03*
Y3540000D02*
D03*
Y3640000D02*
D03*
Y3840000D02*
D03*
Y3940000D02*
D03*
Y4040000D02*
D03*
Y4140000D02*
D03*
X11660000Y3940000D02*
D03*
Y3740000D02*
D03*
X11760000Y3790000D02*
D03*
X11660000Y3840000D02*
D03*
X11760000Y3890000D02*
D03*
Y3990000D02*
D03*
X11660000Y4040000D02*
D03*
X11760000Y4090000D02*
D03*
X11660000Y4140000D02*
D03*
X11760000Y4190001D02*
D03*
X11560000Y3500000D02*
D03*
Y3400000D02*
D03*
Y3199999D02*
D03*
Y3299999D02*
D03*
Y4100000D02*
D03*
Y4000000D02*
D03*
Y3900000D02*
D03*
Y3800000D02*
D03*
Y3700000D02*
D03*
Y3600000D02*
D03*
X11440000Y4050000D02*
D03*
Y3550000D02*
D03*
Y3650000D02*
D03*
Y3750000D02*
D03*
Y3850000D02*
D03*
Y3950000D02*
D03*
Y3450000D02*
D03*
Y3350000D02*
D03*
Y3250000D02*
D03*
X11340000Y3200000D02*
D03*
Y3400000D02*
D03*
Y3500000D02*
D03*
Y3600000D02*
D03*
Y3700000D02*
D03*
Y3800000D02*
D03*
Y3900000D02*
D03*
Y4000000D02*
D03*
Y3300000D02*
D03*
X13150000Y3810000D02*
D03*
X12340000Y3690000D02*
D03*
Y3990000D02*
D03*
Y3890000D02*
D03*
Y3790000D02*
D03*
X12040000Y4040000D02*
D03*
X12140000Y3990000D02*
D03*
X12240000Y4040000D02*
D03*
X12040000Y3940000D02*
D03*
X12140000Y3890000D02*
D03*
X12240000Y3940000D02*
D03*
X12040000Y3840000D02*
D03*
X12140000Y3790000D02*
D03*
X12240000Y3840000D02*
D03*
X12040000Y3740000D02*
D03*
X12140000Y3690000D02*
D03*
X12240000Y3740000D02*
D03*
X12040000Y3640000D02*
D03*
X12340000Y3390000D02*
D03*
Y3490000D02*
D03*
X12140000Y3590000D02*
D03*
Y3490000D02*
D03*
X12240000Y3540000D02*
D03*
X12140000Y3390000D02*
D03*
X12240000Y3439999D02*
D03*
X12040000D02*
D03*
Y3540000D02*
D03*
X11450000Y3000000D02*
D03*
X11550000D02*
D03*
X11650000D02*
D03*
X11750000D02*
D03*
X11850000D02*
D03*
X11450000Y2920000D02*
D03*
X11550000D02*
D03*
X11650000D02*
D03*
X11750000D02*
D03*
X11850000D02*
D03*
X15800000Y12230000D02*
D03*
Y12130000D02*
D03*
Y12030000D02*
D03*
X15880000Y12230000D02*
D03*
Y12130000D02*
D03*
Y12030000D02*
D03*
Y12230000D02*
D03*
Y12130000D02*
D03*
Y12030000D02*
D03*
X15800000Y12230000D02*
D03*
Y12130000D02*
D03*
Y12030000D02*
D03*
Y11930000D02*
D03*
X15880000Y12230000D02*
D03*
Y12130000D02*
D03*
Y12030000D02*
D03*
Y11930000D02*
D03*
X8771214Y2991212D02*
D03*
X9171214Y2911212D02*
D03*
Y2991212D02*
D03*
X7720000Y11270000D02*
D03*
X7800000D02*
D03*
X6300000Y9900000D02*
D03*
X5780000Y9620000D02*
D03*
X6400000Y9770000D02*
D03*
X3800000Y3610000D02*
D03*
X3719999D02*
D03*
X3959999D02*
D03*
X3879999D02*
D03*
X4400000D02*
D03*
X4319999D02*
D03*
X4560000D02*
D03*
X4479999D02*
D03*
X5000000D02*
D03*
X4920000D02*
D03*
X5160000D02*
D03*
X5079999D02*
D03*
X5898000Y4565000D02*
D03*
Y4645000D02*
D03*
Y4405000D02*
D03*
Y4485000D02*
D03*
X5160000Y5440000D02*
D03*
X4920000D02*
D03*
X4320000D02*
D03*
X3880000D02*
D03*
X3720000D02*
D03*
X2982000Y4485000D02*
D03*
Y4405000D02*
D03*
Y4645000D02*
D03*
Y4565000D02*
D03*
X3542500Y4340000D02*
D03*
X3622500D02*
D03*
X3582500Y4380000D02*
D03*
Y4300000D02*
D03*
X5040000Y3980000D02*
D03*
Y4100000D02*
D03*
X4463000Y3875000D02*
D03*
Y3795000D02*
D03*
X5490000Y4340000D02*
D03*
X5510000Y3840000D02*
D03*
X6410000Y4380000D02*
D03*
Y4300000D02*
D03*
X7050000Y4140000D02*
D03*
X6810000Y3580000D02*
D03*
X8080000Y3240000D02*
D03*
X8040000Y3040000D02*
D03*
X7550000Y4290000D02*
D03*
X7470000D02*
D03*
X7460000Y3690000D02*
D03*
X7540000D02*
D03*
X6690000Y3160000D02*
D03*
X6530000D02*
D03*
X13510001Y10570000D02*
D03*
X6170000Y9770000D02*
D03*
X5430000Y9620000D02*
D03*
X5300000Y9780000D02*
D03*
X7030000Y9750000D02*
D03*
X8121000Y11101900D02*
D03*
X5230000Y9060000D02*
D03*
X17032022Y12446883D02*
D03*
X16907022D02*
D03*
X16782022D02*
D03*
X16657022D02*
D03*
X16532022D02*
D03*
X16407022D02*
D03*
X16282022D02*
D03*
X16157022D02*
D03*
X16032022D02*
D03*
X15907022D02*
D03*
X15782022D02*
D03*
X15657022D02*
D03*
X15532022D02*
D03*
X15407022D02*
D03*
X15282022D02*
D03*
X15157022D02*
D03*
X15032022D02*
D03*
X14907022D02*
D03*
X14782022D02*
D03*
X14657022D02*
D03*
X14532022D02*
D03*
X14407022D02*
D03*
X14282022D02*
D03*
X14157022D02*
D03*
X14032022D02*
D03*
X13907022D02*
D03*
X13782022D02*
D03*
X13657022D02*
D03*
X13532022D02*
D03*
X13407022D02*
D03*
X13282022D02*
D03*
X13157022D02*
D03*
X13032022D02*
D03*
X12907022D02*
D03*
X12782022D02*
D03*
X12657022D02*
D03*
X12532022D02*
D03*
X12407022D02*
D03*
X12282022D02*
D03*
X12157022D02*
D03*
X12032022D02*
D03*
X11907022D02*
D03*
X11782022D02*
D03*
X11657022D02*
D03*
X11532022D02*
D03*
X11407022D02*
D03*
X11282022D02*
D03*
X11157022D02*
D03*
X11032022D02*
D03*
X10907022D02*
D03*
X10782022D02*
D03*
X10657022D02*
D03*
X10532022D02*
D03*
X10407022D02*
D03*
X10282022D02*
D03*
X10157022D02*
D03*
X10032022D02*
D03*
X9907022D02*
D03*
X9782022D02*
D03*
X9657022D02*
D03*
X9532022D02*
D03*
X9407022D02*
D03*
X9282022D02*
D03*
X9157022D02*
D03*
X9032022D02*
D03*
X8907022D02*
D03*
X8782022D02*
D03*
X8657022D02*
D03*
X8532022D02*
D03*
X8407022D02*
D03*
X8282022D02*
D03*
X8157022D02*
D03*
X8032022D02*
D03*
X7907022D02*
D03*
X7782022D02*
D03*
X7657022D02*
D03*
X7532022D02*
D03*
X7407022D02*
D03*
X7282022D02*
D03*
X7157022D02*
D03*
X7032021D02*
D03*
X6907021D02*
D03*
X6782021D02*
D03*
X6657021D02*
D03*
X6532021D02*
D03*
X6407021D02*
D03*
X6282021D02*
D03*
X6157021D02*
D03*
X6032021D02*
D03*
X5907021D02*
D03*
X5782021D02*
D03*
X5657021D02*
D03*
X5532021D02*
D03*
X5407021D02*
D03*
X5282021D02*
D03*
X5157021D02*
D03*
X5032021D02*
D03*
X4907021D02*
D03*
X4782021D02*
D03*
X4657021D02*
D03*
X4532021D02*
D03*
X4407021D02*
D03*
X4282021D02*
D03*
X4157021D02*
D03*
X4032021D02*
D03*
X3907021D02*
D03*
X3782021D02*
D03*
X3657021D02*
D03*
X3532021D02*
D03*
X3407021D02*
D03*
X3282021D02*
D03*
X3157021D02*
D03*
X3032035Y12445035D02*
D03*
X2911881Y12410566D02*
D03*
X2816573Y12329688D02*
D03*
X2762667Y12216909D02*
D03*
X2753117Y12092274D02*
D03*
Y11967274D02*
D03*
Y11842274D02*
D03*
Y11717274D02*
D03*
Y11592274D02*
D03*
Y11467274D02*
D03*
Y11342274D02*
D03*
Y11217274D02*
D03*
Y11092274D02*
D03*
Y10967274D02*
D03*
Y10842274D02*
D03*
Y10717274D02*
D03*
Y10592274D02*
D03*
Y10467274D02*
D03*
Y10342274D02*
D03*
Y10217274D02*
D03*
Y10092274D02*
D03*
Y9967274D02*
D03*
Y9842274D02*
D03*
Y9717274D02*
D03*
Y9592274D02*
D03*
Y9467274D02*
D03*
Y9342274D02*
D03*
Y9217274D02*
D03*
Y9092274D02*
D03*
Y8967274D02*
D03*
Y8842274D02*
D03*
Y8717274D02*
D03*
Y8592274D02*
D03*
Y8467274D02*
D03*
Y8342274D02*
D03*
Y8217274D02*
D03*
Y8092274D02*
D03*
Y7967274D02*
D03*
Y7842274D02*
D03*
Y7717274D02*
D03*
Y7592274D02*
D03*
Y7467274D02*
D03*
Y7342274D02*
D03*
Y7217274D02*
D03*
Y7092274D02*
D03*
Y6967274D02*
D03*
Y6842274D02*
D03*
Y6717274D02*
D03*
Y6592274D02*
D03*
Y6467274D02*
D03*
Y6342274D02*
D03*
Y6217274D02*
D03*
Y6092274D02*
D03*
Y5967274D02*
D03*
Y5842274D02*
D03*
Y5717274D02*
D03*
Y5592274D02*
D03*
Y5467274D02*
D03*
Y5342274D02*
D03*
Y5217274D02*
D03*
Y5092274D02*
D03*
Y4967274D02*
D03*
Y4842274D02*
D03*
Y4717274D02*
D03*
Y4592274D02*
D03*
Y4467274D02*
D03*
Y4342274D02*
D03*
Y4217274D02*
D03*
Y4092274D02*
D03*
Y3967274D02*
D03*
Y3842274D02*
D03*
Y3717274D02*
D03*
Y3592274D02*
D03*
Y3467274D02*
D03*
Y3342274D02*
D03*
Y3217274D02*
D03*
Y3092274D02*
D03*
X2766297Y2967971D02*
D03*
X2826653Y2858508D02*
D03*
X2925903Y2782517D02*
D03*
X3047546Y2753743D02*
D03*
X3172544Y2753116D02*
D03*
X3297544D02*
D03*
X3422544D02*
D03*
X3547544D02*
D03*
X3672544D02*
D03*
X3797544D02*
D03*
X3922544D02*
D03*
X4047544D02*
D03*
X4172544D02*
D03*
X4297544D02*
D03*
X4422544D02*
D03*
X4547544D02*
D03*
X4672544D02*
D03*
X4797544D02*
D03*
X4922544D02*
D03*
X5047544D02*
D03*
X5172544D02*
D03*
X5297544D02*
D03*
X5422544D02*
D03*
X5547544D02*
D03*
X5672544D02*
D03*
X5797544D02*
D03*
X5922544D02*
D03*
X6047544D02*
D03*
X6172544Y2753116D02*
D03*
X6297544D02*
D03*
X6422544D02*
D03*
X6547544D02*
D03*
X6672544D02*
D03*
X6797544D02*
D03*
X6922544D02*
D03*
X7047544D02*
D03*
X7172544D02*
D03*
X7297544D02*
D03*
X7422544D02*
D03*
X7547544D02*
D03*
X7672544D02*
D03*
X7797544D02*
D03*
X7922544D02*
D03*
X8047544D02*
D03*
X8172544D02*
D03*
X8297544D02*
D03*
X8422544D02*
D03*
X8547544D02*
D03*
X8672544D02*
D03*
X8797544D02*
D03*
X8922544D02*
D03*
X9047544Y2753116D02*
D03*
X9172544D02*
D03*
X9297544D02*
D03*
X9422544D02*
D03*
X9547544D02*
D03*
X9672544D02*
D03*
X9797544D02*
D03*
X9922544D02*
D03*
X10047544D02*
D03*
X10172544D02*
D03*
X10297544D02*
D03*
X10422544D02*
D03*
X10547544D02*
D03*
X10672544D02*
D03*
X10797544D02*
D03*
X10922544D02*
D03*
X11047544D02*
D03*
X11172544D02*
D03*
X11297544D02*
D03*
X11422544D02*
D03*
X11547544D02*
D03*
X11672544D02*
D03*
X11797544D02*
D03*
X11922544Y2753116D02*
D03*
X12047544D02*
D03*
X12172544D02*
D03*
X12297544D02*
D03*
X12422544D02*
D03*
X12797544D02*
D03*
X12922543D02*
D03*
X13047543D02*
D03*
X13172543D02*
D03*
X13297543D02*
D03*
X13422543D02*
D03*
X13547543D02*
D03*
X13672543D02*
D03*
X13797543D02*
D03*
X13922543D02*
D03*
X14047543D02*
D03*
X14172543D02*
D03*
X14297543D02*
D03*
X14422543D02*
D03*
X14547543D02*
D03*
X14672543D02*
D03*
X14797543Y2753117D02*
D03*
X14922543D02*
D03*
X15047543D02*
D03*
X15172543D02*
D03*
X15297543D02*
D03*
X15422543D02*
D03*
X15547543D02*
D03*
X15672543D02*
D03*
X15797543D02*
D03*
X15922543D02*
D03*
X16047543D02*
D03*
X16172543D02*
D03*
X16297543D02*
D03*
X16422543D02*
D03*
X16547545D02*
D03*
X16672545D02*
D03*
X16797545D02*
D03*
X16922545D02*
D03*
X17047545D02*
D03*
X17172525Y2755324D02*
D03*
X17292068Y2791854D02*
D03*
X17386433Y2873831D02*
D03*
X17438396Y2987519D02*
D03*
X17446883Y3112231D02*
D03*
Y3237231D02*
D03*
Y3362231D02*
D03*
Y3487231D02*
D03*
Y3612231D02*
D03*
Y3737231D02*
D03*
Y3862231D02*
D03*
Y3987231D02*
D03*
Y4112231D02*
D03*
Y4237231D02*
D03*
Y4362231D02*
D03*
Y4487231D02*
D03*
Y4612231D02*
D03*
Y4737231D02*
D03*
Y4862231D02*
D03*
Y4987231D02*
D03*
Y5112231D02*
D03*
Y5237231D02*
D03*
Y5362231D02*
D03*
Y5487231D02*
D03*
Y5612231D02*
D03*
Y5737231D02*
D03*
Y5862231D02*
D03*
Y5987231D02*
D03*
Y6112231D02*
D03*
Y6237231D02*
D03*
Y6362231D02*
D03*
Y6487231D02*
D03*
Y6612231D02*
D03*
Y6737231D02*
D03*
Y6862231D02*
D03*
Y6987231D02*
D03*
Y7112231D02*
D03*
Y7237231D02*
D03*
Y7362231D02*
D03*
Y7487231D02*
D03*
Y7612231D02*
D03*
Y7737231D02*
D03*
Y7862231D02*
D03*
Y7987231D02*
D03*
Y8112231D02*
D03*
Y8237231D02*
D03*
Y8362231D02*
D03*
Y8487231D02*
D03*
Y8612231D02*
D03*
Y8737231D02*
D03*
Y8862231D02*
D03*
Y8987231D02*
D03*
Y9112231D02*
D03*
Y9237231D02*
D03*
Y9362231D02*
D03*
Y9487231D02*
D03*
Y9612231D02*
D03*
Y9737231D02*
D03*
Y9862231D02*
D03*
Y9987231D02*
D03*
Y10112231D02*
D03*
Y10237231D02*
D03*
Y10362231D02*
D03*
Y10487231D02*
D03*
Y10612231D02*
D03*
Y10737231D02*
D03*
Y10862231D02*
D03*
Y10987231D02*
D03*
Y11112231D02*
D03*
Y11237231D02*
D03*
Y11362231D02*
D03*
Y11487231D02*
D03*
Y11612231D02*
D03*
Y11737231D02*
D03*
Y11862231D02*
D03*
Y11987231D02*
D03*
Y12112231D02*
D03*
X17432646Y12236417D02*
D03*
X17370471Y12344857D02*
D03*
X17269974Y12419189D02*
D03*
X17147990Y12446487D02*
D03*
D99*
X6300000Y9407500D02*
D03*
D111*
X4300000Y11700000D02*
D03*
Y10130000D02*
D03*
X10220000Y6100000D02*
D03*
X8650000D02*
D03*
X8648021Y7594002D02*
D03*
X10218021D02*
D03*
X8648021Y8084002D02*
D03*
X10218021D02*
D03*
X10218021Y6604002D02*
D03*
X8648021D02*
D03*
X10218021Y7094002D02*
D03*
X8648021D02*
D03*
X10218021Y8574002D02*
D03*
X8648021D02*
D03*
X11320000Y8850000D02*
D03*
X12889999D02*
D03*
X14910001Y8860000D02*
D03*
X13339999D02*
D03*
X12889999Y9340000D02*
D03*
X11320000D02*
D03*
X14910001Y9350000D02*
D03*
X13339999D02*
D03*
X11320000Y8360000D02*
D03*
X12889999D02*
D03*
X14720000Y8370000D02*
D03*
X13150000D02*
D03*
%TF.MD5,8f0bcc85e6837c918cff87b196193a87*%
M02*
